<?xml version="1.0" encoding="UTF-8" standalone="no"?>
<!-- Created with Inkscape (http://www.inkscape.org/) -->

<svg
   xmlns:dc="http://purl.org/dc/elements/1.1/"
   xmlns:cc="http://creativecommons.org/ns#"
   xmlns:rdf="http://www.w3.org/1999/02/22-rdf-syntax-ns#"
   xmlns:svg="http://www.w3.org/2000/svg"
   xmlns="http://www.w3.org/2000/svg"
   xmlns:sodipodi="http://sodipodi.sourceforge.net/DTD/sodipodi-0.dtd"
   xmlns:inkscape="http://www.inkscape.org/namespaces/inkscape"
   version="1.1"
   id="svg109"
   xml:space="preserve"
   width="135.78313"
   height="336.47852"
   viewBox="0 0 135.78313 336.47852"
   sodipodi:docname="1.svg"
   inkscape:version="0.92.4 (5da689c313, 2019-01-14)"><metadata
     id="metadata115"><rdf:RDF><cc:Work
         rdf:about=""><dc:format>image/svg+xml</dc:format><dc:type
           rdf:resource="http://purl.org/dc/dcmitype/StillImage" /><dc:title></dc:title></cc:Work></rdf:RDF></metadata><defs
     id="defs113" /><sodipodi:namedview
     pagecolor="#ffffff"
     bordercolor="#666666"
     borderopacity="1"
     objecttolerance="10"
     gridtolerance="10"
     guidetolerance="10"
     inkscape:pageopacity="0"
     inkscape:pageshadow="2"
     inkscape:window-width="1217"
     inkscape:window-height="812"
     id="namedview111"
     showgrid="false"
     fit-margin-top="0"
     fit-margin-left="0"
     fit-margin-right="0"
     fit-margin-bottom="0"
     inkscape:zoom="3.5757576"
     inkscape:cx="65.433274"
     inkscape:cy="109.41261"
     inkscape:window-x="0"
     inkscape:window-y="0"
     inkscape:window-maximized="0"
     inkscape:current-layer="g117" /><g
     id="g117"
     inkscape:groupmode="layer"
     inkscape:label="Plantos_Test2"
     transform="matrix(1.3333333,0,0,-1.3333333,-311.30926,1029.3183)"><g
       id="g119"
       transform="matrix(610.6,0,0,789.1,0.7,1.4)"><path
         style="fill:#000000;stroke-width:0.48000872"
         d="M 70.833984,0 C 64.185776,0.63443638 67.423637,2.8091949 61.091797,0.00585938 49.737242,0.39064555 74.585379,15.381868 71.158203,1.5214844 Z m -9.43164,1.8847656 c 0.491001,5.904e-4 0.888682,0.3545699 0.888672,0.7910156 1e-5,0.436446 -0.397671,0.7904253 -0.888672,0.7910157 -0.491764,3.68e-4 -0.890634,-0.353892 -0.890625,-0.7910157 -9e-6,-0.4371235 0.398861,-0.7913836 0.890625,-0.7910156 z m 7.316406,0.9882813 c 0.601421,-1.338e-4 1.088793,0.4434891 1.087891,0.9902343 -2.85e-4,0.5459827 -0.48731,0.9884144 -1.087891,0.9882813 C 68.118169,4.8516956 67.631144,4.4092639 67.630859,3.8632812 67.629957,3.316536 68.117329,2.8729131 68.71875,2.8730469 Z M 57.400391,8.6113281 c -8.789628,4.9734339 6.820915,14.8421039 8.740234,7.2851559 4.281527,9.410281 20.544879,-0.694436 7.648437,-5.851562 C 68.103159,8.8307596 62.565248,11.730903 57.400391,8.6113281 Z m 2.814453,4.0507809 c 0.928422,-2.85e-4 1.681359,0.508669 1.68164,1.136719 0.0013,0.628813 -0.75209,1.138958 -1.68164,1.138672 -0.92955,2.87e-4 -1.682956,-0.509859 -1.681641,-1.138672 2.81e-4,-0.62805 0.753219,-1.137005 1.681641,-1.136719 z m 11.503906,0.550782 c 6.000977,2.282077 -5.370837,2.922826 0,0 z m -2.640625,8.470703 c -4.96804,4.075272 -7.757699,4.498026 -13.980469,1.296875 -11.328986,6.277027 9.411701,20.702181 12.626953,6.488281 7.525849,4.651481 -1.467017,5.648914 -1.326171,11.341797 -5.913865,-6.777843 -25.373423,-5.687308 -18.449219,8.246094 9.019534,5.074439 -7.634301,15.928431 4.423828,21.177734 -10.224538,7.067179 3.867165,24.712027 11.132812,12.521484 3.99251,7.736337 13.076592,15.591078 2.501953,21.136721 -7.007244,16.6821 28.623531,16.47003 22.423829,0.78125 C 86.641361,97.850736 69.173664,98.178158 80.779297,92.839844 88.782223,82.311041 60.160624,78.449054 77.423828,79.324219 84.852795,75.741705 75.599492,69.54843 83.087891,66.478516 80.619438,59.99001 75.467552,54.784299 70.400391,49.734375 62.380363,44.154912 64.786947,58.988572 57.984375,51.996094 60.795577,46.872205 62.665626,44.825281 68.023438,45.150391 67.750198,35.969475 79.453985,58.051594 83.541016,43.349609 82.794708,35.535415 72.643858,36.325681 80.5,29.474609 79.863527,23.947753 73.983034,21.608892 69.078125,21.683594 Z m 4.441406,4.226562 c 4.588456,3.071177 -2.518928,6.567416 0,0 z m -16.058593,2.9375 c 5.577623,0.265317 -1.01034,4.782998 0,0 z m 18.019531,9.539063 c 8.267194,5.305908 -4.748026,8.06881 0,0 z m -19.988281,2.419922 c 5.694858,7.078753 -9.128438,9.351507 -2.279297,1.412109 l 1.246093,-1.001953 z m 13.388671,12 c 6.135309,3.723499 -1.382398,11.020991 0,0 z m -10.414062,3.527343 c 10.119754,5.58262 -10.933988,16.022996 -4.353516,2.847657 0.529122,-2.069547 2.840856,-2.013315 4.353516,-2.847657 z m 7.914062,6.117188 c 4.315721,1.693934 11.915665,0.444743 7.578125,4.734375 -8.543918,-4.02441 -1.009508,10.987966 -8.642578,1.480469 -3.474721,-1.216266 1.545036,-3.822293 1.064453,-6.214844 z m 9.625,0.0039 c 6.678336,1.626598 -1.15037,3.496239 0,0 z m -3.296875,8.269531 c 6.752422,0.65549 1.231784,8.989427 0,0 z m -7.5625,3.203125 c 1.942522,4.040192 -1.804119,5.604715 0,0 z m -7.40625,1.203125 c 6.342099,4.365301 -7.065859,1.353044 0,0 z m -0.96875,5.082032 c 2.001954,2.242096 -4.607176,1.737072 0,0 z m 16.779297,4.46875 c 10.085809,1.853859 -4.536116,13.29438 -1.77539,0.736328 0.155735,-0.801431 1.237248,-0.646781 1.77539,-0.736328 z m -30.529297,5.939453 c -18.041673,0.439273 -9.08917,25.260292 6.199219,23.746092 8.742408,14.08764 20.649113,-8.058 9.1875,-14.652342 3.644061,-8.585408 -7.99033,-8.535894 -13.556641,-9.058594 -0.638859,-0.03827 -1.248088,-0.04933 -1.830078,-0.03516 z m 3.347657,4.066406 c 16.894564,1.255195 -2.445943,23.757246 -8.107422,9.070306 -3.25979,-5.595218 3.386263,-9.188145 8.107422,-9.070306 z m 31.939453,6.621086 c 15.512248,0.30124 -0.466559,19.00192 -7.054688,8.27149 -0.571969,-4.16459 4.820193,-7.50659 7.054688,-8.27149 z m -20.484375,4.98633 c 5.215334,7.35967 -10.006706,10.49812 -1.115235,4.36524 -0.142961,-1.74339 -1.059315,-3.16581 1.115235,-4.36524 z m -15.257813,9.07031 c -15.036631,4.03073 -12.617454,22.77561 1.449219,25.57618 8.596841,3.87606 12.598352,-9.94171 19.099609,0.97461 2.160779,0.71647 3.850772,0.15043 5.310547,-0.82227 2.089378,3.84377 8.5192,10.64675 2.757813,8.63477 -2.852723,-2.71661 -15.684608,-13.06924 -8.582032,-4.35547 1.134088,8.64538 22.843384,8.41944 8.931641,13.74218 -4.94993,-1.76548 -13.687074,-3.33522 -12.132812,-5.35742 1.928681,-2.77026 5.294548,-3.46596 -0.28711,-5.05469 -0.42117,-7.56819 -19.112008,-5.08512 -21.160156,-1.63671 -1.653273,0.76167 2.418823,11.02294 6.191406,15.99023 -8.050496,-0.87082 -20.426581,-1.72007 -27.074219,-1.64844 -3.84303,-1.67521 -6.50098,0.6642 -7.1035151,3.20899 -6.1944931,1.52983 -11.0372776,14.79371 -5.546875,17.82617 -3.91272401,7.86049 2.3072731,12.93928 5.1542969,7.87305 3.3027672,10.95595 25.2298962,1.18445 35.8750002,-4.48243 -2.241113,2.89802 14.988728,0.52785 17.103515,-5.5996 7.559228,-9.85323 -20.264342,-12.89013 -3.804687,-17.08204 0.469306,3.29232 6.255151,12.26766 11.865234,11.875 -3.691628,8.71653 10.521515,22.29071 12.308594,25.37305 -7.175771,-3.6509 -22.637151,-4.23973 -13.173828,7.20117 10.500295,11.1166 31.089053,27.93982 45.679683,18.00782 2.34142,-1.69015 14.66363,-11.90402 8.54297,-19.92969 -8.56582,-7.61113 -23.78332,-0.053 -34.681638,-4.55469 -0.03747,0.32226 13.198978,-4.09335 16.394528,-5.02344 9.21502,4.3895 24.3884,-8.06557 22.87696,-19.23828 2.35528,-9.92898 0.73686,-8.94081 -7.12891,-11.67383 v 0.002 c -7.95408,5.12915 -22.800263,3.73182 -33.484374,4.77343 -3.158329,0.0234 -6.840944,-0.33746 -9.966797,-0.14257 5.403939,-6.57839 -2.076716,-27.39596 -4.462891,-28.81446 -1.239585,-1.21044 -1.824457,-1.85408 -2.404297,-2.16992 2.326532,-2.1772 4.344999,-3.84535 7.507813,0.61719 18.450373,1.36988 6.941565,-24.05873 -6.660156,-18.3125 0.554266,7.40702 -1.024429,12.26604 -8.189454,4.8789 -3.337942,-2.01799 11.06305,14.46263 -0.757812,9.60157 1.291215,-9.70067 -7.713982,0.98845 -7.832031,-8.91016 -2.17455,-4.70514 -6.494475,-11.3386 -12.615235,-11.34766 z m 1.822266,4.74415 c 13.808104,3.99701 4.69498,23.03459 -7.298828,12.20898 -2.218514,-5.11968 3.106855,-10.22712 7.298828,-12.20898 z m 34,4.29687 c 11.961161,-0.054 0.08013,17.94436 -1.238281,6.40625 0.429496,-1.74654 -0.761703,-5.38989 1.238281,-6.40625 z m -29.517578,25.19141 c 11.939439,0.0425 -3.441483,10.48379 -6.904297,0.70703 2.935134,-0.50766 5.198662,-0.71311 6.904297,-0.70703 z m 2.107422,10.00781 c 10.23186,0.6487 -4.492494,7.4285 -2.541016,0.0918 z m 12.894531,0.71875 c 6.996662,2.93861 12.201311,4.89112 2.457031,7.58984 -2.444028,-1.1363 -2.209535,-5.34985 -2.457031,-7.58984 z m -40.753906,5.08984 c 7.071023,0.15813 20.714097,2.77341 23.96289,0.5918 4.922078,5.89992 17.523362,11.83134 3.378907,16.99219 h -0.002 c -8.522343,-3.9171 -30.489086,11.67726 -36.912109,8.57031 9.834482,-3.40576 -4.7403557,-3.65944 2.757813,-9.54297 2.219323,-4.94397 1.710427,-13.67238 3.763671,-16.41992 0.745339,-0.16861 1.793042,-0.21953 3.050782,-0.19141 z M 11.40625,168.6543 c 9.17503,2.50352 -1.04211,14.17247 -2.4375,14.38086 -3.3933684,-4.14207 -0.6549488,-9.60602 2.4375,-14.38086 z m 106.01758,3.57422 c 1.20654,3.13956 -5.69808,11.19324 -8.49024,14.94336 -1.43776,5.21433 -11.864192,5.73465 -16.626949,8.23242 -11.107872,4.83139 -18.908302,-13.6354 -17.455079,-20.09571 14.273956,-0.0832 28.454138,-1.02991 42.572268,-3.08007 z m 7.02539,0.63281 c 2.42123,6.40749 -8.02325,18.35473 -10.0918,16.98633 4.16999,-5.23016 5.70948,-11.96681 10.0918,-16.98633 z m -79.466798,18.90625 c -0.660341,-0.0118 -1.313186,-0.01 -1.953125,0.008 -4.654101,0.12623 -8.649115,1.01896 -10.244141,2.60547 -13.488998,-1.64157 -12.736434,14.83346 -16.992187,24.41211 -7.6463399,9.65332 9.948892,10.53172 15.751953,9.74609 -10.965528,17.56279 -11.601154,23.7811 -3.566406,40.25977 -7.045197,-0.87042 -10.253651,19.5783 -1.197266,19.08789 -2.892859,2.36069 -6.321933,4.49725 -9.414062,7.24219 -4.325491,7.93203 -5.356845,14.54742 -1.976563,22.15234 1.182936,7.07139 9.534475,14.83087 17.609375,14.30859 7.573068,-1.31095 -0.694751,-11.87712 6.316406,-14.83593 9.847105,-9.001 12.025476,-22.85398 19.826172,-33.33203 2.430188,-7.81525 5.518174,-16.41832 10.054688,-22.72071 4.191968,12.98385 -2.358639,23.03352 -9.779297,33.03321 -3.95506,8.49172 -20.383544,19.65617 -12.97461,28.38867 -9.576402,8.90946 11.222207,18.75964 17.728516,11.29297 5.409102,-5.47005 8.62969,-12.13683 12.503906,-18.76758 0.856468,6.16971 11.532629,20.11324 23.335939,18.19531 11.46495,2.35047 20.74436,-3.56616 24.19336,-15.42187 6.17823,-10.543 0.30007,-19.26846 -5.13867,-19.94727 3.98591,-7.4318 2.36462,-13.32649 1.1289,-15.5 15.5113,1.4324 6.3148,-19.74014 14.37696,-28.30273 4.46633,-13.29655 -5.58364,-6.37873 -11.04297,-5.04883 -13.87975,-3.64249 -26.6293,-11.28996 -38.070316,-19.55078 0.106296,-0.007 0.225567,-0.008 0.333985,-0.0137 -4.757128,-3.4603 -8.854066,-5.82272 -13.908203,-7.22656 -1.05307,-3.89649 -3.4266,-6.22675 -8.736328,-3.33203 -8.157128,4.34531 -22.286275,12.27415 -27.949219,9.06641 8.02735,-7.67426 25.907273,-11.9682 29.591797,-24.74805 1.787615,-7.39881 -9.903476,-10.87403 -19.808594,-11.05078 z m -8.962891,3.96875 c 24.281011,3.51988 28.410732,15.46087 1.125,24.06055 -2.429499,-6.61851 7.317868,-16.83009 -1.125,-24.06055 z m -3.164062,1.28906 c 8.376776,5.91299 -0.0923,22.5682 -7.052735,26.9375 -14.608315,3.19323 4.320194,-14.85892 0.212891,-22.29687 -0.36899,-3.97812 3.886982,-4.54678 6.839844,-4.64063 z m 54.318359,3.67773 c 1.494749,0.59235 -2.073597,0.26415 0,0 z m -15.68164,2.06446 c 13.769514,2.8639 27.691369,5.42488 41.822262,5.07031 -1.08035,14.29797 -15.874137,16.37508 -26.187497,9.24414 -4.723601,-5.04708 -12.935755,-7.81122 -15.634765,-14.31445 z m 48.537112,7.0332 c 2.08743,4.45999 -3.87772,0.41266 0,0 z m -3.99414,5.96289 c 0.62761,4.68094 -4.65523,12.45956 -5.9668,7.22656 1.80575,-2.55563 3.77515,-4.99183 5.9668,-7.22656 z m -51.978519,7.43945 c 0.842628,13.74087 -9.017206,23.63755 -18.34375,32.09376 -5.324432,9.88475 -4.402523,-5.23802 -7.441407,-7.73438 -3.064521,-2.31182 -12.752061,-6.57588 -4.685546,-11.20312 9.750707,-5.28592 20.842762,-7.4398 30.470703,-13.15626 z m 8.472656,2.68555 c 8.890412,8.91702 25.050007,14.92869 34.654293,20.92578 6.51714,4.00021 19.61286,3.27082 14.26563,14.64649 -7.02841,3.56252 0.59016,18.57058 -9.76563,11.52344 -11.46438,-4.05177 -26.09763,-8.33875 -31.353512,-20.43555 -1.830986,-6.47588 -9.330525,-10.57036 -7.632812,-17.9375 -0.02006,-2.3089 0.09286,-5.61054 -0.167969,-8.72266 z m -5.658203,7.1543 c -0.132948,7.52065 3.108409,16.74193 1.082031,23.02148 -6.405601,-0.48746 -6.469691,11.09452 -12.158203,8.42578 -2.900757,7.09454 -15.858161,17.9652 -20.84375,15.95899 2.593829,-4.87033 4.561317,-11.68969 -2.933594,-13.11133 9.741838,-5.11863 14.745206,-6.11588 23.728516,-15.76562 7.252295,-4.0665 9.727296,-10.83084 11.125,-18.5293 z m -37.763672,13.32812 c 5.59562,-0.0748 7.885468,6.76628 8.357422,11.37305 -10.389127,11.12944 -8.108311,-8.15398 -10.369141,-11.07226 0.768829,-0.19698 1.432862,-0.29305 2.011719,-0.30079 z m 46.166016,3.75782 c 4.465517,14.7608 19.784229,21.11288 32.683592,26.35156 -2.42831,1.49597 -1.33421,12.63625 0.46485,17.42383 -5.38705,-2.30737 -10.804496,-5.33065 -15.812505,-6.8711 -5.484816,-2.65137 -14.62504,-12.0891 -17.126953,-10.02734 1.046975,-7.51223 -3.38202,-26.73302 -0.208984,-26.87695 z m 51.966792,4.46875 c 2.27388,5.26908 -3.81912,8.5601 -0.52734,0.38086 z m -1.14453,8.44531 c -0.22103,5.21016 -0.5246,22.11647 -5.47265,8.24609 0.69752,-3.48361 4.63817,-4.79615 5.47265,-8.24609 z m -95.962888,8.68164 c 1.017053,-0.0234 2.107024,0.69172 3.160157,2.47656 0.490812,5.68781 -1.684035,9.28116 -4.91211,12.29883 -5.188662,-2.86067 -2.29761,-14.68238 1.751953,-14.77539 z m 26.482422,1.72851 c 0.384141,11.65722 -8.812555,20.20393 -12.886718,30.08399 -2.13303,3.64038 -11.096763,18.03832 -9.69336,6.34375 5.699748,-7.38492 0.149563,-13.60272 -3.947265,-18.09375 8.70536,-6.28229 18.846081,-10.65352 26.527343,-18.33399 z m 57.976566,6.67383 c 2.04615,4.5e-4 3.70482,3.16129 3.70508,7.06055 3.1e-4,3.90002 -1.65853,7.06205 -3.70508,7.0625 -2.04731,0.002 -3.70734,-3.16103 -3.70703,-7.0625 2.6e-4,-3.90071 1.66012,-7.06215 3.70703,-7.06055 z m -38.646488,3.07422 c 9.881544,3.108 16.91348,12.6677 28.328128,14.41992 15.5488,4.61992 -8.004719,17.67376 -6.814456,27.63672 -22.859812,-7.30363 -18.1751,-19.42848 -21.591796,-36.41797 -0.03239,-1.87595 -0.267943,-3.77397 0.07812,-5.63867 z m -5.767578,1.67969 c 0.634902,12.10606 2.060812,25.42137 -3.40039,36.56641 -9.152894,2.45252 3.937955,-14.12691 -6.382813,-15.51172 3.254091,-6.22442 3.111385,-14.48738 9.783203,-21.05469 z m -43.972656,10.78516 c 10.167874,5.58051 -0.456264,18.59253 4.919922,27.99218 -1.801677,10.87212 -15.890313,-6.18968 -12.255859,-13.25781 -0.920785,-6.10553 4.148768,-10.48344 7.335937,-14.73437 z m 97.680222,9.20845 c -2.8229,12.16183 -6.44767,16.7674 -14.27035,23.64625 -19.852977,-3.9079 8.73251,-25.91119 14.27035,-23.64625 z m -66.613816,3.30131 c 7.029227,3.94761 -1.32752,13.36048 2.78711,20.11328 -19.359405,7.64362 -6.569674,-18.75639 -2.78711,-20.11328 z m -32.878906,2.4707 c -6.499226,4.65464 1.510117,17.04565 2.246094,4.33399 -0.08887,-1.61082 -0.640761,-3.58066 -2.246094,-4.33399 z"
         transform="matrix(0.0012283,0,0,-9.504499e-4,0.38123477,0.97654131)"
         id="path123"
         inkscape:connector-curvature="0"
         sodipodi:nodetypes="cccccccccccccccccccccccccccccccccccccccccccccccccccccccccccccccccccccccccccccccsccccccccccccccccccccccccccccccccccccccccccccccccccccccccccccccccccccccccccccccccccccccccccccccccccccccccccccccccccccccccccccccccccccccccccccccccccccccccccccccccccccccccccccccccccccccccccccccccccccccccccccc" /></g><path
       style="fill:none;stroke:#000000;stroke-width:4.20000018;stroke-linecap:butt;stroke-linejoin:miter;stroke-opacity:1;stroke-miterlimit:4;stroke-dasharray:none"
       d="m 285.07941,606.0451 -3.77542,23.91102 -3.27215,26.71503 2.01367,23.20446 2.3072,16.77966 0.91448,28.49457 1.23176,12.97675 -1.41213,21.93967 -0.52436,8.74156"
       id="path167"
       inkscape:connector-curvature="0" /></g></svg>