<?xml version="1.0" encoding="UTF-8" standalone="no"?>
<!-- Created with Inkscape (http://www.inkscape.org/) -->

<svg
   xmlns:dc="http://purl.org/dc/elements/1.1/"
   xmlns:cc="http://creativecommons.org/ns#"
   xmlns:rdf="http://www.w3.org/1999/02/22-rdf-syntax-ns#"
   xmlns:svg="http://www.w3.org/2000/svg"
   xmlns="http://www.w3.org/2000/svg"
   xmlns:sodipodi="http://sodipodi.sourceforge.net/DTD/sodipodi-0.dtd"
   xmlns:inkscape="http://www.inkscape.org/namespaces/inkscape"
   version="1.1"
   id="svg1956"
   xml:space="preserve"
   width="253.37852"
   height="100.37541"
   viewBox="0 0 253.37852 100.37541"
   sodipodi:docname="1.svg"
   inkscape:version="0.92.4 (5da689c313, 2019-01-14)"><metadata
     id="metadata1962"><rdf:RDF><cc:Work
         rdf:about=""><dc:format>image/svg+xml</dc:format><dc:type
           rdf:resource="http://purl.org/dc/dcmitype/StillImage" /><dc:title></dc:title></cc:Work></rdf:RDF></metadata><defs
     id="defs1960" /><sodipodi:namedview
     pagecolor="#ffffff"
     bordercolor="#666666"
     borderopacity="1"
     objecttolerance="10"
     gridtolerance="10"
     guidetolerance="10"
     inkscape:pageopacity="0"
     inkscape:pageshadow="2"
     inkscape:window-width="1269"
     inkscape:window-height="631"
     id="namedview1958"
     showgrid="false"
     inkscape:zoom="1.7878788"
     inkscape:cx="125.88312"
     inkscape:cy="45.778373"
     inkscape:window-x="0"
     inkscape:window-y="0"
     inkscape:window-maximized="0"
     inkscape:current-layer="g1964"
     fit-margin-top="0"
     fit-margin-left="0"
     fit-margin-right="0"
     fit-margin-bottom="0" /><g
     id="g1964"
     inkscape:groupmode="layer"
     inkscape:label="Plantos_Test2"
     transform="matrix(1.3333333,0,0,-1.3333333,-136.8578,536.49413)"><g
       id="g1966"
       transform="matrix(610.6,0,0,789.1,-476.2735,2.5865012)"><path
         style="fill:#000000;stroke-width:0.00051864"
         d="m 1.1087448,0.50663301 c -0.014686,-2.6127e-4 -0.028795,-0.003965 -0.043337,-0.005329 -0.011017,-9.1093e-4 -0.020439,-0.004669 -0.030479,-0.007982 -0.016469,-0.006554 -0.0351339,-0.007595 -0.0527325,-0.0112128 -0.009545,-0.002304 -0.0198633,-0.004049 -0.0280848,-0.008424 -0.003565,-0.002466 -0.009602,-0.012079 -5.2576e-4,-0.006265 0.004649,0.004171 0.0102725,0.002836 0.0164363,0.001855 0.0147409,-1.1438e-4 0.0294904,-8.5676e-4 0.0441777,-0.001249 0.011268,-1.8429e-4 0.022858,7.6933e-4 0.032625,-0.004744 0.010018,-0.003845 0.022138,0.00227 0.031267,-0.00443 0.00925,-0.003644 0.016082,-0.00978 0.024049,-0.0147045 0.011163,-6.0171e-4 0.020789,0.0110148 0.031965,0.004069 0.01241,-0.004176 0.019762,-0.0136651 0.03126,-0.0187639 0.010437,-0.002175 0.015796,0.0100427 0.026705,0.003016 0.010484,-0.002905 0.016844,-0.0136045 0.027923,-0.0137756 0.00562,0.002616 0.00908,0.0117547 0.014258,0.004131 0.00377,-0.002839 0.014861,-0.0154426 0.015967,-0.008083 -0.00587,0.006136 -0.016041,0.0227926 -0.026989,0.0122737 -0.00902,-0.008031 -0.017936,0.009456 -0.028785,0.0104518 -0.00956,0.004894 -0.018079,-3.1962e-4 -0.026017,-0.003154 -0.010851,0.004664 -0.017727,0.0135277 -0.029177,0.0176822 -0.010983,0.007213 -0.022945,-4.3166e-4 -0.033827,-0.003021 -0.00858,0.005368 -0.016706,0.0115745 -0.026798,0.0154685 -0.00947,0.00645 -0.022583,-0.001599 -0.031951,0.004732 -0.010374,0.005476 -0.023019,0.003327 -0.034743,0.004039 -0.0139773,5.1625e-4 -0.0285104,-2.4221e-4 -0.0421596,9.7908e-4 0.0108697,0.002269 0.0218582,0.004425 0.0329874,0.005588 0.015978,0.002689 0.030894,0.007809 0.045814,0.0128134 0.00956,0.004019 0.021821,0.00492 0.03345,0.006426 0.013818,0.002341 0.028095,0.004356 0.042133,0.001771 0.017546,-0.001341 0.034977,-0.004391 0.050628,-0.0108686 0.015039,-0.004685 0.030477,-0.008827 0.043931,-0.0160283 0.00915,-0.004993 0.02127,-0.008212 0.025861,-0.0167084 0.00938,-0.006769 0.00721,-0.0168255 0.00607,-0.0256445 0.00145,-0.00576 -0.00545,-0.0179769 8.991e-4,-0.0200294 0.0075,-0.00111 0.00361,0.006857 0.00477,0.0104375 4.094e-4,0.00254 0.00126,0.005164 0.00185,0.00822 -0.00324,0.009054 0.00654,0.020854 -0.00402,0.0275185 -0.00813,0.006724 -0.016497,0.0133121 -0.027536,0.0172354 -0.013029,0.006652 -0.026512,0.013188 -0.041833,0.0160196 -0.012378,0.003652 -0.02349,0.009727 -0.036846,0.0114366 -0.012983,0.001689 -0.02604,0.003672 -0.039188,0.004253 z"
         id="path1970"
         inkscape:connector-curvature="0" /></g></g></svg>