<?xml version="1.0" encoding="UTF-8" standalone="no"?>
<!-- Created with Inkscape (http://www.inkscape.org/) -->

<svg
   xmlns:dc="http://purl.org/dc/elements/1.1/"
   xmlns:cc="http://creativecommons.org/ns#"
   xmlns:rdf="http://www.w3.org/1999/02/22-rdf-syntax-ns#"
   xmlns:svg="http://www.w3.org/2000/svg"
   xmlns="http://www.w3.org/2000/svg"
   xmlns:sodipodi="http://sodipodi.sourceforge.net/DTD/sodipodi-0.dtd"
   xmlns:inkscape="http://www.inkscape.org/namespaces/inkscape"
   version="1.1"
   id="svg3966"
   width="195.4393"
   height="401.55835"
   viewBox="0 0 195.4393 401.55835"
   sodipodi:docname="0.svg"
   inkscape:version="0.92.4 (5da689c313, 2019-01-14)">
  <metadata
     id="metadata3972">
    <rdf:RDF>
      <cc:Work
         rdf:about="">
        <dc:format>image/svg+xml</dc:format>
        <dc:type
           rdf:resource="http://purl.org/dc/dcmitype/StillImage" />
        <dc:title></dc:title>
      </cc:Work>
    </rdf:RDF>
  </metadata>
  <defs
     id="defs3970" />
  <sodipodi:namedview
     pagecolor="#ffffff"
     bordercolor="#666666"
     borderopacity="1"
     objecttolerance="10"
     gridtolerance="10"
     guidetolerance="10"
     inkscape:pageopacity="0"
     inkscape:pageshadow="2"
     inkscape:window-width="989"
     inkscape:window-height="830"
     id="namedview3968"
     showgrid="false"
     inkscape:zoom="1.2136524"
     inkscape:cx="201.10072"
     inkscape:cy="217.30738"
     inkscape:window-x="0"
     inkscape:window-y="0"
     inkscape:window-maximized="0"
     inkscape:current-layer="svg3966"
     fit-margin-top="0"
     fit-margin-left="0"
     fit-margin-right="0"
     fit-margin-bottom="0" />
  <path
     style="fill:#000000"
     d="M 28.693179,400.47323 C 7.8617553,390.81247 24.86345,364.75471 17.200872,348.04928 12.932264,304.7514 10.140925,261.30745 7.1099241,217.90305 4.8926836,187.67801 4.3770686,157.22269 1.4951662,127.1194 -3.4304826,112.57578 5.1953957,97.958051 17.357432,91.931213 21.71964,79.659334 11.157431,51.778766 32.622708,54.239005 53.476826,59.428114 67.179007,38.549076 77.154872,23.726085 103.80288,0.23565316 143.39289,-4.9912483 176.90682,4.2658607 191.69526,4.3637004 195.6485,27.11566 177.86633,23.734202 147.68487,28.59733 118.38806,39.437774 91.771052,54.37004 77.497996,63.296164 61.910135,78.268929 67.780727,96.864231 c 6.002218,16.003739 1.595689,32.240599 2.790918,48.595519 2.993052,74.63054 4.394321,149.31334 5.198671,223.99636 8.340977,19.13561 -15.115455,34.86673 -32.428906,32.11593 -4.900324,0.009 -9.810738,-0.29348 -14.648231,-1.09881 z M 129.69318,35.473225 c -1.92675,-3.552053 -0.87418,3.844091 0,0 z m -31.605761,-3.5658 c 7.561011,-4.951395 33.117941,-6.971186 29.192671,-14.206643 -7.94871,0.03263 -35.976181,9.894393 -29.192671,14.206643 z m 55.605761,-2.4342 c 3.40547,-6.022377 3.73386,1.730664 0,0 z"
     id="path3976"
     inkscape:connector-curvature="0" />
</svg>
