<?xml version="1.0" encoding="UTF-8" standalone="no"?>
<!-- Created with Inkscape (http://www.inkscape.org/) -->

<svg
   xmlns:dc="http://purl.org/dc/elements/1.1/"
   xmlns:cc="http://creativecommons.org/ns#"
   xmlns:rdf="http://www.w3.org/1999/02/22-rdf-syntax-ns#"
   xmlns:svg="http://www.w3.org/2000/svg"
   xmlns="http://www.w3.org/2000/svg"
   xmlns:sodipodi="http://sodipodi.sourceforge.net/DTD/sodipodi-0.dtd"
   xmlns:inkscape="http://www.inkscape.org/namespaces/inkscape"
   version="1.1"
   id="svg34"
   xml:space="preserve"
   width="225.68669"
   height="438.35324"
   viewBox="0 0 225.68669 438.35324"
   sodipodi:docname="1.svg"
   inkscape:version="0.92.4 (5da689c313, 2019-01-14)"><metadata
     id="metadata40"><rdf:RDF><cc:Work
         rdf:about=""><dc:format>image/svg+xml</dc:format><dc:type
           rdf:resource="http://purl.org/dc/dcmitype/StillImage" /><dc:title></dc:title></cc:Work></rdf:RDF></metadata><defs
     id="defs38" /><sodipodi:namedview
     pagecolor="#ffffff"
     bordercolor="#666666"
     borderopacity="1"
     objecttolerance="10"
     gridtolerance="10"
     guidetolerance="10"
     inkscape:pageopacity="0"
     inkscape:pageshadow="2"
     inkscape:window-width="881"
     inkscape:window-height="777"
     id="namedview36"
     showgrid="false"
     fit-margin-top="0"
     fit-margin-left="0"
     fit-margin-right="0"
     fit-margin-bottom="0"
     inkscape:zoom="1.0984848"
     inkscape:cx="142.96915"
     inkscape:cy="261.13861"
     inkscape:window-x="0"
     inkscape:window-y="0"
     inkscape:window-maximized="0"
     inkscape:current-layer="g44" /><g
     id="g42"
     inkscape:groupmode="layer"
     inkscape:label="Plantos_Test1_with names"
     transform="matrix(1.3333333,0,0,-1.3333333,-864.9435,430.81725)"><g
       id="g44"
       transform="matrix(610.6,0,0,789.1,0.7,1.4)"><path
         style="fill:#000000;stroke-width:0.00051864"
         d="m 1.2143042,-0.00879173 c -0.029451,0.01243434 -0.00348,0.05726003 -0.013455,0.08310249 -0.00531,0.05044699 -0.013531,0.10104783 -0.00738,0.15184516 0.00143,0.0253765 0.011584,0.0494389 -0.013352,0.0688172 -0.018163,0.0244869 -0.00732,0.072801 -0.043995,0.0782695 0.010387,-0.031831 -0.029594,-4.6985e-4 -0.041894,0.006125 -0.01352,0.006416 -0.046682,0.0321422 -0.013615,0.0281695 0.02428,2.4549e-4 0.072071,-0.009517 0.068686,-0.0306245 0.00967,-0.01026 0.020138,-0.0105362 0.019384,0.005857 0.00885,0.0195787 0.031513,0.006238 0.022047,-0.0118276 -0.00465,-0.0376967 0.010953,-0.0734549 0.035295,-0.10105852 0.00716,0.0151667 0.049429,0.0156338 0.040223,0.0256107 -0.00404,0.015659 0.036303,0.00451 0.047299,-0.004521 0.012327,-0.007526 0.03945,-0.0351234 0.00728,-0.0248328 -0.013226,-0.001151 -0.06273,-0.0098 -0.045507,0.0144024 -0.058837,-0.004132 -0.030691,-0.0740286 -0.036244,-0.11220327 0.00201,-0.049114 -0.00344,-0.09812149 0.0011,-0.14725548 0.00487,-0.02337995 -0.00268,-0.02956423 -0.025867,-0.02987582 z m 0.073572,0.27985776 c 0.018064,0.003031 -0.00523,0.0155724 -0.00789,5.4415e-4 l 0.00791,-5.4615e-4 z m 0.031059,0.001883 c -0.00607,0.012908 -0.040393,0.007852 -0.01351,6.5913e-4 l 0.00684,-6.7724e-4 z m -0.00395,0.006955 c -0.010913,0.007389 -0.00791,0.0114421 -0.022411,0.006183 0.00596,-0.005975 0.015431,-0.00435 0.022411,-0.006183 z m -0.025246,0.007576 c 0.030461,0.002299 -0.0019,0.009298 0,0 z M 1.129891,0.36785231 c -0.00472,0.0169829 -0.049285,0.0202026 -0.013814,0.007673 l 0.00817,-0.004367 z m -0.00371,0.002579 c 0,0 0,0 0,0 z m -0.00271,0.0117915 c 2.167e-4,0.017693 -0.052489,0.0251356 -0.037415,0.0120066 0.00932,-0.008491 0.039851,-0.0143396 0.013685,-0.001855 0.00943,4.2385e-4 0.014587,-0.009489 0.02373,-0.010152 z m -0.031116,0.0142714 c 0.00629,-6.6213e-4 0.00136,-1.4336e-4 0,0 z M 1.13144,0.38456151 c 0.013433,0.008637 -0.033436,0.0159978 -0.00767,0.003938 z"
         id="path3751"
         inkscape:connector-curvature="0" /></g></g></svg>