<?xml version="1.0" encoding="UTF-8" standalone="no"?>
<!-- Created with Inkscape (http://www.inkscape.org/) -->

<svg
   xmlns:dc="http://purl.org/dc/elements/1.1/"
   xmlns:cc="http://creativecommons.org/ns#"
   xmlns:rdf="http://www.w3.org/1999/02/22-rdf-syntax-ns#"
   xmlns:svg="http://www.w3.org/2000/svg"
   xmlns="http://www.w3.org/2000/svg"
   xmlns:sodipodi="http://sodipodi.sourceforge.net/DTD/sodipodi-0.dtd"
   xmlns:inkscape="http://www.inkscape.org/namespaces/inkscape"
   version="1.1"
   id="svg64"
   width="673.64679"
   height="1675.3993"
   viewBox="0 0 673.64681 1675.3993"
   sodipodi:docname="3.svg"
   inkscape:version="0.92.4 (5da689c313, 2019-01-14)">
  <metadata
     id="metadata70">
    <rdf:RDF>
      <cc:Work
         rdf:about="">
        <dc:format>image/svg+xml</dc:format>
        <dc:type
           rdf:resource="http://purl.org/dc/dcmitype/StillImage" />
        <dc:title />
      </cc:Work>
    </rdf:RDF>
  </metadata>
  <defs
     id="defs68" />
  <sodipodi:namedview
     pagecolor="#ffffff"
     bordercolor="#666666"
     borderopacity="1"
     objecttolerance="10"
     gridtolerance="10"
     guidetolerance="10"
     inkscape:pageopacity="0"
     inkscape:pageshadow="2"
     inkscape:window-width="1243"
     inkscape:window-height="789"
     id="namedview66"
     showgrid="false"
     fit-margin-top="0"
     fit-margin-left="0"
     fit-margin-right="0"
     fit-margin-bottom="0"
     inkscape:zoom="0.74567624"
     inkscape:cx="416.17553"
     inkscape:cy="1294.525"
     inkscape:window-x="0"
     inkscape:window-y="0"
     inkscape:window-maximized="0"
     inkscape:current-layer="svg64" />
  <path
     style="fill:#000000"
     d="M 348.44526,0.00363321 C 324.84171,15.443468 288.05562,20.78897 275.74267,52.480408 c -17.51258,33.89555 -39.73819,54.928152 -39.89702,92.716822 -12.59814,32.01343 -17.36323,65.10373 -28.04883,96.05859 0.0967,26.50742 -17.64455,65.44291 4.69803,83.16095 0.13361,23.32875 -2.76716,40.06719 -2.28396,60.08317 -2.54768,17.50437 -0.90837,63.19798 19.96875,84.19922 36.99861,45.95957 15.32625,117.78429 28.53125,173.99996 20.5755,60.9377 -1.48109,121.42618 -1.73433,183 2.67917,26.36528 45.35702,122.87965 33.36341,106.12277 C 243.0322,883.58983 216.1732,819.14077 167.28543,771.74528 120.91362,718.81684 95.107784,652.7615 84.191772,584.025 64.141351,518.42831 55.084739,445.98153 83.2168,381.19916 c 21.97245,-28.48708 0.08158,-71.88606 -12.339183,-26.07401 -3.843847,47.81839 -27.324841,65.39466 -68.1718293,77.31901 -1.5315709,27.80718 69.7274433,-33.7491 45.8160533,23.63491 -13.678294,64.84047 25.807088,122.09104 34.554533,184.71319 4.683022,29.11161 29.886356,68.51752 -8.359574,27.41276 -27.040363,-21.34084 -36.627697,26.29437 -2.723556,27.75354 55.365776,48.77477 75.459066,125.99108 125.213806,180.73846 28.84375,42.63325 64.74525,78.37878 106.48242,108.0879 32.11776,69.82718 24.76372,146.95278 32.08154,221.34518 -23.74716,5.1237 7.47814,22.8813 6.61946,48.3609 4.76503,56.651 24.63562,121.1838 10.23015,174.7523 14.73929,43.8138 19.15581,97.8869 21.90942,146.8069 -5.37581,52.6458 10.49388,127.6604 78.60673,89.7679 9.7237,-220.8631 -20.66914,-441.6807 -61.96472,-657.8407 -22.41763,-45.36639 43.54666,-131.85537 49.65914,-116.00094 -41.86181,9.9544 -58.51028,59.16702 -69.37917,96.53178 -16.22045,4.64163 -42.22897,-80.62327 -57.50064,-111.85043 C 272.68414,783.2029 297.32047,676.90931 330.62144,585.03902 387.56871,449.19126 476.90698,331.17203 564.1837,213.85877 597.72051,156.48206 635.84207,100.7337 669.05667,43.823166 680.42836,-4.1800275 626.35036,41.107798 623.76793,66.058573 603.18942,94.312502 572.51131,158.6332 551.78746,164.1992 c -6.0317,-36.25379 -35.91237,-32.62291 -28.99414,-25.78711 -16.57317,16.19734 -24.24683,21.27757 -14.47031,21.75261 -10.07745,32.9365 39.51814,54.10475 -5.22053,83.75189 -25.83597,28.99544 -48.70153,104.96353 -76.16059,38.93462 -19.67842,-22.86565 -58.40114,-27.77645 -18.70316,-0.66962 63.19262,40.34366 3.17519,88.41964 -17.36523,133.27148 -39.23657,68.82247 -71.36985,141.35377 -99.41211,215.21875 13.11423,-51.92157 -33.09541,-118.57608 -6.48767,-158.84245 21.70898,-10.62479 18.72708,-56.03599 18.21025,-81.1933 16.7017,-86.94018 -0.78563,-181.65845 23.54178,-269.70647 5.52842,-20.75105 31.21649,-16.44146 35.79423,-32.679657 18.03081,-16.750023 58.06328,-13.1416 47.32813,-58.05664 C 398.07816,2.6228482 367.59088,5.0842923 348.44526,0.00363321 Z m 3.87891,1.03905999 c -2.83614,2.5036029 4.56214,1.6966889 0,0 z m 8.94726,0.65625 c 1.90062,2.8853444 -3.43524,2.3274467 0,0 z M 250.82221,102.69894 c 2.17322,8.88264 -10.43166,6.54387 0,0 z m -2.57421,17.39844 c 1.18127,1.69945 -4.23936,4.91056 0,0 z m -3.96875,10.52734 c -1.17745,10.27815 -7.92411,7.47327 0,0 z m 282.0664,7.41211 c 2.17858,4.05341 -5.14859,1.4667 0,0 z m 7.64844,15.16211 c 12.683,45.16733 -13.9996,19.71365 -4.2793,19.00781 -9.40108,9.57444 -0.12195,-14.84005 4.2793,-19.00781 z m -9.39453,25.50976 c 18.38093,11.32958 14.71183,19.12939 0,0 z m -306.51172,44.66993 c 0.99027,14.92729 -6.19327,10.45074 0,0 z m -3.83789,20.32031 c 6.94422,10.74526 -10.46328,6.88983 0,0 z m -1.2168,18.22656 c 6.4862,11.96394 -8.5954,10.02139 0,0 z m -1.26562,19.69922 c 2.93564,5.71793 -6.20346,7.93168 0,0 z m -1.05664,23.07422 c 3.70222,2.56335 -3.58384,3.84234 0,0 z m 11.62304,160.39062 c -3.24983,4.98301 3.39931,1.64779 0,0 z m 101.72071,741.60934 c -5.03755,1.8919 3.62246,3.1111 0,0 z m 4.85742,0.125 c -3.73229,0.5727 2.98008,0.9299 0,0 z m 0.55078,11.961 c 7.39312,1.5058 3.7364,5.2995 0,0 z m 39.89648,245.2597 c 1.94288,3.4952 -1.33969,2.8533 0,0 z"
     id="path74"
     inkscape:connector-curvature="0" />
</svg>
