<?xml version="1.0" encoding="UTF-8" standalone="no"?>
<!-- Created with Inkscape (http://www.inkscape.org/) -->

<svg
   xmlns:dc="http://purl.org/dc/elements/1.1/"
   xmlns:cc="http://creativecommons.org/ns#"
   xmlns:rdf="http://www.w3.org/1999/02/22-rdf-syntax-ns#"
   xmlns:svg="http://www.w3.org/2000/svg"
   xmlns="http://www.w3.org/2000/svg"
   xmlns:sodipodi="http://sodipodi.sourceforge.net/DTD/sodipodi-0.dtd"
   xmlns:inkscape="http://www.inkscape.org/namespaces/inkscape"
   version="1.1"
   id="svg154"
   width="1637.6475"
   height="1861.2994"
   viewBox="0 0 1637.6474 1861.2994"
   sodipodi:docname="4.svg"
   inkscape:version="0.92.4 (5da689c313, 2019-01-14)">
  <metadata
     id="metadata160">
    <rdf:RDF>
      <cc:Work
         rdf:about="">
        <dc:format>image/svg+xml</dc:format>
        <dc:type
           rdf:resource="http://purl.org/dc/dcmitype/StillImage" />
        <dc:title />
      </cc:Work>
    </rdf:RDF>
  </metadata>
  <defs
     id="defs158" />
  <sodipodi:namedview
     pagecolor="#ffffff"
     bordercolor="#666666"
     borderopacity="1"
     objecttolerance="10"
     gridtolerance="10"
     guidetolerance="10"
     inkscape:pageopacity="0"
     inkscape:pageshadow="2"
     inkscape:window-width="1105"
     inkscape:window-height="665"
     id="namedview156"
     showgrid="false"
     fit-margin-top="0"
     fit-margin-left="0"
     fit-margin-right="0"
     fit-margin-bottom="0"
     inkscape:zoom="0.3034131"
     inkscape:cx="689.70837"
     inkscape:cy="1078.764"
     inkscape:window-x="0"
     inkscape:window-y="0"
     inkscape:window-maximized="0"
     inkscape:current-layer="svg154" />
  <path
     style="fill:#000000"
     d="m 679.24943,1859.9768 c -9.47202,-59.2922 -7.08105,-134.8105 -5.1572,-192.1906 8.21503,-72.0286 11.00639,-148.0006 -3.6819,-219.3489 3.95323,-45.481 -7.36374,-103.0653 -11.2108,-152.7123 -11.47391,-42.6004 -23.55163,-89.4719 -57.288,-130.2661 -18.31767,-31.1108 -48.86002,-78.4011 -38.0628,-8.6727 -21.50998,114.814 -126.6701,179.6903 -202.1227,258 -69.25589,60.4486 -141.76904,124.6685 -179.6139,209.1042 -10.10354,41.4789 10.95923,166.8102 -32.5336,66.1294 -26.47554,-34.165 -44.37332,-79.4041 -52.490146,-124.3843 -16.023293,-82.2519 -48.934913,-161.4258 -40.076132,-246.1132 18.266542,-69.9875 38.101302,-139.4296 78.266878,-201.2997 26.34332,-63.2575 81.06123,-109.6387 141.7641,-138.36947 24.21477,-15.78754 136.03975,3.26393 138.3867,75.80157 36.90763,-58.08285 143.81597,5.4368 136.2982,17.6315 -32.53984,-41.7718 -57.93991,-98.81764 -103.0006,-125.34647 11.45127,-27.47221 -46.06796,-63.8599 -76.31744,-86.42556 -30.0363,-17.893 -70.74839,-69.52705 -100.45206,-62.72789 -20.92856,48.63246 -8.16651,103.18147 -78.8782,115.04817 -52.08056,14.41242 -152.173401,123.43725 -134.753095,103.23725 -1.205063,1.7838 -40.767134,42.267 -9.2643,-0.1128 28.661346,-11.1372 37.70749,-84.09695 10.3412,-59.07937 12.905091,-8.88253 -47.919536,-37.28029 1.6001,-29.4622 17.781496,-15.13273 86.878145,-113.67241 12.6905,-68.69168 -39.175558,32.06477 -36.553199,11.27493 -26.9663,-10.4139 -52.5805812,-69.14931 28.868026,38.09468 60.027545,-16.45864 56.37729,3.6973 56.84351,-71.37171 -9.069699,-51.37888 -27.023297,-5.61139 -64.867533,34.1337 -38.737646,-5.11855 -40.64812,-44.63276 45.950055,17.28617 70.200495,-8.0863 66.38428,21.67093 -6.78634,-29.47923 -3.9897,-28.57367 9.30468,-28.47342 -60.958444,-55.00402 4.6954,-32.84144 21.5899,-6.6193 24.73284,-122.37484 -32.390895,-52.8177 -87.246373,58.37057 -82.91777,176.22362 -71.7379,268.32306 10.113925,26.51012 11.323135,169.64177 -7.5485,72.4261 -14.9362124,-101.15496 -37.445842,-212.75062 17.9806,-306.35938 23.692019,-30.41347 65.668425,-61.9487 108.519695,-74.22118 3.65324,-55.9858 3.22098,-57.49229 31.3035,-105.1197 39.83275,-84.72746 157.82278,-47.85399 166.451,37.20031 23.23555,60.63917 31.64676,137.24433 14.3321,192.5 -7.94855,49.21312 -17.28551,117.93912 20.942,38.9769 26.71505,-54.94225 75.22041,-105.18582 101.96272,-152.49467 -33.51346,-83.28066 -66.85938,-170.5371 -126.98225,-238.70494 -34.34988,-35.03131 -178.62011,10.43932 -81.07119,-52.77916 72.00621,-37.46278 184.71158,-18.91061 225.24652,53.81112 20.94675,50.25502 31.74992,103.98705 38.98532,161.8095 7.04888,36.74202 -35.14578,111.5572 23.54058,55.87593 37.64499,-34.91872 119.84967,-72.71976 156.3376,-70.13153 -41.70835,42.79177 -81.97153,104.07106 -148.27129,106.42528 -64.49093,-22.24589 -110.87855,38.83122 -138.95211,78.89466 -73.31794,73.17429 23.86902,28.97896 86.2489,64.71596 39.01492,18.90447 142.57151,86.12457 34.6594,70.49522 -100.20008,-27.98741 -93.04216,92.58138 -29.3369,134.8804 31.73347,73.60995 103.35538,116.33155 131.3905,190.61205 4.44357,56.3608 25.53029,78.8853 39.734,19.6132 26.95515,-49.8122 57.30344,-98.078 75.8793,-150.3148 4.06909,-9.6554 18.74138,-28.7766 24.73147,-45.3746 8.46642,-23.47972 34.76758,-97.12384 30.3863,-78.86947 24.05607,-40.50523 38.79979,-88.84817 61.7312,-130.9411 16.80812,-84.54536 1.18504,-174.31671 -9.6952,-259.5 -2.16842,-51.26676 -18.34201,-103.82406 -62.25456,-38.13793 -68.00937,57.78232 -70.94021,155.07254 -97.81271,234.80727 -22.27887,83.3662 -34.76993,-39.9269 -30.11028,-68.79109 3.63379,-49.46107 20.30343,-98.88294 40.63786,-150.16834 18.67334,-73.33445 70.25932,-127.6558 139.23269,-139.50363 95.74803,-10.3125 -19.25005,91.08826 20.3113,131.79372 13.69308,98.63714 30.12842,-56.55572 37.9981,-88.5 12.71261,-45.58744 12.50772,-113.99532 -0.0993,-137.89705 10.1678,-37.91482 -22.00782,-41.58258 -30.1841,-70.96475 -4.0202,-13.85912 33.45414,25.82885 12.1495,-15.44008 43.84899,12.70972 -13.57895,-15.1291 3.6305,-23.19813 -8.16747,-23.3959 -19.19756,-22.65691 -16.59,-21.74999 -13.42389,-24.41312 33.00868,-4.52259 -11.6975,-36.1917 18.04084,-35.769722 -25.2616,-32.258024 -46.17092,-51.076522 -30.77581,-4.259194 -41.30902,27.102537 -41.52444,51.610642 -23.96624,6.50602 -16.97187,45.16391 -38.02091,49.18507 1,41.82565 -30.09123,-6.04269 -33.0082,-10.12585 25.64063,-6.96462 4.70565,-32.93311 19.0318,-38.17298 -7.20138,8.85436 0.66906,-12.33609 -1.024,-16.478656 -34.01781,-14.256427 46.56584,-40.774073 13.59906,-30.317598 -13.99493,-19.099678 29.52653,-24.770443 17.74544,-18.401302 2.44207,-12.576445 32.77168,-6.264784 10.77147,-22.96367 -28.30341,-1.992671 24.72567,-19.2715105 36.6191,-12.967976 -20.28161,7.687234 -22.45291,-3.1390038 -7.4133,-7.0233701 -0.74881,-0.9654441 27.02271,-7.6938791 38.38,5.3054001 6.83737,17.18821 46.09284,-23.70241 44.3663,15.868486 10.52717,21.386676 47.73544,34.716684 28.5514,62.47787 -3.51061,19.924616 32.37488,-57.982968 20.334,6.63928 -11.27709,49.970406 42.64271,66.364926 12.44034,119.252156 -1.02946,11.90936 54.27456,-5.85167 4.36976,33.5056 -25.12709,9.74793 45.5783,-5.28592 10.15844,37.70844 -31.58247,62.88 -25.86273,138.44066 -47.47984,206.60275 -17.66715,41.97262 -18.6245,99.55634 11.47869,28.49864 10.57877,-60.94547 76.71001,8.25336 89.68331,-55.13141 43.4339,-16.39723 50.5752,-21.86864 34.7137,-67.09072 -24.234,-28.75831 -23.8346,-55.95744 -42.7606,-96.56803 -25.71444,-59.29239 0.4821,-79.11629 42.2892,-30.8164 10.2712,39.31911 14.2096,86.20318 24.1533,111.05347 0.2684,3.21578 1.5146,113.19975 25.705,46.88593 20.0425,-28.43653 59.5291,-97.81675 55.5838,-83.02578 12.9723,-36.77688 18.9282,-68.56205 49.599,-74.81033 22.1575,-14.19257 59.1241,-24.37692 42.1977,-58.518 4.9198,-38.16558 -90.9632,-167.949467 -14.1501,-100.52615 55.5665,19.0466 110.9,45.17179 156.1449,78.22943 28.0612,-12.13965 52.2534,12.80994 73.194,31.53387 40.0901,27.22837 87.4372,87.14861 79.4479,130.44705 28.329,28.55714 5.1903,71.60478 50.7433,101.65231 20.6738,46.76166 74.7614,136.80187 -22.4676,122.4597 -57.4493,51.20632 -213.9526,9.12428 -132.2163,-73.66084 3.0087,-11.16336 -104.015,13.91568 -131.854,30.41892 -27.6218,54.24293 -109.4218,91.06584 -130.7495,134.29934 -9.9754,59.39615 -2.4611,80.76759 59.648,80.01289 42.7429,22.34272 67.3985,86.08144 96.1741,11.86084 8.8654,-16.14007 62.9625,-30.24079 12.3744,-12.18305 61.6708,-39.2574 113.8672,35.08025 121.0672,80.29227 94.7864,18.67814 40.5808,141.72579 41.9549,208.48625 -8.1842,61.2138 -8.5117,125.059 -9.4345,186.0371 -37.8833,4.0919 -29.7416,-55.4837 -51.4721,-76.5151 -19.9236,-66.7749 -52.4686,-129.9104 -78.5913,-195.17589 -38.5455,-76.77906 -82.7036,-179.18416 -174.7803,-198.28958 -53.2672,17.15665 -51.717,140.99705 -81.1838,198.17727 -12.2108,31.47301 -11.8508,80.3004 -36.2476,11.63919 C 1047.9021,927.47762 1015.0863,794.6783 961.0742,839.78575 891.54043,890.74864 830.609,953.56378 801.77936,1036.226 c -36.45392,83.0833 -86.57547,168.9667 -83.92987,262.2404 19.74848,100.2597 36.96552,201.2022 35.34398,303.9922 1.39523,80.1444 -5.23191,160.2019 -3.09992,240.3487 -19.38534,11.647 -48.17891,17.5413 -70.84412,17.1695 z m -534.506,-222.7177 c -1.22073,-29.3203 4.64699,-129.6937 -28.7873,-69.901 4.57935,22.9188 22.38711,63.0787 28.7873,69.901 z m 27.3869,-40.8281 c 22.53141,-23.3237 22.49902,-77.7498 -2.73861,-51.566 2.04785,6.0726 -8.17988,94.9287 2.73861,51.566 z m 6.2365,-22.8948 c 10.23471,-15.3391 -9.02361,17.7601 0,0 z m -30.6389,7.809 c -2.33371,-3.4347 -2.8802,1.9056 0,0 z m 41.4364,-19.4091 c -7.20614,5.1205 -2.53541,5.2154 0,0 z m -44.268,-5.3815 c -2.22877,1.4381 3.43481,4.6592 0,0 z m -17.6236,-17.2684 c 33.37393,-35.8012 20.65751,-95.5635 38.5012,-140.5 -18.33416,22.9487 -78.355397,166.4555 -38.5012,140.5 z m 70.3751,4.75 c -12.23054,-16.759 -5.67992,0.3575 0,0 z m -48.6298,-5.2514 c -0.80224,-5.4094 -2.02563,6.6538 0,0 z m 70.4715,-18.872 c 18.68402,-22.7077 33.28755,-99.8959 35.6372,-84.7262 25.24458,-47.7527 45.11307,-120.046 38.30454,-181.6599 -53.74175,79.7548 -109.3375,168.4917 -118.73824,265.2595 -1.55013,-35.4003 31.41143,49.2193 44.7965,1.1266 z m 22.2384,-59.1266 c 2.55494,-3.5875 2.55494,3.5875 0,0 z m 9,-30.941 c 0.11699,-4.3267 3.04972,0.9095 0,0 z m 9.3438,-24.309 c -26.82418,-87.3351 -17.22639,3.7281 0.1626,-7.7335 5.07914,-5.1156 3.43027,13.9895 -0.1626,7.7335 z m -2.318,-19.7568 c -1.92454,-12.298 -0.33032,11.9532 0,0 z m -77.0258,134.0658 c -5.14072,-6.9346 -1.57236,4.1019 0,0 z m -34.1139,-1.309 c 4.08144,-12.2312 -3.56779,-2.1413 0,0 z m -40.9014,-6.345 c 18.56801,-34.5028 -22.093073,-14.9253 0,0 z m 44.3397,-14.2556 c 2.53482,-24.3465 -7.08661,39.835 0,0 z m 91.6756,-4.5266 c -5.552,1.6875 -3.26253,6.1886 0,0 z m 2.9847,-8.9318 c -2.61132,-7.3693 -0.83998,12.4666 0,0 z m -141.9847,-3.2583 c -7.95055,-26.3342 -12.471748,8.1205 0,0 z m 17.2665,-10.1583 c 4.71394,-21.4447 -5.07305,16.0385 0,0 z m -1.7913,-4.5498 c 27.84595,-74.4314 80.97971,-133.958 127.3633,-196.4746 9.5371,-21.1276 34.52686,-47.0075 45.7243,-63.8089 3.83677,-16.4928 3.34074,-22.2871 23.6802,-34.2813 26.77989,-27.3575 88.20885,-87.4292 9.257,-46.1809 -81.18741,40.9692 -174.41953,87.5888 -203.2655,181.0211 -23.021276,50.092 -67.128135,136.3575 -4.0347,165.2856 z m 135.5248,-213.2914 c 8.22679,-11.387 8.57655,-6.3643 0,0 z m 17,210.8544 c 52.63751,-57.6052 -40.25441,12.0283 0,0 z m 38.5151,-37.0371 c 37.00582,-23.6978 44.20034,-62.5786 54.4749,-109.25 -11.7156,-70.2324 43.45053,-132.5884 43.69784,-201.7977 -72.55447,49.4221 -120.19849,125.4663 -101.24344,214.7977 11.64444,27.1687 -64.65428,130.6661 3.0707,96.25 z m -122.7082,-9.7765 c -3.5255,0.1447 1.03135,4.1698 0,0 z m 134.6931,0.5265 c -1.24195,-3.9423 -3.58822,3.8072 0,0 z m -131.1384,-8.5 c -0.86537,-5.2821 -2.37351,5.247 0,0 z m 3.1384,-8.5 c -1.20941,-3.6561 -2.46625,3.5623 0,0 z m 6.9323,-14.2584 c 10.19396,-25.3782 -17.14138,31.597 0,0 z m 4.8578,-10.743 c -0.80224,-5.4094 -2.02563,6.6538 0,0 z m 162.2956,-2.3818 c 46.05483,-26.144 -11.91729,-83.7393 -1.388,-11.4946 1.48024,1.0867 -4.44478,20.1616 1.388,11.4946 z m 0.5722,-16.6168 c 0.87513,-4.5074 0.87513,4.5074 0,0 z m 2.8421,-14.8333 c 1.45263,-7.454 1.36143,5.7361 0,0 z M 88.993635,1329.5362 c 12.405185,-15.1112 48.595915,-96.9054 7.440174,-50.8866 -14.926285,0.8254 -23.608394,78.9486 -7.440174,50.8866 z m 18.734295,-44.5589 c 2.5674,-8.4634 3.57012,3.1552 0,0 z m 303.3163,43.1706 c 41.09662,-28.3042 78.78144,-61.8096 71.6678,-114.5973 20.43141,-31.1991 -9.96919,-78.0592 -44.9841,-86.3998 -53.15923,-54.4247 124.46523,87.2377 67.268,60.6385 -9.98096,30.2732 -27.90878,99.9994 9.5422,30 16.09056,-21.0122 -30.31875,-68.5521 14.6933,-27.5108 26.3933,-44.1546 -17.88015,-47.1264 -22.5033,-28.2588 -2.11196,-56.2535 -108.81613,-102.5012 -86.4787,-19.2304 -3.87692,55.7016 -50.05962,116.131 -41.8525,167.4538 9.42954,3.9666 22.58366,41.5543 32.6473,17.9048 z m 77.8265,-138.5046 c -3.52322,-8.4068 5.27457,6.2979 0,0 z M 92.855435,1330.0362 c 3.371102,-4.3329 -7.808373,5.6787 0,0 z m 6.8392,-65.5 c -14.572033,-6.1522 -17.210128,38.2887 0,0 z m 381.473495,-0.132 c -5.54191,-8.8021 2.09242,9.8735 0,0 z m 191.9214,-1.118 c -0.86537,-5.2821 -2.37351,5.247 0,0 z m -570.0147,-9.3674 c 3.21699,-19.796 -11.9552,1.2311 0,0 z m 24.4031,-4.631 c 31.81508,-44.1256 -7.26536,2.6159 0,0 z m -0.502,-5.2516 c 45.65248,-55.3245 -43.636454,11.6859 0,0 z m -19.8429,-8.0022 c 50.99973,-48.8021 -3.55262,-47.023 0,0 z m 162.0949,1.7522 c -1.20941,-3.6561 -2.46625,3.5623 0,0 z m -126.1185,-10.5519 c -0.01,-3.2241 -3.1064,3.0789 0,0 z m 5.8574,-11.3005 c 42.11182,-30.9707 34.40857,-22.3425 75.0939,-50.1476 33.0394,-21.3999 72.69318,-47.9875 111.2345,-62.8427 26.06597,-10.7887 91.9584,-15.5667 21.67895,-22.0792 -26.80621,13.4701 -46.59217,-19.5584 -92.74625,19.6665 -41.94468,25.1207 -112.65177,67.5062 -115.3184,111.5687 -11.03875,0.7371 3.51183,8.4584 0.0573,3.8343 z m 88.7611,-60.1476 c 2.46625,-3.5623 1.20941,3.6561 0,0 z m -116.2106,41.605 c -6.85966,-1.8278 0.33283,3.9358 0,0 z m 9.976,-6.6211 c 74.04884,-38.3594 -25.94585,-42.256 0,0 z m 1364.21927,-10.2339 c -1.7069,-3.483 -2.1098,5.254 0,0 z m -4.6785,-6.4396 c -2.3811,-30.7117 -24.9972,-56.2011 -12.0724,-51.9505 19.8972,16.3578 0.2357,-31.8261 6.7679,-29.5029 -27.1652,-37.5432 -63.7046,-71.0706 -32.0687,-4.275 30.6984,9.8357 47.8631,40.1019 4.4449,11.7132 6.64,21.3041 23.3596,61.7172 32.9283,74.0152 z m -6.3062,-17.9771 c 1.1367,-18.1216 1.8023,19.7982 0,0 z m 0,-8.3333 c 1.9314,-4.6627 1.9314,4.6627 0,0 z m 0.4649,-10.0011 c 0.1625,-21.199 5.7708,21.484 0,0 z m -6.2149,-9.9879 c -9.9083,-9.713 12.2892,8.0915 0,0 z m 10.8289,-14.5943 c 1.4434,-2.6634 0.4459,4.3115 0,0 z m -1313.32887,28.5829 c -40.17546,-38.4815 -43.80998,41.2696 0,0 z m 367.1565,-1.6912 c 36.90296,-57.2108 -96.75686,-54.2165 -31.8497,-11.8084 -2.36121,-59.3247 20.25345,49.2849 31.8497,11.8084 z m -189.1767,-8.0584 c 20.32268,-24.2336 -20.99854,20.9391 0,0 z m -159.4386,-5.2644 c -0.26399,-77.3123 -73.7489,21.6738 0,0 z m -6.6912,-17.5856 c -1.459,-7.0799 3.60148,4.7314 0,0 z m 175.4,11.3706 c -4.04785,0.01 -2.55788,4.0791 0,0 z m 71.971,0.1903 c -7.4826,-3.9189 4.22805,4.8467 0,0 z m -220.5019,-7.4592 c 17.92394,-48.6923 -46.46784,-13.5 0,0 z m 1223.10457,-6.2755 c -5.0724,-4.5469 4.9126,7.4766 0,0 z m -868.80027,-1.288 c -8.60251,-25.592 -15.96476,5.4778 0,0 z m -325.3932,-10.5411 c 69.6478,-26.7861 20.64195,-22.8977 -21.1876,-12.8601 3.98473,13.7292 5.29655,28.2694 21.1876,12.8601 z m 14.1198,-9.163 c 29.58768,-17.3963 26.46766,-11.7339 0,0 z m 1198.49997,8.3249 c -2.3337,-3.4347 -2.8802,1.9056 0,0 z M 426.72793,1082.601 c -3.18079,-12.6751 -10.04422,17.1066 0,0 z m -135,0.6148 c -5.23697,0.8886 -5.4716,4.8053 0,0 z m 234,-2.1908 c 9.84979,-37.3278 -84.61221,-46.6494 -93.004,-1.2484 22.2197,4.9349 37.63383,-11.2285 55.0054,-18.7003 45.19434,-17.4063 -42.03489,44.7708 28.07246,21.4593 z m -58,-11.9983 c 5.27716,-5.7733 5.42803,-2.267 0,0 z m 10,-8.6181 c 3.37954,-4.0569 4.72808,-2.7617 0,0 z m -278.8413,16.3776 c 38.46192,-12.2957 44.01786,-23.8672 52.999,-53.9417 -10.59186,10.387 -60.93035,53.4742 -52.999,53.9417 z m 95.758,-2.7301 c -0.49092,-8.8583 -26.06089,17.8611 0,0 z m 1198.85407,-1.4574 c -3.1986,-5.5021 -2.0362,4.6124 0,0 z m 2.7292,-1.8125 c -1.2094,-3.6561 -2.4663,3.5623 0,0 z m -1.4188,-3.1516 c 0.9546,-12.6301 1.4407,-16.6199 4.13,-34.7004 0.5383,-16.755 0.3323,-11.3775 5.6595,-30.6518 -2.6035,-13.1635 0.1235,-38.35382 -0.4139,-57.56527 -2.3613,-26.00095 6.242,-34.55127 -0.037,-71.93088 -81.18,-28.09012 -81.4737,55.12522 -40.3481,98.68462 8.5486,59.19703 -12.2405,11.91034 -26.5729,-22.68464 -32.8079,-38.47059 -52.8223,-90.95895 -101.5,-113.25948 36.9667,52.49626 66.8525,96.27574 108.4075,141.28488 11.5724,38.61637 54.092,47.51087 43.987,83.88687 -9.3116,-56.8863 -51.0139,-37.1054 -56.9429,-85.29267 -68.1891,-48.42623 9.6134,62.23357 42.2984,73.00757 -20.3487,12.0403 46.2657,22.8383 21.3322,19.2212 z m -2.0812,-24.7304 c 1.6501,-4.6687 3.4706,1.724 0,0 z m 3,-1.118 c 2.4663,-3.5623 1.2094,3.6561 0,0 z m -0.9847,-6.75 c 2.8654,-5.4024 -0.07,8.5099 0,0 z m 5.9847,-26.25 c 2.4663,-3.5623 1.2094,3.6561 0,0 z m -1.9993,-4.25 c 6.2155,-4.9375 5.0682,4.6206 0,0 z m 3.9993,-12.74997 c -2.9935,-5.13002 5.7857,2.13575 0,0 z m -0.8792,-5.7744 c -6.4937,-20.38954 8.0246,4.8307 0,0 z m -10.5951,-41.1759 c -2.138,-33.24251 -71.2351,-14.258 -11.8963,-37.23878 14.6823,-1.72461 25.7205,44.57949 11.8963,37.23878 z M 386.56293,1066.6378 c 24.37254,-45.2371 -115.45002,-113.33464 -73.8156,-35.3516 24.60328,75.5027 -29.55411,-81.99937 -45.8267,1 -60.09616,53.5868 90.83402,13.097 119.6423,34.3516 z m 1103.52657,-9.3516 c -4.5395,-5.5675 1.4385,5.3978 0,0 z M 780.7279,1029.262 c -6.10675,1.1348 -2.97602,10.9475 0,0 z m 682.3726,-28.2258 c -6.6425,-23.77977 0.4066,12.8105 0,0 z m -2.8726,-9.24997 c -1.2094,-3.65614 -2.4663,3.56227 0,0 z m 47.298,-26.5 c 1.0975,-12.19875 -5.8624,22.21639 0,0 z M 94.273635,962.71233 c 18.621995,-25.42446 80.303665,-34.73199 38.788695,-61.49708 -24.7696,80.98698 13.44352,-111.07385 -21.3719,-26.8922 -17.41758,24.83298 -54.067319,68.49363 -17.416795,88.38928 z m 1413.954265,-2.9261 c -1.2094,-3.65614 -2.4663,3.56227 0,0 z m -1.4855,-5.991 c 3.3703,-15.50947 -1.9333,9.38829 0,0 z m -109.0145,-3.009 c -2.4663,-3.56227 -1.2094,3.65614 0,0 z m 2.8156,-6.8145 c 0.3553,-39.23439 -50.2086,-60.77322 -10.0452,-6.23632 -2.1973,3.93488 7.597,13.0784 10.0452,6.23632 z m 108.1844,-0.1855 c -1.1761,-10.37563 -2.834,8.88795 0,0 z m -3,-4.559 c -3.0915,-5.40589 -1.777,6.78703 0,0 z m 0,-5 c -3.0915,-5.40589 -1.777,6.78703 0,0 z m -1370.49997,0.559 c -1.20941,-3.65614 -2.46625,3.56227 0,0 z m -95.499995,-6 c -2.466254,-3.56227 -1.209409,3.65614 0,0 z m 1469.499965,-3.4127 c -1.4942,-17.97362 -1.8015,16.08625 0,0 z m -418.8569,-2.4175 c -13.3005,-48.14911 -7.5384,-99.09659 -29.1431,-143.16975 -9.9811,-38.24827 7.6881,10.68803 -5.0641,-39.69342 -7.8122,-50.06942 -21.3203,-61.89225 -10.9513,-2.89129 6.0558,45.25886 13.4747,146.64485 20.6207,142.13078 -58.3547,-73.52629 27.1934,53.67516 24.5378,43.62368 z m -17.6431,-96.83648 c 2.0807,-10.67751 1.338,12.49385 0,0 z m 0.079,-6.91657 c 1.4434,-2.66339 0.4459,4.31154 0,0 z m -7.5146,-20.1236 c 1.0891,-2.51728 2.1558,4.46415 0,0 z m -1.8331,-5.2129 c 0.2008,-4.54446 2.3469,4.1977 0,0 z m -9.9764,-50.11049 c -6.6061,-33.12055 4.4807,25.34244 2.0124,5.22875 z m 53.7434,172.28026 c 27.1011,-47.61605 6.5318,-97.59664 -2.4455,-146.06637 -11.5967,-22.41526 -78.1503,-144.05623 -43.3758,-49.11377 9.0357,59.81761 39.2128,160.96653 45.8213,195.18014 z m 0.044,-11.1809 c -1.1237,-3.86042 3.8772,0.62837 0,0 z m 402.6406,9.7142 c -3.904,-1.61568 3.3725,4.6018 0,0 z m -1349.70467,-3.7597 c 59.83132,-5.73655 116.71058,-83.01383 88.6943,-131.98407 24.12751,-2.31587 -23.59409,-78.84972 -49.1153,-15.5398 -56.29219,34.61069 5.88776,74.37099 19.3781,107.94137 -26.18886,-3.57319 -22.79101,37.49329 -30.4449,-24.4235 -5.39777,-69.07708 -56.4303,-18.60935 -48.104,20.3747 -13.21373,15.69625 3.7003,38.61837 19.5918,43.6313 z m 53.7746,-88.32897 c -62.37007,-27.58555 -6.44975,-34.78069 12.7472,4.25237 l -3.9968,0.7877 -8.75,-5.04007 z m 236.0313,72.05537 c 9.86026,-56.61124 -59.16513,-164.81266 -92.2374,-67.75 19.22908,21.80071 70.02417,55.8397 92.2374,67.75 z M 880.285,880.45605 c 36.66227,-43.6886 134.9246,-68.11524 62.7767,-129.66977 -43.86073,-41.42095 -5.26049,-174.10282 -42.9341,-171.69674 -1.38699,78.54419 28.05107,162.95812 -3.6895,237.46904 -1.8921,8.13892 -56.42065,110.3979 -16.1531,63.89747 z m 544.4713,10.7545 c 11.3187,-46.65389 116.2206,-29.35957 44.8289,-46.1886 -10.4678,1.97416 -85.6614,22.10463 -44.8289,46.1886 z m -13.3707,-21.6238 c 18.3886,-25.72641 63.9954,-35.14219 18.9078,-60.27247 -21.8536,10.68538 -52.4626,49.77909 -18.9078,60.27247 z m -329.6577,-5.3005 c -2.4793,-5.26898 -2.4793,5.26898 0,0 z m -886.63837,-3 c -2.37351,-5.24699 -0.86537,5.28209 0,0 z m 845.68787,-15.681 c 17.2945,-59.6145 -47.51491,-47.39896 -3.4571,0.16421 l 4.1292,5.62849 z m -27.5495,3.181 c -2.7664,-3.97522 -2.0338,1.92867 0,0 z m 376.5,-2.8122 c 56.3703,-59.14369 -55.6593,-15.9227 -1.3618,1.75328 z m -863.99997,-3.7504 c 70.93288,-12.43695 -81.14638,-7.16024 -15.31384,0.89605 z m -37.9347,-12.0122 c 35.00666,-69.92195 -18.07206,-30.8818 0,0 z m 647.25947,0.3248 c 7.3124,-40.8934 -42.6964,-138.36875 -14.22,-46.24997 4.0239,13.62567 9.0268,40.00293 14.22,46.24997 z m 232.6872,-1 c 15.1921,-36.41892 98.1098,-18.76908 23.3035,-45.85397 -36.9906,4.77209 -110.5276,23.86948 -23.3035,45.85397 z m -912.78347,-9.99997 c -19.51075,-56.84559 -28.05781,-2.48312 0,0 z m 684.50797,-5.75 c -1.0981,-61.18891 -5.9917,36.24485 0,0 z m -625.70387,1.0885 c 21.96622,-30.02203 -27.60399,19.47191 0,0 z m 478.28627,4.8743 c -7.02292,-7.74939 5.82669,9.90475 0,0 z m -457.56887,-3.2128 c -4.54292,-4.55454 -4.54292,4.55454 0,0 z m -202.2389,-12 c 1.24948,-78.26445 35.74987,-160.40253 -6.5111,-231.77498 -14.39858,-31.57086 -30.42914,-45.93064 -54.7357,-60.68673 -34.7523,-1.06669 -70.84298,38.19432 -86.8697,85.34361 -6.28699,30.05928 75.7155,55.04318 29.3429,112.43153 -36.17462,53.9509 72.8774,-11.61701 60.2574,63.66587 4.2356,12.51206 57.44878,45.31428 58.5162,31.0207 z m 810.48887,2.132 c -2.7107,-9.13055 -1.6936,12.19949 0,0 z m -667.99997,-2.2328 c -4.57024,-41.36202 -70.94509,-16.01073 -2.4249,1.6008 l 1.56444,1.63256 0.86056,-3.23336 z m -176,-0.6492 c -7.32839,-4.19295 2.47946,3.93863 0,0 z m 1031.80117,-8.6485 c 25.7396,-49.06127 156.8999,7.74947 67.4157,-42.3515 -25.0581,-26.36818 -96.0309,57.77251 -67.4157,42.3515 z m -855.11807,-0.539 c -1.92518,0.43372 1.43277,4.38343 0,0 z m 541.44607,-0.1883 c 51.522,-6.55945 4.2937,-57.33603 0,0 z M 5.3902347,788.53628 c -1.750266,0.99942 1.6231036,5.50682 0,0 z m 1138.3058653,-0.5 c 31.1675,-21.95962 -14.127,-75.52454 19.1927,-68.98222 22.6652,-53.84861 -45.217,-24.38744 -28.5578,-33.18932 5.1511,28.62278 -1.536,85.19338 9.3651,102.17154 z m 0.7818,-84.28622 c -9.5513,-43.3222 16.6588,11.22326 0,0 z m -720.13367,79.42892 c -5.9769,-16.84687 -8.29701,8.65863 0,0 z M 7.3902347,775.53628 c -1.750266,0.99942 1.6231036,5.50682 0,0 z M 1008.317,760.70758 c 21.183,2.7587 27.5337,-114.69724 23.4267,-105.4213 4.9289,-77.20138 -25.621,-71.0514 -39.0378,-5.51489 -7.68595,37.92088 -32.6353,73.07273 -15.7746,10.51489 9.67889,-37.24327 -27.68665,-19.11506 13.1495,-37.64478 31.6784,-39.08221 -67.77893,-47.70631 6.9254,-40.84555 39.1807,5.79781 3.8901,-83.69758 -28.7826,-82.0097 -46.56225,33.96423 -34.76301,107.32093 -24.7867,156.94326 10.80637,14.02551 48.27578,155.89314 64.8801,103.97807 z m 19.0679,-116.64747 c -0.3044,-15.72533 4.4433,13.50178 0,0 z m -1.157,-15.27383 c 2.4663,-3.56227 1.2094,3.65614 0,0 z m 407.5,146.559 c -2.3337,-3.43475 -2.8802,1.90563 0,0 z m -1263.14657,-7.5016 c -6.35285,-48.42893 20.5006,-91.81685 10.5159,-19.74642 28.60383,-28.72709 42.43785,-141.57433 -10.64611,-103.90299 -10.68183,42.22953 -32.24884,107.59357 0.13021,123.64941 z m -160.564295,-4.0574 c 1.205126,-15.43761 -4.91597,24.78215 0,0 z m 443.440095,5.3958 c -3.95967,-2.10157 -0.9347,2.25331 0,0 z m 512.98147,-19.6457 c -13.33504,-24.11978 10.76244,24.83874 0,0 z m 67.8963,3.6681 c 0.036,-17.6184 -10.2326,3.52939 0,0 z M 16.096235,743.78304 c 0.819023,-10.42683 -5.413837,16.89391 0,0 z M 1132.2828,737.53628 c 15.6217,-52.30207 -23.0635,-91.6012 -74.8993,-76.47811 -0.3928,-14.49731 99.5649,0.97904 67.4905,-22.68166 -19.9644,-56.8089 -131.10668,-84.91759 -85.13,5.40985 13.5549,37.25629 41.8806,83.94272 84.2581,92.38716 5.3626,3.44576 11.9065,21.51941 8.2807,1.36276 z m -75.0817,-74.70633 c 5.5397,-1.73328 3.5417,3.261 0,0 z m 77.5386,62.89455 c -1.3585,19.35912 2.4542,18.13444 0,0 z M 19.728135,734.22726 c -3.106119,-3.62658 -1.897575,5.03541 0,0 z m 1090.999965,0.55902 c -6.3913,-2.35209 0.7297,3.30538 0,0 z m -153.8875,-4.2875 c -4.46826,1.43238 3.3286,5.08984 0,0 z m -3.5705,-7.5807 c -5.51587,-2.43377 5.14944,10.93065 0,0 z m 181.458,-5.19082 c -1.8735,-13.00378 -0.2318,14.14636 0,0 z m -186.3998,-1.3977 c -13.2794,-30.95996 1.1968,13.76199 0,0 z M 30.728135,703.78628 c 2.451868,-7.09777 -4.75452,7.17626 0,0 z m 670.999995,-3 c -2.55494,-3.58745 -2.55494,3.58745 0,0 z m 0.4202,-6.10249 c 19.68132,-40.82985 -1.40546,-80.74544 -3.68939,-15.04515 0.72801,1.59643 -0.39601,25.84521 3.68939,15.04515 z m 462.57977,-22.95488 c -3.1217,-36.2746 -26.6334,-31.49511 -39.5,-65.12458 65.2858,40.45948 22.9097,-114.98045 -23.5,-131.98461 -36.7781,-28.73073 -102.69229,6.6927 -88.7768,53.4927 3.7138,98.13575 37.6298,-45.77231 75.5224,-13.37423 -39.0692,18.92388 -96.01429,82.97371 -14.5028,60.0509 53.688,16.89376 43.1966,79.0131 79.1533,90.41487 l 10.4025,9.58233 1.2017,-3.05737 z M 921.8335,659.49174 c -3.42102,7.48796 3.73385,11.89654 0,0 z m 145.8946,1.29454 c 0.7297,-3.30538 -6.3913,2.35209 0,0 z m 65.1006,-5.06236 c -2.8431,-7.33546 0.8855,14.7132 0,0 z m -211.4175,-1.12514 c -1.92518,0.43369 1.43276,4.38338 0,0 z m 209.9792,-6.0625 c -1.7503,0.99942 1.6231,5.50682 0,0 z m -779.66227,-4.25 c -2.47933,-5.26898 -2.47933,5.26898 0,0 z m 351.25,-13.90111 c 11.79355,-19.54798 29.89858,-75.13846 0.80686,-30.30369 -0.0494,6.23231 -14.47185,43.66535 -0.80686,30.30369 z m -128,0.70851 c 43.30944,-9.47055 121.38954,-92.69208 36.0401,-30.59757 -3.23893,5.19741 -60.79054,32.82269 -36.0401,30.59757 z m 66.768,-47.02222 c 10.41446,-9.17557 13.70475,-7.50506 0,0 z m -133.018,44.16685 c -4.93702,-2.52258 -0.9348,3.19549 0,0 z m 54.8356,-1.96351 c 0.36779,-13.52287 -5.92994,-2.83235 0,0 z m 151.0297,-0.0395 c -4.71979,-2.42451 -2.32279,6.47553 0,0 z m 472.38167,-6.33316 c 33.8475,-29.7157 97.766,-83.63184 109.6632,-109.36581 9.3946,-44.15713 14.0874,-135.00567 -6.6913,-194.80205 -2.3526,-75.0465 -43.9979,-8.67721 -60.8755,10.88786 -39.1327,16.09361 -35.5773,4.87642 -73.6868,53.80898 -23.8385,43.10343 -85.8096,76.39113 -17.1961,107.85521 38.6242,29.64295 24.7542,123.94285 48.7865,131.61581 z M 729.22033,609.80978 c 10.22356,-43.85039 -14.72532,37.42168 0,0 z m -158.8256,4.48328 c 32.50669,-12.19378 72.067,-56.49236 13.39437,-12.72816 1.01264,-3.31619 -25.34347,23.30886 -13.39437,12.72816 z m 7.3334,-1.50678 c -1.20941,-3.65614 -2.46625,3.56227 0,0 z m -82.6771,-1.60092 c 20.19363,-45.97678 -50.99631,-69.4966 -3.9598,-6.19318 l 3.5807,7.7941 z m 96.1722,0.0296 c 6.14514,-14.63253 -2.87693,9.29604 0,0 z m 8.5049,-8.54531 c -5.68652,-1.64076 -4.59232,4.38877 0,0 z m 4.5,-2.88337 c 2.32596,-7.32335 -7.56029,7.62458 0,0 z m 132.5061,-11.35699 c 6.75308,-37.65211 70.81808,-127.54231 16.1499,-52.68359 -5.07595,12.64335 -20.05912,48.02294 -16.1499,52.68359 z m -113.0061,-9.08399 c -2.3337,-3.43479 -2.88022,1.90558 0,0 z m 877.95567,-0.20015 c 9.3688,-6.52577 -52.3724,-67.75834 -38.6253,-69.56247 -3.1041,32.25742 0.5434,76.31269 38.6253,69.56247 z m -38.3186,-4.60887 c -3.9307,-42.35785 -19.9712,-86.87374 -27.1496,-16.7193 3.298,4.80468 27.6313,22.49802 27.1496,16.7193 z m -739.73817,-8.55319 c 18.21851,-13.90066 49.85682,-93.17807 16.9362,-54.55416 1.21259,10.97849 -39.74535,76.43435 -16.9362,54.55416 z m 813.87857,2.24649 c 31.043,-6.38356 21.4418,-17.24386 1.166,-28.90839 -17.0363,-18.63171 -52.8461,-59.57387 -66.3299,-35.03491 3.1566,13.19746 28.1387,60.88473 65.1639,63.9433 z M 917.7281,555.59539 c -16.31207,9.41186 -14.88061,12.99861 0,0 z m 338.5,5.19089 c -1.2094,-3.65614 -2.4663,3.56227 0,0 z m -763.66667,-6.76163 c -7.11636,-83.30908 -47.52471,3.87825 0,0 z m 16.8797,-21.88145 c -13.98036,-79.67296 -4.31246,70.38025 0,0 z m 1086.28697,18.56187 c -0.4633,-29.66779 -122.4979,-71.97038 -33.0534,-12.78059 19.1991,18.62867 23.5523,11.74842 33.0534,12.78059 z m 7,-0.91879 c -2.5632,-3.70388 -3.8442,3.58521 0,0 z m 21,-1 c -2.5632,-3.70388 -3.8442,3.58521 0,0 z m -1,-2.87756 c -2.2824,-6.84385 -5.9203,4.01596 0,0 z m -5.7917,-1.85659 c -1.552,-5.55386 -2.0353,-1.31987 0,0 z m -3.2083,-7.82487 c -5.0594,-44.58475 -48.5195,-0.71294 0,0 z M 462.46193,523.03278 c 21.5264,-95.35136 -48.2052,10.16689 0,0 z m -144.5025,-9.81653 c -3.78896,-6.43696 0.61265,8.46754 0,0 z M 1603.2667,500.2725 c -8.0833,-42.17117 -154.296,-8.49664 -48.1618,0.51378 9.2833,4.05076 67.9838,28.94537 48.1618,-0.51378 z m -281.9886,10.66418 c 59.1081,-29.26877 148.0618,-4.35316 139.7456,-91.00028 6.3516,-41.23081 91.0549,2.51686 75.7289,-29.07591 -7.4058,-11.89182 -9.8632,-34.18406 -8.9199,-28.84344 -13.784,-10.86199 -58.0116,-27.01447 -29.7391,-42.90057 -1.4719,14.39082 24.0919,-27.26282 -12.5935,-28.54594 -24.9182,-15.94299 -32.8699,-51.12256 -57.7304,-51.03426 -43.487,-4.18554 -5.899,85.29607 -42.8259,116.64863 -1.9118,26.50471 21.0651,-14.46673 6.2635,37.32357 -29.9703,40.29756 -93.0225,59.72307 -69.9292,117.4282 z m 66.5289,-155.73373 c 1.4435,-2.6633 0.4458,4.31151 0,0 z m 111.9122,-39.18734 c 2.0232,-11.0005 -0.9718,6.60949 0,0 z M 211.12713,504.04851 c -2.96768,-34.94078 -7.8265,16.20875 0,0 z m 284.0981,3.74672 c 20.6207,-33.42947 -8.28434,-98.58314 -30.0903,-48.00893 10.6789,10.82251 21.40193,43.66365 30.0903,48.00893 z m 483.50287,-6.00895 c -7.32841,-4.19286 2.47946,3.93854 0,0 z m -672.99997,-4 c -2.55494,-3.58745 -2.55494,3.58745 0,0 z m 476.66227,-3.25 c -1.75027,0.99942 1.6231,5.50682 0,0 z m 688.2245,-0.99816 c 4.962,-11.26808 -8.6912,11.27275 0,0 z m -671.7585,-5.3971 c -11.23887,-34.9622 70.08149,-26.74277 22.86914,-57.18168 -2.12177,13.00912 -56.40868,73.007 -22.86914,57.18168 z m -547.53707,-8.97768 c -7.87523,-4.83671 3.9319,20.48327 0,0 z m 190.3701,8.69519 c 35.30125,-18.07117 -45.40146,-87.11593 -14.9761,-22.09909 6.49955,-10.98947 7.29197,34.04189 14.9761,22.09909 z m 1043.53867,0.92775 c -2.5632,-3.70388 -3.8442,3.58521 0,0 z M 220.72813,485.75203 c -2.50848,-4.33395 -7.47519,6.40517 0,0 z m 1269.49997,1.03425 c 34.2895,-36.67444 150.0659,8.52968 67.7521,-58 -4.7203,2.76604 -66.2077,55.13004 -67.7521,58 z m 57,-24 c 1.2094,-3.65614 2.4663,3.56227 0,0 z m -3.2937,-14.68426 c -4.0205,-11.14144 5.3663,5.74197 0,0 z m -780.67487,33.5854 c 27.50041,-45.3401 -35.66361,11.08142 0,0 z m 709.81787,-0.43317 c -2.7305,-5.11858 0.2452,6.3714 0,0 z M 268.27193,478.8571 c -5.11341,-2.36939 0.41465,6.1438 0,0 z m 1201.93177,1.67918 c 3.978,-51.74171 -11.879,-52.26117 0,0 z m -456.094,-2.30194 c -0.01,-3.22416 -3.1065,3.07918 0,0 z m 474.7328,-8.69855 c 46.3223,-23.05154 79.6533,-70.93162 0.6194,-49.54642 -20.3442,5.33453 -28.0447,79.65638 -0.6194,49.54642 z m 50.9009,-43.49951 c 3.9659,-10.458 2.5078,4.1073 0,0 z M 787.2625,463.6076 c 44.70198,-49.55022 -46.79467,-27.19686 0,0 z m -1.5344,-16.82132 c 2.56318,-3.70388 3.84423,3.58521 0,0 z m 0,-4.05902 c 2.88022,-1.90558 2.3337,3.43479 0,0 z m 4.7292,0.45485 c -2.36348,-4.96197 1.46955,-6.06087 0,0 z M 422.72813,455.4355 c 3.35119,-24.33786 10.76434,5.31848 -1e-4,0 z m 37.009,-6.12196 c 53.00303,-56.76932 -12.23339,-107.22543 -29.3116,-33.74208 5.91667,5.52229 29.10743,42.38422 29.3116,33.74208 z m 399.97267,-3.64817 c -26.46304,-16.05423 -3.4032,6.20765 2.2363,1.74502 z m -382.99697,-4.18811 c -2.86331,-3.69853 -0.44576,8.78229 0,0 z m 977.67757,0.059 c -1.7503,0.99942 1.6231,5.50682 0,0 z m -1038.92667,-5.5 c -18.65471,-65.65971 -35.18112,-9.49084 0,0 z M 1334.029,425.82695 c -6.3893,-34.80308 10.3285,-41.50579 -4.543,-98.49289 -36.3473,-24.79781 -14.3763,-78.17468 -19.7577,-68.53428 -53.9056,26.30433 42.5858,110.41599 9.2618,165.98648 -2.5917,21.03582 4.2352,10.11988 15.0389,1.04069 z m -463.9645,7.20933 c 44.05067,-27.16464 -5.87403,-61.38693 -20.8381,-18.80406 14.5562,-5.67061 12.93038,31.50738 20.8381,18.80406 z m -386.28157,-3.5 c 20.69496,-24.99398 -21.47828,18.16967 0,0 z m 362.36687,1.16351 c -12.00591,-11.41792 5.88175,9.53274 0,0 z m -11.4217,-1.80273 c -9.04174,-16.0792 -0.7725,6.14999 0,0 z m -32.5364,-8.86078 c -8.19717,-25.69763 -12.84358,27.26327 0,0 z m 43.5364,6.28518 c -4.66365,-3.76686 -5.81238,-2.1754 0,0 z m -7,-1.53518 c -2.46625,-3.56227 -1.20941,3.65614 0,0 z m -19.337,-6.75 c 42.06356,-38.84388 -40.02142,-0.5889 0,0 z m 542.8331,-15.61736 c 10.478,-32.77476 8.3974,-86.87655 25.61,-120.63264 -45.11,-72.23464 -16.6965,96.11002 -37.549,42.82119 7.6159,-39.94932 1.2834,-110.84874 -37.8344,-43.25638 25.4015,27.3308 36.7737,79.09891 46.994,72.51664 0.8783,4.63062 -18.6012,82.58732 2.7794,48.55119 z m -55.7904,0.11736 c -1.5314,1.95146 1.5037,9.97648 0,0 z M 428.72813,383.63872 c -6.52645,-71.01846 -67.39119,-27.76088 -70.3136,-49.67031 -33.10151,-11.156 -117.02459,24.97186 -30.1864,9.74187 39.52905,-19.47738 98.04678,103.93287 100.5,39.92844 z m 2.4573,22.21666 c 1.12369,-3.86045 -3.8772,0.62834 0,0 z m -46.4573,-14.55706 c -45.32231,-38.47008 -56.83926,-31.19844 -6.2402,-0.88932 z m 60.5705,-24.25844 c -9.37805,-40.08933 -41.23802,-8.86477 0,0 z m -117.7591,-6.29256 c -27.39758,-15.5311 -39.14028,2.4801 0,0 z m 7.0119,-1.29391 c -2.87184,-6.06436 -3.00636,6.70089 0,0 z m 1023.46637,-7.66713 c -0.7088,-6.96035 -2.2817,6.9636 0,0 z m -314.786,-14.25 c -11.3627,-44.0099 -33.3487,-77.71132 -7.589,-12.24579 -8.845,-4.97862 9.4485,27.87608 7.589,12.24579 z m -16.4248,-45.33333 c 1.4435,-2.6633 0.4458,4.31151 0,0 z m 25.8635,20.55257 c -35.8728,-86.26413 0.3761,39.24813 0,0 z m 122.477,1.28599 c 7.8934,-35.38461 -9.901,31.71158 0,0 z m 7.6557,-20.67039 c 5.5324,-33.70476 -10.7913,32.48868 0,0 z m -3.0751,2.14084 c 2.3641,-11.04409 0.7851,8.04092 0,0 z m 6.9003,-1.64235 c -1.9024,-11.65154 -1.4327,19.82076 0,0 z m 324.5997,5.91667 c -2.7664,-3.97519 -2.0338,1.92866 0,0 z m -270.9589,-11.06653 c 0.9951,-5.36374 -4.6569,4.29963 0,0 z m 71.6422,-2.15014 c -3.904,-1.61568 3.3725,4.6018 0,0 z m -60.1833,-2.78333 c 27.8022,-2.17508 -21.9973,-2.96069 0,0 z m -47.392,-1.75 c 2.9838,-8.98747 -5.7414,7.16786 0,0 z m -170.2645,-3.0123 c -23.7628,-39.23582 -3.3381,1.10856 0,0 z m 225.7222,-0.27288 c 7.4752,-9.18252 -9.5129,3.84982 0,0 z m 4.9343,0.5942 c -2.3337,-3.43479 -2.8802,1.90558 0,0 z M 925.1532,267.28628 c 4.68704,-22.15188 -7.37612,19.52952 0,0 z m 92.8543,2.46034 c -2.8732,-5.90119 1.268,6.88805 0,0 z m 375.6498,-3.21034 c 14.2565,-60.86998 -53.4943,9.084 0,0 z m -27.4719,-6.6809 c -0.8863,-5.43142 -5.1535,3.96519 0,0 z m -440.1658,-13.8191 c -8.27834,-11.88651 -0.17404,6.85437 0,0 z m 528.235,-7.05687 c -4.1698,-1.03138 -0.1447,3.52546 0,0 z m -176.1727,-15.68932 c 26.9561,-12.12764 -25.3157,-56.01459 2.1458,-78.68627 -80.5252,-52.624753 -3.3211,48.29092 -2.1458,78.68627 z m 82.1632,-0.53126 c -4.3588,-1.32309 -4.6493,3.7985 0,0 z m 53.483,-1.91353 c -12.2075,-8.58645 -11.3288,2.37293 0,0 z m -105.3288,-9.50294 c 62.4081,-2.27321 -60.1177,-56.14262 -8.6554,7.44392 z m 39.3288,-9.99706 c -2.3337,-3.43479 -2.8802,1.90558 0,0 z m 14.8757,-3.10266 c 29.5342,-24.43526 -53.786,-5.11521 -3e-4,-1e-5 z m -453.8757,-2.45636 c -2.46625,-3.56227 -1.20941,3.65614 0,0 z m 512,0 c -2.5549,-3.58745 -2.5549,3.58745 0,0 z m -82.8654,-5.75 c 12.7177,-42.41688 -93.5076,-50.96319 -30.6343,-13.18577 9.1218,-3.77497 24.1268,17.64004 30.6343,13.18577 z m 73.8654,-2.75 c -2.9656,-4.85094 -4.5566,4.83534 0,0 z m -468.3616,-6 c 8.39269,-16.22665 -5.10774,-1.24056 0,0 z m 6.3616,-9.7 c -3.82194,-4.23502 -0.0385,6.59033 0,0 z m 330,-3.3 c -6.2458,-5.84011 1.6081,5.57787 0,0 z m -368,-15.31479 c -14.36591,-13.69522 -5.89853,4.35144 0,0 z M 770.14463,107.14315 c 1.15472,-6.95283 -4.41627,6.02899 0,0 z M 874.1854,73.855384 c 1.12369,-3.860452 -3.8772,0.628343 0,0 z m -104.45727,-9.0691 c -2.46625,-3.562275 -1.20941,3.65614 0,0 z m 93.99997,-14 c -4.75815,-12.566187 -8.60285,-8.056938 0,0 z m 39.8069,-7.52646 c -3.52545,0.14463 1.03128,4.169649 0,0 z m -55.8069,-2.50872 c 6.0926,-14.185599 -8.2334,7.271275 0,0 z m 6,-3.4058 c -2.3337,-3.434793 -2.88022,1.905577 0,0 z m -20,-3.55902 c -5.42702,-6.303047 3.14368,8.631521 0,0 z m 42.5746,-22.120706 c -6.2712,0.527723 -5.57734,3.752181 0,0 z M 666.72813,1674.8932 c 0.31233,-4.2758 5.30384,1.7943 0,0 z M 69.727635,1253.7862 c 2.466254,-3.5623 1.209409,3.6561 0,0 z m 677.999995,-161 c 2.46625,-3.5623 1.20941,3.6561 0,0 z m -576,-39.3776 c 3.37954,-4.0569 4.72808,-2.7617 0,0 z m 9,-9.7723 c 20.41251,-18.3986 -18.22154,18.4153 0,0 z m 66,-51.80417 c 9.2528,-6.16785 2.83861,1.51748 0,0 z m 16,-7.9507 c 9.71529,-5.70224 2.75272,1.21511 0,0 z m 536.99997,-2.0952 c 2.46625,-3.56227 1.20941,3.65614 0,0 z M 348.72763,815.28628 c 0.64984,-8.71025 2.18735,8.72597 0,0 z m 65.1534,-67.93629 c 5.40845,-9.23919 -1.71498,7.36605 0,0 z M 94.270835,697.85538 c 2.762282,-5.46694 2.418549,4.25222 0,0 z m 53.472595,-112.3191 c 0.94266,-9.03856 2.43932,5.4498 0,0 z M 1159.7281,339.43649 c 7.2232,-22.30461 19.5107,-42.54643 0,0 z m -247.5,-153.65021 c 1.24195,-3.94233 3.58822,3.80715 0,0 z m -33.5,-51 c 3.90318,-3.65313 3.90318,3.65313 0,0 z m -146.49997,-17 c 3.58822,-3.80715 1.24195,3.94233 0,0 z m 2,-6 c 3.58822,-3.80715 1.24195,3.94233 0,0 z M 1222.3611,91.014044 c 10.7272,-14.671382 -2.2707,7.896075 0,0 z m -290.633,-22.10973 c 1.65009,-4.668734 3.4706,1.723864 0,0 z"
     id="path164"
     inkscape:connector-curvature="0" />
</svg>
