<?xml version="1.0" encoding="UTF-8" standalone="no"?>
<!-- Created with Inkscape (http://www.inkscape.org/) -->

<svg
   xmlns:dc="http://purl.org/dc/elements/1.1/"
   xmlns:cc="http://creativecommons.org/ns#"
   xmlns:rdf="http://www.w3.org/1999/02/22-rdf-syntax-ns#"
   xmlns:svg="http://www.w3.org/2000/svg"
   xmlns="http://www.w3.org/2000/svg"
   xmlns:sodipodi="http://sodipodi.sourceforge.net/DTD/sodipodi-0.dtd"
   xmlns:inkscape="http://www.inkscape.org/namespaces/inkscape"
   version="1.1"
   id="svg842"
   xml:space="preserve"
   width="126.77061"
   height="580.01184"
   viewBox="0 0 126.77061 580.01184"
   sodipodi:docname="shovel.svg"
   inkscape:version="0.92.4 (5da689c313, 2019-01-14)"><metadata
     id="metadata848"><rdf:RDF><cc:Work
         rdf:about=""><dc:format>image/svg+xml</dc:format><dc:type
           rdf:resource="http://purl.org/dc/dcmitype/StillImage" /><dc:title></dc:title></cc:Work></rdf:RDF></metadata><defs
     id="defs846" /><sodipodi:namedview
     pagecolor="#ffffff"
     bordercolor="#666666"
     borderopacity="1"
     objecttolerance="10"
     gridtolerance="10"
     guidetolerance="10"
     inkscape:pageopacity="0"
     inkscape:pageshadow="2"
     inkscape:window-width="1058"
     inkscape:window-height="758"
     id="namedview844"
     showgrid="false"
     inkscape:zoom="0.77674609"
     inkscape:cx="97.489206"
     inkscape:cy="234.26465"
     inkscape:window-x="0"
     inkscape:window-y="0"
     inkscape:window-maximized="0"
     inkscape:current-layer="g850"
     fit-margin-top="0"
     fit-margin-left="0"
     fit-margin-right="0"
     fit-margin-bottom="0" /><g
     id="g850"
     inkscape:groupmode="layer"
     inkscape:label="Fences_Shovel"
     transform="matrix(1.3333333,0,0,-1.3333333,-310.51079,873.74721)"><g
       id="g852"
       transform="matrix(610.6,0,0,789.1,-415.78277,50.558622)"><path
         style="fill:#000000;stroke-width:0.00051864"
         d="m 1.153966,0.21510949 c -0.043112,0.0163402 -0.078953,0.0549989 -0.085188,0.1016379 -0.00138,0.0277709 -0.010576,0.0613494 -0.00422,0.0858719 0.022003,0.006612 0.044781,-0.0103884 0.063692,-0.001245 -0.00872,0.0432404 -0.013605,0.0871435 -0.011569,0.13133338 -1.548e-4,0.0415984 0.00191,0.0864993 -0.00562,0.12750509 -0.014764,0.0336431 -0.047004,0.0546816 -0.03866,0.0976797 0.011373,0.0162643 0.046363,0.003438 0.066468,0.007281 0.020576,-0.005795 0.063584,0.0138177 0.055175,-0.0238436 0.01348,-0.0433978 -0.046022,-0.0598259 -0.038988,-0.10147403 0.00414,-0.0446805 0.00203,-0.0897796 0.00355,-0.1345263 0.00199,-0.0347643 -0.010621,-0.0771306 -0.0054,-0.10726652 0.019137,-0.002713 0.069648,0.0163236 0.062515,-0.0214255 -0.00221,-0.0371995 0.011849,-0.079094 -0.010673,-0.1121418 -0.012633,-0.0187731 -0.028737,-0.0442034 -0.05108,-0.049386 z m 0.00627,0.006519 c 0.039482,0.0271825 0.058947,0.0748762 0.049958,0.12190846 -0.0044,0.0189644 0.011306,0.0617024 -0.023254,0.0517376 -0.017499,0.001163 -0.023445,-0.0102014 -0.040786,-2.9539e-4 -0.016927,3.0395e-4 -0.032166,-0.005944 -0.048974,0.001787 -0.013301,-6.5922e-4 -0.040159,0.006895 -0.028592,-0.0167542 0.00432,-0.0422739 0.00294,-0.0901064 0.034377,-0.12326654 0.014986,-0.0144759 0.036021,-0.0382225 0.057272,-0.0351167 z m -0.030813,0.0950615 c -0.00559,-0.0442343 -0.00411,0.0552758 0.00275,0.0619422 -0.00534,-0.0100652 0.00678,-0.0573276 -0.00275,-0.0619422 z m -0.00655,0.0555813 c -0.012864,0.0117482 0.00609,0.0122785 0,0 z m 0.018676,0.027236 c 0.00731,0.0339546 0.00878,0.0688535 0.00954,0.1034952 -0.012279,-0.004354 -0.036106,0.006128 -0.02759,-0.0170039 0.00258,-0.027494 0.00138,-0.0655978 0.018047,-0.0864913 z m 0.00307,0.10763942 c 0.015076,0.007881 0.00215,0.0395277 0.00641,0.0562394 -0.0039,0.0226429 0.00621,0.0607538 -0.00657,0.0761606 -0.022713,0.00688 -0.01515,-0.0177811 -0.016835,-0.0331099 1.811e-4,-0.032249 -0.00926,-0.0679325 -0.00245,-0.0983197 0.00631,-0.002049 0.013004,-0.001569 0.019441,-9.7035e-4 z m -0.00604,0.1622463 c -0.00153,0.001657 -0.00153,-0.001657 0,0 z m -0.013413,0.0103648 c 0.020265,-0.006792 0.033077,0.00755 0.04477,0.0218663 0.011175,0.0162497 0.02035,0.0590823 -0.013007,0.0495341 -0.019376,-0.003614 -0.054369,0.007604 -0.064293,-0.006492 -0.0012,-0.0245728 0.010645,-0.0543123 0.032531,-0.0649087 z"
         id="path856"
         inkscape:connector-curvature="0"
         sodipodi:nodetypes="cccccccccccccccccccccccccccccccccccccccccccccccccc" /></g></g></svg>