<?xml version="1.0" encoding="UTF-8" standalone="no"?>
<!-- Created with Inkscape (http://www.inkscape.org/) -->

<svg
   xmlns:dc="http://purl.org/dc/elements/1.1/"
   xmlns:cc="http://creativecommons.org/ns#"
   xmlns:rdf="http://www.w3.org/1999/02/22-rdf-syntax-ns#"
   xmlns:svg="http://www.w3.org/2000/svg"
   xmlns="http://www.w3.org/2000/svg"
   xmlns:sodipodi="http://sodipodi.sourceforge.net/DTD/sodipodi-0.dtd"
   xmlns:inkscape="http://www.inkscape.org/namespaces/inkscape"
   version="1.1"
   id="svg5820"
   width="2513.7114"
   height="635.44141"
   viewBox="0 0 2513.7114 635.44141"
   sodipodi:docname="0.svg"
   inkscape:version="0.92.4 (5da689c313, 2019-01-14)">
  <metadata
     id="metadata5826">
    <rdf:RDF>
      <cc:Work
         rdf:about="">
        <dc:format>image/svg+xml</dc:format>
        <dc:type
           rdf:resource="http://purl.org/dc/dcmitype/StillImage" />
        <dc:title />
      </cc:Work>
    </rdf:RDF>
  </metadata>
  <defs
     id="defs5824" />
  <sodipodi:namedview
     pagecolor="#ffffff"
     bordercolor="#666666"
     borderopacity="1"
     objecttolerance="10"
     gridtolerance="10"
     guidetolerance="10"
     inkscape:pageopacity="0"
     inkscape:pageshadow="2"
     inkscape:window-width="1186"
     inkscape:window-height="754"
     id="namedview5822"
     showgrid="false"
     inkscape:zoom="0.16489842"
     inkscape:cx="178.03918"
     inkscape:cy="215.29913"
     inkscape:window-x="133"
     inkscape:window-y="8"
     inkscape:window-maximized="0"
     inkscape:current-layer="svg5820"
     fit-margin-top="0"
     fit-margin-left="0"
     fit-margin-right="0"
     fit-margin-bottom="0" />
  <path
     style="fill:#000000;stroke-width:1.33333337"
     d="M 0.52698169,576.96276 C 20.469482,527.01346 1.8859817,483.21386 42.215382,446.09196 121.73798,338.46756 244.51818,273.46856 362.06658,213.63896 504.45168,149.58376 651.87668,97.719557 803.39988,63.230457 978.63834,9.2421569 1164.4528,4.9878569 1346.7331,-2.4662431 c 163.8916,-0.082 330.1803,26.5949001 478.6667,97.1386001 53.3261,23.174603 114.3756,49.812203 163.9214,67.053003 71.7214,33.9044 135.6026,83.779 200.9823,126.4692 25.2446,24.4059 69.3397,50.0121 88.4383,69.1183 69.1898,57.9505 137.847,115.43 193.0818,187.7453 15.7492,24.1052 40.779,35.4616 44.5347,68.8147 -8.6164,73.6494 -99.0723,-46.9069 -145.0425,-51.2026 -92.1504,-56.6436 -190.5705,-102.0342 -294.6746,-131.8634 -200.2101,-69.0811 -411.8252,-100.6665 -622.5267,-115.5245 -205.9013,-2.1539 -412.0385,10.2004 -614.71492,47.9139 -201.7041,31.0889 -395.0274,101.1892 -581.8019,181.8664 -76.0976,26.2306 -152.5259,51.7558 -230.812798,69.4222 -84.407602,-22.7454 30.0696,-102.8491 70.9904,-122.6066 37.583798,-36.1497 116.200298,-46.0669 94.867298,-113.4586 4.3364,-105.8086 12.5168,77.6659 15.3335,42.6807 56.3966,-39.0579 119.9862,-68.1219 181.4235,-96.0423 39.9534,-9.0124 80.2715,-34.3853 70.0283,-90.0019 12.7017,-98.5235 8.9385,30.7291 6.9597,61.3333 76.6358,-33.4896 159.051,-52.4203 239.2457,-76.4368 -4.8002,-43.4116 42.7149,-179.232803 18.8894,-60.9429 -38.0525,90.7794 37.1076,44.5994 86.4941,43.2044 55.3804,-3.3672 108.75236,-23.1168 163.04396,-21.8328 81.20466,-12.9056 171.31906,-12.646 256.51486,-18.5455 83.2748,5.0272 178.2942,4.4814 264.1575,21.5889 128.4825,10.7181 259.1597,24.0907 383.4855,58.8818 30.1193,4.739 65.768,32.4366 93.9374,20.7533 27.439,-49.8907 99.0946,-48.2459 20.7554,-7.0932 -24.0374,40.663 78.7966,36.0925 105.6517,60.3568 19.1718,-14.4274 32.6695,-32.2256 19.4863,4.6389 33.5498,10.5284 64.6619,28.2636 99.7374,39.9592 60.3981,45.9496 34.8863,-27.7517 -17.0907,-40.522 -91.7473,-67.2165 -186.362,-134.0925 -294.5831,-172.0064 C 1770.5602,93.925957 1634.311,26.517957 1485.6993,21.236557 c -6.1693,41.0955 -70.0834,90.921003 -82.9745,107.257803 8.8953,-35.385103 107.5964,-106.987503 47.1497,-110.011703 -74.9388,-5.9977 -149.1635,-6.3541 -223.3183,4.0867 -9.6452,26.295 -84.7358,172.662403 -51.2527,77.976303 32.4307,-49.202303 52.8348,-101.43690312 -28.6758,-76.693303 -185.38896,3.9731 -364.82942,54.8452 -540.81172,108.746103 -189.3126,66.0058 -385.4675,142.2385 -525.804798,291.0905 -47.6873,51.2767 -46.401,99.6447 -65.1865,167.9124 -5.9212003,15.1124 -26.2999,-2.1129 -14.29770031,-14.6386 z m 18.83010031,20.1637 c 49.8767,-0.7495 118.478898,-27.4823 154.376098,-41.0294 10.2066,-37.4697 61.2177,-64.8979 86.5424,-98.9206 78.7362,-65.3616 -29.7191,-13.1734 -65.0483,10.4413 -62.7469,36.4924 -133.913698,65.9344 -180.402598,123.9836 l 0.8491,3.1517 3.6833,2.3727 z m 92.042798,-43.4013 c 7.0253,3.3057 -7.0253,3.3057 0,0 z m 75.758,-1.3334 c 113.8253,-32.9655 217.7105,-90.8433 331.5607,-123.5568 190.5726,-64.328 390.63096,-92.6867 590.01452,-114.8238 108.4919,-8.9702 217.6945,-8.9233 325.8807,-14.0834 39.0791,-26.3256 101.5629,-31.3107 151.0984,-43.536 114.8213,-11.2886 -81.1781,26.4436 -111.582,36.9068 -66.3631,17.0185 136.7204,31.336 111.2195,20.3102 75.3742,20.711 140.472,-4.8787 214.917,-14.9997 31.5305,-13.5678 116.9578,-10.1238 35.7998,3.1353 -41.046,7.458 -193.7495,27.001 -65.6667,34.9275 63.837,17.6269 129.3705,28.6576 195,10.4265 54.4525,-14.994 99.8984,3.8826 18.0154,7.4696 -41.1131,4.3343 -93.9438,14.8624 -22.0258,23.8116 52.9092,14.3171 105.0289,38.53 157.4255,48.3515 26.3831,-4.0514 174.6008,11.8977 82.3791,-22.6193 -80.0209,-39.7103 -165.0947,-68.0535 -246.6299,-104.5114 -310.9812,-82.3432 -637.5697,-124.8239 -959.33836,-90.9861 -209.68806,26.3459 -413.26766,88.6306 -608.75096,166.4471 -65.2355,11.6995 -91.4668,62.1451 -136.6921,102.7099 -16.3403,25.5254 -51.4812,54.9085 -62.6248,74.6205 z m 199.9087,-95.5585 c 52.2839,-28.7257 93.4845,-72.8582 133.2503,-115.1216 -1.7214,15.7232 -106.2184,132.742 -133.2503,115.1216 z m 283.0398,-92.9883 c 38.5004,-39.897 89.154,-68.2602 132.6268,-101.8715 82.6745,-37.565 -148.4325,109.9848 -84.0721,73.085 -9.9221,0.3775 -50.3585,44.2674 -48.5547,28.7865 z m 268.79746,-41.8758 c 40.2496,-27.4316 86.32456,-49.7309 128.95886,-74.9107 23.8748,-19.0914 114.6388,-43.8459 34.6517,-8.9116 -53.9738,18.4313 -122.55396,83.5957 -163.61056,83.8223 z m 237.42206,-25.1375 c 60.8075,-36.1339 128.8361,-61.4974 198.682,-71.9112 -47.8878,11.6492 -162.3207,68.68 -198.682,71.9112 z m 978.9768,146.3109 c 48.2017,11.6673 95.3809,36.2472 142.8217,58.4888 34.1413,14.7724 60.4255,4.3781 85.7228,18.2471 33.2549,-8.7461 -82.565,-60.9785 -110.2917,-82.2726 -38.1564,0.6674 -86.6871,-5.3884 -118.2528,5.5367 z m 208.7638,66.5826 c 4.7833,3.4065 -4.7833,3.4065 0,0 z m -94.6282,-123.3572 c 5.9627,4.5298 41.0861,23.9573 24.4779,12.9336 -1.9862,-4.4904 -29.2013,-32.9893 -24.4779,-12.9336 z m 35.2948,24.1097 c 18.941,15.0084 -12.419,-16.5831 0,0 z m 9.9213,8.5808 c 9.2462,-6.8542 -5.469,-2.0966 0,0 z m 8.7454,5.3333 c 17.4826,10.5337 -7.6801,-11.6086 0,0 z m 37.6701,111.5204 c 26.289,12.2091 28.5253,21.5025 54.6791,26.8136 13.2114,6.3667 54.6164,37.5819 49.0705,25.5258 4.2818,-24.1669 -53.4473,-61.9957 -96.077,-58.5423 -13.0511,-2.9531 -33.9466,-7.6071 -7.6726,6.2029 z m 13.1077,4.5848 c 3.5511,1.9246 -5.7486,0.5946 0,0 z m 71.2222,23.8948 c 3.8925,-4.905 -1.7021,8.416 0,0 z m 2.7554,4.6119 c 7.1516,-1.3268 -5.7328,6.2092 0,0 z m 1.9113,4.7215 c 9.8408,-4.6721 -4.5843,7.1172 0,0 z m 15.9213,21.3333 c 4.5797,-3.1115 -2.5407,-3.8402 0,0 z M 897.08464,169.72516 c 11.6602,-29.592 91.7905,-178.9642031 55.0583,-78.149103 -17.2687,16.386203 -39.714,84.543803 -55.0583,78.149103 z m 663.83286,-3.3601 c 12.0968,-28.7399 122.5425,-147.780403 60.4388,-61.9733 -10.5913,1.2569 -60.3397,98.5961 -60.4388,61.9733 z m 224.5682,35.1814 c 12.2059,-21.3708 87.5007,-97.2996 43.0147,-31.7964 -0.1788,8.5882 -63.4382,71.7145 -43.0147,31.7964 z m 707.9141,366.8454 c 4.7497,3.2883 -4.8748,1.6125 0,0 z"
     id="path6375"
     inkscape:connector-curvature="0"
     sodipodi:nodetypes="ccccccccccccccccccccccccccccccccccccccccccccccccccccccccccccccccccccccccccccccccccccccccccccccccccccccccccccccccccccccccccccccccccccc" />
  <path
     style="fill:#2d5016;fill-opacity:1;stroke:none;stroke-width:8.57627106;stroke-miterlimit:4;stroke-dasharray:none"
     d="M 23.5986,527.42837 C -21.411938,467.28895 171.97721,317.78386 319.95178,243.69376 462.84971,172.14556 711.146,93.062503 888.17417,57.207957 c 83.1522,-16.8413 270.21423,-64.5059516 305.52543,-41.903852 8.8654,5.1442 183.5654,-21.9527139 164.9746,20.621186 -22.7829,52.174003 -183.6171,98.933769 -155.5258,43.285066 21.8541,-43.2929 30.0213,-51.8344 53.7251,-56.1882 44.5902,-8.1901 207.5555,-17.5249999 211.0019,-7.1201 1.6825,5.0796 39.6693,89.869893 23.0848,110.733493 -16.5843,20.8636 -90.2248,-5.53759 -90.2706,-1.01779 -0.1286,12.6777 76.3848,-82.494445 82.2724,-101.044645 11.2292,-35.38 161.7446,9.536671 392.6478,105.091475 124.5643,51.5485 194.8271,77.59066 273.3266,135.63206 23.6124,17.4587 47.6416,45.96923 62.3723,53.58683 14.7308,7.6176 100.5637,92.92508 103.3457,100.17498 5.4966,14.3239 -73.8401,-32.19472 -86.8667,-43.76892 -4.4811,-3.9814 -27.9408,-6.5927 -54.7533,-17.1841 -34.0285,-13.4419 -58.2253,-28.69908 -54.985,-37.14308 5.371,-13.9967 -6.7192,-16.1235 -19.4319,-3.4109 -8.2709,8.271 -178.9537,-12.3022 -104.1831,-45.1427 -3.1257,-3.1257 -75.7306,-45.03885 -61.7641,-56.45285 22.7092,-18.5589 104.9993,9.23165 89.1888,8.95585 -9.7237,-0.1697 -28.146,27.72105 -38.7953,37.64245 -22.8804,21.3163 -37.208,12.46566 -180.214,-30.31164 -8.124,-2.4302 -1.5174,-25.32061 17.1525,-46.58461 14.6137,-16.6439 26.5702,-34.3083 26.5702,-39.2542 0,-17.0274 40.8565,-13.94272 8.3608,-26.609 204.7136,124.38753 -86.49,110.68634 -94.1235,108.60154 -25.7999,-7.046 -307.3992,-40.84097 -415.0445,-48.79367 -122.9879,-9.0863 -327.8991,9.31768 -455.44706,26.13174 -113.42387,14.95215 -172.98477,19.18819 -169.13493,3.01259 1.68396,-7.0755 -0.53537,-47.06251 3.36678,-65.6182 l 7.21415,-34.3051 -9.4989,27.24488 c -6.89209,14.1508 7.762,20.67323 7.54925,35.80353 -0.37541,26.698 5.35897,52.29916 -54.98437,69.79996 -61.47579,17.8291 -168.20994,50.61221 -188.98272,58.27881 -37.71027,37.14438 -22.09097,-24.3296 -22.09097,-55.7613 0,-24.0895 6.75327,-45.31508 2.03632,-45.31508 -4.71695,0 -4.02802,15.93366 -4.02802,36.33466 0,24.0429 15.23534,71.79293 -8.94414,63.07383 24.17948,8.7191 -213.38804,136.49852 -232.79318,119.83968 l -14.17388,5.28163 -4.89359,-52.19881 -4.60134,-30.82249 1.61341,57.23358 c 1.27502,45.22935 11.48515,60.12036 -87.00856,98.51436 l -78.374615,43.30962 z m 1533.876,-423.36372 c 37.1208,-49.753206 93.8371,-45.873593 64.8593,-20.154993 -29.2149,25.929003 -67.5204,82.029503 -62.0517,90.878003 6.0459,9.7826 -44.738,-14.52361 -2.8076,-70.72301 z M 925.9487,130.3942 c 37.24979,-67.926787 48.99554,-91.176266 24.20468,-59.145646 -13.7887,17.8152 -15.30758,23.840052 -50.24064,94.291736 -7.61646,15.36058 3.54486,4.70621 26.03596,-35.14609 z"
     id="path1419"
     inkscape:connector-curvature="0"
     sodipodi:nodetypes="ssscssscccssscccccccsccccsccsscsccsccssscscccsscscsccccsc" />
  <path
     style="fill:#2d5016;fill-opacity:1;stroke:none;stroke-width:8.57627106;stroke-miterlimit:4;stroke-dasharray:none"
     d="m 230.00374,499.45646 c 31.60014,-34.1979 96.46584,-114.92229 108.93915,-122.87129 32.86515,-20.9444 214.7854,-72.65905 335.30293,-106.94865 215.68748,-61.3674 329.61048,-80.67331 555.59308,-80.27051 199.6816,0.3559 312.7939,7.96479 516.0074,47.94129 132.8598,26.1364 150.8125,52.41141 7.3365,78.17511 -72.6281,13.0416 -290.5234,4.05486 -299.4378,-10.36894 -2.1748,-3.519 29.7355,-20.53252 66.2793,-28.54292 36.5439,-8.0103 90.0117,-14.73299 94.7287,-19.57169 12.9834,-13.3185 -23.8704,13.78171 -86.8839,34.54151 -40.0672,13.2001 -140.6849,17.71332 -230.9584,14.37331 l -106.423,-3.93752 -24.6737,-20.98788 c -62.4323,-53.10614 206.0115,-56.38692 176.2103,-52.37932 -45.7701,6.1551 -21.4206,74.64212 -70.197,77.98721 -17.3281,1.18836 -126.7233,7.65334 -179.9667,11.81654 -40.0941,3.135 -101.98036,14.34009 -120.84812,16.56169 -18.8678,2.2216 -18.66155,-16.71322 -11.58615,-19.84142 7.0755,-3.1282 43.29447,-20.545 72.14817,-38.7041 28.8538,-18.159 56.1618,-33.13042 70.9399,-38.28202 30.4417,-10.6121 45.1454,-24.30307 15.2051,-15.01607 -31.6779,9.8259 -160.99864,82.35052 -143.5123,97.31761 -12.7589,12.6628 -56.10502,31.54405 -124.37827,42.89545 -128.4879,21.363 -341.46103,64.55186 -425.377,98.62466 -8.57438,3.4814 9.68829,-29.5607 42.77361,-55.8237 58.2376,-58.2376 66.9918,-71.40193 9.83404,-17.93753 -22.52191,21.0666 -28.11003,27.09489 -41.13944,35.63209 -13.02941,8.5372 16.45803,19.8091 18.27632,25.0486 2.77165,7.9868 -241.10656,102.56018 -263.79969,103.38648 -3.97938,0.1449 8.00683,-18.62009 39.60697,-52.81799 z M 719.88488,331.3203 c 62.82549,-45.3845 106.31482,-74.3712 94.35747,-74.6724 -11.50917,5.32556 -130.6466,89.14642 -140.51672,105.11662 -10.37559,16.7881 -5.38182,6.78858 46.15925,-30.44422 z"
     id="path1421"
     inkscape:connector-curvature="0"
     sodipodi:nodetypes="scsssccccsscssssscccccsccsscssscss" />
  <path
     style="fill:#2d5016;fill-opacity:1;stroke:none;stroke-width:8.57627106;stroke-miterlimit:4;stroke-dasharray:none"
     d="m 1791.3968,346.7022 c -27.285,-5.9685 -84.0995,-20.32682 -86.4151,-22.64232 -2.3156,-2.3156 59.7882,-19.72462 95.285,-25.45082 35.4968,-5.7263 52.3255,-20.25622 52.3255,-25.14172 0,-10.7307 51.3067,4.36171 120.7814,29.67541 l 47.8384,27.63171 -58.7112,16.1794 c -56.9254,15.68727 -106.4954,13.88124 -171.104,-0.25166 z"
     id="path1423"
     inkscape:connector-curvature="0"
     sodipodi:nodetypes="sccsccss" />
  <path
     style="fill:#2d5016;fill-opacity:1;stroke:none;stroke-width:8.57627106;stroke-miterlimit:4;stroke-dasharray:none"
     d="m 2003.6951,396.36217 -86.7809,-26.42241 -27.6333,-56.69175 c -10.7893,-22.13485 127.5399,3.86977 129.1174,-0.86273 2.8672,-8.6016 82.2267,32.94674 174.0194,75.87464 l 47.9275,33.43004 -77.2087,13.05506 c -48.4226,8.18767 -99.9983,-10.26292 -159.4414,-38.38285 z"
     id="path1425"
     inkscape:connector-curvature="0"
     sodipodi:nodetypes="scssccss" />
  <path
     style="fill:#2d5016;fill-opacity:1;stroke:none;stroke-width:8.57627106;stroke-miterlimit:4;stroke-dasharray:none"
     d="m 2241.5789,479.92174 -86.2762,-36.77918 54.1536,-15.33484 c 39.1233,-11.07866 78.7856,-8.71036 121.9964,16.61474 28.5544,16.7353 72.3842,79.17123 72.3842,81.30373 0,12.7345 -104.4963,-13.87249 -162.258,-45.80445 z"
     id="path1427"
     inkscape:connector-curvature="0"
     sodipodi:nodetypes="scscss" />
  <path
     style="fill:#2d5016;fill-opacity:1;stroke:none;stroke-width:8.57627106;stroke-miterlimit:4;stroke-dasharray:none"
     d="m 2356.2734,538.87087 c -22.2417,-11.9098 25.7109,-23.07521 34.6059,-23.29861 19.9726,-0.5014 89.5958,65.97571 89.5958,76.80151 0,10.498 -78.625,-29.0979 -124.2017,-53.5029 z"
     id="path1429"
     inkscape:connector-curvature="0"
     sodipodi:nodetypes="scss" />
  <path
     style="fill:#2d5016;fill-opacity:1;stroke:none;stroke-width:8.57627106;stroke-miterlimit:4;stroke-dasharray:none"
     d="m 47.277902,564.60876 c 29.622,-26.1884 201.323258,-125.5987 216.933718,-125.5987 3.87519,0 -17.68669,26.0504 -47.9153,57.8899 -46.38661,48.8584 -63.658,60.8328 -110.70686,76.7542 -82.596208,27.9506 -97.5367483,25.633 -58.311558,-9.0454 z"
     id="path1431"
     inkscape:connector-curvature="0" />
  <path
     style="fill:#2d5016;fill-opacity:1;stroke:none;stroke-width:3.03216982;stroke-miterlimit:4;stroke-dasharray:none"
     d="m 1166.6621,302.96406 c 9.1723,-3.2459 21.4526,-6.7776 27.2895,-7.8482 10.5471,-1.9346 10.5658,-1.9185 3.0322,2.6083 -7.1187,4.2776 -5.9184,4.5578 19.7091,4.5998 71.5818,0.1175 196.8852,-7.4218 228.9288,-13.7744 6.1325,-1.2157 5.5534,-0.3827 -3.0322,4.3613 -9.5073,5.2533 -21.349,6.2198 -113.7063,9.2804 -56.7016,1.879 -120.1498,4.1494 -140.9959,5.0454 l -37.9021,1.6289 z"
     id="path1433"
     inkscape:connector-curvature="0" />
  <path
     style="fill:#2d5016;fill-opacity:1;stroke:none;stroke-width:3.03216982;stroke-miterlimit:4;stroke-dasharray:none"
     d="m 914.99204,332.45106 c 41.0633,-12.4946 43.5517,-13.0083 44.8047,-9.2492 0.6508,1.9523 5.5041,3.7084 10.7851,3.9024 10.3052,0.3787 -55.0511,11.3172 -67.7185,11.3339 -4.1692,0.01 1.2887,-2.6887 12.1287,-5.9871 z"
     id="path1435"
     inkscape:connector-curvature="0" />
  <path
     style="fill:#2d5016;fill-opacity:1;stroke:none;stroke-width:3.03216982;stroke-miterlimit:4;stroke-dasharray:none"
     d="m 987.04144,324.60696 c 3.7717,-0.7253 9.2296,-0.6978 12.1287,0.061 2.89896,0.7589 -0.187,1.3523 -6.8578,1.3186 -6.6707,-0.034 -9.0427,-0.6546 -5.2709,-1.3798 z"
     id="path1437"
     inkscape:connector-curvature="0" />
  <path
     style="fill:#2d5016;fill-opacity:1;stroke:none;stroke-width:3.03216982;stroke-miterlimit:4;stroke-dasharray:none"
     d="m 355.55672,482.42166 c 15.00924,-7.6034 29.33624,-15.5379 31.83778,-17.6323 2.50154,-2.0944 8.1435,-4.66 12.53769,-5.7014 4.39419,-1.0415 15.106,-6.6826 23.80402,-12.536 18.90222,-12.7202 20.50998,-13.0464 13.79554,-2.7989 -2.82659,4.3139 -4.34731,8.6355 -3.37938,9.6034 1.80146,1.8015 -97.36802,43.2937 -102.85301,43.0335 -1.66769,-0.079 9.24812,-6.3649 24.25736,-13.9683 z"
     id="path1439"
     inkscape:connector-curvature="0" />
  <path
     style="fill:#2d5016;fill-opacity:1;stroke:none;stroke-width:3.03216982;stroke-miterlimit:4;stroke-dasharray:none"
     d="m 114.6427,571.38886 c 29.03884,-11.0519 50.08208,-22.5492 58.69943,-32.0713 9.08915,-10.0434 10.99314,-7.4739 3.96691,5.3535 -6.05574,11.0556 -8.53255,12.4571 -42.95651,24.3077 -43.205998,14.8738 -56.838198,16.5407 -19.70983,2.4101 z"
     id="path1441"
     inkscape:connector-curvature="0" />
  <path
     style="fill:#2d5016;fill-opacity:1;stroke:none;stroke-width:3.03216982;stroke-miterlimit:4;stroke-dasharray:none"
     d="m 721.18331,208.74696 c -6.61202,-6.612 -7.32015,-11.8993 -3.2823,-24.5075 2.29265,-7.1588 2.44448,-7.0282 2.72992,2.3492 0.39404,12.9452 7.78228,15.7648 42.19197,16.1017 l 26.3341,0.2579 -16.67694,4.0691 c -34.02638,8.3024 -44.375,8.6514 -51.29675,1.7296 z"
     id="path1443"
     inkscape:connector-curvature="0" />
  <path
     style="fill:#2d5016;fill-opacity:1;stroke:none;stroke-width:3.03216982;stroke-miterlimit:4;stroke-dasharray:none"
     d=""
     id="path1445"
     inkscape:connector-curvature="0" />
  <path
     style="fill:#2d2816;fill-opacity:1;stroke:none;stroke-width:3.03216982;stroke-miterlimit:4;stroke-dasharray:none"
     d="m 1930.7689,258.58776 c -10.0436,-3.8109 -9.4628,-3.9399 10.8325,-2.4068 13.5735,1.0253 23.8686,0.3229 28.0476,-1.9136 7.1218,-3.8115 8.8794,-0.7457 2.9638,5.1699 -4.7468,4.7468 -28.3582,4.2675 -41.8439,-0.8495 z"
     id="path1449"
     inkscape:connector-curvature="0" />
  <path
     style="fill:#2d2816;fill-opacity:1;stroke:none;stroke-width:3.03216982;stroke-miterlimit:4;stroke-dasharray:none"
     d=""
     id="path1451"
     inkscape:connector-curvature="0" />
  <path
     style="fill:#2d2816;fill-opacity:1;stroke:none;stroke-width:3.03216982;stroke-miterlimit:4;stroke-dasharray:none"
     d="m 2466.9589,620.81176 c -12.2305,-8.3715 -34.3257,-24.0744 -49.1004,-34.8954 -14.7747,-10.8209 -30.4662,-20.5082 -34.8699,-21.5272 -4.4038,-1.0191 -21.6516,-9.7172 -38.3286,-19.3292 -83.5693,-48.1665 -157.0216,-80.1921 -260.1925,-113.4454 -163.0293,-52.5464 -287.3641,-80.2282 -449.3352,-100.0396 -129.8065,-15.8773 -166.4152,-17.8494 -295.6365,-15.9256 -209.4639,3.1182 -372.75066,19.8958 -568.53182,58.4162 -135.73993,26.7071 -287.74706,75.1782 -457.17394,145.7807 -75.07774,31.2859 -177.57708,65.7781 -250.101618,84.1621 -38.18221,9.6787 -43.49094,9.6707 -55.0825003,-0.083 -10.52641,-8.8574 -12.17924,-20.2937 -4.95265,-34.2683 2.40707,-4.6548 6.6070603,-24.7131 9.3333003,-44.574 2.72624,-19.8608 7.49255,-41.8873 10.59181,-48.9476 6.79119,-15.4707 41.64277,-58.1578 71.03474,-87.0051 C 191.51432,294.02486 367.07448,200.80296 591.72502,125.16536 692.72942,91.158157 867.78277,44.770457 945.75344,31.350657 1060.9506,11.523657 1282.6723,-3.5835431 1400.1392,0.39075688 1543.6469,5.2461569 1682.2635,33.932457 1791.2891,81.338057 c 84.8255,36.883203 138.5396,59.469003 169.5011,71.272303 19.0133,7.2483 48.3495,20.8965 65.1916,30.3294 35.534,19.9017 150.9172,96.4852 173.1341,114.9147 8.3385,6.917 25.3944,19.9672 37.9021,29.0006 38.4255,27.7519 123.7464,101.8122 165.4614,143.6241 34.6,34.6803 49.3631,51.5224 97.458,111.1824 12.0639,14.965 16.8298,30.6741 12.6452,41.6805 -6.6181,17.407 -17.3667,16.8108 -45.6237,-2.5306 z M 65.984512,591.75686 c 12.5077,-2.425 41.606688,-10.7689 64.664408,-18.542 40.66897,-13.71 42.10411,-14.4875 47.97209,-25.9897 3.32691,-6.5213 11.65479,-17.9385 18.50639,-25.3716 16.17035,-17.5428 47.75512,-44.8858 47.75512,-41.3417 0,1.5136 -11.05493,14.9522 -24.56652,29.8637 -25.96023,28.6498 -34.73802,40.0739 -32.50609,42.3058 2.62378,2.6238 86.67989,-28.2733 169.26289,-62.2172 195.9776,-80.552 360.53078,-123.4231 598.85354,-156.0193 149.02526,-20.3827 190.54696,-23.6731 365.37646,-28.9542 100.7439,-3.0433 111.6817,-3.8821 121.904,-9.3491 18.948,-10.1337 43.5175,-17.4035 96.2982,-28.4935 51.929,-10.911 86.3872,-14.619 57.7252,-6.2118 -7.5046,2.2013 -40.6855,10.4222 -73.7353,18.2686 -58.6781,13.931 -70.552,19.1022 -59.5186,25.9212 8.4609,5.2292 45.3081,9.8722 87.2777,10.9977 23.91,0.6412 53.9285,2.6242 66.7077,4.4067 12.8054,1.7862 33.4429,2.311 45.9762,1.1693 22.5444,-2.0537 126.8214,-20.0237 148.1135,-25.5243 18.3857,-4.7497 53.9669,-7.4484 50.4937,-3.8297 -1.6677,1.7376 -27.5928,7.3665 -57.6113,12.5088 -74.7634,12.8073 -94.6823,18.9628 -83.5752,25.8274 1.5629,0.9659 13.5556,3.0996 26.6505,4.7416 13.0949,1.6419 38.7646,6.457 57.0437,10.7001 45.0142,10.449 108.5219,13.1841 140.8769,6.0672 39.3938,-8.6652 58.7916,-11.2249 69.6512,-9.1913 14.7344,2.7594 6.8006,6.298 -19.6204,8.7511 -53.7083,4.9866 -79.4057,12.4585 -68.2238,19.8373 2.5015,1.6507 10.6884,3.8753 18.193,4.9436 7.5046,1.0683 41.6166,11.1913 75.8043,22.4956 34.1877,11.3043 69.6641,22.1533 78.8364,24.1088 10.4281,2.2232 37.6811,3.2005 72.733,2.6082 72.5569,-1.226 73.5272,-3.0137 16.0553,-29.5789 -22.9843,-10.6241 -84.7707,-36.9858 -137.303,-58.5816 -82.7519,-34.019 -103.4133,-41.2486 -154.6407,-54.1105 -182.8913,-45.9194 -369.5522,-74.7755 -548.4515,-84.7857 -114.8501,-6.4263 -295.309,-0.7113 -385.45676,12.2071 -156.85146,22.4773 -349.6067,74.3782 -518.50101,139.6108 -22.51386,8.6955 -53.18281,19.8382 -68.1532,24.7613 -33.7395,11.0955 -43.16534,16.7691 -69.43672,41.7956 -15.50942,14.7746 -20.27571,18.0007 -18.60442,12.5927 2.1324,-6.9001 1.72691,-7.1707 -7.95424,-5.3086 -18.3141,3.5228 -128.91528,62.1552 -195.326048,103.5472 -30.1175,18.7714 -72.90581,59.1246 -70.19183,66.1971 2.18908,5.7047 8.39863,5.3572 50.64524,-2.8338 z m 2400.247788,-8.3319 c -3.2469,-17.3073 -32.0493,-40.367 -62.4449,-49.9946 -14.8176,-4.6933 -54.5686,-9.0257 -56.3511,-6.1417 -0.8109,1.3121 4.013,5.1851 10.7198,8.6067 6.7069,3.4215 18.5003,10.2201 26.2076,15.108 7.7073,4.8878 17.6185,9.688 22.0248,10.667 4.4063,0.9791 19.6095,9.0696 33.7849,17.9791 14.1754,8.9094 26.2784,15.7527 26.8955,15.2073 0.6171,-0.5454 0.2407,-5.6897 -0.8366,-11.4318 z M 82.400032,502.29646 c 8.48224,-4.8997 20.880158,-12.8551 27.550938,-17.6788 6.67077,-4.8236 24.84304,-16.5319 40.38281,-26.0184 18.10364,-11.0516 31.47623,-21.6961 37.22289,-29.6292 8.49635,-11.7289 8.93124,-13.7819 8.2567,-38.9789 -0.39163,-14.6288 0.0887,-27.3986 1.06736,-28.3773 0.97868,-0.9787 2.73461,10.2207 3.90207,24.8875 1.16747,14.6668 2.82911,29.6684 3.69253,33.3369 1.51084,6.419 1.78748,6.4671 7.35638,1.2789 19.08675,-17.782 138.62105,-79.6875 188.8752,-97.8164 28.76146,-10.3756 42.98658,-20.8327 53.18823,-39.0996 6.19266,-11.0885 7.50623,-18.0231 8.20338,-43.3076 1.28398,-46.5671 4.1324,-38.6967 4.1324,11.418 0,41.3223 0.41471,44.6916 5.30629,43.112 2.91847,-0.9424 22.36225,-8.0637 43.20842,-15.8251 20.84617,-7.7614 71.97031,-23.9242 113.60922,-35.9173 l 75.70706,-21.8058 5.01187,-30.6297 c 4.98795,-30.4836 17.09401,-75.5544 19.61647,-73.0319 2.00809,2.0081 -4.38718,34.757 -11.0947,56.8137 -11.86349,39.0113 -2.31955,46.6052 46.14913,36.7199 17.16372,-3.5005 43.5013,-7.7574 58.52798,-9.4596 15.02667,-1.7023 45.10589,-6.3767 66.84268,-10.3877 21.7368,-4.0109 55.8952,-8.7494 75.9075,-10.5299 20.0123,-1.7804 48.66626,-4.5276 63.67556,-6.1047 15.0092,-1.5771 55.9435,-4.2822 90.9651,-6.0114 35.0215,-1.7291 73.9091,-3.9212 86.4168,-4.8713 28.2737,-2.1477 188.7724,6.2337 232.7492,12.1544 62.6717,8.4376 81.5674,10.6256 145.6518,16.865 140.0291,13.6337 258.7029,36.2459 333.4882,63.5432 15.0078,5.478 31.0072,9.1627 39.7854,9.1627 13.1768,0 15.3794,-1.0169 21.4763,-9.9147 8.8471,-12.9114 27.2872,-26.0299 39.9957,-28.4534 l 10.0875,-1.9237 -7.3961,8.0654 c -4.0679,4.4359 -13.3569,11.5585 -20.6421,15.8279 -11.7213,6.8691 -13.1386,8.8593 -12.313,17.2901 1.3379,13.6627 14.3136,21.1015 53.9678,30.9392 18.4452,4.576 38.5205,10.8609 44.6116,13.9663 l 11.0749,5.6463 10.2721,-7.8349 c 11.8581,-9.0446 14.3161,-8.294 10.0015,3.0542 -2.6687,7.0194 -2.1802,8.4566 3.7054,10.9001 3.7287,1.548 25.1999,10.3946 47.7138,19.659 22.5138,9.2643 45.0277,19.0812 50.0308,21.8154 25.7547,14.0745 26.0579,14.1681 30.7316,9.4944 9.5091,-9.5091 -11.9599,-38.9457 -36.334,-49.8185 -6.9248,-3.089 -33.0578,-20.2182 -58.0732,-38.0648 -96.0866,-68.5507 -156.4021,-102.2304 -253.5687,-141.5908 -32.3096,-13.0881 -84.4117,-34.2221 -115.7825,-46.964603 -118.1165,-47.9778 -200.4594,-70.7672 -276.9374,-76.6458 l -25.1523,-1.9333 -3.2049,8.7787 c -1.7627,4.8283 -5.5566,13.3575 -8.4308,18.9538 -5.8463,11.3831 -55.1791,65.201403 -57.5729,62.807603 -0.8429,-0.8429 8.097,-12.967703 19.8664,-26.944103 35.019,-41.5857 40.9868,-55.4974 27.1743,-63.3473 -7.9361,-4.5102 -175.8323,-5.6426 -214.6034,-1.4475 l -22.8187,2.4691 -9.8057,21.7883 c -12.5461,27.8772 -43.6019,84.459103 -45.3805,82.680503 -2.5175,-2.5175 6.054,-23.9221 16.3994,-40.952603 14.8424,-24.4332 20.7897,-46.1961 15.582,-57.0191 -3.84,-7.9806 -5.0313,-8.3814 -23.6957,-7.9728 -108.0601,2.366 -234.81836,20.5165 -359.25541,51.4419 C 540.061,140.29986 315.56249,233.02276 177.22207,336.12466 c -66.79362,49.7797 -111.163618,94.9006 -128.895018,131.0763 -7.873,16.0626 -21.76075,61.648 -21.76075,71.428 0,1.7399 9.09258,-3.7187 20.20573,-12.1302 11.11315,-8.4115 27.14575,-19.3025 35.628,-24.2023 z m 2308.479268,13.2758 c 1.9082,-5.7311 -13.0897,-17.9817 -44.7032,-36.5145 -15.8431,-9.2877 -39.0392,-22.9101 -51.5469,-30.272 l -22.7412,-13.3853 -55.1889,1.0126 c -33.8473,0.621 -56.444,2.2689 -58.4344,4.2614 -2.3072,2.3096 4.8818,5.9496 24.8672,12.5908 15.462,5.138 48.6206,18.8793 73.6859,30.5362 50.4032,23.4407 63.1729,27.7547 83.294,28.1395 7.5046,0.1434 19.7849,2.0336 27.2895,4.2002 16.0864,4.6442 21.7883,4.5061 23.478,-0.5689 z m -62.2898,-92.3978 c -1.9456,-1.9457 -4.5441,-2.531 -5.7743,-1.3007 -1.2303,1.2303 -0.2693,3.453 2.1357,4.9393 5.6629,3.4998 8.22,0.9427 3.6386,-3.6386 z m -16.9019,-11.764 c -10.4431,-8.2145 -13.875,-7.2501 -4.8659,1.3673 4.1341,3.9545 8.5857,6.5746 9.8924,5.8226 1.3066,-0.752 -0.9553,-3.9874 -5.0265,-7.1899 z m -18.7152,-16.2245 c -5.1039,-7.7895 -17.2224,-16.8876 -22.4938,-16.8876 -7.6083,0 -2.0404,9.4112 9.7478,16.4764 16.1211,9.6621 18.8654,9.7506 12.746,0.4112 z"
     id="path1453"
     inkscape:connector-curvature="0" />
  <path
     style="fill:#2d2815;fill-opacity:1;stroke:none;stroke-width:3.03216982;stroke-miterlimit:4;stroke-dasharray:none"
     d="m 2480.8013,628.17666 c -8.17,-4.3209 -17.0119,-9.7817 -19.6488,-12.1353 -2.6368,-2.3536 -5.7069,-3.3665 -6.8224,-2.2511 -1.1154,1.1154 -2.028,0.5517 -2.028,-1.2527 0,-4.5745 -62.8818,-45.4745 -93.9973,-61.1383 -14.1754,-7.1361 -35.3248,-18.2956 -46.9986,-24.7989 -105.8708,-58.979 -310.9046,-129.174 -473.0185,-161.9417 -11.6739,-2.3597 -24.1224,-4.92 -27.6633,-5.6898 -3.541,-0.7697 -11.0456,-2.1687 -16.677,-3.1088 -5.6313,-0.9401 -13.5953,-2.393 -17.6978,-3.2288 -4.1025,-0.8357 -12.3439,-2.248 -18.3144,-3.1385 -5.9705,-0.8905 -14.1573,-2.255 -18.193,-3.0322 -15.402,-2.9662 -37.4886,-6.2811 -59.3656,-8.9101 -8.4695,-1.0178 -18.7031,-2.4897 -22.7413,-3.2709 -4.0382,-0.7812 -14.8467,-2.1937 -24.0191,-3.1388 -9.1723,-0.9452 -20.0881,-2.2493 -24.2573,-2.8981 -7.1897,-1.1189 -26.1769,-3.3198 -53.063,-6.151 -98.6847,-10.3919 -335.7941,-7.2745 -471.5024,6.199 -7.5046,0.745 -22.5024,2.1278 -33.3284,3.0728 -10.826,0.945 -23.7886,2.3096 -28.8056,3.0323 -5.0171,0.7228 -15.2621,1.9939 -22.76666,2.8248 -21.5682,2.388 -40.2548,4.7953 -48.9679,6.3081 -4.4185,0.7672 -13.9698,2.1902 -21.2252,3.1622 -7.2554,0.972 -16.6028,2.3086 -20.772,2.9702 -4.1693,0.6615 -14.4028,2.0528 -22.74131,3.0917 -8.33847,1.0389 -16.07902,2.4515 -17.20126,3.1392 -1.1222,0.6876 -8.62682,1.9961 -16.67693,2.9077 -8.05008,0.9117 -22.82339,3.5063 -32.82955,5.7658 -10.00616,2.2595 -22.96868,4.8926 -28.80561,5.8512 -14.91063,2.4489 -27.50745,5.0111 -51.54689,10.485 -7.50462,1.7088 -17.05595,3.7989 -21.22518,4.6446 -14.56452,2.9545 -21.75127,4.6391 -27.28953,6.3968 -3.06895,0.9741 -8.41785,2.3959 -11.88644,3.1597 -7.00762,1.543 -5.94014,1.2643 -44.84907,11.7103 -36.0967,9.691 -184.02186,59.0302 -225.22578,75.1221 -17.52754,6.8453 -34.93835,13.6169 -38.69066,15.048 -9.96869,3.802 -18.92499,7.4043 -32.59583,13.1105 -6.67077,2.7844 -15.19875,6.3347 -18.95106,7.8896 -3.75231,1.5549 -9.89245,4.1089 -13.64476,5.6756 -3.75232,1.5667 -15.35036,5.843 -25.77345,9.5028 -10.42308,3.6599 -18.95106,7.9164 -18.95106,9.4591 0,1.5426 -1.13201,2.1052 -2.51557,1.2501 -1.38356,-0.8551 -18.09839,3.8802 -37.14408,10.5228 -19.04568,6.6425 -35.99298,12.5458 -37.66068,13.1184 -1.66769,0.5725 -3.84581,0.8735 -4.84027,0.6689 -0.99445,-0.2047 -4.06452,1.5007 -6.82238,3.7895 -2.75785,2.2888 -5.01428,3.1451 -5.01428,1.9028 0,-1.2422 -2.04672,-0.56 -4.54826,1.5161 -2.50154,2.0761 -4.54825,2.7584 -4.54825,1.5161 0,-1.2422 -2.04672,-0.56 -4.54826,1.5161 -2.50154,2.0761 -4.54825,2.9859 -4.54825,2.0218 0,-0.964 -5.79903,0.3414 -12.88672,2.9009 -7.0877,2.5596 -16.16788,5.2929 -20.17819,6.0742 -4.0103,0.7813 -9.80933,2.768 -12.88672,4.415 -3.077388,1.647 -5.595258,2.298 -5.595258,1.4467 0,-0.8512 -3.75231,-0.096 -8.33846,1.6787 -4.58616,1.7745 -10.7263,3.7875 -13.64477,4.4732 -2.91846,0.6858 -8.03525,1.9291 -11.37063,2.7629 -3.33539,0.8339 -9.13442,2.2732 -12.88673,3.1984 -24.31427,5.9956 -41.5453003,1.1846 -47.5332603,-13.2716 -3.20312001,-7.733 -3.07144001,-11.762 0.78023,-23.8723 4.80722,-15.1147 7.3365803,-26.3137 9.4541303,-41.8587 0.68152,-5.0031 3.21638,-18.3067 5.63302,-29.5637 2.41664,-11.2569 3.53715,-20.488 2.49002,-20.5135 -1.04713,-0.024 -0.30768,-1.0618 1.64322,-2.3029 1.9509,-1.241 3.99762,-4.2902 4.54825,-6.7759 0.55064,-2.4858 3.41182,-6.3185 6.35819,-8.5173 2.94636,-2.1987 4.7663,-4.9535 4.0443,-6.1217 -0.72199,-1.1682 5.39533,-8.8729 13.59404,-17.1216 8.19872,-8.2487 14.90676,-15.8307 14.90676,-16.8488 0,-3.43 49.847418,-51.0641 71.255988,-68.0921 11.67385,-9.2851 24.41117,-19.5668 28.30515,-22.848 3.89398,-3.2813 7.74157,-5.966 8.55019,-5.966 2.56511,0 29.80821,-19.2489 30.86311,-21.8067 0.5559,-1.3478 2.94374,-2.4506 5.3063,-2.4506 2.36257,0 4.29557,-1.2054 4.29557,-2.6786 0,-1.4731 2.38784,-3.5538 5.3063,-4.6237 2.91846,-1.0698 8.71749,-4.0355 12.88672,-6.5904 22.98645,-14.086 32.89038,-19.7436 42.45038,-24.2494 5.83693,-2.7511 14.02378,-7.3832 18.19302,-10.2935 4.16923,-2.9104 24.63638,-13.231 45.48254,-22.9347 20.84617,-9.7037 38.90459,-19.1056 40.12983,-20.8931 1.22524,-1.7875 2.2486,-2.3287 2.27413,-1.2026 0.0243,1.126 12.66783,-3.4299 28.09399,-10.1241 41.00103,-17.7928 49.25763,-21.1573 49.40612,-20.1329 0.0734,0.5061 3.82565,-1.4992 8.33846,-4.4561 4.51281,-2.9569 8.20511,-4.7321 8.20511,-3.9449 0,0.7872 5.11679,-0.708 11.37064,-3.3227 22.87718,-9.5646 26.58946,-11.0436 29.56366,-11.7784 1.66769,-0.412 7.1256,-2.4758 12.12868,-4.5863 5.00308,-2.1105 10.11986,-4.1221 11.37063,-4.4703 1.25077,-0.3482 2.61525,-0.9051 3.03217,-1.2375 0.41693,-0.3323 3.86487,-1.1822 7.66211,-1.8885 3.79725,-0.7063 11.98411,-3.5517 18.19302,-6.323 6.20892,-2.7713 12.31231,-5.3326 13.56308,-5.6919 1.25077,-0.3592 2.95636,-0.9942 3.79021,-1.4111 0.83385,-0.4169 2.88056,-1.0992 4.54826,-1.5161 1.66769,-0.4169 3.37328,-1.033 3.79021,-1.3691 0.41692,-0.336 2.80476,-1.0315 5.3063,-1.5455 8.22651,-1.6903 49.96479,-14.5667 53.06297,-16.3701 1.66769,-0.9708 5.64708,-2.1717 8.84311,-2.6688 6.5604,-1.0203 67.5451,-18.281103 74.54156,-21.097803 5.23249,-2.1066 7.97584,-2.9384 17.43497,-5.2861 10.00355,-2.483 14.37564,-3.6062 47.75668,-12.2686 16.67693,-4.3277 33.05065,-8.4611 36.38603,-9.1854 26.94553,-5.851 37.00885,-8.2306 40.93429,-9.6796 2.50154,-0.9234 7.95945,-2.1568 12.12864,-2.741 4.1693,-0.5843 17.1318,-3.19 28.8057,-5.7905 26.4574,-5.8939 29.8029,-6.5137 48.5147,-8.9873 8.3384,-1.1023 24.0299,-3.2266 34.86986,-4.7206 35.8055,-4.935 84.0706,-9.7281 137.9637,-13.7007001 13.3416,-0.9835 29.0331,-2.1711 34.87,-2.6392 72.3761,-5.8046 228.6206,-7.89270002 275.9275,-3.6876 12.5077,1.1118 30.2458,2.6961 39.4182,3.5207 9.1723,0.8245 28.9009,3.4839001 43.8413,5.9096001 14.9404,2.4258 27.7412,3.8337 28.4462,3.1287 0.705,-0.7051 3.5041,-0.093 6.2202,1.361 2.716,1.4535 11.0646,3.3666 18.5523,4.2511 7.4878,0.8845 27.5073,5.0616 44.4879,9.2824 16.9805,4.2208 34.0364,8.2745 37.9021,9.0081 3.8656,0.7336 10.4396,2.6603 14.6088,4.2816 4.1693,1.6213 8.6374,3.0105 9.9292,3.087 1.2919,0.076 13.5721,3.9376 27.2896,8.5801 13.7174,4.6426 25.6229,8.6101 26.4568,8.8167 0.8338,0.2066 5.6095,2.1024 10.6126,4.2129 5.0031,2.1105 10.461,4.1173 12.1287,4.4596 1.6677,0.3423 7.4524,2.9635 12.8549,5.8247 5.4025,2.8613 10.1782,5.0485 10.6126,4.8605 0.4344,-0.188 4.201,1.0873 8.3702,2.8341 54.0126,22.629803 113.2737,47.749103 123.3946,52.303703 6.9962,3.1485 13.5523,5.7245 14.5692,5.7245 1.0168,0 7.635,2.636 14.7071,5.8577 7.0721,3.2217 14.843,6.2917 17.2686,6.8223 2.4257,0.5306 5.2153,2.0565 6.1992,3.3908 0.9839,1.3343 4.7362,2.648 8.3385,2.9194 3.6022,0.2713 6.5495,1.3166 6.5495,2.3227 0,1.0062 8.528,5.8326 18.9511,10.7254 10.4231,4.8928 20.3155,9.985 21.9832,11.3161 9.1381,7.2935 87.2546,56.7072 89.6465,56.7072 1.5591,0 2.8347,1.3645 2.8347,3.0322 0,1.6677 2.0467,3.0322 4.5483,3.0322 2.5015,0 4.5482,1.3644 4.5482,3.0321 0,1.6677 2.0467,3.0322 4.5483,3.0322 2.5015,0 4.5482,1.3645 4.5482,3.0322 0,1.6677 2.0467,3.0321 4.5483,3.0321 2.5015,0 4.5482,1.3645 4.5482,3.0322 0,1.6677 1.4241,3.0322 3.1645,3.0322 1.7405,0 6.7019,3.28 11.0253,7.2889 4.3234,4.0089 11.4274,9.1089 15.7865,11.3335 4.3592,2.2245 14.7019,9.5192 22.9837,16.2104 8.2818,6.6912 16.4687,13.2037 18.193,14.4723 1.7244,1.2686 7.9109,6.3636 13.7478,11.3222 5.8369,4.9587 11.9899,9.0375 13.6734,9.0642 1.6835,0.027 4.7651,2.7773 6.8481,6.1127 2.083,3.3354 5.0352,6.0644 6.5605,6.0644 1.5252,0 6.7847,3.7523 11.6877,8.3384 4.903,4.5862 13.8474,12.4319 19.8765,17.435 6.0292,5.0031 14.6284,12.8488 19.1095,17.435 4.4811,4.5861 9.2899,8.3384 10.6863,8.3384 1.3964,0 7.4698,5.4579 13.4964,12.1287 6.0266,6.6708 11.8892,12.1287 13.0279,12.1287 3.8369,0 94.0485,92.4598 114.4011,117.2521 5.2443,6.3883 13.0249,15.3674 17.2902,19.9536 4.2653,4.5861 7.0167,8.3384 6.1143,8.3384 -1.405,0 3.7334,6.9974 17.2565,23.4994 1.7082,2.0846 2.5136,3.7902 1.7897,3.7902 -0.724,0 -0.2629,4.6702 1.0243,10.3783 1.4616,6.4802 1.1138,11.6052 -0.9257,13.6448 -1.7966,1.7965 -2.0505,3.2664 -0.5644,3.2664 3.8615,0 -8.3866,8.8839 -12.4082,9.0001 -1.8362,0.053 -10.0231,-3.4389 -18.193,-7.7597 z M 54.280092,593.77566 c 29.31955,-6.0652 89.884098,-24.1435 108.999658,-32.536 6.78635,-2.9795 13.03691,-8.9155 16.61662,-15.7803 9.17647,-17.5979 61.95398,-68.5594 61.95398,-59.8222 0,0.6671 -4.8966,6.4661 -10.88133,12.8867 -31.85926,34.1797 -45.22939,51.3653 -41.57542,53.44 2.91697,1.6563 98.53122,-32.8354 145.69597,-52.558 3.75231,-1.5691 9.89246,-4.0475 13.64477,-5.5075 3.75231,-1.4601 10.23357,-4.0043 14.4028,-5.654 4.16924,-1.6496 8.26267,-2.9534 9.09651,-2.8973 0.83385,0.056 4.92728,-1.7859 9.09651,-4.0932 4.16924,-2.3073 8.26266,-4.2655 9.09651,-4.3516 5.84596,-0.6032 41.37096,-15.4673 43.162,-18.0595 1.22524,-1.7732 2.24859,-2.2252 2.27413,-1.0044 0.0373,1.7873 44.45533,-12.7996 63.72198,-20.9263 2.50154,-1.0552 6.20285,-2.2664 8.22513,-2.6916 4.35632,-0.9161 42.84086,-13.167 49.3861,-15.7213 5.66679,-2.2115 5.38125,-2.1314 18.19302,-5.1006 5.83692,-1.3527 11.97707,-3.2878 13.64476,-4.3003 1.66769,-1.0124 6.40934,-2.3042 10.53703,-2.8707 4.12767,-0.5665 9.24445,-2.4737 11.37064,-4.2383 2.12616,-1.7645 3.86577,-2.5127 3.86577,-1.6625 0,0.8501 20.80827,-3.7982 46.24059,-10.3296 25.43233,-6.5314 49.65178,-12.4219 53.82102,-13.0899 4.16923,-0.668 13.72056,-2.7218 21.22519,-4.5638 16.72238,-4.1046 22.76777,-5.3422 36.38603,-7.4489 5.83693,-0.9029 17.43498,-3.0484 25.77345,-4.7676 17.81211,-3.6726 26.98176,-5.4142 39.4182,-7.4869 l 18.19302,-3.0322 c 16.50349,-2.7506 30.19256,-4.897 39.41821,-6.1807 5.0031,-0.6961 13.8722,-2.0209 19.7091,-2.9439 5.8369,-0.9229 15.3883,-2.3582 21.2252,-3.1893 5.8369,-0.8312 15.3883,-2.1941 21.2252,-3.0287 5.8369,-0.8346 16.0705,-2.1733 22.7413,-2.9749 6.6707,-0.8017 16.9043,-2.1352 22.74116,-2.9635 13.3267,-1.8912 33.8503,-4.3915 51.5469,-6.2797 7.5046,-0.8007 19.7849,-2.1579 27.2895,-3.0161 47.2141,-5.3987 107.1782,-8.9329 203.1554,-11.9738 148.6599,-4.7099 143.8421,-4.2892 166.6484,-14.5509 7.5711,-3.4066 14.7891,-6.4759 16.0398,-6.8205 1.2508,-0.3447 2.9564,-0.9679 3.7903,-1.3848 0.8338,-0.4169 2.8805,-1.0991 4.5482,-1.5161 1.6677,-0.4169 3.3733,-1.0207 3.7902,-1.3417 0.4169,-0.321 5.4086,-1.1859 11.0925,-1.9221 5.684,-0.7361 11.9496,-2.6789 13.9238,-4.3173 1.9741,-1.6384 4.2046,-2.3636 4.9566,-1.6115 0.752,0.752 10.1778,-0.7553 20.9462,-3.3496 10.7684,-2.5943 24.3545,-5.4105 30.1915,-6.2582 5.8369,-0.8478 12.4482,-2.5494 14.6918,-3.7814 2.2437,-1.2321 7.7016,-1.5341 12.1287,-0.6711 7.0759,1.3793 6.2158,2.0677 -7.1114,5.6912 -8.3385,2.2672 -17.8898,4.7235 -21.2252,5.4586 -22.0151,4.8517 -92.6147,23.9564 -95.7973,25.9234 -3.1116,1.923 -3.1253,3.2971 -0.07,6.9789 6.0904,7.3386 22.4682,9.7284 97.8929,14.2843 101.7281,6.1446 106.3286,5.9426 181.4202,-7.9672 4.1693,-0.7723 13.0384,-2.1219 19.7091,-2.9992 6.6708,-0.8773 16.9044,-2.8459 22.7413,-4.3746 27.17,-7.1159 51.0708,-10.6063 63.6756,-9.299 6.8174,0.7071 -27.6102,9.3209 -54.5791,13.6557 -5.8369,0.9382 -14.0238,2.404 -18.193,3.2573 -4.1692,0.8533 -10.8388,2.1686 -14.8213,2.9229 -15.4207,2.9207 -39.5323,10.8692 -41.211,13.5854 -1.9436,3.1448 17.9985,9.2887 34.7288,10.6996 5.88,0.4958 13.1376,1.8939 16.128,3.1068 2.9904,1.2129 6.276,1.3664 7.3014,0.3409 1.0254,-1.0253 3.3544,-0.6607 5.1755,0.8103 1.8212,1.471 8.7691,3.4679 15.4399,4.4375 6.6707,0.9695 15.5398,2.4788 19.7091,3.354 35.9682,7.5499 102.4197,9.7491 122.8028,4.0641 5.0031,-1.3954 15.9189,-3.362 24.2574,-4.3702 8.3385,-1.0082 17.2076,-2.727 19.7091,-3.8194 2.5016,-1.0925 12.0529,-1.2723 21.2252,-0.3996 15.2744,1.4534 15.9119,1.7997 7.5804,4.1183 -5.0031,1.3923 -15.3904,3.0041 -23.083,3.5817 -32.52,2.4417 -63.7341,9.8291 -63.8532,15.112 -0.068,3.013 17.7244,10.269 29.325,11.9593 3.3354,0.486 8.1111,1.7235 10.6126,2.75 14.4749,5.9402 31.4756,10.921 32.7898,9.6067 0.8372,-0.8372 3.0122,-0.3094 4.8333,1.1729 1.8212,1.4823 23.7783,9.1773 48.7937,17.1002 l 45.4826,14.405 55.5731,1.3598 c 58.3679,1.4281 77.5191,-0.1498 75.5331,-6.2229 -1.3507,-4.1306 -27.5021,-18.6838 -47.7216,-26.5571 -20.5297,-7.994 -85.7333,-35.8413 -91.2557,-38.9737 -5.5079,-3.1242 -87.5592,-36.9786 -92.1905,-38.0378 -1.6677,-0.3815 -6.4434,-2.0731 -10.6126,-3.7591 -28.5158,-11.532 -51.3783,-18.3836 -106.126,-31.8048 -34.1877,-8.381 -65.5706,-15.825 -69.7399,-16.5423 -4.1692,-0.7173 -9.8592,-1.9902 -12.6444,-2.8287 -4.8912,-1.4724 -10.7398,-2.7433 -26.7737,-5.8178 -4.1692,-0.7994 -10.9916,-2.1746 -15.1608,-3.0558 -4.1692,-0.8812 -12.3561,-2.3393 -18.193,-3.2401 -5.8369,-0.9009 -12.8914,-2.298 -15.6767,-3.1048 -2.7852,-0.8067 -8.2431,-2.0687 -12.1287,-2.8043 -3.8855,-0.7356 -10.4758,-2.0356 -14.645,-2.8889 -4.1692,-0.8533 -13.0383,-2.3112 -19.7091,-3.2397 -6.6708,-0.9285 -20.3155,-3.1297 -30.3217,-4.8917 -10.0062,-1.7619 -21.6042,-3.6733 -25.7734,-4.2475 -4.1693,-0.5743 -17.814,-2.5501 -30.3217,-4.3908 -12.5077,-1.8407 -27.517,-3.9333 -33.3539,-4.6501 -5.8369,-0.7169 -21.5284,-2.6539 -34.87,-4.3045 -33.3214,-4.1224 -45.8918,-5.4291 -87.9329,-9.1406 -20.0123,-1.7668 -43.2084,-3.8268 -51.5469,-4.5778 -68.06,-6.1299 -277.574,-4.3487 -351.7317,2.9902 -6.6707,0.6602 -20.3155,1.9759 -30.3217,2.9238 -10.00606,0.9478 -22.96856,2.4001 -28.80556,3.2273 -5.8369,0.8271 -15.3882,2.1619 -21.2252,2.9662 -5.8369,0.8044 -13.9691,2.1288 -18.0716,2.9432 -4.1025,0.8144 -12.3439,2.2094 -18.3144,3.0999 -5.9705,0.8905 -14.2119,2.2922 -18.3144,3.1149 -4.1025,0.8227 -11.55247,2.2116 -16.55555,3.0864 -40.24602,7.0372 -128.67898,28.0899 -189.92999,45.2155 -81.70148,22.8435 -156.78668,46.3713 -162.55975,50.9376 -2.08461,1.6489 -3.79021,1.9816 -3.79021,0.7393 0,-1.2422 -2.04671,-0.56 -4.54825,1.5161 -2.50154,2.0761 -4.54826,2.6525 -4.54826,1.2809 0,-1.3715 -1.63737,-0.8564 -3.6386,1.1449 -2.00123,2.0012 -5.32361,3.6386 -7.38303,3.6386 -2.05945,0 -7.58558,1.5912 -12.28029,3.5361 -4.69474,1.9449 -9.44551,3.6505 -10.55732,3.7902 -1.11177,0.1398 -3.04478,1.2774 -4.29555,2.5282 -1.25077,1.2508 -4.22836,2.2741 -6.61683,2.2741 -2.38847,0 -8.64232,1.9007 -13.89744,4.2237 -11.01011,4.8669 -20.36211,8.4911 -24.71561,9.578 -1.66769,0.4164 -7.1256,2.4655 -12.12868,4.5537 -5.00308,2.0883 -11.76624,4.3049 -15.02922,4.9259 -3.26301,0.6211 -6.6742,2.1181 -7.58042,3.3268 -0.90626,1.2086 -3.69443,2.6019 -6.19597,3.096 -2.50154,0.4941 -14.09959,4.4572 -25.77344,8.8068 -21.43802,7.9876 -34.57714,16.5528 -58.7136,38.2744 -9.18126,8.2627 -13.92076,10.7914 -15.48435,8.2615 -3.42728,-5.5455 -21.53472,0.3652 -56.39875,18.4098 -16.55957,8.5707 -35.56621,18.3152 -42.23698,21.6544 -6.67077,3.3393 -12.96347,7.3726 -13.98377,8.963 -1.0203,1.5904 -3.06701,2.9214 -4.54825,2.9578 -3.26912,0.08 -26.34319,11.6114 -28.46661,14.226 -0.83385,1.0268 -6.29175,4.2708 -12.12868,7.209 -5.83693,2.9382 -14.70602,8.0135 -19.7091,11.2784 -5.00308,3.265 -13.189938,8.2102 -18.193018,10.9895 -25.12393,13.9567 -80.3525,62.5658 -80.3525,70.7219 0,1.5405 2.38783,3.4251 5.3063,4.1877 2.91846,0.7627 5.49721,1.545 5.73056,1.7384 0.23335,0.1935 13.19587,-2.2902 28.80561,-5.5193 z m 2411.426708,-8.5317 c -6.3241,-28.1734 -48.825,-53.4849 -96.3142,-57.3599 -21.6599,-1.7674 -21.6901,-1.7592 -16.1749,4.3972 3.0391,3.3924 9.8614,7.9208 15.1609,10.0631 5.2994,2.1423 10.3176,4.6548 11.1514,5.5834 2.2623,2.5191 28.1321,14.9456 33.2355,15.9646 2.4364,0.4864 7.1849,3.325 10.5522,6.3081 3.3673,2.983 9.2197,6.201 13.0051,7.1511 3.7856,0.9501 6.8828,2.7961 6.8828,4.1022 0,1.3061 3.4112,3.2309 7.5804,4.2773 4.1692,1.0464 7.5804,3.241 7.5804,4.8769 0,1.6359 2.0727,2.9744 4.606,2.9744 3.4571,0 4.1392,-2.08 2.7344,-8.3384 z M 54.910222,521.71606 c 13.59548,-9.508 25.40129,-18.1938 26.23513,-19.3018 0.83385,-1.1079 7.37173,-4.9833 14.52862,-8.612 7.156888,-3.6286 15.684868,-9.2698 18.951058,-12.5359 3.26619,-3.2662 5.93853,-5.2536 5.93853,-4.4164 0,0.8372 14.03946,-7.9673 31.1988,-19.5656 36.28819,-24.5279 45.35714,-36.757 44.55815,-60.085 -0.71228,-20.7964 -0.1594,-32.2471 1.47792,-30.6098 1.41845,1.4184 5.33848,38.7123 5.12875,48.7932 -0.17447,8.3862 5.46492,9.5533 12.81158,2.6515 3.73634,-3.5101 8.41099,-6.382 10.38813,-6.382 1.97713,0 3.59478,-1.041 3.59478,-2.3132 0,-2.4085 7.74474,-6.9763 21.98323,-12.9656 4.58616,-1.9291 8.33847,-4.7385 8.33847,-6.2431 0,-1.5045 1.02336,-2.4705 2.27413,-2.1465 1.25077,0.3239 23.42351,-10.1852 49.27276,-23.3535 25.84924,-13.1684 51.09206,-25.4777 56.09514,-27.3541 33.50156,-12.5647 63.3272,-27.7232 72.96537,-37.0837 14.81309,-14.3863 19.44334,-26.545 21.43168,-56.278 0.91235,-13.6428 2.21897,-25.3737 2.90364,-26.0685 0.68466,-0.6949 1.24483,16.7022 1.24483,38.6601 0,40.6466 1.72582,46.0814 11.52224,36.285 2.00123,-2.0012 3.6386,-2.6355 3.6386,-1.4094 0,1.2261 3.07008,0.5423 6.82239,-1.5194 3.75231,-2.0618 9.31331,-4.1637 12.35782,-4.6709 3.04448,-0.5073 8.50238,-2.5551 12.12868,-4.5507 3.62626,-1.9957 8.40538,-3.9301 10.62023,-4.2988 2.21485,-0.3687 6.30828,-1.6637 9.09651,-2.8779 2.78823,-1.2142 6.88166,-2.5787 9.09651,-3.0322 2.21485,-0.4535 6.30828,-1.8169 9.09651,-3.0297 2.78823,-1.2128 7.79847,-2.7068 11.13385,-3.3199 3.33539,-0.6131 12.88672,-3.243 21.22519,-5.8441 19.90938,-6.2107 20.96254,-6.5139 22.74127,-6.5475 0.83385,-0.016 6.63288,-2.1665 12.88673,-4.7796 6.25385,-2.613 11.37063,-4.1721 11.37063,-3.4646 0,0.7075 3.75231,-0.1656 8.33847,-1.9401 4.58616,-1.7745 10.78531,-3.7204 13.77591,-4.3243 5.90493,-1.1924 20.53279,-5.8113 40.80315,-12.884 10.47357,-3.6544 12.97319,-5.9807 13.34855,-12.423 0.57208,-9.8182 0.59785,-9.9682 5.53222,-32.1838 2.22249,-10.0062 4.32251,-20.2398 4.66675,-22.7413 0.34425,-2.5016 1.48167,-6.595 2.52768,-9.0965 1.04598,-2.5016 2.49851,-7.9595 3.22784,-12.1287 0.72932,-4.1692 1.42745,-8.0021 1.55138,-8.5174 0.12401,-0.5154 1.59349,-0.091 3.26567,0.942 1.97346,1.2197 2.01922,3.7872 0.13039,7.3164 -1.60047,2.9905 -3.39049,10.1213 -3.97779,15.8461 -0.5873,5.7249 -1.88658,11.7337 -2.88729,13.3529 -1.66533,2.6945 -3.18951,10.0541 -6.67162,32.2138 -2.18095,13.8794 6.55855,18.6569 30.70017,16.7827 28.40646,-2.2054 46.60221,-5.0735 52.62031,-8.2942 2.79648,-1.4967 5.7523,-2.0534 6.56846,-1.2372 1.23664,1.2366 40.11215,-4.0833 69.0533,-9.4496 4.16924,-0.7731 13.03833,-2.1161 19.70911,-2.9846 6.6708,-0.8684 20.3155,-3.0062 30.3217,-4.7506 10.0062,-1.7444 20.2397,-3.1724 22.7413,-3.1734 2.5015,-0.001 14.7818,-1.2157 27.2895,-2.6994 34.92916,-4.1432 73.54576,-7.2853 130.38326,-10.609 17.5108,-1.024 40.0246,-2.4177 50.0308,-3.0972 27.7755,-1.8863 123.6179,-1.7865 157.6728,0.1641 74.1691,4.2482 106.535,6.5412 125.8351,8.9149 5.8369,0.7178 28.1184,3.502 49.5145,6.1869 21.396,2.6849 44.7273,5.4711 51.8473,6.1916 12.3908,1.2538 31.7131,3.3043 57.8271,6.1367 6.6708,0.7235 18.2688,1.967 25.7734,2.7633 16.2071,1.7197 40.1183,4.5929 53.8176,6.4668 5.4182,0.7411 14.2873,1.9559 19.7091,2.6995 5.4219,0.7436 18.7271,2.8703 29.5671,4.7259 10.84,1.8557 23.1203,3.8324 27.2895,4.3926 4.1693,0.5603 10.9916,1.8878 15.1609,2.95 4.1692,1.0622 10.9916,2.3656 15.1608,2.8963 4.1693,0.5307 10.9916,1.8215 15.1609,2.8685 4.1692,1.047 10.9916,2.5441 15.1608,3.327 4.1693,0.783 18.4963,4.2599 31.8378,7.7265 13.3416,3.4667 26.3041,6.7288 28.8056,7.2491 2.5016,0.5203 6.595,1.7289 9.0965,2.6857 22.7513,8.7021 66.4571,20.3966 76.2283,20.3966 10.3593,0 13.7698,-1.8061 23.1578,-12.2637 6.0551,-6.7451 15.7299,-15.1812 21.4994,-18.747 10.4048,-6.4305 24.7647,-9.898 24.5436,-5.9265 -0.1203,2.1622 -20.678,17.4555 -32.4596,24.1473 -6.8241,3.876 -8.5405,10.9037 -4.949,20.263 2.0248,5.2765 26.0823,18.6153 37.9425,21.0373 11.5656,2.3619 48.716,13.5606 60.2741,18.1691 9.6806,3.8599 11.3167,3.7213 17.771,-1.505 8.8633,-7.1771 13.0424,-7.3295 12.3426,-0.45 -1.1512,11.3172 2.2535,15.1828 15.3195,17.3934 0.8338,0.141 4.245,1.7792 7.5804,3.6402 3.3354,1.8611 6.7466,3.3922 7.5804,3.4024 3.2916,0.04 35.9616,13.8397 49.2728,20.812 4.5861,2.4022 8.3593,3.2671 8.3848,1.9221 0.024,-1.3451 1.0489,-1.0811 2.2742,0.5866 3.5774,4.8693 35.2184,18.9191 39.3718,17.4825 5.9245,-2.0492 4.4626,-14.0624 -3.0877,-25.3726 -6.625,-9.924 -56.2669,-45.5838 -60.2702,-43.2944 -1.076,0.6154 -2.7388,-0.92 -3.695,-3.412 -0.9563,-2.4919 -3.8282,-4.5308 -6.3821,-4.5308 -2.5539,0 -4.6434,-1.1496 -4.6434,-2.5547 0,-1.4051 -4.7757,-5.1266 -10.6126,-8.27 -5.8369,-3.1434 -10.6126,-6.7694 -10.6126,-8.0579 0,-1.2884 -1.933,-2.3426 -4.2956,-2.3426 -2.3625,0 -4.7504,-1.0234 -5.3063,-2.2741 -0.9322,-2.0976 -56.8782,-40.0992 -70.7506,-48.0577 -3.3354,-1.9135 -18.2644,-10.5886 -33.1756,-19.2779 -32.5406,-18.9627 -59.9978,-32.933 -86.5951,-44.06 -10.84,-4.5349 -25.167,-10.6916 -31.8378,-13.6814 -19.9744,-8.9527 -36.1965,-15.6785 -39.4182,-16.3431 -1.6677,-0.3441 -6.4434,-2.4961 -10.6126,-4.7823 -4.1692,-2.2862 -7.5804,-3.8 -7.5804,-3.364 0,0.436 -4.0934,-0.8678 -9.0965,-2.8973 -5.0031,-2.0296 -12.1666,-4.8847 -15.9189,-6.3448 -3.7523,-1.46 -9.8925,-3.902 -13.6448,-5.4267 -66.5511,-27.041703 -90.5693,-36.113603 -133.3398,-50.363703 -48.915,-16.2974 -74.7944,-23.8884 -92.5009,-27.1323 -4.6169,-0.8459 -11.8056,-2.259 -15.9748,-3.1402 -4.1693,-0.8812 -12.3561,-2.3467 -18.193,-3.2567 -5.837,-0.9099 -14.0238,-2.2322 -18.1931,-2.9384 -4.1692,-0.7062 -18.6091,-2.1284 -32.0886,-3.1604 l -24.5082,-1.8764 -8.075,16.2404 c -10.9178,21.9578 -13.8288,26.0731 -27.1314,38.3558 -6.2979,5.815 -10.7134,11.3102 -9.8121,12.2114 1.9067,1.9068 -13.5486,18.736103 -17.2066,18.736103 -4.5103,0 -2.5487,-5.695303 4.771,-13.851503 22.6574,-25.2468 41.2789,-52.7672 41.2789,-61.0053 0,-12.4672 -10.2402,-13.9049 -101.5777,-14.2611 -93.6874,-0.3654 -126.9888,0.7302 -137.1048,4.5106 -6.4548,2.4123 -27.8729,39.0713 -22.8858,39.1712 1.2747,0.025 0.8478,1.0489 -0.9489,2.2741 -1.7967,1.2252 -9.8568,14.7971 -17.9114,30.1598 -8.0546,15.362603 -15.8611,27.180303 -17.3477,26.261503 -1.4867,-0.9188 -1.1052,-3.5958 0.8477,-5.9488 1.9528,-2.3531 2.3602,-4.2992 0.9052,-4.3248 -1.4549,-0.025 -1.1732,-1.0489 0.626,-2.2741 1.7993,-1.2252 8.4703,-13.143503 14.8245,-26.485003 18.8677,-39.6152 17.4381,-62.3108 -3.9096,-62.0666 -13.1081,0.1498 -111.2468,7.887 -132.4409,10.4415 -83.33696,10.0443 -217.86,36.23 -270.62109,52.6779 -5.42,1.6897 -9.85455,2.5189 -9.85455,1.8427 0,-0.6761 -3.75231,0.2225 -8.33846,1.997 -4.58616,1.7745 -10.38519,3.7481 -12.88673,4.3858 -2.50154,0.6377 -10.00616,2.6069 -16.67693,4.3761 -6.67077,1.7691 -15.40985,3.9201 -19.42014,4.78 -4.01031,0.8599 -9.80934,2.910903 -12.88672,4.557903 -3.07741,1.6469 -5.59526,2.298 -5.59526,1.4468 0,-0.8513 -3.75231,-0.096 -8.33847,1.6786 -4.58616,1.7745 -10.50522,3.6665 -13.15352,4.2045 -2.64827,0.538 -16.97527,5.0483 -31.83778,10.023 -14.86249,4.9747 -38.96963,12.6852 -53.57141,17.1344 -14.60175,4.4492 -30.29322,10.0429 -34.86995,12.4303 -4.5767,2.3875 -10.36799,4.3956 -12.86953,4.4624 -2.50154,0.067 -10.00616,2.7579 -16.67693,5.9802 -6.67078,3.2222 -14.2891,5.9048 -16.92961,5.9614 -2.64053,0.057 -5.75008,1.052 -6.91016,2.2121 -1.16005,1.1601 -3.9434,2.3784 -6.18517,2.7074 -2.24178,0.3291 -9.36577,2.9302 -15.83111,5.7804 -6.46535,2.8502 -14.48413,6.225 -17.81952,7.4995 -6.8712,2.6256 -3.74203,1.2543 -72.77207,31.8921 -122.89978,54.547 -230.7666,125.3386 -296.945678,194.8815 -31.64169,33.25 -44.61032,54.166 -56.39465,90.9543 -8.9052,27.8002 -10.71261,37.1325 -7.19152,37.1325 0.99684,0 12.93601,-7.7793 26.53148,-17.2873 z m 2335.371078,-4.1624 c 3.0874,-4.9954 -9.9267,-17.0392 -35.0087,-32.3986 -12.5077,-7.6593 -29.1176,-17.9413 -36.911,-22.8489 -7.7934,-4.9076 -15.0056,-8.7123 -16.0272,-8.4549 -1.0216,0.2574 -3.9528,-1.6275 -6.5139,-4.1886 -2.5612,-2.5611 -6.4921,-4.6566 -8.7356,-4.6566 -2.2434,0 -4.6455,-1.7056 -5.3379,-3.7902 -2.4325,-7.3232 -123.5654,-6.5268 -123.5654,0.8124 0,2.1767 7.3832,5.774 15.9189,7.756 1.2508,0.2905 2.9564,0.8692 3.7902,1.2862 0.8339,0.4169 2.5395,0.9769 3.7902,1.2445 1.2508,0.2674 5.2411,2.1365 8.8674,4.1533 3.6263,2.0167 9.0842,4.0906 12.1287,4.6087 3.0445,0.518 9.9556,3.2818 15.3582,6.1417 5.4025,2.8599 10.5123,5.1865 11.3551,5.1703 0.8428,-0.015 7.3384,2.5489 14.4346,5.7005 68.4583,30.4031 72.8287,31.9061 102.3512,35.1983 24.8209,2.7679 26.9792,3.1693 29.2493,5.4393 3.2092,3.2093 12.606,2.467 14.8559,-1.1734 z m -59.266,-88.8533 c 0,-0.6296 -2.3878,-3.0174 -5.3063,-5.3063 -4.8092,-3.7716 -4.9165,-3.6643 -1.1448,1.1449 3.9611,5.0508 6.4511,6.657 6.4511,4.1614 z m -16.6669,-13.9997 c -1.0251,-1.6587 -4.8579,-4.5862 -8.5174,-6.5055 -6.6073,-3.4655 -6.6134,-3.4445 -0.8772,3.0158 5.7869,6.5176 12.8986,9.1593 9.3946,3.4897 z m -28.431,-27.8454 c -9.2507,-8.2655 -18.5777,-11.2752 -18.5777,-5.9947 0,3.3486 10.3588,12.6534 18.972,17.0414 10.6782,5.4402 10.4351,-1.3707 -0.3943,-11.0467 z"
     id="path1455"
     inkscape:connector-curvature="0" />
  <path
     style="fill:#2d2815;fill-opacity:1;stroke:none;stroke-width:3.03216982;stroke-miterlimit:4;stroke-dasharray:none"
     d="m 1787.3274,202.15816 c 7.0937,-12.1353 48.2567,-56.3188 50.4875,-54.1923 0.9396,0.8957 -3.463,9.7648 -9.7835,19.7091 -17.6591,27.7835 -55.5535,59.8865 -40.704,34.4832 z"
     id="path1457"
     inkscape:connector-curvature="0" />
  <path
     style="fill:#2d2815;fill-opacity:1;stroke:none;stroke-width:3.03216982;stroke-miterlimit:4;stroke-dasharray:none"
     d="m 1563.8763,166.62846 c 0,-8.8727 69.3184,-92.289903 69.6243,-83.785403 0.064,1.7673 -5.6834,10.0868 -12.7711,18.487803 -7.0877,8.4009 -21.0736,27.0523 -31.0797,41.4476 -18.5369,26.668 -25.7735,33.3645 -25.7735,23.85 z"
     id="path1459"
     inkscape:connector-curvature="0" />
  <path
     style="fill:#2d2815;fill-opacity:1;stroke:none;stroke-width:3.03216982;stroke-miterlimit:4;stroke-dasharray:none"
     d="m 2475.2557,625.42016 c -9.6932,-5.8369 -18.0176,-10.6126 -18.4987,-10.6126 -0.4811,0 -12.5621,-8.7134 -26.8466,-19.3631 -14.2846,-10.6497 -37.9452,-25.5704 -52.579,-33.1571 -14.6339,-7.5867 -36.8406,-19.4171 -49.3483,-26.2897 -80.6792,-44.3308 -156.866,-76.0879 -265.3148,-110.5917 -143.1313,-45.5384 -254.6062,-70.3734 -407.8269,-90.8579 -122.3968,-16.3636 -154.5284,-18.428 -281.9918,-18.1169 -194.141,0.4737 -321.8087,10.9231 -518.50095,42.4386 -121.16293,19.4135 -270.44775,59.3632 -403.27858,107.92 -55.02949,20.1163 -168.3898,64.7695 -183.44627,72.2605 -6.67078,3.3188 -13.79221,6.0305 -15.82542,6.0258 -2.0332,-0.01 -24.32392,7.4795 -49.53494,16.6314 -48.31662,17.5394 -141.438188,45.2512 -162.734028,48.4274 -16.71572,2.4931 -33.1447303,-4.3614 -37.5047603,-15.6478 -2.50885001,-6.4944 -2.19198001,-12.042 1.35063,-23.6459 2.54568,-8.3385 5.4513,-20.6188 6.45693,-27.2896 7.9940803,-53.0278 14.3119503,-76.3265 22.0354403,-81.2612 2.08734,-1.3336 3.82183,-4.0626 3.85444,-6.0643 0.11349,-6.9677 71.620628,-80.6351 100.643108,-103.6836 10.48757,-8.3288 20.91512,-16.9005 23.17233,-19.0483 8.60073,-8.1836 73.22631,-49.3623 108.08627,-68.8713 39.57524,-22.1479 99.41377,-51.3887 142.51197,-69.6402 15.00925,-6.3563 34.15825,-14.6901 42.55335,-18.5196 8.39508,-3.8296 20.67537,-8.9397 27.28953,-11.3558 6.61413,-2.4161 21.57704,-8.0896 33.2509,-12.6078 11.67385,-4.5181 30.09428,-10.9699 40.93429,-14.3372 10.84001,-3.3674 21.15175,-7.2889 22.91502,-8.7146 1.76323,-1.4256 11.31457,-4.6807 21.22518,-7.2335 9.91059,-2.5528 28.25285,-8.0194 40.76055,-12.1481 44.55358,-14.706803 153.88859,-44.766103 216.80014,-59.604403 27.43868,-6.4717 32.72371,-7.6056 56.09511,-12.0357 9.1723,-1.7386 20.7704,-4.3621 25.7735,-5.8301 5.0031,-1.4679 16.6011,-3.5194 25.7734,-4.5588 9.1723,-1.0394 26.2283,-3.2449 37.90206,-4.9012 22.9529,-3.2566 37.0144,-4.9287 60.6434,-7.2113 45.9367,-4.4376 55.5205,-5.3106 65.1917,-5.9387001 5.8369,-0.379 35.1732,-2.4136 65.1916,-4.5213 61.8355,-4.3417 223.2315,-5.82160002 262.6338,-2.4082 32.785,2.8401 56.6473,5.3336 66.0768,6.9048 4.0153,0.6691001 13.5666,2.0711001 21.2252,3.1157001 19.4795,2.6568 24.9592,3.5573 33.6337,5.527 4.1692,0.9467 12.4737,2.4005 18.4543,3.2305 5.9807,0.8301 12.8031,2.195 15.1609,3.0331 2.3578,0.8381 7.6981,2.1064 11.8674,2.8183 33.072,5.6473 140.6416,38.6883 163.0176,50.0723 2.8973,1.4741 8.679,4.1399 12.8482,5.9241 4.1692,1.7843 28.7298,12.311 54.5791,23.392803 25.8492,11.0818 64.0545,26.8813 84.9007,35.11 51.9418,20.5031 52.0851,20.567 79.565,35.4981 21.5601,11.7145 129.743,80.0937 136.5415,86.3038 2.1901,2.0005 6.0816,5.0018 8.6479,6.6695 27.5477,17.9017 86.8292,62.6254 98.2783,74.144 3.3941,3.4146 7.4875,6.245 9.0965,6.2897 1.6091,0.045 10.4302,6.9566 19.6025,15.3597 9.1723,8.4032 21.7894,19.6236 28.038,24.9342 23.6552,20.1044 118.4675,112.2395 134.1831,130.3942 3.3354,3.853 13.569,15.7862 22.7413,26.5181 9.1723,10.732 17.7003,19.9675 18.951,20.5234 1.2508,0.5559 2.2742,2.4063 2.2742,4.1119 0,1.7057 3.9621,8.1038 8.8047,14.2181 8.7608,11.0614 12.8352,28.7241 8.3137,36.0401 -1.2735,2.0606 -1.2919,3.7465 -0.041,3.7465 4.4783,0 -9.5962,8.9057 -14.2238,9.0001 -2.5996,0.053 -12.6574,-4.6793 -22.3505,-10.5162 z M 73.564932,589.22726 c 53.197388,-12.9469 92.936408,-28.0413 102.335728,-38.8712 4.58616,-5.2842 8.33847,-10.7886 8.33847,-12.232 0,-4.1819 49.62869,-53.6979 53.82101,-53.6989 5.48402,0 4.90436,1.2722 -6.44325,14.1548 -5.6284,6.3898 -18.02489,20.4481 -27.54776,31.2408 -9.52287,10.7927 -15.83611,20.1157 -14.02941,20.718 5.08947,1.6965 46.89657,-12.8999 121.55054,-42.4376 37.5231,-14.8465 71.63501,-28.4766 75.80424,-30.2892 4.16923,-1.8126 10.30938,-4.2949 13.64477,-5.5164 7.55592,-2.767 18.89766,-7.2966 28.80561,-11.5043 4.16923,-1.7706 17.13176,-6.2153 28.80561,-9.8771 11.67385,-3.6617 27.36533,-9.0561 34.86995,-11.9875 7.50462,-2.9314 27.97177,-9.6933 45.48255,-15.0264 17.51078,-5.3331 37.29569,-11.4584 43.96646,-13.6117 20.40935,-6.588 34.63451,-10.4451 80.3525,-21.7873 50.90555,-12.6291 46.58065,-11.6188 62.15948,-14.5196 6.67077,-1.2421 16.22211,-3.4439 21.22519,-4.8929 5.00308,-1.449 15.23665,-3.4493 22.74127,-4.4449 7.50462,-0.9957 15.69148,-2.3753 18.19302,-3.0656 2.50154,-0.6904 8.64169,-1.9724 13.64477,-2.8489 5.00308,-0.8765 12.5077,-2.2846 16.67693,-3.129 12.69366,-2.571 40.22607,-7.2606 53.18435,-9.0589 6.73754,-0.935 15.35348,-2.2976 19.14658,-3.0281 21.3688,-4.1153 133.54106,-19.0034 183.88736,-24.4065 66.2906,-7.1143 124.377,-10.2195 281.9918,-15.0749 69.5237,-2.1417 76.5573,-3.1167 99.3868,-13.7769 10.3773,-4.8456 24.3257,-9.667 30.9965,-10.7141 6.6708,-1.0472 13.1745,-2.5457 14.4528,-3.33 1.2783,-0.7844 6.054,-2.0551 10.6126,-2.8239 7.651,-1.2903 38.2204,-8.0022 59.8354,-13.1376 5.003,-1.1887 12.5077,-1.3051 16.6769,-0.2588 8.8317,2.2164 10.0474,1.8442 -69.7399,21.3541 -52.778,12.9055 -59.6321,15.4264 -56.3556,20.7279 5.915,9.5707 68.4439,15.9922 161.8057,16.617 70.0457,0.4688 73.3232,0.2147 124.9948,-9.6903 29.1846,-5.5944 53.84,-10.6395 54.7896,-11.2112 4.2906,-2.5832 34.4797,-5.6576 45.272,-4.6104 9.6916,0.9404 -13.4796,6.8222 -60.6434,15.3937 -75.3889,13.7012 -85.7717,22.6509 -33.3539,28.7505 15.1273,1.7603 15.6212,1.8491 60.6434,10.8945 51.2483,10.2963 121.429,9.0921 166.7694,-2.8618 4.1692,-1.0992 15.085,-1.3 24.2573,-0.4463 22.4346,2.0881 13.65,5.388 -24.8648,9.3403 -59.188,6.0739 -69.7251,16.549 -25.166,25.0182 3.3354,0.6339 8.1111,1.9362 10.6126,2.8939 6.4156,2.4562 26.9482,8.7226 31.2606,9.5405 1.9852,0.3765 25.441,7.9852 52.1241,16.9081 l 48.5147,16.2236 52.5674,1.295 c 54.3217,1.3382 79.332,-0.4825 79.332,-5.7753 0,-1.6811 -15.3504,-10.29 -34.1119,-19.1309 -34.0076,-16.0251 -158.294,-69.3936 -184.2043,-79.0972 -7.5047,-2.8106 -25.2429,-9.6533 -39.4182,-15.2061 -46.0676,-18.0455 -202.3473,-53.6575 -324.4422,-73.9318 -217.1211,-36.0536 -438.0527,-45.714 -627.6592,-27.4446 -128.89856,12.4198 -295.23625,50.0753 -454.82538,102.9631 -45.91008,15.2146 -150.18343,52.8025 -168.28542,60.6626 -3.33539,1.4483 -13.56896,4.9644 -22.74128,7.8137 -24.8774,7.7277 -36.88895,14.5688 -60.92096,34.6969 -15.75103,13.1923 -22.7917,17.379 -25.47746,15.15 -5.72886,-4.7546 -39.07879,9.2445 -95.53176,40.1007 -97.603488,53.3483 -129.940118,74.421 -159.946958,104.2322 -10.42308,10.3551 -18.95106,20.3183 -18.95106,22.1404 0,5.5976 27.0428,3.7341 59.12731,-4.0744 z M 2458.367,569.32586 c -14.8683,-20.8806 -50.5322,-37.3444 -87.9335,-40.5933 -21.0599,-1.8294 -22.2929,-1.6222 -16.6769,2.8029 8.5385,6.7279 47.0507,27.579 55.8622,30.2445 4.0411,1.2225 8.8168,3.4911 10.6126,5.0414 1.7958,1.5502 12.1342,7.9176 22.9742,14.1497 19.5248,11.2252 19.718,11.2662 20.6691,4.3845 0.528,-3.8206 -1.9504,-11.034 -5.5077,-16.0297 z M 56.375872,519.43976 c 12.22604,-8.4185 30.64034,-20.5435 40.92069,-26.9445 10.280338,-6.401 19.379888,-12.5412 20.221218,-13.6448 1.65294,-2.1683 5.2004,-4.3955 29.63045,-18.6031 19.67092,-11.4399 39.081,-28.6881 44.8601,-39.8637 2.69798,-5.2173 4.22006,-16.572 4.01626,-29.9612 -0.40775,-26.7868 2.2327,-30.6809 4.79605,-7.0731 1.05646,9.7296 2.63739,22.7123 3.5132,28.8503 l 1.59237,11.1601 20.27019,-12.6761 c 28.23172,-17.655 26.24436,-16.5831 86.90994,-46.8771 30.01848,-14.99 67.32769,-32.4357 82.90935,-38.7682 33.59407,-13.6529 56.35014,-32.0605 60.95922,-49.3106 1.63647,-6.1247 4.1955,-22.0516 5.68672,-35.3931 l 2.7113,-24.2574 0.42899,38.1548 c 0.23591,20.9851 1.16081,38.8866 2.05527,39.7811 1.77142,1.7714 21.22995,-4.268 24.59593,-7.634 1.14292,-1.143 3.80853,-2.0781 5.92356,-2.0781 2.11502,0 7.68664,-1.5912 12.38135,-3.5361 4.69473,-1.9449 9.55921,-3.821 10.80998,-4.1692 1.25077,-0.3483 2.95637,-0.9743 3.79022,-1.3912 0.83384,-0.4169 2.88056,-1.0992 4.54825,-1.5161 1.66769,-0.4169 3.71441,-1.0991 4.54826,-1.5161 0.83384,-0.4169 2.88056,-1.0991 4.54825,-1.516 1.66769,-0.417 3.71441,-1.0992 4.54825,-1.5161 0.83385,-0.417 2.88057,-1.0992 4.54826,-1.5161 l 4.54825,-1.1371 c 0.83385,-0.2084 2.1566,-0.5143 2.93942,-0.6796 0.78285,-0.1653 12.03978,-3.6567 25.0154,-7.7585 12.97566,-4.1019 42.0125,-12.8838 64.52636,-19.5154 66.26492,-19.5186 59.54724,-15.8234 61.67409,-33.9254 1.02233,-8.7013 2.354,-17.8671 2.95928,-20.3687 0.60528,-2.5015 2.28143,-10.0061 3.72478,-16.6769 1.44337,-6.6708 2.79708,-12.8109 3.00827,-13.6448 0.21135,-0.8338 1.41008,-5.6095 2.66419,-10.6126 3.8987,-15.5535 4.67803,-17.1138 7.63546,-15.286 1.75477,1.0845 1.81839,4.9938 0.16343,10.0468 -1.48995,4.5492 -3.36516,12.3648 -4.16714,17.3679 -0.80198,5.0031 -2.91264,13.8632 -4.69034,19.6891 -4.64144,15.2109 -4.00131,31.993 1.39101,36.4683 3.2701,2.7139 10.59167,3.2807 25.0154,1.9365 23.62742,-2.202 39.71157,-4.6281 46.16563,-6.9638 2.50154,-0.9052 11.37064,-2.2881 19.7091,-3.0731 8.33847,-0.7849 26.7589,-3.3588 40.9343,-5.7198 14.17539,-2.361 31.23134,-5.0734 37.90215,-6.0277 6.6707,-0.9542 19.6333,-3.0743 28.8056,-4.7113 9.1723,-1.6371 24.8638,-3.6331 34.8699,-4.4357 10.0062,-0.8027 29.7911,-2.7757 43.9665,-4.3845 32.04126,-3.6365 57.20846,-5.5583 100.88686,-7.704 18.7246,-0.9199 37.2413,-2.3577 41.1484,-3.1953 8.4262,-1.8064 165.0804,-1.6674 186.9551,0.1658 8.3385,0.6989 28.8056,2.0717 45.4826,3.0507 43.2189,2.5372 68.4684,5.0921 106.1259,10.7385 10.0062,1.5003 33.2023,4.1806 51.5469,5.9561 18.3446,1.7756 38.1295,3.835 43.9665,4.5764 5.8369,0.7414 18.1172,2.1244 27.2895,3.0733 28.7847,2.9776 69.1914,7.6398 78.8364,9.0962 4.1692,0.6295 13.0929,1.9289 19.8305,2.8874 6.7375,0.9586 14.9244,2.2411 18.193,2.85 3.2687,0.6089 12.0832,2.111 19.5878,3.3381 15.3203,2.5051 22.3322,3.7582 33.3539,5.961 4.1692,0.8333 12.3561,2.283 18.193,3.2216 17.7721,2.8578 90.4184,21.8448 126.9603,33.1826 45.2199,14.0303 50.6266,13.8969 65.7251,-1.6218 13.921,-14.3084 30.2586,-25.0834 40.0138,-26.3898 12.3509,-1.654 8.0112,4.0763 -14.383,18.9918 -7.5046,4.9984 -14.6472,10.4563 -15.8724,12.1287 -4.0842,5.5746 -2.3904,13.352 4.2565,19.5445 7.1854,6.6942 13.7235,9.2329 67.2885,26.1274 34.5795,10.9064 36.2894,11.1503 44.4343,6.339 11.3475,-6.7031 12.0834,-6.4538 12.0834,4.0927 0,5.0031 1.4994,9.0965 3.332,9.0965 1.8325,0 7.6316,1.8868 12.8867,4.1928 5.2551,2.306 21.835,9.2495 36.8443,15.43 15.0092,6.1805 36.4292,15.8918 47.5998,21.5807 24.2721,12.361 32.7527,13.2587 32.7527,3.4668 0,-12.1967 -14.2595,-28.3473 -39.0925,-44.277 -13.3361,-8.5548 -25.5738,-15.5541 -27.1948,-15.5541 -1.621,0 -3.4021,-1.0234 -3.958,-2.2741 -2.8347,-6.3782 -119.3834,-82.88 -163.5743,-107.3692 -19.3669,-10.7325 -58.9367,-29.4753 -87.933,-41.6507 -225.2504,-94.581203 -299.769,-119.621203 -393.8395,-132.339403 -50.8687,-6.8773 -48.4361,-7.4845 -60.0566,14.9898 -5.5143,10.6645 -15.0656,24.8978 -21.2252,31.6294 -6.1597,6.7316 -15.0861,17.1036 -19.8365,23.049 -8.591,10.752103 -14.1041,13.724103 -14.1041,7.603103 0,-1.7637 8.3024,-13.020603 18.4499,-25.015403 18.845,-22.2757 30.0648,-40.5814 30.0648,-49.0525 0,-2.6092 -3.7523,-6.248 -8.3385,-8.0862 -10.1236,-4.0577 -176.0592,-5.2939 -210.5913,-1.5689 -23.3179,2.5153 -23.3666,2.5393 -30.6927,15.1608 -4.0358,6.9529 -8.362,16.0528 -9.6137,20.222 -1.2517,4.1693 -6.7339,15.0851 -12.1826,24.2574 -5.4487,9.1723 -13.3093,22.602203 -17.468,29.844203 -14.776,25.7311 -10.6485,7.215 5.5709,-24.991403 18.1538,-36.0474 20.862,-51.4986 10.647,-60.7431 -5.3898,-4.8776 -9.2889,-5.0059 -50.7888,-1.6707 -24.723,1.987 -51.5212,4.1229 -59.5515,4.7466 -86.8619,6.7459 -207.9752,29.4578 -322.83297,60.5393 C 485.55324,161.19876 283.39028,250.65286 151.59872,356.83336 c -38.03281,30.6419 -84.776518,79.024 -96.904828,100.3014 -9.28373,16.287 -22.26059,52.1517 -26.1112,72.1648 -2.20388,11.4543 -4.17787,12.1546 27.79318,-9.8598 z m 2331.197428,-3.2906 c 0.9838,-2.5637 -0.7153,-7.4281 -3.7757,-10.8098 -5.0627,-5.5942 -61.8122,-41.3663 -80.0681,-50.4709 -4.1713,-2.0803 -13.582,-7.3476 -20.9128,-11.7049 -13.2353,-7.8671 -13.6965,-7.9145 -65.8512,-6.7772 -34.3573,0.7493 -53.7387,2.3617 -56.0389,4.6619 -2.6671,2.667 -0.5547,4.3139 8.7457,6.8182 6.7442,1.816 16.128,5.3181 20.8529,7.7825 4.7249,2.4643 10.1857,4.489 12.1352,4.4993 1.9495,0.01 7.4074,1.9564 12.1287,4.3247 29.1652,14.63 92.5779,41.3383 104.0975,43.844 7.5046,1.6324 22.4719,3.8463 33.2605,4.9198 10.7887,1.0735 21.7045,3.1752 24.2574,4.6705 6.6733,3.9086 9.1435,3.5198 11.1688,-1.7581 z m -74.751,-102.9809 c -2.0761,-2.5015 -5.1392,-4.5482 -6.8069,-4.5482 -1.6915,0 -1.3631,2.0111 0.7425,4.5482 2.0761,2.5016 5.1392,4.5483 6.8069,4.5483 1.6915,0 1.3631,-2.0111 -0.7425,-4.5483 z m -20.1052,-18.1316 c -2.0297,-5.2895 -21.9137,-18.1805 -24.3244,-15.7698 -2.6876,2.6876 1.9684,8.2095 12.1646,14.4267 11.4537,6.9841 14.4516,7.3152 12.1598,1.3431 z"
     id="path1461"
     inkscape:connector-curvature="0" />
  <path
     style="fill:#2d2815;fill-opacity:1;stroke:none;stroke-width:3.03216982;stroke-miterlimit:4;stroke-dasharray:none"
     d=""
     id="path1463"
     inkscape:connector-curvature="0" />
  <path
     style="fill:#2d2815;fill-opacity:1;stroke:none;stroke-width:3.03216982;stroke-miterlimit:4;stroke-dasharray:none"
     d="m 1221.7197,275.16036 c 29.8885,-15.2024 99.9058,-40.3993 107.7163,-38.7634 4.8953,1.0254 -125.7512,54.0531 -132.5823,53.8135 -2.43,-0.085 8.7597,-6.8578 24.866,-15.0501 z"
     id="path1465"
     inkscape:connector-curvature="0" />
  <path
     style="fill:#2d2815;fill-opacity:1;stroke:none;stroke-width:3.03216982;stroke-miterlimit:4;stroke-dasharray:none"
     d="m 2471.2255,623.11586 c -12.1059,-7.0711 -32.9863,-20.8897 -46.4009,-30.7081 -25.3532,-18.5565 -91.1471,-54.9662 -159.001,-87.9898 -118.3607,-57.6045 -292.1364,-112.4332 -460.8898,-145.4173 -162.0307,-31.6701 -320.3769,-46.3124 -465.438,-43.0393 -190.8536,4.3063 -311.6348,14.9342 -471.50239,41.4886 -137.18549,22.7869 -228.15234,45.3343 -354.56577,87.8839 -58.27394,19.6144 -203.31338,75.1801 -248.83601,95.3308 -36.98205,16.3702 -217.755648,71.124 -234.739978,71.0994 -11.28235,-0.015 -27.0552803,-10.6356 -29.34446031,-19.7564 -1.08727,-4.3321 0.17556,-14.8674 2.82805001,-23.5934 2.6359,-8.6714 5.62818,-21.2241 6.6495,-27.8948 7.9275403,-51.7789 13.8996103,-73.1284 21.8829103,-78.2291 2.08734,-1.3336 3.79516,-3.8824 3.79516,-5.664 0,-1.7816 4.22807,-8.1951 9.39572,-14.2521 14.82002,-17.3708 72.863658,-75.851 84.152888,-84.7858 5.62593,-4.4527 13.82741,-11.2567 18.22553,-15.1201 14.99067,-13.1681 83.70739,-57.5964 122.58825,-79.2586 33.60334,-18.7218 88.57891,-46.1761 123.43364,-61.6416 5.83693,-2.59 19.57329,-8.7533 30.52528,-13.6965 57.91784,-26.1408 169.53201,-65.6784 259.04693,-91.763303 5.00308,-1.4579 20.69456,-6.0398 34.86996,-10.1821 93.09504,-27.2034 232.35123,-58.3942 285.02389,-63.8399 9.1723,-0.9483 20.9396,-2.2883 26.1495,-2.9778 8.4365,-1.1165 25.7925,-2.986 58.7513,-6.3284 110.4574,-11.2016001 327.4974,-15.5762001 397.2142,-8.0061001 84.1742,9.1400001 176.4477,28.9303001 245.0322,52.5533001 19.4939,6.7144 68.8732,26.5927 109.7317,44.174003 40.8585,17.5812 89.9796,38.0482 109.1581,45.4822 49.7771,19.2945 73.4676,32.0543 143.766,77.4329 75.8644,48.9716 85.5017,55.8281 165.5153,117.7568 13.6037,10.5289 74.0524,61.8992 83.6748,71.1082 80.6827,77.216 138.1302,138.4874 161.1224,171.8475 16.3257,23.6872 13.6005,50.9928 -5.0773,50.8736 -2.5997,-0.015 -14.6316,-5.8156 -26.7376,-12.8867 z M 60.479982,591.95856 c 28.82431,-6.0504 58.917428,-14.9894 87.985298,-26.1356 19.41726,-7.4455 24.47573,-10.8438 30.01188,-20.1614 13.22455,-22.2576 63.37319,-69.3101 63.37319,-59.4606 0,0.9772 -11.59805,14.7785 -25.77344,30.6695 -25.00196,28.0279 -29.13075,34.2616 -22.69268,34.2616 6.14748,0 82.18794,-28.6352 165.83963,-62.4515 47.04465,-19.0179 86.86675,-34.578 88.49357,-34.578 1.62682,0 6.799,-1.5741 11.49371,-3.4981 4.69474,-1.9239 9.90034,-3.9387 11.56803,-4.4773 1.66769,-0.5386 23.49932,-7.8719 48.51472,-16.2963 143.43275,-48.3034 298.7223,-80.0358 526.08141,-107.5012 76.5745,-9.2504 130.9144,-12.7834 257.7344,-16.7572 120.6336,-3.78 126.761,-4.4105 152.631,-15.7043 18.5381,-8.0931 36.0448,-12.6586 105.1035,-27.4097 10.84,-2.3154 23.1203,-3.3878 27.2895,-2.383 l 7.5804,1.8268 -7.5804,2.15 c -4.1692,1.1826 -29.6389,7.5207 -56.5992,14.0848 -53.4581,13.0156 -72.2,19.5609 -69.3261,24.2111 5.6998,9.2224 71.9526,15.6687 166.8596,16.2352 69.6982,0.4161 69.7743,0.4094 127.3511,-11.2724 75.9793,-15.4154 83.078,-16.5031 92.0493,-14.1038 7.8721,2.1053 3.1512,3.287 -72.3402,18.1077 -41.7395,8.1944 -55.1367,12.2476 -53.7943,16.2749 1.2248,3.6741 12.3448,6.6136 35.6013,9.4107 15.291,1.8392 22.719,3.2519 49.5825,9.4299 50.5769,11.6316 104.3163,12.3351 156.6604,2.0509 14.9176,-2.9309 32.7217,-4.4162 42.395,-3.5368 21.6497,1.9682 14.2265,5.0805 -21.8705,9.1696 -52.6122,5.96 -66.105,11.5787 -46.9875,19.5664 6.0786,2.5398 13.3436,4.6179 16.1444,4.6179 2.8008,0 12.7371,2.6368 22.0806,5.8597 9.3435,3.2229 40.8666,13.7586 70.0512,23.4127 l 53.063,17.5529 62.7606,0.087 c 79.6637,0.1101 82.5906,-1.5796 38.6144,-22.2906 -71.2535,-33.5575 -230.6748,-98.4633 -266.6283,-108.5535 -65.6909,-18.4359 -183.7839,-44.1087 -269.768,-58.6463 -257.5094,-43.5377 -511.3918,-50.9811 -715.68706,-20.9827 -146.87373,21.5667 -329.57618,71.1615 -498.79196,135.3977 -28.35079,10.7622 -61.77379,22.9617 -74.27333,27.1098 -26.32096,8.7349 -36.70135,14.7119 -61.74238,35.5512 -15.17376,12.6278 -19.99626,15.0324 -29.07379,14.4967 -7.65214,-0.4515 -19.21777,3.4147 -38.96116,13.024 -38.1136,18.5503 -132.93597,71.755 -163.480128,91.7285 -28.01159,18.3174 -69.18105,56.5026 -66.17042,61.3739 2.77855,4.4958 18.73962,3.9734 44.62721,-1.4605 z m 2403.950818,-6.1072 c 0,-23.6914 -40.9477,-49.9834 -87.6294,-56.2658 -13.7103,-1.8451 -25.633,-2.6495 -26.495,-1.7875 -2.0074,2.0074 38.6444,25.8065 54.8152,32.0908 6.7708,2.6313 21.7991,10.6065 33.3963,17.7228 23.2669,14.277 25.9129,15.1183 25.9129,8.2397 z M 66.491362,512.56216 c 15.56432,-10.3735 33.756658,-22.7564 40.427438,-27.5177 6.67077,-4.7614 21.68001,-14.2177 33.35386,-21.0141 27.76968,-16.1672 48.82062,-34.9582 52.81318,-47.1433 1.76303,-5.3807 3.07492,-18.3907 2.91532,-28.9111 -0.37485,-24.7086 2.35447,-27.3287 4.81948,-4.6266 1.05646,9.7296 2.62825,22.6582 3.49288,28.73 l 1.57204,11.0398 28.34522,-17.8153 c 28.23594,-17.7466 114.96842,-61.129 166.74269,-83.4024 45.6702,-19.6474 54.90826,-31.351 60.76489,-76.9823 l 3.7018,-28.8419 0.39536,38.1548 c 0.21741,20.9851 1.18485,38.9443 2.14978,39.9092 0.9649,0.9649 8.1284,-0.7587 15.91889,-3.8302 39.81582,-15.698 55.54286,-21.2981 76.32399,-27.1776 27.72282,-7.8433 29.06777,-8.2343 89.44901,-25.9981 26.68309,-7.85 50.03389,-15.4707 51.89067,-16.9349 1.85678,-1.4641 4.28979,-10.4371 5.40666,-19.9399 1.94098,-16.5149 13.1799,-66.538 16.04349,-71.4076 0.75152,-1.278 2.41673,-1.6745 3.70052,-0.881 2.30996,1.4276 -2.29129,26.6846 -8.58984,47.151 -1.79292,5.8259 -3.25985,15.6704 -3.25985,21.8765 0,19.6274 9.95922,21.0707 71.65269,10.3838 51.98752,-9.0056 166.60271,-25.8302 187.59781,-27.5379 11.6739,-0.9495 33.50546,-3.0063 48.51466,-4.5706 15.0093,-1.5643 45.71,-3.697 68.2238,-4.7392 22.5139,-1.0422 42.9154,-2.5415 45.3367,-3.3318 5.7226,-1.8677 191.682,-1.8564 197.414,0.012 2.4042,0.7836 21.4271,2.2908 42.2733,3.3493 20.8462,1.0585 52.2291,3.8867 69.7399,6.285 17.5108,2.3982 64.5852,7.7912 104.6099,11.9843 186.383,19.5262 268.4086,34.6704 371.888,68.6608 35.889,11.7887 42.1421,11.381 57.9159,-3.7754 16.3819,-15.7407 33.7722,-27.0298 41.6382,-27.0298 10.3624,0 6.92,5.0597 -12.8025,18.8174 -10.4099,7.2615 -19.4025,15.6713 -19.9835,18.6884 -0.5811,3.0171 1.8953,8.6276 5.5031,12.4679 7.2624,7.7305 14.8988,10.7762 68.9842,27.5133 34.8525,10.7853 37.4309,11.1727 42.6892,6.414 7.9776,-7.2196 12.1517,-6.2792 13.2558,2.9867 0.8663,7.2697 5.2278,9.8566 44.9259,26.6475 24.1816,10.2279 51.0846,22.2963 59.7846,26.8187 20.4062,10.6074 28.1484,10.7653 28.1484,0.5743 0,-10.9848 -21.377,-32.8352 -46.8184,-47.8554 -11.773,-6.9506 -37.373,-23.9374 -56.8889,-37.7485 -84.5532,-59.8368 -155.891,-99.7984 -235.8957,-132.1427 -22.5139,-9.1018 -72.9995,-29.5478 -112.1903,-45.4355 -82.3643,-33.389903 -139.6809,-53.080803 -190.9538,-65.601103 -39.1022,-9.5484 -112.5217,-20.0457 -120.0357,-17.1623 -2.5362,0.9732 -6.9646,6.9071 -9.8409,13.1863 -5.3251,11.6255 -15.5688,28.3823 -19.0278,31.126 -1.0513,0.8338 -8.9783,10.0441 -17.6156,20.4671 -14.9298,18.016703 -21.5474,22.852003 -21.5474,15.744403 0,-1.7637 8.0373,-12.755003 17.8606,-24.425203 9.8235,-11.6702 21.062,-27.2528 24.9745,-34.6281 6.774,-12.7691 6.8604,-13.6629 1.8094,-18.7139 -4.5156,-4.5156 -14.4287,-5.6749 -66.6668,-7.7963 -58.0042,-2.3556 -157.8705,0.7931 -169.4381,5.3423 -2.7401,1.0775 -8.7024,10.3972 -13.2496,20.7103 -11.6625,26.4506 -41.6111,77.794203 -44.3793,76.083403 -2.7784,-1.7171 -1.728,-4.3513 15.2385,-38.213003 7.2651,-14.4997 13.8945,-32.4415 14.7318,-39.8705 1.3528,-12.0013 0.6529,-14.0771 -6.2769,-18.6177 -6.1395,-4.0227 -11.863,-4.724 -26.8914,-3.2952 -10.5006,0.9983 -42.9703,3.8902 -72.1549,6.4264 -127.02626,11.0388 -241.26011,33.695 -397.84384,78.905203 -226.58016,65.4201 -411.82063,149.0999 -530.07847,239.4554 -41.98632,32.0799 -90.352968,78.9372 -107.284288,103.9364 -12.21337,18.033 -26.68125,54.19 -33.47534,83.6588 -1.92205,8.3368 -1.70165,8.59 3.95848,4.5483 3.29663,-2.354 18.72831,-12.7674 34.29262,-23.1408 z m 2321.226938,-1.8737 c -2.2372,-5.83 -21.3192,-18.818 -71.7093,-48.8083 l -41.0889,-24.4545 -55.2345,0.049 c -60.8116,0.054 -73.8044,3.2151 -47.3938,11.5306 25.855,8.1405 40.593,14.0972 88.0532,35.5884 47.9366,21.7071 63.4987,26.744 84.315,27.29 6.6708,0.175 18.2689,1.9917 25.7735,4.0371 14.3846,3.9206 20.1297,2.1815 17.2848,-5.2324 z m -77.9282,-99.0362 c 0,-1.6677 -1.445,-3.0322 -3.2111,-3.0322 -1.7661,0 -2.3679,1.3645 -1.3372,3.0322 1.0307,1.6676 2.4757,3.0321 3.2112,3.0321 0.7354,0 1.3371,-1.3645 1.3371,-3.0321 z m -25.1054,-22.9467 c -6.3034,-5.8596 -12.8069,-9.8218 -14.4523,-8.8049 -4.1542,2.5674 -0.8537,6.9767 10.3249,13.7929 14.823,9.0387 16.7331,6.7303 4.1274,-4.988 z"
     id="path1467"
     inkscape:connector-curvature="0" />
  <path
     style="fill:#2d2815;fill-opacity:1;stroke:none;stroke-width:3.03216982;stroke-miterlimit:4;stroke-dasharray:none"
     d=""
     id="path1469"
     inkscape:connector-curvature="0" />
  <path
     style="fill:#2d2815;fill-opacity:1;stroke:none;stroke-width:3.03216982;stroke-miterlimit:4;stroke-dasharray:none"
     d="m 393.45884,456.19496 c 0,-0.5169 9.19828,-6.9982 20.44062,-14.4028 11.24235,-7.4047 35.80292,-28.3146 54.57906,-46.4665 18.77614,-18.152 47.78319,-43.69408 47.78319,-41.93648 0,6.2287 -76.09665,78.91658 -95.22539,91.23688 -16.50704,10.6318 -27.57748,15.2759 -27.57748,11.5689 z"
     id="path1471"
     inkscape:connector-curvature="0"
     sodipodi:nodetypes="sccscs" />
  <path
     style="fill:#2d2815;fill-opacity:1;stroke:none;stroke-width:3.03216982;stroke-miterlimit:4;stroke-dasharray:none"
     d="M 2473.5964,625.03256 C 2193.2737,429.89842 1850.0138,348.44403 1513.8359,320.26719 1105.1747,300.88334 688.49668,357.64791 311.59026,521.69916 219.58184,556.86854 126.51396,592.02841 29.851652,611.76406 -29.713696,581.57045 19.648726,470.58109 57.250293,429.18795 202.79833,265.30152 416.27482,186.10909 617.97423,115.70536 820.05739,50.395971 1029.3411,5.6125365 1242.4018,2.4495691 1444.4744,-11.464903 1651.5122,12.790832 1836.1799,99.734757 1944.4626,142.62172 2052.3,187.94139 2145.4587,259.29725 c 136.8072,94.25446 266.881,204.27924 365.2764,338.76185 13.9083,34.70024 -10.3813,47.00782 -37.1387,26.97346 z M 58.963892,592.22186 C 133.06452,605.0482 243.24528,473.13102 234.2794,495.94304 c -32.04282,29.09916 -62.47735,74.49863 2.6125,40.26622 205.72849,-84.33421 416.62999,-160.16004 637.9587,-190.5693 181.5813,-33.12049 366.1549,-37.60273 549.944,-46.4921 39.2024,-5.69036 223.5895,-79.3725 161.9073,-34.81351 -37.5702,10.37567 -188.4093,37.89342 -73.3926,49.09762 106.2638,11.67779 213.0549,5.2273 316.8306,-20.2993 67.1412,6.22877 -191.4018,29.42388 -66.57,44.17614 82.7846,24.50876 168.784,17.19341 252.7956,7.94304 -19.9704,10.71103 -143.6593,19.86451 -39.4903,39.72352 61.092,16.74185 119.465,48.08686 184.5607,41.52327 44.7491,6.60346 93.199,-9.23487 23.2272,-30.53742 -144.639,-67.56377 -295.4957,-122.42959 -453.7054,-147.47608 -350.9906,-68.50963 -720.8354,-78.1166 -1065.12629,29.94339 -113.43964,35.13415 -229.0207,69.74205 -335.76882,121.23919 -69.84563,42.13097 -152.16558,68.03656 -221.41255,116.46656 -22.626995,12.79405 -153.666093,100.93277 -49.686148,76.08758 z m 2405.455508,-6.9779 c -2.5645,-56.04004 -177.2899,-76.39446 -68.1627,-29.52925 21.0878,1.48257 53.9611,41.27717 68.1627,29.52925 z M 77.599282,504.55556 c 51.372598,-28.58641 131.762768,-81.80649 121.914938,-127.7733 -10.65454,93.58723 66.8156,-6.32298 108.64325,-11.41054 60.84656,-35.42893 163.92697,-48.8046 155.44029,-140.12501 6.53601,-10.65325 -14.53234,109.15345 43.60774,55.86805 70.25536,-42.57101 212.93267,-16.49469 208.79753,-126.77578 34.11066,-72.321015 -40.18518,101.33084 40.38591,57.79138 266.68786,-50.13404 541.15796,-62.58187 809.96856,-21.6946 130.5883,12.4656 260.6795,33.71159 385.5656,74.433 24.3525,-7.52245 113.3285,-65.69431 45.7221,-10.79391 -6.6734,67.86489 120.3431,36.15777 152.4197,79.71302 35.982,23.61983 152.2575,64.51385 68.1749,-5.41703 C 2103.3392,249.40398 1985.8339,172.72461 1853.4695,125.97016 1735.885,79.893758 1616.3437,26.392087 1488.2492,21.908957 c -9.723,36.37202 -105.321,126.485973 -38.8255,42.351456 51.8999,-84.084705 -130.1969,-34.984527 -180.6814,-45.468151 -68.1443,-11.0855002 -60.7271,80.828024 -94.7508,90.392908 41.1941,-51.850102 32.27,-116.7904847 -45.8272,-86.647842 C 858.72151,43.529803 597.73383,126.03453 347.81426,225.19017 222.19517,282.30397 91.82888,366.66945 37.920822,499.10156 c -31.0066169,61.22974 11.163842,22.93603 39.67846,5.454 z m 2311.027218,8.6118 c -35.4434,-30.13734 -79.605,-62.13019 -124.0775,-75.71843 -42.8002,-1.06079 -154.0324,-2.34292 -49.5587,27.15507 54.1868,21.62131 116.4334,58.80292 173.6362,48.56336 z m -101.815,-123.0026 c -46.0956,-29.73538 32.613,20.9459 4.3419,7.781 z"
     id="path1473"
     inkscape:connector-curvature="0" />
  <path
     style="fill:#2d5016;fill-opacity:1;stroke:none;stroke-width:0.86181921;stroke-miterlimit:4;stroke-dasharray:none"
     d="m 15.673782,594.75306 c -1.947387,-1.88483 -1.716413,-3.87181 0.890879,-7.66386 3.011172,-4.37945 40.288198,-40.6512 47.950015,-46.7532 26.657543,-21.23051 108.146424,-67.24259 178.099834,-102.59289 25.68596,-12.98017 47.35208,-13.10527 48.71603,-11.78515 1.34494,1.30174 -17.0198,19.10135 -38.79239,42.52406 -18.19763,19.57681 -68.06384,79.33908 -78.80497,87.61504 -25.81956,19.89383 -27.42696,10.49955 -78.871364,26.3082 -41.379578,12.71577 -75.123795,16.28147 -79.188034,12.3478 z"
     id="path2742"
     inkscape:connector-curvature="0"
     sodipodi:nodetypes="cssscscsc" />
  <path
     style="fill:#2d2815;fill-opacity:1;stroke:none;stroke-width:0.75804245;stroke-miterlimit:4;stroke-dasharray:none"
     d="m 244.79464,481.50581 c 0.27116,-0.85271 0.0242,-1.32657 -0.69143,-1.32657 -2.31357,0 -3.37429,1.23495 22.64247,-26.36156 9.14872,-9.70423 16.78563,-17.49247 16.97091,-17.30718 0.18528,0.18528 -7.64464,9.66014 -17.39983,21.05525 -20.71469,24.19699 -22.09048,25.72735 -21.52212,23.94006 z"
     id="path2744"
     inkscape:connector-curvature="0" />
  <path
     style="fill:#2d2815;fill-opacity:1;stroke:none;stroke-width:0.75804245;stroke-miterlimit:4;stroke-dasharray:none"
     d="m 462.89003,205.62771 c -0.0707,-2.12202 1.25359,-6.37157 1.81163,-5.81352 0.17651,0.1765 -0.14366,2.01468 -0.71147,4.08485 -0.75015,2.73498 -1.05091,3.20755 -1.10016,1.72867 z"
     id="path2746"
     inkscape:connector-curvature="0" />
  <path
     style="fill:#2d2815;fill-opacity:1;stroke:none;stroke-width:0.75804245;stroke-miterlimit:4;stroke-dasharray:none"
     d=""
     id="path2748"
     inkscape:connector-curvature="0" />
  <path
     style="fill:#2d2815;fill-opacity:1;stroke:none;stroke-width:0.75804245;stroke-miterlimit:4;stroke-dasharray:none"
     d="m 672.93476,363.36299 c 5.11626,-9.10315 44.24924,-39.92008 102.71703,-80.88891 32.61205,-22.8515 43.75704,-29.23083 39.36978,-22.53502 -2.95501,4.50991 -18.81758,16.52442 -69.82852,52.88899 -30.80999,21.96376 -38.80794,27.89974 -59.25698,43.97978 -13.29458,10.45416 -15.94322,11.78958 -13.00131,6.55516 z"
     id="path2750"
     inkscape:connector-curvature="0" />
  <path
     style="fill:#2d2815;fill-opacity:1;stroke:none;stroke-width:0.75804245;stroke-miterlimit:4;stroke-dasharray:none"
     d="m 898.69665,168.94612 c 0,-1.21599 32.92766,-67.05533 38.00501,-75.991582 8.45795,-14.886184 17.73867,-28.051531 23.26815,-33.007479 1.57414,-1.410873 1.57646,-1.407809 1.14479,1.516085 -0.47316,3.204898 -11.4825,25.141018 -26.00931,51.823556 -17.074,31.36116 -32.14402,55.38501 -35.09976,55.95423 -0.71989,0.13864 -1.30888,0.006 -1.30888,-0.29481 z"
     id="path2752"
     inkscape:connector-curvature="0" />
  <path
     style="fill:#2d2815;fill-opacity:1;stroke:none;stroke-width:0.75804245;stroke-miterlimit:4;stroke-dasharray:none"
     d="m 985.49251,300.05205 c 11.55662,-10.47467 35.59769,-30.35864 60.64339,-44.41022 10.0062,-5.61382 16.0326,-4.86543 18.9511,-6.67536 9.5338,-5.91254 40.7772,-21.90977 48.8937,-25.33015 20.5006,-8.63924 25.1265,-5.61508 18.5708,-0.68674 8.2634,0.62637 -3.9532,3.89064 -8.7865,6.32745 -8.3739,4.22187 -17.3931,8.90119 -36.7805,16.99495 -10.7951,4.50667 -15.5409,8.51991 -39.3325,23.29354 -10.4231,6.47232 -29.0141,14.41226 -32.9749,16.71783 -9.7441,5.67207 -31.50841,17.28013 -32.32003,17.23803 -0.36013,-0.0187 1.05082,-1.57988 3.13544,-3.46933 z"
     id="path2754"
     inkscape:connector-curvature="0"
     sodipodi:nodetypes="cccccscsccc" />
</svg>
