<?xml version="1.0" encoding="UTF-8" standalone="no"?>
<!-- Created with Inkscape (http://www.inkscape.org/) -->

<svg
   xmlns:dc="http://purl.org/dc/elements/1.1/"
   xmlns:cc="http://creativecommons.org/ns#"
   xmlns:rdf="http://www.w3.org/1999/02/22-rdf-syntax-ns#"
   xmlns:svg="http://www.w3.org/2000/svg"
   xmlns="http://www.w3.org/2000/svg"
   xmlns:sodipodi="http://sodipodi.sourceforge.net/DTD/sodipodi-0.dtd"
   xmlns:inkscape="http://www.inkscape.org/namespaces/inkscape"
   version="1.1"
   id="svg5820"
   width="2812.4797"
   height="696.82532"
   viewBox="0 0 2812.4797 696.82531"
   sodipodi:docname="1.svg"
   inkscape:version="0.92.2 5c3e80d, 2017-08-06">
  <metadata
     id="metadata5826">
    <rdf:RDF>
      <cc:Work
         rdf:about="">
        <dc:format>image/svg+xml</dc:format>
        <dc:type
           rdf:resource="http://purl.org/dc/dcmitype/StillImage" />
        <dc:title></dc:title>
      </cc:Work>
    </rdf:RDF>
  </metadata>
  <defs
     id="defs5824" />
  <sodipodi:namedview
     pagecolor="#ffffff"
     bordercolor="#666666"
     borderopacity="1"
     objecttolerance="10"
     gridtolerance="10"
     guidetolerance="10"
     inkscape:pageopacity="0"
     inkscape:pageshadow="2"
     inkscape:window-width="1186"
     inkscape:window-height="754"
     id="namedview5822"
     showgrid="false"
     inkscape:zoom="0.16489842"
     inkscape:cx="1610.2521"
     inkscape:cy="1376.0064"
     inkscape:window-x="103"
     inkscape:window-y="54"
     inkscape:window-maximized="0"
     inkscape:current-layer="svg5820"
     fit-margin-top="0"
     fit-margin-left="0"
     fit-margin-right="0"
     fit-margin-bottom="0" />
  <path
     style="fill:#2d2815;fill-opacity:1;stroke:none;stroke-width:4.28813553;stroke-miterlimit:4;stroke-dasharray:none"
     d=""
     id="path2622"
     inkscape:connector-curvature="0" />
  <path
     style="fill:#2d2815;fill-opacity:1;stroke:none;stroke-width:1.51608491;stroke-miterlimit:4;stroke-dasharray:none"
     d=""
     id="path2674"
     inkscape:connector-curvature="0" />
  <g
     id="g2721"
     transform="rotate(90,1406.2399,1406.2399)">
    <path
       inkscape:connector-curvature="0"
       id="path6375"
       d="m 269.40747,2811.5375 c -46.1875,-63.0691 -67.1921,-145.9966 -94.8113,-220.259 C 80.637874,2341.1164 10.404374,2080.0517 3.0722737,1811.4885 -0.38992627,1543.6889 -11.335826,1272.2074 48.163374,1009.1671 99.212074,782.76088 148.51767,547.59128 285.63477,355.15127 c 68.9712,-113.34292 137.981,-227.82072 189.3239,-350.1489013 51.0428,-25.3771297 51.9161,52.6267703 71.3647,81.0226503 52.2121,125.795251 90.5658,255.552341 112.8713,389.727161 22.9382,112.55 36.6175,228.2039 32.7299,344.0383 1.0987,51.2112 7.3605,111.7798 3.836,155.821 -3.1146,102.13672 -12.4999,205.35872 -23.5431,310.33332 -22.9635,159.1209 -40.5893,326.0057 -45.5531,489.6667 -14.6983,173.4994 -28.2394,346.5351 -24.9653,520.8433 8.9169,128.6746 34.3994,257.5078 13.0344,386.7549 23.2395,127.3581 -109.8584,39.5416 -156.6894,4.0684 -69.3899,-44.1496 -118.3295,77.7888 -174.0765,111.1267 -0.5555,7.4132 -4.3622,17.1629 -14.5601,13.1327 z m 11.2709,-35.4987 c 39.416,-59.3246 171.7678,-93.8025 128.7327,-177.7965 -54.2998,-222.6597 -94.8653,-448.7337 -111.0194,-677.4914 -35.8474,-351.7973 -45.8134,-709.8332 14.5763,-1059.47242 28.9613,-212.9802 71.7837,-423.5673 132.0673,-629.3333 21.6344,-48.15144 8.4239,-156.287721 42.318,-166.865881 -9.1514,92.313321 -36.4119,181.404931 -57.7392,271.579291 -19.9497,43.59969 -20.2303,93.53819 -38.1504,139.33479 -33.6863,143.5801 -57.1872,286.889 -75.1311,431.2851 -8.5369,30.7345 -4.2699,58.4507 -14.634,92.86642 -0.3624,47.2933 -8.732,31.5236 -5.3927,66.9762 -9.0753,32.8145 -8.4026,73.681 -10.6657,102.4377 7.7775,7.6889 -9.5406,120.9166 -3.6342,68.2013 -0.6268,21.803 0.5101,58.4378 1.0939,92.773 -1.6859,32.7915 -0.2273,77.0437 -4.3516,102.6029 3.4822,61.9328 0.7753,124.3921 5.2789,188.9309 4.1655,160.0194 21.0382,319.9202 39.6845,477.8354 30.4091,184.4488 57.2061,372.0046 115.5241,550.0428 50.6925,41.2817 185.7512,151.1699 161.9248,12 25.4821,-170.6478 -28.7525,-340.316 -13.5304,-511.6854 12.3244,-221.6424 27.0881,-441.9808 44.1398,-661.8538 32.7048,-238.9291 61.9184,-479.319 44.6342,-720.70982 -0.6517,-161.9722 -33.5226,-322.5308 -74.2164,-478.4177 -32.9704,-91.71647 -55.3737,-192.433891 -110.8987,-273.019481 -38.6525,77.77669 -74.755,153.866811 -121.688,227.669971 -63.554,114.01168 -147.4737,216.87431 -189.1919,341.95441 -60.2929,156.8651 -95.356896,323.0534 -124.246496,488.06182 -3.6634,18.1483 -8.4989,42.4273 -13.535,59.5481 -1.7391,32.5638 -9.5556,71.1851 -10.7553,101.3919 -19.9099,95.6368 -14.6014,198.1348 -16.6215,296.7266 0.7165,149.4824 -3.6955,303.2805 18.4675,449.2202 19.0833,222.8824 97.471396,434.7767 170.699996,643.7798 13.9422,54.9382 41.7702,104.4461 62.9196,156.403 l 4.0475,0.9304 9.2943,-5.9064 z m -9.404,-145.5071 c 20.1485,-38.3876 97.1742,-81.6758 31.8511,-20.5865 -11.3728,1.0482 -16.6749,31.0217 -31.8511,20.5865 z m 260.365,-60.0633 c -45.5807,-11.1942 -140.7295,-72.1665 -37.1043,-25.0305 5.8933,4.6454 81.8547,29.9164 37.1043,25.0305 z m -277.7806,-64.7029 c -33.1189,-18.2268 89.7078,-18.23 19.4848,-3.3066 z m 182.4472,-13.0931 c 17.6063,-27.9481 135.8512,-11.1826 28.6667,-2.5713 l -12.6667,1.3661 z m -8.3333,-63.2401 c 7.3886,-36.7423 115.1061,-104.1509 39.6701,-32.8147 -16.9125,5.5633 -22.6443,33.0825 -39.6701,32.8147 z m -134.1776,-13.871 c -33.4618,-31.2883 -167.9703,-165.7084 -59.5032,-71.6161 5.7912,10.5377 105.3163,85.9289 59.5032,71.6161 z m 122.5109,-129.7965 c 27.2405,-39.8107 54.9268,-79.8044 85.4836,-116.9469 5.6135,24.86 -45.2572,67.0264 -61.3012,98.4606 1.2766,1.547 -17.2082,29.6095 -24.1824,18.4863 z m -138,-65.7316 c -34.7189,-24.1567 -148.9356,-157.1823 -52.6666,-65.6177 2.2544,13.96 83.4296,64.3816 52.6666,65.6177 z m 157.3659,-180.4841 c 34.2258,-46.9339 67.5436,-113.4572 114.0968,-141.4698 -12.2175,25.1796 -48.4176,56.0871 -64.6656,86.5326 -18.006,14.108 -26.6047,58.4404 -49.4312,54.9372 z m -177.5969,-31.4484 c -27.9668,-39.2956 -129.1356,-169.857 -89.6303,-136.4099 33.0323,46.5793 68.5982,92.315 101.1597,138.3043 l -5.5467,1.0896 z m -40.769,-193.0386 c -36.0163,-39.6505 -139.696596,-102.5454 -133.729996,-140.5293 28.387196,44.0315 134.776496,114.0433 133.729996,140.5293 z m 154.2656,-17.2265 c 21.2896,-33.9236 62.8401,-75.2524 83.4011,-118.2265 15.1891,-17.3929 72.6417,-133.4775 60.4476,-83.9707 -11.8729,36.3893 -50.2172,78.3075 -69.5713,118.3068 -21.6017,28.6265 -41.0932,72.0659 -74.2774,83.8904 z m -156.4065,-235.5889 c -49.1949,-65.0695 -91.6766,-134.3819 -127.789296,-207.4288 40.624796,27.6103 51.569096,97.1873 86.263596,138.4726 1.6778,10.0397 80.3735,86.3712 41.5257,68.9562 z m 199.8076,-2.3015 c 52.1115,-115.846 120.1726,-225.4629 189.0056,-332.3347 -1.1288,30.8207 -37.8373,63.4896 -50.0056,96.5592 -46.0863,74.33 -91.8163,156.2359 -131.5881,235.8179 l -4.9632,1.8879 -2.4487,-1.9309 z m -132,-319.412 c 3.8403,-2.5409 3.1117,4.5798 0,0 z m 0.041,-3.2547 c 1.0864,-7.4481 4.6726,-1.8124 0,0 z m 165.5274,-63.16 c 30.4477,-67.6067 81.2347,-126.7453 118.3672,-191.84002 53.4044,-62.1111 -13.0344,45.59662 -31.2864,67.66672 -21.3956,45.665 -54.0633,84.2519 -82.6924,125.1083 z m -221.2912,-5.969 c -27.7557,-53.1634 -51.9046,-109.6534 -92.6103,-155.138 -4.3184,-37.15512 61.3016,66.1505 73.1779,94.2661 1.9822,13.1695 48.7135,70.6455 19.4324,60.8719 z m 59.199,-4.3134 c -0.7661,-10.3719 5.7151,7.6862 0,0 z m -8.0462,-333.45402 c -11.5936,-24.1096 -74.7292,-138.1678 -41.41,-107.0612 1.3884,39.7222 58.3787,71.6182 48.1312,107.1324 z m 146.6474,-20.1374 c 31.333,-85.7568 94.2917,-158.9193 136.5895,-240.3902 57.7655,-92.4049 13.7289,8.388 -14.6667,45.1208 -31.0172,60.4116 -74.417,113.7179 -105.7634,173.7034 -2.1762,8.8334 -4.141,21.3688 -16.1594,21.566 z m -100.411,-253.1825 c -14.6689,-23.9733 -71.3819,-121.8402 -21.6667,-62.9743 0.6691,18.1901 48.5086,55.8726 21.6667,62.9743 z m 123.6666,-7.0482 c 32.2213,-30.4126 120.2784,-128.4307 92.1646,-136.4612 -28.5872,41.0904 -47.9644,115.6593 -92.1646,136.4612 z m 39.8252,-471.191481 c 0.6009,-9.07251 6.7591,7.13603 0,0 z M 286.97267,1175.2785 c -3.2885,-4.7496 -1.6123,4.8749 0,0 z m -250.422296,-2.9556 c -5.2053,-2.1542 4.4969,6.1358 0,0 z"
       style="fill:#000000;stroke-width:1.33333337" />
    <path
       inkscape:connector-curvature="0"
       id="path2624"
       d="m 258.97997,2792.2393 c -20.7858,-32.8599 -38.4455,-76.3424 -88.3839,-217.6229 C 77.350474,2310.8158 37.849374,2153.911 15.141074,1957.1249 5.4268737,1872.9427 -0.63432627,1566.7866 4.4866737,1418.9638 11.364974,1220.4182 24.115474,1121.9258 67.119174,935.15248 133.10157,648.57798 181.18907,519.70298 278.26597,369.27678 c 68.219,-105.7093 167.9812,-286.067551 190.7915,-344.928561 12.751,-32.9033903 42.5242,-26.7894503 54.7862,11.25041 2.7392,8.49746 13.1611,34.74654 23.1599,58.33129 45.7491,107.910551 84.7291,243.668461 111.2461,387.443661 23.112,125.3135 28.0446,175.2155 32.6995,330.8191 5.5847,186.686 -2.0597,329.45412 -28.2415,527.44062 -14.7812,111.775 -26.7498,233.2704 -32.1045,325.8983 -2.5224,43.6318 -8.3697,130.4666 -12.9942,192.9661 -20.4354,276.1855 -22.3268,402.4284 -8.1495,543.9389 14.0259,139.9999 12.0887,318.1515 -3.6558,336.201 -16.0124,18.3564 -60.1494,4.7057 -127.4286,-39.4113 -32.3854,-21.236 -35.565,-22.3928 -56.8178,-20.67 -12.382,1.0038 -22.5127,1.1057 -22.5127,0.2265 0,-0.8792 4.2935,-7.4058 9.5411,-14.5036 12.9134,-17.4663 12.0712,-37.5667 -4.2064,-100.3832 -28.8942,-111.5061 -74.0575,-349.9349 -80.0076,-422.3814 -1.2591,-15.3301 6.2055,20.9382 16.5881,80.5961 25.414,146.0291 42.3426,229.0088 64.478,316.0565 27.6256,108.6375 28.8299,111.1771 66.6083,140.4696 34.1121,26.4497 74.7348,48.5843 97.1676,52.945 10.8593,2.111 15.7586,0.5475 23.9487,-7.6426 9.6009,-9.6009 10.4881,-14.4854 13.133,-72.3054 4.5801,-100.1265 3.4186,-142.7008 -6.5509,-240.1222 -15.9606,-155.9666 -12.9865,-264.0175 20.3561,-739.5478 5.9533,-84.9051 16.6255,-200.5436 23.716,-256.9745 33.3745,-265.6139 40.1927,-368.9631 36.7975,-557.77132 -4.0026,-222.5976 -17.2391,-330.5059 -62.8569,-512.43213 -31.5109,-125.66728 -99.5032,-307.037121 -122.1482,-325.830791 -5.0892,-4.22366 -12.5887,7.87064 -44.8788,72.37521 -42.0192,83.940261 -66.3688,126.337261 -151.5033,263.794331 -30.5454,49.31808 -65.7596,109.13758 -78.2539,132.93218 -52.4382,99.8655 -107.4063,278.9623 -145.546996,474.2206 -8.5227,43.63182 -20.1193,102.48642 -25.77,130.78812 -5.6507,28.3017 -12.5236,71.7191 -15.273,96.4831 -2.7494,24.764 -7.9174,63.3572 -11.4846,85.7627 -8.5131,53.4722 -12.6517,415.5515 -6.1523,538.2664 9.1061,171.9323 32.5693,323.9493 71.4642,463.0133 47.993496,171.5946 165.911096,502.003 180.945696,507.0145 1.9587,0.6529 14.1514,-8.9565 27.0948,-21.3544 25.7095,-24.6258 68.4887,-56.6878 68.4887,-51.3306 0,1.8466 -19.2553,23.5521 -42.7895,48.2344 -23.5342,24.6822 -42.8308,46.324 -42.8813,48.0928 -0.2424,8.4829 -9.6974,1.419 -20.0887,-15.0084 z"
       style="fill:#2d2815;fill-opacity:1;stroke:none;stroke-width:4.28813553;stroke-miterlimit:4;stroke-dasharray:none" />
    <path
       inkscape:connector-curvature="0"
       id="path2634"
       d="m 323.38827,550.01458 c -9.7388,-12.3745 -36.7051,-64.2798 -34.5268,-66.458 1.2619,-1.262 5.0394,2.2147 8.3943,7.7259 3.3549,5.5112 12.3672,20.1097 20.0272,32.4411 7.6601,12.3314 13.1999,24.6033 12.3106,27.271 -1.1074,3.3224 -3.0622,3.0137 -6.2053,-0.98 z"
       style="fill:#2d2815;fill-opacity:1;stroke:none;stroke-width:4.28813553;stroke-miterlimit:4;stroke-dasharray:none" />
    <path
       inkscape:connector-curvature="0"
       id="path2636"
       d="m 262.20587,794.76958 c -10.1324,-19.0166 -17.5416,-35.4566 -16.4648,-36.5333 3.782,-3.782 37.5238,51.1227 37.5238,61.0587 0,5.5276 -0.5932,10.0502 -1.3182,10.0502 -0.7249,0 -9.6083,-15.559 -19.7408,-34.5756 z"
       style="fill:#2d5016;fill-opacity:1;stroke:none;stroke-width:4.28813553;stroke-miterlimit:4;stroke-dasharray:none" />
    <path
       sodipodi:nodetypes="ccssccccscscssssccsccssccsccccssccscscccssccccccccccsccccssccscccss"
       inkscape:connector-curvature="0"
       id="path2640"
       d="m 258.46697,2755.7901 c -4.8339,-11.2027 -24.1211,-33.325 -31.7427,-51.0135 -18.8429,-43.7319 -108.4868,-318.2192 -132.362796,-400.3128 -44.8406,-154.1773 -70.29,-316.4454 -80.6241,-497.908 -5.6164003,-98.6201 3.539,-488.3886 10.1969,-525.7004 2.3146,-12.9716 1.1698,-48.1191 4.8677,-79.9585 3.698,-31.8394 11.4681,-82.5619 17.267,-110.8636 5.7988,-28.3017 17.4762,-87.1563 25.9498,-130.78812 15.4612,-79.6127 45.119596,-198.4847 63.639596,-258.5441 l 9.9172,-32.161 102.9561,-1.1549 c 52.4571,-0.5884 94.3745,0.4651 93.1509,2.4449 -3.9351,6.3672 -44.9659,280.5293 -53.8175,359.60102 -28.9505,258.6172 -25.7185,482.8748 7.8707,859.1913 23.4138,262.3158 50.7431,411.9688 99.3455,657.1371 10.5792,53.3654 22.892,80.2405 22.892,88.5638 0,28.1182 -17.5142,47.2645 -75.9304,90.2613 -17.6886,13.0196 -41.8432,27.6 -49.9709,36.1069 -8.1277,8.507 -17.0363,26.0799 -19.7969,26.0799 -2.7606,0 -8.9743,-19.7785 -13.8081,-30.9813 z m 47.4449,-145.9209 c 25.8008,-26.0729 28.6443,47.8717 17.9992,47.8717 -7.7712,0 -53.5106,-35.5607 -53.5106,-28.2081 0,10.7879 11.896,4.2007 35.5114,-19.6636 z m -13.6452,-110.5582 c 7.1079,-4.3929 3.9642,22.8966 -8.7155,22.8966 -17.4238,0 -40.0129,-25.7925 -36.4281,-19.9922 2.9038,4.6984 36.3208,2.5484 45.1436,-2.9044 z m 14.4863,-83.1992 c 2.7852,-4.5066 -38.668,4.7968 -88.2619,-39.8644 -39.7097,-35.76 -25.277,-69.7768 -25.277,-62.8813 0,6.6471 99.3568,106.8774 105.9461,106.8774 2.7716,0 6.1883,-1.8593 7.5928,-4.1317 z m -20.9758,-198.0065 c 2.8756,-4.6528 -90.5236,-98.0313 -98.0531,-98.0313 -7.5791,0 30.1194,4.4481 68.7136,44.2213 22.4243,23.1094 21.0707,58.694 22.9337,58.694 1.863,0 4.7457,-2.1978 6.4058,-4.884 z m -15.4426,-208.4508 c 4.7952,10.5641 -88.6781,-119.5921 -103.049,-140.3173 -7.1609,-7.2297 -8.3766,-7.44 -8.3766,-1.4489 0,6.1411 24.7949,8.7636 90.701,99.7283 14.1543,19.536 20.9302,52.0646 20.7246,42.0379 z m -51.321,-199.3983 c 0.1167,-8.8404 -134.945096,-136.5572 -136.591896,-129.1637 -2.6177,11.7522 25.719096,-28.7023 69.784996,7.9294 23.8764,19.8484 43.5414,109.3253 49.2591,115.4531 11.3272,12.1396 17.4373,14.1526 17.5478,5.7812 z m 8.361,-248.7118 c 12.0498,75.8894 -69.2917,-1.3012 -88.6052,-39.4483 -19.445,-23.5839 18.7044,-57.7296 1.0118,-92.4119 -15.0393,-29.4809 -33.2901,-59.2693 -40.557296,-66.1964 -7.2673,-6.927 -15.4733,-8.3402 -13.2132,-8.4776 12.2907,-0.7474 57.699996,76.4853 110.065296,185.0935 17.5349,24.7186 31.6477,34.3864 31.2986,21.4407 z m 10.8538,-393.4186 c 3.3013,-5.3417 -3.957,-15.2954 -84.1472,-148.2949 -10.4954,-14.7405 -11.2669,-14.6721 -14.6855,-14.6721 -9.8267,0 -7.4523,6.7683 10.8645,30.9689 9.394,12.4116 14.085,14.7956 47.4842,79.4175 29.2836,54.7554 34.7511,61.8566 40.484,52.5806 z m 49.3246,-347.08582 c 0,-7.9853 -7.3539,-23.2839 -20.0976,-41.8094 -11.0537,-16.0687 -22.4291,-35.9022 -25.2785,-44.0743 -5.704,-16.3586 -14.6345,-22.5292 -14.6982,-10.1557 -0.064,12.4023 48.152,108.6327 54.43,108.6327 3.3857,0 5.6443,-5.0393 5.6443,-12.5933 z"
       style="fill:#2d5016;fill-opacity:1;stroke:none;stroke-width:4.28813553;stroke-miterlimit:4;stroke-dasharray:none" />
    <path
       sodipodi:nodetypes="cccsccccccccsssscccsscssssscsscscccscssccccssssccscssscsssscssssc"
       inkscape:connector-curvature="0"
       id="path2642"
       d="m 553.11177,2726.8833 c -25.3557,0.3648 -84.1073,-44.9788 -104.1631,-64.587 -10.1979,-9.9704 -36.7776,-92.0883 -47.118,-127.7296 -55.3525,-284.1391 -107.8338,-540.5839 -114.3878,-871.1791 -3.0484,-153.7659 -30.4243,-411.406 -26.6053,-417.5852 1.0807,-1.7486 11.3761,-22.7708 11.7607,-48.5691 0.7869,-52.7738 -12.6784,-130.1122 0,-226.37962 4.7829,-34.1979 47.2452,-78.0977 49.889,-97.5551 l 4.807,-35.3771 h 175.2419 l 175.242,-39.4182 4.5063,130.2809 c -0.061,137.98122 -9.1404,240.13852 -37.8149,473.02712 -14.7522,119.8145 -28.0909,270.3321 -49.1758,606.7712 -11.9843,191.2267 -10.4214,267.8735 1.7511,378.872 10.1123,92.2115 16.7865,149.0217 13.3579,240.1783 -2.8275,75.1753 -8.7018,92.1916 -15.8414,99.3312 -9.9171,9.9172 -15.9205,9.9033 -41.4448,-0.081 z m -6.4803,-155.9827 c 2.44,-3.948 -83.4028,-43.4537 -94.4216,-43.4537 -11.447,0 2.7292,-15.8608 29.908,-2.141 43.8725,22.1468 60.0549,52.8091 64.5136,45.5947 z m -79.5462,-126.992 c 14.2823,-5.4806 42.8145,32.0807 19.7283,32.0807 -22.4724,0 -53.4639,8.9379 -53.4639,15.4189 0,3.3843 22.8788,-43.3335 33.7356,-47.4996 z m -25.22,-63.2913 c 35.2186,-34.2658 61.9561,-28.2082 28.6189,-4.2986 -27.5081,19.7289 -53.2761,56.7892 -39.4856,56.7892 0.787,0 -7.6645,-34.4608 10.8667,-52.4906 z m -8.5312,-100.8102 c 0,0 -39.0186,-76.1202 -39.0376,-86.436 l 107.621,-28.2717 -10.5977,12.8644 c -20.4213,24.7896 -75.025,104.0149 -75.1223,108.8012 -0.166,8.1655 -44.9986,-96.1397 1.8919,-0.1494 z m -12.5342,-263.3442 c 5.2733,-3.6936 8.8812,-38.0817 13.5767,-46.7701 9.5575,-17.685 8.5791,-26.7248 47.0176,-74.7583 27.3453,-34.1714 74.0663,-1.604 60.2309,5.9543 -14.5295,7.9374 -39.3178,37.4638 -73.6176,87.689 -19.0618,27.9123 -34.6578,51.5507 -34.6578,52.5297 0,3.6777 -21.8179,-18.153 -12.5498,-24.6446 z m -45.2792,-261.0073 c 10.2097,-10.313 27.9361,-40.3713 46.8039,-70.5023 18.8678,-30.131 46.6081,-66.1442 54.2333,-78.1763 15.6117,-24.6345 48.7764,-33.076 37.5717,-23.8696 -3.536,2.9053 -22.4851,32.1942 -42.109,65.0864 -19.6239,32.8922 -45.0723,72.0028 -56.5519,86.9125 -39.3318,51.0839 -47.2907,63.5575 -40.5534,63.5575 3.4648,0 -9.6043,-32.6952 0.6054,-43.0082 z m 70.7106,-239.8248 c 34.7718,-66.8464 93.6589,-172.7383 130.032,-230.595 17.373,-27.6344 35.8664,-67.2182 22.2027,-50.4618 -23.2234,28.4799 -90.1446,151.1192 -125.7589,221.8979 -24.2347,48.1633 -61.2593,106.1445 -54.8499,106.1445 3.0308,0 15.7992,-22.8112 28.3741,-46.9856 z m -4.6746,-401.806 c 16.0156,-22.2576 24.4786,-58.6619 31.7778,-71.6335 7.2992,-12.9716 55.58,-36.7823 68.3779,-56.61852 22.8893,-35.4774 51.2214,-25.7347 40.65,-22.2362 -9.6616,3.1974 -136.1483,198.53592 -136.1483,210.25932 0,9.8822 -31.3229,-22.7127 -4.6574,-59.7711 z"
       style="fill:#2d5016;fill-opacity:1;stroke:none;stroke-width:4.28813553;stroke-miterlimit:4;stroke-dasharray:none" />
    <path
       sodipodi:nodetypes="ssccssccsccssscccccccscccscscccssccsscsc"
       inkscape:connector-curvature="0"
       id="path2644"
       d="m 329.37447,823.98498 c 16.1865,-129.429 64.9093,-366.2568 97.2629,-472.76692 15.1666,-49.92937 48.6101,-191.68648 54.6297,-231.55933 2.8485,-18.86779 6.6674,-35.338961 8.4865,-36.602571 1.8191,-1.26363 2.17,-6.64734 0.7797,-11.9638 -2.3763,-9.08691 -2.9995,-9.23941 -10.3977,-2.54416 -11.1639,10.10316 -15.6069,26.81679 -22.7107,85.431391 -3.5181,29.02866 -3.7748,48.13093 -15.3858,104.43133 -22.8165,77.1581 -65.8832,666.43356 -81.109,570.41626 l -36.2769,131.6893 -94.8707,-269.8631 c -45.8344,33.4295 -79.71,-15.9603 -79.71,-16.9373 0,-4.2004 45.9657,-133.5616 56.2168,-156.6286 14.5396,-32.717 47.3377,-94.6961 88.3936,-159.32949 58.3984,-91.93529 114.7227,-179.75829 155.7325,-258.878741 31.6919,-61.14354 37.0344,-87.24654 40.8737,-82.62035 15.1731,18.28239 59.4566,96.623181 86.2939,199.908451 61.4736,184.48803 95.7871,358.89873 98.8212,551.52873 l 1.3692,70.2254 -173.3818,25.7734 -176.76,-25.7734 z m 117.0144,-38.535 c 7.4743,-14.7085 28.4837,-49.9248 46.6874,-78.2585 59.0559,-91.9188 99.0934,-162.6974 98.7989,-174.6572 -0.2157,-8.7641 -19.437,15.5106 -38.9818,49.2309 -9.8917,17.066 -33.4736,55.1499 -52.4042,84.6308 -35.2079,54.8299 -75.7158,129.7577 -75.7158,140.052 0,12.798 8.7717,4.2769 21.6155,-20.998 z m -113.2042,-232.7232 c 2.6845,-6.9955 -27.8134,-60.6201 -41.543,-73.0452 -8.0161,-7.2544 -8.3768,-7.2478 -8.3768,0.153 0,10.0571 37.7606,79.3581 43.2405,79.3581 2.309,0 5.3147,-2.9097 6.6793,-6.4659 z m 125.9469,-6.427 c 10.2525,-5.487 79.3095,-96.7277 85.4463,-112.895 4.6728,-12.3104 3.0419,-20.0088 -4.2388,-20.0088 -2.1978,0 -13.8424,19.7791 -25.8769,43.9534 -15.4062,30.9471 -29.0188,51.2496 -46.0024,68.6102 -23.4745,23.9956 -25.8543,29.1847 -9.3282,20.3402 z"
       style="fill:#2d5016;fill-opacity:1;stroke:none;stroke-width:4.28813553;stroke-miterlimit:4;stroke-dasharray:none" />
    <path
       inkscape:connector-curvature="0"
       id="path2646"
       d="m 426.28667,809.13868 c 0,-0.3199 2.7679,-7.2324 6.1509,-15.3609 13.505,-32.4493 29.4811,-60.9683 67.0812,-119.7469 31.1463,-48.6898 45.7373,-72.4639 54.8978,-89.449 7.9663,-14.7709 24.0656,-39.6838 30.3716,-46.9986 l 3.9209,-4.5483 -0.894,4.5483 c -1.5075,7.6694 -22.791,49.112 -33.8696,65.9497 -5.7607,8.7553 -11.9495,18.8121 -13.753,22.3482 -6.0514,11.8655 -21.724,37.2505 -47.98,77.7134 -32.661,50.3336 -49.965,79.8567 -53.0744,90.5527 -2.2971,7.9016 -7.847,15.5732 -11.2664,15.5732 -0.8718,0 -1.585,-0.2618 -1.585,-0.5818 z"
       style="fill:#2d2815;fill-opacity:1;stroke:none;stroke-width:1.51608491;stroke-miterlimit:4;stroke-dasharray:none" />
    <path
       inkscape:connector-curvature="0"
       id="path2648"
       d="m 450.54397,1172.4414 c 0,-2.1632 14.4829,-29.8735 23.9684,-45.8592 4.7005,-7.9215 23.8085,-37.2577 42.4622,-65.1916 18.6537,-27.9339 37.6471,-57.0309 42.2077,-64.66012 7.9761,-13.3432 23.5176,-32.3693 26.4408,-32.3693 3.7212,0 -10.0223,24.7032 -34.1603,61.40142 -9.3237,14.1754 -20.8788,32.8512 -25.678,41.5017 -10.74,19.3593 -26.2953,42.6083 -52.3676,78.269 -18.5555,25.3793 -22.8732,30.4587 -22.8732,26.9081 z"
       style="fill:#2d2815;fill-opacity:1;stroke:none;stroke-width:1.51608491;stroke-miterlimit:4;stroke-dasharray:none" />
    <path
       inkscape:connector-curvature="0"
       id="path2650"
       d="m 500.57477,490.72248 c 0,-1.6789 21.9624,-44.8435 30.7249,-60.3863 7.307,-12.961 9.5935,-15.9381 11.2104,-14.5962 6.5636,5.4474 -2.1886,24.9878 -24.504,54.7083 -13.1528,17.5175 -17.4313,22.4938 -17.4313,20.2742 z"
       style="fill:#2d2815;fill-opacity:1;stroke:none;stroke-width:1.51608491;stroke-miterlimit:4;stroke-dasharray:none" />
    <path
       inkscape:connector-curvature="0"
       id="path2652"
       d="m 270.78187,1471.1125 c -1.386,-12.8304 0.3203,-171.6345 2.3253,-216.4211 5.788,-129.2861 16.4896,-240.9937 33.4783,-349.45762 3.3304,-21.263 8.804,-57.4217 12.1634,-80.3525 29.7119,-202.8053 66.9074,-380.1003 116.8131,-556.79889 5.8314,-20.64693 11.554,-39.81703 12.7169,-42.60022 3.7986,-9.09155 8.1607,-34.49296 11.3615,-66.16211 4.1729,-41.28569 3.1038,-37.90212 11.9756,-37.90212 h 7.3694 l -2.1835,11.74965 c -8.3211,44.77768 -46.056,199.6473 -51.9833,213.34738 -4.111,9.50173 -11.7892,39.26621 -18.9791,73.57171 -3.0583,14.5923 -7.8435,33.695 -10.6339,42.4504 -18.7479,58.8261 -56.089,262.0911 -74.224,404.0366 -2.1307,16.6769 -5.2191,37.8263 -6.8631,46.9986 -1.644,9.1723 -4.0556,27.2516 -5.3591,40.1763 -1.3034,12.9246 -3.7059,29.1816 -5.3388,36.1267 -1.633,6.945 -2.969,16.61682 -2.969,21.49272 0,4.876 -1.4112,15.9085 -3.1361,24.5167 -1.9025,9.4951 -2.7993,18.2523 -2.2799,22.264 0.5113,3.9492 -0.332,12.4983 -2.0939,21.2252 -3.5952,17.8084 -6.0635,45.4985 -6.5379,73.3457 -0.1953,11.4572 -0.9502,20.8379 -1.6777,20.8462 -0.7275,0.01 -0.4542,1.0616 0.6073,2.3406 2.32,2.7953 1.168,29.9989 -2.3732,56.0437 -1.7919,13.1798 -2.0741,26.0558 -1.3454,61.4015 0.5489,26.6238 0.1721,63.132 -0.931,90.207 -1.0191,25.0154 -1.6879,57.2512 -1.4861,71.635 l 0.3668,26.1525 h -3.8386 c -3.619,0 -3.9018,-0.5852 -4.944,-10.2336 z"
       style="fill:#2d2815;fill-opacity:1;stroke:none;stroke-width:1.51608491;stroke-miterlimit:4;stroke-dasharray:none" />
    <path
       inkscape:connector-curvature="0"
       id="path2654"
       d="m 322.85677,548.56008 c -8.539,-11.3199 -33.0178,-57.9778 -33.0178,-62.9337 0,-3.9523 4.0204,0.6904 12.3261,14.2342 4.286,6.989 8.4965,12.7073 9.3566,12.7073 0.8602,0 1.1479,0.416 0.6394,0.9246 -0.5086,0.5085 0.666,3.4444 2.6102,6.5241 5.4383,8.6148 14.4859,27.0824 14.4859,29.568 0,4.2812 -2.7275,3.8446 -6.4004,-1.0245 z"
       style="fill:#2d2815;fill-opacity:1;stroke:none;stroke-width:1.51608491;stroke-miterlimit:4;stroke-dasharray:none" />
    <path
       inkscape:connector-curvature="0"
       id="path2656"
       d="m 270.57917,808.96248 c -12.5237,-22.6006 -25.3461,-49.1387 -24.2648,-50.22 2.097,-2.097 24.7104,32.0191 32.497,49.0272 2.4717,5.3988 3.477,9.987 3.1577,14.4112 l -0.4685,6.4907 z"
       style="fill:#2d2815;fill-opacity:1;stroke:none;stroke-width:1.51608491;stroke-miterlimit:4;stroke-dasharray:none" />
    <path
       inkscape:connector-curvature="0"
       id="path2658"
       d="m 239.15197,750.42678 c -7.6933,-16.8123 -11.7906,-28.9275 -10.2905,-30.4276 2.5238,-2.5238 7.4976,3.1727 8.3557,9.5697 0.4709,3.5113 3.2474,11.2013 6.1699,17.089 2.9225,5.8876 4.7796,11.0578 4.1269,11.4893 -0.6527,0.4314 -1.4915,1.7329 -1.864,2.8921 -0.3725,1.1593 -3.2966,-3.6164 -6.498,-10.6125 z"
       style="fill:#2d2815;fill-opacity:1;stroke:none;stroke-width:1.51608491;stroke-miterlimit:4;stroke-dasharray:none" />
    <path
       sodipodi:nodetypes="csssssscc"
       inkscape:connector-curvature="0"
       id="path2660"
       d="m 228.94297,1167.1375 c -1.2916,-1.0423 -9.1563,-12.1396 -19.3303,-32.0727 -28.5437,-55.9233 -45.7199,-79.3474 -66.743,-105.512 -8.7462,-10.8852 -9.3001,-21.5557 -6.2836,-23.42 5.2447,-3.2414 25.615,48.8222 51.2534,93.918 4.2666,7.5046 18.0581,4.5861 19.5298,8.3384 1.4717,3.7523 6.8933,13.9859 12.048,22.7413 15.4858,26.303 18.4174,33.2049 15.3896,36.2326 -2.1314,2.1315 -2.9838,2.0987 -5.8639,-0.2256 z"
       style="fill:#2d2815;fill-opacity:1;stroke:none;stroke-width:1.51608491;stroke-miterlimit:4;stroke-dasharray:none" />
    <path
       sodipodi:nodetypes="ccccccsc"
       inkscape:connector-curvature="0"
       id="path2662"
       d="m 208.62997,1805.5982 c -3.2812,-3.4094 -22.8323,-15.8365 -40.0778,-34.3541 -41.8785,-34.5657 -57.1233,-48.2832 -67.4635,-60.7044 -8.946596,-10.7471 -16.492096,-23.6375 -15.484696,-26.4534 0.3719,-1.0398 3.7089,14.9283 15.484696,26.4534 11.5794,11.333 42.1016,21.4427 60.208,37.4446 31.7367,28.0481 47.1039,60.5033 52.1064,70.177 3.4698,6.7098 1.9714,-5.5553 -4.7731,-12.5631 z"
       style="fill:#2d2815;fill-opacity:1;stroke:none;stroke-width:1.51608491;stroke-miterlimit:4;stroke-dasharray:none" />
    <path
       inkscape:connector-curvature="0"
       id="path2664"
       d="m 377.31967,1790.6307 c 1.5827,-2.4997 13.0772,-17.6533 25.5433,-33.6748 33.5665,-43.1396 35.4712,-45.9835 70.8665,-105.8083 29.0344,-49.0735 34.8781,-58.6271 38.4851,-62.9175 l 3.8238,-4.5483 -0.9151,7.4548 c -1.352,11.0131 -11.6866,30.3154 -35.8248,66.9109 -11.7864,17.8692 -24.6148,38.1244 -28.5075,45.0116 -11.2739,19.9461 -40.0401,61.637 -50.1015,72.6121 -8.1217,8.8592 -21.8178,19.5045 -25.0943,19.5045 -0.6342,0 0.1418,-2.0452 1.7245,-4.545 z"
       style="fill:#2d2815;fill-opacity:1;stroke:none;stroke-width:1.51608491;stroke-miterlimit:4;stroke-dasharray:none" />
    <path
       inkscape:connector-curvature="0"
       id="path2666"
       d="m 463.21257,2000.2262 c 28.3297,-42.4987 40.2951,-58.8479 53.6734,-73.3381 9.4642,-10.2509 27.7678,-25.9793 28.907,-24.8401 1.2953,1.2952 -6.8948,12.2633 -27.8848,37.3427 -11.4289,13.6556 -23.2625,28.6202 -26.2969,33.2546 -3.0343,4.6345 -7.9949,11.4569 -11.0235,15.1609 -3.0286,3.704 -9.4252,13.557 -14.2146,21.8955 -4.7895,8.3385 -10.377,17.2075 -12.4167,19.7091 -3.7541,4.6042 -11.7424,9.8545 -14.9936,9.8545 -0.9756,0 9.9368,-17.5676 24.2497,-39.0391 z"
       style="fill:#2d2815;fill-opacity:1;stroke:none;stroke-width:1.51608491;stroke-miterlimit:4;stroke-dasharray:none" />
    <path
       inkscape:connector-curvature="0"
       id="path2668"
       d="m 259.80697,2007.8066 c -3.494,-3.0114 -65.0275,-86.4684 -82.4393,-111.8113 -12.8027,-18.6344 -17.1175,-26.3331 -15.5861,-27.8094 1.8789,-1.8112 7.9736,6.2085 86.6544,114.025 10.264,14.0647 18.6618,26.1744 18.6618,26.9105 0,2.2287 -4.0206,1.5036 -7.2908,-1.3148 z"
       style="fill:#2d2815;fill-opacity:1;stroke:none;stroke-width:1.51608491;stroke-miterlimit:4;stroke-dasharray:none" />
    <path
       inkscape:connector-curvature="0"
       id="path2670"
       d="m 296.00017,2415.1028 c -6.5575,-2.6198 -100.2928,-97.2488 -98.3022,-99.2395 1.1274,-1.1273 24.2157,17.8292 39.8361,32.7071 7.5046,7.1479 22.2621,20.6275 32.7944,29.9546 21.1803,18.7566 34.6714,32.8011 34.6714,36.0935 0,2.451 -3.5929,2.6443 -8.9997,0.4843 z"
       style="fill:#2d2815;fill-opacity:1;stroke:none;stroke-width:1.51608491;stroke-miterlimit:4;stroke-dasharray:none" />
    <path
       inkscape:connector-curvature="0"
       id="path2672"
       d="m 251.08957,2502.5219 c -2.6337,-1.9522 -2.7012,-2.4272 -0.6422,-4.5206 3.0134,-3.0639 15.8853,-5.4324 29.365,-5.4034 20.6365,0.044 17.2513,3.9994 -7.8427,9.1627 -17.1106,3.5206 -17.1554,3.5223 -20.8801,0.7613 z"
       style="fill:#2d2815;fill-opacity:1;stroke:none;stroke-width:1.51608491;stroke-miterlimit:4;stroke-dasharray:none" />
    <path
       inkscape:connector-curvature="0"
       id="path2676"
       d="m 273.92007,2630.5384 c -1.192,-1.9287 -0.4102,-3.2302 8.9656,-14.9252 11.6213,-14.496 41.34,-37.6103 44.4097,-34.5406 1.8613,1.8613 -4.9769,9.1344 -30.634,32.582 -1.6677,1.5241 -5.9695,6.2876 -9.5596,10.5855 -6.1702,7.3866 -11.0639,9.7249 -13.1817,6.2983 z"
       style="fill:#2d2815;fill-opacity:1;stroke:none;stroke-width:1.51608491;stroke-miterlimit:4;stroke-dasharray:none" />
    <path
       inkscape:connector-curvature="0"
       id="path2678"
       d="m 440.55747,2489.7561 c 1.8357,-2.9702 11.7561,-7.3347 21.3572,-9.396 11.4012,-2.4478 39.8664,-2.6642 43.9664,-0.3343 2.8792,1.6361 2.8027,1.8109 -1.5161,3.4618 -5.2907,2.0224 -30.1606,5.4488 -50.6447,6.9775 -10.7214,0.8001 -13.9868,0.6242 -13.1628,-0.709 z"
       style="fill:#2d2815;fill-opacity:1;stroke:none;stroke-width:1.51608491;stroke-miterlimit:4;stroke-dasharray:none" />
    <path
       inkscape:connector-curvature="0"
       id="path2680"
       d="m 519.55557,2565.9738 c -23.1665,-8.0898 -72.9125,-34.8927 -67.9283,-36.5994 1.0127,-0.3467 10.5641,3.0875 21.2252,7.6317 55.0892,23.4812 65.4923,28.0762 68.7816,30.3801 3.5332,2.4748 3.4795,2.5073 -3.9569,2.396 -4.1463,-0.062 -12.301,-1.7759 -18.1216,-3.8084 z"
       style="fill:#2d2815;fill-opacity:1;stroke:none;stroke-width:1.51608491;stroke-miterlimit:4;stroke-dasharray:none" />
    <path
       inkscape:connector-curvature="0"
       id="path2682"
       d="m 429.31877,2426.7978 c 0,-1.1558 2.7051,-6.1523 6.0113,-11.1034 13.1374,-19.6733 57.6643,-56.4556 57.6643,-47.6347 0,2.0915 -25.8582,29.0017 -27.868,29.0017 -2.0787,0 -13.2506,11.3561 -20.5529,20.8918 -2.733,3.5689 -6.9084,7.4918 -9.2786,8.7175 -5.3254,2.7538 -5.9761,2.7677 -5.9761,0.1271 z"
       style="fill:#2d2815;fill-opacity:1;stroke:none;stroke-width:1.51608491;stroke-miterlimit:4;stroke-dasharray:none" />
    <path
       inkscape:connector-curvature="0"
       id="path2684"
       d="m 418.08937,2286.6156 c -0.4378,-0.7083 1.1002,-3.9489 3.4176,-7.2014 2.3174,-3.2526 10.6064,-15.124 18.4201,-26.3809 16.4499,-23.699 50.5811,-69.5712 57.5303,-77.3203 l 4.7585,-5.3063 -0.9849,5.3063 c -1.8105,9.7542 -11.1516,24.8215 -29.6072,47.7567 -20.2768,25.1982 -28.3082,36.4139 -32.5698,45.4825 -1.5673,3.3354 -5.7455,8.9639 -9.2847,12.5077 -6.1925,6.2005 -9.9964,7.8796 -11.6799,5.1557 z"
       style="fill:#2d2815;fill-opacity:1;stroke:none;stroke-width:1.51608491;stroke-miterlimit:4;stroke-dasharray:none" />
    <path
       inkscape:connector-curvature="0"
       id="path2686"
       d="m 262.45167,2205.4454 c -22.4138,-20.1654 -72.4811,-75.4962 -72.6338,-80.2696 -0.085,-2.6693 13.7097,9.4752 34.8843,30.7103 12.1209,12.1555 29.518,28.9868 38.6601,37.4027 18.0719,16.6363 22.5619,22.5868 18.8262,24.9499 -1.2122,0.7669 -2.5891,1.4048 -3.0598,1.4175 -0.4707,0.013 -7.9754,-6.3821 -16.677,-14.2108 z"
       style="fill:#2d2815;fill-opacity:1;stroke:none;stroke-width:1.51608491;stroke-miterlimit:4;stroke-dasharray:none" />
    <path
       inkscape:connector-curvature="0"
       id="path2688"
       d="m 220.38127,1563.4756 c -8.6113,-1.2204 -69.9651,-93.081 -105.9905,-158.6918 -12.4809,-22.7305 -23.487996,-44.9008 -22.689096,-45.6997 1.1655,-1.1654 14.957596,15.0512 21.966296,25.8278 3.7379,5.7473 11.5281,20.4155 17.3116,32.5958 20.5064,43.1874 24.7048,51.1358 35.7213,67.6286 6.1267,9.1723 19.5219,26.5694 29.767,38.6602 28.3064,33.4058 32.8504,40.9456 23.9134,39.6791 z"
       style="fill:#2d2815;fill-opacity:1;stroke:none;stroke-width:1.51608491;stroke-miterlimit:4;stroke-dasharray:none" />
    <path
       inkscape:connector-curvature="0"
       id="path2690"
       d="m 464.18777,119.69031 c 0,-5.36955 4.8996,-27.900541 7.68,-35.332031 2.6867,-7.18076 10.7016,-17.5194 13.5818,-17.5194 1.35,0 0.8793,4.75525 -3.2111,32.43791 -1.5889,10.753151 -2.8889,20.068081 -2.8889,20.699851 0,0.63176 -3.4116,1.38506 -7.5813,1.674 -6.229,0.43162 -7.5812,0.0819 -7.5805,-1.96033 z"
       style="fill:#2d2815;fill-opacity:1;stroke:none;stroke-width:1.51608491;stroke-miterlimit:4;stroke-dasharray:none" />
  </g>
</svg>
