<?xml version="1.0" encoding="UTF-8" standalone="no"?>
<!-- Created with Inkscape (http://www.inkscape.org/) -->

<svg
   xmlns:dc="http://purl.org/dc/elements/1.1/"
   xmlns:cc="http://creativecommons.org/ns#"
   xmlns:rdf="http://www.w3.org/1999/02/22-rdf-syntax-ns#"
   xmlns:svg="http://www.w3.org/2000/svg"
   xmlns="http://www.w3.org/2000/svg"
   xmlns:sodipodi="http://sodipodi.sourceforge.net/DTD/sodipodi-0.dtd"
   xmlns:inkscape="http://www.inkscape.org/namespaces/inkscape"
   version="1.1"
   id="svg1023"
   width="1144.9303"
   height="2450.4739"
   viewBox="0 0 1144.9303 2450.4738"
   sodipodi:docname="1.svg"
   inkscape:version="0.92.4 (5da689c313, 2019-01-14)">
  <metadata
     id="metadata1029">
    <rdf:RDF>
      <cc:Work
         rdf:about="">
        <dc:format>image/svg+xml</dc:format>
        <dc:type
           rdf:resource="http://purl.org/dc/dcmitype/StillImage" />
        <dc:title></dc:title>
      </cc:Work>
    </rdf:RDF>
  </metadata>
  <defs
     id="defs1027" />
  <sodipodi:namedview
     pagecolor="#ffffff"
     bordercolor="#666666"
     borderopacity="1"
     objecttolerance="10"
     gridtolerance="10"
     guidetolerance="10"
     inkscape:pageopacity="0"
     inkscape:pageshadow="2"
     inkscape:window-width="1332"
     inkscape:window-height="749"
     id="namedview1025"
     showgrid="false"
     inkscape:zoom="0.08745059"
     inkscape:cx="-1203.1426"
     inkscape:cy="1954.0262"
     inkscape:window-x="0"
     inkscape:window-y="0"
     inkscape:window-maximized="0"
     inkscape:current-layer="svg1023"
     fit-margin-top="0"
     fit-margin-left="0"
     fit-margin-right="0"
     fit-margin-bottom="0" />
  <path
     style="fill:#000000;stroke-width:1.33333337"
     d="m 334.38551,2222.6733 c -59.26082,-73.746 -32.24754,-172.306 -82.14471,-248.8041 -23.61228,-59.8767 -67.86549,-133.8596 -12.87075,-190.401 C 142.71874,1685.3411 127.25132,1554.0875 87.933716,1444.4837 -11.164024,1377.6418 -38.264314,1266.038 68.247506,1191.8696 135.76344,1119.5972 16.901076,1027.8872 28.950516,943.16472 3.7159659,865.54782 1.3808159,734.67701 112.97475,710.26238 75.009226,490.28396 35.324296,163.86193 52.304176,303.72503 63.767816,237.79981 218.04328,202.37445 183.58549,213.32197 183.73591,141.7619 157.58032,21.09529 245.09777,0 c 52.6875,14.8131 111.08979,28.68049 156.33253,55.30584 32.85364,92.62328 14.95943,200.461 48.72246,290.00294 -16.40462,-386.4949 172.5566,-361.19612 210.1245,-241.48149 33.8853,-25.80666 95.3405,-42.81137 142.2513,-36.00758 -2.0479,55.40923 -115.9348,12.58811 -123.0806,80.27891 -37.2069,100.72601 -39.9219,208.34276 -19.2102,307.69977 7.7956,68.22802 28.0102,143.82283 25.6893,217.20209 -44.1837,36.50646 -25.7714,-177.88177 -30.4404,-93.53679 -24.7758,-142.91177 -60.2962,-290.29267 -3.9932,-431.92601 -6.1822,-82.32967 -141.4293,-100.5576 -137.4197,-25.05955 -17.7827,83.08738 -47.6844,215.49278 0.7837,291.76592 38.8782,130.08602 43.183,271.03685 83.9342,402.87735 -2.4076,-79.86169 139.1898,-119.4827 41.1511,-44.36967 -36.4748,126.13921 -55.3801,257.43347 -78.8918,386.30227 -33.7408,-95.8188 43.2156,-352.18719 33.9346,-318.3623 -64.2024,-82.95664 -36.6309,-93.75052 -52.4084,-155.53292 -22.9941,-100.04147 -18.3039,-210.58966 -71.4675,-301.02117 -83.13714,-22.70198 -164.35484,52.01025 -154.19146,136.9253 -34.02374,151.05304 6.63491,317.7637 -34.60256,463.70468 -21.43972,82.71511 -96.80153,-339.80102 -82.34352,-207.23267 -31.03154,-111.06277 -150.850674,26.20247 -161.680414,49.4622 46.41625,-131.22495 193.272234,-25.6387 57.41883,19.51903 -122.46275,-17.81478 -6.06369,297.32965 -9.10183,220.46515 43.509594,119.5489 112.811094,232.5491 152.184364,350.4574 -72.20563,-3.1646 -83.79147,-287.926 -165.213514,-190.87 -112.2538,72.775 -9.31187,162.9373 51.270434,229.7586 18.18413,114.48 62.72231,243.7244 158.21937,338.0618 34.33434,59.3837 119.02229,102.6523 124.82261,171.6152 -54.44192,-30.3478 -94.69432,-122.6244 -154.23099,-155.3615 -40.78063,56.7325 20.46809,122.5722 31.01213,180.3884 16.6201,58.0718 131.7005,-115.6247 60.38859,20.7698 -80.83056,110.3307 31.67472,231.3056 104.81302,309.2788 51.45654,37.2635 144.04204,128.6563 130.89214,0.9802 -5.9938,-150.0492 26.127,-300.5824 8.0843,-451.691 8.6281,-103.1867 -47.2717,-262.6057 -31.5881,-220.9566 59.4102,-19.6894 44.4555,68.5229 49.3972,105.8531 13.7578,153.2999 16.2283,305.8442 0.7049,458.5334 3.7991,65.8335 -10.0908,138.0112 -11.6577,196.1042 49.1364,52.1305 35.7759,-137.6775 105.5417,-250.1967 17.1782,-112.2028 56.4581,-220.2463 71.1026,-332.185 -67.5178,-78.9588 12.6684,-189.1686 4.3052,-283.3115 7.6857,-63.2813 26.9016,-130.1243 23.4049,-191.6343 52.9837,24.3551 5.3075,100.1734 6.0846,147.6086 -10.693,90.872 -26.8079,181.9704 -32.2975,272.9243 60.7831,70.439 14.0475,91.4717 11.0121,123.7383 -38.361,144.3248 -61.7869,294.2813 -97.585,440.6894 -51.8428,67.8671 24.8783,78.5845 11.3892,3.2832 66.064,-152.3552 114.9479,-315.5617 198.2331,-460.8887 17.1039,-39.7715 61.5062,-95.8813 58.0051,-131.2035 -84.4623,11.1639 -30.837,-108.3006 8.6256,-14.1016 -40.4741,-57.4555 -40.048,-261.0555 4.5841,-154.6655 27.9037,34.4807 37.35864,165.4959 9.9632,199.0565 -83.2758,149.9966 -159.8437,300.8407 -208.6557,464.5478 -27.7619,58.3197 -43.207,117.7841 -62.8399,176.5195 -55.4582,60.4154 -148.6287,19.1275 -201.798,-23.4873 C 438.33035,2347.437 383.89072,2290.3493 334.38551,2222.6733 Z M 84.215376,823.84798 c 94.546574,-35.24583 2.01004,-51.6406 0,0 z M 277.79936,953.302 C 299.75963,820.6358 250.20961,749.89424 229.57154,620.22349 204.6888,497.38406 191.36984,371.55296 179.97094,248.24272 89.288316,239.18982 57.706076,325.16036 98.913936,391.71165 114.83278,496.74193 134.63443,602.105 160.9688,704.54612 c 80.23481,3.54719 144.56748,367.72858 103.64782,204.05915 5.96616,14.16675 5.00385,32.33257 13.18274,44.69673 z m 0.53859,-209.28919 c 2.19433,-113.71189 -2.81708,-233.64202 45.41288,-339.74692 130.15133,-30.95 78.52196,-154.82526 71.58589,-251.05009 C 413.55049,22.38461 132.10497,28.80829 224.10479,38.61467 c -35.57198,127.00554 -10.19588,262.91544 -5.72608,393.01776 18.1493,104.15286 38.15307,209.73579 59.95924,312.38038 z m 683.96481,998.99689 c 4.3544,-13.3994 -6.9845,-3.2777 0,0 z m -615.86393,386.9222 c -8.50522,-111.9652 119.87773,-96.274 43.72913,-8.2704 -8.62528,15.6364 -35.00956,36.6152 -43.72913,8.2704 z m 202.56523,235.2257 c -66.4727,-196.2153 -44.2018,-406.6447 -88.1271,-606.4803 -49.44374,-102.1505 14.2801,-109.1937 17.4077,-24.0006 36.4258,145.9266 32.7489,295.8258 55.3936,442.2027 20.425,62.6715 19.4412,130.1278 30.3038,194.4998 l -8.1209,1.8313 z m 1.5317,-89.5948 c 2.0601,-5.3972 -4.9329,1.4247 0,0 z M 165.47582,1563.6717 c 31.36186,-104.5662 55.73875,37.3027 0,0 z M 38.659616,1324.6265 c 30.30303,-55.2796 133.685654,-88.3428 28.27515,16.0656 -12.21736,11.8342 -33.56553,-1.204 -28.27515,-16.0656 z m 340.118424,346.9808 c -50.43397,-120.3348 -150.10127,-268.9812 -59.70354,-395.5449 27.57969,28.132 -45.68904,115.9896 -5.00946,172.9592 12.33714,79.9042 66.30016,147.1539 96.77106,217.596 -2.19328,15.6156 -25.51601,21.7395 -32.05806,4.9897 z m -60.93866,-265.1538 c -1.93732,-94.0444 96.36186,-128.9513 74.07421,-19.3954 -12.56735,18.3785 -59.35504,62.5444 -74.07421,19.3954 z m 28.24509,-14.5607 c 63.12942,-32.9467 -17.70742,-63.0318 0,0 z m 502.16419,252.2786 c 48.144,-37.1179 96.44,-83.2991 127.6694,-141.9986 40.12984,-36.1091 115.66604,-96.181 52.02744,-147.6194 -78.40274,-108.6723 77.1541,-51.1667 46.5274,-31.7381 13.0338,-22.0836 9.29,-93.1522 30.0101,-84.3431 -41.2944,71.1273 -112.70864,-102.3332 -36.603,-51.3853 85.7423,58.2303 -42.7287,-131.4854 -59.4187,-111.6456 43.3934,-16.6855 115.5911,101.8381 136.469,155.1747 -6.2249,46.4319 -41.261,89.7815 -59.7961,128.1134 0.7878,26.1763 13.4446,84.1056 -34.7715,107.781 -34.2175,32.062 -79.32674,63.7315 -82.24954,113.4497 -33.0293,24.9099 -77.7612,82.9623 -119.8645,64.2113 z M 1100.8705,1327.04 c 3.1108,-4.5033 -3.8579,0.014 0,0 z m 4.8459,-100.2483 c -1.3782,-10.637 -5.7725,1.2946 0,0 z m -6.418,-11.4786 c 7.7529,1.2476 -3.2715,-4.2587 0,0 z m -317.39254,60.8798 c 37.4195,-155.7942 46.8844,-319.71121 71.8224,-478.5953 -109.1921,-23.85528 56.7201,-63.8384 23.0609,12.48616 -24.0998,157.06846 -38.8455,306.57524 -64.1366,463.18544 -5.6798,7.3391 -27.2262,16.8063 -30.7467,2.9237 z m 208.8676,143.4809 c -45.6343,-84.837 8.5988,-97.4607 40.64004,-17.7366 9.9907,24.5122 -33.45604,49.2947 -40.64004,17.7366 z M 362.7303,468.36558 c 159.40526,-141.08316 63.42836,103.34197 0,0 z M 937.03936,1259.7157 C 974.15216,1055.6003 1072.5421,865.78187 1099.1326,658.5914 865.23926,532.51946 983.83486,460.10628 922.23346,231.08439 c -47.5449,-37.56342 -85.5237,13.53998 -62.3229,62.19466 12.7387,110.83743 35.0081,212.81136 52.6137,319.45939 -5.0725,34.50877 26.244,99.20827 -13.5566,111.58538 -3.1219,-147.02284 -42.9733,-292.9454 -60.0792,-439.10049 1.0365,-62.47859 -43.9171,-160.26933 -36.3599,-217.40362 34.0762,28.94684 33.5546,101.33865 45.2897,135.85478 43.2507,-20.68867 109.4654,-16.1679 105.6227,42.85677 11.5857,77.4885 12.027,171.23192 21.7456,258.31756 -8.1853,48.26902 54.37644,28.64632 21.922,9.23969 53.46414,20.46383 154.47384,101.28448 124.19394,168.08065 -32.9165,135.98489 -73.5277,258.39887 -112.8412,393.27214 -24.95074,67.1618 -24.67074,125.917 -52.04964,193.2264 l -12.8977,-0.3972 -6.4738,-8.5556 z m -29.8739,-681.34521 c 2.0605,-5.39705 -4.9332,1.4243 0,0 z m -203.6739,232.99262 c 44.0731,-61.99437 116.5125,66.57909 37.7626,30.69945 -10.992,-11.39578 -34.2377,-13.99782 -37.7626,-30.69945 z m 71.4103,7.90601 c 4.2665,1.73239 -2.0199,5.15531 0,0 z m -94.6787,-641.39965 c 6.5846,-34.18505 72.849,-43.39114 95.4533,-26.29084 -11.9441,25.9891 -73.1737,78.79041 -95.4533,26.29084 z"
     id="path1576"
     inkscape:connector-curvature="0"
     sodipodi:nodetypes="cccccccccccccccccccccccccccccccccccccccccccccccccccccccccccccccccccccccccccccccccccccccccccccccccccccccccccccccccccccccccccccccccccccccccccccccccccccccccccccccccccccc" />
  <path
     style="fill:#e5ff80;fill-opacity:1;stroke:none;stroke-width:8.08578587;stroke-miterlimit:4;stroke-dasharray:none"
     d="m 245.25287,823.19153 c -26.61365,-76.0308 -41.16635,-101.53788 -64.98559,-113.90289 -18.06545,-9.37809 -35.73893,-74.20207 -60.42445,-221.62884 -6.8827,-41.10435 -17.84948,-91.69866 -24.370774,-112.43184 -12.60426,-40.07281 -3.73078,-93.7379 17.955644,-108.59264 14.99567,-10.27171 55.81788,-18.2444 60.25415,-11.76789 1.73264,2.52948 7.03122,43.39846 11.7745,90.81985 12.84897,128.45809 34.91187,258.73793 64.50373,380.89108 23.62536,97.52362 34.40292,167.83174 26.55136,173.20989 -3.59268,2.46091 -3.54059,2.58862 -31.25857,-76.59672 z"
     id="path2328"
     inkscape:connector-curvature="0" />
  <path
     style="fill:#e5ff80;fill-opacity:1;stroke:none;stroke-width:8.08578587;stroke-miterlimit:4;stroke-dasharray:none"
     d="M 243.20959,545.11503 C 215.71219,395.91971 203.98501,189.05833 218.15593,103.18186 l 11.19908,-67.86688 47.19417,11.77662 c 25.95691,6.47718 61.13139,21.38964 78.16575,33.13883 l 30.9713,21.36216 10.94075,92.04075 c 6.01733,50.62233 8.94123,105.65543 6.49755,122.29563 -5.30235,36.10608 -28.89401,65.85645 -60.8613,76.74964 -20.10211,6.84998 -25.56238,14.95772 -39.90177,59.24837 -9.13697,28.22183 -19.1076,84.58909 -22.15707,125.26051 -3.04942,40.67151 -6.00424,78.45305 -6.56633,83.95896 -2.34795,22.99939 -10.6135,-8.51908 -30.42847,-116.03142 z"
     id="path2330"
     inkscape:connector-curvature="0" />
  <path
     style="fill:#e5ff80;fill-opacity:1;stroke:none;stroke-width:8.08578587;stroke-miterlimit:4;stroke-dasharray:none"
     d="m 326.36933,2130.0114 c -7.4768,-42.2399 -1.12293,-75.6431 22.69437,-119.3074 28.666,-52.5532 25.49243,-60.7816 -13.21621,-34.267 -17.94987,12.2952 -35.28804,21.8593 -38.52918,21.2533 -12.2555,-2.2913 -54.41113,-136.1046 -50.11568,-159.0805 l 4.41245,-23.6008 17.96912,12.4763 c 9.88299,6.8619 37.39743,36.2156 61.1434,65.2306 50.15768,61.2873 76.15794,82.517 79.45579,64.8771 2.42741,-12.9833 -23.73072,-47.8428 -130.49346,-173.9015 -62.18362,-73.4226 -71.54124,-87.6367 -97.71599,-148.4305 -15.92074,-36.9775 -34.32599,-91.286 -40.90066,-120.6853 -10.96965,-49.0522 -15.8235,-58.2517 -58.956084,-111.7381 -42.40096,-52.5794 -45.39218,-58.1364 -30.55563,-56.7653 27.59349,2.55 79.600394,-66.9275 57.439414,-76.735 -7.11791,-3.1501 -21.908684,4.4562 -44.619234,22.9461 -21.55555,17.5496 -34.84957,24.5923 -36.37336,19.2696 -5.38336,-18.8041 16.01183,-55.4662 46.05689,-78.9219 l 31.929664,-24.9269 19.80447,24.3689 c 10.89241,13.4028 31.28598,55.2818 45.31904,93.0644 24.36453,65.5992 49.93318,102.6802 64.10689,92.9715 3.45762,-2.3684 1.53263,-17.5887 -4.27762,-33.823 C 215.29655,1340.5564 97.221026,1085.887 77.137276,1052.5425 56.067806,1017.561 38.402556,925.47796 46.063916,890.56761 c 4.2994,-19.59095 10.63429,-27.2921 27.53609,-33.47512 82.566144,-30.20454 103.645174,-59.50484 63.143134,-87.77033 -17.05944,-11.90559 -18.96125,-15.62875 -10.82845,-21.19955 39.68975,-27.18663 71.98436,6.51946 94.28949,98.41041 27.8961,114.92415 45.42038,158.72058 59.61776,148.99566 13.87876,-9.50665 25.55227,-113.75386 26.23772,-234.30869 0.84199,-148.08311 11.54693,-270.04031 26.88175,-306.25342 15.71039,-37.09993 67.12949,-71.62674 103.98117,-69.82114 46.74508,2.29029 61.71048,42.85379 93.94478,254.63785 15.6622,102.9027 25.924,145.76913 39.7154,165.90321 17.4223,25.4347 17.3152,33.74415 -1.6941,131.60212 -19.808,101.97009 -25.3711,214.55529 -10.7367,217.29129 4.0227,0.752 23.6901,-82.6655 43.7053,-185.3723 30.2011,-154.97507 40.0865,-190.43939 58.1145,-208.48976 11.9477,-11.96258 19.7993,-24.55878 17.4479,-27.99157 -7.3159,-10.68036 -42.3106,7.07635 -59.235,30.05628 -8.8808,12.05847 -18.0412,21.5703 -20.3563,21.13738 -6.0244,-1.12623 -20.0115,-66.16358 -43.1268,-200.53127 -11.0666,-64.32963 -28.6361,-141.14673 -39.0432,-170.70449 -10.4071,-29.55785 -20.1561,-72.0983 -21.6646,-94.53454 -3.5667,-53.05254 18.7514,-204.42805 32.7911,-222.41052 22.0072,-28.18728 84.6872,-17.3095 109.5688,19.01519 6.1403,8.96417 3.9555,44.6688 -5.827,95.22753 -16.2902,84.19239 -13.879,175.95627 7.7513,294.99187 6.5332,35.95321 13.0029,84.9338 14.3771,108.84568 2.7162,47.26425 16.48,75.83498 31.5575,65.50715 5.6402,-3.86341 0.2896,-76.66516 -13.1543,-178.98114 -19.7199,-150.08038 -20.9649,-182.62435 -9.5906,-250.70204 12.0378,-72.04782 14.0429,-76.85067 25.3602,-60.74724 6.8102,9.69031 18.2297,16.06885 25.6144,14.30732 22.6743,-5.4088 64.8415,-37.85951 64.2949,-49.47977 -0.6696,-14.23663 -42.7649,-17.68698 -70.654,-5.79099 -17.1332,7.30807 -21.1821,6.26082 -20.1226,-5.20427 1.7758,-19.21663 10.4187,-24.18931 64.5949,-37.16547 l 46.0766,-11.03608 16.1729,73.2573 c 8.895,40.29149 19.4152,97.72253 23.378,127.6247 3.963,29.90212 17.0471,111.62867 29.0759,181.6146 12.0288,69.98585 23.7384,153.71644 26.0212,186.06787 2.283,32.35152 5.2118,60.36974 6.5085,62.26281 1.2967,1.89307 7.8947,-1.76012 14.6623,-8.11827 14.4113,-13.53938 8.6998,-72.72783 -29.5414,-306.14354 -26.5095,-161.80865 -25.1316,-190.92058 8.8882,-187.77675 8.7691,0.81038 19.8728,7.20945 24.6749,14.22007 11.2544,16.43028 20.8264,88.90092 22.7491,172.23661 0.835,36.18719 4.2436,78.91701 7.5748,94.95495 9.0334,43.49115 44.1264,88.8512 93.98064,121.47614 24.1473,15.80223 46.2395,32.11053 49.0935,36.24069 8.4021,12.1583 -23.9067,146.1342 -69.1034,286.5564 -58.93984,183.12027 -92.12234,307.87977 -84.75004,318.64257 14.2258,20.7682 32.2713,-12.8347 51.2762,-95.4819 11.0826,-48.1957 24.24054,-87.8208 29.23984,-88.0559 11.7226,-0.5514 79.0978,97.4736 70.8699,103.1095 -3.4218,2.3439 -11.9614,-0.22 -18.977,-5.6974 -7.0155,-5.4775 -18.0205,-8.703 -24.4554,-7.1681 -20.7182,4.9423 -16.0339,31.2048 11.4232,64.0446 20.3096,24.2908 24.9527,35.0414 21.4545,49.6744 -4.1167,17.2199 -5.5448,17.8311 -18.3331,7.8467 -7.6279,-5.9554 -22.0579,-9.9303 -32.0668,-8.8332 -30.34024,3.3256 -30.24974,25.4957 0.2858,70.0745 31.6129,46.1517 28.6554,61.3547 -21.8037,112.0763 -17.36834,17.4587 -43.54464,48.7838 -58.16984,69.6115 -14.6252,20.8277 -43.0095,51.8304 -63.0763,68.8948 -51.9773,44.2006 -32.5911,64.7698 24.3102,25.7936 l 22.7157,-15.5598 5.9374,39.7369 c 4.6233,30.9421 2.8908,39.4553 -7.8279,38.4648 -10.0368,-0.9275 -14.9349,2.8338 -18.0832,13.8864 -5.2334,18.3722 12.6726,46.8933 26.9095,42.8623 20.6375,-5.8431 7.0664,32.6814 -45.4575,129.0401 -28.8872,52.9956 -82.3065,171.1817 -118.7094,262.6359 -36.4031,91.4542 -68.2828,165.8886 -70.844,165.4097 -7.0467,-1.3174 81.6669,-405.9707 95.6584,-436.3313 13.6438,-29.606 10.6776,-61.7903 -8.2399,-89.408 -13.5058,-19.7171 -2.663,-147.9656 26.5264,-313.7555 11.2687,-64.0039 11.7215,-88.2689 1.9143,-102.5864 -7.065,-10.3142 -14.6684,-16.0345 -16.8963,-12.7115 -2.2279,3.3228 -7.8164,40.8286 -12.4188,83.3461 -4.6025,42.5174 -16.9946,125.9819 -27.538,185.4766 -21.4964,121.3013 -22.4436,157.396 -4.8073,183.2208 9.7011,14.2052 5.1649,50.3627 -22.6153,180.2653 -19.1126,89.3729 -43.0046,181.657 -53.0934,205.0759 -10.0888,23.419 -28.0454,81.7528 -39.9036,129.6308 -20.0461,80.9371 -32.0765,108.8184 -38.0104,88.0911 -1.3464,-4.7032 -0.2145,-41.864 2.5154,-82.5797 12.7124,-189.6063 14.9301,-236.5384 15.2376,-322.4519 0.5112,-142.8898 -13.3261,-329.9398 -25.7496,-348.0769 -6.1742,-9.0137 -18.3204,-15.7456 -26.9915,-14.9599 -13.5218,1.2252 -13.551,11.9871 -0.2061,75.6104 22.3783,106.6894 26.2648,228.4088 13.7892,431.8589 -3.2333,52.7279 -5.7735,122.0659 -5.6447,154.0842 0.1288,32.0183 -2.4233,57.7182 -5.6712,57.1109 -3.248,-0.6072 -8.3701,-28.2133 -11.3826,-61.3466 -3.0125,-33.1334 -9.6597,-75.8774 -14.7716,-94.9868 -5.112,-19.1094 -15.5712,-101.4255 -23.2428,-182.9247 -24.3615,-258.8025 -49.0598,-370.7905 -75.81137,-343.7469 -6.80721,6.8816 -4.31825,31.2876 7.62977,74.8131 9.7531,35.5298 24.7786,142.0566 33.3899,236.726 19.5752,215.2015 23.8799,246.2917 45.1893,326.3704 9.466,35.5718 13.0171,63.892 7.8913,62.9337 -5.1257,-0.9583 -27.977,-15.3045 -50.7807,-31.8805 -56.52055,-41.0849 -154.23975,-171.7115 -162.23233,-216.8649 z m 51.32222,7.062 c 29.42516,-23.2828 42.86099,-54.8243 32.07629,-75.3005 -18.13134,-34.4246 -66.2306,0.7359 -66.78125,48.8169 -0.36731,32.0778 13.8874,42.9558 34.70496,26.4836 z M 179.41891,1573.4007 c 11.94028,1.1034 15.92205,-3.5756 19.54826,-22.971 6.1039,-32.6484 -14.78009,-38.4122 -30.36949,-8.3816 -12.21565,23.5314 -10.18632,29.4113 10.82123,31.3526 z m 231.60913,99.6706 c 1.28646,-6.881 -13.01614,-40.9987 -31.78349,-75.8172 -30.89165,-57.312 -74.48096,-167.8457 -75.60054,-191.7076 -0.24506,-5.2226 7.30126,-1.571 16.76952,8.1149 15.08139,15.4278 20.4754,15.7531 43.52135,2.6248 20.48806,-11.6713 27.47473,-21.2357 31.58947,-43.2445 10.25761,-54.8657 -30.51423,-76.9154 -61.00942,-32.9945 -20.91304,30.1204 -22.92947,27.928 -11.3217,-12.3102 11.35422,-39.36 3.87629,-68.1454 -11.84346,-45.5897 -29.82493,42.795 -39.03857,115.8288 -22.66384,179.6502 5.06513,19.7418 27.02568,76.6146 48.80113,126.3842 33.61569,76.8311 41.97759,91.0117 55.39692,93.9453 11.60683,2.5373 16.42644,0.1318 18.14406,-9.0557 z m 392.94012,-391.8585 c 10.2767,-5.0286 23.1639,-74.2739 47.4737,-255.084 18.3522,-136.49987 31.903,-250.31996 30.1126,-252.93368 -7.6827,-11.21607 -43.3212,-13.15409 -57.926,-3.15008 -13.6309,9.3369 -13.6499,12.03275 -0.134,19.0491 8.6592,4.49513 17.7284,11.06998 20.1536,14.6106 5.3028,7.74158 -35.0164,310.35496 -54.0917,405.98286 -13.7688,69.025 -10.7811,83.8529 14.4118,71.5252 z m 205.14724,154.3255 c 10.0933,-0.9146 18.6543,-6.7266 23.4143,-15.8961 10.0356,-19.3321 -27.1417,-75.9788 -46.78914,-71.2921 -20.872,4.9788 -19.1333,34.325 4.9469,83.4906 1.3844,2.8267 9.67694,4.4906 18.42794,3.6976 z M 390.18481,496.53733 c 16.56573,3.09711 48.85919,-18.1522 59.89535,-39.41165 11.2051,-21.58488 -4.533,-41.87617 -26.4819,-34.14324 -23.86164,8.40689 -58.69309,32.47126 -60.42748,41.74813 -2.23035,11.92966 12.31816,29.05924 27.01403,31.80676 z m 356.31645,349.88743 c 20.7816,6.51292 27.0716,5.28572 30.2589,-5.90387 2.213,-7.76925 0.6206,-19.09416 -3.5388,-25.1665 -11.8242,-17.26205 -47.2968,-27.38831 -61.6063,-17.58661 -17.6971,12.12212 0.8496,37.98984 34.8862,48.65698 z"
     id="path2332"
     inkscape:connector-curvature="0" />
  <path
     style="fill:#e5ff80;fill-opacity:1;stroke:none;stroke-width:2.85875726;stroke-miterlimit:4;stroke-dasharray:none"
     d="m 672.10436,2373.8719 c 0.6551,-6.5986 4.8944,-18.0519 9.4208,-25.4517 4.8937,-7.9999 11.3604,-27.6702 15.9519,-48.5223 8.8185,-40.0475 13.671,-49.4549 7.2418,-14.0391 -2.3603,13.0017 -3.4208,23.8024 -2.3566,24.0013 1.0642,0.1989 6.1759,-8.8707 11.3595,-20.1547 15.7704,-34.3304 14.2198,-22.1946 -2.0694,16.1971 -10.419,24.5563 -14.7188,38.6591 -13.5211,44.3483 4.1288,19.6134 -11.283,47.4593 -22.1273,39.9795 -5.4278,-3.7439 -5.2328,-2.9258 -3.8996,-16.3584 z"
     id="path2334"
     inkscape:connector-curvature="0" />
  <path
     style="fill:#e5ff80;fill-opacity:1;stroke:none;stroke-width:2.85875726;stroke-miterlimit:4;stroke-dasharray:none"
     d="m 345.28642,1378.2711 c -0.12035,-14.9289 10.4753,-26.1388 18.66378,-19.7456 2.73698,2.1368 4.75697,6.2583 4.48899,9.1588 -0.52556,5.6868 -11.23944,17.6699 -18.55364,20.7514 -3.96547,1.6707 -4.51338,0.4597 -4.59913,-10.1646 z"
     id="path2336"
     inkscape:connector-curvature="0" />
  <path
     style="fill:#e5ff80;fill-opacity:1;stroke:none;stroke-width:2.85875726;stroke-miterlimit:4;stroke-dasharray:none"
     d=""
     id="path2338"
     inkscape:connector-curvature="0" />
  <path
     style="fill:#e5ff80;fill-opacity:1;stroke:none;stroke-width:2.85875726;stroke-miterlimit:4;stroke-dasharray:none"
     d="m 306.59338,1379.4333 c 3.93994,-20.479 7.78698,-30.7171 8.2048,-21.8352 0.0874,1.8593 2.07322,2.924 4.41291,2.3659 3.01296,-0.7188 2.95603,5.9279 -0.19511,22.7826 -2.447,13.0885 -4.83177,23.602 -5.29947,23.3633 -0.46771,-0.2386 -3.24424,-1.232 -6.17002,-2.2074 -4.42816,-1.4763 -4.58791,-5.5768 -0.95311,-24.4692 z"
     id="path2340"
     inkscape:connector-curvature="0" />
  <path
     style="fill:#e5ff80;fill-opacity:1;stroke:none;stroke-width:2.85875726;stroke-miterlimit:4;stroke-dasharray:none"
     d=""
     id="path2342"
     inkscape:connector-curvature="0" />
  <path
     style="fill:#e5ff80;fill-opacity:1;stroke:none;stroke-width:2.85875726;stroke-miterlimit:4;stroke-dasharray:none"
     d="m 88.808436,810.56295 c 4.07593,-9.91073 21.075724,-19.66568 31.026274,-17.8039 10.20397,1.90916 5.33591,9.29489 -12.55317,19.04529 -18.371254,10.01317 -22.974584,9.70385 -18.473104,-1.24139 z"
     id="path2344"
     inkscape:connector-curvature="0" />
  <path
     style="fill:#e5ff80;fill-opacity:1;stroke:none;stroke-width:2.85875726;stroke-miterlimit:4;stroke-dasharray:none"
     d="m 107.24677,757.58518 c 2.59209,-2.59309 7.80265,-5.89494 11.57913,-7.33741 5.96255,-2.27745 6.4502,-2.01889 3.70556,1.96462 -2.33576,3.38986 -1.78658,5.68528 2.10417,8.79442 4.84524,3.87192 4.2462,4.07644 -7.5152,2.56597 -7.029,-0.90266 -13.18647,-1.55843 -13.68321,-1.45707 -0.49667,0.1013 1.2176,-1.93741 3.80955,-4.53053 z"
     id="path2346"
     inkscape:connector-curvature="0" />
  <path
     style="fill:#e5ff80;fill-opacity:1;stroke:none;stroke-width:2.85875726;stroke-miterlimit:4;stroke-dasharray:none"
     d="m 871.22096,364.49953 c -5.8422,-40.02127 -11.9257,-76.28585 -13.5189,-80.58794 -3.9012,-10.53459 -3.1859,-32.35043 1.383,-42.17619 5.8903,-12.66765 9.6222,-12.94084 6.8555,-0.50182 -4.125,18.54516 -1.907,47.52399 9.7569,127.47421 6.0666,41.58396 9.9311,74.02105 8.5878,72.08243 -1.3435,-1.93844 -7.2222,-36.26943 -13.0643,-76.29069 z"
     id="path2348"
     inkscape:connector-curvature="0" />
</svg>
