<?xml version="1.0" encoding="UTF-8" standalone="no"?>
<!-- Created with Inkscape (http://www.inkscape.org/) -->

<svg
   xmlns:dc="http://purl.org/dc/elements/1.1/"
   xmlns:cc="http://creativecommons.org/ns#"
   xmlns:rdf="http://www.w3.org/1999/02/22-rdf-syntax-ns#"
   xmlns:svg="http://www.w3.org/2000/svg"
   xmlns="http://www.w3.org/2000/svg"
   xmlns:sodipodi="http://sodipodi.sourceforge.net/DTD/sodipodi-0.dtd"
   xmlns:inkscape="http://www.inkscape.org/namespaces/inkscape"
   version="1.1"
   id="svg274"
   xml:space="preserve"
   width="60.833858"
   height="51.295135"
   viewBox="0 0 60.833858 51.295135"
   sodipodi:docname="0.svg"
   inkscape:version="0.92.4 (5da689c313, 2019-01-14)"><metadata
     id="metadata280"><rdf:RDF><cc:Work
         rdf:about=""><dc:format>image/svg+xml</dc:format><dc:type
           rdf:resource="http://purl.org/dc/dcmitype/StillImage" /><dc:title></dc:title></cc:Work></rdf:RDF></metadata><defs
     id="defs278" /><sodipodi:namedview
     pagecolor="#ffffff"
     bordercolor="#666666"
     borderopacity="1"
     objecttolerance="10"
     gridtolerance="10"
     guidetolerance="10"
     inkscape:pageopacity="0"
     inkscape:pageshadow="2"
     inkscape:window-width="1434"
     inkscape:window-height="760"
     id="namedview276"
     showgrid="false"
     inkscape:zoom="1.2642212"
     inkscape:cx="-151.38151"
     inkscape:cy="-24.075819"
     inkscape:window-x="0"
     inkscape:window-y="0"
     inkscape:window-maximized="0"
     inkscape:current-layer="g282"
     fit-margin-top="0"
     fit-margin-left="0"
     fit-margin-right="0"
     fit-margin-bottom="0" /><g
     id="g282"
     inkscape:groupmode="layer"
     inkscape:label="Plantos_Test2"
     transform="matrix(1.3333333,0,0,-1.3333333,-619.90502,930.66233)"><g
       id="g284"
       transform="matrix(610.6,0,0,789.1,-651.87568,22.757022)"><path
         style="fill:#000000;stroke-width:0.00051864"
         d="m 1.8359506,0.8557085 c -0.00265,-7.7304e-4 -0.00716,-0.001191 -0.00687,-0.004111 0.00129,-0.003291 0.00203,-0.00668 0.00273,-0.0100712 0.00445,-0.007832 0.010252,-0.0265391 0.019714,-0.0298289 0.00716,-0.003639 0.012957,-0.00554 0.018308,-5.23e-4 0.00351,0.001765 0.00628,0.004219 0.00829,0.007044 0.00208,0.00271 0.00392,0.005554 0.00543,0.008476 0.00108,0.003494 0.00125,0.007401 0.00449,0.0102391 0.002,0.001837 0.00396,0.003892 0.00673,0.005041 0.00288,3.7196e-4 0.00692,5.6735e-4 0.00875,0.002596 7.713e-4,0.002442 2.65e-4,0.006165 -0.00387,0.006338 -0.0036,6.5098e-4 -0.00724,5.419e-5 -0.010759,-5.799e-4 -0.0033,1.1201e-4 -0.00676,5.5816e-4 -0.0098,0.001666 -0.00581,0.002281 -0.012504,0.003898 -0.019018,0.002612 -0.00308,-7.3117e-4 -0.00729,-6.0028e-4 -0.0093,-0.002767 3.065e-4,-0.002608 0.00495,-0.002876 0.00763,-0.002479 0.00318,5.1058e-4 0.00651,0.00148 0.0097,5.2135e-4 -0.00257,-5.5728e-4 -0.00477,-0.001722 -0.007,-0.002802 -0.0035,-0.001228 -0.00743,-1.9792e-4 -0.00988,0.001951 -0.00273,0.001513 -0.00333,0.004937 -0.00706,0.00536 -0.00291,-6.594e-5 -0.00549,6.7076e-4 -0.0082,0.001316 z m 0.036487,-0.007791 c 0.00357,-8.7219e-4 -0.00207,-0.001657 0,0 z m -0.034474,-0.001264 c 0.00233,-7.7374e-4 -0.00125,-0.002617 -1.888e-4,-1.9641e-4 l 7.49e-5,1.4551e-4 z m 0.043689,-0.003137 c 0.00206,-8.5562e-4 -0.00451,-0.003586 -0.0021,-7.7394e-4 5.753e-4,4.0633e-4 0.00131,7.2923e-4 0.0021,7.7394e-4 z m -0.00909,-0.001962 c 0.00492,2.7983e-4 -0.00122,-0.002923 -0.00235,-0.004208 -0.00298,-0.002757 -8.989e-4,0.002254 -2.442e-4,0.003408 3.592e-4,8.711e-4 0.00164,8.1857e-4 0.00259,8.0022e-4 z m -0.016196,-7.0541e-4 c 0.00338,-4.1719e-4 -0.00351,-0.003903 -0.00146,-4.4802e-4 3.849e-4,2.9154e-4 9.242e-4,4.5014e-4 0.00146,4.4802e-4 z m -0.00527,-0.010106 c 0.00206,-0.001822 -7.985e-4,-0.002277 0,0 z m 0.014382,-0.00951 c 0.00176,-0.00137 -1.078e-4,-0.00447 -0.00172,-0.005354 -1.469e-4,0.001795 6.109e-4,0.003797 0.00172,0.005354 z"
         id="path3991"
         inkscape:connector-curvature="0"
         sodipodi:nodetypes="cccccccccccccccccccccccccccccccccccccccccccc" /></g></g></svg>