<?xml version="1.0" encoding="UTF-8" standalone="no"?>
<!-- Created with Inkscape (http://www.inkscape.org/) -->

<svg
   xmlns:dc="http://purl.org/dc/elements/1.1/"
   xmlns:cc="http://creativecommons.org/ns#"
   xmlns:rdf="http://www.w3.org/1999/02/22-rdf-syntax-ns#"
   xmlns:svg="http://www.w3.org/2000/svg"
   xmlns="http://www.w3.org/2000/svg"
   xmlns:sodipodi="http://sodipodi.sourceforge.net/DTD/sodipodi-0.dtd"
   xmlns:inkscape="http://www.inkscape.org/namespaces/inkscape"
   version="1.1"
   id="svg4100"
   xml:space="preserve"
   width="84.733482"
   height="89.112999"
   viewBox="0 0 84.733482 89.112999"
   sodipodi:docname="1.svg"
   inkscape:version="0.92.4 (5da689c313, 2019-01-14)"><metadata
     id="metadata4106"><rdf:RDF><cc:Work
         rdf:about=""><dc:format>image/svg+xml</dc:format><dc:type
           rdf:resource="http://purl.org/dc/dcmitype/StillImage" /><dc:title></dc:title></cc:Work></rdf:RDF></metadata><defs
     id="defs4104" /><sodipodi:namedview
     pagecolor="#ffffff"
     bordercolor="#666666"
     borderopacity="1"
     objecttolerance="10"
     gridtolerance="10"
     guidetolerance="10"
     inkscape:pageopacity="0"
     inkscape:pageshadow="2"
     inkscape:window-width="1262"
     inkscape:window-height="796"
     id="namedview4102"
     showgrid="false"
     fit-margin-top="0"
     fit-margin-left="0"
     fit-margin-right="0"
     fit-margin-bottom="0"
     inkscape:zoom="1.2642212"
     inkscape:cx="179.9739"
     inkscape:cy="-52.077023"
     inkscape:window-x="0"
     inkscape:window-y="0"
     inkscape:window-maximized="0"
     inkscape:current-layer="g4108" /><g
     id="g4108"
     inkscape:groupmode="layer"
     inkscape:label="Plantos_Test2"
     transform="matrix(1.3333333,0,0,-1.3333333,-4.1325735,828.58379)"><g
       id="g4110"
       transform="matrix(0,-610.6,789.1,0,-871.64082,715.48801)"><path
         style="fill:#000000;stroke-width:0.00051864"
         d="m 0.15403592,1.1607567 c 2.4833e-4,-0.00394 0.0116328,-0.00345 0.00998,-0.00697 -0.005083,-0.00411 0.005425,-0.00591 0.008114,-0.00865 1.1647e-4,-0.00323 -0.0101709,-0.00215 -0.0121749,-0.00553 -0.001168,-0.00549 0.007717,-0.00435 0.0117952,-0.00617 0.004341,-9.877e-4 -0.003495,-0.00168 -0.001886,-0.00413 0.00192,-0.00511 0.0106689,-0.00159 0.0145891,-0.00492 -0.001139,-0.00278 -0.007337,-0.00542 -0.0105402,-0.00347 -0.003413,-7.494e-4 -0.0128073,-0.0033 -0.006429,-0.00629 0.00515,-1.981e-4 0.0102679,0.00287 0.0152624,6.683e-4 0.002729,1.478e-4 0.004509,0.00127 0.007333,-2.388e-4 0.002835,7.079e-4 0.006261,0.00658 0.008768,0.00436 -0.002077,-0.00318 -0.009805,-0.00583 -0.00684,-0.0098 0.004967,-0.00294 0.01029,0.00174 0.0152172,0.00261 0.006219,0.00204 0.0130445,0.00256 0.0193556,0.0043 0.005204,0.00241 0.008951,0.00632 0.0135431,0.00938 0.007535,0.00561 0.0132642,0.01325 0.0133579,0.021516 -4.9843e-4,0.00421 0.003485,0.00729 0.005534,0.010857 0.00274,-0.00116 0.003908,0.00418 0.004044,6.69e-4 4.3012e-4,0.00158 9.7602e-4,0.00481 -0.001857,0.00578 -0.003373,0.00333 -0.006412,0.00675 -0.0110828,0.00912 -0.007382,0.0053 -0.0149787,0.010765 -0.0241927,0.014093 -0.009789,0.00215 -0.0200193,7.676e-4 -0.0297038,-0.00102 -0.004052,-6.76e-5 -0.00882,-9.672e-4 -0.008043,-0.00458 -0.002937,-0.00163 -0.005703,1.13e-4 -0.006065,0.00267 0.001943,-4.623e-4 0.005641,-0.00109 0.003129,0.0013 -0.002769,0.00308 -0.0105266,0.0028 -0.008136,-0.00198 0.002192,-0.00142 0.004062,-0.00485 -6.0916e-4,-0.00395 -0.003581,0.00126 -0.0113837,0.00187 -0.008633,-0.00296 0.001667,-0.00234 0.002291,-0.00437 -0.001481,-0.00542 -0.003176,-0.00291 0.001736,-0.00612 0.004402,-0.00814 0.002618,-0.00173 -0.004551,3.494e-4 -0.005729,-1.625e-4 -0.00334,-6.154e-4 -0.0104564,8.553e-4 -0.0110223,-0.00293 z m 0.009371,-0.00127 c 0.0045,9.062e-4 0.00923,8.5e-4 0.0138568,0.00107 9.7015e-4,0.00362 -0.00309,0.00572 -0.005594,0.00799 9.6408e-4,0.00226 0.007636,-0.00201 0.006977,0.00238 -0.001311,0.00271 -0.008294,0.00862 1.5339e-4,0.00704 0.004993,-0.00116 0.0111564,7.097e-4 0.0147973,-0.00327 0.006882,-0.00323 -0.004274,-0.00652 -0.00105,-0.00995 0.004628,-0.002 0.006072,-0.00526 0.005042,-0.00904 0.00289,-0.00273 0.00928,-0.00344 0.007918,-0.00813 0.003095,-0.00345 -0.004366,-0.00478 -0.002771,-0.00856 -0.001533,-0.00384 -0.002098,-0.00793 -0.003975,-0.011747 4.2262e-4,-0.00257 -0.005124,-0.00577 -0.004676,-0.00125 -0.002133,0.004 -0.008347,0.00168 -0.0123768,0.00322 -0.003832,6.154e-4 0.003947,0.00131 0.003361,0.00317 -3.3597e-4,0.00584 -0.010062,0.00256 -0.0146057,0.00499 -0.005847,0.00157 0.005762,0.00289 0.007525,0.00404 0.005766,0.00106 0.001728,0.00533 -0.001809,0.00543 -0.001587,5.579e-4 -0.007938,0.00436 -0.002642,0.0026 0.003334,-0.00268 0.009031,-0.00152 0.004774,0.00227 -0.004987,0.00114 -0.007885,0.00492 -0.0126157,0.00662 -8.0591e-4,3.26e-4 -0.001649,6.243e-4 -0.002291,0.00114 z m 0.0282797,0.020797 c 0.003737,0.00239 0.009502,0.00231 0.014219,0.00297 0.005987,4.248e-4 0.012071,-6.56e-5 0.0179649,-8.677e-4 0.006343,-0.00198 0.0119883,-0.00524 0.0172245,-0.00861 -0.004821,6.269e-4 -0.0104111,0.00237 -0.0150605,5.812e-4 -0.003125,-8.068e-4 4.2606e-4,-0.00129 0.001753,-0.00188 0.004552,-0.0017 0.009687,-0.00238 0.0147009,-0.00239 0.002431,0.00296 0.00851,-0.00407 0.007102,-0.00481 -0.003107,0.00249 -0.0106405,6.864e-4 -0.0124023,-0.00188 0.001077,-0.00241 0.0109707,1.438e-4 0.00462,-0.00257 -0.004778,-0.00129 0.001468,-0.00395 -0.001355,-0.00499 -0.002477,-0.0017 -0.008152,-0.00446 -0.005939,-0.00707 0.003171,0.00134 0.009902,0.00468 0.00813,0.00771 0.003028,-2.323e-4 0.008013,0.00547 0.005836,3.146e-4 -6.527e-4,-0.00416 -0.00272,-0.00787 -0.006897,-0.010658 -0.007668,-0.0065 -0.0168066,-0.011887 -0.0260629,-0.01696 -0.002886,-0.00145 -0.007243,-0.00377 -0.00606,8.666e-4 -5.6921e-4,0.00342 0.003677,0.0055 0.001469,0.00898 -7.6941e-4,0.00197 0.003255,0.00291 0.004732,0.00398 0.0048,0.00241 -0.003414,0.00528 -0.002631,0.00839 -0.001876,0.00393 -0.011089,0.00316 -0.008721,0.00842 -0.001259,0.00243 -0.004069,0.00405 -0.006274,0.00595 0.001824,0.00204 0.004914,0.00377 0.005104,0.00637 -0.001988,0.0039 -0.005815,0.00738 -0.0113631,0.008 l -9.117e-5,1.318e-4 z m 0.019113,-0.061616 c 0.00224,0.00203 0.002704,-0.00109 0,0 z m 0.004167,0.00564 c 0.002868,0.00385 0.0102894,0.00473 0.0141571,0.00832 0.005792,0.00374 0.0119879,0.00717 0.0167261,0.011762 0.003711,0.00237 -1.5517e-4,-0.00428 -6.1914e-4,-0.00552 -0.001933,-0.00383 -0.006151,-0.00651 -0.00937,-0.00966 -0.003843,-0.00305 -0.008447,-0.00533 -0.0129649,-0.00755 -0.002663,-7.397e-4 -0.007896,-0.00378 -0.007006,4.485e-4 -2.5419e-4,7.483e-4 -7.7135e-4,0.00143 -9.2316e-4,0.0022 z"
         id="path4114"
         inkscape:connector-curvature="0" /></g></g></svg>