<?xml version="1.0" encoding="UTF-8" standalone="no"?>
<!-- Created with Inkscape (http://www.inkscape.org/) -->

<svg
   xmlns:dc="http://purl.org/dc/elements/1.1/"
   xmlns:cc="http://creativecommons.org/ns#"
   xmlns:rdf="http://www.w3.org/1999/02/22-rdf-syntax-ns#"
   xmlns:svg="http://www.w3.org/2000/svg"
   xmlns="http://www.w3.org/2000/svg"
   xmlns:sodipodi="http://sodipodi.sourceforge.net/DTD/sodipodi-0.dtd"
   xmlns:inkscape="http://www.inkscape.org/namespaces/inkscape"
   version="1.1"
   id="svg4100"
   xml:space="preserve"
   width="150.33337"
   height="90.333984"
   viewBox="0 0 150.33337 90.333985"
   sodipodi:docname="2.svg"
   inkscape:version="0.92.4 (5da689c313, 2019-01-14)"><metadata
     id="metadata4106"><rdf:RDF><cc:Work
         rdf:about=""><dc:format>image/svg+xml</dc:format><dc:type
           rdf:resource="http://purl.org/dc/dcmitype/StillImage" /><dc:title></dc:title></cc:Work></rdf:RDF></metadata><defs
     id="defs4104" /><sodipodi:namedview
     pagecolor="#ffffff"
     bordercolor="#666666"
     borderopacity="1"
     objecttolerance="10"
     gridtolerance="10"
     guidetolerance="10"
     inkscape:pageopacity="0"
     inkscape:pageshadow="2"
     inkscape:window-width="1262"
     inkscape:window-height="796"
     id="namedview4102"
     showgrid="false"
     fit-margin-top="0"
     fit-margin-left="0"
     fit-margin-right="0"
     fit-margin-bottom="0"
     inkscape:zoom="1.2642212"
     inkscape:cx="75.351153"
     inkscape:cy="27.467302"
     inkscape:window-x="0"
     inkscape:window-y="0"
     inkscape:window-maximized="0"
     inkscape:current-layer="g4108" /><g
     id="g4108"
     inkscape:groupmode="layer"
     inkscape:label="Plantos_Test2"
     transform="matrix(1.3333333,0,0,-1.3333333,-332.64885,769.84971)"><g
       id="g4110"
       transform="matrix(0,-610.6,789.1,0,-88.55,701.25)"><path
         style="fill:#000000;stroke-width:0.00051864"
         d="m 0.20285408,0.45945097 c 0.004564,-0.004714 0.010717,-0.008216 0.0166396,-0.0118212 -0.005523,3.2754e-4 -0.009728,-0.005824 -0.002071,-0.005813 0.002963,-4.3683e-4 0.0151382,0.002834 0.007741,-0.001171 -0.00356,-0.004361 -0.0105717,-0.006671 -0.0152565,-0.009996 -0.003608,-0.004347 0.005356,-3.5167e-4 0.007662,6.2399e-4 0.004239,-0.001434 0.008366,0.004239 0.009338,-0.001027 0.006833,0.002307 0.0147949,0.004719 0.0226977,0.005836 0.007893,0.001574 0.0164301,0.003069 0.0220027,0.008059 0.006293,0.003978 0.0113313,0.009049 0.0136842,0.015129 0.001584,0.003332 0.005341,0.003428 0.005651,0.007377 0.00178,0.003196 9.9708e-4,0.006883 0.004657,0.009407 0.002031,0.007698 0.009784,0.0132393 0.0149587,0.0196428 0.002439,0.001095 0.001677,0.004244 0.002721,0.006234 0.001388,0.004638 -0.009153,0.005284 -0.0115581,0.009223 -0.0138749,0.0100287 -0.0224807,0.0233852 -0.0300368,0.0366379 -0.004293,0.005373 -0.0116419,0.007713 -0.0167329,0.0123744 -0.00595,0.003699 -0.0106317,0.008898 -0.0180513,0.0110517 -0.008386,-3.6357e-4 -0.004634,-0.009407 0.002253,-0.009495 0.007754,-0.004118 0.0136269,-0.0100607 0.0199357,-0.0153991 0.003809,-0.002263 -1.8325e-4,-0.004437 0.002818,-0.00682 -0.002826,-0.004682 0.0120122,-0.007676 0.009874,-0.009641 -0.004557,0.003555 -0.011355,-0.001369 -0.004535,-0.003792 0.002781,-0.001893 0.008756,-0.004611 0.002045,-0.004152 -0.004224,-0.004173 0.0157333,-0.00904 0.004614,-0.00723 -0.009871,0.001266 -1.6873e-4,-0.006382 0.004456,-0.006476 0.00347,-0.001043 0.008673,-0.002124 0.002256,-0.001723 -0.008762,9.7874e-4 -0.00397,-0.005459 0.002106,-0.004534 0.007947,-0.001646 -0.0131482,-0.002941 -0.003926,-0.007249 0.003216,-3.1068e-4 0.009093,-4.376e-5 0.002608,-0.001595 -0.0055,3.6714e-4 -0.009899,-0.006156 -0.001855,-0.005435 0.001718,-3.4199e-4 0.011685,0.001414 0.006155,-3.4266e-4 -0.004707,-0.002654 -0.0135702,-0.002645 -0.0154436,-0.007055 0.001253,-0.004025 0.013885,0.001848 0.0125421,-3.3741e-4 -0.005961,-0.003064 -0.013776,-0.005132 -0.0174554,-0.0100768 0.00193,-0.005093 0.0134553,0.002354 0.0137855,7.4852e-4 -0.003611,-0.003082 -0.0173873,-0.006399 -0.011686,-0.01104 0.003719,-4.8801e-4 0.0150087,0.00726 0.009022,0.001107 -0.004806,-0.004899 -0.012183,-0.007338 -0.0181124,-0.0110252 0.002708,-0.003742 0.0136016,0.005675 0.0130615,0.003067 -0.004352,-0.003551 -0.0109056,-0.006982 -0.0158349,-0.006675 -0.002277,-0.002499 -0.008572,-0.001184 -0.0102087,-0.005285 5.1262e-4,0.007476 -0.009006,4.4262e-4 -0.0129175,-0.001386 -0.006316,-0.001047 0.004721,0.003752 0.006317,0.004628 0.002725,0.001667 0.0135783,0.005944 0.006664,0.007681 -0.008039,-0.002126 0.004481,0.002732 0.006613,0.003739 0.003075,2.6772e-4 0.0115179,0.00707 0.004192,0.005164 -0.007323,-0.003366 -0.0145741,-0.006939 -0.0224351,-0.009501 0.002216,0.002243 0.006511,0.006741 -4.3903e-4,0.00824 0.004655,8.8423e-4 0.008982,0.005794 0.00308,0.007919 0.005563,0.001488 0.006342,0.005955 0.00749,0.0099 4.121e-4,0.004752 -0.0119358,0.006859 -0.00604,7.4007e-4 -0.006208,5.1298e-4 -0.003594,-0.005365 -4.5854e-4,-0.006289 -0.002802,-0.002228 -0.0142639,-9.4419e-4 -0.008556,-0.005725 0.002879,-7.7379e-4 0.009139,-0.002219 0.002533,-0.003209 -0.006435,-0.001336 -0.0128372,-0.002483 -0.0180459,0.00168 -0.00439,0.001791 -0.004677,0.004629 0.001043,0.004085 0.005859,-0.001498 0.0134981,0.00367 0.005381,0.00624 -0.007369,0.001135 -0.009449,0.008834 5.981e-5,0.007653 0.0102106,-0.001144 0.007216,0.007056 -1.8432e-4,0.008089 -0.003006,0.00168 -0.006983,0.005466 -8.3212e-4,0.003923 0.009054,-0.001867 0.006351,0.006467 9.283e-4,0.008506 -0.005701,0.003204 -0.004628,0.008482 0.002945,0.006053 0.003322,0.00507 -0.009564,0.007528 -0.009687,0.0131884 -0.00158,0.001936 -0.002301,0.0124273 0.001244,0.006126 7.5404e-4,-0.004005 0.007126,-0.005345 0.005183,-2.0341e-4 -0.002295,0.003368 0.009088,-0.001487 0.0061,0.004345 -0.002824,0.002932 -0.00465,0.006691 0.001975,0.007084 0.006457,0.003962 -0.004577,0.008146 -0.008115,0.0110328 0.003016,0.001365 0.0139191,-0.005973 0.0151916,2.1521e-4 -0.001622,0.002731 -0.005745,0.004424 2.2757e-4,0.003223 0.002389,-7.1961e-4 0.006454,-0.006749 0.0086,-0.002441 -0.004394,0.00247 -0.004991,0.008143 -0.00874,0.0100597 -3.5712e-4,-0.005545 -0.00457,0.003084 -0.008949,0.001945 -0.007058,4.7309e-4 3.937e-4,-0.007578 -0.008023,-0.007312 -0.006892,-2.5516e-4 -0.003793,-0.005375 -0.002487,-0.007089 -0.010116,4.3271e-4 -0.00173,-0.0101344 -5.3433e-4,-0.0131727 -0.007757,-2.0206e-4 -0.006927,-0.009181 -0.004936,-0.0133229 -5.381e-5,-0.003615 0.006844,-0.008187 0.00545,-0.0102562 -0.00806,-0.002947 6.7699e-4,-0.0101818 0.004283,-0.0136169 6.6341e-4,-0.002534 -0.0120719,-1.0707e-4 -0.00734,-0.005925 0.001174,-0.003846 0.0146248,-0.007479 0.003791,-0.008073 -0.009819,-7.0101e-4 -0.007038,-0.00907 -5.6414e-4,-0.0118044 0.001294,-0.002391 -0.0150346,-4.6808e-4 -0.009222,-0.006943 0.00217,-0.002136 0.007379,-0.005077 6.3374e-4,-0.004336 -0.001606,-3.4875e-4 -0.002697,-0.001378 -0.003939,-0.002165 z m 0.006463,-0.001103 c 0.003832,0.001105 0.0100243,-1.6647e-4 0.0128924,9.653e-5 0.002498,-0.001719 0.0160298,-0.001961 0.006646,-0.003812 -0.006164,-0.001118 -0.0112559,-0.004788 -0.0159443,6.3709e-4 -0.001244,9.5656e-4 -0.002859,0.001809 -0.003594,0.003078 z m 0.00362,0.086942 c 0.001661,0.003515 0.0105162,-0.002873 0.0115429,-0.003196 -0.005437,6.8261e-4 -0.006491,-0.008028 -0.009235,-0.002185 -0.00103,0.001707 -0.002029,0.003492 -0.002308,0.005381 z m 0.006698,0.008482 c 0.003527,0.001192 0.0124729,-0.002923 0.004479,-9.4287e-4 -0.001487,3.3137e-4 -0.002986,6.2937e-4 -0.004479,9.4287e-4 z m 0.009251,-0.0378955 c -0.001206,-0.004107 0.0108129,-0.008283 0.001403,-0.008838 -0.002637,-0.002655 0.001743,-0.004112 0.003696,-0.002055 0.009192,-0.001221 0.005006,0.006032 -2.1075e-4,0.007724 -0.004674,0.005326 0.0133284,0.003492 0.010316,0.0104165 -0.003257,0.002903 -0.0123189,0.0108462 -0.001509,0.01 7.8709e-4,0.003919 -7.9534e-4,0.0112258 -0.005997,0.0131507 2.5201e-4,-0.003569 0.006119,-0.0108643 -0.00184,-0.0109972 -0.005763,-0.005629 0.009837,-0.0108844 0.003351,-0.0147906 -0.002813,-0.002113 -0.008975,-4.9458e-4 -0.009209,-0.00461 z m 6.5494e-4,-0.0267537 c 0.004325,-0.003204 0.0151114,-0.002086 0.0192016,0.001076 5.5634e-4,0.004583 -0.009291,0.003421 -0.00619,0.008372 -0.002523,0.002702 -0.0128795,0.006203 -0.006234,6.1241e-4 0.003471,-0.002141 -0.00805,-0.001487 -0.003083,-0.005026 0.003182,-1.6442e-4 0.0162119,-0.003476 0.006846,-0.003711 -0.003158,-0.001271 -0.009386,0.002103 -0.0105406,-0.001323 z m 0.001946,-0.0442089 c 0.001402,0.00221 0.0129187,0.005456 0.005611,0.001395 -0.001585,-3.9244e-4 -0.004333,-0.003536 -0.005611,-0.001395 z m 0.0428442,0.0809665 c 0.004248,0.001214 0.009612,-0.007177 0.003261,-0.002572 -0.001197,7.604e-4 -0.002484,0.001506 -0.003261,0.002572 z m 0.002497,-0.060129 c 0.001998,0.002016 0.00787,0.003626 0.00212,8.248e-4 -7.0656e-4,-2.7494e-4 -0.001413,-5.4986e-4 -0.00212,-8.248e-4 z m 5.6617e-4,0.0527667 c 0.003444,6.6774e-4 0.0147386,-0.006131 0.0065,-0.00317 -0.002175,0.001013 -0.004668,0.001788 -0.0065,0.00317 z m 0.004004,-0.00767 c 0.002747,-3.5797e-4 0.013608,-0.001756 0.0109156,-0.002831 -0.003496,0.001203 -0.007682,0.001209 -0.0109156,0.002831 z m 0.001835,-0.0345021 c 0.002759,0.001994 0.007198,0.00237 0.001573,4.0384e-4 l -8.9175e-4,-2.9982e-4 z m 0.003546,0.0151144 c 0.001246,8.008e-4 0.002047,-4.2506e-4 0,0 z m 0.003126,5.0307e-4 c 0.002526,0.001341 0.0140122,0.004893 0.006724,6.087e-4 -0.002187,-3.5811e-4 -0.004488,-7.3347e-4 -0.006724,-6.087e-4 z m 1.916e-5,0.0115131 c 0.005524,-3.123e-5 0.0101761,0.001564 0.0129273,-0.003646 6.0816e-4,-0.002925 -0.003964,-0.005388 -0.001277,-0.001114 -0.001017,0.003588 -0.008131,0.003317 -0.0116507,0.004759 z m 4.3662e-4,-0.0177523 c 0.002157,0.001852 0.003818,-4.953e-5 0,0 z m 0.001502,0.0131856 c 0.004053,0.003041 0.002938,-0.003314 0,0 z"
         id="path4114"
         inkscape:connector-curvature="0" /></g></g></svg>