<?xml version="1.0" encoding="UTF-8" standalone="no"?>
<!-- Created with Inkscape (http://www.inkscape.org/) -->

<svg
   xmlns:dc="http://purl.org/dc/elements/1.1/"
   xmlns:cc="http://creativecommons.org/ns#"
   xmlns:rdf="http://www.w3.org/1999/02/22-rdf-syntax-ns#"
   xmlns:svg="http://www.w3.org/2000/svg"
   xmlns="http://www.w3.org/2000/svg"
   xmlns:sodipodi="http://sodipodi.sourceforge.net/DTD/sodipodi-0.dtd"
   xmlns:inkscape="http://www.inkscape.org/namespaces/inkscape"
   version="1.1"
   id="svg274"
   xml:space="preserve"
   width="169.90491"
   height="136.49481"
   viewBox="0 0 169.90491 136.49481"
   sodipodi:docname="3.svg"
   inkscape:version="0.92.4 (5da689c313, 2019-01-14)"><metadata
     id="metadata280"><rdf:RDF><cc:Work
         rdf:about=""><dc:format>image/svg+xml</dc:format><dc:type
           rdf:resource="http://purl.org/dc/dcmitype/StillImage" /><dc:title></dc:title></cc:Work></rdf:RDF></metadata><defs
     id="defs278" /><sodipodi:namedview
     pagecolor="#ffffff"
     bordercolor="#666666"
     borderopacity="1"
     objecttolerance="10"
     gridtolerance="10"
     guidetolerance="10"
     inkscape:pageopacity="0"
     inkscape:pageshadow="2"
     inkscape:window-width="1434"
     inkscape:window-height="760"
     id="namedview276"
     showgrid="false"
     inkscape:zoom="1.2642212"
     inkscape:cx="-7.9962571"
     inkscape:cy="109.83133"
     inkscape:window-x="0"
     inkscape:window-y="0"
     inkscape:window-maximized="0"
     inkscape:current-layer="g282"
     fit-margin-top="0"
     fit-margin-left="0"
     fit-margin-right="0"
     fit-margin-bottom="0" /><g
     id="g282"
     inkscape:groupmode="layer"
     inkscape:label="Plantos_Test2"
     transform="matrix(1.3333333,0,0,-1.3333333,-415.99626,912.62959)"><g
       id="g284"
       transform="matrix(610.6,0,0,789.1,-651.87568,22.757022)"><path
         style="fill:#000000;stroke-width:0.00051864"
         d="m 1.697028,0.83855957 c -0.00787,-0.00251 -0.010954,-0.009936 -0.014585,-0.0153358 -0.00736,-0.002177 -0.014357,-0.003316 -0.022312,5.659e-5 -0.00326,0.002366 -0.00836,0.004315 -0.00899,3.5993e-4 -0.00667,0.002548 -0.010203,0.011774 -0.018814,0.0106344 -0.00243,-0.005074 0.00804,-0.009534 0.00306,-0.0132724 8.339e-4,-0.00531 0.013123,-0.0127504 -5.4e-4,-0.0106337 -0.00484,0.001216 -0.00829,-0.00118 -0.0042,-0.004829 0.00158,-0.001717 -0.01372,-5.169e-4 -0.00758,0.004585 3.825e-4,0.004251 0.013975,0.002688 0.00807,0.008725 -0.00455,-0.002585 -0.012864,8.3691e-4 -0.012552,-0.005857 3.328e-4,-0.005954 -0.00426,-0.00695 -0.010587,-0.006141 -0.00349,-0.005906 0.010716,-0.004228 0.015585,-0.005498 0.00636,-6.145e-5 0.023464,-0.007373 0.020793,0.002256 -0.00919,0.005734 0.013995,-0.004881 0.00715,0.004098 -0.00353,0.003626 -0.015313,0.0126848 -0.00402,0.0140825 0.00527,-0.001056 0.013652,-0.003095 0.011723,-1.7518e-4 0.00609,-0.001377 0.017317,-0.003467 0.014738,-0.009811 5.566e-4,-0.0051 8.776e-4,-0.013587 0.00576,-0.0160778 -5.681e-4,0.006131 -0.00253,0.0122194 -0.00212,0.0184345 0.00526,-0.001494 0.010297,-0.00209 0.00939,0.003737 0.00251,0.005458 0.00378,0.0116482 0.00952,0.0157695 0.00258,-0.007349 0.00582,-0.0147272 0.011006,-0.0211916 0.00825,-0.009596 0.00969,0.004416 0.015504,0.006604 0.00415,-0.002764 0.00754,-0.002872 0.010719,7.5873e-4 0.0059,-0.001053 0.0082,0.009588 0.013631,0.0121299 -0.00368,-0.005341 -0.00814,-0.015668 4.184e-4,-0.0196088 -0.00382,-0.00691 0.00522,-0.008165 0.011025,-0.006824 0.00558,-0.002351 0.012274,0.00617 0.013741,-0.001481 -0.00231,-0.002607 -0.011335,-0.008405 -0.00314,-0.0108702 0.010238,-0.001245 -0.00685,-0.004556 -0.00984,-0.005707 -0.00907,-0.003389 -0.018568,-0.005469 -0.02869,-0.004417 -0.00294,-0.001566 0.00336,-0.009523 0.00449,-0.004512 0.0037,-3.6361e-4 0.012039,0.002504 0.00994,-0.002701 0.00169,-0.005162 0.020557,-0.002169 0.017868,-0.007263 3.035e-4,-0.004223 0.00321,-0.007046 -0.00491,-0.006534 -0.00423,5.612e-4 -0.018577,-0.002124 -0.00705,-0.00311 0.00782,0.001972 0.020079,-0.00376 0.024369,0.00288 -0.00123,0.003616 0.00822,0.005561 0.00108,0.009267 -0.00547,0.001524 -0.011047,0.003013 -0.016212,0.005202 0.00103,0.003963 -0.005,0.006982 0.00307,0.007256 0.00655,0.001907 0.021422,0.003954 0.017286,0.0113475 -0.00299,0.002211 -0.011717,2.8296e-4 -0.00534,0.004536 0.00638,0.005224 0.013027,0.012298 0.011307,0.0198584 -0.00635,1.1802e-4 -0.013373,-0.008103 -0.021279,-0.004611 -0.00664,0.002934 -0.021481,0.006094 -0.015961,0.0141212 0.00476,0.005473 -0.00253,0.011833 -0.0074,0.004717 -0.00332,-0.003023 -0.00522,-0.006478 -0.010447,-0.005806 -0.00168,-0.008542 -0.011843,0.004016 -0.013492,-0.004305 -0.00367,-0.004896 -0.00851,-0.0132162 -0.011727,-0.003777 -0.00553,0.005594 -0.00338,0.0141707 -0.00948,0.01893 z m 0.050334,-0.0200634 c 0.00784,-0.003173 -9.537e-4,-0.004881 0,0 z m 0.00457,-0.00258 c 0.00356,-0.001934 0.012558,-0.005096 0.00303,-0.005247 -5.726e-4,0.001303 -6.474e-4,0.003961 -0.00303,0.005247 z m 0.02648,-0.006139 c 0.00304,-0.004391 -0.00771,-0.002091 -0.00138,-1.6893e-4 z M 1.6997,0.80885085 c -0.00318,-0.002313 -0.00389,-0.0102507 -0.00155,-0.0125106 0.00212,0.003548 0.004,0.009054 0.00155,0.0125106 z m -0.1002888,-0.001832 c -0.0063,-0.003494 0.0094,-0.009505 -3.862e-4,-0.0124561 0.00851,-0.005862 -0.00122,-0.0122468 5.207e-4,-0.0189136 0.00145,-0.003161 -0.00206,-0.004914 -0.0044,-0.007039 -0.00379,-0.005934 -0.00877,-0.0108852 -0.016572,-0.0134962 8.686e-4,-0.004628 0.00825,-0.003259 0.00675,-0.008824 0.00734,-0.005857 0.015997,-0.00262 0.02411,0.001034 -0.0016,-0.006083 -0.011334,-0.008352 -0.014621,-0.0137981 -0.00693,-0.004633 -6.394e-4,-0.0148999 0.00776,-0.009346 0.00478,0.002771 0.00904,0.005512 0.014164,0.004489 0.00801,0.001981 0.010078,0.0135422 0.018881,0.007367 0.00442,-0.003487 0.011831,-9.3068e-4 0.014788,-0.005363 0.00817,5.6315e-4 0.01528,-0.005034 0.022535,-0.007479 0.00589,0.00106 0.016764,-6.256e-5 0.01556,-0.006754 0.00255,-9.953e-4 0.00567,-7.37e-6 0.0037,-0.004408 -1.599e-4,-0.002905 0.010368,-0.004874 0.00695,7.0708e-4 1.397e-4,0.007103 2.656e-4,0.0143984 0.00191,0.0213254 -0.00133,-0.00544 0.00598,-0.0123578 0.00811,-0.0038 0.00172,-5.4523e-4 0.010275,-0.0057 0.010711,7.3832e-4 0.00161,0.002523 0.013979,-0.005238 0.012913,0.002345 -0.00143,0.003578 -0.00788,0.0127793 -2.94e-5,0.00618 0.0049,-0.004067 0.016494,-0.004622 0.014309,0.002913 -0.00124,0.007279 -0.0068,0.0134753 -0.012014,0.0194322 -0.00151,0.003165 0.00735,-0.001309 0.00567,0.003487 0.010832,-0.001781 -0.00481,0.008881 -0.00955,0.008202 0.00271,-0.002312 0.00598,-0.009071 -0.00101,-0.004853 -0.00405,-0.006535 0.00701,-0.0121961 0.00968,-0.0181739 0.00395,-0.004159 0.00209,-0.0116274 -0.00516,-0.006414 -0.00736,0.002937 -0.010432,0.0148666 -0.017687,0.0145019 3.392e-4,-0.006842 0.0088,-0.0115602 0.008,-0.0189465 0.00434,-0.008265 -0.01353,0.003946 -0.010431,-0.00576 -0.00354,0.005267 -0.011021,-0.00144 -0.011769,0.005154 -0.0028,0.004555 0.00161,0.0164231 -0.00768,0.0151932 -0.00387,-0.00591 -0.00316,-0.0153496 -0.013031,-0.017433 -0.00434,-8.615e-5 -0.011667,-0.004937 -0.00904,0.001424 -0.00376,0.005566 -0.016173,-0.003601 -0.018864,-2.6076e-4 0.00277,0.00262 0.00651,0.009675 2.579e-4,0.004109 -0.00674,-0.00932 -0.00888,0.004424 -0.014542,0.006395 -0.00868,-0.001498 -0.00858,-0.0104979 -0.017679,-0.0106136 -0.00732,-0.002665 -0.014585,-0.005173 -0.021601,-0.008923 -0.00781,-0.004317 0.00237,0.006194 0.00395,0.0087 0.00249,0.004525 0.020347,0.009846 0.0099,0.0141609 -0.00733,0.001562 -0.014371,-0.005026 -0.020825,-0.001689 -0.00437,0.006259 0.00329,0.0103775 0.010534,0.009614 0.00641,0.005262 0.01535,0.008204 0.024661,0.008361 0.011254,0.00389 -0.00377,0.009066 -0.00986,0.008827 -0.0054,2.2528e-4 4.5e-5,0.007103 -0.00594,0.008736 0.00838,6.0329e-4 0.00962,0.00752 0.00127,0.009456 -0.00646,0.002853 -0.00957,0.00854 -0.014919,0.0118921 z m 0.1061424,-9.4488e-4 c -0.00766,-0.003033 0.0027,-0.007868 0.00231,-0.001892 -3.37e-4,7.8742e-4 -0.00117,0.001752 -0.00231,0.001892 z m 0.034138,-0.004934 c -0.00696,-0.002759 -0.0069,-0.010347 -0.015302,-0.0126101 -0.00577,-0.003871 -0.014897,-0.0112622 -0.019213,-0.002933 -0.00283,0.002431 -0.00438,0.005444 -0.00922,0.003934 -0.00674,-0.001232 0.00474,0.006073 -0.00143,0.00801 -0.00921,2.9896e-4 -0.012795,-0.009247 -0.02039,-0.0122332 -0.00686,-0.001388 -0.00251,0.0113699 -0.00848,0.008659 -0.00362,-0.002509 -0.00167,-0.0148354 -0.0076,-0.006926 -0.00465,0.003198 -0.00762,0.0124809 -0.012698,0.0124115 0.00102,-0.006231 0.00817,-0.0106262 0.012613,-0.0156171 0.00256,-0.003064 0.00561,-0.005898 0.00769,-3.5119e-4 0.00227,0.002789 0.00599,-0.006168 0.01133,-0.002397 0.00415,8.9749e-4 0.00771,0.009912 0.00905,0.00323 0.00319,-0.004118 0.01015,0.0042 0.011013,-0.002113 0.00147,-0.005561 0.014668,-0.002243 0.011852,-0.008683 -0.00561,2.5357e-4 -0.00852,-0.0094 -0.014114,-0.005436 -0.00624,0.008346 -0.013186,-0.005836 -0.017467,-0.002787 -0.00281,0.008814 -0.015147,-0.005405 -0.015143,0.004125 -0.00437,0.002129 0.00991,0.006728 9.945e-4,0.00881 -0.00358,-0.003665 -0.012289,-0.006509 -0.01245,-0.0104948 0.00221,-0.003694 0.0074,-0.001035 0.00528,-0.005971 0.00249,-0.006744 0.00875,-4.2999e-4 0.0136,5.0217e-4 0.00394,-0.002409 0.00999,-0.006533 0.014958,-0.001154 0.00448,0.004874 0.00778,0.004355 0.011739,-9.439e-5 0.00655,0.00269 0.012923,0.006493 0.019786,0.006604 0.00546,0.003452 -0.00543,0.009894 -0.0017,0.0112272 0.00855,0.003673 0.015408,0.009456 0.023076,0.0141529 0.00534,0.002522 0.00243,0.004494 0.00281,0.008103 z m -0.013159,-0.002523 c -0.00523,-0.00202 -0.015808,-0.005604 -0.014698,-0.0103331 0.00565,4.6806e-4 0.013167,0.00715 0.014698,0.0103331 z m 0.044559,-0.002018 c 0.00238,-0.001229 -0.0023,-0.001076 0,0 z M 1.6053949,0.7954329 c 0.00275,-0.002048 0.00916,-0.006578 0.00132,-0.004042 -0.00142,0.001076 -0.00135,0.00264 -0.00132,0.004042 z m 0.021008,-0.0121201 c -9.803e-4,-0.003488 0.017459,-0.0104828 0.008,-0.004041 -0.00248,0.001511 -0.00495,0.003287 -0.008,0.004041 z m -0.01989,-4.7709e-4 c 0.00855,-0.002532 -0.00534,-0.004023 -0.00226,-0.001531 0.00175,-6.7606e-4 0.00121,0.001252 0.00226,0.001531 z m 0.1508626,-8.5577e-4 c -0.00148,-0.003069 4.13e-5,-0.006903 -0.0064,-0.003719 -0.00708,0.001455 0.00524,0.002964 0.0064,0.003719 z M 1.605894,0.77411794 c 0.0043,-0.002482 0.015052,-0.001347 0.016265,-0.003571 -0.00664,-0.002633 -0.015526,-0.003697 -0.021164,-0.005475 -0.00466,-0.004027 4.979e-4,0.004234 0.00365,0.005292 0.00117,0.00102 6.82e-5,0.002905 0.00125,0.003754 z m 0.040591,-0.0108374 c -0.0052,8.743e-4 -0.012663,-0.0107334 -0.00467,-0.004531 6.36e-4,0.001184 0.00741,0.003343 0.00467,0.004531 z m 0.062953,-8.3165e-4 c -0.00539,-0.002981 0.00141,-0.0116329 0.0038,-0.0159874 0.00255,0.004187 1.668e-4,0.012679 -0.0038,0.0159874 z m -0.019631,-0.002356 c -0.00296,-0.004315 -0.00227,-0.0117196 -0.0013,-0.0163771 0.00334,0.004013 0.00543,0.0127248 0.0013,0.0163771 z m -0.06219,-9.5231e-4 c -0.00393,7.8644e-4 -0.019811,-0.003482 -0.012954,-0.005446 0.00344,0.003128 0.016046,0.002377 0.015638,0.005378 l -0.00118,8.526e-5 -0.0015,-1.659e-5 z m 0.044523,-0.003661 c -0.00419,-0.002273 -0.00705,-0.0105033 -0.00433,-0.0135309 0.00304,0.002387 0.00866,0.0110918 0.00433,0.0135309 z M 1.639765,0.73909728 c 0.0045,-0.001746 -0.00196,-0.001666 0,0 z m 0.0534,-0.00272 c 5.53e-4,-0.003846 -2.317e-4,-0.0104881 -0.00613,-0.007463 0.00332,-0.005146 -0.0041,-0.002541 -0.00755,-0.001901 0.00285,0.003967 -0.00404,0.004223 -0.00198,3.7937e-4 -0.0064,3.95e-6 -0.013232,0.004214 -0.017973,0.005776 0.00576,0.002834 0.00937,0.001237 0.011384,-0.00324 0.00708,0.002278 0.014886,-0.001715 0.019657,0.005053 l 0.00167,0.00102 9.215e-4,3.7654e-4 z"
         id="path3991"
         inkscape:connector-curvature="0" /></g></g></svg>