<?xml version="1.0" encoding="UTF-8" standalone="no"?>
<!-- Created with Inkscape (http://www.inkscape.org/) -->

<svg
   xmlns:dc="http://purl.org/dc/elements/1.1/"
   xmlns:cc="http://creativecommons.org/ns#"
   xmlns:rdf="http://www.w3.org/1999/02/22-rdf-syntax-ns#"
   xmlns:svg="http://www.w3.org/2000/svg"
   xmlns="http://www.w3.org/2000/svg"
   xmlns:sodipodi="http://sodipodi.sourceforge.net/DTD/sodipodi-0.dtd"
   xmlns:inkscape="http://www.inkscape.org/namespaces/inkscape"
   version="1.1"
   id="svg64"
   xml:space="preserve"
   width="275.57449"
   height="95.109589"
   viewBox="0 0 275.5745 95.109588"
   sodipodi:docname="1.svg"
   inkscape:version="0.92.4 (5da689c313, 2019-01-14)"><metadata
     id="metadata70"><rdf:RDF><cc:Work
         rdf:about=""><dc:format>image/svg+xml</dc:format><dc:type
           rdf:resource="http://purl.org/dc/dcmitype/StillImage" /><dc:title></dc:title></cc:Work></rdf:RDF></metadata><defs
     id="defs68" /><sodipodi:namedview
     pagecolor="#ffffff"
     bordercolor="#666666"
     borderopacity="1"
     objecttolerance="10"
     gridtolerance="10"
     guidetolerance="10"
     inkscape:pageopacity="0"
     inkscape:pageshadow="2"
     inkscape:window-width="1348"
     inkscape:window-height="752"
     id="namedview66"
     showgrid="false"
     fit-margin-top="0"
     fit-margin-left="0"
     fit-margin-right="0"
     fit-margin-bottom="0"
     inkscape:zoom="3.1069843"
     inkscape:cx="107.97607"
     inkscape:cy="44.223073"
     inkscape:window-x="0"
     inkscape:window-y="0"
     inkscape:window-maximized="0"
     inkscape:current-layer="g72" /><g
     id="g72"
     inkscape:groupmode="layer"
     inkscape:label="Plantos_Test1_with names"
     transform="matrix(1.3333333,0,0,-1.3333333,-362.18302,602.29624)"><g
       id="g74"
       transform="matrix(610.6,0,0,789.1,-550.96898,-20.448276)"><path
         style="fill:#000000;stroke-width:0.48000872"
         d="m 493.51367,458.19727 c -12.84533,0.23958 -34.5468,14.90964 -47.6289,15.78915 -44.71839,5.58473 -102.90405,-6.56274 -134.59766,0.47842 -9.46082,0.30812 -38.32118,10.66596 -44.96492,14.11471 -10.74339,6.98352 -19.63005,12.13845 -24.90967,17.64433 -9.97204,10.14928 -17.37179,22.86736 -11.32463,36.57495 l 5.2793,8.13672 c 9.96155,4.54923 18.6338,1.39683 30.62304,-0.0137 35.75376,-4.22724 95.25771,-4.62343 131.54102,-9.75391 43.04648,-5.76222 66.42225,-58.85618 104.30469,-78.70899 -1.82473,-3.1378 -4.72558,-4.3288 -8.32227,-4.26171 z m -10.76172,9.21875 c -18.15924,14.27366 -44.94408,55.79445 -73.96875,63.55078 -14.96132,17.69972 -82.82994,-15.68935 -37.16601,-15.0293 14.14801,-15.49012 46.16064,6.68494 46.35742,0.0312 -42.42612,-10.73513 16.39291,-12.68078 28.77344,-21.70703 32.18269,-21.1584 -6.3534,-0.20847 -20.24414,2.43555 -53.47969,19.48614 -109.74504,17.16128 -163.54297,34.32031 -41.92624,11.38807 1.48356,9.40592 20.29492,-0.35156 39.79809,18.86254 -12.84509,10.0461 -28.75977,15.00586 -29.78873,0.33478 -10.34206,-6.95757 -18.88476,-21.8379 13.02369,-16.53153 39.52478,-34.10934 60.21679,-41.20703 25.11602,-3.64353 62.47368,-7.70438 81.56836,-2.30273 -18.43523,35.42447 -2.90195,4.12829 11.75,-0.74414 32.03664,8.21358 64.04511,-0.75968 93.60547,-12.16406 z m -142.46679,12.70703 c -4.45196,-0.17278 -28.91052,14.75607 -20.89258,35.33593 3.85329,-8.00726 2.25676,-19.30155 9.63281,-24.85156 11.1722,-7.20593 13.28338,-10.40584 11.25977,-10.48437 z m -49.21875,6.83593 c -3.96268,-0.13382 -27.36377,17.39006 -18.73829,34.95313 5.15673,0.2241 1.37138,-22.27239 9.48829,-24.01367 9.13126,-7.67862 10.92312,-10.88295 9.25,-10.93946 z m 45.51562,33.19727 c 7.80031,0.12692 14.87815,2.06513 19.60547,7.19336 42.57266,16.18034 -14.05239,10.56525 -31.29492,13.9668 -11.9702,2.79825 -22.81895,-2.54114 -32.96875,-10.33008 6.83694,-2.61514 27.49752,-11.10931 44.6582,-10.83008 z"
         transform="matrix(0.0012283,0,0,-9.504499e-4,1.0692928,1.0338568)"
         id="path78"
         inkscape:connector-curvature="0"
         sodipodi:nodetypes="cccccccccccccccccccccccccccccccccscscscs" /></g></g></svg>