<?xml version="1.0" encoding="UTF-8" standalone="no"?>
<!-- Created with Inkscape (http://www.inkscape.org/) -->

<svg
   xmlns:dc="http://purl.org/dc/elements/1.1/"
   xmlns:cc="http://creativecommons.org/ns#"
   xmlns:rdf="http://www.w3.org/1999/02/22-rdf-syntax-ns#"
   xmlns:svg="http://www.w3.org/2000/svg"
   xmlns="http://www.w3.org/2000/svg"
   xmlns:sodipodi="http://sodipodi.sourceforge.net/DTD/sodipodi-0.dtd"
   xmlns:inkscape="http://www.inkscape.org/namespaces/inkscape"
   version="1.1"
   id="svg64"
   width="412.66217"
   height="259.63678"
   viewBox="0 0 412.66218 259.63678"
   sodipodi:docname="3l_2.svg"
   inkscape:version="0.92.4 (5da689c313, 2019-01-14)">
  <metadata
     id="metadata70">
    <rdf:RDF>
      <cc:Work
         rdf:about="">
        <dc:format>image/svg+xml</dc:format>
        <dc:type
           rdf:resource="http://purl.org/dc/dcmitype/StillImage" />
        <dc:title></dc:title>
      </cc:Work>
    </rdf:RDF>
  </metadata>
  <defs
     id="defs68" />
  <sodipodi:namedview
     pagecolor="#ffffff"
     bordercolor="#666666"
     borderopacity="1"
     objecttolerance="10"
     gridtolerance="10"
     guidetolerance="10"
     inkscape:pageopacity="0"
     inkscape:pageshadow="2"
     inkscape:window-width="1243"
     inkscape:window-height="789"
     id="namedview66"
     showgrid="false"
     fit-margin-top="0"
     fit-margin-left="0"
     fit-margin-right="0"
     fit-margin-bottom="0"
     inkscape:zoom="2.982705"
     inkscape:cx="185.69106"
     inkscape:cy="233.18788"
     inkscape:window-x="0"
     inkscape:window-y="0"
     inkscape:window-maximized="0"
     inkscape:current-layer="svg64" />
  <path
     style="fill:#000000"
     d="m 172.63618,0.00136409 c -0.24429,0.0193 -0.61917,0.24237 -1.13672,0.67187 -0.8221,0.68200001 -2.3971,1.00530001 -3.5,0.71680001 -1.1029,-0.2884 -2.00586,-0.12723 -2.00586,0.35937 0,0.4866 -2.025,0.79716 -4.5,0.68946 -2.475,-0.1077 -4.5,-0.54812 -4.5,-0.97852 0,-0.4304 -0.4762,-0.78320001 -1.0586,-0.78320001 -0.5825,0 -0.78898,0.43680001 -0.45898,0.97070001 0.8708,1.4091 -4.41327,2.49689 -5.73047,1.17969 -0.6193,-0.6193 -1.57483,-0.73427 -2.17773,-0.26367 -0.5906,0.461 -8.04922,2.07759 -16.57422,3.59179 -9.1308,1.6218 -19.8147,4.2911099 -26,6.4960699 -5.775,2.0586 -13.425,4.5592 -17,5.5586 -3.575,0.9993 -8.16839,2.6389 -10.20899,3.6426 -2.0406,1.0036 -4.2906,1.8347 -5,1.8477 -0.7094,0.013 -3.99101,1.1704 -7.29101,2.5703 -3.3,1.4 -9.375,3.8188 -13.5,5.375 -4.125,1.5562 -9.75,3.8617 -12.5,5.125 -2.750002,1.2633 -5.450003,2.3795 -6.000003,2.4785 -0.55,0.099 -3.025,1.1019 -5.5,2.2285 -2.475,1.1265 -6.075,2.36 -8,2.7402 -1.925,0.3801 -4.059741,1.1422 -4.744141,1.6934 -0.6843,0.5515 -2.387556,0.7828 -3.785156,0.5156 -2.7511996,-0.5259 -4.4707026,1.4569 -4.4707026,5.1543 0,1.3577 -0.476547,1.8503 -1.435547,1.4824 -0.7903,-0.3033 -1.191678,-1.1892 -0.892578,-1.9687 0.2991,-0.7794 0.04435,-1.418 -0.564453,-1.418 -0.6089,0 -1.107422,0.4985 -1.107422,1.1074 0,0.6084 -0.675,0.8479 -1.5,0.5313 -1.63959997,-0.6292 -2.08636897,0.8802 -0.54296897,1.834 0.52599997,0.3251 0.70237797,1.253 0.39257797,2.0605 -0.3295,0.8588 0.01709,1.4668 0.833985,1.4668 0.8607,0 1.381422,1.0385 1.357421,2.7051 -0.0249,1.7098 0.694385,3.0952 1.958985,3.7695 7.2178996,3.8485 10.1817336,6.515 11.3027336,10.168 0.6512,2.1218 3.615638,6.705 6.585938,10.1855 2.9703,3.4805 7.287903,10.0055 9.595703,14.5 8.179198,15.929496 13.531628,25.668996 14.765628,26.863296 0.6875,0.6655 1.25,1.725 1.25,2.3555 0,1.7038 2.95866,7.3154 4.31836,8.1914 0.6505,0.4192 1.96994,2.4636 2.93164,4.543 0.9617,2.0795 2.4242,4.0405 3.25,4.3574 0.8258,0.3169 1.5,1.4473 1.5,2.5117 0,1.9473 0.87763,3.3104 4.42773,6.8867 2.2005,2.2168 3.50965,1.7968 1.59375,-0.5117 -1.9636,-2.3661 0.0101,-1.7967 2.0918,0.6035 1.0156,1.171 1.58141,2.5584 1.25781,3.0821 -0.7903,1.2787 4.667,6.8849 5.9375,6.0996 0.5724,-0.3537 0.69069,-0.1155 0.27539,0.5566 -0.4379,0.7084 0.79115,2.4593 3.09375,4.4043 2.1023,1.7757 5.39727,4.9791 7.32227,7.1172 1.925,2.1382 6.65,7.372 10.5,11.6309 3.85,4.2587 8.67696,9.7723 10.72656,12.2539 2.0957,2.5374 4.5026,4.4491 5.5,4.3691 1.0194,-0.082 1.77906,0.5447 1.78906,1.4727 0.0209,2.2297 2.48781,5.0032 3.75391,4.2207 0.5976,-0.3694 0.74184,-0.1622 0.33984,0.4882 -0.8217,1.3295 3.32016,7.3393 4.53906,6.586 0.4563,-0.282 0.59555,0.093 0.31055,0.8359 -0.2849,0.7424 0.73116,2.4541 2.25586,3.8027 2.4406,2.1586 2.54385,2.1819 0.87305,0.2012 -1.0438,-1.2375 -1.40976,-2.25 -0.81446,-2.25 0.5953,0 2.04345,1.2375 3.21875,2.75 3.1918,4.1075 15.47772,14.5196 19.75782,16.7442 2.0628,1.0721 5.325,2.9062 7.25,4.0761 11.6798,7.0982 19.3812,10.555 24.3125,10.9141 2.8578,0.2081 6.5433,1.082 8.1914,1.9414 1.648,0.8593 4.20494,1.5684 5.68164,1.5684 1.4767,0 3.9517,0.4946 5.5,1.0918 1.6004,0.6172 12.95436,1.2777 26.31446,1.5293 29.0579,0.547 32.52608,0.497 39.14258,-0.5489 2.9113,-0.4598 5.80829,-0.6379 6.4375,-0.3965 0.6292,0.2415 4.10229,-0.2476 7.71679,-1.0859 3.6145,-0.8382 9.42612,-1.9796 12.91602,-2.5371 3.4899,-0.5575 8.1322,-1.8772 10.3164,-2.9316 2.1842,-1.0544 6.47687,-2.6438 9.53907,-3.5333 10.6164,-3.0834 24.88496,-17.8401 24.91796,-25.7714 0.008,-2.03 -0.43632,-3.9707 -0.98632,-4.3106 -1.9738,-1.2199 -0.93783,-4.048 2.48047,-6.7754 6.4517,-5.1478 7.98617,-15.7148 5.95117,-40.9746 -0.5206,-6.4625 -0.92158,-11.75 -0.89258,-11.75 4.6e-4,0 0.14592,0.071 0.14844,0.072 v -16.5059 l 4.69531,-3.6875 13.07422,-3.0176 0.16601,0.029 c 0.47439,-0.08 0.89544,-0.1538 1.58204,-0.25 2.36279,-0.331 5.64492,-0.4343 7.29492,-0.2285 1.65,0.2058 4.28953,-0.2907 5.86523,-1.1035 0.92684,-0.4781 1.67162,-0.7719 2.28711,-0.8437 l 12.30859,-6.6563 0.71485,-0.1875 c 4.18138,-2.8093 10.73647,-10.9456 14.25781,-18.0137 7.7782,-15.612096 7.65157,-29.307496 -0.42383,-46.107396 -5.6545,-11.7634 -22.94692,-32.1715 -33.57812,-39.6289 -3.28964,-2.3075 -5.3828,-4.3141 -6.19532,-5.9062 l -21.83203,-6.19535 c -0.20029,1.05785 -0.81472,1.05072 -2.65429,0.61133 -1.5125,-0.3614 -3.30583,-1.0951599 -3.98633,-1.6308599 -0.6805,-0.5357 -1.92297,-0.70977 -2.75977,-0.38867 -0.8368,0.3211 -2.61171,0.16725 -3.94531,-0.33985 -1.7027,-0.6473 -2.54442,-0.5633 -2.82812,0.2793 -0.2984,0.8863 -0.85828,0.82417 -2.14258,-0.23633 -1.4653,-1.2095 -1.87369,-1.22005 -2.58789,-0.0645 -0.6252,1.0115 -1.19563,1.085 -2.17383,0.2793 -1.2295,-1.0128 -7.02597,-1.7871 -9.32617,-1.2461 -2.9136,0.6853 -13.09423,0.33615 -13.67383,-0.46875 -0.3941,-0.5473 -1.39511,-0.3397 -2.41211,0.5 -1.2475,1.03 -1.85041,1.10598 -2.13281,0.26758 -0.2688,-0.7981 -2.57128,-1.03057 -7.26758,-0.73437 -4.1761,0.26339 -7.13094,0.0218 -7.52344,-0.61329 -0.3706,-0.5996 -2.04006,-0.78314 -3.91406,-0.43164 -2.2976,0.4311 -3.73962,0.14124 -4.85742,-0.97656 -1.0486,-1.0486 -1.8154,-1.22849 -2.25,-0.52539 -0.3624,0.5867 -1.8524,0.80648 -3.3125,0.48828 -3.6496,-0.7952 -11.99385,-1.3894 -22.40625,-1.5957 -5.2231,-0.1035 -8.75,-0.58843 -8.75,-1.20313 0,-0.6642 -2.4852,-0.82186 -7,-0.44336 -4.6274,0.3879 -7,0.229 -7,-0.4707 0,-0.63970001 -0.8902,-0.78107001 -2.25,-0.35547 -3.4169,1.0696 -12.75,1.2041 -12.75,0.1836 0,-0.49460001 -0.70928,-0.30935 -1.57618,0.41015 -1.1571,0.9603 -1.76305,1.00442 -2.28124,0.16602 -0.7782,-1.25920001 -15.55316,-1.86430001 -18.31446,-0.75 -0.9195,0.371 -2.65974,0.14534 -3.86914,-0.50196001 -1.4861,-0.7952 -1.97883,-0.82132 -1.51953,-0.0781 0.4266,0.69030001 -0.27281,1.09961001 -1.87891,1.09961001 -1.4075,0 -2.56054,-0.50379 -2.56054,-1.12110001 0,-0.38865 -0.11314,-0.57397 -0.35742,-0.5546800046 z m 16.91796,2.67578001 c 0.2426,0 0.43946,0.45 0.43946,1 0,0.55 -0.4761,1 -1.0586,1 -0.5825,0 -0.7813,-0.45 -0.4414,-1 0.3399,-0.55 0.81804,-1 1.06054,-1 z m 16,1 c 0.2426,0 0.43946,0.45 0.43946,1 0,0.55 -0.4761,1 -1.0586,1 -0.5825,0 -0.7813,-0.45 -0.4414,-1 0.3399,-0.55 0.81804,-1 1.06054,-1 z m 7.68946,1.01562 c 0.9625,-0.008 1.75,0.43438 1.75,0.98438 0,1.2196 -0.1128,1.2196 -2,0 -1.2819,-0.8284 -1.2455,-0.97138 0.25,-0.98438 z m 22.36328,1.32813 c 0.11953,0.0201 0.24922,0.0713 0.38672,0.15625 0.55,0.3399 1,0.81805 1,1.06055 0,0.2426 -0.45,0.43945 -1,0.43945 -0.55,0 -1,-0.47619 -1,-1.0586 0,-0.43687 0.25468,-0.65794 0.61328,-0.59765 z M 227.4936,19.661524 c 4.1177,0.22 11,0.8771 11,1.0508 0,0.117 2.025,0.3462 4.5,0.5097 2.475,0.1634 5.5714,0.5435 6.8789,0.8438 1.3074,0.3004 3.15949,0.1258 4.11719,-0.3867 0.9577,-0.5126 2.06413,-0.61 2.45703,-0.2168 0.393,0.3931 3.48896,0.7946 6.88086,0.8926 3.3919,0.098 7.29102,0.4805 8.66602,0.8515 1.375,0.3711 3.625,0.8254 5,1.0078 7.9754,1.0579 21.21531,3.9051 25.72851,5.5332 5.1192,1.8468 8.27149,1.7301 8.27149,-0.3047 0,-0.6515 1.5376,-0.7502 4.25,-0.2734 2.3375,0.4109 4.93288,0.8278 5.76758,0.9258 0.83469,0.098 2.0722,0.5204 2.75,0.9394 0.67779,0.4189 1.62968,0.5157 2.11328,0.2168 0.4835,-0.2988 2.01404,0.5942 3.40234,1.9825 1.545,1.5451 2.67692,2.0689 2.91602,1.3515 0.2814,-0.8442 1.25095,-0.7269 3.46875,0.4199 1.6933,0.8757 5.17282,1.7722 7.73242,1.9922 2.5595,0.2199 4.93329,0.6795 5.27539,1.0215 0.3421,0.3419 1.63183,0.3681 2.86523,0.059 1.2333,-0.3096 2.50156,-0.1435 2.81836,0.3692 0.3169,0.5131 3.69376,0.729 7.50586,0.4804 l 6.93164,-0.4512 5.35156,5.375 c 6.7282,6.7571 14.66779,20.1242 15.42579,25.9708 0.3107,2.3962 0.17797,6.1474 -0.29493,8.3359 -0.8008,3.7065 -1.14986,4.0278 -5.10547,4.7031 -2.3357,0.3987 -6.3442,2.1407 -8.9082,3.8711 -2.5639,1.7304 -5.69719,3.5403 -6.96289,4.0215 -1.2656,0.4812 -2.30273,1.2995 -2.30273,1.8184 0,0.5186 -1.59167,1.9272 -3.53907,3.1308 -3.3233,2.0539 -9.43017,10.935696 -9.45117,13.746096 -0.005,0.6993 -1.16949,3.0247 -2.58789,5.168 -2.1865,3.3041 -2.39878,4.2327 -1.39648,6.1054 1.4312,2.6744 -0.21763,4.2277 -3.83203,3.6075 -1.6935,-0.2907 -2.16081,-0.011 -1.75391,1.0488 0.3751,0.9775 -0.01,1.3372 -1.19141,1.1133 -2.4042,-0.4556 -2.82729,-6.7899 -0.74609,-11.1758 1.0754,-2.2664 1.68023,-6.5521 1.80273,-12.7734 0.1952,-9.911596 -1.4128,-16.112396 -7.875,-30.365296 -0.7481,-1.65 -1.67449,-4.337 -2.05859,-5.9707 -0.384,-1.6336 -1.56234,-4.4354 -2.61914,-6.2265 -1.0567,-1.791 -2.01757,-3.829 -2.13477,-4.5293 -0.1171,-0.7004 -0.76881,-2.286 -1.44921,-3.5235 -0.6807,-1.2375 -0.98167,-2.25 -0.66797,-2.25 0.3137,0 -0.005,-1.0125 -0.70899,-2.25 -0.7043,-1.2375 -1.30589,-2.7 -1.33789,-3.25 -0.0315,-0.55 -0.86315,-2.5202 -1.84765,-4.3789 -1.7837,-3.3677 -1.79744,-3.3724 -3.76954,-1.4004 -1.9039,1.904 -1.91743,2.1881 -0.36523,7.5274 0.8873,3.0523 2.78444,7.9592 4.21484,10.9023 3.198,6.5797 10.9669,27.3978 13,34.834 0.8246,3.0158 1.57121,10.077596 1.65821,15.693396 0.1764,11.408 -0.75548,13.7879 -4.17188,10.6718 -1.1156,-1.0175 -2.62271,-2.2996 -3.34961,-2.8496 -0.7269,-0.55 -3.50001,-2.8921 -6.16211,-5.2051 -2.6621,-2.313 -7.2746,-5.5785 -10.25,-7.2578 -2.9754,-1.6792 -5.41015,-3.355796 -5.41015,-3.724596 0,-0.3687 0.53696,-2.1554 1.19336,-3.9707 1.0648,-2.9445 0.9569,-3.5517 -1,-5.6348 -1.2064,-1.2842 -2.20852,-3.2068 -2.22852,-4.2714 -0.0198,-1.0645 -1.06943,-3.1974 -2.33203,-4.7403 -1.9968,-2.44 -2.45918,-2.6095 -3.54688,-1.2988 -0.9448,1.1384 -0.98642,2.3128 -0.17382,4.8047 2.8989,8.8896 3.87082,12.3279 3.57421,12.6348 -0.1785,0.1848 -2.94739,-1.4061 -6.15429,-3.5352 -5.5283,-3.6702 -25.79804,-13.3008 -27.99414,-13.3008 -1.6298,0 -3.98418,-3.1872 -5.23438,-7.0859 -0.6326,-1.9728 -1.93036,-4.4478 -2.88476,-5.5 -0.9545,-1.0522 -4.60408,-5.5141 -8.10938,-9.9141 -3.5053,-4.4001 -11.53801,-12.5 -17.84961,-18 -15.6054,-13.5986 -14.85633,-13.1191 -16.29883,-10.4238 -1.0918,2.0402 -0.55695,2.8235 6.59375,9.6348 4.2809,4.0776 8.97469,8.0288 10.42969,8.7812 3.6254,1.8748 25.84198,27.0155 24.79688,28.0606 -0.277,0.2769 -3.82878,-1.3841 -7.89258,-3.6915 -7.8105,-4.4348 -28.57452,-13.2003 -34.10742,-14.3984 -1.8047,-0.3908 -5.08125,-1.4971 -7.28125,-2.459 -2.2,-0.9618 -6.925,-2.5242 -10.5,-3.4707 -3.575,-0.9465 -7.4,-2.212 -8.5,-2.8125 -1.1,-0.6005 -4.46557,-1.4338 -7.48047,-1.8515 -3.015,-0.4176 -5.64069,-1.2343 -5.83399,-1.8145 -0.6253,-1.8756 -3.22406,-1.1188 -4.10546,1.1953 -0.9631,2.5283 1.1396,5.75 3.7539,5.75 1.6075,0 5.41992,1.1004 13.66602,3.9414 2.75,0.9474 9.05,3.0006 14,4.5645 4.95,1.5639 9.45,3.1532 10,3.5312 0.55,0.378 2.35,1.0058 4,1.3946 5.3984,1.2721 23.857,8.9206 30.5,12.6386 3.575,2.0009 8.3,4.4562 10.5,5.4551 2.2,0.999 4.59044,2.2658 5.31054,2.8164 0.72,0.5505 2.295,1.111 3.5,1.2442 3.9341,0.435 21.37545,9.52 33.68555,17.546796 1.3774,0.8981 4.30391,2.6349 6.50391,3.8594 4.8681,2.7097 21.5,16.0059 21.5,17.1875 0,0.4666 -1.6875,0.094 -3.75,-0.8262 -5.4561,-2.435 -20.4684,-6.1265 -27.5918,-6.7851 -3.3861,-0.3131 -12.9082,-0.1042 -21.1582,0.4648 -26.3061,1.8144 -57.41879,2.3047 -69.58399,1.0957 -6.2784,-0.624 -15.51574,-1.2069 -20.52734,-1.2949 -5.0115,-0.088 -9.77002,-0.648 -10.57422,-1.2461 -0.8041,-0.5982 -3.51158,-4.1525 -6.01758,-7.8984 -6.2772,-9.383496 -18.02987,-21.374096 -44.29687,-45.199196 -3.5728,-3.2406 -5.71004,-4.4586 -7.49024,-4.2637 -3.7962,0.4158 -3.70623,3.3618 0.16406,5.3633 8.20461,4.2427 50.82618,47.327896 50.82618,51.378896 0,0.3833 -4.2311,-0.014 -9.4043,-0.8848 -10.2418,-1.7234 -12.89265,-3.2702 -15.28125,-8.916 -1.1966,-2.8287 -1.6402,-3.1411 -2.9375,-2.0645 -1.1014,0.9141 -1.34891,2.2321 -0.88281,4.7168 0.5565,2.966 0.41118,3.3576 -1.04492,2.7989 -0.931,-0.3573 -5.57512,-1.2994 -10.32032,-2.0938 -16.7377,-2.8024 -21.77511,-5.062 -28.32031,-12.701196 -6.4617,-7.5417 -22.7012,-23.3242 -24,-23.3242 -0.5991,0 -1.54451,0.7196 -2.09961,1.5996 -0.8172,1.2956 1.2474,3.8531 10.8457,13.4336 7.3362,7.3226 11.33966,12.003396 10.50586,12.281296 -2.2418,0.7473 -13.82819,-5.814196 -17.55859,-9.943396 -1.9233,-2.1288 -3.71272,-3.8711 -3.97852,-3.8711 -0.2657,0 -2.8557,-1.5161 -5.7539,-3.3691 -2.8981,-1.853 -11.24262,-6.3612 -18.54492,-10.0196 -11.0976,-5.5634 -13.61095,-6.474 -15.310551,-5.5644 -3.202,1.7137 -1.870161,4.0519 4.085941,7.168 3.025,1.5826 9.55,4.9739 14.5,7.5351 11.2816,5.8373 18.4211,10.3527 21,13.2832 1.1,1.2499 4.52688,4.147196 7.61328,6.437496 l 5.61133,4.1641 -3.11133,1.248 c -5.0925,2.0416 -6.09567,2.7458 -6.44727,4.5332 -0.7665,3.8978 0.4943,4.5014 4.875,2.334 6.5472,-3.2393 25.83997,-4.3708 27.54297,-1.6152 0.2941,0.4759 1.88732,0.8652 3.54102,0.8652 1.6537,0 3.77765,0.4124 4.71875,0.916 0.9411,0.5037 5.26743,1.411 9.61523,2.0157 4.3478,0.6047 8.12147,1.3149 8.38477,1.5781 0.2632,0.2633 -0.29996,1.3387 -1.25196,2.3906 -2.2695,2.5078 -1.81856,8.445 0.67774,8.918 1.229,0.2328 2.21441,-0.7293 3.22851,-3.1563 1.9045,-4.5582 6.32881,-6.8589 10.75391,-5.5898 1.7791,0.5102 4.66406,0.9277 6.41016,0.9277 1.7462,0 3.88626,0.2737 4.75586,0.6074 1.3352,0.5124 1.22825,0.8834 -0.68555,2.3887 -1.2463,0.9804 -3.83225,2.4416 -5.74805,3.2481 -1.9157,0.8065 -5.95937,3.4602 -8.98437,5.8964 -7.8727,6.3405 -18.71555,11.0161 -29.90625,12.8965 -8.056,1.3537 -9.52617,1.9008 -10.23047,3.8047 -0.6711,1.814 -0.38355,2.3897 1.56054,3.1289 4.9099,1.8667 23.71521,-2.5452 29.78711,-6.9883 1.4903,-1.0905 2.93845,-1.9824 3.21875,-1.9824 0.6325,0 15.16382,-9.2188 18.57032,-11.7812 1.375,-1.0343 4.8631,-3.1935 7.75,-4.7989 2.8869,-1.6053 5.2494,-3.2574 5.25,-3.6699 0.002,-1.1885 2.9509,-0.8738 5.8457,0.6231 4.189,2.1661 10.04754,3.8112 11.14844,3.1308 0.5532,-0.3419 1.00586,-1.3249 1.00586,-2.1836 0,-1.3561 1.0834,-1.4514 8.25,-0.7265 11.1577,1.1285 52.1117,1.064 68.75,-0.1094 22.4933,-1.5865 33.2147,-1.1534 43.5,1.7578 4.95,1.401 10.35,3.0918 12,3.7578 l 3,1.211 -3,1.2734 c -1.65,0.7011 -5.925,2.2909 -9.5,3.5312 -3.575,1.2403 -9.65,3.3595 -13.5,4.709 -3.85,1.3496 -8.35,2.8305 -10,3.291 -3.1121,0.8685 -16.8541,5.8094 -29,10.4278 -3.85,1.464 -10.03379,3.306 -13.74219,4.0937 -3.7084,0.7878 -10.2334,2.7284 -14.5,4.3125 -8.6472,3.2106 -13.16291,4.5267 -21.25781,6.1973 -5.6115,1.1581 -17.71669,4.8334 -33.08789,10.043 -4.724,1.601 -9.62172,2.9101 -10.88282,2.9101 -2.4366,0 -9.02929,3.6207 -9.02929,4.959 0,3.0273 8.53511,2.6128 17.29101,-0.8398 3.9952,-1.5754 25.87129,-7.623 34.70899,-9.5957 4.125,-0.9207 10.23151,-2.5415 13.57031,-3.5997 3.3388,-1.0583 6.36987,-1.9238 6.73437,-1.9238 0.985,0 -11.5744,15.8073 -16.6914,21.0078 -5.244,5.3297 -7.46917,9.5348 -5.88477,11.1192 0.7639,0.7639 1.60478,0.4642 2.92188,-1.043 1.7848,-2.0424 4.80931,-5.1437 10.59961,-10.8672 1.5119,-1.4945 2.7494,-3.1947 2.75,-3.7793 6e-4,-0.5846 1.38773,-2.3846 3.08203,-4 1.6942,-1.6154 4.46957,-5.075 6.16797,-7.6875 1.6984,-2.6125 3.6537,-4.75 4.3457,-4.75 0.692,0 1.40423,-0.7211 1.58203,-1.6035 0.2241,-1.1118 3.14075,-2.3158 9.50195,-3.9219 5.0484,-1.2746 11.3052,-3.2585 13.9043,-4.4082 2.5991,-1.1497 4.90977,-1.9065 5.13477,-1.6816 0.5253,0.5253 -4.64953,10.4552 -5.82813,11.1836 -1.4653,0.9056 -1.0066,4.4491 0.6582,5.0879 0.895,0.3435 2.13938,-0.197 2.95118,-1.2813 1.6807,-2.2448 5.57224,-14.4503 4.93554,-15.4804 -0.5359,-0.8672 3.78946,-2.4933 21.06446,-7.9239 7.15,-2.2478 16.06324,-5.2352 19.80664,-6.6387 3.7435,-1.4034 6.98919,-2.3701 7.21289,-2.1464 0.2237,0.2237 -0.56094,1.9618 -1.74414,3.8613 -2.405,3.8609 -4.62805,7.844 -8.90235,15.9531 -7.2635,13.7801 -13.64997,22.891 -21.79296,31.0879 -4.71891,4.7503 -10.21575,9.7098 -12.21485,11.0234 -14.9393,9.816 -17.86523,12.4602 -17.86523,16.1426 0,2.4803 3.00512,3.4887 4.17382,1.4004 0.5095,-0.9105 5.96706,-5.426 12.12696,-10.0351 6.1599,-4.6091 12.05777,-9.3345 13.10547,-10.5 2.6679,-2.9676 4.00448,-2.6693 7.30468,1.6308 3.7124,4.8373 5.30911,8.4598 6.72461,15.25 0.9182,4.4049 1.53647,5.5 3.10547,5.5 1.6635,0 1.92325,-0.6111 1.71485,-4.0488 -0.299,-4.9305 -4.34588,-15.5531 -7.55078,-19.8203 -3.50881,-4.6719 -3.81223,-6.2235 -1.60743,-8.2188 2.321,-2.1005 10.90235,-14.9282 10.90235,-16.2968 0,-0.5219 0.38592,-1.0979 0.85742,-1.2813 0.7333,-0.2851 9.09125,-14.4221 10.24805,-17.334 0.2185,-0.55 1.97047,-3.475 3.89257,-6.5 1.9221,-3.025 3.51121,-5.725 3.53321,-6 0.0779,-0.9718 2.95917,-5 3.57617,-5 0.3442,0 -0.0591,2.4623 -0.89649,5.4707 -1.3866,4.982 -1.35997,6.8506 0.29883,20.9688 l 1.82032,15.5019 -2.26172,8.2793 c -1.2439,4.5539 -2.59872,8.7293 -3.01172,9.2793 -0.413,0.55 -1.6079,4.1022 -2.6543,7.8926 -1.5394,5.5766 -2.59879,7.4533 -5.55859,9.8418 -4.1364,3.3379 -5.29564,6.1457 -3.24024,7.8516 0.7683,0.6375 1.38133,1.667 1.36133,2.2871 -0.0573,1.7691 -8.49958,6.6739 -11.89648,6.9121 -1.6855,0.1183 -3.06541,0.4711 -3.06641,0.7832 -0.004,1.197 -11.14524,4.0223 -13.27734,3.3672 -1.2234,-0.3759 -1.85801,-0.3005 -1.41211,0.1679 0.8776,0.9219 -11.2234,4.2975 -15.3125,4.2715 -2.282,-0.014 -2.3256,-0.091 -0.5,-0.875 1.8294,-0.7861 1.7868,-0.8614 -0.5,-0.8984 -1.375,-0.022 -6.70064,0.7813 -11.83594,1.7851 -7.7239,1.5098 -9.42722,1.59 -9.85742,0.4688 -0.7006,-1.8259 -2.30664,-1.7253 -2.30664,0.1445 0,1.1555 -1.2057,1.4774 -5.25,1.4004 -4.1306,-0.078 -4.7169,-0.2705 -2.75,-0.9004 2.1114,-0.6762 2.18505,-0.8164 0.47265,-0.9004 -1.1151,-0.055 -3.05655,-0.82 -4.31445,-1.7011 -1.258,-0.8811 -2.59566,-1.2697 -2.97266,-0.8633 -0.3769,0.4064 -0.0975,0.9479 0.61914,1.2031 0.9622,0.3427 0.83256,0.8071 -0.49414,1.7773 -1.347,0.9849 -1.98563,1.0236 -2.55273,0.1504 -0.5683,-0.8749 -0.95655,-0.8567 -1.56055,0.076 -0.5604,0.8657 -3.46032,1.1684 -9.57812,1 -4.8255,-0.1328 -8.88689,-0.3532 -9.02539,-0.4883 -0.1384,-0.1352 -2.49624,-0.4575 -5.24024,-0.7187 -9.4818,-0.9027 -28.68444,-7.1711 -37.99804,-12.4024 -18.2601,-10.2564 -24.10311,-15.0209 -32.97071,-26.8828 -3.1863,-4.2624 -8.30625,-10.45 -11.37695,-13.75 -3.0707,-3.3 -7.20786,-8.0439 -9.19336,-10.543 -5.6768,-7.1454 -34.17519,-35.9728 -35.55469,-35.9628 -0.6829,0 -1.80323,-0.8942 -2.49023,-1.9942 -0.6869,-1.1 -1.70913,-2 -2.26953,-2 -1.0131,0 -2.07403,-1.4369 -5.45703,-7.3867 -5.28,-9.2859 -6.46555,-11.2016 -7.49415,-12.1133 -1.18759,-1.0527 -5.77276,-10.4178 -6.97656,-14.25 -0.3888,-1.2375 -1.12567,-2.25 -1.63867,-2.25 -0.5129,0 -0.93359,-0.5951 -0.93359,-1.3222 0,-0.727 -1.33601,-3.0895 -2.97071,-5.249996 -1.6347,-2.1604 -2.985,-4.6823 -3,-5.6055 -0.0153,-0.9232 -0.60213,-2.2732 -1.30273,-3 -1.7938,-1.861 -10.726563,-16.4099 -10.726563,-17.4707 0,-0.4823 -1.009941,-1.3204 -2.244141,-1.8633 -4.2757,-1.8807 -3.230315,-3.9728 2.958985,-5.9238 3.1823,-1.0031 9.835159,-3.6103 14.785159,-5.793 4.95,-2.1827 14.625,-6.1887 21.5,-8.9023 6.875,-2.7137 13.4,-5.368 14.5,-5.8985 1.1,-0.5306 9.65,-3.6772 19,-6.9941 9.35,-3.317 17.675,-6.3151 18.5,-6.6621 0.825,-0.347 1.85782,-0.5531 2.29492,-0.4571 0.4371,0.096 3.19882,-0.5267 6.13672,-1.3808 2.9378,-0.854 5.73008,-1.4436 6.20508,-1.3106 1.0347,0.2895 20.86328,-2.7473 20.86328,-3.1953 0,-0.6667 18.5643,-1.6853 43.5,-2.3867 9.075,-0.2552 18.75,-0.7314 21.5,-1.0586 2.75,-0.3271 5.45,-0.57 6,-0.541 z m 129.32422,42.1797 c -0.43139,0.082 -0.84039,0.5078 -1.43164,1.3164 -0.7655,1.0468 -1.39258,2.478 -1.39258,3.1816 0,0.7036 -1.07046,3.6548 -2.38086,6.5586 -1.3105,2.9038 -2.71881,6.4043 -3.12891,7.7793 -0.4101,1.375 -1.60605,4.2038 -2.65625,6.2852 -1.0502,2.0814 -1.6407,4.2189 -1.3125,4.75 1.1009,1.7812 2.31834,0.9922 5.30664,-3.4356 3.7238,-5.5177 10.17188,-19.686 10.17188,-22.3515 0,-1.1009 -0.72292,-2.6038 -1.60742,-3.3379 -0.68321,-0.567 -1.13698,-0.8279 -1.56836,-0.7461 z m 28.26562,29.0722 c 0.58641,-0.028 0.91016,0.3299 0.91016,1.0411 0,1.99 4.67738,2.8188 6.11718,1.0839 2.757,-3.322 4.34106,0.4936 2.09766,5.0528 -2.2821,4.637896 -14.31451,15.585896 -17.12891,15.585896 -0.6202,0 -2.89232,1.1686 -5.04882,2.5957 -2.1565,1.4271 -4.38242,2.3088 -4.94532,1.961 -0.5629,-0.3479 -2.82057,0.2854 -5.01757,1.4062 -4.2963,2.1918 -8.07422,2.6678 -8.07422,1.0176 0,-0.5609 1.05284,-2.6984 2.33984,-4.75 1.287,-2.0515 2.63966,-4.8555 3.00586,-6.2305 0.3661,-1.375 1.67586,-3.625 2.91016,-5 2.717,-3.0265 17.53174,-12.999996 19.31054,-12.999996 0.6985,0 1.98352,-0.2715 2.85352,-0.6054 0.2516,-0.097 0.47445,-0.1489 0.66992,-0.1583 z m -59.37109,78.283296 c -0.55119,-0.026 -1.32846,0.5139 -2.15039,1.6874 -2.1854,3.1202 -1.95668,10.1097 0.48632,14.8985 2.7634,5.4166 6.35676,4.0351 3.69336,-1.4199 -1.8917,-3.8745 -2.39425,-8.3039 -1.40625,-12.4141 0.42137,-1.7529 0.0856,-2.7191 -0.62304,-2.7519 z m -196.21875,55.1445 4.45898,4.6679 c 4.7143,4.9368 5.04102,5.1829 5.04102,3.7891 0,-0.4838 -2.1375,-2.584 -4.75,-4.668 z m 13.51758,11.3301 c -0.0843,0.038 0.22066,0.4464 0.85546,1.2558 0.7548,0.9625 1.84172,1.75 2.41602,1.75 0.5746,0 0.85801,-0.1275 0.62891,-0.2832 -0.2292,-0.1556 -1.31797,-0.9431 -2.41797,-1.75 -0.925,-0.6785 -1.3981,-1.0107 -1.48242,-0.9726 z m 122.90039,8.1308 c 0.3474,0.014 0.64635,0.1054 0.8125,0.2715 0.3323,0.3323 -0.2584,0.5684 -1.3125,0.5254 -1.165,-0.048 -1.40317,-0.2843 -0.60547,-0.6035 0.36095,-0.1444 0.75807,-0.2077 1.10547,-0.1934 z"
     id="path74"
     inkscape:connector-curvature="0" />
</svg>
