<?xml version="1.0" encoding="UTF-8" standalone="no"?>
<!-- Created with Inkscape (http://www.inkscape.org/) -->

<svg
   xmlns:dc="http://purl.org/dc/elements/1.1/"
   xmlns:cc="http://creativecommons.org/ns#"
   xmlns:rdf="http://www.w3.org/1999/02/22-rdf-syntax-ns#"
   xmlns:svg="http://www.w3.org/2000/svg"
   xmlns="http://www.w3.org/2000/svg"
   xmlns:sodipodi="http://sodipodi.sourceforge.net/DTD/sodipodi-0.dtd"
   xmlns:inkscape="http://www.inkscape.org/namespaces/inkscape"
   version="1.1"
   id="svg815"
   width="1673.0664"
   height="2712.1174"
   viewBox="0 0 1673.0664 2712.1174"
   sodipodi:docname="0.svg"
   inkscape:version="0.92.4 (5da689c313, 2019-01-14)">
  <metadata
     id="metadata821">
    <rdf:RDF>
      <cc:Work
         rdf:about="">
        <dc:format>image/svg+xml</dc:format>
        <dc:type
           rdf:resource="http://purl.org/dc/dcmitype/StillImage" />
        <dc:title />
      </cc:Work>
    </rdf:RDF>
  </metadata>
  <defs
     id="defs819" />
  <sodipodi:namedview
     pagecolor="#ffffff"
     bordercolor="#666666"
     borderopacity="1"
     objecttolerance="10"
     gridtolerance="10"
     guidetolerance="10"
     inkscape:pageopacity="0"
     inkscape:pageshadow="2"
     inkscape:window-width="1388"
     inkscape:window-height="827"
     id="namedview817"
     showgrid="false"
     inkscape:zoom="0.16821734"
     inkscape:cx="907.68239"
     inkscape:cy="1189.887"
     inkscape:window-x="24"
     inkscape:window-y="54"
     inkscape:window-maximized="0"
     inkscape:current-layer="g1753"
     fit-margin-top="0"
     fit-margin-left="0"
     fit-margin-right="0"
     fit-margin-bottom="0" />
  <g
     id="g1753"
     transform="translate(-1516.2715,-2234.0676)">
    <path
       sodipodi:nodetypes="ccccccccccccccccccccccccccccccccccccccccccccc"
       inkscape:connector-curvature="0"
       id="path828"
       d="m 1853.4882,2528.0481 43.6042,-47.5575 -13.0812,-29.7235 109.0104,-83.2256 87.2084,112.9491 21.8021,-29.7235 104.6501,-219.9535 153.6319,135.2357 72.5044,9.9551 129.0961,123.4354 -115.9705,209.6156 8.8937,148.5577 -12.6931,92.508 -66.2871,107.8252 46.4041,104.7758 -71.6858,179.7486 47.9646,35.6681 -50.4512,198.8499 59.1721,163.7762 -100.2897,124.8385 47.9647,101.0597 -34.8834,107.0045 65.4063,154.5619 -113.3709,208.0642 34.8833,160.5066 -331.3917,344.792 -122.0918,-148.6172 -168.2392,-203.9197 -26.6479,-190.3333 90.2371,-116.9904 -34.8834,-124.8385 42.9594,-79.2138 -51.6802,-176.4078 45.7243,-116.1945 -37.3386,-137.3146 46.5389,-99.6592 -41.8434,-122.407 74.1272,-89.1703 -52.3251,-124.8385 56.6855,-166.4513 -21.8021,-95.1151 42.3455,-61.0657 27.5639,-74.1065 18.9298,-134.5345 z"
       style="fill:#313816;fill-opacity:1;stroke:none;stroke-width:0.85644501px;stroke-linecap:butt;stroke-linejoin:miter;stroke-opacity:1" />
    <g
       id="g968"
       transform="matrix(0.73349807,0,0,1,407.18904,31.543319)"
       style="fill:#747b51;fill-opacity:1;stroke:none">
      <path
         style="fill:#747b51;fill-opacity:1;stroke:none;stroke-width:1.07883275px;stroke-linecap:butt;stroke-linejoin:miter;stroke-opacity:1"
         d="m 2502.2869,2867.2371 168.7256,-152.1142 181.7048,247.1855 -172.8449,157.5079 z"
         id="path830"
         inkscape:connector-curvature="0" />
      <path
         style="fill:#747b51;fill-opacity:1;stroke:none;stroke-width:1.18256223px;stroke-linecap:butt;stroke-linejoin:miter;stroke-opacity:1"
         d="m 2256.5101,2710.2089 137.2644,-139.5258 127.2172,87.4065 -96.6851,223.3719 z"
         id="path894"
         inkscape:connector-curvature="0" />
      <path
         style="fill:#747b51;fill-opacity:1;stroke:none;stroke-width:1.01547348px;stroke-linecap:butt;stroke-linejoin:miter;stroke-opacity:1"
         d="m 2283.3351,3138.2244 135.6899,-193.5493 125.704,214.38 -152.3324,221.481 -125.0835,-196.2598 z"
         id="path896"
         inkscape:connector-curvature="0" />
      <path
         style="fill:#747b51;fill-opacity:1;stroke:none;stroke-width:1.13577771px;stroke-linecap:butt;stroke-linejoin:miter;stroke-opacity:1"
         d="m 2017.4248,3144.5651 113.7653,-135.3614 -78.1211,-121.3781 -102.5338,107.3729 z"
         id="path898"
         inkscape:connector-curvature="0" />
      <path
         style="fill:#747b51;fill-opacity:1;stroke:none;stroke-width:1.11148393px;stroke-linecap:butt;stroke-linejoin:miter;stroke-opacity:1"
         d="m 2102.5135,3486.0297 140.1252,-189.2757 129.7456,155.6266 -166.3373,150.8697 z"
         id="path900"
         inkscape:connector-curvature="0" />
      <path
         style="fill:#747b51;fill-opacity:1;stroke:none;stroke-width:1px;stroke-linecap:butt;stroke-linejoin:miter;stroke-opacity:1"
         d="m 2042.916,3955.5224 91.0004,221.7599 173.822,-154.5034 -113.4953,-231.1942 z"
         id="path902"
         inkscape:connector-curvature="0" />
      <path
         style="fill:#747b51;fill-opacity:1;stroke:none;stroke-width:1.02282929px;stroke-linecap:butt;stroke-linejoin:miter;stroke-opacity:1"
         d="m 1881.1064,4186.7166 81.7991,222.7198 155.674,-159.6668 -87.953,-210.1765 z"
         id="path904"
         inkscape:connector-curvature="0" />
      <path
         style="fill:#747b51;fill-opacity:1;stroke:none;stroke-width:1px;stroke-linecap:butt;stroke-linejoin:miter;stroke-opacity:1"
         d="m 1807.5182,4443.132 67.2565,163.9377 83.2253,-190.6653 -61.6438,-130.728 z"
         id="path906"
         inkscape:connector-curvature="0" />
      <path
         style="fill:#747b51;fill-opacity:1;stroke:none;stroke-width:5.94469023;stroke-miterlimit:4;stroke-dasharray:none"
         d="m 2481.4418,4021.831 c -8.8893,-27.3268 -4.7154,-53.982 -3.5688,-59.2337 1.1466,-5.2517 29.8039,-52.548 68.8206,-92.2587 66.2092,-67.3872 75.7041,-60.9555 83.561,-50.6375 10.2778,13.4973 27.0154,40.3003 27.0219,49.847 0,3.8159 11.9868,43.4745 21.7439,64.0993 16.8787,35.6784 17.2693,38.2183 8.0429,52.2995 -5.3336,8.14 -6.0848,24.8649 -17.0824,29.46 -10.9976,4.5951 -34.9744,68.2657 -52.1074,79.5095 -24.0046,15.7535 -38.3966,83.7898 -59.4422,83.7898 -1.0878,0 -68.1002,-129.5483 -76.9895,-156.8752 z"
         id="path868"
         inkscape:connector-curvature="0"
         sodipodi:nodetypes="cscccccscsc" />
      <path
         style="fill:#747b51;fill-opacity:1;stroke:none;stroke-width:1px;stroke-linecap:butt;stroke-linejoin:miter;stroke-opacity:1"
         d="m 1940.3163,4517.7779 105.0882,224.8889 224.8889,-212.2783 -130.577,-217.4239 z"
         id="path1600"
         inkscape:connector-curvature="0" />
      <path
         style="fill:#747b51;fill-opacity:1;stroke:none;stroke-width:1.02894914px;stroke-linecap:butt;stroke-linejoin:miter;stroke-opacity:1"
         d="m 2390.1497,4510.3268 143.0291,-204.5502 104.3141,272.236 -176.8804,127.8684 z"
         id="path1602"
         inkscape:connector-curvature="0" />
      <path
         style="fill:#747b51;fill-opacity:1;stroke:none;stroke-width:1.09599841px;stroke-linecap:butt;stroke-linejoin:miter;stroke-opacity:1"
         d="m 2162.3709,4276.8847 176.3092,176.116 172.7033,-172.6214 -154.7742,-249.8692 z"
         id="path1604"
         inkscape:connector-curvature="0" />
      <path
         style="fill:#747b51;fill-opacity:1;stroke:none;stroke-width:1px;stroke-linecap:butt;stroke-linejoin:miter;stroke-opacity:1"
         d="m 2172.8815,4754.6295 50.6802,131.164 145.4332,-116.8879 -33.1268,-198.2557 z"
         id="path1606"
         inkscape:connector-curvature="0" />
      <path
         style="fill:#747b51;fill-opacity:1;stroke:none;stroke-width:1px;stroke-linecap:butt;stroke-linejoin:miter;stroke-opacity:1"
         d="m 1850.0553,3923.5392 125.6042,-119.3439 27.3229,23.1195 29.4247,168.1412 -125.0406,86.1681 z"
         id="path1640"
         inkscape:connector-curvature="0" />
      <path
         style="fill:#747b51;fill-opacity:1;stroke:none;stroke-width:1px;stroke-linecap:butt;stroke-linejoin:miter;stroke-opacity:1"
         d="m 1872.673,3654.97 50.4423,130.3094 52.5442,18.9159 52.5441,-96.6812 -39.9335,-153.4288 -88.2742,29.4247 z"
         id="path1642"
         inkscape:connector-curvature="0" />
      <path
         style="fill:#747b51;fill-opacity:1;stroke:none;stroke-width:1.1012404px;stroke-linecap:butt;stroke-linejoin:miter;stroke-opacity:1"
         d="m 2410.3869,3433.7876 164.5018,-218.0172 186.4716,163.7551 -78.5144,216.1569 -106.0279,10.1296 z"
         id="path1644"
         inkscape:connector-curvature="0" />
      <path
         style="fill:#747b51;fill-opacity:1;stroke:none;stroke-width:1px;stroke-linecap:butt;stroke-linejoin:miter;stroke-opacity:1"
         d="m 2587.2732,3709.6159 126.0601,-128.6825 80.6711,163.7762 -107.9482,93.114 z"
         id="path1646"
         inkscape:connector-curvature="0" />
      <path
         style="fill:#747b51;fill-opacity:1;stroke:none;stroke-width:1px;stroke-linecap:butt;stroke-linejoin:miter;stroke-opacity:1"
         d="m 2675.1106,4077.6123 89.1703,154.5619 -154.5619,208.0642 -62.3794,-200.9776 z"
         id="path1668"
         inkscape:connector-curvature="0" />
      <path
         style="fill:#747b51;fill-opacity:1;stroke:none;stroke-width:1px;stroke-linecap:butt;stroke-linejoin:miter;stroke-opacity:1"
         d="m 1885.2835,3455.3023 113.4954,-102.9865 81.7346,133.7139 -131.4706,102.1251 z"
         id="path1670"
         inkscape:connector-curvature="0" />
      <path
         style="fill:#747b51;fill-opacity:1;stroke:none;stroke-width:1.23181665px;stroke-linecap:butt;stroke-linejoin:miter;stroke-opacity:1"
         d="m 2060.6597,3533.1541 -67.3218,181.1901 41.0393,184.4942 158.6303,-159.7225 z"
         id="path1672"
         inkscape:connector-curvature="0" />
      <path
         style="fill:#747b51;fill-opacity:1;stroke:none;stroke-width:1.10387146px;stroke-linecap:butt;stroke-linejoin:miter;stroke-opacity:1"
         d="m 2765.8485,3071.2398 -92.0976,110.2297 62.8959,124.6074 81.0704,-158.9464 z"
         id="path1674"
         inkscape:connector-curvature="0" />
      <path
         style="fill:#747b51;fill-opacity:1;stroke:none;stroke-width:5.94469023;stroke-miterlimit:4;stroke-dasharray:none"
         d="m 2064.5515,2757.612 c 3.9691,-3.9691 14.1612,-4.1759 29.4262,-0.5971 l 23.3539,5.4751 -29.4262,0.5972 c -20.0297,0.4064 -27.4872,-1.3419 -23.3539,-5.4752 z"
         id="path888"
         inkscape:connector-curvature="0" />
      <path
         style="fill:#747b51;fill-opacity:1;stroke:none;stroke-width:2.10176539;stroke-miterlimit:4;stroke-dasharray:none"
         d="m 2349.9706,3854.3447 c -6.6308,-7.327 -4.6206,-17.7383 7.9236,-41.0379 22.9496,-42.6271 30.7135,-60.1353 31.9411,-72.0299 1.4924,-14.4597 -1.7766,-15.0142 -5.1361,-0.8713 -1.3901,5.8517 -6.717,19.484 -11.8377,30.2939 -18.464,38.9778 -39.0035,64.735 -57.1469,71.6641 -8.8889,3.3947 -10.1116,3.415 -16.6909,0.2775 -3.9047,-1.862 -9.2614,-6.3097 -11.9038,-9.8838 -4.0268,-5.4465 -5.008,-5.9181 -6.062,-2.9133 -2.9705,8.4683 -38.9004,-98.5122 -41.2957,-122.9572 -1.6174,-16.5051 1.0904,-16.6622 11.9565,-0.6937 4.0459,5.9457 7.9018,10.8446 8.5685,10.8864 0.6668,0.042 0.8009,-2.7275 0.298,-6.1542 -1.5615,-10.6386 7.0454,-33.5935 20.1235,-53.6701 6.7771,-10.4037 27.78,-37.8317 46.6731,-60.9512 18.8931,-23.1194 39.1435,-49.411 45.0007,-58.4258 9.4427,-14.533 11.2247,-16.2462 15.7247,-15.1168 24.9902,6.2721 70.7802,65.6012 106.5353,138.0355 l 7.9731,16.1523 -8.7876,9.5335 c -13.6072,14.762 -22.722,30.417 -42.6027,73.1708 -22.6852,48.7852 -27.0743,56.3423 -41.5679,71.5715 -19.1739,20.147 -51.1632,32.5381 -59.6868,23.1197 z"
         id="path1608"
         inkscape:connector-curvature="0" />
      <path
         style="fill:#747b51;fill-opacity:1;stroke:none;stroke-width:2.10176539;stroke-miterlimit:4;stroke-dasharray:none"
         d="m 2213.1221,3079.4518 c -6.0806,-6.2565 -12.3835,-16.6899 -19.363,-32.0519 -5.6912,-12.5268 -15.0007,-31.7611 -20.6877,-42.7428 -9.2789,-17.9179 -10.3397,-21.3686 -10.3374,-33.6283 0,-17.5568 6.7921,-32.6936 31.1077,-69.3597 9.8439,-14.8439 21.0934,-33.9207 24.9989,-42.393 3.9054,-8.4722 10.1254,-18.2415 13.8222,-21.7094 5.7257,-5.3712 8.3755,-6.3053 17.8874,-6.3053 22.0086,0 43.7955,21.0528 82.8346,80.0434 14.7295,22.2572 23.3701,33.4713 25.2952,32.8288 4.5193,-1.5082 1.5324,8.2768 -9.2785,30.3959 -24.1439,49.3985 -59.9495,82.4578 -86.7413,80.0885 -5.4398,-0.4811 -11.6557,-1.6588 -13.8132,-2.6171 -3.4355,-1.526 -3.6393,-1.2131 -1.6415,2.5199 1.2546,2.3443 6.6263,8.7332 11.9371,14.1976 5.3108,5.4644 9.2581,10.3333 8.7716,10.8197 -2.1339,2.1339 -31.5524,9.1896 -38.3158,9.1896 -6.0582,0 -9.1563,-1.7442 -16.4763,-9.2759 z"
         id="path1610"
         inkscape:connector-curvature="0" />
      <path
         style="fill:#747b51;fill-opacity:1;stroke:none;stroke-width:2.10176539;stroke-miterlimit:4;stroke-dasharray:none"
         d="m 2248.07,2577.8456 c -2.5848,-0.9853 -10.811,-6.9759 -18.2804,-13.3125 -17.861,-15.1519 -26.8849,-17.8999 -44.0147,-13.4038 -12.3279,3.2358 -13.1574,3.2039 -19.6116,-0.7541 -21.2348,-13.0219 -36.2819,-42.5778 -33.3623,-65.531 3.9494,-31.0485 29.0496,-56.6703 64.3849,-65.7228 16.7122,-4.2814 27.4119,-2.9231 44.5224,5.6523 43.2538,21.6778 75.1592,58.8744 75.1635,87.6286 0,18.9754 -8.8355,31.1541 -30.4971,42.0234 l -8.4301,4.23 -13.6384,-10.2812 c -20.7517,-15.6436 -22.1707,-14.3411 -12.6517,11.6133 5.3029,14.459 4.0375,20.7633 -3.5845,17.8578 z"
         id="path1612"
         inkscape:connector-curvature="0" />
      <path
         style="fill:#747b51;fill-opacity:1;stroke:none;stroke-width:2.10176539;stroke-miterlimit:4;stroke-dasharray:none"
         d="m 2521.5183,2541.0682 c -7.5601,-8.0161 -8.0225,-10.0645 -5.1076,-22.625 1.5765,-6.7929 1.2121,-8.7212 -2.3144,-12.2476 -2.5896,-2.5896 -5.5258,-3.6524 -7.701,-2.7875 -1.9336,0.7689 -12.5278,1.9138 -23.5427,2.5443 -17.3902,0.9953 -21.1261,0.5854 -28.3738,-3.1136 -4.5907,-2.3429 -10.1,-6.1985 -12.2428,-8.5679 -2.1428,-2.3695 -6.8718,-4.95 -10.5088,-5.7346 -31.0151,-6.6905 -36.7425,-28.4362 -17.2288,-65.4142 5.375,-10.1855 20.9372,-33.8088 34.5827,-52.4962 17.744,-24.3003 26.7384,-38.7611 31.5809,-50.7744 8.308,-20.61 18.0586,-32.4635 30.6646,-37.2777 20.0165,-7.6444 40.7304,-0.5618 97.0074,33.1694 20.2776,12.154 35.47,19.6266 47.5759,23.401 51.0338,15.9116 61.1033,47.221 27.0012,83.9563 -5.3836,5.7993 -15.2387,14.5822 -21.9003,19.5177 -7.0414,5.2169 -15.8401,14.5207 -21.0176,22.2243 -14.4875,21.5556 -27.1849,27.0379 -45.2288,19.5281 -4.2977,-1.7888 -16.3617,-8.4171 -26.8087,-14.7297 -24.3334,-14.7033 -37.9058,-17.9632 -52.6481,-12.6456 -18.6195,6.7162 -33.2883,11.5625 -42.9035,14.1744 l -9.4579,2.5691 22.4809,1.6122 c 25.7811,1.8488 36.7948,5.4913 38.275,12.6587 5.7406,27.7955 8.8499,35.2849 13.4647,32.4327 1.2911,-0.7979 5.8147,-8.0489 10.0524,-16.1134 10.9055,-20.7531 20.8033,-21.768 32.2152,-3.3032 5.5829,9.0334 4.5501,13.9843 -5.7503,27.5649 -9.4863,12.5073 -22.8355,19.9833 -35.6822,19.9833 -8.0612,0 -10.4159,-1.0722 -16.4836,-7.5058 z"
         id="path1614"
         inkscape:connector-curvature="0" />
      <path
         style="fill:#747b51;fill-opacity:1;stroke:none;stroke-width:2.10176539;stroke-miterlimit:4;stroke-dasharray:none"
         d="m 2787.4274,2646.5591 c -15.9864,-5.7129 -29.4092,-19.8901 -47.0029,-49.6445 -4.4428,-7.5138 -13.0415,-20.8381 -19.108,-29.6096 l -11.0302,-15.948 9.9109,-9.3248 c 14.7516,-13.8792 31.0385,-36.7926 52.8668,-74.3762 23.1017,-39.7759 35.8274,-59.5268 43.9696,-68.2431 11.7507,-12.5792 30.3899,-6.8508 59.9603,18.4278 16.3922,14.013 45.3604,47.07 59.0116,67.3408 l 6.7912,10.0843 -7.0639,11.4163 c -3.885,6.2789 -11.5069,22.7658 -16.9374,36.6375 -30.8673,78.8477 -40.0238,89.9486 -83.3745,101.0794 -21.5987,5.5456 -36.627,6.222 -47.9935,2.1601 z"
         id="path1618"
         inkscape:connector-curvature="0" />
      <path
         style="fill:#747b51;fill-opacity:1;stroke:none;stroke-width:2.10176539;stroke-miterlimit:4;stroke-dasharray:none"
         d="m 2825.6754,2705.681 c -6.8196,-6.0689 -16.7404,-14.6454 -22.0461,-19.059 -12.0772,-10.0464 -14.3987,-17.3299 -7.3447,-23.0441 4.2796,-3.4669 7.4393,-3.9446 20.809,-3.1463 25.5571,1.5262 42.0353,11.9811 42.0353,26.6702 0,6.4221 -1.8481,10.5563 -8.4559,18.9159 -4.6508,5.8836 -9.3879,10.6975 -10.5271,10.6975 -1.1391,0 -7.6508,-4.9654 -14.4705,-11.0342 z"
         id="path1620"
         inkscape:connector-curvature="0" />
      <path
         style="fill:#747b51;fill-opacity:1;stroke:none;stroke-width:2.10176539;stroke-miterlimit:4;stroke-dasharray:none"
         d="m 2173.9534,2784.9389 c 0,-11.3688 -7.2649,-23.4548 -18.3084,-30.4584 -10.6863,-6.7771 -19.2516,-10.1839 -42.1173,-16.7521 -9.4746,-2.7216 -15.2378,-5.4781 -15.2378,-7.2881 0,-2.7238 12.4968,-9.4486 29.4247,-15.8341 4.0459,-1.5261 9.2478,-4.3951 11.5597,-6.3755 17.3479,-14.8603 41.0757,-8.5368 61.2864,16.3329 17.5083,21.5443 18.8836,42.7597 3.2433,50.031 -4.2801,1.9898 -12.2768,6.8053 -17.7703,10.701 -5.4935,3.8958 -10.4589,7.0832 -11.0343,7.0832 -0.5753,0 -1.046,-3.348 -1.046,-7.4399 z"
         id="path1622"
         inkscape:connector-curvature="0" />
      <path
         style="fill:#747b51;fill-opacity:1;stroke:none;stroke-width:2.10176539;stroke-miterlimit:4;stroke-dasharray:none"
         d="m 2100.9171,2854.4 c -4.8691,-2.1163 -6.8285,-4.3561 -6.823,-7.7993 0.01,-3.8236 2.897,-6.3245 13.8692,-11.9982 25.8841,-13.3847 35.7274,-27.7312 20.0593,-29.2358 -8.4055,-0.8072 -19.8574,3.5151 -35.0317,13.222 -12.5774,8.0456 -12.8264,7.9523 -19.7977,-7.415 -5.1688,-11.3938 -5.56,-20.5559 -0.9531,-22.3237 1.8562,-0.7123 10.6264,0.2632 19.4893,2.1677 19.878,4.2716 32.5609,4.4362 35.8563,0.4655 1.3681,-1.6485 2.1933,-6.9425 1.8336,-11.7645 l -0.6538,-8.7671 -16.8142,-0.7408 c -9.2477,-0.4075 -21.0702,-2.1134 -26.272,-3.791 l -9.458,-3.0501 18.9159,-0.3556 c 11.2069,-0.2106 17.2487,-1.0079 14.8249,-1.9564 -7.4336,-2.9091 4.6712,-4.4655 15.9377,-2.0493 37.7757,8.1015 34.3223,74.2723 -4.9322,94.5057 -9.1818,4.7327 -11.0139,4.8137 -20.0505,0.8859 z"
         id="path1624"
         inkscape:connector-curvature="0" />
      <path
         style="fill:#747b51;fill-opacity:1;stroke:none;stroke-width:2.10176539;stroke-miterlimit:4;stroke-dasharray:none"
         d="m 2056.7677,3334.7644 c -4.6885,-3.3964 -14.0519,-8.9818 -20.8075,-12.412 -22.0043,-11.1729 -29.8549,-23.8642 -25.8411,-41.7745 3.056,-13.6365 10.0312,-26.1568 29.0159,-52.0828 9.3113,-12.7157 18.8578,-28.4017 21.2145,-34.8578 13.2315,-36.2464 41.7267,-61.4553 69.4669,-61.4553 23.1508,0 44.7255,16.0636 63.0193,46.9216 8.0445,13.5694 9.4608,17.7273 10.1767,29.8757 0.7238,12.282 0.017,15.8536 -5.4509,27.5379 -7.3289,15.6616 -28.7708,39.4439 -47.8138,53.0327 -11.2993,8.063 -42.9833,24.8347 -44.3446,23.4735 -0.2849,-0.285 1.3083,-7.1046 3.5405,-15.1548 4.4408,-16.0148 5.2738,-28.3891 1.911,-28.3891 -3.0738,0 -16.8397,21.955 -30.4532,48.5691 -6.4399,12.59 -12.474,22.8909 -13.409,22.8909 -0.9351,0 -5.5362,-2.7788 -10.2247,-6.1751 z"
         id="path1626"
         inkscape:connector-curvature="0" />
      <path
         style="fill:#747b51;fill-opacity:1;stroke:none;stroke-width:2.10176539;stroke-miterlimit:4;stroke-dasharray:none"
         d="m 2074.2224,3431.8409 c -2.8662,-4.3349 -10.9807,-21.5956 -18.0322,-38.3572 -7.0515,-16.7616 -13.3866,-31.797 -14.078,-33.412 -0.6914,-1.615 2.4274,-0.4328 6.9306,2.6272 10.3821,7.0548 22.1092,7.3386 32.9153,0.7966 4.3111,-2.6099 17.2449,-13.4817 28.7417,-24.1595 11.4967,-10.6778 21.343,-19.4141 21.8805,-19.4141 2.9959,0 -23.6444,78.2243 -35.5009,104.2415 -6.0751,13.331 -7.8462,15.5591 -12.3681,15.5591 -3.771,0 -6.7654,-2.25 -10.4889,-7.8816 z"
         id="path1628"
         inkscape:connector-curvature="0" />
      <path
         style="fill:#747b51;fill-opacity:1;stroke:none;stroke-width:2.10176539;stroke-miterlimit:4;stroke-dasharray:none"
         d="m 2727.2432,3427.0289 c -2.601,-1.0358 -4.729,-3.6014 -4.729,-5.7014 0,-4.0281 9.8787,-11.0297 15.5621,-11.0297 4.8857,0 4.1352,7.31 -1.3752,13.3935 -3.7816,4.1748 -5.6764,4.8435 -9.4579,3.3376 z"
         id="path1630"
         inkscape:connector-curvature="0" />
      <path
         style="fill:#747b51;fill-opacity:1;stroke:none;stroke-width:2.10176539;stroke-miterlimit:4;stroke-dasharray:none"
         d="m 2743.5318,3206.7424 c 0,-5.7538 23.0246,-13.9775 25.9376,-9.2642 0.6879,1.1131 0.021,3.7054 -1.4818,5.7607 -3.182,4.3517 -24.4558,7.3993 -24.4558,3.5035 z"
         id="path1632"
         inkscape:connector-curvature="0" />
      <path
         style="fill:#747b51;fill-opacity:1;stroke:none;stroke-width:2.10176539;stroke-miterlimit:4;stroke-dasharray:none"
         d="m 2730.1961,3753.2455 c -5.6174,-6.2072 -4.4896,-14.3271 2.3015,-16.5699 12.8552,-4.2454 17.5559,3.7188 8.7799,14.8756 -5.165,6.5663 -6.489,6.7688 -11.0814,1.6943 z"
         id="path1634"
         inkscape:connector-curvature="0" />
      <path
         style="fill:#747b51;fill-opacity:1;stroke:none;stroke-width:2.10176539;stroke-miterlimit:4;stroke-dasharray:none"
         d="m 2674.7381,4219.476 c -10.2485,-1.523 -12.0667,-2.7854 -10.3721,-7.2014 1.5572,-4.0582 11.5901,-6.6385 15.7092,-4.0402 3.6341,2.2923 7.2394,10.7588 5.0402,11.8363 -0.8161,0.3998 -5.4859,0.1322 -10.3773,-0.5947 z"
         id="path1636"
         inkscape:connector-curvature="0" />
    </g>
    <path
       inkscape:connector-curvature="0"
       id="path825"
       d="m 2258.5805,4956.9405 c -63.436,-16.0358 -129.8123,-37.8479 -192.9977,-43.4602 -39.34,78.7274 -51.1799,-27.4696 -66.1788,-70.0594 -46.9764,-58.9869 11.1782,-112.0211 40.5344,-141.2492 33.1409,-10.8677 44.9506,-138.8901 83.5394,-99.9785 2.0582,96.9797 80.8371,22.7644 33.0229,-43.3414 -31.1152,-76.8891 64.7488,-104.1139 65.4485,-169.599 -38.9716,27.088 -77.3118,64.8723 -111.5776,95.3153 20.7338,84.7078 -8.1627,24.1039 -17.604,28.1036 -13.5047,58.8422 -57.6662,87.7868 -91.3912,130.8039 -39.9163,43.6957 -102.6601,106.8574 -68.4131,185.9185 25.3962,84.6349 -37.4797,-13.8268 -26.941,-55.184 -23.4828,19.3583 -71.2155,93.5295 -25.4799,45.3333 -11.0617,37.2441 -96.6817,118.5145 -46.9835,36.7 8.3102,-28.0487 103.3744,-138.4385 29.7864,-96.3661 -26.6624,25.4893 -120.168,28.6571 -48.7688,6.4269 40.1638,-11.4617 117.0893,-45.6326 50.1495,-94.5246 -45.1123,-46.7992 -6.1194,-165.7905 -71.2254,-154.2274 -85.5329,-45.8159 -4.5576,70.6331 -18.7058,114.0878 -32.8383,-38.2176 -37.1391,-178.2658 -88.2946,-68.0818 -12.5911,41.7486 -68.4469,81.7422 -32.6596,9.196 30.3166,-44.9409 79.3284,-107.5523 0.039,-96.599 -64.4884,-42.5604 62.3317,-15.9686 60.9472,-22.3671 -30.5796,-8.2773 -62.6135,-39.1833 -93.1773,-57.2385 -35.0516,-28.8501 -71.2349,-62.3797 -103.7451,-93.0368 41.3815,-5.1445 85.7304,76.4234 132.4867,97.0368 40.4855,31.4918 51.859,26.9261 5.4165,-1.839 14.0027,-32.8531 67.0734,65.3953 88.924,15.5371 4.6338,-45.9271 83.9176,-94.9225 41.0208,-34.6403 -16.5406,38.7282 -53.3984,67.2032 -5.996,84.1711 4.0202,89.6971 94.3962,43.0551 113.9064,-21.9536 30.7257,-29.5624 54.1464,-143.7961 88.9617,-119.4188 -18.6027,37.414 -43.9549,78.5337 -67.8519,117.6899 -33.578,47.8432 -66.0814,86.3186 0.482,90.4233 15.1095,88.1036 -38.2938,-35.9618 -62.4758,12.2799 -23.4361,34.1986 51.999,190.3351 61.5278,119.0994 39.727,-31.2394 -28.2275,116.8379 21.4929,32.32 27.6129,-61.5745 125.04,-102.0583 110.3494,-175.0449 -38.1941,-52.1532 -64.0982,-143.0777 -67.189,-156.0633 36.4915,30.2987 68.1843,185.0956 103.0496,135.5197 20.7684,-47.556 -25.1909,-56.5884 -47.3604,-71.6641 -2.9978,-32.3735 52.2675,11.8876 8.5977,-41.1252 -36.6266,-34.846 -81.5811,-112.9008 -22.2707,-153.6462 44.4658,-46.7389 58.6249,-152.5457 113.3144,-170.1412 47.5852,62.3335 64.7639,159.1754 104.09,226.8723 32.4593,24.9392 -107.8573,144.0834 -28.6337,92.4308 32.5451,7.3717 52.5929,-116.6302 71.7702,-39.8064 38.0921,57.8111 12.1145,200.176 77.734,209.9299 44.2105,5.4676 70.1285,16.4402 4.6362,11.9728 -70.0188,3.5676 5.7729,37.6809 33.4803,58.1954 -57.0494,-12.0923 -72.6253,13.2597 -114.5959,47.2302 -34.3699,37.6938 41.8759,9.2199 62.9433,32.6798 36.0407,2.7459 144.5225,93.7875 66.6378,44.6604 -50.5302,-11.2338 -128.0568,-77.136 -165.5614,-24.8925 3.2186,61.3772 -16.3534,94.1263 -15.2627,10.2189 -35.4303,84.1683 -26.2552,-56.2301 -55.6485,0 15.5185,-39.5427 0.6691,-97.5921 -38.8063,-61.4565 28.6014,78.1881 9.501,167.897 80.9592,185.1011 28.6289,12.1079 154.6085,69.1915 57.522,42.0305 -56.2613,9.3556 -109.2316,-84.2111 -153.5051,-52.8603 -27.7593,28.4216 116.9257,19.3058 27.4037,34.7664 -41.811,-10.997 -107.2721,22.635 -32.8568,25.8572 23.2306,5.7178 159.8519,29.5315 141.984,51.9571 z m -217.4792,-39.6037 c -4.8065,-45.1638 5.0318,-93.2478 7.7284,-149.3859 20.6151,48.9523 49.5921,32.9907 55.1367,23.7034 -46.896,2.9175 -52.1912,117.1343 -5.0191,49.5558 62.0078,-33.5507 37.4578,-104.7294 20.4631,-174.6783 -30.2257,15.8386 12.592,-74.6732 -28.6004,-12.9873 -24.4979,51.8886 -52.4773,96.5966 -86.8825,132.6283 1.6569,44.307 27.4668,95.4457 37.1738,131.164 z m 21.3484,-31.6379 c -5.1607,-4.1065 -5.1713,2.2883 0,0 z m -11.7507,-6.4888 c -1.4798,-12.0153 -7.5212,-10.3107 0,0 z m -0.062,-17.4444 c 6.306,-33.7774 -11.4033,14.7845 0,0 z m -196.0707,-16.2873 c 4.7428,-14.6299 -10.3611,13.5832 0,0 z m 363.913,-129.233 c 55.3295,-46.7141 -39.2581,-20.1282 0,0 z m 21.0642,-44.31 c 17.2513,-56.3868 -43.1357,1.8485 0,0 z m 19.4589,-9.3792 c 30.5412,-16.8559 76.5121,-61.4078 56.2593,-99.5414 -43.4338,15.9714 -32.0053,-28.6044 -0.6487,-22.3284 -19.1823,-46.9741 -20.4406,-176.6496 -55.3478,-178.8094 -16.9019,71.2704 -75.9978,118.1057 -91.5596,178.3334 0.067,80.0458 34.9775,123.4334 84.5439,78.8342 8.9066,6.4451 -11.9859,69.482 6.7529,43.5116 z m -478.3608,-161.1126 c -41.7304,-71.5649 -61.1186,21.1884 0,0 z m 341.5907,-55.7838 c 35.301,-44.0324 71.5826,-91.8041 97.7175,-146.0254 -29.1116,-69.129 -49.3444,-164.3368 -92.9613,-210.2275 -45.9257,59.0138 -69.7576,145.3712 -123.3291,196.3459 32.9196,79.1552 126.5681,170.1453 97.8759,151.4573 2.5544,-54.5186 58.8324,-156.7803 24.8706,-47.2761 -1.4715,12.203 -19.2257,57.481 -4.1736,55.7258 z m -415.774,-11.4497 c -2.4119,-4.7496 -1.1828,4.8747 0,0 z m 26.6479,190.3333 c -10.8636,-33.8542 7.82,3.0535 0,0 z m 206.4415,-9.608 c 2.5422,-4.7737 1.4886,6.3191 0,0 z m -1.2268,-38.8364 c 1.4117,-3.5512 0.4361,5.7487 0,0 z m -96.4099,-128.1513 c -40.7107,-50.0069 -24.5712,-140.7886 -79.8505,-170.9073 -33.6478,-0.1337 -97.5829,-85.2912 -28.2182,-33.5239 36.3959,26.5023 69.4136,52.6202 44.0191,-26.9047 38.8746,-50.298 66.8918,-112.8139 107.1908,-161.0684 34.6156,-12.0663 -15.1401,-84.0983 34.2414,-115.8888 34.7129,-39.3999 53.4096,-102.7984 89.1026,-137.2279 21.9576,40.504 -42.972,80.3056 -56.8503,125.1167 -59.954,50.4395 -29.7904,128.9807 -5.0731,196.301 62.2693,89.0397 34.3715,-100.8664 82.8044,-120.1282 -9.4974,51.8581 -63.2211,203.6138 9.6698,123.2107 48.1485,-52.9201 52.6029,-21.9632 0.931,14.6701 -37.941,34.7907 -68.1044,88.8986 -79.1403,17.2798 1.6516,6.5792 15.4872,119.1267 -14.1946,27.3333 -7.5455,-43.1277 -64.3678,-124.6647 -81.6492,-64.7085 -26.6311,43.2392 -83.798,93.2925 -56.8461,158.3381 37.8911,63.5247 64.1011,-4.8382 93.0204,-25.262 -56.3495,102.1727 30.8543,19.1381 65.2123,17.786 -39.4168,26.8416 -90.3364,98.7907 -136.4052,42.2452 -37.7778,-1.7194 26.2774,100.6645 15.8203,133.4832 z m 82.4651,-336.2984 c -0.4124,-97.3522 -65.9574,2.0976 -3.2154,3.9645 l 1.9268,0.6363 z m 412.6324,262.9129 c -11.0518,-58.8043 54.1118,-91.9812 -2.8625,-134.8952 5.5118,-38.5462 82.2474,12.1795 33.3574,-70.1236 -29.2291,-115.0706 37.2615,99.892 37.5296,65.449 73.7184,21.7886 40.6386,19.3671 -8.9572,19.7421 -42.9181,53.6456 43.9452,57.8545 24.2611,116.5877 -38.3063,-79.8306 -66.4894,-19.5694 -83.3289,3.24 z m 39.2022,-121.7313 c 0.9119,-33.9728 -39.4339,0.2812 0,0 z m -619.3855,122.7125 c 1.183,-4.8749 2.4119,4.7499 0,0 z m 519.5793,-145.0381 c -34.1474,-12.8215 -14.5631,-108.0673 -56.2662,-111.5565 -38.4316,3.4458 -66.2273,-5.4136 -6.5882,-10.0547 33.3345,-29.7803 -55.5554,-139.6894 22.0479,-174.684 37.103,-25.8289 76.8608,-179.001 111.766,-100.987 29.136,54.0145 12.3429,175.7804 117.475,129.9823 -62.0454,38.9457 -92.1046,100.9063 -111.9272,149.9386 -3.7216,42.8495 -1.4406,18.8106 -28.5218,54.8006 -31.2346,72.828 -40.5216,20.2336 -9.9493,-19.3044 -27.6152,-13.7135 -85.8046,-64.5866 -45.0982,22.8483 2.378,13.6192 35.5411,63.3125 7.062,59.0168 z m 49.5224,-104.0456 c 24.1701,-34.2778 50.3259,-107.4701 1.1417,-45.5829 -29.8621,15.8249 -47.7197,65.8806 -1.1417,45.5829 z m -68.9041,-25.4768 c 47.635,-9.9713 95.8215,-49.1225 127.7565,-94.9517 -25.729,-31.4459 -33.2499,-228.3747 -78.8839,-136.9296 -35.4375,59.4552 -117.966,113.9579 -68.621,199.7752 4.5707,13.0268 1.5267,45.7643 19.7484,32.1061 z m -452.2514,12.1845 c -10.0085,-86.5931 -68.6249,-105.9337 -121.8916,-137.9726 13.1379,-25.9401 127.0885,96.9829 79.854,-20.1123 6.3754,-61.004 116.2739,-117.9296 28.5791,-135.6947 -43.6777,-12.8928 -133.5277,-80.0258 -37.4217,-29.2281 93.5173,52.7843 -36.7889,-102.8154 24.2466,-143.7337 31.9284,-70.2628 -48.7004,-34.7225 -51.672,-75.0991 45.3218,26.7158 101.6905,21.1851 57.1295,-57.6371 21.5903,-53.2402 10.2282,-53.3713 -33.1572,-64.4157 -37.6923,-8.8519 -107.0881,-54.6696 -32.1232,-23.5778 49.8251,26.5281 105.7409,37.7324 133.4889,-36.8192 70.3965,-13.2199 -44.6202,56.4345 -3.9978,91.8311 -58.1073,90.6302 -2.8929,-40.4 -28.3512,-6.5405 -50.0817,32.1206 27.3665,183.0537 37.7592,91.8944 9.883,-85.0781 36.1315,-0.9599 23.0399,2.6877 48.5408,-43.6921 -4.9791,55.1994 -7.6515,39.3636 13.6442,109.8666 40.3367,-96.9427 72.9566,-24.8544 66.7594,43.0316 -0.6957,-42.7444 11.8544,-88.5772 38.7689,-52.0888 67.7284,-118.1634 93.7115,-181.2229 46.0087,-4.6201 -21.1809,81.0419 -26.6118,115.2682 -60.3714,48.9895 -46.114,145.5468 -5.1648,195.8303 14.8725,-18.3645 44.426,21.6928 40.2634,53.4009 44.8332,-40.2288 88.7548,-255.0388 135.9134,-107.7477 32.1779,73.7162 105.7119,142.1984 32.8129,210.4197 -49.945,60.0088 -33.087,108.567 -14.692,104.9609 -52.5416,-10.2617 -96.7499,88.5337 -59.5095,142.195 -37.466,-0.074 -36.8339,-195.4785 -56.6349,-109.8149 22.1519,32.0012 15.8356,114.059 -5.8234,28.5289 13.8555,-81.0978 -134.288,-27.4319 -50.2559,-58.8057 73.9597,-13.4236 -65.8183,-144.3835 5.4038,-194.4391 4.7461,-86.0276 -35.0395,-17.1946 -69.4626,-4.9959 -35.9607,34.0634 -81.0223,14.3287 -15.648,-5.7809 74.8158,-17.3774 13.8525,-92.6138 -26.6732,-85.0387 -29.4957,25.1955 -59.8174,150.675 -89.1962,115.659 43.9774,-28.385 23.589,-129.2656 -10.5051,-93.4008 24.9088,78.0073 -27.218,-6.97 -20.9891,6.0878 -34.5843,51.5377 -18.8385,171.8768 25.7894,198.1131 17.3227,-12.4802 -19.9718,-153.2684 17.4493,-61.0211 -1.285,56.8817 53.2284,120.5447 64.9503,37.4007 9.9952,-49.4304 55.1479,-75.0919 17.3098,-9.5774 -40.1978,98.4906 53.264,18.1319 60.5426,5.5994 -32.9167,13.3195 -78.3806,120.5475 -93.9347,61.9106 -61.2051,-44.1529 34.019,152.5021 -23.0044,70.1705 -9.47,-89.3067 -34.8952,-93.1307 -69.4546,-20.5645 -52.1421,13.4951 -18.7433,180.2461 9.853,89.0606 57.3832,-88.0144 -14.8768,53.9292 11.4671,35.9115 52.7926,-70.0485 4.3314,80.4407 -24.7048,13.2324 -30.2447,-22.4706 26.9512,75.0058 -5.8435,67.1457 z m 328.3284,-177.2906 c 36.2635,-64.2377 -25.3103,-26.5743 0,0 z m 0.7434,-45.737 c 66.9656,-7.7074 64.4927,-135.1675 108.5947,-180.6571 -13.7308,-38.415 -55.4169,-149.1411 -88.9818,-157.705 -25.5202,66.0512 -99.8251,146.2299 -89.0919,198.6478 -52.657,-114.314 32.6255,196.468 14.3526,105.7063 31.8897,82.2223 90.1172,-106.2381 76.98,-102.3084 18.0935,38.434 -53.3217,123.6441 -21.8536,136.3164 z m -146.6996,-289.0999 c -6.9648,-13.7869 -2.1648,6.0878 0,0 z m 402.7871,253.4433 c 11.8467,-37.4419 -35.0512,-147.3399 37.2322,-103.6065 15.0141,-53.3445 -50.9023,-40.8591 -12.0884,-75.7598 -9.1495,-72.8785 -32.5468,-31.1968 -45.6667,0.239 14.6663,-73.0064 -28.9093,-19.0275 -58.5473,-37.9412 27.6192,20.9428 53.616,128.1378 11.7562,54.7952 3.0228,-61.4505 -122.4867,-75.7464 -57.6113,-76.6393 15.8265,-15.3452 -112.8944,-168.9609 -39.2128,-104.3807 20.3419,32.1975 101.3619,176.3807 90.5238,59.02 -22.1836,-95.3538 33.6969,43.2973 23.389,37.7434 2.6115,-57.2948 42.3059,-141.5126 19.9775,-38.41 -20.4132,116.5712 49.3024,-16.9064 41.1669,-67.522 -31.3085,-11.7482 -15.484,-96.3311 8.3047,-85.8511 -41.6508,-28.635 -84.5561,-203.4073 -124.211,-101.9597 -22.1766,37.0669 -103.7753,134.921 -78.6559,157.6118 14.2291,-64.1389 60.4116,-139.9631 66.4233,-190.8583 45.7254,-97.337 86.267,50.3936 124.1996,87.9131 21.0504,62.2705 106.482,34.4676 93.7586,69.8766 -51.8487,-35.4267 -62.6558,33.7654 -75.3748,76.7901 -51.9463,98.1987 4.4129,100.6805 64.6969,87.1931 37.4802,-11.2367 177.2479,46.3684 81.2906,24.2282 -46.8714,-4.0505 -193.6618,-27.9879 -112.0347,58.0792 58.6517,13.2447 15.8838,10.0691 -13.174,12.2943 -12.9748,104.972 113.2954,40.5621 149.2683,107.1568 -63.6152,-3.6446 -132.5254,-71.5823 -169.263,18.994 -10.2688,6.4124 -15.4836,27.8743 -26.1477,30.9938 z m 22.2882,-63.6065 c 28.0045,-38.233 -26.8772,-27.9414 0,0 z m -16.2724,-178.4 c -4.0998,-15.8415 -5.7215,8.1456 0,0 z m 14.7042,-151.4333 c 25.5461,-41.987 -30.0802,-5.9204 0,0 z m -11.2812,185.1667 c 1.2145,-5.2566 3.5095,5.076 0,0 z m -359.6647,-29.6056 c 0.016,-38.0392 101.7347,-85.7273 30.5982,-17.0611 -9.7472,5.6413 -19.5511,23.007 -30.5982,17.0611 z m -107.9304,-99.0315 c -32.165,-84.2842 -61.0021,-174.5877 -101.1522,-251.542 -10.9734,-10.6505 22.2198,115.9288 -13.5356,59.0097 0.7529,-86.8833 -34.2172,-150.0553 -84.4287,-200.7177 -52.931,-86.7485 113.8204,134.7143 77.1265,83.9297 31.9104,-74.5486 -4.4096,-106.0351 -50.9831,-127.6269 0,0 120.2885,24.0399 72.8407,-55.7479 -28.3257,-11.2919 -179.9249,-45.2222 -74.3092,-37.2148 52.3638,16.8298 104.7359,40.5834 127.3082,-46.7922 16.6176,-37.7167 73.0185,-37.7045 25.3659,-56.5365 -62.4567,9.278 50.1692,-17.3939 -7.122,-66.7968 -35.6652,-14.5406 -156.2516,-50.7423 -49.888,-38.4548 102.9133,-3.2089 -44.9027,-36.7851 -70.7437,-64.5601 -4.883,-14.9706 118.6877,39.5968 116.3161,38.817 36.6589,5.6395 65.9948,-47.1815 102.2288,-51.8268 4.6265,34.8644 72.734,75.8436 46.7313,113.7656 -43.8391,9.5397 -36.5124,83.5213 -67.4761,73.046 -19.1817,42.864 -73.2887,14.6179 -35.1249,87.8931 42.3619,50.1076 14.3474,79.4387 -6.2463,12.6619 -14.8519,-99.1386 -99.1289,22.7591 -58.2732,60.9858 -11.1755,37.4606 -38.7056,-67.4292 -21.8935,10.4254 15.403,116.7122 79.2902,-28.622 101.062,3.9578 -26.887,34.6169 -53.7689,50.5846 -56.2097,98.3924 -4.739,105.0134 -39.4947,-98.1855 -54.4187,-22.4365 -27.3844,41.1292 -31.8204,148.1674 19.5963,142.9072 33.9383,-54.7115 50.108,-128.4674 88.8033,-176.2406 22.4822,-8.9815 26.0684,63.3654 59.2042,22.7251 -17.794,-53.6199 -66.5454,-111.2528 -34.0144,-169.9261 20.033,-39.9784 27.6107,-95.7293 58.0446,-120.911 24.3361,4.0099 63.9994,29.0637 77.8943,-6.5274 -40.9232,-54.5668 -80.0732,-132.5222 -12.8729,-177.4346 34.6992,-38.3051 54.878,-88.9201 101.1709,-96.6301 -56.1545,-12.227 -75.6655,-73.4987 -28.3511,-139.9805 31.6786,-69.1834 60.7502,-206.7612 128.4333,-102.5481 38.2809,31.5194 103.5535,54.881 112.3323,106.8513 -16.9122,43.4486 -99.1016,90.3825 -85.6687,137.6052 27.536,38.0756 60.5876,131.3715 12.4416,50.7733 -32.4955,-113.9374 -47.9641,24.2963 -84.1431,19.9491 40.4103,-67.9429 -77.8732,-65.8919 -85.4115,-38.4596 40.4237,16.5252 116.7539,155.2669 36.6,62.7663 -35.5247,-82.1287 -155.4837,37.5878 -118.8321,97.0801 23.0377,56.8827 42.4221,86.0081 67.979,56.7834 7.3187,21.4447 -5.4772,106.4952 16.5393,55.1499 34.562,-54.5585 -20.0638,-89.7618 -13.671,-77.3183 48.0305,40.2893 74.8956,-165.6292 82.9634,-67.4481 -28.7189,43.9885 -35.1522,84.156 14.0318,83.0895 -71.5109,-44.6328 -51.8053,112.6817 -99.8285,100.6685 -0.7998,-31.8515 -83.3858,-80.9146 -59.8646,-16.4876 11.798,43.5567 61.953,76.0329 54.2736,106.8759 -22.2496,11.4734 -77.022,124.0092 -33.025,90.5943 9.2193,-22.9752 45.0392,-129.5275 52.507,-61.9056 -29.9827,40.5363 -42.9457,100.1412 -71.2588,143.9612 -41.484,39.7515 13.4621,56.0293 15.0051,81.9463 -38.5494,-7.1574 -50.5124,-72.2104 -80.1083,-68.3776 -23.5465,-69.8401 -65.3131,-18.5754 -13.8177,20.6852 55.1321,48.4746 -5.9157,95.5665 -30.3609,146.5848 -22.8083,48.5185 -35.1962,145.1245 -63.766,170.5672 z m 6.9428,-46.1712 c 21.586,-55.1953 31.2473,-123.2918 33.6714,-124.0005 -32.8295,35.7563 -48.2732,83.0802 -77.6657,25.7618 14.5495,18.9769 28.534,112.7297 43.9943,98.2387 z m -15.1434,-98.5148 c 17.6737,-49.405 45.5389,-119.6672 25.3298,-27.1829 38.4355,-16.3892 94.7239,-83.9971 66.6016,-132.4003 -31.6737,-81.8169 -83.6939,-57.7294 -102.1119,23.4467 -21.73,43.4758 -61.7179,94.2389 -7.4238,122.2161 5.0226,4.2643 12.5211,13.9949 17.6043,13.9204 z m 155.4335,-201.1197 c 34.3279,-38.7793 29.692,-114.6458 -0.3715,-27.9895 -3.1888,0.6856 -10.8772,48.968 0.3715,27.9895 z m -25.3598,-11.3076 c -7.1252,-40.766 -17.5814,-5.1235 0,0 z m -156.5433,-9.9163 c 23.755,-48.7668 -39.9927,-11.7307 0,0 z m 68.8915,-4.0664 c -2.7406,-8.28 -7.3138,1.7584 0,0 z m 99.7293,-11.5576 c -0.051,-8.4379 -5.0314,7.0142 0,0 z m -20.8026,-13.6339 c 39.4215,-15.1964 25.3069,-1.4969 8.1095,-38.5421 46.0107,35.8563 99.3473,-128.8856 80.7679,-106.4067 -18.9682,-37.8457 -71.0333,-169.3043 -99.7065,-91.0104 -10.1972,46.2457 -61.1193,97.5376 -36.1917,146.7792 12.0744,24.5328 23.589,94.6867 47.0208,89.18 z m -87.411,-232.9826 c 36.5495,-17.527 39.183,-109.3056 -5.4465,-98.9891 -59.5161,-14.9668 -21.645,19.1302 14.9264,12.6713 12.4169,65.6038 -72.6179,-31.5673 -34.6156,56.9543 39.5296,-42.3645 61.2785,-17.8544 9.6439,13.8316 -6.2477,11.6373 9.5522,19.2212 15.4918,15.5319 z m 61.2665,-79.497 c 37.2882,-11.5471 -20.226,-112.6071 -45.7498,-66.5958 -82.3384,39.7849 38.8662,9.9197 26.0132,85.1592 6.4487,-6.4427 12.7039,-13.2644 19.7366,-18.5634 z m 282.7861,-269.6784 c -31.3722,-71.0976 -30.1732,70.6415 -44.1204,-15.7321 5.7693,-32.8741 -91.4214,-2.1161 -17.001,-28.0309 44.8382,-41.795 73.9372,82.8332 107.3376,-11.0113 47.8057,-40.8897 62.865,-97.3902 -3.3528,-117.8055 -47.7089,-31.3365 -99.5438,-106.9504 -122.5214,-3.9773 -15.8356,40.7123 -95.5557,145.4034 -27.1612,159.6375 25.1749,44.9508 68.5922,-18.4982 54.5021,38.5203 11.3474,42.2399 48.4556,10.8426 52.3171,-21.6007 z m -194.4001,962.6402 c -2.3972,-14.8122 3.3056,6.8835 0,0 z m 49.4204,-87.6883 c -23.7628,-59.0699 -100.4318,-128.7577 -83.4755,-191.3347 25.6926,52.6641 60.0013,123.095 93.5164,178.6811 3.255,8.0638 -3.8191,17.3426 -10.0409,12.6536 z m 23.4456,-30.8693 c -3.7061,-40.6286 41.1286,-84.8434 -1.4919,-61.8102 -29.256,17.2391 -47.355,-0.4403 -13.8805,-24.8405 -12.7297,-49.5638 -35.7653,-197.529 -2.9886,-71.9613 -4.7946,122.1472 79.373,-71.8857 58.4109,8.2786 -41.2731,24.5346 -42.9683,107.0858 -1.1291,41.4056 15.2823,-54.0004 72.1349,-94.6989 20.6244,-149.758 -23.1507,-23.9415 -80.425,-189.8535 -27.492,-96.3742 13.6935,62.2248 69.4366,108.7607 72.2789,166.06 -16.576,30.7468 -45.1052,58.79 -52.7996,94.0678 75.5747,-18.3214 -46.3819,26.1149 -41.3082,90.4138 l -5.951,5.9494 z m 275.9161,-67.5784 c -15.2268,-50.0613 -56.3635,32.1677 -36.2847,-44.7858 -75.5803,-52.997 38.3201,-34.924 37.1247,-97.958 -25.1128,-87.5661 -44.3088,-68.1582 -82.5699,-13.5065 -44.9938,-14.7675 -49.5243,-139.4013 -105.9861,-98.7056 -83.7791,12.2825 40.2534,-11.9069 16.7872,-43.4845 -13.0738,-43.1846 -77.6204,-96.6666 -24.3947,-129.9812 41.1023,-39.0055 70.647,-112.3472 107.1776,-148.282 28.6993,62.5507 123.3009,137.6522 113.7741,196.2448 -48.4211,-30.2827 -95.0568,-222.1779 -143.3966,-122.7826 -24.3044,55.0944 -111.7798,99.888 -53.0568,165.5503 6.4718,64.792 64.7037,58.2327 76.5959,6.9175 5.3274,18.4805 15.8478,111.4742 63.5743,65.805 26.1892,-17.6197 54.7664,-140.8066 67.4773,-76.9569 -15.1106,46.173 -58.6488,65.494 -5.4177,92.9323 99.6115,47.1885 -92.8475,-39.6677 -48.4833,36.1446 43.0242,47.0597 31.2516,95.427 87.5995,82.0936 28.1827,18.5132 -70.6521,6.04 -72.3787,55.2548 28.3144,28.9858 97.3756,23.824 115.2835,53.6204 -35.9642,-12.5504 -166.2834,-68.0854 -106.4325,19.1263 l -2.6449,4.0751 z m -20.778,-76.8803 c 17.1439,-32.4458 -48.3483,11.3323 0,0 z m -22.9928,-0.7436 c -3.5781,-17.1246 -10.0699,9.5103 0,0 z m -38.3118,-104.6672 c 43.2721,-23.7802 -34.8541,-46.7822 -21.461,-101.7972 -71.7029,-6.65 8.3119,96.7999 21.461,101.7972 z m 28.6587,-37.7679 c 29.6194,-54.0391 -78.7536,-26.7209 -9.1532,-2.0816 3.8452,-0.6507 7.0874,15.0851 9.1532,2.0816 z m 21.1928,-2.1384 c 2.2449,-11.0699 -5.5559,7.429 0,0 z m 59.1298,-94.9588 c -9.9084,-34.9514 153.0457,-20.7746 75.0666,-8.9412 -6.6211,-1.6036 -70.2387,22.644 -75.0666,8.9412 z m -617.6415,-73.9321 c -26.0934,-53.5043 44.931,-125.0478 16.4484,-41.6193 -2.108,17.1615 4.0648,54.0853 -16.4484,41.6193 z m 637.493,-31.4423 c -9.0257,-33.5032 4.2711,-60.5591 -33.7261,-77.9698 47.8141,-26.7493 -21.8641,-45.8005 -26.8922,-99.9166 -10.5413,-41.5602 -103.1999,-139.3357 -52.1141,-151.7959 32.9081,-56.5927 55.7377,-123.2104 83.6459,-185.0659 37.3585,43.584 78.7925,93.5178 116.1006,136.6251 -2.475,37.1217 -73.1094,118.2998 -29.4602,122.0932 32.4122,-14.5583 138.7476,-11.0045 49.5951,13.6591 -44.8351,2.2063 -116.6684,13.885 -44.1308,37.7022 41.4873,2.4685 117.7524,57.3941 31.8663,26.9661 -50.8987,-22.6998 -98.8401,-20.4064 -92.9513,64.2953 50.6422,40.1456 2.3022,-121.9868 42.5768,-11.2884 9.2597,21.4192 93.0999,4.7355 58.0225,18.3046 -67.9696,5.2776 -22.5876,-5.0207 -0.6662,18.4458 -34.5572,0.1555 -97.6343,25.5682 -28.2874,41.7044 47.0768,33.8059 -72.6822,-42.8589 -61.6955,41.2524 l -7.5317,8.7282 -4.3528,-3.7398 z m 20.6594,-73.2268 c 10.7284,-24.0567 -15.1991,10.8337 0,0 z m -29.5543,-75.3309 c 48.1593,-63.2329 -90.8183,-74.599 -21.0298,-14.6452 4.9066,4.0826 14.9979,27.3664 21.0298,14.6452 z m -11.138,-67.6203 c 57.4707,-8.9528 53.3464,-98.4657 82.1079,-149.3797 -11.1004,-27.6438 -75.5088,-138.4454 -95.5627,-93.3334 -26.8097,47.3505 -43.4511,114.5023 -76.4521,148.897 28.0041,41.915 36.7521,119.2704 89.9069,93.8161 z m -570.9662,38.9793 c -3.9935,-72.5851 5.8007,-146.7531 -57.9638,-140.9244 7.2998,-22.6774 73.1758,-6.7804 92.6525,-50.257 4.1266,39.0693 -21.6911,71.2862 27.0696,60.0761 -42.4027,-64.367 -28.8456,-121.5375 33.3656,-147.5696 44.7226,-80.2884 85.3286,70.6002 124.5257,101.031 -6.218,43.8061 -62.131,65.1665 -17.6407,98.3536 -26.3116,-34.0542 -51.2433,-8.3178 -55.1374,25.6587 -37.4982,13.4856 -44.2657,12.4079 -19.0983,-38.266 -2.3664,-33.2923 -25.086,24.5536 -28.0162,20.6664 4.9512,39.5328 -38.4003,-20.8274 -64.1734,20.09 -64.0776,5.9366 72.5994,-20.4342 33.4656,-60.5304 -64.9107,-45.2836 -61.2197,43.4461 -64.2731,112.406 l -4.7723,-0.734 z m 147.1362,-104.0385 c 9.2635,-14.531 -28.8183,-72.7781 17.2817,-21.2666 74.5647,-38.7783 -7.6666,-137.7385 -45.5355,-144.0321 -65.1394,9.3472 -82.4744,100.0246 -31.1326,140.5084 36.9759,-21.2698 40.0473,20.7412 59.3864,24.7903 z m -54.0857,4.6384 c 18.2152,-15.2892 -23.2063,-14.2744 0,0 z m 572.321,-60.7681 c -7.822,-39.8442 176.5641,-65.0382 167.648,-62.4979 -42.5057,22.5334 -125.1592,49.738 -167.648,62.4979 z m -4.8869,-101.7908 c 28.9301,-58.67 105.4441,-72.4514 136.0668,-125.1819 -21.8619,71.4338 -116.2709,122.1653 -156.2641,171.0562 l -19.045,-16.1508 z m -79.9901,-12.5645 c 3.8359,-42.0685 141.4225,-162.6859 90.2789,-89.1689 -10.8769,5.1268 -77.2859,97.3759 -90.2789,89.1689 z"
       style="fill:#f2f2d6;fill-opacity:1;stroke:none;stroke-width:1.14192677"
       sodipodi:nodetypes="cccccccccccccccccccccccccccccccccccccccccccccccccccccccccccccccccccccccccccccccccccccccccccccccccccccccccccccccccccccccccccccccccccccccccccccccccccccccccccccccccccccccccccccccccccccccccccccccccccccccccccccccccccccccccccccccccccccccccccccccccccccccccccccccccccccccccccccccccccccccccccccccccccccccccccccccccccccccccccccccccccccccccccccccccccccccccccccccccccccccccccccccccccccccccccccccccccccccccccccccccccccccccccccccccccccccccccccccccccccccccccccccccccccccccccccccccccccccccccccccccccc"
       inkscape:export-xdpi="17.200407"
       inkscape:export-ydpi="17.200407" />
  </g>
</svg>
