<?xml version="1.0" encoding="UTF-8" standalone="no"?>
<!-- Created with Inkscape (http://www.inkscape.org/) -->

<svg
   xmlns:dc="http://purl.org/dc/elements/1.1/"
   xmlns:cc="http://creativecommons.org/ns#"
   xmlns:rdf="http://www.w3.org/1999/02/22-rdf-syntax-ns#"
   xmlns:svg="http://www.w3.org/2000/svg"
   xmlns="http://www.w3.org/2000/svg"
   xmlns:sodipodi="http://sodipodi.sourceforge.net/DTD/sodipodi-0.dtd"
   xmlns:inkscape="http://www.inkscape.org/namespaces/inkscape"
   version="1.1"
   id="svg815"
   width="1673.0664"
   height="2712.1174"
   viewBox="0 0 1673.0664 2712.1174"
   sodipodi:docname="1.svg"
   inkscape:version="0.92.4 (5da689c313, 2019-01-14)">
  <metadata
     id="metadata821">
    <rdf:RDF>
      <cc:Work
         rdf:about="">
        <dc:format>image/svg+xml</dc:format>
        <dc:type
           rdf:resource="http://purl.org/dc/dcmitype/StillImage" />
        <dc:title />
      </cc:Work>
    </rdf:RDF>
  </metadata>
  <defs
     id="defs819" />
  <sodipodi:namedview
     pagecolor="#ffffff"
     bordercolor="#666666"
     borderopacity="1"
     objecttolerance="10"
     gridtolerance="10"
     guidetolerance="10"
     inkscape:pageopacity="0"
     inkscape:pageshadow="2"
     inkscape:window-width="1388"
     inkscape:window-height="827"
     id="namedview817"
     showgrid="false"
     inkscape:zoom="0.15725279"
     inkscape:cx="546.99509"
     inkscape:cy="1543.7028"
     inkscape:window-x="24"
     inkscape:window-y="54"
     inkscape:window-maximized="0"
     inkscape:current-layer="g1753"
     fit-margin-top="0"
     fit-margin-left="0"
     fit-margin-right="0"
     fit-margin-bottom="0" />
  <g
     id="g1753"
     transform="translate(-1516.2715,-2234.0676)">
    <path
       sodipodi:nodetypes="ccccccccccccccccccccccccccccccccccccccccccccc"
       inkscape:connector-curvature="0"
       id="path828"
       d="m 1853.4882,2528.0481 43.6042,-47.5575 -13.0812,-29.7235 109.0104,-83.2256 87.2084,112.9491 21.8021,-29.7235 104.6501,-219.9535 153.6319,135.2357 72.5044,9.9551 129.0961,123.4354 -115.9705,209.6156 8.8937,148.5577 -12.6931,92.508 -66.2871,107.8252 46.4041,104.7758 -71.6858,179.7486 47.9646,35.6681 -50.4512,198.8499 59.1721,163.7762 -100.2897,124.8385 47.9647,101.0597 -34.8834,107.0045 65.4063,154.5619 -113.3709,208.0642 34.8833,160.5066 -331.3917,344.792 -122.0918,-148.6172 -168.2392,-203.9197 -26.6479,-190.3333 90.2371,-116.9904 -34.8834,-124.8385 42.9594,-79.2138 -51.6802,-176.4078 45.7243,-116.1945 -37.3386,-137.3146 46.5389,-99.6592 -41.8434,-122.407 74.1272,-89.1703 -52.3251,-124.8385 56.6855,-166.4513 -21.8021,-95.1151 42.3455,-61.0657 27.5639,-74.1065 18.9298,-134.5345 z"
       style="fill:#313816;fill-opacity:1;stroke:none;stroke-width:0.85644501px;stroke-linecap:butt;stroke-linejoin:miter;stroke-opacity:1" />
    <path
       inkscape:connector-curvature="0"
       id="path896"
       d="m 2098.1497,2840.3421 190.4072,274.2385 102.0395,-342.7424 -214.5527,-314.2299 -104.7584,315.1858 z"
       style="fill:#747b51;fill-opacity:1;stroke:none;stroke-width:1.34162176px;stroke-linecap:butt;stroke-linejoin:miter;stroke-opacity:1" />
    <path
       inkscape:connector-curvature="0"
       id="path1644"
       d="m 1927.8346,3435.1832 198.1394,-372.5053 224.6019,279.7928 -94.5693,369.3269 -127.7086,17.3074 z"
       style="fill:#747b51;fill-opacity:1;stroke:none;stroke-width:1.57980406px;stroke-linecap:butt;stroke-linejoin:miter;stroke-opacity:1" />
    <path
       inkscape:connector-curvature="0"
       id="path1646"
       d="m 2088.2352,3972.4242 40.0628,-243.3192 172.5591,222.9355 -44.5023,182.0838 z"
       style="fill:#747b51;fill-opacity:1;stroke:none;stroke-width:1.28106153px;stroke-linecap:butt;stroke-linejoin:miter;stroke-opacity:1" />
    <path
       inkscape:connector-curvature="0"
       id="path1630"
       d="m 2407.6167,4081.5339 c -1.9079,-1.5823 -3.4687,-5.5017 -3.4687,-8.7097 0,-6.1535 7.246,-16.8495 11.4147,-16.8495 3.5837,0 3.0332,11.1671 -1.0087,20.4605 -2.7738,6.3777 -4.1636,7.3992 -6.9373,5.0987 z"
       style="fill:#747b51;fill-opacity:1;stroke:none;stroke-width:2.22482276;stroke-miterlimit:4;stroke-dasharray:none" />
    <path
       inkscape:connector-curvature="0"
       id="path1632"
       d="m 2419.5643,3745.0136 c 0,-8.7898 16.8885,-21.3527 19.0252,-14.1524 0.5046,1.7004 0.015,5.6605 -1.0869,8.8003 -2.334,6.6479 -17.9383,11.3035 -17.9383,5.3521 z"
       style="fill:#747b51;fill-opacity:1;stroke:none;stroke-width:2.22482276;stroke-miterlimit:4;stroke-dasharray:none" />
    <path
       inkscape:connector-curvature="0"
       id="path1634"
       d="m 2409.7826,4579.8781 c -4.1203,-9.4824 -3.2931,-21.8867 1.6882,-25.3129 9.4292,-6.4855 12.8772,5.681 6.44,22.7246 -3.7885,10.031 -4.7597,10.3404 -8.1282,2.5883 z"
       style="fill:#747b51;fill-opacity:1;stroke:none;stroke-width:2.22482276;stroke-miterlimit:4;stroke-dasharray:none" />
    <path
       inkscape:connector-curvature="0"
       id="path1636"
       d="m 2369.1043,4251.0193 c -7.5173,-1.523 -8.8509,-2.7854 -7.6079,-7.2014 1.1422,-4.0582 8.5013,-6.6385 11.5226,-4.0402 2.6656,2.2923 5.3101,10.7588 3.697,11.8363 -0.5986,0.3998 -4.0239,0.1322 -7.6117,-0.5947 z"
       style="fill:#747b51;fill-opacity:1;stroke:none;stroke-width:1.80004644;stroke-miterlimit:4;stroke-dasharray:none" />
    <path
       inkscape:connector-curvature="0"
       id="path896-7"
       d="m 1841.7843,4408.7712 203.6444,347.2594 220.1928,-377.4547 -228.2859,-397.297 -217.7391,345.2906 z"
       style="fill:#747b51;fill-opacity:1;stroke:none;stroke-width:1.72042048px;stroke-linecap:butt;stroke-linejoin:miter;stroke-opacity:1"
       inkscape:transform-center-x="22.817175"
       inkscape:transform-center-y="20.897404" />
    <path
       inkscape:connector-curvature="0"
       id="path1646-9"
       d="m 1750.9583,3785.0771 136.5815,-256.3844 150.3349,280.3743 -121.325,188.7056 z"
       style="fill:#747b51;fill-opacity:1;stroke:none;stroke-width:1.57368982px;stroke-linecap:butt;stroke-linejoin:miter;stroke-opacity:1" />
    <path
       inkscape:connector-curvature="0"
       id="path1646-3"
       d="m 1850.7623,2964.2969 125.3682,-212.3489 80.2283,270.2597 -107.3557,153.6545 z"
       style="fill:#747b51;fill-opacity:1;stroke:none;stroke-width:1.28106153px;stroke-linecap:butt;stroke-linejoin:miter;stroke-opacity:1"
       inkscape:transform-center-x="53.959497"
       inkscape:transform-center-y="58.456122" />
    <path
       style="fill:#f2f2d6;fill-opacity:1;stroke:none;stroke-width:0;stroke-miterlimit:4;stroke-dasharray:none;stroke-opacity:1"
       id="path1133"
       d="m 1927.2378,2695.016 c -20.8521,0.1656 -41.5247,-2.4397 -62.2303,-4.5515 -41.4346,-4.9328 -81.9651,-14.0847 -122.4173,-24.0668 -32.6283,-7.5465 -65.2398,-15.0176 -97.744,-23.0627 -7.1471,-2.5928 -14.5285,-4.3762 -21.9189,-6.0925 0,0 54.5507,-37.407 54.5507,-37.407 v 0 c 6.8563,2.2603 13.6696,4.6447 20.5258,6.9061 31.7152,8.6464 63.4934,16.9203 95.4771,24.5339 40.5977,10.0538 81.4735,18.2358 123.1424,22.4058 21.5236,1.7657 43.0349,3.4254 64.6416,2.0817 0,0 -54.0271,39.253 -54.0271,39.253 z"
       inkscape:connector-curvature="0" />
    <path
       style="fill:#f2f2d6;fill-opacity:1;stroke:none;stroke-width:0;stroke-miterlimit:4;stroke-dasharray:none;stroke-opacity:1"
       id="path1135"
       d="m 1819.3188,3068.2359 c -21.0308,0.6197 -41.2433,-5.0937 -61.4623,-10.1081 -28.0832,-5.5192 -55.3244,-14.385 -83.2422,-20.5544 -15.6455,-3.2658 -31.5476,-5.1095 -47.5172,-5.5406 -1.3906,-0.019 -2.7811,-0.037 -4.1717,-0.056 0,0 53.8641,-38.8386 53.8641,-38.8386 v 0 c 1.407,0.082 2.8141,0.1644 4.2211,0.2466 15.6288,1.608 31.2059,3.778 46.4738,7.5947 27.6368,6.7656 54.7853,15.4551 82.7483,20.9129 20.8013,4.6266 41.6641,9.153 63.1132,7.0907 0,0 -54.0271,39.253 -54.0271,39.253 z"
       inkscape:connector-curvature="0" />
    <path
       style="fill:#f2f2d6;fill-opacity:1;stroke:none;stroke-width:0;stroke-miterlimit:4;stroke-dasharray:none;stroke-opacity:1"
       id="path1137"
       d="m 1826.8606,3342.4122 c -24.9786,1.5208 -46.4512,-4.285 -70.4399,-10.1477 -29.7521,-9.435 -59.3943,-19.1685 -89.424,-27.6942 -13.619,-3.6594 -27.5669,-5.8425 -41.6043,-7.0014 0,0 53.8638,-38.2167 53.8638,-38.2167 v 0 c 13.8323,1.9812 27.5181,5.0143 40.9388,8.9051 29.4067,9.4579 58.6524,19.4784 88.3583,27.946 6.7683,1.5406 23.6858,5.5545 30.847,6.5692 13.6723,1.9374 27.4333,0.8007 41.1631,0.6223 0,0 -53.7028,39.0174 -53.7028,39.0174 z"
       inkscape:connector-curvature="0" />
    <path
       style="fill:#f2f2d6;fill-opacity:1;stroke:none;stroke-width:0;stroke-miterlimit:4;stroke-dasharray:none;stroke-opacity:1"
       id="path1139"
       d="m 1818.835,3562.8253 c -17.547,-0.4905 -35.1066,-0.4353 -52.6591,-0.6946 -37.6731,-0.3434 -75.3468,-0.6042 -113.0212,-0.7821 -28.9631,-0.1491 -57.9262,0.1292 -86.8884,0.3265 0,0 50.7526,-36.8739 50.7526,-36.8739 v 0 c 28.6627,0.1989 57.3262,0.4776 85.9898,0.3264 38.392,-0.1789 76.7833,-0.4407 115.1741,-0.7821 18.19,-0.2582 36.3862,-0.2131 54.5712,-0.6946 0,0 -53.919,39.1744 -53.919,39.1744 z"
       inkscape:connector-curvature="0" />
    <path
       style="fill:#f2f2d6;fill-opacity:1;stroke:none;stroke-width:0;stroke-miterlimit:4;stroke-dasharray:none;stroke-opacity:1"
       id="path1141"
       d="m 1796.3519,4025.9777 c -19.2843,-0.5619 -38.5791,-0.6285 -57.8698,-0.7781 -34.0224,-0.1967 -68.0443,-0.3665 -102.0678,-0.3066 -5.6361,0.032 -11.2721,0.063 -16.9082,0.095 0,0 51.1955,-37.1957 51.1955,-37.1957 v 0 c 5.5486,0.032 11.0972,0.064 16.6458,0.095 34.3048,0.061 68.6081,-0.1126 102.9118,-0.3066 20.0047,-0.1519 40.0129,-0.2295 60.0117,-0.7781 0,0 -53.919,39.1745 -53.919,39.1745 z"
       inkscape:connector-curvature="0" />
    <path
       style="fill:#f2f2d6;fill-opacity:1;stroke:none;stroke-width:0;stroke-miterlimit:4;stroke-dasharray:none;stroke-opacity:1"
       id="path1143"
       d="m 1809.3579,4273.2528 c -28.9652,-0.9836 -57.9463,-1.1334 -86.9249,-1.33 -28.9961,4e-4 -14.6506,-0.025 -43.0365,0.075 0,0 50.355,-36.5851 50.355,-36.5851 v 0 c 28.1813,0.1003 13.9042,0.074 42.8314,0.074 30.1988,-0.2011 60.3992,-0.3762 90.5859,-1.3299 0,0 -53.8109,39.0959 -53.8109,39.0959 z"
       inkscape:connector-curvature="0" />
    <path
       style="fill:#f2f2d6;fill-opacity:1;stroke:none;stroke-width:0;stroke-miterlimit:4;stroke-dasharray:none;stroke-opacity:1"
       id="path1145"
       d="m 2279.4081,4171.1648 c 44.1047,2.0575 88.2954,1.7998 132.4398,1.9381 36.9748,0.9262 73.988,-1.0697 110.9588,-0.3831 13.8536,0.2573 27.5346,1.3806 41.3414,2.3517 5.3482,0.4431 10.6965,0.8861 16.0448,1.3292 0,0 -51.7551,36.848 -51.7551,36.848 v 0 c -5.114,-0.5649 -10.228,-1.1298 -15.3421,-1.6947 -49.832,-4.3557 -99.8532,-2.9593 -149.8317,-3.1528 -45.9245,0.1427 -91.8854,-0.042 -137.7749,1.9381 0,0 53.919,-39.1745 53.919,-39.1745 z"
       inkscape:connector-curvature="0" />
    <path
       style="fill:#f2f2d6;fill-opacity:1;stroke:none;stroke-width:0;stroke-miterlimit:4;stroke-dasharray:none;stroke-opacity:1"
       id="path1149"
       d="m 2315.3811,3752.9787 c 28.612,1.0458 57.2533,1.0958 85.8813,1.301 36.7692,0.1677 73.5397,-0.185 110.3076,-0.5049 12.7919,-0.1528 25.584,-0.2913 38.3744,-0.5407 0,0 -53.2161,38.6638 -53.2161,38.6638 v 0 c -12.2941,-0.2534 -24.5902,-0.3879 -36.8859,-0.5408 -36.3045,-0.3236 -72.6118,-0.6752 -108.9177,-0.5049 -29.8221,0.2097 -59.6549,0.2871 -89.4626,1.301 0,0 53.919,-39.1745 53.919,-39.1745 z"
       inkscape:connector-curvature="0" />
    <path
       style="fill:#f2f2d6;fill-opacity:1;stroke:none;stroke-width:0;stroke-miterlimit:4;stroke-dasharray:none;stroke-opacity:1"
       id="path1151"
       d="m 2346.1963,3656.63 c 21.7757,-8.8833 43.8405,-17.0361 65.3167,-26.6493 31.4805,-11.9242 63.2114,-23.1576 94.6568,-35.172 4.4024,-1.7842 8.8047,-3.5683 13.2071,-5.3525 0,0 -50.2588,39.5091 -50.2588,39.5091 v 0 c -4.3739,1.7107 -8.7478,3.4215 -13.1217,5.1323 -31.3907,11.6441 -63.0141,22.6656 -94.0816,35.1668 -22.5917,9.8246 -45.4555,19.0657 -68.3152,28.2278 0,0 52.5967,-40.8622 52.5967,-40.8622 z"
       inkscape:connector-curvature="0" />
    <path
       style="fill:#f2f2d6;fill-opacity:1;stroke:none;stroke-width:0;stroke-miterlimit:4;stroke-dasharray:none;stroke-opacity:1"
       id="path1153"
       d="m 2314.4432,3496.0981 c 9.1604,-18.9575 23.8555,-34.2646 37.9695,-49.5668 17.0754,-17.6116 34.3543,-35.0702 50.3279,-53.7003 13.9846,-14.9461 26.0597,-31.5593 40.111,-46.4216 24.789,-23.7346 55.2537,-37.3909 85.1885,-54.6009 5.3932,-1.3908 10.2396,-5.3324 15.7196,-6.25 2.2111,-0.5379 4.2356,-0.7202 6.475,-0.4314 0,0 -53.9143,39.7551 -53.9143,39.7551 v 0 c -1.8161,0.5653 -3.6686,1.0342 -5.4152,1.8001 -4.6985,2.6445 -10.1042,3.7701 -14.6259,6.8082 17.7512,-10.2835 35.5023,-20.567 53.2534,-30.8505 -2.4553,1.3361 -7.3087,3.8885 -9.4787,5.4642 -5.8078,4.2171 -11.1003,9.2649 -17.0378,13.3397 -14.7775,14.3124 -26.5494,31.2909 -40.7659,46.1597 -15.853,18.9349 -33.1482,36.651 -50.6508,54.0557 -13.0976,14.8366 -27.7673,28.3328 -36.5903,46.4279 0,0 -60.566,28.0109 -60.566,28.0109 z"
       inkscape:connector-curvature="0" />
    <path
       style="fill:#f2f2d6;fill-opacity:1;stroke:none;stroke-width:0;stroke-miterlimit:4;stroke-dasharray:none;stroke-opacity:1"
       id="path1155"
       d="m 2346.5259,3153.9506 c 17.4099,-3.7103 34.7346,-7.8309 52.0497,-11.9869 27.1657,-6.5428 53.5713,-15.7096 80.1554,-24.2256 35.2188,-11.3904 70.8416,-20.9289 107.0277,-28.6612 25.7508,-5.1724 51.8711,-8.2934 78.0679,-9.9959 0,0 -52.6261,38.7205 -52.6261,38.7205 v 0 c -25.4106,1.4009 -50.7467,4.0688 -75.6669,9.4138 -36.1926,7.8014 -71.7548,17.6719 -106.8976,29.3618 -26.9649,8.7456 -53.7617,18.119 -81.4023,24.5786 -17.9701,4.3576 -35.897,8.9027 -53.9637,12.8477 0,0 53.2559,-40.0528 53.2559,-40.0528 z"
       inkscape:connector-curvature="0" />
    <path
       style="fill:#f2f2d6;fill-opacity:1;stroke:none;stroke-width:0;stroke-miterlimit:4;stroke-dasharray:none;stroke-opacity:1"
       id="path1157"
       d="m 1927.2378,3284.0739 c -18.2103,0.075 -36.2718,-1.5789 -54.2619,-4.303 -43.1922,-6.4164 -83.6651,-23.5109 -124.2997,-38.7079 -39.0706,-14.6436 -78.0406,-29.8579 -118.4166,-40.5507 -13.6919,-3.3637 -27.644,-5.2682 -41.6687,-6.4601 0,0 53.448,-37.915 53.448,-37.915 v 0 c 13.753,1.9683 27.3713,4.6842 40.7734,8.3902 39.4983,12.1997 77.6578,28.0515 116.3621,42.5053 41.0288,14.9186 82.2335,30.9181 125.9263,35.867 18.6687,1.9345 37.3963,2.886 56.1642,1.9212 0,0 -54.0271,39.253 -54.0271,39.253 z"
       inkscape:connector-curvature="0" />
    <path
       style="fill:#f2f2d6;fill-opacity:1;stroke:none;stroke-width:0;stroke-miterlimit:4;stroke-dasharray:none;stroke-opacity:1"
       id="path1159"
       d="m 2166.5087,2993.0099 c 35.22,3.1635 67.5067,-4.9529 101.5552,-12.7783 68.6951,-16.9056 135.7233,-39.5598 203.5806,-59.4014 43.5287,-13.4282 87.9941,-23.6029 133.1812,-29.3484 3.7095,-0.3622 7.4191,-0.7245 11.1286,-1.0867 0,0 -52.0451,38.5267 -52.0451,38.5267 v 0 c -3.496,0.2819 -6.992,0.5639 -10.488,0.8459 -43.4982,4.8018 -86.2446,14.3365 -128.177,26.8335 -68.2747,19.9514 -135.7372,42.6784 -204.7867,59.9227 -18.0833,4.3223 -37.851,9.4941 -56.3536,12.325 -17.0783,2.613 -34.4029,2.7841 -51.6224,3.414 0,0 54.0271,-39.253 54.0272,-39.253 z"
       inkscape:connector-curvature="0" />
    <path
       style="fill:#f2f2d6;fill-opacity:1;stroke:none;stroke-width:0;stroke-miterlimit:4;stroke-dasharray:none;stroke-opacity:1"
       id="path1161"
       d="m 2044.15,3778.7026 c -22.05,-0.143 -43.9287,-1.0911 -65.8252,-3.7501 -47.2255,-8.9306 -94.2595,-18.831 -141.4772,-27.8272 -47.0072,-9.4084 -94.7989,-14.324 -142.6094,-17.2175 -17.0274,-1.107 -33.8716,-1.4229 -50.8607,-0.067 0,0 51.5716,-37.8531 51.5716,-37.8531 v 0 c 16.5902,-0.278 33.105,0.3762 49.6467,1.8285 47.7013,3.2959 95.2536,8.9397 142.147,18.4658 47.5667,8.9559 94.9907,18.87 142.8366,26.2052 22.8605,1.798 45.6859,2.0212 68.5978,0.9621 0,0 -54.0272,39.253 -54.0272,39.253 z"
       inkscape:connector-curvature="0" />
    <path
       style="fill:#f2f2d6;fill-opacity:1;stroke:none;stroke-width:0;stroke-miterlimit:4;stroke-dasharray:none;stroke-opacity:1"
       id="path1163"
       d="m 1926.754,4628.5254 c -37.4737,-0.3631 -74.8052,-2.9012 -112.1237,-6.1776 -77.5879,-8.3947 -154.6207,-21.3196 -231.6166,-33.9286 -31.2712,-5.2145 -62.7312,-9.0816 -94.2787,-12.1283 0,0 51.6208,-36.5649 51.6208,-36.5649 v 0 c 30.4522,4.4551 60.8667,9.1548 91.1412,14.7133 76.5105,13.7759 153.167,27.9068 230.7726,33.8164 39.4901,2.2324 78.8833,3.1272 118.4034,1.0952 0,0 -53.919,39.1745 -53.919,39.1745 z"
       inkscape:connector-curvature="0" />
    <path
       style="fill:#f2f2d6;fill-opacity:1;stroke:none;stroke-width:0;stroke-miterlimit:4;stroke-dasharray:none;stroke-opacity:1"
       id="path1165"
       d="m 1796.3519,4480.1368 c -22.0855,-0.7613 -44.1779,-0.4987 -66.2545,-1.4957 -27.8936,-1.5782 -55.8099,-2.7072 -83.7443,-3.1649 -7.8621,-0.077 -15.724,-0.078 -23.586,-0.018 0,0 53.421,-38.6916 53.421,-38.6916 v 0 c 7.5124,0.2901 15.0265,0.5372 22.537,0.8747 27.6908,1.0507 55.3605,2.4708 83.0413,3.7407 22.8325,0.5984 45.6747,0.2597 68.5045,-0.4199 0,0 -53.919,39.1745 -53.919,39.1745 z"
       inkscape:connector-curvature="0" />
    <path
       style="fill:#f2f2d6;fill-opacity:1;stroke:none;stroke-width:0;stroke-miterlimit:4;stroke-dasharray:none;stroke-opacity:1"
       id="path1167"
       d="m 1903.3032,4772.3388 c -19.9459,-0.482 -39.8996,-0.5283 -59.8501,-0.6592 -26.3153,-0.079 -52.6303,0 -78.9454,0.091 -15.6347,1.2259 -31.8731,-1.5179 -47.3515,1.344 -5.7189,1.2342 -2.8903,0.6526 -8.4849,1.7491 0,0 53.008,-39.9941 53.008,-39.9941 v 0 c 5.6254,-0.9506 2.7535,-0.5301 8.618,-1.2477 15.4416,-0.5452 30.9002,0.5506 46.3482,0.2683 26.2319,0.094 52.4637,0.1698 78.6957,0.091 20.5555,-0.1325 41.1137,-0.1865 61.6648,-0.6592 0,0 -53.7028,39.0173 -53.7028,39.0173 z"
       inkscape:connector-curvature="0" />
    <path
       style="fill:#f2f2d6;fill-opacity:1;stroke:none;stroke-width:0;stroke-miterlimit:4;stroke-dasharray:none;stroke-opacity:1"
       id="path1169"
       d="m 1931.3927,3375.4713 c -15.5037,8.3453 -28.8174,19.7706 -41.0354,32.3115 -23.5509,24.7714 -48.4842,48.0682 -73.7485,71.0606 -18.5393,16.5547 -38.7117,30.8459 -59.1839,44.814 -24.9301,4.3048 -48.0906,29.9768 -72.9159,41.6868 -5.3587,2.5277 -0.6133,-0.4407 -4.3297,2.029 -23.0027,4.1131 -2.2371,0.5994 54.5718,-31.8425 0,0 -62.338,24.7349 -62.338,24.7349 v 0 c 59.2158,-34.234 40.1111,-21.1942 60.0179,-34.8295 21.5183,-8.1774 55.4646,-38.2763 -35.8871,22.2309 8.1303,-5.9258 16.871,-10.71 25.0855,-16.5241 9.5156,-6.7351 13.9598,-10.6236 23.3026,-18.0182 4.4126,-3.4924 8.852,-6.9508 13.2781,-10.4261 24.9696,-22.5511 49.7182,-45.216 72.579,-69.9551 11.1558,-12.8117 23.6646,-24.6561 38.4019,-33.2751 0,0 62.2017,-23.9971 62.2017,-23.9971 z"
       inkscape:connector-curvature="0" />
    <path
       style="fill:#f2f2d6;fill-opacity:1;stroke:none;stroke-width:0;stroke-miterlimit:4;stroke-dasharray:none;stroke-opacity:1"
       id="path1171"
       d="m 1845.3309,3126.6135 c -21.3798,4.3445 -42.6844,8.7842 -63.6203,14.9638 -32.595,8.3488 -63.0854,23.074 -93.5653,37.0132 -42.6663,24.4209 21.4718,-12.3123 26.2501,-14.8359 4.3528,-2.299 -8.2407,5.3875 -12.3308,8.1268 -9.4467,6.3268 -18.4984,13.1206 -27.6964,19.7938 -8.0161,6.2563 -4.2131,3.2824 -11.4107,8.9198 0,0 -61.183,24.2259 -61.183,24.2259 v 0 c 7.9675,-5.385 3.8971,-2.3266 12.0918,-9.3323 13.9274,-9.3152 26.8547,-20.2237 41.2646,-28.8435 22.4322,-13.4188 45.0821,-26.472 67.7546,-39.4806 4.8348,-2.7741 9.8391,-5.2416 14.7587,-7.8624 30.8709,-13.8846 61.7407,-28.3634 94.6819,-36.7196 21.9436,-6.2034 44.2661,-11.6861 66.8157,-15.065 0,0 -53.8109,39.096 -53.8109,39.096 z"
       inkscape:connector-curvature="0" />
    <path
       style="fill:#f2f2d6;fill-opacity:1;stroke:none;stroke-width:0;stroke-miterlimit:4;stroke-dasharray:none;stroke-opacity:1"
       id="path1173"
       d="m 1935.2634,2757.8902 c -23.1563,-1.7165 -45.7815,5.5199 -67.2297,13.5109 -32.6322,11.6876 -63.7234,27.1851 -96.4043,38.816 -11.3764,2.9888 -22.5865,6.5364 -33.8958,9.7599 0,0 51.5605,-39.6548 51.5605,-39.6548 v 0 c 10.9275,-2.9996 21.8574,-5.9989 32.6684,-9.4026 32.3961,-11.8128 63.4676,-26.8915 95.9519,-38.4484 23.0302,-7.9342 46.564,-14.4881 71.1599,-13.6769 0,0 -53.8109,39.0959 -53.8109,39.0959 z"
       inkscape:connector-curvature="0" />
    <path
       style="fill:#f2f2d6;fill-opacity:1;stroke:none;stroke-width:0;stroke-miterlimit:4;stroke-dasharray:none;stroke-opacity:1"
       id="path1175"
       d="m 2328.3871,2534.3542 c 26.0743,1.0061 52.1749,1.0576 78.2646,1.2865 49.5286,0.4904 99.0612,0.5595 148.5909,0.2235 33.6164,-0.126 67.2307,-0.4786 100.8445,-0.8737 12.1838,0.3763 24.5046,-1.3709 36.6033,0.3592 0,0 -53.9974,38.3377 -53.9974,38.3377 v 0 c -11.6004,-0.8295 -23.2624,-0.3031 -34.8814,-0.7165 -32.8121,-0.3986 -65.6246,-0.7507 -98.4394,-0.8737 -49.7348,-0.3439 -99.4724,-0.2557 -149.2062,0.2234 -27.2703,0.2336 -54.5495,0.3119 -81.806,1.2866 0,0 54.0271,-39.253 54.0271,-39.253 z"
       inkscape:connector-curvature="0" />
    <path
       style="fill:#f2f2d6;fill-opacity:1;stroke:none;stroke-width:0;stroke-miterlimit:4;stroke-dasharray:none;stroke-opacity:1"
       id="path1177"
       d="m 2355.3669,2795.1584 c 22.8451,0.801 45.7093,0.8602 68.5654,1.0964 26.2888,0.7804 52.8981,-1.1877 79.0794,2.1957 2.8317,0.366 36.7849,7.0896 40.2869,7.7784 29.2251,6.0777 55.761,19.8837 82.6251,32.2708 11.0165,5.64 5.8412,2.9164 15.545,8.1344 0,0 -54.9689,35.7536 -54.9689,35.7536 v 0 c -8.9749,-5.3881 -4.1521,-2.6077 -14.5084,-8.2713 -25.7767,-12.8166 -51.6318,-26.0523 -80.0298,-32.1187 -11.5035,-2.3495 -27.984,-5.9783 -39.5744,-7.242 -26.3542,-2.8734 -53.037,-0.9624 -79.4638,-1.4407 -23.8623,0.2397 -47.7312,0.3174 -71.5836,1.0964 0,0 54.0271,-39.253 54.0271,-39.253 z"
       inkscape:connector-curvature="0" />
    <path
       style="fill:#f2f2d6;fill-opacity:1;stroke:none;stroke-width:0;stroke-miterlimit:4;stroke-dasharray:none;stroke-opacity:1"
       id="path1181"
       d="m 2031.9866,3583.1464 c 27.4291,4.3789 55.3199,1.4618 82.8849,0.1222 46.7023,-1.9175 93.4316,-4.0222 140.1801,-3.3791 21.8938,-0.6156 43.5428,3.0758 65.1611,5.9263 0,0 -50.7244,35.8363 -50.7244,35.8363 v 0 c -21.4268,-2.8871 -42.9028,-5.7254 -64.5883,-5.4166 -46.674,-0.4697 -93.3515,1.1051 -139.9511,3.7206 -29.1773,1.7569 -58.592,5.1452 -87.7428,1.3617 0,0 54.7805,-38.1714 54.7805,-38.1714 z"
       inkscape:connector-curvature="0" />
    <path
       style="fill:#f2f2d6;fill-opacity:1;stroke:none;stroke-width:0;stroke-miterlimit:4;stroke-dasharray:none;stroke-opacity:1"
       id="path1183"
       d="m 2067.5829,3177.3715 c 28.7239,1.0611 57.4782,1.2321 86.2195,1.435 43.0135,0.4241 86.0249,-0.055 129.0367,-0.3978 17.3552,-0.2681 34.7183,-0.4016 52.067,-0.9765 0,0 -53.8601,39.1316 -53.8601,39.1316 v 0 c -16.4512,-0.5999 -32.9202,-0.6999 -49.3788,-0.9765 -42.6469,-0.3477 -85.2932,-0.8235 -127.9418,-0.3978 -30.0583,0.2082 -60.1268,0.4085 -90.1696,1.435 0,0 54.0271,-39.253 54.0271,-39.253 z"
       inkscape:connector-curvature="0" />
    <path
       style="fill:#f2f2d6;fill-opacity:1;stroke:none;stroke-width:0;stroke-miterlimit:4;stroke-dasharray:none;stroke-opacity:1"
       id="path1185"
       d="m 2210.5252,2870.3844 c -20.6952,-0.5653 -41.3848,-0.6963 -62.0665,-1.6687 -42.5109,-4.406 -84.5301,-12.8857 -126.2547,-21.9933 -25.2211,-5.4868 -50.0152,-12.6541 -75.0453,-18.9003 -1.7073,-0.4084 -3.4146,-0.8167 -5.1219,-1.2251 0,0 54.5745,-37.4324 54.5745,-37.4324 v 0 c 1.5789,0.5054 3.1579,1.0107 4.7368,1.5161 23.865,7.5414 47.8122,14.8238 72.2275,20.4165 41.5357,9.4983 83.4984,18.2016 126.136,20.6272 21.6184,0.3535 43.2288,0.054 64.8407,-0.593 0,0 -54.0271,39.253 -54.0271,39.253 z"
       inkscape:connector-curvature="0" />
    <path
       style="fill:#f2f2d6;fill-opacity:1;stroke:none;stroke-width:0;stroke-miterlimit:4;stroke-dasharray:none;stroke-opacity:1"
       id="path1187"
       d="m 2059.0735,2574.8631 c 22.4104,0.1776 44.7455,1.8766 67.1151,3.1011 31.9189,1.4181 63.8409,1.5522 95.7353,3.4729 0,0 -52.0084,37.2832 -52.0084,37.2832 v 0 c -31.7041,-2.1319 -63.473,-2.4602 -95.2196,-3.7113 -23.1711,-0.9058 -46.353,-2.1826 -69.5414,-0.9715 0,0 53.919,-39.1744 53.919,-39.1744 z"
       inkscape:connector-curvature="0" />
    <path
       style="fill:#f2f2d6;fill-opacity:1;stroke:none;stroke-width:0;stroke-miterlimit:4;stroke-dasharray:none;stroke-opacity:1"
       id="path1189"
       d="m 2216.9392,4557.9138 c 36.0808,-3.9521 71.458,-12.8494 106.6726,-21.4179 41.7045,-10.8974 83.7989,-20.3887 126.225,-28.0083 0,0 -49.3977,37.2351 -49.3977,37.2351 v 0 c -42.218,7.4311 -84.1149,16.6245 -125.4741,27.9367 -36.9379,9.1273 -74.0328,18.635 -111.8368,23.3504 0,0 53.811,-39.096 53.811,-39.096 z"
       inkscape:connector-curvature="0" />
    <path
       style="fill:#f2f2d6;fill-opacity:1;stroke:none;stroke-width:0;stroke-miterlimit:4;stroke-dasharray:none;stroke-opacity:1"
       id="path1191"
       d="m 2068.0667,4315.0568 c 25.696,0.8102 51.4121,0.9979 77.1197,1.1958 46.037,0.5214 92.0827,-0.2039 138.1109,0.8734 53.1581,2.3188 101.8139,20.9359 151.1627,38.846 0,0 -50.4294,34.0165 -50.4294,34.0165 v 0 c -6.391,-2.33 -43.785,-16.0313 -50.2061,-18.0981 -32.6176,-10.4991 -66.2267,-16.9128 -100.472,-18.6525 -46.2554,-1.043 -92.5296,-0.2973 -138.7934,-0.2024 -26.805,0.2021 -53.6168,0.4075 -80.4114,1.1958 0,0 53.919,-39.1745 53.919,-39.1745 z"
       inkscape:connector-curvature="0" />
    <path
       style="fill:#f2f2d6;fill-opacity:1;stroke:none;stroke-width:0;stroke-miterlimit:4;stroke-dasharray:none;stroke-opacity:1"
       id="path1193"
       d="m 2012.6737,4192.3921 c -22.7645,-1.2416 -44.9635,-7.5914 -66.8778,-13.451 -50.1936,-14.3892 -100.5218,-28.3722 -151.0373,-41.6086 -37.6302,-9.9138 -75.7036,-18.2973 -114.2576,-23.6691 -3.4457,-0.3966 -6.8913,-0.7932 -10.337,-1.1898 0,0 53.0755,-37.4036 53.0755,-37.4036 v 0 c 3.2417,0.575 6.4834,1.15 9.7251,1.725 37.7368,6.7518 75.0276,15.9222 111.9886,26.0468 50.6806,13.9878 101.4323,27.7505 152.4479,40.4684 22.7255,5.0773 45.8322,10.8088 69.2997,9.8289 0,0 -54.0271,39.253 -54.0271,39.253 z"
       inkscape:connector-curvature="0" />
    <path
       style="fill:#f2f2d6;fill-opacity:1;stroke:none;stroke-width:0;stroke-miterlimit:4;stroke-dasharray:none;stroke-opacity:1"
       id="path1195"
       d="m 2095.8858,4551.7915 c 24.1282,11.7937 49.901,19.4637 75.5255,27.2549 6.1194,1.7278 12.2328,3.4767 18.358,5.1835 14.0256,3.9083 28.2278,7.1892 42.169,11.3884 25.276,7.6133 49.8091,17.4684 74.2942,27.2499 28.715,11.8001 56.1912,26.3102 83.8314,40.3701 0,0 -49.5978,32.6155 -49.5978,32.6155 v 0 c -27.8213,-13.8471 -55.5981,-27.8857 -84.5818,-39.2049 -16.5616,-6.3701 -33.3699,-13.094 -50.2598,-18.5929 -28.3447,-9.2283 -57.5681,-15.2128 -86.1638,-23.5431 -26.6243,-7.9699 -53.3146,-15.8896 -79.1726,-26.1401 0,0 55.5977,-36.5813 55.5977,-36.5813 z"
       inkscape:connector-curvature="0" />
    <path
       style="fill:#f2f2d6;fill-opacity:1;stroke:none;stroke-width:0;stroke-miterlimit:4;stroke-dasharray:none;stroke-opacity:1"
       id="path1199"
       d="m 1960.1477,3321.3028 c 25.4407,0.8421 50.9049,0.943 76.3579,1.1298 36.8364,0.2731 73.6759,0.017 110.5119,-0.2448 4.5009,-0.05 9.0018,-0.1 13.5027,-0.1498 0,0 -51.8951,37.704 -51.8951,37.704 v 0 c -4.3634,-0.05 -8.7269,-0.1 -13.0904,-0.1498 -36.6114,-0.2649 -73.2262,-0.5177 -109.8379,-0.2448 -26.49,0.1906 -52.9892,0.3109 -79.4681,1.1298 0,0 53.919,-39.1744 53.919,-39.1744 z"
       inkscape:connector-curvature="0" />
    <path
       style="fill:#f2f2d6;fill-opacity:1;stroke:none;stroke-width:0;stroke-miterlimit:4;stroke-dasharray:none;stroke-opacity:1"
       id="path1201"
       d="m 1919.7355,3571.4741 c 5.1349,-3.6065 5.9984,-4.3928 12.0281,-7.6987 21.7321,-11.9149 43.362,-24.0268 65.3433,-35.4756 3.5687,-1.8587 7.4735,-2.9859 11.2367,-4.4105 10.6529,-4.0327 18.0019,-6.5238 28.9465,-10.3597 30.0834,-10.0701 60.3868,-19.4051 90.0754,-30.6036 0,0 -49.4652,38.6882 -49.4652,38.6882 v 0 c -29.954,10.8619 -60.3959,20.2635 -90.4535,30.8324 -13.4373,4.974 -16.9413,6.1781 -29.7115,11.2327 -3.9234,1.553 -15.2401,7.0993 -11.7312,4.7558 81.7336,-54.5875 55.1888,-31.5537 35.5341,-21.763 0,0 -61.8027,24.802 -61.8027,24.802 z"
       inkscape:connector-curvature="0" />
    <path
       style="fill:#f2f2d6;fill-opacity:1;stroke:none;stroke-width:0;stroke-miterlimit:4;stroke-dasharray:none;stroke-opacity:1"
       id="path1203"
       d="m 2394.8868,2672.5329 c -14.427,2.0589 -29.0047,3.0781 -43.5019,4.7413 -24.7121,2.2501 -49.4199,4.2546 -73.9699,7.9866 -29.3765,4.7939 -58.0412,14.388 -84.8345,27.2825 0,0 50.3406,-39.9845 50.3406,-39.9845 v 0 c 27.3235,-11.867 55.972,-21.1048 85.4952,-25.511 24.9471,-3.6002 50.0209,-5.9893 75.0874,-8.5851 15.1223,-1.8391 30.2738,-3.564 45.4102,-5.1828 0,0 -54.0271,39.253 -54.0271,39.253 z"
       inkscape:connector-curvature="0" />
    <path
       style="fill:#f2f2d6;fill-opacity:1;stroke:none;stroke-width:0;stroke-miterlimit:4;stroke-dasharray:none;stroke-opacity:1"
       id="path1205"
       d="m 1996.8109,3446.7974 c 30.0524,-11.5232 58.2231,-27.3566 87.1802,-41.3895 6.2392,-3.3984 24.8616,-13.7636 18.7178,-10.1954 -153.4051,89.092 37.4682,-23.0183 84.5001,-46.747 19.5033,-10.3398 40.3515,-17.3507 60.6651,-25.7555 7.1525,-4.9416 3.1372,-3.1926 12.1666,-4.9607 0,0 -74.0394,57.4276 -74.0394,57.4276 v 0 c -7.8539,3.7304 -3.935,1.9741 -11.7513,5.2811 -19.9146,7.1228 -39.2836,15.681 -58.2313,25.0752 -18.9438,9.8879 -10.7251,5.4562 -29.8063,16.0016 -5.7475,3.1763 -22.8526,12.9437 -17.2339,9.5447 69.0833,-41.7914 112.6323,-64.586 -36.4561,20.5968 -6.1992,3.542 -12.6374,6.6481 -18.956,9.9721 -30.0699,14.8992 -59.5945,31.3269 -91.1384,42.9368 0,0 74.3829,-57.7878 74.3829,-57.7878 z"
       inkscape:connector-curvature="0" />
    <path
       style="fill:#f2f2d6;fill-opacity:1;stroke:none;stroke-width:0;stroke-miterlimit:4;stroke-dasharray:none;stroke-opacity:1"
       id="path1207"
       d="m 2057.942,2989.7635 c -28.7863,-0.766 -57.5673,-0.4505 -86.33,-1.9728 -50.093,-7.5697 -97.0442,-27.9827 -143.0909,-48.2705 -40.1134,-18.7668 -78.817,-40.7086 -120.5039,-55.9084 -18.2702,-5.1233 -9.2685,-3.0057 -26.9793,-6.4623 0,0 75.6676,-52.4581 75.6676,-52.4581 v 0 c 17.866,4.5436 8.8346,1.8638 27.0641,8.1395 40.4717,17.3896 78.9619,38.7927 118.8526,57.4195 45.5193,20.0996 92.3085,39.9602 142.3381,44.6745 29.6891,0.6915 59.3946,0.2376 89.0819,-0.4514 0,0 -76.1002,55.29 -76.1002,55.29 z"
       inkscape:connector-curvature="0" />
    <path
       style="fill:#f2f2d6;fill-opacity:1;stroke:none;stroke-width:0;stroke-miterlimit:4;stroke-dasharray:none;stroke-opacity:1"
       id="path1209"
       d="m 1997.545,2760.5926 c 55.9567,-36.349 115.8646,-64.3699 176.1471,-92.225 38.7238,-19.2568 77.9355,-37.7613 117.5854,-55.0497 24.1003,-8.1086 47.9981,-17.388 73.2962,-20.6671 14.149,-2.6599 6.857,-1.2251 21.871,-4.3292 0,0 -73.6281,55.8024 -73.6281,55.8024 v 0 c -15.4803,3.1463 -8.0256,1.7739 -22.3525,4.181 -24.1905,4.6076 -47.6371,12.9831 -70.6474,21.5998 -38.9219,17.2749 -77.7503,34.8517 -115.8387,53.9026 -2.6273,1.2286 -40.1759,18.7641 -44.0883,20.6804 -33.8033,16.5572 -121.9715,65.7207 25.6218,-17.8322 0,0 -87.9665,33.937 -87.9665,33.937 z"
       inkscape:connector-curvature="0" />
    <path
       style="fill:#f2f2d6;fill-opacity:1;stroke:none;stroke-width:0;stroke-miterlimit:4;stroke-dasharray:none;stroke-opacity:1"
       id="path1211"
       d="m 2235.1403,2580.4178 c 30.229,-29.4021 62.6159,-56.481 94.7221,-83.7866 30.4736,-27.3347 62.5332,-52.7339 94.505,-78.2524 16.5519,-13.477 32.9907,-27.0556 50.1152,-39.8011 0,0 85.3409,-33.7678 85.3409,-33.7678 v 0 c -17.6691,12.4199 -34.4275,25.9021 -51.0824,39.6474 -31.9664,26.2965 -65.6425,50.5596 -96.1384,78.6729 -30.9721,26.4283 -62.6919,52.2344 -91.064,81.5003 0,0 -86.3984,35.7873 -86.3984,35.7873 z"
       inkscape:connector-curvature="0" />
    <path
       style="fill:#f2f2d6;fill-opacity:1;stroke:none;stroke-width:0;stroke-miterlimit:4;stroke-dasharray:none;stroke-opacity:1"
       id="path1215"
       d="m 2238.7792,3726.6638 c -1.8481,17.6169 1.3719,34.5846 5.0445,51.7355 11.4002,33.4338 31.5195,61.8971 53.425,89.1714 24.0472,31.3813 52.9564,58.3919 80.7823,86.271 14.4539,14.018 7.4407,6.9714 21.0578,21.1217 0,0 -78.4027,47.7752 -78.4027,47.7752 v 0 c -13.2579,-14.1092 -6.4285,-6.9909 -20.5056,-21.3384 -27.2511,-28.7688 -56.041,-56.2652 -80.555,-87.4969 -22.2492,-28.5908 -44.3225,-57.3751 -56.9996,-91.7425 -4.4311,-17.3309 -8.8855,-34.5875 -7.9959,-52.6208 0,0 84.1492,-42.8762 84.1492,-42.8762 z"
       inkscape:connector-curvature="0" />
    <path
       style="fill:#f2f2d6;fill-opacity:1;stroke:none;stroke-width:0;stroke-miterlimit:4;stroke-dasharray:none;stroke-opacity:1"
       id="path1217"
       d="m 2065.1864,3958.5428 c -28.9531,16.1115 -57.9943,32.0658 -86.8594,48.3346 -2.5191,1.4198 -4.7603,3.2981 -7.277,4.7223 -49.021,27.7409 100.5581,-62.8392 50.4878,-27.7509 -3.6136,2.5323 -7.261,5.0159 -10.8915,7.5238 -30.4803,20.6694 -57.3953,45.8549 -85.7409,69.228 -41.5593,38.8491 -85.4747,74.9628 -128.9952,111.5549 -38.4669,31.7255 -79.7587,59.4045 -122.2431,85.3779 -45.7751,27.6478 -2.3904,1.6201 -106.1452,60.8335 -3.9697,2.2656 -7.8646,4.6598 -11.8095,6.9683 -3.0339,1.7753 -12.1752,7.0331 -9.1267,5.2829 74.0567,-42.5168 95.7061,-57.4686 67.2792,-38.0972 0,0 -86.9664,34.8943 -86.9664,34.8943 v 0 c 29.8247,-27.3884 3.6722,-4.0642 91.8934,-55.2052 6.66,-3.8608 26.8057,-15.1479 20.1908,-11.2104 -16.4587,9.7973 -99.0543,58.1753 -49.5614,29.0787 43.3312,-26.0384 85.8338,-53.2141 125.2022,-85.0565 42.8782,-36.2833 86.762,-71.4627 126.919,-110.8328 27.9331,-22.9436 54.0795,-47.8967 83.3112,-69.242 3.6442,-2.3484 7.3914,-4.5443 10.9327,-7.0452 3.3846,-2.3903 6.2841,-5.4635 9.8254,-7.6148 29.219,-17.7502 58.862,-34.7934 88.3791,-52.0432 3.1144,-1.8201 6.3046,-3.5099 9.5104,-5.1636 2.818,-1.4537 11.2822,-5.7765 8.5565,-4.1563 -24.8108,14.7484 -49.8919,29.0373 -74.8379,43.5559 0,0 87.9665,-33.937 87.9665,-33.937 z"
       inkscape:connector-curvature="0" />
    <path
       style="fill:#f2f2d6;fill-opacity:1;stroke:none;stroke-width:0;stroke-miterlimit:4;stroke-dasharray:none;stroke-opacity:1"
       id="path1219"
       d="m 1752.701,4541.4053 c -23.522,-0.2034 -46.6266,10.0489 -67.9173,19.2979 118.5128,-65.8634 74.1807,-44.6419 51.3192,-26.1692 -6.4183,5.1861 -23.0124,20.6708 -28.3863,26.4514 -6.8114,7.3268 -21.0069,25.5293 -26.9715,33.0375 -22.2443,29.6419 -41.5098,61.5011 -60.1467,93.5117 -7.2058,13.3478 -14.7232,26.4736 -21.4623,40.0576 -0.5376,0.5371 -1.0752,1.0743 -1.6128,1.6114 0,0 -86.3122,38.9073 -86.3122,38.9073 v 0 c 0.3399,-1.159 0.6798,-2.318 1.0197,-3.4769 4.7691,-3.4609 5.7757,-7.8952 8.5739,-13.0347 4.9934,-9.1712 11.8089,-17.216 16.0753,-26.8165 18.9167,-32.6494 39.4104,-64.6253 61.236,-95.3665 8.7274,-11.2578 16.6989,-23.1297 26.0458,-33.8788 36.4314,-41.8967 82.8508,-65.7369 132.7854,-91.7235 23.0325,-9.0841 46.6976,-18.1761 71.8539,-17.6987 0,0 -76.1001,55.29 -76.1001,55.29 z"
       inkscape:connector-curvature="0" />
    <path
       style="fill:#f2f2d6;fill-opacity:1;stroke:none;stroke-width:0;stroke-miterlimit:4;stroke-dasharray:none;stroke-opacity:1"
       id="path1221"
       d="m 1855.1323,4814.9059 c -1.929,0.3615 -3.858,0.723 -5.787,1.0845 -3.0561,0.2597 -6.1499,0.2342 -9.1681,0.779 -3.6933,0.6667 -7.2131,2.1115 -10.8941,2.8425 -27.3712,5.4355 1.3595,-1.5777 -28.2289,3.5412 -5.5832,0.9659 -11.0351,2.5781 -16.5526,3.8671 -34.7554,6.7649 -69.501,15.2348 -103.188,26.2239 -13.9915,4.1575 -25.9192,12.4639 -38.3749,19.7106 -3.3161,1.9293 -13.3521,7.5645 -10.0182,5.6661 73.6217,-41.9235 91.5526,-56.8896 62.3469,-33.6253 -2.3577,2.0122 -4.7154,4.0243 -7.073,6.0365 0,0 -86.3432,34.7104 -86.3432,34.7104 v 0 c 2.4986,-1.9209 4.9972,-3.8419 7.4958,-5.7628 31.9192,-31.302 5.2232,-6.3213 95.5755,-59.5543 15.4496,-9.1025 31.2829,-17.854 48.5576,-23.0016 34.0922,-10.0164 68.6352,-18.7214 103.5221,-25.4933 24.5926,-4.9956 49.4628,-9.6352 74.3831,-12.4256 0,0 -76.253,55.4011 -76.253,55.4011 z"
       inkscape:connector-curvature="0" />
    <path
       style="fill:#f2f2d6;fill-opacity:1;stroke:none;stroke-width:0;stroke-miterlimit:4;stroke-dasharray:none;stroke-opacity:1"
       id="path1223"
       d="m 2119.2548,4676.8909 c 2.8383,0.086 5.676,0.321 8.5149,0.259 13.6161,-0.2974 12.4211,-1.607 27.2069,-0.6524 21.1092,1.363 42.1023,6.0074 62.8232,9.935 51.9811,11.867 104.0244,23.2532 156.5446,32.5487 30.7174,7.1193 61.5275,13.8067 92.7079,18.5419 0,0 -75.2737,52.7464 -75.2737,52.7464 v 0 c -30.4123,-5.904 -60.4445,-13.4895 -90.7128,-20.0772 -52.3134,-10.1752 -104.2135,-22.3051 -156.5266,-32.4469 -33.7439,-5.4143 -67.2103,-9.3897 -101.3846,-5.5645 0,0 76.1002,-55.29 76.1002,-55.29 z"
       inkscape:connector-curvature="0" />
  </g>
</svg>
