<?xml version="1.0" encoding="UTF-8" standalone="no"?>
<!-- Created with Inkscape (http://www.inkscape.org/) -->

<svg
   xmlns:dc="http://purl.org/dc/elements/1.1/"
   xmlns:cc="http://creativecommons.org/ns#"
   xmlns:rdf="http://www.w3.org/1999/02/22-rdf-syntax-ns#"
   xmlns:svg="http://www.w3.org/2000/svg"
   xmlns="http://www.w3.org/2000/svg"
   xmlns:sodipodi="http://sodipodi.sourceforge.net/DTD/sodipodi-0.dtd"
   xmlns:inkscape="http://www.inkscape.org/namespaces/inkscape"
   width="15.839255mm"
   height="55.273212mm"
   viewBox="0 0 15.839255 55.273212"
   version="1.1"
   id="svg1231"
   inkscape:version="0.92.4 (5da689c313, 2019-01-14)"
   sodipodi:docname="3.svg">
  <defs
     id="defs1225" />
  <sodipodi:namedview
     id="base"
     pagecolor="#ffffff"
     bordercolor="#666666"
     borderopacity="1.0"
     inkscape:pageopacity="0.0"
     inkscape:pageshadow="2"
     inkscape:zoom="1.4"
     inkscape:cx="79.556813"
     inkscape:cy="100.98836"
     inkscape:document-units="mm"
     inkscape:current-layer="layer1"
     showgrid="false"
     fit-margin-top="0"
     fit-margin-left="0"
     fit-margin-right="0"
     fit-margin-bottom="0"
     inkscape:window-width="1680"
     inkscape:window-height="933"
     inkscape:window-x="0"
     inkscape:window-y="1"
     inkscape:window-maximized="1" />
  <metadata
     id="metadata1228">
    <rdf:RDF>
      <cc:Work
         rdf:about="">
        <dc:format>image/svg+xml</dc:format>
        <dc:type
           rdf:resource="http://purl.org/dc/dcmitype/StillImage" />
        <dc:title></dc:title>
      </cc:Work>
    </rdf:RDF>
  </metadata>
  <g
     inkscape:label="Layer 1"
     inkscape:groupmode="layer"
     id="layer1"
     transform="translate(-109.72349,-83.443452)">
    <path
       style="fill:#c3cba5;fill-opacity:1;stroke:none;stroke-width:0.26458332px;stroke-linecap:butt;stroke-linejoin:miter;stroke-opacity:1"
       d="m 115.14868,84.413346 1.74045,-0.969894 5.50607,1.245505 -1.1085,5.859576 -1.23908,7.59025 -0.20543,5.953187 0.37988,0.66146 1.1183,1.3159 -0.53455,8.01809 1.63703,1.80407 0.60136,17.13865 -0.86863,1.70385 -1.19489,3.01111 -1.97893,0.79748 -2.2718,-2.83974 -1.64922,-7.46067 -0.38871,-7.67347 -1.06907,-2.87314 1.83747,-2.20498 -2.18193,-2.83717 0.91241,-0.87119 0.34056,-7.2934 0.12716,-8.041193 -0.96886,-4.810852 1.60362,-4.744035 -1.00226,-1.937702 z"
       id="path1791"
       inkscape:connector-curvature="0" />
    <path
       style="fill:#eef2db;fill-opacity:1;stroke-width:0.26458332;stroke:#000000;stroke-opacity:1"
       d="m 117.60685,138.01743 c -0.62251,-0.70401 -1.86327,-3.32278 -1.9469,-0.99394 -0.25544,-0.70443 0.1484,-2.92783 -1.17388,-1.33714 -1.39953,0.65368 0.22138,-1.03616 0.32877,-1.62815 -0.0291,-1.16524 -0.3805,-2.50059 -0.12765,-3.84317 -0.41576,0.22689 -2.43636,1.90681 -1.25408,0.46773 1.91621,-1.4891 -3.10574,0.58461 -0.53932,-0.88589 0.6763,-0.16641 2.15532,-1.25162 0.87533,-1.68346 1.64996,0.99378 0.79799,-1.80923 -0.26451,-0.72384 1.21117,-2.54707 -2.73056,1.80646 -1.4379,-0.28927 0.68046,-0.35021 2.81282,-2.46704 0.91329,-1.7878 -0.72292,1.01412 -1.98002,0.80262 -0.55712,-0.0993 0.2657,-0.70799 1.27515,-1.68546 1.10552,-1.77606 -0.70488,-0.78283 1.39288,-0.66598 0.0288,-1.134 -1.60205,-0.51235 1.30812,-1.34444 -0.11934,-2.34313 -0.22957,0.63251 -1.24914,1.75137 -0.59909,0.29048 0.93442,-2.0527 -2.48978,1.99707 -0.86905,-0.32681 0.63922,-0.40294 1.18874,-2.10299 0.12119,-0.90666 -0.58677,-0.51409 -3.41876,-0.49884 -1.21745,-0.89933 1.13525,0.28757 2.03322,-0.89582 1.49388,-1.5042 1.12264,-0.84738 0.65947,-2.53746 0.097,-1.94099 0.32813,-1.2911 -0.2272,-2.7241 1.15821,-3.60813 -0.23335,-0.77929 -3.40459,0.88999 -2.73861,-0.0272 1.35508,-0.0472 3.42153,-1.65727 1.82765,-2.9014 1.15955,1.00739 0.60883,-1.42093 -0.3193,-0.36782 1.05154,-0.35575 1.76468,-2.63806 0.15872,-1.1429 -1.6326,0.82145 0.34009,-1.19313 -0.0697,-0.83329 -2.50333,0.045 1.98711,-0.47469 0.5493,-1.96226 -0.45271,-0.6933 -1.06191,-1.98735 0.0126,-0.80358 0.59656,0.86859 1.83274,1.72832 1.36279,-0.0377 0.57606,-1.37963 -0.20999,-4.402253 -1.8286,-2.29846 -2.41151,1.30438 1.98616,-1.718677 0.93706,-1.932947 -1.30104,0.372774 -1.3114,-0.283253 -0.55323,-1.008557 -0.24153,-0.264123 1.06753,-0.768516 -0.21945,-0.932171 -1.14178,-0.04246 -1.44363,-0.797262 -0.0957,-0.361996 1.52866,0.607591 0.41843,-1.371715 0.65303,-1.092 1.44603,-0.160366 0.24884,-2.586749 -0.5782,-1.03455 -0.6487,-0.732534 1.51131,-3.730963 -0.3593,-1.946065 -0.26448,-0.134341 1.77804,-2.55263 -0.43684,-2.221877 -1.06004,-0.04382 -3.65318,-1.191464 -1.13494,-0.652482 1.29624,0.764318 2.08505,-0.838768 1.66963,-0.940648 1.74454,0.563377 0.5986,-1.914897 -0.67352,-1.514157 -2.34161,-1.277448 1.76809,0.196508 2.29937,-0.368361 -0.465,-0.522927 -1.84752,-2.28281 -0.26142,-1.178113 1.36053,1.41129 0.11991,-1.543316 -1.01986,-0.41339 -1.95791,0.296251 1.38126,-2.004587 2.61399,-1.502051 2.10772,0.03731 4.35994,-0.555433 6.20557,0.804572 0.84241,0.797914 3.57193,-0.0296 1.44692,0.981927 -1.10062,0.186702 -1.19157,1.559112 -0.78652,1.676803 -1.56485,1.391588 2.68574,1.229024 0.35808,1.677748 -1.7566,0.503742 2.03705,1.93948 -0.46577,1.544651 -1.51306,-0.218433 1.81948,0.899936 -0.008,1.568738 -0.46805,1.626383 2.44964,-0.565978 1.23937,0.920854 0.32754,1.180578 -1.92806,0.945858 -0.9759,1.614575 -0.92622,0.877216 1.40317,2.261039 -0.39078,1.63818 -1.68496,-0.107133 0.26436,2.339485 -0.87498,3.321527 0.10138,1.63047 -1.37961,3.4827 -0.77197,4.84155 1.09007,0.0118 3.82869,-0.4359 4.01118,0.34381 -1.18942,0.47945 -2.88713,-0.2951 -3.81971,0.483 0.62918,0.24038 3.40277,2.26021 1.33571,1.58791 0.13627,1.95334 3.38738,-0.96218 3.64153,0.0479 -1.36947,0.52433 -4.64618,1.32094 -1.82292,2.66017 1.68576,1.39887 -2.81635,-1.41563 -1.01225,0.36393 -0.0656,1.19385 0.61875,2.59276 -0.0538,3.33782 0.58362,0.49339 2.99133,1.67113 2.31884,1.76763 -0.59239,-0.72317 -3.38351,-0.49387 -1.32106,0.0531 1.04656,0.0816 2.65422,1.345 0.62663,0.67425 -1.58678,-0.34429 -0.39954,0.83231 -0.22625,1.29218 -0.78947,-0.60631 -2.09696,0.31342 -0.97307,0.31828 -0.0496,0.60375 0.12253,1.22131 0.45079,0.33036 -0.63597,1.64265 1.54589,1.16305 1.75297,1.06063 -0.99806,0.49223 -2.58979,1.63042 -0.82219,2.43277 0.60805,0.49811 0.74383,1.69168 -0.0832,0.65152 -1.4128,0.90042 0.0521,3.33705 -0.69849,4.51379 0.90659,0.26798 2.66257,-0.35392 0.8138,0.42128 -2.52019,0.9944 2.18554,3.48853 -0.79401,4.24824 -0.63287,0.87347 1.60544,2.2944 0.25924,2.60437 -1.34321,-0.62178 0.85285,2.29931 1.11173,2.99466 0.44551,1.02863 -0.48179,2.32432 -0.9198,0.77551 -0.30674,-1.20041 -1.44782,-1.67712 -1.51199,-0.0576 -0.86532,1.75231 -3.61761,2.13784 -5.0506,0.93033 z m 1.80044,-0.0247 c 1.38394,-0.62852 0.0412,-4.29634 -0.64485,-3.2894 0.53864,0.6531 -0.71971,3.92885 0.64485,3.2894 z m 1.5734,-0.24763 c -0.83197,-0.0265 -0.5277,0.90225 0,0 z m 0.32015,-0.91099 c -0.0266,-1.09287 1.12446,-3.71937 -0.7651,-2.1994 -0.80585,0.8651 1.24856,0.75788 0.41736,1.97544 -0.0941,0.29952 0.13105,0.83335 0.34774,0.22396 z m -2.99961,-1.65806 c -0.80909,-1.0291 1.81957,-4.4761 -0.74902,-3.30163 -1.01829,0.51785 -0.0414,5.24429 0.74902,3.30163 z m 4.68164,-1.00265 c -1.00158,0.51778 0.89128,1.58504 0,0 z m -1.7136,-0.51429 c 1.21163,-0.24641 0.11243,-2.40905 0.12408,-0.60841 -0.9198,0.39517 -1.3787,1.6516 -0.12408,0.60841 z m -1.65511,-0.33073 c -0.7803,-1.23315 -0.003,1.09481 0,0 z m -4.06443,-0.39687 c -0.64128,-1.08962 -0.34657,0.80622 0,0 z m 5.15999,-0.0639 c 0.70916,-0.89419 0.3283,-3.88233 -0.10287,-1.44021 -0.88608,1.13312 0.034,-2.8137 -0.89384,-0.477 -0.32304,0.76654 -0.40936,2.71865 0.99671,1.91721 z m -5.15999,-1.14239 c -0.75497,-0.89518 -0.22965,1.22531 0,0 z m 1.24275,-0.97658 c -0.0241,-2.46407 -1.83441,-0.0937 -0.19985,0.70454 0.22881,-0.14193 0.19149,-0.47782 0.19985,-0.70454 z m 1.04422,-1.32291 c -0.43088,-2.26889 -0.62403,1.80647 0.25293,0.85411 -0.0118,-0.30544 -0.19141,-0.56143 -0.25293,-0.85411 z m 4.39758,0.96632 c 0.6907,-2.0778 -1.3803,0.61908 0,0 z m -3.06423,-1.21437 c -0.63848,0.20233 0.48431,0.77476 0,0 z m -0.55829,-1.00852 c -0.29653,-2.56446 -0.88031,1.97005 -0.005,1.03314 0.0438,-0.34408 -0.0143,-0.68847 0.005,-1.03314 z m 1.34653,0.46282 c -0.59092,0.5739 0.50849,0.8984 0,0 z m 3.79352,0.19843 c -0.35328,-1.16238 -0.3674,1.26314 0,0 z m -1.24616,-0.66182 c -0.12223,-1.26644 -0.4957,1.31983 0,0 z m -6.01042,-0.97853 c -0.64494,-1.8646 -0.73362,1.22876 -0.0791,0.31434 z m 4.70857,-0.14558 c 0.27342,-1.2611 -0.0283,-4.08837 -0.83566,-4.20014 -0.0306,1.36831 -0.73238,3.59719 -0.96323,4.24228 0.89521,-0.375 1.57062,1.11602 1.79889,-0.0421 z m -6.45187,-0.92604 c -0.49393,-1.33622 -0.0484,1.61188 0,0 z m 1.85613,0.0985 c -0.64892,-1.75134 -1.42469,0.56652 0,0 z m 2.18281,-0.0753 c -0.56465,-1.66667 -0.88483,0.002 0,0 z m -2.43023,-1.6448 c -0.8393,-1.12527 1.96608,0.24472 0.91352,-1.11053 -1.06613,-2.56381 -2.79567,2.1228 -0.81026,1.77158 l -0.0107,-0.2265 -0.0923,-0.43455 z m 2.90198,0.11559 c -0.62015,-1.07135 -0.14471,-3.75767 -0.97272,-3.88425 -0.71387,0.7944 -0.42297,4.72596 0.97272,3.88425 z m 4.14077,0.0673 c -0.63851,0.20231 0.48433,0.77476 0,0 z m 0.15776,-1.2838 c -0.57462,-1.15891 0.21166,1.43591 0,0 z m -3.77809,-1.70929 c -0.35325,-1.16241 -0.36741,1.26312 0,0 z m 1.32292,0.29697 c -0.64893,-1.75133 -1.42468,0.56652 0,0 z m -5.5747,-2.1801 c 0.0922,-0.91834 -0.65781,-3.51235 -1.15181,-1.2769 -0.0655,0.76946 1.97525,4.15353 1.15181,1.2769 z m 1.73057,0.171 c 0.49664,-1.10778 -0.79799,-3.43737 -1.06128,-3.39731 -0.0565,1.24567 -0.16781,3.83726 0.93086,4.10076 0.10595,-0.21828 0.13029,-0.46447 0.13042,-0.70345 z m 0.89652,-0.66912 c -0.55536,-0.49279 -0.5689,2.90121 -0.087,0.59285 0.065,-0.19145 0.062,-0.39431 0.087,-0.59285 z m 3.25065,-1.32292 c 0.84424,-0.91282 -0.3128,-4.14919 -0.74422,-1.72767 -0.0877,0.9525 -0.66279,3.69477 0.52567,3.45044 0.19571,-0.55278 0.1713,-1.14681 0.21855,-1.72277 z m 0.40687,1.93476 c -0.63847,0.20233 0.48433,0.77476 0,0 z m -2.36296,-2.58958 c 0.22172,-1.25653 0.66311,-4.41307 -0.60374,-4.4094 -1.42993,0.72714 -0.69422,5.10892 0.60374,4.4094 z m -1.81987,-0.74768 c -1.77863,-1.3456 1.84456,-4.15555 0.75556,-4.65128 -0.70998,1.49645 -2.71432,3.0398 -1.21029,4.70817 0.29329,0.5238 0.73356,0.84007 0.45473,-0.0569 z m -4.37328,0.0682 c -0.68437,-0.93751 0.26416,1.07133 0,0 z m 0.43787,-0.79795 c -0.66146,-0.88998 -0.0515,1.11869 0,0 z m 0.66145,-0.91043 c -0.48396,-0.92425 -0.63895,1.06953 0,0 z m 0.92605,-0.64584 c -0.49124,-1.07339 -0.83918,0.54985 0,0 z m -0.0677,-1.00781 c -1.03367,-0.7676 1.29876,-3.16363 -0.32244,-2.97435 -0.5234,0.71808 -0.76927,2.77491 0.32244,2.97435 z m -1.93895,-0.63273 c -0.48709,-0.61281 -0.59618,1.19418 0,0 z m 4.2305,-0.29331 c -0.32659,-1.5726 0.83866,-3.96543 -1.29306,-4.29155 -0.14051,1.3002 -0.36318,3.52357 0.53739,4.68036 0.30255,0.027 0.54661,-0.21267 0.75567,-0.38881 z m 5.01613,-0.4615 c -1.05364,-1.12799 -0.0377,1.31981 0,0 z m -0.36084,-0.95879 c -0.93324,-0.41198 -0.18368,1.21917 0,0 z m -3.175,-0.38126 c 0.97938,-1.3469 -1.48486,0.34923 -0.0536,0.2536 0.0179,-0.0845 0.0357,-0.16907 0.0536,-0.2536 z m 2.82657,-0.69545 c -0.63846,0.20235 0.48432,0.77477 0,0 z m -2.69132,-1.89731 c 1.55396,-1.57274 -2.13605,-4.8691 -2.51443,-2.08015 0.96726,-0.11891 1.15641,-0.49198 0.47952,0.64891 -0.19315,1.37933 0.57542,1.14061 0.59985,0.49712 0.69648,0.48412 1.05906,3.81091 1.43506,0.93412 z m -4.27616,-0.0459 c -0.74163,-1.06652 0.0835,1.55608 0,0 z m 5.87685,-2.16152 c -0.92551,-0.74008 0.28319,1.95616 0.0596,0.41308 z m -5.77744,0.18562 c -0.37084,-1.60741 -0.66961,1.68911 0,0 z m 0.60191,-1.7198 c -1.09836,-0.93308 0.55229,1.39451 0.0203,0.033 z m 0.64104,-0.92604 c 0.81172,-0.20258 0.75436,-2.68518 1.67288,-1.1999 2.10909,-0.27416 0.45626,-5.582212 -0.23234,-2.36739 0.12155,0.88813 -0.9129,1.66551 -1.2171,0.5117 0.31592,0.60927 -1.78198,3.78386 -0.22344,3.05559 z m 1.49652,-2.00642 c 0.26295,-0.83809 0.0628,1.01844 0,0 z m 0.24369,2.2274 c 1.82149,-0.97279 -2.41717,-0.98011 -0.83418,0.18776 0.25861,0.0351 0.66807,0.1012 0.83418,-0.18776 z m -2.38125,-2.02249 c -0.26774,-2.025736 -1.2732,0.19901 0,0 z m 4.14398,-0.64588 c -0.59092,0.5739 0.50849,0.8984 0,0 z m -4.14398,-0.67704 c -0.18347,-1.591194 -1.51322,-0.559445 0,0 z m 0.88861,-4.383307 c 0.18061,-1.185782 -1.14224,-2.312332 -0.7769,-0.493867 0.11877,0.728872 0.4043,3.922494 0.91831,3.103923 0.1168,-0.865417 0.17139,-1.77655 -0.14141,-2.610056 z m 3.60931,2.348372 c -0.48207,-3.14527 -0.66891,2.980905 0,0 z m -4.54355,-0.40606 c -0.6083,-2.07608 -0.63252,2.642285 0.003,0.155499 l -0.003,-0.115132 z m -1.36548,0.42035 c -1.09503,-0.913902 -0.9909,1.596474 0,0 z m 3.70852,-0.989943 c -0.63845,0.202344 0.48432,0.774756 0,0 z m 1.40676,-0.775369 c -0.93321,-0.411967 -0.1837,1.219178 0,0 z m 1.00641,-0.387572 c -0.81068,-0.01174 0.004,-2.626691 -0.79398,-0.886357 -0.26949,0.702314 0.13027,2.248205 0.79398,0.886357 z m -5.3291,-0.705679 c -0.59093,0.573899 0.50849,0.898401 0,0 z m 3.33718,-0.265591 c -1.70779,-0.640311 1.0155,2.436055 0,0 z m 0.76333,-1.851075 c 0.18183,-1.214573 -0.51684,-4.855767 -1.88209,-2.348798 -1.05928,1.523835 1.65389,-1.230863 0.60647,0.515705 -0.71329,1.072544 0.99634,4.959742 1.27562,1.833093 z m -4.25466,-0.463041 c -0.36088,-2.68755 -0.74926,2.792631 0.0703,0.854526 -0.0146,-0.285528 -0.045,-0.569846 -0.0703,-0.854526 z m 5.79571,0.198437 c -0.42718,-1.092373 -0.24579,1.433715 0,0 z m 1.48572,-0.0926 c -0.77819,-1.000879 0.22207,1.526566 0,0 z m -6.33526,-3.453166 c 0.52488,-1.015817 -0.62371,-2.572004 -0.66703,-0.716566 -0.582,0.883179 0.81217,4.0231 0.6619,1.507252 0.002,-0.263557 0.004,-0.527439 0.005,-0.790686 z m 5.5635,1.181057 c -0.63845,0.202343 0.48432,0.774756 0,0 z m -4.27061,-0.682046 c 0.43042,-1.413335 0.0269,-4.864701 -0.7604,-4.978181 -0.33257,1.366701 -0.36306,4.357472 0.7604,4.978181 z m 1.1233,-1.421183 c -0.77348,0.342176 0.27417,1.009819 0,0 z m 2.17282,0.03617 c 0.82657,-0.891405 0.28167,-2.35023 -0.002,-2.370427 0.53288,-0.453896 0.1226,-2.068021 -0.47247,-0.886055 -1.11589,-1.130623 -1.63216,-0.297723 -1.09999,0.831794 -0.37201,0.953003 0.2895,1.656181 0.64718,1.668255 -0.15572,0.630058 0.25051,1.446788 0.92739,0.756433 z m -1.05833,-2.38125 c 0.6413,-1.089597 0.34654,0.806227 0,0 z m -5.02709,1.5875 c -0.64145,-1.18581 -0.68833,1.148594 0,0 z m 0.92189,-3.274377 c -0.58923,1.574836 0.38571,1.212736 0,0 z"
       id="path1789"
       inkscape:connector-curvature="0" />
  </g>
</svg>
