<?xml version="1.0" encoding="UTF-8" standalone="no"?>
<!-- Created with Inkscape (http://www.inkscape.org/) -->

<svg
   xmlns:dc="http://purl.org/dc/elements/1.1/"
   xmlns:cc="http://creativecommons.org/ns#"
   xmlns:rdf="http://www.w3.org/1999/02/22-rdf-syntax-ns#"
   xmlns:svg="http://www.w3.org/2000/svg"
   xmlns="http://www.w3.org/2000/svg"
   xmlns:sodipodi="http://sodipodi.sourceforge.net/DTD/sodipodi-0.dtd"
   xmlns:inkscape="http://www.inkscape.org/namespaces/inkscape"
   version="1.1"
   id="svg154"
   width="260.73129"
   height="317.00104"
   viewBox="0 0 260.73128 317.00103"
   sodipodi:docname="0.svg"
   inkscape:version="0.92.4 (5da689c313, 2019-01-14)">
  <metadata
     id="metadata160">
    <rdf:RDF>
      <cc:Work
         rdf:about="">
        <dc:format>image/svg+xml</dc:format>
        <dc:type
           rdf:resource="http://purl.org/dc/dcmitype/StillImage" />
        <dc:title></dc:title>
      </cc:Work>
    </rdf:RDF>
  </metadata>
  <defs
     id="defs158" />
  <sodipodi:namedview
     pagecolor="#ffffff"
     bordercolor="#666666"
     borderopacity="1"
     objecttolerance="10"
     gridtolerance="10"
     guidetolerance="10"
     inkscape:pageopacity="0"
     inkscape:pageshadow="2"
     inkscape:window-width="1440"
     inkscape:window-height="783"
     id="namedview156"
     showgrid="false"
     fit-margin-top="0"
     fit-margin-left="0"
     fit-margin-right="0"
     fit-margin-bottom="0"
     inkscape:zoom="0.42909092"
     inkscape:cx="327.02144"
     inkscape:cy="-233.85174"
     inkscape:window-x="0"
     inkscape:window-y="1"
     inkscape:window-maximized="1"
     inkscape:current-layer="svg154" />
  <path
     style="fill:#000000"
     d="m 104.15578,0 c -3.14148,1.2622548 -11.954369,3.5246553 -2.94003,4.1350569 -7.137769,1.3328966 -19.356129,6.1141711 -8.475989,-0.277635 -7.95203,2.2172315 -6.94874,3.3639779 -7.89844,6.5371101 -3.58819,5.402697 -7.61749,-7.431751 -4.22461,3.59375 4.0375,5.412978 7.2492,5.504963 5.20451,-0.221135 2.25377,-2.732772 17.711149,-1.914927 17.422749,-1.283338 -7.411789,5.065292 -15.070559,11.111695 -24.491839,7.462987 -10.09916,-4.037235 -18.27024,5.383193 -23.56737,0.459484 2.18872,6.112862 5.71775,9.791453 4.68781,5.839814 1.60236,-3.631987 12.69221,3.166271 11.42774,7.197266 2.78469,2.295037 -7.12466,8.015455 -6.98943,4.227548 -4.31449,3.515161 -6.44407,10.180439 -6.62242,1.182746 -2.63122,2.259244 -1.67025,11.930113 -9.53677,10.266067 -3.53816,0.443879 -19.12161,8.048618 -6.5575,1.165397 0.20091,-0.832687 -21.45402,4.620004 -11.42474,6.445351 -10.51391,1.095543 6.65315,15.937317 10.29951,5.673346 1.58991,2.961763 13.12529,0.533731 2.01795,3.587675 -8.93488,0.677282 -14.18702,2.543051 -18.30574,9.270229 -6.93609,5.262084 -16.2338601,4.039034 -8.20395,14.340778 5.57537,3.826317 10.07234,6.751277 2.41949,7.753015 -1.5303,-4.381292 -3.39767,2.763168 0.19354,3.956728 -5.0938,2.78452 8.95102,7.69661 -0.88449,13.34379 2.95562,4.52469 5.72859,-6.61295 4.6434,0.6908 4.39681,2.90232 -4.08084,6.14968 -7.04495,4.84067 -12.2656701,-2.45419 -2.47084,17.98851 6.718,19.13675 0.0853,8.91234 -25.9286101,10.51698 -21.51878013,14.90817 -0.41637,9.89394 11.72240013,8.09292 15.84452013,17.991 3.19269,5.37724 8.48923,5.60621 14.13468,4.9014 18.74491,-0.76054 -5.27082,-19.40869 7.76856,-24.92231 4.64458,-1.40777 19.37595,4.40994 14.17412,-8.32556 3.55627,-2.0709 9.59347,-14.21042 5.4856,-22.58398 2.06358,-10.76052 9.82849,-5.42683 15.7021,-9.99496 -4.28255,-9.68537 3.06883,-8.00712 8.02052,-12.711718 -0.44638,-8.935455 -15.03681,-12.935566 -5.0154,-20.207314 5.623,-4.777244 30.676019,-4.202775 21.20416,-18.620487 -0.18414,-2.496167 15.108609,2.592948 21.804189,1.022759 5.90928,9.105226 14.41231,16.676747 25.31155,18.883502 6.96642,2.668766 12.49986,-7.330829 17.51724,4.540553 9.11603,10.141867 -2.26467,13.724707 -2.76409,25.186685 3.20329,13.16461 23.62851,18.12143 25.80444,26.96152 -7.52728,-2.14193 -26.486,-6.98575 -18.72515,5.43572 4.48681,6.69182 15.65233,13.94042 5.07247,2.94558 7.29719,-0.56283 14.15617,8.08019 8.21028,7.25011 8.34473,5.17811 -6.7883,-1.19442 2.30957,5.26777 0.79497,4.16094 13.78643,11.50336 3.26116,15.80463 -10.9446,4.32097 12.90815,6.18082 16.25225,14.31837 3.57082,4.40166 3.09065,15.85224 -3.90597,7.99931 -6.59161,-4.42835 -17.28845,-4.13082 -10.75253,5.65326 -3.56843,6.54003 14.66162,23.45316 0.4972,12.1963 -4.29215,-6.03154 -16.59208,-17.2415 -18.03595,-5.79423 5.94904,-1.28684 4.52638,10.07088 11.63058,16.69793 4.53158,5.54174 14.63116,13.8142 11.81304,16.21353 2.73529,-2.52244 1.95217,5.26911 5.24468,2.43633 14.49788,7.72273 0.92699,24.2204 4.56201,36.12689 9.85338,7.56961 -9.48674,7.09572 0.52314,10.4247 1.61558,6.31975 9.12762,-1.47477 9.98646,8.50326 2.53568,7.58562 2.78281,13.9124 12.20881,15.64993 5.80993,3.05431 11.8629,6.68171 14.53545,-1.38915 7.52668,-16.22073 12.41067,-33.44607 15.35712,-51.06057 5.76807,-9.33689 -12.60385,-11.71676 -16.57185,-10.06444 -4.95341,8.7262 -6.90227,6.93311 -5.3515,-2.72757 8.77936,2.5422 22.65566,-7.49605 24.32123,-18.48673 10.91957,-15.23107 -13.39083,-21.87276 -17.89953,-9.07085 -6.14474,10.636 -7.8554,-9.21571 0.19497,-14.64052 13.33359,-10.68075 1.7583,-22.96236 -0.31607,-35.93565 -0.82937,-9.1253 11.46012,-21.881 -5.62245,-21.96571 -16.12791,5.35714 -8.94409,-17.75396 -4.82666,-26.62468 3.73818,-12.88804 -17.61229,-16.30115 -5.08698,-29.611805 8.57065,-8.443995 -4.14086,-33.22623 -11.02055,-18.028272 -1.36364,6.637658 -8.63345,27.476277 -12.08398,18.904297 0.51725,-11.203301 17.86672,-24.779418 3.0611,-32.724848 -13.99405,0.83469 -7.31625,-19.615745 -19.54586,-19.951681 -4.8261,-7.042438 -13.4159,-9.388582 -10.04258,-20.300033 -6.47656,-3.483724 -12.95313,-6.967448 -19.42969,-10.4511724 -7.20951,3.9896934 -9.62306,7.6840074 -16.19727,5.8613284 -4.3548,-2.197581 -1.75021,-3.545232 -7.7345,-0.976902 C 127.93839,9.0474281 126.69761,-0.92983873 117.84161,7.6078955 113.16435,5.3019232 109.283,0.79216674 104.15578,0 Z m 53.49023,10.81836 c -0.47234,4.456814 -8.71967,1.424866 0,0 z m -44.06055,21.236328 c 5.42669,4.533017 -0.21127,6.500962 0,0 z m 18.00782,2.3125 c -0.0839,7.337879 -9.32172,11.333922 -2.67969,2.416015 l 1.92666,-1.869 z m 2.14257,1.757812 c 4.34457,2.249122 -2.78837,1.969859 0,0 z m 6.03907,6.816406 c 8.8474,3.998371 6.41367,16.494551 0,0 z m 44.88476,0.238282 c 1.49059,2.530018 -3.70117,2.699882 0,0 z M 50.065931,63.783203 c 3.62422,2.151702 -2.21372,2.783256 0,0 z M 214.5132,67.121094 c -3.98129,2.660394 2.18464,2.407733 0,0 z m -59.76758,5.050781 c 3.71522,1.828378 -3.40173,4.551326 0,0 z M 51.563981,105.08593 c 1.15527,4.413 -4.68554,3.94514 0,0 z m -34.32227,5.69727 c -4.9809,1.89863 1.74627,2.80941 0,0 z m -2,6 c -4.9809,1.89863 1.74627,2.80941 0,0 z m 146.382819,17 c -5.20727,2.53031 5.01988,2.03781 0,0 z m 23.97265,15.3125 c 14.43513,3.38561 3.78123,8.66019 0,0 z m 45.125,20.95898 c 2.82129,6.9966 -4.18483,2.41469 0,0 z m -3.20312,2.15821 c 2.06022,5.40341 -7.43767,16.63248 -3.1984,3.88184 l 1.42105,-2.44239 z m -33.51367,12.57031 c -2.22148,1.71371 4.04306,2.81754 0.88835,0.29375 z m -4.93946,10 c 3.62422,2.1517 -2.21372,2.78326 0,0 z m 14.78516,48.01367 c 7.64868,3.77367 2.00061,8.48045 0,0 z m 3.47851,16.98633 c 1.32518,7.18475 -5.76234,20.59498 -1.94391,5.20546 0.53869,-1.76307 0.76194,-3.70357 1.94391,-5.20546 z"
     id="path164"
     inkscape:connector-curvature="0" />
</svg>
