<?xml version="1.0" encoding="UTF-8" standalone="no"?>
<!-- Created with Inkscape (http://www.inkscape.org/) -->

<svg
   xmlns:dc="http://purl.org/dc/elements/1.1/"
   xmlns:cc="http://creativecommons.org/ns#"
   xmlns:rdf="http://www.w3.org/1999/02/22-rdf-syntax-ns#"
   xmlns:svg="http://www.w3.org/2000/svg"
   xmlns="http://www.w3.org/2000/svg"
   xmlns:sodipodi="http://sodipodi.sourceforge.net/DTD/sodipodi-0.dtd"
   xmlns:inkscape="http://www.inkscape.org/namespaces/inkscape"
   version="1.1"
   id="svg154"
   width="260.73129"
   height="317.00104"
   viewBox="0 0 260.73128 317.00103"
   sodipodi:docname="0.svg"
   inkscape:version="0.92.4 (5da689c313, 2019-01-14)">
  <metadata
     id="metadata160">
    <rdf:RDF>
      <cc:Work
         rdf:about="">
        <dc:format>image/svg+xml</dc:format>
        <dc:type
           rdf:resource="http://purl.org/dc/dcmitype/StillImage" />
        <dc:title />
      </cc:Work>
    </rdf:RDF>
  </metadata>
  <defs
     id="defs158" />
  <sodipodi:namedview
     pagecolor="#ffffff"
     bordercolor="#666666"
     borderopacity="1"
     objecttolerance="10"
     gridtolerance="10"
     guidetolerance="10"
     inkscape:pageopacity="0"
     inkscape:pageshadow="2"
     inkscape:window-width="1440"
     inkscape:window-height="783"
     id="namedview156"
     showgrid="false"
     fit-margin-top="0"
     fit-margin-left="0"
     fit-margin-right="0"
     fit-margin-bottom="0"
     inkscape:zoom="0.85818184"
     inkscape:cx="267.47118"
     inkscape:cy="56.636594"
     inkscape:window-x="0"
     inkscape:window-y="1"
     inkscape:window-maximized="1"
     inkscape:current-layer="svg154" />
  <path
     style="fill:#000000"
     d="m 104.15578,0 c -3.14148,1.2622548 -11.954369,3.5246553 -2.94003,4.1350569 -7.137769,1.3328966 -19.356129,6.1141711 -8.475989,-0.277635 -7.95203,2.2172315 -6.94874,3.3639779 -7.89844,6.5371101 -3.58819,5.402697 -7.61749,-7.431751 -4.22461,3.59375 4.0375,5.412978 7.2492,5.504963 5.20451,-0.221135 2.25377,-2.732772 17.711149,-1.914927 17.422749,-1.283338 -7.411789,5.065292 -15.070559,11.111695 -24.491839,7.462987 -10.09916,-4.037235 -18.27024,5.383193 -23.56737,0.459484 2.18872,6.112862 5.71775,9.791453 4.68781,5.839814 1.60236,-3.631987 12.69221,3.166271 11.42774,7.197266 2.78469,2.295037 -7.12466,8.015455 -6.98943,4.227548 -4.31449,3.515161 -6.44407,10.180439 -6.62242,1.182746 -2.63122,2.259244 -1.67025,11.930113 -9.53677,10.266067 -3.53816,0.443879 -19.12161,8.048618 -6.5575,1.165397 0.20091,-0.832687 -21.45402,4.620004 -11.42474,6.445351 -10.51391,1.095543 6.65315,15.937317 10.29951,5.673346 1.58991,2.961763 13.12529,0.533731 2.01795,3.587675 -8.93488,0.677282 -14.18702,2.543051 -18.30574,9.270229 -6.93609,5.262084 -16.2338601,4.039034 -8.20395,14.340778 5.57537,3.826317 10.07234,6.751277 2.41949,7.753015 -1.5303,-4.381292 -3.39767,2.763168 0.19354,3.956728 -5.0938,2.78452 8.95102,7.69661 -0.88449,13.34379 2.95562,4.52469 5.72859,-6.61295 4.6434,0.6908 4.39681,2.90232 -4.08084,6.14968 -7.04495,4.84067 -12.2656701,-2.45419 -2.47084,17.98851 6.718,19.13675 0.0853,8.91234 -25.9286101,10.51698 -21.51878013,14.90817 -0.41637,9.89394 11.72240013,8.09292 15.84452013,17.991 3.19269,5.37724 8.48923,5.60621 14.13468,4.9014 18.74491,-0.76054 -5.27082,-19.40869 7.76856,-24.92231 4.64458,-1.40777 19.37595,4.40994 14.17412,-8.32556 3.55627,-2.0709 9.59347,-14.21042 5.4856,-22.58398 2.06358,-10.76052 9.82849,-5.42683 15.7021,-9.99496 -4.28255,-9.68537 3.06883,-8.00712 8.02052,-12.711718 -0.44638,-8.935455 -15.03681,-12.935566 -5.0154,-20.207314 5.623,-4.777244 30.676019,-4.202775 21.20416,-18.620487 -0.18414,-2.496167 15.108609,2.592948 21.804189,1.022759 5.90928,9.105226 14.41231,16.676747 25.31155,18.883502 6.96642,2.668766 12.49986,-7.330829 17.51724,4.540553 9.11603,10.141867 -2.26467,13.724707 -2.76409,25.186685 3.20329,13.16461 23.62851,18.12143 25.80444,26.96152 -7.52728,-2.14193 -26.486,-6.98575 -18.72515,5.43572 4.48681,6.69182 15.65233,13.94042 5.07247,2.94558 7.29719,-0.56283 14.15617,8.08019 8.21028,7.25011 8.34473,5.17811 -6.7883,-1.19442 2.30957,5.26777 0.79497,4.16094 13.78643,11.50336 3.26116,15.80463 -10.9446,4.32097 12.90815,6.18082 16.25225,14.31837 3.57082,4.40166 3.09065,15.85224 -3.90597,7.99931 -6.59161,-4.42835 -17.28845,-4.13082 -10.75253,5.65326 -3.56843,6.54003 14.66162,23.45316 0.4972,12.1963 -4.29215,-6.03154 -16.59208,-17.2415 -18.03595,-5.79423 5.94904,-1.28684 4.52638,10.07088 11.63058,16.69793 4.53158,5.54174 14.63116,13.8142 11.81304,16.21353 2.73529,-2.52244 1.95217,5.26911 5.24468,2.43633 14.49788,7.72273 0.92699,24.2204 4.56201,36.12689 9.85338,7.56961 -9.48674,7.09572 0.52314,10.4247 1.61558,6.31975 9.12762,-1.47477 9.98646,8.50326 2.53568,7.58562 2.78281,13.9124 12.20881,15.64993 5.80993,3.05431 11.8629,6.68171 14.53545,-1.38915 7.52668,-16.22073 12.41067,-33.44607 15.35712,-51.06057 5.76807,-9.33689 -12.60385,-11.71676 -16.57185,-10.06444 -4.95341,8.7262 -6.90227,6.93311 -5.3515,-2.72757 8.77936,2.5422 22.65566,-7.49605 24.32123,-18.48673 10.91957,-15.23107 -13.39083,-21.87276 -17.89953,-9.07085 -6.14474,10.636 -7.8554,-9.21571 0.19497,-14.64052 13.33359,-10.68075 1.7583,-22.96236 -0.31607,-35.93565 -0.82937,-9.1253 11.46012,-21.881 -5.62245,-21.96571 -16.12791,5.35714 -8.94409,-17.75396 -4.82666,-26.62468 3.73818,-12.88804 -17.61229,-16.30115 -5.08698,-29.611805 8.57065,-8.443995 -4.14086,-33.22623 -11.02055,-18.028272 -1.36364,6.637658 -8.63345,27.476277 -12.08398,18.904297 0.51725,-11.203301 17.86672,-24.779418 3.0611,-32.724848 -13.99405,0.83469 -7.31625,-19.615745 -19.54586,-19.951681 -4.8261,-7.042438 -13.4159,-9.388582 -10.04258,-20.300033 -6.47656,-3.483724 -12.95313,-6.967448 -19.42969,-10.4511724 -7.20951,3.9896934 -9.62306,7.6840074 -16.19727,5.8613284 -4.3548,-2.197581 -1.75021,-3.545232 -7.7345,-0.976902 C 127.93839,9.0474281 126.69761,-0.92983873 117.84161,7.6078955 113.16435,5.3019232 109.283,0.79216674 104.15578,0 Z m 53.49023,10.81836 c -0.47234,4.456814 -8.71967,1.424866 0,0 z m 27.01367,32.361328 c 1.49059,2.530018 -3.70117,2.699882 0,0 z M 50.065931,63.783203 c 3.62422,2.151702 -2.21372,2.783256 0,0 z M 214.5132,67.121094 c -3.98129,2.660394 2.18464,2.407733 0,0 z m -59.76758,5.050781 c 3.71522,1.828378 -3.40173,4.551326 0,0 z M 17.241711,110.7832 c -4.9809,1.89863 1.74627,2.80941 0,0 z m -2,6 c -4.9809,1.89863 1.74627,2.80941 0,0 z m 146.382819,17 c -5.20727,2.53031 5.01988,2.03781 0,0 z m 23.97265,15.3125 c 14.43513,3.38561 3.78123,8.66019 0,0 z m 45.125,20.95898 c 2.82129,6.9966 -4.18483,2.41469 0,0 z m -3.20312,2.15821 c 2.06022,5.40341 -7.43767,16.63248 -3.1984,3.88184 l 1.42105,-2.44239 z m -33.51367,12.57031 c -2.22148,1.71371 4.04306,2.81754 0.88835,0.29375 z m -4.93946,10 c 3.62422,2.1517 -2.21372,2.78326 0,0 z m 14.78516,48.01367 c 7.64868,3.77367 2.00061,8.48045 0,0 z m 3.47851,16.98633 c 1.32518,7.18475 -5.76234,20.59498 -1.94391,5.20546 0.53869,-1.76307 0.76194,-3.70357 1.94391,-5.20546 z"
     id="path164"
     inkscape:connector-curvature="0"
     sodipodi:nodetypes="ccccccccccccccccccccccccccccccccccccccccccccccccccccccccccccccccccccccccccccccccccccccccccccccccccccccccccccccccc" />
  <path
     style="fill:#ffffcf;fill-opacity:1;stroke:#000000;stroke-width:1px;stroke-linecap:butt;stroke-linejoin:miter;stroke-opacity:1"
     d="m 14.831265,158.80088 c 3.384992,2.97215 6.451746,9.70471 10.711469,8.23959 8.315092,-2.85996 0.204857,-19.49883 6.591673,-25.54273 3.05162,-2.88777 8.927587,-0.0482 12.359387,-2.47188 4.703534,-3.32187 7.129254,-9.33844 8.857561,-14.83126 1.446285,-4.59651 -2.33685,-10.97193 1.029949,-14.41929 3.036094,-3.10874 10.112915,2.03165 12.977357,-1.23594 2.491083,-2.84168 -2.662211,-8.29347 -0.41198,-11.329437 1.438011,-1.940139 5.974534,0.330795 7.003653,-1.853908 2.448279,-5.197418 -8.66767,-10.098122 -7.209643,-15.655224 1.397739,-5.327321 8.367749,-7.419292 13.389337,-9.68152 3.721108,-1.676361 9.34785,0.468423 11.947407,-2.677867 2.84411,-3.442276 -2.766682,-10.253361 0.41198,-13.389336 5.670848,-5.594693 15.991185,-1.407805 23.894815,-0.41198 3.60289,0.453949 7.28411,1.207663 10.50548,2.883857 5.06147,2.633662 8.24671,8.05665 13.18335,10.917459 3.55311,2.059047 7.47593,3.705459 11.53542,4.325786 3.67092,0.560951 7.6669,-1.975398 11.12345,-0.61797 4.88161,1.917067 8.59473,6.627295 10.91746,11.329439 2.42994,4.919185 3.42336,10.869705 2.47188,16.273193 -0.746,4.236558 -7.19609,7.149498 -6.17969,11.329438 2.11485,8.69732 17.40056,7.51203 22.24689,15.03725 2.22474,3.45451 3.52304,8.31382 2.0599,12.1534 -0.93935,2.46504 -6.51944,2.32777 -6.17969,4.94376 0.50283,3.87164 8.45713,1.55022 10.71147,4.73776 2.06776,2.92373 3.23015,8.0593 0.82395,10.71147 -2.26117,2.49232 -8.63988,-2.82907 -10.09349,0.20599 -1.31106,2.73743 4.42151,4.39676 5.56172,7.20964 1.14225,2.81792 -0.56232,6.47317 1.02995,9.06355 3.14141,5.11061 12.18984,4.60744 15.03725,9.88751 3.32431,6.16442 5.17166,16.28813 0,21.01096 -3.36016,3.06855 -10.57101,-4.63597 -13.59532,-1.23594 -2.6582,2.98844 1.8927,7.78398 2.47187,11.74142 0.35919,2.4543 2.31465,5.60624 0.61797,7.41563 -2.4897,2.6551 -9.62004,-3.6067 -10.91745,-0.20599 -1.83971,4.82216 7.3518,7.3789 11.74141,10.0935 3.16701,1.95852 7.8908,1.48607 10.29949,4.32579 3.83518,4.52148 3.71942,11.38773 4.1198,17.30314 0.42401,6.26451 -2.031,12.46873 -1.85391,18.74507 0.12545,4.446 0.53571,9.00489 2.0599,13.18335 1.95313,5.35436 4.5842,10.85403 8.85756,14.62527 3.15727,2.78629 9.49636,8.83404 11.53543,5.14975 9.11003,-16.46046 10.80871,-27.35045 12.35938,-42.84588 0.23881,-2.38638 -4.25032,-3.40341 -6.59167,-2.88385 -4.4646,0.99071 -4.51323,9.8426 -9.06355,10.29949 -2.48688,0.2497 -4.92293,-2.26401 -5.9737,-4.53178 -3.2089,-6.92545 -3.96807,-17.28122 1.23594,-22.86487 2.64202,-2.83476 7.91223,-0.0677 11.53542,-1.44193 4.20254,-1.59402 8.76668,-3.79437 11.12345,-7.62162 1.88906,-3.06771 4.45648,-8.73869 1.44193,-10.71147 -3.764,-2.46324 -7.13883,6.05224 -11.53543,7.00366 -3.37957,0.73134 -7.61309,0.94113 -10.29949,-1.23594 -2.64852,-2.14637 -2.82117,-6.30568 -3.29583,-9.68152 -0.39244,-2.79109 -0.62778,-5.82583 0.41198,-8.44558 1.59899,-4.02878 5.87782,-6.39545 8.44558,-9.88751 1.68155,-2.28685 4.19279,-4.39142 4.53177,-7.20965 0.90755,-7.54524 -5.99231,-14.12742 -7.20964,-21.62892 -0.47294,-2.9144 -0.53228,-5.95342 0,-8.85756 0.38394,-2.09478 3.57245,-4.29193 2.26589,-5.97371 -2.2469,-2.89217 -7.44466,2.39906 -10.91746,1.23594 -3.50015,-1.17228 -6.49602,-4.26586 -8.0336,-7.62162 -1.80394,-3.93709 -1.13742,-8.67794 -0.61797,-12.97736 0.69578,-5.75884 5.18393,-10.88942 4.94375,-16.68517 -0.16473,-3.97491 -2.98946,-7.37628 -4.32578,-11.12345 -0.97006,-2.72014 -2.57095,-5.35363 -2.67787,-8.23959 -0.12824,-3.46155 1.03601,-6.941193 2.47188,-10.093501 1.18453,-2.60051 4.72819,-4.154216 4.94375,-7.003653 0.17373,-2.296473 -0.78834,-6.263782 -3.08984,-6.179694 -8.83062,0.322636 -2.27961,20.386395 -10.0935,24.512788 -3.22716,1.70421 -8.05231,0.23366 -10.71147,-2.26589 -4.30902,-4.05038 -6.00724,-11.321196 -4.73777,-17.097153 1.1399,-5.186417 10.57983,-6.850597 10.29949,-12.153398 -0.11025,-2.085398 -2.66393,-3.391864 -4.53177,-4.325785 -2.98855,-1.494275 -7.4115,0.595663 -9.88751,-1.647918 -3.3202,-3.008526 -0.89453,-9.333599 -3.50183,-12.977357 -2.64861,-3.701491 -8.43842,-4.106208 -11.32944,-7.621622 -3.26432,-3.969337 -3.7494,-9.580381 -5.9737,-14.213296 -1.18352,-2.4651 -1.71623,-5.582359 -3.91381,-7.209642 -2.75963,-2.04347 -6.65973,-2.084005 -10.0935,-2.059898 -4.49825,0.03158 -8.6857,2.964024 -13.18334,2.883857 -5.52812,-0.09853 -11.10585,-1.679573 -16.06721,-4.119796 -2.50201,-1.230603 -3.83211,-4.750666 -6.59167,-5.149745 -5.55249,-0.802985 -10.48957,3.990867 -15.65523,6.179694 -5.206119,2.205972 -9.823374,6.438202 -15.44923,7.003653 -3.364323,0.338146 -7.872397,-4.981092 -9.887509,-2.265888 -1.649567,2.222662 4.282125,4.446503 4.119795,7.209643 -0.230346,3.920874 -4.223445,6.701226 -7.003652,9.47553 -3.198265,3.191475 -6.905785,5.954929 -10.917459,8.033602 -3.855775,1.997893 -12.051541,-0.211925 -12.359387,4.119796 -0.239448,3.369288 7.894362,1.362795 9.06355,4.531775 1.341949,3.637232 -1.475672,8.325988 -4.531775,10.711469 -5.259178,4.105119 -13.675076,0.387692 -19.77502,3.089847 -4.598346,2.036977 -11.151608,4.480914 -11.741418,9.47553 -0.48802,4.132641 6.861886,5.796094 7.621622,9.88751 0.614766,3.310708 -2.558721,6.329954 -2.883857,9.681522 -0.552832,5.69871 2.168819,11.39543 1.647919,17.09715 -0.181914,1.99121 -0.150027,4.4432 -1.647919,5.76771 -2.655409,2.34805 -9.812074,-1.82824 -10.505479,1.64792 -0.771723,3.86878 8.445234,2.59553 10.0935,6.1797 1.627158,3.53827 0.148253,8.19501 -1.853908,11.53542 -3.148824,5.25351 -14.211635,5.01253 -14.625275,11.12345 -0.09181,1.35636 1.862295,1.98689 2.883857,2.88386 z"
     id="path3511"
     inkscape:connector-curvature="0"
     sodipodi:nodetypes="ssssssssssssssssssssssssssssssssssssssssssssssssssssssssssssssssssssssssssssssssssssssssssssssssssssss" />
</svg>
