<?xml version="1.0" encoding="UTF-8" standalone="no"?>
<!-- Created with Inkscape (http://www.inkscape.org/) -->

<svg
   xmlns:dc="http://purl.org/dc/elements/1.1/"
   xmlns:cc="http://creativecommons.org/ns#"
   xmlns:rdf="http://www.w3.org/1999/02/22-rdf-syntax-ns#"
   xmlns:svg="http://www.w3.org/2000/svg"
   xmlns="http://www.w3.org/2000/svg"
   xmlns:sodipodi="http://sodipodi.sourceforge.net/DTD/sodipodi-0.dtd"
   xmlns:inkscape="http://www.inkscape.org/namespaces/inkscape"
   version="1.1"
   id="svg64"
   width="427.02539"
   height="586.76324"
   viewBox="0 0 427.0254 586.76324"
   sodipodi:docname="3l_1.svg"
   inkscape:version="0.92.4 (5da689c313, 2019-01-14)">
  <metadata
     id="metadata70">
    <rdf:RDF>
      <cc:Work
         rdf:about="">
        <dc:format>image/svg+xml</dc:format>
        <dc:type
           rdf:resource="http://purl.org/dc/dcmitype/StillImage" />
        <dc:title></dc:title>
      </cc:Work>
    </rdf:RDF>
  </metadata>
  <defs
     id="defs68" />
  <sodipodi:namedview
     pagecolor="#ffffff"
     bordercolor="#666666"
     borderopacity="1"
     objecttolerance="10"
     gridtolerance="10"
     guidetolerance="10"
     inkscape:pageopacity="0"
     inkscape:pageshadow="2"
     inkscape:window-width="1243"
     inkscape:window-height="789"
     id="namedview66"
     showgrid="false"
     fit-margin-top="0"
     fit-margin-left="0"
     fit-margin-right="0"
     fit-margin-bottom="0"
     inkscape:zoom="0.52727273"
     inkscape:cx="291.97111"
     inkscape:cy="116.62882"
     inkscape:window-x="0"
     inkscape:window-y="0"
     inkscape:window-maximized="0"
     inkscape:current-layer="svg64" />
  <path
     style="fill:#000000"
     d="m 424.35209,0.00796722 c -0.2214,0.05573638 -0.291,0.40591748 -0.291,1.07031248 0,0.892345 0.5412,1.6210938 1.2012,1.6210938 0.8607,0 0.8933,0.3058952 0.1172,1.0820312 -0.7761,0.776137 -1.6321,0.7397295 -3.0293,-0.1328125 -1.5918,-0.994104 -2.4346,-0.8995954 -4.6094,0.5253906 -1.4637,0.959087 -2.384,2.1934255 -2.0449,2.7421875 0.3855,0.623763 -0.2279,0.7297412 -1.6348,0.2832032 -1.356,-0.43039 -2.0137,-0.3320743 -1.6563,0.2460937 0.3261,0.527735 -1.6427,3.0441818 -4.375,5.5917968 -2.7323,2.547615 -4.9687,5.115999 -4.9687,5.707032 0,0.591033 -0.4474,0.796902 -0.9941,0.458984 -0.5468,-0.337918 -2.6843,0.645717 -4.75,2.185547 -4.3133,3.215212 -5.3178,4.402106 -4.6465,5.488281 0.2625,0.424754 -1.6782,1.720426 -4.3145,2.878906 -2.6363,1.15848 -5.4699,2.520504 -6.2949,3.027344 -0.825,0.50684 -2.5125,1.359457 -3.75,1.894531 -1.2375,0.535074 -2.25,1.400498 -2.25,1.923828 0,1.088762 -5.6261,4.097657 -7.6621,4.097657 -1.4485,0 -4.392,2.960239 -4.293,4.316406 0.074,1.007982 -4.5021,4.683594 -5.8301,4.683594 -0.5334,0 -1.5374,0.686017 -2.2324,1.523437 -0.7673,0.92439 -2.0926,1.290654 -3.373,0.933594 -1.6819,-0.46903 -1.8057,-0.374699 -0.6094,0.462891 1.3333,0.9335 1.3333,1.063771 0,1.175781 -0.825,0.0693 -2.5752,0.03622 -3.8906,-0.07422 -1.8772,-0.15763 -2.2507,0.16454 -1.7383,1.5 0.5347,1.39326 0.2189,1.592309 -1.7442,1.099609 -1.8356,-0.460749 -2.5183,-0.140585 -2.9121,1.365235 -0.2828,1.08147 -1.7957,2.522322 -3.3632,3.201172 -1.5674,0.67885 -3.9247,2.039037 -5.2364,3.023437 -2.7698,2.07874 -5.6148,2.421083 -4.4765,0.539063 0.4158,-0.6875 -0.6242,0.1 -2.3125,1.75 -1.6883,1.65 -5.2648,3.849972 -7.9473,4.888672 -8.2463,3.19309 -11.7191,4.866496 -15.8789,7.654297 -2.2,1.474399 -6.1045,4.020663 -8.6777,5.658203 -2.5733,1.63754 -6.1733,4.200209 -8,5.693359 -5.3256,4.35304 -22.542,16.605466 -23.3321,16.605466 -0.3971,0 -2.8678,1.575 -5.4902,3.5 -2.6224,1.925 -5.1565,3.51124 -5.6328,3.52344 -0.4763,0.0122 -1.9922,0.90102 -3.3672,1.97656 -1.375,1.07554 -3.2875,1.96631 -4.25,1.97851 -0.9625,0.0122 -1.752,0.58399 -1.752,1.27149 0,0.6875 -2.4994,2.44089 -5.5507,3.89453 -3.0514,1.45365 -5.6144,3.02865 -5.6954,3.5 -0.1747,1.0175 -8.3938,6.35547 -9.7851,6.35547 -0.5309,0 -0.9668,0.45969 -0.9668,1.02148 0,0.56179 -1.2375,1.56596 -2.75,2.23047 -1.5125,0.66452 -2.975,1.44506 -3.25,1.73438 -0.275,0.28933 -2.3,1.84899 -4.5,3.46679 -2.2,1.61779 -4.2965,3.37743 -4.6602,3.91016 -0.3638,0.53273 -6.2138,6.61171 -13,13.50781 -11.3253,11.50861 -16.7828,16.13148 -31.6464,26.81446 -13.5312,9.72535 -17.6754,13.156 -17.4532,14.44921 0.132,0.76814 -0.768,2.01666 -2,2.77344 -2.2313,1.37065 -2.2316,1.36774 -0.334,-0.76562 4.0101,-4.50835 -0.2932,-1.82822 -9.0019,5.60742 -4.9922,4.2625 -11.4738,9.775 -14.4024,12.25 -12.03965,10.1751 -35.626988,33.5621 -46.898388,46.5 -8.0819,9.2768 -14.53945,16.46594 -19.65625,21.88476 -3.0885,3.27089 -18.75203,26.08568 -22.04883,32.11524 -2.105,3.85 -6.42922,11.03853 -9.61132,15.97266 -3.182,4.93412 -5.78711,9.30111 -5.78711,9.70507 0,0.40396 -1.125,2.39179 -2.5,4.41797 -1.3749999,2.02617 -2.5058599,4.40917 -2.5058599,5.29492 -0.003,0.88575 -0.62928,2.80662 -1.39258,4.26954 -4.0861,7.83165 -6.52550003,30.18291 -6.65820003,61.0332 -0.048,11.15355 0.2843,15.24933 1.37890003,17 0.7932,1.26848 2.24471,5.68164 3.22461,9.80664 1.7795,7.49114 3.70567,11.82887 7.1347699,16.0625 3.8538,4.75799 8.44007,9.44288 9.35937,9.5625 0.5284,0.0687 1.43713,0.1812 2.01953,0.25 0.58283,0.0687 0.81016,0.52911 0.50586,1.02148 -0.63263,1.0235 1.68653,2.10352 4.51563,2.10352 1.055,0 1.91797,0.43601 1.91797,0.96875 0,0.53273 0.675,0.70916 1.5,0.39258 0.825,-0.31659 1.5,-0.0756 1.5,0.5332 0,0.60885 0.88524,1.10547 1.96484,1.10547 1.0796,0 4.2427,0.89966 7.0293,1.99805 2.7866,1.09839 6.51591,1.96698 8.28711,1.92968 4.6796,-0.0986 11.29062,0.68812 12.60742,1.50196 0.6263,0.38704 2.49028,0.0293 4.14258,-0.79493 1.6522,-0.82425 2.74453,-1.07886 2.42773,-0.5664 -0.3167,0.51247 0.23742,0.9649 1.23242,1.0039 14.6452,0.57458 19.16144,0.53881 21.02344,-0.1621 1.3041,-0.49091 2.4611,-0.43571 2.8125,0.13281 0.7189,1.16318 5.676288,0.0934 6.708978,-1.44727 0.5074,-0.75702 0.73901,-0.71089 0.75,0.14649 0.0101,0.81696 1.63758,1.22963 4.76368,1.20703 7.88661,-0.057 11.9125,0.46886 12.6269,1.65039 l 10.4844,2.26758 7.375,7.71093 -1.0195,15.49414 c 0.01,-0.002 0.028,-0.029 0.033,-0.0293 0.4125,-0.0235 0.75,0.8031 0.75,1.83593 0,2.58475 2.018,7.3236 10.0684,23.66211 9.3043,18.88391 18.9147,30.05592 30.4531,35.39649 3.64,1.68482 6.8419,3.0625 7.1152,3.0625 0.2733,0 1.9309,1.05554 3.6817,2.3457 2.9249,2.15535 6.2609,3.35834 20.1503,7.25977 14.5228,4.07934 32.9992,-0.40569 55.1016,-13.37305 9.6043,-5.63477 21.9586,-16.56768 24.5234,-21.70312 1.1584,-2.31947 5.0061,-7.05255 8.5508,-10.51758 8.4081,-8.21924 17.0941,-19.01129 21.3379,-26.51172 1.8671,-3.3 4.1477,-7.125 5.0684,-8.5 7.545,-11.26722 15.0664,-23.25804 16.9355,-27 1.2363,-2.475 2.9409,-5.2875 3.7871,-6.25 0.8462,-0.9625 1.1741,-1.75 0.7285,-1.75 -0.4454,0 -0.1421,-0.7875 0.6758,-1.75 0.8179,-0.9625 2.6324,-4 4.0313,-6.75 2.8959,-5.69237 11.11,-21.32581 15.5,-29.5 10.1611,-18.91988 27.3389,-66.14139 33.2285,-91.34766 9.4202,-40.31654 11.151,-51.89239 13.5547,-90.65234 0.3241,-5.225 1.0528,-16.025 1.6211,-24 0.5682,-7.975 1.2347,-28.9 1.4804,-46.5 0.2457,-17.6 0.9138,-43.25 1.4844,-57 0.5706,-13.75 1.2591,-36.249997 1.5293,-49.999997 0.5239,-26.654648 0.6374,-27.33579 7.1563,-42.826172 1.285,-3.053448 1.3521,-3.984728 0.332,-4.615235 -1.0266,-0.634476 -0.9661,-2.01272 0.3125,-7.003906 2.0389,-7.9594015 2.079,-15.4054755 0.092,-17.05468753 -0.6143,-0.5097855 -0.9875,-0.74714263 -1.209,-0.69140625 z m -0.4824,25.69140678 c 0.1346,0 0.1621,0.333333 0.1621,1 0,0.825 -0.4375,2.175 -0.9707,3 -0.8617,1.333333 -0.9688,1.333333 -0.9688,0 0,-0.825 0.4356,-2.175 0.9688,-3 0.4308,-0.666667 0.674,-1 0.8086,-1 z m -17.8809,16.929687 -1.4062,3.367188 c -0.7738,1.851919 -1.7212,5.805346 -2.1055,8.785156 -0.3844,2.97982 -1.1259,6.542969 -1.6465,7.917969 -0.5206,1.375 -1.6682,7.225 -2.5508,13 -1.3363,8.74315 -1.6247,21.208442 -1.7207,74.499996 -0.1258,69.85874 -1.244,93.70366 -5.375,114.5 -2.3,11.57883 -4.2763,21.08456 -5.7011,27.42383 -0.8559,3.80784 -1.7671,9.20784 -2.0254,12 -0.5692,6.15052 -2.3059,15.34136 -3.416,18.07617 -1.0201,2.51342 -2.5215,8.97644 -5.086,21.89258 -1.1039,5.55966 -3.7898,15.50742 -5.9668,22.10742 -2.177,6.6 -4.8928,14.925 -6.0371,18.5 -3.3962,10.61045 -12.501,31.45008 -18.3711,42.05273 -3.4818,6.28875 -5.2405,10.50906 -4.8281,11.58399 0.4403,1.14718 0.2711,1.4583 -0.5273,0.96484 -0.6923,-0.42788 -1.4483,0.0193 -1.834,1.08594 -0.3606,0.99736 -1.4837,3.01008 -2.4961,4.47266 -1.0124,1.46256 -1.5878,3.31713 -1.2793,4.12109 0.3085,0.80395 -0.09,1.71197 -0.8867,2.01758 -1.4761,0.56645 -7.358,11.58697 -6.9121,12.95117 0.1348,0.4125 -0.179,0.75 -0.6973,0.75 -0.5183,0 -2.2058,2.25056 -3.75,5 -1.5442,2.74944 -3.1461,4.99944 -3.5586,5 -0.4125,5.6e-4 -0.75,0.68899 -0.75,1.53125 0,0.84227 -0.675,1.79084 -1.5,2.10742 -0.825,0.31659 -1.5,1.477 -1.5,2.57813 0,1.10114 -0.9246,2.96505 -2.0547,4.14257 -1.1301,1.17752 -4.0394,5.83034 -6.4648,10.33985 -7.5749,14.08399 -12.7171,20.32933 -27.4805,33.37109 -5.8664,5.18224 -6.1934,5.43301 -9.0625,6.94141 -1.3403,0.70469 -2.7965,1.89006 -3.2363,2.63476 -0.8851,1.49859 -3.7012,1.8612 -3.7012,0.47657 0,-0.48265 0.675,-1.43836 1.5,-2.12305 1.6536,-1.37238 2.0987,-4.48806 0.5,-3.5 -0.55,0.33992 -1,-0.082 -1,-0.93945 0,-0.85746 -0.4699,-1.56055 -1.0449,-1.56055 -1.8083,0 -6.1587,5.02565 -5.6035,6.47266 0.5979,1.55805 -2.0194,4.19158 -3.0957,3.11523 -0.3833,-0.38328 -0.036,-1.11528 0.7734,-1.62695 0.809,-0.51167 0.982,-0.93732 0.3848,-0.94532 -1.1509,-0.0162 -10.6803,6.96123 -11.2461,8.23438 -0.1834,0.4125 -0.8645,0.75 -1.5118,0.75 -0.6472,0 -2.3881,1.125 -3.871,2.5 -2.7225,2.52445 -4.4006,3.30651 -3.3106,1.54297 0.3254,-0.52656 -1.9685,-0.0766 -5.0977,1 -6.8862,2.36927 -6.3769,2.36416 -6.3769,0.0644 0,-2.73383 -2.1491,-3.16731 -7.5918,-1.5293 -2.6332,0.79247 -5.0741,1.09937 -5.4238,0.68164 -1.5872,-1.89561 -8.6545,-12.14289 -19.416,-28.15625 -20.5606,-30.59439 -30.1399,-40.37294 -49.0665,-50.08203 -16.0207,-8.21851 -20.5359,-9.07778 -48.876898,-9.31445 -13.5421,-0.11309 -24.62275,-0.5638 -24.62305,-1 -4e-4,-0.43621 -5.28945,-0.71454 -11.75195,-0.61914 -14.3376,0.21168 -16.79508,-0.6663 -24.10938,-8.61328 -5.8827,-6.39148 -7.85872,-10.29888 -11.18554,-22.11133 -1.93761,-6.8798 -2.13517,-9.28733 -1.57227,-19.25977 0.637,-11.28393 4.76726,-41.20987 6.66016,-48.2539 1.9587,-7.28922 7.82647,-18.51346 13.51367,-25.84961 4.9916,-6.43889 11.81634,-14.51201 22.49414,-26.60938 2.3434,-2.65505 20.39922,-19.87149 43.949218,-41.90625 11.9215,-11.15444 84.2759,-82.58771 89.1191,-87.98437 7.8203,-8.71388 12.4471,-12.48337 32.3809,-26.38086 5.5,-3.83449 13.2636,-9.59189 17.2519,-12.79492 3.9885,-3.20304 11.1885,-8.02632 16,-10.71875 4.8116,-2.69242 14.4668,-8.65492 21.4551,-13.25 6.9883,-4.59507 12.9647,-8.35547 13.2813,-8.35547 1.0219,0 15.5117,-11.214846 15.5117,-12.005856 0,-0.42069 1.6157,-1.53197 3.5898,-2.46875 1.9741,-0.93677 4.4034,-2.518551 5.3985,-3.513671 0.9951,-0.995131 3.5418,-2.397598 5.6601,-3.117188 2.1183,-0.71958 4.5634,-1.890383 5.4317,-2.601562 0.8683,-0.71118 2.1815,-1.292969 2.9199,-1.292969 0.7384,0 2.0536,-0.611465 2.9219,-1.359375 2.5553,-2.20105 12.5847,-7.380717 19.8418,-10.248047 3.705,-1.46389 9.6613,-4.791791 13.2363,-7.394531 3.575,-2.60274 8.143,-5.497291 10.1504,-6.431641 2.0073,-0.93434 4.9323,-3.045626 6.5,-4.691406 1.5676,-1.64579 4.6496,-3.835628 6.8496,-4.867188 2.2,-1.03155 5.8973,-3.046152 8.2148,-4.476562 z m -23.5527,22.06836 c -1.4893,0.006 -3.0198,1.348215 -4.3398,3.935546 -1.1033,2.16269 -2.4981,4.236385 -3.1016,4.609376 -0.6035,0.37298 -2.7101,3.216529 -4.6797,6.318359 -1.9695,3.10184 -3.8614,5.863672 -4.2051,6.138672 -1.8431,1.4749 -10.0469,13.223984 -10.0469,14.388666 10e-5,0.75152 -0.668,1.92213 -1.4843,2.59961 -0.8163,0.67748 -3.5605,5.5561 -6.0977,10.8418 -2.5371,5.2857 -5.2086,10.46129 -5.9375,11.50195 -1.1814,1.68659 -1.2981,1.44424 -1.0644,-2.22656 0.478,-7.50722 -4.8618,-11.01408 -7.8809,-5.17578 -2.1633,4.18332 -2.077,10.84683 0.207,16.07031 1.8067,4.13192 1.8461,4.78629 0.4746,8 -0.8215,1.925 -1.8363,4.4 -2.2539,5.5 -0.4177,1.1 -1.5139,3.71301 -2.4355,5.80664 -0.9217,2.09363 -2.7205,6.68852 -3.9981,10.21094 -1.2777,3.52243 -3.2689,7.6075 -4.4257,9.07812 -1.1567,1.47062 -2.1075,3.17573 -2.1075,3.78906 0,0.61333 -1.766,3.43709 -3.9179,6.2754 -2.152,2.8383 -4.4458,6.15886 -5.0977,7.37695 -0.6519,1.2181 -2.751,4.26534 -4.664,6.77148 -1.913,2.50615 -4.3895,6.49609 -5.5039,8.86719 -3.8778,8.24952 -4.933,3.37198 -4.834,-22.3418 0.081,-21.00828 1.4042,-29.70335 7.082,-46.51367 3.2054,-9.49002 3.5013,-11.89864 1.8457,-14.99219 -0.9586,-1.7912 -1.4513,-1.01715 -4.0156,6.31446 -1.6077,4.59668 -3.0414,8.80742 -3.1856,9.35742 -0.1443,0.55 -0.5334,1.45 -0.8652,2 -0.8425,1.39614 -4.5988,17.16028 -5.2422,22 -1.3804,10.38235 -1.7136,42.36985 -0.5371,51.60156 l 1.2383,9.7168 -4.1485,6.08008 c -2.2826,3.34393 -4.1504,6.32334 -4.1504,6.62109 10e-5,0.29775 -2.3647,4.46576 -5.2539,9.26172 -2.8891,4.79597 -5.9121,10.06875 -6.7187,11.71875 -0.8065,1.65 -2.6378,4.8 -4.0703,7 -1.4324,2.2 -4.4108,7.375 -6.6172,11.5 -2.2065,4.125 -6.6729,11.639 -9.9258,16.69726 -3.2529,5.05826 -8.1048,13.04576 -10.7812,17.75 -2.6764,4.70424 -5.0492,8.55274 -5.2735,8.55274 -0.2244,0 -0.4121,-1.6875 -0.4121,-3.75 -0.025,-24.60377 -1.6497,-54.1894 -3.0976,-56.43164 -1.4761,-2.28603 -2.9634,1.24237 -2.3946,5.68164 0.2819,2.2 0.77,15.43741 1.084,29.41601 0.3139,13.9786 0.6121,25.6786 0.6621,26 0.4123,2.62648 -2.0221,9.94056 -4.5801,13.75782 -7.2736,10.85402 -11.6211,17.83405 -11.6211,18.6582 0,0.48473 -1.2821,2.52124 -2.8476,4.52539 -1.5656,2.00414 -3.6761,5.55508 -4.6914,7.89258 -1.0153,2.3375 -2.1902,4.25 -2.6094,4.25 -0.4193,0 -1.0546,-1.55749 -1.4121,-3.46289 -0.8608,-4.58834 -2.9918,-6.41257 -5.0684,-4.33594 -1.3719,1.37166 -1.3678,2.07518 0.049,6.8457 2.7477,9.25272 2.2691,10.95223 -7.5313,26.70313 -8.9046,14.31122 -11.7453,18.96502 -14.0058,22.94531 -9.0347,15.90857 -11.9832,19.30961 -9.1504,10.55469 0.8453,-2.6125 1.7038,-7 1.9082,-9.75 0.2044,-2.75 0.6082,-5.63383 0.8965,-6.41016 0.2882,-0.77633 0.7252,-4.37633 0.9707,-8 0.2456,-3.62367 0.7614,-11.08984 1.1464,-16.58984 0.385,-5.5 0.5852,-11.125 0.4454,-12.5 -0.9429,-9.27843 -0.8773,-33.67094 0.1074,-40 0.6418,-4.125 1.2513,-10.50653 1.3555,-14.18164 0.2429,-8.58081 1.3605,-17.4879 2.6035,-20.75196 0.5373,-1.41078 1.4024,-4.80238 1.9218,-7.5371 0.5194,-2.73472 2.513,-8.06314 4.4317,-11.83985 2.1541,-4.2402 3.9138,-9.60518 4.5996,-14.02539 0.6109,-3.93703 2.4095,-10.83506 3.9961,-15.33008 1.889,-5.35205 2.8922,-10.18601 2.9082,-14.0039 0.032,-7.6427 1.3199,-12.94332 4.9785,-20.4961 3.3106,-6.83431 3.6711,-9.5306 1.6426,-12.30468 -2.1928,-2.99889 -4.6446,-1.25691 -4.6446,3.30078 0,2.16365 -1.2955,6.7504 -2.916,10.32422 -3.1908,7.03715 -3.8574,10.01508 -4.4765,19.98828 -0.2297,3.69909 -1.7886,10.78779 -3.5176,16 -1.7073,5.14711 -3.3895,11.60742 -3.7383,14.35742 l -0.6348,5 -1.2343,-7 c -1.6163,-9.16176 -6.3775,-24.53109 -8.2871,-26.75 -1.5778,-1.83335 -4.1954,-2.37826 -4.1954,-0.87305 1e-4,2.47808 3.4705,16.01102 4.7598,18.56055 3.3258,6.57678 2.4788,30.36423 -1.6152,45.39453 -0.9991,3.66796 -1.9185,9.36797 -2.043,12.66797 -0.1244,3.3 -0.6712,9.15 -1.2168,13 -1.1282,7.96136 -2.3048,29.24912 -1.9062,34.5 1.4104,18.5815 -0.6503,47.61879 -4.6836,66 -0.9052,4.125 -1.7595,9.075 -1.8985,11 -0.1391,1.925 -0.2842,3.93794 -0.3242,4.47266 -0.2924,3.93002 -13.6806,-19.44701 -17.1308,-29.91211 -2.4405,-7.40273 -6.498,-26.27331 -9.043,-42.06055 -1.064,-6.6 -2.3992,-14.25 -2.9688,-17 -4.8973,-23.64506 -5.5261,-44.38888 -1.7695,-58.38867 1.0561,-3.93539 0.983,-4.53216 -0.7012,-5.76367 -2.6939,-1.96988 -3.9185,-1.18176 -4.2441,2.73046 -0.1566,1.88265 -0.9441,7.05714 -1.75,11.5 -1.6737,9.22791 -1.8601,25.77943 -0.3652,32.42188 0.5571,2.475 0.9889,5.56034 0.9589,6.85547 -0.029,1.29514 0.5956,4.67014 1.3887,7.5 0.793,2.82987 1.9371,8.74453 2.543,13.14453 1.261,9.15718 1.9991,13.22249 5.4961,30.26758 1.3842,6.74634 2.9177,13.04634 3.4082,14 0.4905,0.95366 1.4474,4.20742 2.1269,7.23242 0.6795,3.025 1.5492,5.95 1.9336,6.5 0.3845,0.55 1.9478,3.18248 3.4727,5.84961 2.6422,4.62139 2.3327,4.41068 -6.5781,-4.5 -5.1427,-5.1426 -13.7654,-13.40008 -19.1621,-18.34961 -5.39675,-4.94954 -10.78024,-10.575 -11.96294,-12.5 -1.1827,-1.925 -2.6169,-4.03065 -3.1875,-4.67969 -0.5705,-0.64905 -2.612108,-3.49804 -4.537108,-6.33203 -1.925,-2.83399 -4.69344,-6.51917 -6.15234,-8.1875 -1.4589,-1.66832 -3.62661,-4.89238 -4.81641,-7.16602 -1.1897,-2.27363 -3.97385,-6.15976 -6.18555,-8.63476 -3.2778,-3.66853 -3.88763,-4.03807 -3.30273,-2 1.3969,4.86745 6.48083,13.942 14.92773,26.64258 14.371798,21.60962 12.650498,19.55855 30.654248,36.50586 13.7214,12.91618 18.2447,16.83143 19.5196,16.89453 0.4706,0.0233 1.8669,1.62784 3.1035,3.5664 l 2.248,3.52539 -2.748,-1.86718 c -9.3301,-6.3354 -25.0134,-10.99544 -37.74805,-11.2168 -2.75,-0.0478 -6.124998,-0.27505 -7.499998,-0.50586 -1.375,-0.23081 -3.85,-0.64708 -5.5,-0.92383 -21.3048,-3.5734 -33.96665,-4.68648 -36.37305,-3.19922 -0.8078,0.4989 -0.83344,1.26112 -0.0898,2.65039 0.8839,1.65169 2.03795,1.92967 7.53125,1.81055 4.6646,-0.10115 6.97652,0.30294 8.23242,1.43945 1.3474,1.21944 3.04312,1.44742 7.41602,0.9961 4.019,-0.4148 7.21101,-0.0797 10.97461,1.15234 3.3599,1.09984 8.11754,1.69695 12.964838,1.62696 9.6256,-0.13905 24.6695,3.22485 26.8418,6.00195 0.275,0.35157 2.75,1.82725 5.5,3.27929 2.75,1.45203 5.675,3.03142 6.5,3.50977 0.825,0.47836 3.1805,1.58809 5.2344,2.4668 3.4426,1.47288 3.6573,1.79892 2.75,4.18554 -1.6889,4.44198 -1.2486,6.45899 1.4082,6.45899 1.717,0 2.5691,-0.70513 3.0195,-2.5 0.6983,-2.78188 2.5879,-3.41666 2.5879,-0.86914 0,1.30371 0.6991,1.51806 3.4824,1.0664 1.9149,-0.31075 3.7491,-0.13275 4.0762,0.39649 0.327,0.52924 2.0918,1.7385 3.9219,2.68555 11.3284,5.86226 14.1434,7.73296 19.4492,12.9375 5.6986,5.58982 16.9881,15.91909 18.7695,17.17187 0.4787,0.33665 1.9047,1.96133 3.168,3.61133 1.2632,1.65 3.8534,4.6875 5.7558,6.75 4.2618,4.62028 7.7435,5.13494 6.7657,1 -0.9441,-3.9918 -4.608,-8.59416 -14.9278,-18.75 -20.6631,-20.33469 -23.0618,-22.37204 -31.1347,-26.45508 -7.5693,-3.82837 -12.2677,-7.43547 -11.1465,-8.55664 0.2748,-0.2748 4.2841,0.20888 8.9101,1.07422 9.3884,1.75618 35.7732,3.65639 40.4121,2.91016 1.6501,-0.26542 5.4028,-0.69291 8.3399,-0.94922 7.613,-0.66434 12.4673,-1.63054 13.9004,-2.76758 1.5838,-1.25656 10.0209,-0.0354 12.6953,1.83789 1.1045,0.77363 3.0345,1.40625 4.2891,1.40625 4.0062,0 18.196,8.8697 24.3964,15.25 6.5779,6.76862 9.4763,3.63711 3.8379,-4.14649 -1.6721,-2.30826 -3.8096,-4.49145 -4.75,-4.85156 -1.754,-0.67168 -7.802,-4.46598 -9.8632,-6.1875 -1.9123,-1.59719 -9.6803,-4.92359 -12.2676,-5.2539 -4.5752,-0.58411 -3.373,-2.66893 2.5293,-4.38477 3.1584,-0.91817 8.1506,-2.91834 11.0937,-4.44531 2.9431,-1.52696 6.3741,-3.03368 7.625,-3.34766 1.251,-0.31398 6.0749,-3.11429 10.7188,-6.22265 4.6439,-3.10836 10.696,-6.65634 13.4492,-7.88477 2.8689,-1.28004 7.1916,-4.53645 10.1269,-7.62891 2.8169,-2.96775 5.8544,-5.97635 6.75,-6.68554 0.8956,-0.70918 1.6289,-1.94668 1.6289,-2.75 0,-1.64214 -3.5454,-2.00538 -4.5,-0.46094 -0.3398,0.55 -1.4014,1 -2.3574,1 -0.9559,0 -3.5152,1.83018 -5.6894,4.0664 -2.1741,2.23623 -8.0031,6.33888 -12.9532,9.11719 -4.9499,2.77831 -9.6776,5.64491 -10.5058,6.36914 -1.4543,1.27159 -13.8091,7.5592 -20.9942,10.68555 -4.6364,2.01736 -14.7924,5.13483 -23.75,7.28906 -3.9875,0.95897 -7.25,2.07561 -7.25,2.48047 1e-4,1.11683 -18.5276,3.33053 -22.4902,2.6875 -1.9109,-0.3101 -3.6631,-0.25519 -3.8945,0.12109 -0.8332,1.35473 -38.6828,-2.54801 -40.2891,-4.15429 -0.1879,-0.18794 1.1082,-2.32663 2.8789,-4.75195 4.1446,-5.67683 14.7949,-21.82455 14.7949,-22.43165 1e-4,-0.25594 4.5457,-8.06794 10.1036,-17.36132 l 10.1054,-16.89844 3.1758,0.87695 c 2.3288,0.64302 4.3696,0.41298 7.6465,-0.86523 6.9862,-2.72505 8.362,-3.76291 7.6055,-5.73438 -0.5336,-1.39057 -1.39,-1.62153 -4.1543,-1.12304 -1.9153,0.34538 -5.0575,0.91085 -6.9825,1.25781 -2.5478,0.45922 -3.5,0.27327 -3.5,-0.68555 0,-3.77417 22.3942,-39.43802 24.1016,-38.38281 0.5702,0.35243 4.2674,-0.93613 8.2168,-2.86524 10.7203,-5.23642 15.5461,-7.22661 22.1816,-9.14453 3.3001,-0.95384 7.0335,-2.14242 8.2969,-2.64257 1.2633,-0.50017 3.2883,-0.91774 4.5,-0.92774 1.2116,-0.01 4.1901,-1.3658 6.6192,-3.01172 4.1245,-2.79468 4.8373,-2.94937 10.7675,-2.3418 5.3046,0.54346 6.6754,0.35669 8.3321,-1.14257 2.13,-1.92763 2.4943,-4.13094 1.0566,-6.40235 -0.768,-1.21324 -1.3696,-1.18908 -4.1797,0.17188 -2.0104,0.97364 -5.0164,1.44767 -7.7539,1.22461 -3.6037,-0.29365 -5.7267,0.30351 -10.9551,3.07812 -3.567,1.89292 -7.2122,3.44141 -8.0996,3.44141 -2.3713,0 -21.8693,7.78912 -31.834,12.7168 -2.3375,1.15593 -4.25,1.9273 -4.25,1.71289 0,-0.21441 1.498,-2.76198 3.3282,-5.66016 1.8302,-2.89818 5.954,-10.21953 9.164,-16.26953 3.2101,-6.05 6.1379,-11.225 6.5078,-11.5 0.9707,-0.72153 18.0497,-29.23377 22.4629,-37.5 2.0554,-3.85 4.2801,-7.675 4.9434,-8.5 0.6634,-0.825 1.748,-2.625 2.4102,-4 0.6622,-1.375 2.1068,-3.85 3.2109,-5.5 1.1041,-1.65 2.5441,-4.22486 3.1992,-5.72266 2.2113,-5.05573 3.5736,-4.1155 4.3965,3.03321 0.4236,3.67979 0.8512,7.02695 0.9492,7.43945 0.098,0.4125 0.2338,1.2 0.3027,1.75 0.2664,2.13015 6.1267,1.01309 8.3809,-1.59766 1.2339,-1.42901 3.4392,-3.45499 4.9004,-4.50195 2.6279,-1.88282 2.6506,-1.88229 2.1328,0.0977 -1.031,3.94266 3.9664,2.18704 12.9414,-4.54883 9.3098,-6.98707 17.252,-14.43556 28.0528,-26.3086 4.8468,-5.32791 7.1551,-7.18596 8.3574,-6.72461 0.9751,0.37418 2.3869,-0.0958 3.4179,-1.13867 0.966,-0.9771 4.7685,-3.57734 8.4512,-5.77734 3.6826,-2.2 8.244,-5.0125 10.1367,-6.25 1.8927,-1.2375 3.7978,-2.25 4.2325,-2.25 0.781,0 5.0211,-4.40967 6.4277,-6.68555 1.0798,-1.74716 -0.9341,-2.54434 -2.4922,-0.98633 -0.7405,0.74058 -5.8388,3.7365 -11.3301,6.65625 -5.4912,2.91974 -11.6718,6.63015 -13.7344,8.2461 -2.0624,1.61596 -3.75,2.47781 -3.75,1.91406 0,-0.56376 0.4133,-1.28179 0.918,-1.59375 2.0362,-1.25843 9.0502,-12.80158 15.5254,-25.55078 3.7711,-7.425 7.2094,-13.73334 7.6426,-14.01953 0.8773,-0.57964 2.914,-5.55203 2.914,-7.11524 0,-0.55245 -0.9874,-0.85934 -2.1933,-0.68359 -1.3993,0.20395 -3.779,2.66978 -6.5781,6.81836 -4.1523,6.15436 -5.5288,8.52383 -12.7403,21.91016 -3.7972,7.04856 -8.1778,13.84126 -10.6093,16.45117 -1.0336,1.1094 -1.879,2.42894 -1.879,2.93359 0,1.29372 -5.527,8.11665 -11,13.58008 -2.5486,2.54426 -5.2779,5.525 -6.0664,6.625 -0.7886,1.1 -3.5718,3.92137 -6.1836,6.26953 -3.5853,3.22352 -5.3025,4.13161 -7.0097,3.70313 -1.4495,-0.36381 -2.9788,0.1018 -4.2637,1.29882 -3.7455,3.4895 -15.2633,9.3826 -16.0019,8.1875 -1.0553,-1.70751 -3.3995,-12.09941 -3.4395,-15.25 -0.044,-3.47249 6.3031,-15.41947 14.3516,-27.01172 3.3616,-4.84182 7.2382,-10.52271 8.6132,-12.625 1.375,-2.10229 3.259,-4.89137 4.1876,-6.19726 0.9286,-1.30588 3.9965,-8.225 6.8164,-15.375 2.82,-7.15 5.7905,-14.125 6.6015,-15.5 0.8109,-1.375 2.6467,-4.80528 4.0801,-7.62305 2.0402,-4.01088 3.7889,-5.80211 8.0508,-8.25 2.9941,-1.71973 6.078,-3.12695 6.8535,-3.12695 1.7293,0 1.8779,-4.12994 0.209,-5.79883 -1.8537,-1.85368 -3.138,-1.46889 -6.8281,2.04883 -3.3626,3.2056 -3.3855,3.21245 -1.6016,0.40039 0.9948,-1.56806 3.1806,-5.39306 4.8574,-8.5 1.6768,-3.10695 4.3784,-7.45039 6.0039,-9.65039 4.3448,-5.880124 17.9535,-25.738914 20.2695,-29.580074 4.618,-7.65894 4.7227,-7.945724 3.4571,-9.470703 -0.811,-0.977198 -1.6904,-1.454774 -2.584,-1.451172 z m -83.8145,18.001953 c 0.2426,0 0.4395,0.45 0.4395,1 0,0.55 -0.4762,1 -1.0586,1 -0.5825,0 -0.7813,-0.45 -0.4414,-1 0.3399,-0.55 0.818,-1 1.0605,-1 z m -82,57.999996 c 0.2426,0 0.4395,0.45 0.4395,1 0,0.55 -0.4762,1 -1.0586,1 -0.5825,0 -0.7813,-0.45 -0.4414,-1 0.3399,-0.55 0.818,-1 1.0605,-1 z m 166.0645,122.91211 c -0.6748,-10e-4 -1.9259,1.31596 -3.6133,4.36523 -1.3815,2.49655 -3.2224,5.36782 -4.0918,6.38086 -0.8694,1.01303 -2.8564,4.0918 -4.416,6.8418 -1.5596,2.75 -5.5739,8.99364 -8.9199,13.875 -3.346,4.88136 -6.6712,9.94386 -7.3887,11.25 -0.7175,1.30614 -1.73,2.375 -2.25,2.375 -0.52,0 -0.9453,0.675 -0.9453,1.5 0,0.825 -0.45,1.5 -1,1.5 -0.55,0 -1,0.675 -1,1.5 0,0.825 -0.3731,1.5 -0.8301,1.5 -0.4571,0 -1.4696,1.2348 -2.25,2.74219 -0.7805,1.50738 -3.2199,5.38489 -5.4199,8.61718 -2.2,3.23229 -4.675,6.88379 -5.5,8.11524 -2.6092,3.89472 -23.359,24.12621 -26.75,26.08203 -1.7875,1.03097 -3.25,2.23823 -3.25,2.68164 0,0.44341 -2.7966,2.61298 -6.2148,4.82227 -3.4182,2.20928 -6.4557,4.35409 -6.75,4.76562 -0.8641,1.20827 -10.2894,7.17383 -11.334,7.17383 -1.4125,0 -14.1445,6.33625 -14.5332,7.23242 -0.1834,0.42263 -0.7319,0.76758 -1.2188,0.76758 -0.7755,0 -7.1658,4.02421 -16.3086,10.26953 -1.573,1.07453 -5.173,3.18563 -8,4.69141 -2.8269,1.50577 -7.916,4.38067 -11.3086,6.38867 -3.3925,2.008 -6.3994,3.65039 -6.6836,3.65039 -0.2841,0 -1.7837,0.52025 -3.332,1.15625 -1.5483,0.63599 -3.8113,1.32409 -5.0293,1.5293 -1.218,0.2052 -5.268,1.67107 -9,3.25585 -3.732,1.58479 -9.5724,3.81665 -12.9785,4.96094 -7.0046,2.35319 -11.619,5.24401 -18.5313,11.61133 -5.0098,4.61479 -5.9586,7.04945 -3.0273,7.77149 1.0001,0.24634 2.8398,-0.68748 4.291,-2.17774 1.3967,-1.43426 4.4342,-3.90489 6.75,-5.49219 2.3158,-1.5873 4.209,-3.18924 4.209,-3.55859 0,-0.56675 7.4725,-4.35479 9,-4.5625 1.7547,-0.2386 12.6914,-3.96623 13.5586,-4.62109 0.5815,-0.43914 3.7105,-1.48939 6.9531,-2.33399 5.1862,-1.35084 26.1561,-10.91207 27.4883,-12.5332 0.275,-0.33465 2.6375,-1.40892 5.25,-2.38867 2.6125,-0.97975 4.75,-2.41971 4.75,-3.19922 0,-0.77951 0.6125,-1.41797 1.3613,-1.41797 0.7488,0 4.7312,-2.22018 8.8496,-4.93555 4.1184,-2.71537 10.1434,-6.14051 13.3887,-7.61133 11.8355,-5.36405 14.9311,-7.00129 17.8867,-9.45312 1.6575,-1.375 4.5887,-3.35805 6.5137,-4.4082 1.925,-1.05014 5.618,-3.86264 8.207,-6.25 2.5889,-2.38735 5.1624,-4.3418 5.7168,-4.3418 1.2872,0 19.7304,-18.46949 26.168,-26.20508 2.6945,-3.23776 6.2403,-8.588 7.8789,-11.89062 2.6262,-5.29308 7.009,-12.15925 10.7637,-16.85938 3.0938,-3.87296 12.498,-19.16981 15.3965,-25.04492 1.7637,-3.575 4.2148,-8.525 5.4472,-11 2.6997,-5.42182 3.1715,-9.08621 2.0469,-9.08789 z m -13.4766,59.27148 c -0.9816,0.0726 -2.3357,0.47587 -4.4922,1.23828 -2.8354,1.00241 -6.9817,2.67601 -9.2148,3.72071 -4.3732,2.04582 -14.4414,10.93607 -14.4414,12.75195 0,0.60869 0.3375,1.10266 0.75,1.09766 1.4423,-0.0176 9.8304,-4.51944 14.5488,-7.8086 2.6175,-1.82459 6.4335,-3.54832 8.4805,-3.83008 7.3556,-1.01245 10.0294,-3.60775 6.6269,-6.43164 -0.6671,-0.55364 -1.2762,-0.81085 -2.2578,-0.73828 z m -71.8476,114.81641 c -3.0582,0 -3.2706,0.18602 -2.3008,1.99805 0.5877,1.09821 2.7833,2.87128 4.8809,3.9414 2.0976,1.07011 4.5685,3.09723 5.4902,4.50391 1.7897,2.73146 3.6289,3.37955 3.6289,1.2793 0,-1.43917 -2.263,-4.88816 -5.8887,-8.97266 -1.7514,-1.97304 -3.3927,-2.75 -5.8105,-2.75 z M 1.5728121,441.54703 c -0.16399,-0.0943 -0.2793,0.70859 -0.2793,2.15234 0,1.925 0.20553,2.7125 0.45703,1.75 0.2516,-0.9625 0.2516,-2.5375 0,-3.5 -0.0629,-0.24063 -0.12307,-0.3709 -0.17773,-0.40234 z m 0.87304,6.15234 c -0.2109,0 -0.38476,0.9 -0.38476,2 0,1.1 0.40775,2 0.90625,2 0.4985,0 0.67236,-0.9 0.38476,-2 -0.2877,-1.1 -0.69545,-2 -0.90625,-2 z m 1.78125,9.70117 c -0.10446,0.0118 -0.16211,0.11614 -0.16211,0.32617 -0.002,0.84013 0.71851,2.55652 1.59961,3.81446 2.4261,3.46378 2.79508,1.85961 0.45508,-1.97852 -0.84562,-1.38712 -1.5792,-2.19755 -1.89258,-2.16211 z m 5.45508,8.01172 c -0.39113,0.007 0.15933,1.09908 1.6581999,3.03711 0.867,1.12096 2.72266,1.75234 2.72266,0.92578 0,-0.17912 -1.19851,-1.41662 -2.66211,-2.75 -0.91054,-0.82934 -1.4840699,-1.21705 -1.7187499,-1.21289 z m 5.3203099,5.28711 c -0.5825,0 -0.7813,0.45 -0.4414,1 0.3399,0.55 0.81804,1 1.06054,1 0.2426,0 0.43946,-0.45 0.43946,-1 0,-0.55 -0.4761,-1 -1.0586,-1 z m 244.724598,62.44336 c 0.1874,-0.008 0.4659,0.0531 0.8262,0.1914 1.4434,0.55388 1.4331,0.79226 -0.1035,2.49024 -1.9901,2.19899 -3.1953,2.55444 -1.4239,0.41992 0.6646,-0.8009 0.9213,-1.92049 0.5704,-2.48828 -0.2403,-0.38866 -0.1815,-0.59969 0.1308,-0.61328 z m -26.166,19.52148 -5,2.57032 c -9.7528,5.01395 -11.9817,5.42052 -6.25,1.14062 1.7875,-1.33474 5.05,-2.71702 7.25,-3.07031 z"
     id="path74"
     inkscape:connector-curvature="0" />
</svg>
