<?xml version="1.0" encoding="UTF-8" standalone="no"?>
<!-- Created with Inkscape (http://www.inkscape.org/) -->

<svg
   xmlns:dc="http://purl.org/dc/elements/1.1/"
   xmlns:cc="http://creativecommons.org/ns#"
   xmlns:rdf="http://www.w3.org/1999/02/22-rdf-syntax-ns#"
   xmlns:svg="http://www.w3.org/2000/svg"
   xmlns="http://www.w3.org/2000/svg"
   xmlns:sodipodi="http://sodipodi.sourceforge.net/DTD/sodipodi-0.dtd"
   xmlns:inkscape="http://www.inkscape.org/namespaces/inkscape"
   version="1.1"
   id="svg815"
   width="3424.4258"
   height="3347.1152"
   viewBox="0 0 3424.4258 3347.1152"
   sodipodi:docname="3.svg"
   inkscape:version="0.92.4 (5da689c313, 2019-01-14)">
  <metadata
     id="metadata821">
    <rdf:RDF>
      <cc:Work
         rdf:about="">
        <dc:format>image/svg+xml</dc:format>
        <dc:type
           rdf:resource="http://purl.org/dc/dcmitype/StillImage" />
        <dc:title />
      </cc:Work>
    </rdf:RDF>
  </metadata>
  <defs
     id="defs819" />
  <sodipodi:namedview
     pagecolor="#ffffff"
     bordercolor="#666666"
     borderopacity="1"
     objecttolerance="10"
     gridtolerance="10"
     guidetolerance="10"
     inkscape:pageopacity="0"
     inkscape:pageshadow="2"
     inkscape:window-width="1420"
     inkscape:window-height="865"
     id="namedview817"
     showgrid="false"
     fit-margin-top="0"
     fit-margin-left="0"
     fit-margin-right="0"
     fit-margin-bottom="0"
     inkscape:zoom="0.16821734"
     inkscape:cx="1728.1276"
     inkscape:cy="1879.8276"
     inkscape:window-x="60"
     inkscape:window-y="124"
     inkscape:window-maximized="0"
     inkscape:current-layer="svg815" />
  <g
     id="g959"
     transform="translate(-280.99565,-507.72884)">
    <path
       inkscape:connector-curvature="0"
       id="path832"
       d="m 2298.7337,3781.2036 c -92.1778,-59.5523 -163.5336,-161.1075 -207.8567,-295.8265 -13.5103,-41.0643 -15.8346,-54.7974 -20.9778,-123.9464 -19.6193,-263.7767 -19.4403,-481.1673 0.5435,-659.9543 10.1972,-91.2305 27.8355,-151.4845 50.6064,-172.8767 19.0397,-17.8868 27.7123,-7.8286 75.4876,87.5481 89.6331,178.9402 153.8631,368.6201 182.6228,539.3099 4.8692,28.8993 13.4192,75.349 18.9999,103.2216 23.8954,119.3455 20.5159,262.8851 -8.8698,376.7337 -12.424,48.134 -56.1405,163.1849 -62.0062,163.1849 -0.8943,0 -13.7416,-7.8274 -28.5497,-17.3943 z m -20.2016,-246.0048 c -26.8676,-164.4951 -48.9449,-314.9709 -69.899,-476.4223 -22.4753,-173.1724 -39.8641,-290.3733 -54.7171,-368.795 -15.6388,-82.5702 -24.9189,-100.4895 -12.5509,-24.2351 10.6974,65.9549 30.5174,203.981 58.852,409.8442 31.4223,228.2962 50.3325,352.9009 71.7677,472.8973 16.09,90.0732 17.6768,97.0448 21.2699,93.4517 1.2821,-1.2821 -5.3431,-49.3154 -14.7226,-106.7408 z m 41.323,-39.5025 c 0.1723,-13.6241 -2.1114,-26.6586 -5.4772,-31.2615 -5.554,-7.5956 -5.8881,-7.5307 -8.822,1.7135 -2.8577,9.0036 -0.5874,35.4603 5.0685,59.0669 2.3006,9.6023 2.7158,9.7552 5.7082,2.1018 1.7749,-4.5396 3.36,-18.769 3.5225,-31.6207 z m -152.5838,-170.618 c -12.8953,-101.1142 -58.6359,-386.2899 -60.8793,-379.5599 -2.2437,6.7312 3.6505,49.9041 35.2621,258.2799 14.7308,97.1016 28.2842,188.8436 30.1186,203.8713 2.497,20.4549 3.6406,23.6247 4.5495,12.6106 0.6678,-8.0918 -3.4051,-50.9327 -9.0509,-95.2019 z m -61.5008,-409.2218 c 0,-2.312 -1.8916,-4.2036 -4.2035,-4.2036 -2.312,0 -4.2036,1.8916 -4.2036,4.2036 0,2.3119 1.8916,4.2035 4.2036,4.2035 2.3119,0 4.2035,-1.8916 4.2035,-4.2035 z"
       style="fill:#ffd42a;fill-opacity:1;stroke:none;stroke-width:4.20353079;stroke-miterlimit:4;stroke-dasharray:none" />
    <path
       inkscape:connector-curvature="0"
       id="path834"
       d="m 2881.3219,3491.1716 c -148.7392,-86.6606 -293.7441,-197.4524 -356.8186,-272.629 -109.3381,-130.3169 -176.2516,-282.2226 -237.9484,-540.1856 -14.3766,-60.1105 -30.5921,-126.252 -36.0344,-146.9811 -7.5213,-28.6473 -8.6757,-38.4644 -4.8117,-40.9201 2.7959,-1.7769 3.1919,-3.3427 0.88,-3.4796 -3.7363,-0.2212 18.2468,-9.4645 36.1108,-15.1835 13.4961,-4.3207 141.9344,102.7288 235.0931,195.9429 63.7964,63.8346 106.6054,112.0489 181.7483,204.6975 106.0296,130.7309 133.4998,196.2241 192.5084,458.9706 21.6032,96.1925 35.1386,151.8414 44.3659,182.405 1.2215,4.0459 0.6747,7.2203 -1.2151,7.0543 -1.8898,-0.166 -26.135,-13.5272 -53.8783,-29.6914 z m -41.5153,-105.8806 c -15.3162,-26.3758 -60.4765,-97.4332 -100.3562,-157.9053 -110.5258,-167.5973 -140.7338,-214.4384 -229.3702,-355.6663 -44.9811,-71.6702 -99.5009,-157.3689 -121.1551,-190.4416 -43.6823,-66.7165 -106.6335,-153.5202 -109.3585,-150.7951 -0.9664,0.9663 59.1307,96.11 133.5491,211.4304 74.4183,115.3203 204.3043,317.4939 288.6357,449.2746 84.3313,131.7807 155.3959,240.9171 157.9213,242.5254 10.5012,6.6874 6.5665,-2.9031 -19.8661,-48.4221 z m -366.4788,-461.7934 c -8.2674,-16.3142 -18.4446,-28.6588 -23.6272,-28.6588 -4.2536,0 6.5512,22.0237 19.1948,39.1254 10.9672,14.8342 13.8292,8.0761 4.4324,-10.4666 z m 95.4213,-64.4461 c -7.0175,-14.9961 -14.7033,-27.2656 -17.0794,-27.2656 -5.1657,0 -1.3391,11.0436 14.8385,42.8235 15.8766,31.1888 17.8159,17.725 2.2409,-15.5579 z"
       style="fill:#ffd42a;fill-opacity:1;stroke:none;stroke-width:4.20353079;stroke-miterlimit:4;stroke-dasharray:none" />
    <path
       inkscape:connector-curvature="0"
       id="path836"
       d="m 2422.1121,2075.5406 c -19.5399,-5.0462 -26.298,-12.1381 -26.298,-27.5973 0,-22.2836 24.7131,-51.4454 71.182,-83.9956 12.5627,-8.7998 34.6722,-26.0362 49.1321,-38.3029 75.0945,-63.7047 199.9113,-133.6327 332.283,-186.1601 48.3387,-19.1817 185.2727,-66.7211 237.0495,-82.2966 152.4842,-45.8703 317.4434,-52.2115 439.3358,-16.8884 41.3987,11.9968 98.4486,34.7336 98.4486,39.2358 0,7.655 -44.1605,73.2438 -68.2502,101.3677 -69.7099,81.3838 -151.1614,132.6831 -313.577,197.4953 -136.5344,54.4842 -228.8982,76.3712 -391.6225,92.8006 -54.9298,5.546 -409.0979,9.1412 -427.6833,4.3415 z m 110.3168,-51.9965 c 164.1455,-64.9156 286.5714,-108.2379 662.0561,-234.2787 26.5873,-8.9247 83.335,-26.7795 126.1059,-39.6772 87.7336,-26.4565 186.219,-62.4379 176.2561,-64.3947 -9.3901,-1.8442 -142.8126,39.8008 -338.092,105.5283 -92.4777,31.1264 -214.4852,71.7659 -271.1278,90.3102 -165.1338,54.0633 -445.5742,163.9489 -445.5742,174.5905 0,1.9872 2.3644,2.6893 5.2544,1.5602 2.8899,-1.1292 41.1946,-16.2665 85.1215,-33.6386 z m 279.5348,-7.5807 c 26.5873,-9.3936 101.3051,-32.9397 166.0394,-52.3246 155.9414,-46.6972 227.6122,-71.8868 276.5708,-97.2042 22.2684,-11.5154 8.6389,-10.363 -22.7755,1.9258 -52.6968,20.6141 -114.4118,41.1513 -243.1301,80.9074 -120.7536,37.2961 -205.9174,66.4942 -227.147,77.8763 -20.1706,10.8145 2.2614,5.8423 50.4424,-11.1807 z m -94.8512,-118.8387 c 46.3883,-16.9961 101.9008,-37.1118 123.3611,-44.7016 21.4603,-7.5898 38.234,-14.5842 37.275,-15.5432 -8.758,-8.758 -210.2898,61.504 -243.8653,85.0212 -14.8663,10.4128 -3.9217,7.1547 83.2292,-24.7764 z"
       style="fill:#ffd42a;fill-opacity:1;stroke:none;stroke-width:4.20353079;stroke-miterlimit:4;stroke-dasharray:none" />
    <path
       inkscape:connector-curvature="0"
       id="path838"
       d="m 2304.9206,1872.33 c -19.9433,-22.7575 -20.4657,-19.7827 11.6952,-66.6052 77.412,-112.703 149.5147,-199.0677 210.9942,-252.7293 29.1038,-25.4029 153.3557,-118.8267 240.2166,-180.6165 79.1215,-56.2844 177.6879,-102.2811 367.8089,-171.6407 77.406,-28.2391 172.9754,-59.5424 175.1486,-57.3691 3.2463,3.2462 -48.1442,97.4245 -75.5603,138.4721 -91.6658,137.2426 -229.5753,263.5123 -450.5831,412.5532 -117.7294,79.3931 -241.5141,134.5444 -383.6883,170.9493 -74.7681,19.145 -84.7407,19.8705 -96.0318,6.9862 z m 98.5285,-62.7291 c 46.3167,-34.3079 127.8658,-99.3761 183.6257,-146.5152 61.6738,-52.1388 159.6241,-127.1444 302.6542,-231.7581 169.004,-123.6114 212.3611,-156.1665 210.4835,-158.0441 -6.91,-6.9101 -377.7329,263.1537 -469.0007,341.5649 -21.9634,18.8696 -73.9821,60.4416 -115.597,92.3823 -103.1408,79.1634 -165.9135,132.5219 -155.9033,132.5219 1.6676,0 21.3496,-13.5682 43.7376,-30.1517 z m 351.2902,-189.9007 c 143.5241,-107.7324 264.6048,-205.5834 213.8059,-172.7868 -50.5249,32.6197 -316.3157,237.7396 -316.3157,244.1116 0,4.8629 13.8291,-4.7592 102.5098,-71.3248 z m -194.9576,-1.4328 c 17.3231,-13.1556 59.8737,-47.6771 94.5569,-76.7145 34.6832,-29.0373 68.5476,-57.0777 75.2544,-62.3119 20.727,-16.1763 9.315,-14.6033 -15.2843,2.1067 -47.5613,32.3078 -199.1075,160.2765 -190.257,160.657 2.3283,0.1 18.4068,-10.5817 35.73,-23.7373 z"
       style="fill:#ffd42a;fill-opacity:1;stroke:none;stroke-width:4.20353079;stroke-miterlimit:4;stroke-dasharray:none" />
    <path
       inkscape:connector-curvature="0"
       id="path900"
       d="m 579.7225,2819.1647 c -18.07044,-4.4424 -24.61408,-7.8719 -33.83954,-17.7355 -10.74079,-11.4838 -7.67235,-29.5225 9.33036,-54.8513 7.33066,-10.9204 17.06985,-26.5431 21.64264,-34.717 40.75536,-72.851 110.07313,-153.2465 182.3103,-211.4456 130.53715,-105.1694 283.17304,-171.3664 461.37374,-200.094 57.7909,-9.3165 88.2565,-12.1529 161.7157,-15.0563 37.6001,-1.4861 83.077,-4.1756 101.0597,-5.9766 36.6494,-3.6706 79.4795,-1.8723 117.8382,4.9476 l 25.6955,4.5684 15.9783,32.0376 15.9782,32.0376 -28.2982,22.5332 c -15.564,12.3932 -39.6674,33.101 -53.5631,46.0174 -25.9882,24.1566 -107.3755,84.0309 -187.7395,138.1147 -187.9426,126.4825 -345.7286,201.2158 -497.38606,235.5805 -32.11872,7.2779 -40.84439,8.0376 -87.68418,7.6346 -71.42539,-0.6146 -169.42368,6.3202 -169.42368,11.9892 0,1.4465 8.35973,2.7633 18.57716,2.9262 13.8061,0.2203 16.66873,0.9075 11.1463,2.6761 -11.50458,3.6844 -68.12361,2.8912 -84.71184,-1.1868 z m 19.32024,-3.0963 c 0,-0.7209 -1.33755,-2.1374 -2.97234,-3.1478 -1.63479,-1.0104 -2.97235,-0.4205 -2.97235,1.3107 0,1.7313 1.33756,3.1478 2.97235,3.1478 1.63479,0 2.97234,-0.5898 2.97234,-1.3107 z m 298.72069,-147.1815 c 293.57637,-145.6109 630.98417,-312.2213 632.28887,-312.2213 3.5131,0 100.8505,-48.092 99.6887,-49.2538 -1.7944,-1.7944 -80.4511,30.4881 -131.4695,53.9581 -22.9389,10.5526 -83.8402,40.6063 -135.3361,66.7861 -170.2046,86.5294 -366.16729,183.072 -428.01766,210.8663 -109.19712,49.071 -191.60264,93.6239 -219.95354,118.9187 -8.83116,7.8792 -5.68707,6.753 20.80642,-7.4526 17.16529,-9.2039 90.06206,-45.9246 161.99281,-81.6015 z m 342.41017,-90.791 c 17.1215,-5.0845 25.3653,-12.147 17.6392,-15.1118 -5.2286,-2.0064 -29.0698,8.4848 -34.701,15.2699 -4.5103,5.4346 -1.6825,5.4084 17.0618,-0.1581 z"
       style="fill:#ffd42a;fill-opacity:1;stroke:none;stroke-width:2.97234511;stroke-miterlimit:4;stroke-dasharray:none" />
    <path
       inkscape:connector-curvature="0"
       id="path902"
       d="m 978.01559,3389.8947 c -17.26492,-7.5244 -17.35737,-8.6874 -4.48059,-56.3599 42.7481,-158.2626 99.3129,-290.2349 170.9078,-398.7481 30.9156,-46.8573 38.6533,-56.7993 99.4471,-127.7764 121.1826,-141.4813 242.9138,-240.697 385.7435,-314.3962 24.892,-12.8441 58.9997,-29.0251 75.7948,-35.9577 l 30.5365,-12.6047 17.8341,14.4737 c 9.8088,7.9605 24.6312,18.5716 32.9389,23.5801 l 15.1048,9.1064 -8.1888,15.2094 c -4.5038,8.3652 -13.7564,29.2538 -20.5614,46.4191 -17.9836,45.3631 -35.2148,76.9416 -50.1583,91.922 -25.6924,25.7558 -65.9833,85.7846 -152.7666,227.6051 -77.601,126.8147 -111.2253,176.8177 -157.4033,234.0755 -50.0559,62.0663 -102.9967,111.4234 -161.2512,150.3359 -16.3257,10.9052 -31.7076,21.7466 -34.182,24.0921 -12.2269,11.59 -55.6365,41.6535 -86.6094,59.9817 -43.3933,25.6781 -75.0726,40.2336 -103.3934,47.5058 -25.5955,6.5724 -36.94544,6.926 -49.31251,1.5362 z m 67.29761,-87.2802 c 4.1116,-4.4957 13.9844,-17.5369 21.9396,-28.9804 61.4623,-88.4131 156.8602,-204.5595 288.081,-350.7367 148.2134,-165.1067 198.4506,-221.9528 201.7271,-228.2651 1.9445,-3.7462 30.4442,-36.1788 63.3327,-72.0723 103.4633,-112.917 134.3241,-148.5586 131.2732,-151.6095 -3.722,-3.7221 -39.0259,30.6615 -71.7991,69.9275 -50.62,60.6485 -121.889,141.7699 -233.8935,266.2277 -174.6657,194.0861 -244.197,274.9849 -316.7898,368.5814 -34.7406,44.7922 -99.1516,131.9276 -99.1516,134.1326 0,3.8353 9.1132,-0.4619 15.2804,-7.2052 z m 388.265,-363.1011 c 16.448,-13.0015 27.4446,-25.7747 27.4446,-31.8786 0,-7.2084 -5.0988,-4.3767 -20.7918,11.5471 -30.0917,30.5342 -33.766,41.7632 -6.6528,20.3315 z m 163.0167,-370.6941 c 9.5772,-9.0586 13.1769,-14.2392 10.5585,-15.1953 -4.0619,-1.4831 -22.4821,14.3682 -27.5853,23.7383 -4.9889,9.16 2.0379,5.6344 17.0268,-8.543 z"
       style="fill:#ffd42a;fill-opacity:1;stroke:none;stroke-width:2.97234511;stroke-miterlimit:4;stroke-dasharray:none" />
    <path
       inkscape:connector-curvature="0"
       id="path912"
       d="m 2396.6289,1982.451 c -4.4624,-2.5973 -9.7067,-8.5687 -11.654,-13.2699 -1.9472,-4.7012 -10.6686,-19.9013 -19.3807,-33.7781 -21.3227,-33.9631 -21.0681,-37.46 3.0509,-41.9041 10.3901,-1.9145 37.8343,-8.8345 60.9871,-15.3779 161.5012,-45.6428 319.0705,-128.8155 498.2429,-262.9968 75.7702,-56.7439 95.2249,-73.0308 113.0972,-94.6814 58.2426,-70.5552 150.1109,-115.9672 271.4791,-134.1964 15.8428,-2.3796 50.825,-5.8625 77.7384,-7.74 42.9101,-2.9933 50.3074,-2.8393 60.0962,1.2507 30.1136,12.5822 16.782,48.8187 -41.7357,113.4423 -23.5243,25.9789 -70.2143,67.7413 -94.9048,84.8886 -19.8302,13.7719 -24.5196,15.5625 -62.4193,23.8339 -143.1874,31.2498 -264.2641,67.017 -362.7614,107.1632 -24.0984,9.8222 -61.2035,23.8285 -82.4558,31.125 -45.1629,15.5058 -120.284,52.0613 -165.7233,80.6446 -41.2455,25.9452 -92.6931,61.9856 -168.6655,118.1547 -33.5132,24.7775 -62.2707,45.7506 -63.9055,46.607 -1.6347,0.8563 -6.6234,-0.5681 -11.0858,-3.1654 z m 648.0406,-385.5893 c 43.649,-16.2988 92.3397,-40.2346 175.9816,-86.5104 41.6872,-23.0638 79.4731,-43.5951 83.9688,-45.625 14.8777,-6.7177 8.473,-8.4728 -7.4309,-2.0364 -23.1744,9.3789 -288.2099,144.6927 -283.7291,144.8578 1.2974,0.048 15.3418,-4.7609 31.2096,-10.686 z"
       style="fill:#ffd42a;fill-opacity:1;stroke:none;stroke-width:2.97234511;stroke-miterlimit:4;stroke-dasharray:none" />
    <path
       inkscape:connector-curvature="0"
       id="path914"
       d="m 3150.801,2387.3414 c -21.2561,-4.7574 -50.2144,-16.3245 -87.7802,-35.063 -58.0313,-28.947 -91.5245,-41.9872 -121.7818,-47.4144 -13.8893,-2.4913 -46.6541,-9.1946 -72.8108,-14.8963 -26.1566,-5.7017 -96.885,-18.446 -157.1742,-28.3208 -128.0317,-20.9702 -174.231,-30.9818 -234.9738,-50.9197 -24.4109,-8.0125 -46.2854,-14.5682 -48.6099,-14.5682 -3.4692,0 -3.8781,-4.3934 -2.2824,-24.5219 l 1.944,-24.5218 18.4287,-17.4795 c 35.2454,-33.4301 22.3055,-30.7137 156.6427,-32.8832 285.3924,-4.609 420.8271,-21.7427 558.7711,-70.6893 l 52.0459,-18.4674 34.1819,0.3375 c 82.4771,0.8144 177.4036,28.4601 287.9438,83.8587 40.9572,20.5262 116.9761,62.6534 132.1239,73.2188 5.0221,3.5028 4.1144,5.2311 -12.2061,23.2402 -93.2033,102.8461 -229.059,168.0165 -404.0338,193.8162 -44.9999,6.6352 -84.9691,8.7341 -100.429,5.2741 z m -16.8482,-130.2543 c -5.9388,-5.9387 -131.0319,-17.4174 -241.7458,-22.1828 -39.235,-1.6888 -80.6992,-3.6781 -92.1427,-4.4207 -14.6395,-0.95 -18.1635,-0.5915 -11.8894,1.2095 22.9957,6.601 351.0795,30.6956 345.7779,25.394 z m -368.0705,-28.3579 c -11.0402,-2.6418 -84.8639,-6.6124 -77.2809,-4.1565 5.8303,1.8882 57.1675,6.4075 74.3086,6.5414 l 13.3755,0.1045 z m 808.1064,-19.5662 c 10.8975,-2.1795 12.047,-5.739 2.6008,-8.0534 -11.7584,-2.8808 -138.2608,-10.4832 -204.3488,-12.2807 -35.148,-0.9559 -150.8465,-5.6667 -257.1078,-10.4684 -383.0362,-17.3085 -540.0973,-20.8908 -607.3761,-13.8534 -23.4468,2.4525 -43.3986,5.2273 -44.3375,6.1662 -2.181,2.1809 77.7699,1.6695 130.067,-0.8322 22.0697,-1.0556 76.9094,-0.3231 121.8662,1.6278 44.9567,1.951 161.324,6.3153 258.594,9.6986 293.1681,10.1971 563.8785,23.7256 588.8959,29.4297 1.0217,0.2329 6.0375,-0.4125 11.1463,-1.4342 z m -353.3533,-75.2543 c -9.4362,-5.5311 -53.318,-9.086 -112.1577,-9.086 -33.6674,0 -60.2154,1.0032 -58.9956,2.2293 1.2198,1.2261 32.5409,3.6882 69.6025,5.4714 90.5234,4.3555 107.0016,4.5803 101.5508,1.3853 z"
       style="fill:#ffd42a;fill-opacity:1;stroke:none;stroke-width:2.97234511;stroke-miterlimit:4;stroke-dasharray:none" />
    <path
       inkscape:connector-curvature="0"
       id="path916"
       d="m 3271.181,2768.5374 c -176.9031,-22.9165 -338.6238,-92.6422 -564.7456,-243.4894 -72.3558,-48.269 -210.5075,-143.7002 -225.8982,-156.0439 -7.3566,-5.9002 -27.0079,-22.3707 -43.6696,-36.6011 -16.6617,-14.2304 -32.9035,-27.27 -36.0929,-28.9769 -5.746,-3.0751 -5.7462,-3.2463 -0.026,-18.774 5.2923,-14.3666 6.5644,-15.6851 15.2865,-15.8438 5.2326,-0.095 26.2333,-1.9468 46.6681,-4.1145 25.2237,-2.6758 54.8117,-3.3485 92.1427,-2.0949 79.1614,2.6583 141.3025,11.5105 255.3628,36.3773 33.6556,7.3373 85.9368,18.6531 116.1804,25.146 58.2712,12.5102 78.5505,19.6696 153.0757,54.0417 119.899,55.2991 267.0886,144.0831 398.2943,240.2489 54.591,40.0119 112.5454,85.221 113.8157,88.7855 2.1666,6.079 -71.0008,36.4505 -114.6778,47.6022 -58.6807,14.9825 -149.3583,21.0376 -205.7159,13.7369 z m 202.1195,-60.7954 c 0,-6.5322 -219.5767,-96.2952 -532.0498,-217.5022 -100.5396,-38.9989 -225.7003,-88.2323 -278.1349,-109.4076 -118.8152,-47.9826 -199.7214,-78.4045 -204.3229,-76.8285 -10.3141,3.5326 116.8065,55.3098 479.4854,195.2982 198.6185,76.6637 363.0846,142.1901 457.7412,182.3728 64.5564,27.4048 77.281,31.6969 77.281,26.0673 z m -80.2534,-88.0025 c 0,-4.4633 -151.4775,-74.1601 -180.5699,-83.0826 -23.1134,-7.0889 14.4239,13.2092 79.5102,42.9945 77.2603,35.3565 101.0597,44.7972 101.0597,40.0881 z m -349.4025,-25.5323 c -4.5521,-7.3653 -79.0804,-31.206 -89.6902,-28.6907 -6.3828,1.5131 -1.0831,3.9665 43.7708,20.2629 31.0943,11.2972 49.8164,14.7334 45.9194,8.4278 z m -308.216,-211.5336 c -0.6741,-2.0434 -9.1453,-5.9491 -18.8249,-8.6791 -34.0272,-9.5972 -41.5299,-4.9689 -10.0516,6.2008 19.1914,6.8098 30.6292,7.7915 28.8765,2.4783 z"
       style="fill:#ffd42a;fill-opacity:1;stroke:none;stroke-width:2.97234511;stroke-miterlimit:4;stroke-dasharray:none" />
    <path
       inkscape:connector-curvature="0"
       id="path918"
       d="m 3250.3746,3201.9293 c -96.0603,-14.4368 -202.7104,-59.0321 -313.5824,-131.1231 -108.5852,-70.604 -132.3885,-93.4658 -246.1903,-236.4521 -96.7427,-121.5523 -150.7799,-180.1618 -221.9541,-240.7346 -99.4056,-84.5991 -126.457,-124.1594 -116.2101,-169.9472 3.3866,-15.1332 3.1896,-16.8141 -2.9432,-25.1092 -6.2604,-8.4676 -6.3366,-9.251 -1.602,-16.4768 2.734,-4.1727 7.3477,-7.5866 10.2526,-7.5866 2.9049,0 6.7583,-1.4766 8.5631,-3.2814 2.3936,-2.3936 11.1782,-1.4824 32.4694,3.3679 86.1143,19.6176 106.4822,30.8766 325.0919,179.7058 103.2196,70.2718 171.9161,110.294 234.5774,136.6636 51.134,21.5186 129.7673,89.1969 188.4347,162.1823 25.9432,32.2748 67.3275,93.5163 90.9381,134.5722 21.2058,36.8743 72.4709,140.0694 92.9441,187.0935 l 13.9114,31.9527 -33.2317,-0.2916 c -18.2774,-0.1604 -45.9384,-2.2014 -61.4689,-4.5354 z m -34.182,-92.2693 c -97.2875,-94.4719 -208.9086,-192.1109 -396.2909,-346.6501 -59.8795,-49.3842 -149.7852,-123.8972 -199.7905,-165.5843 -50.0053,-41.6872 -110.2258,-90.6597 -133.8235,-108.8279 -49.5637,-38.1599 -104.1462,-76.14 -106.3115,-73.9747 -0.8192,0.8192 -0.9322,1.9362 -0.251,2.4822 112.3636,90.0626 358.1949,288.519 406.9635,328.5364 166.9986,137.0318 334.2519,283.3112 429.207,375.3834 19.7467,19.1472 35.3794,31.9788 38.9374,31.9604 4.1946,-0.021 -7.1812,-12.7766 -38.6405,-43.3254 z m -400.2758,-259.346 c -1.8813,-5.1897 -180.518,-157.8715 -238.7784,-204.0852 -42.2179,-33.4884 -93.6354,-70.5938 -95.3906,-68.8387 -2.4018,2.4019 56.2474,51.8 150.379,126.659 86.3706,68.6869 155.0792,126.0426 169.1987,141.2414 6.8796,7.4055 16.6776,10.7787 14.5913,5.0235 z m 129.2174,-63.4014 c -8.4112,-15.1319 -44.0035,-49.7868 -51.1335,-49.7868 -7.1128,0 -7.4809,1.0674 -3.1552,9.1499 2.9,5.4188 54.7557,50.297 58.1169,50.297 0.8478,0 -0.8749,-4.3471 -3.8282,-9.6601 z"
       style="fill:#ffd42a;fill-opacity:1;stroke:none;stroke-width:2.97234511;stroke-miterlimit:4;stroke-dasharray:none" />
    <path
       inkscape:connector-curvature="0"
       id="path920"
       d="m 1688.4072,3807.9924 c -29.463,-7.5158 -54.1854,-57.4042 -71.1095,-143.4949 -18.973,-96.5133 -26.3499,-192.8036 -19.4696,-254.1355 13.5808,-121.0612 47.0799,-227.028 138.1274,-436.9348 38.1435,-87.9385 77.1692,-182.2147 116.2729,-280.8866 26.6905,-67.3489 55.8265,-129.6084 67.1883,-143.5719 l 6.7781,-8.3302 27.0225,3.601 27.0226,3.6011 5.0418,58.2314 c 8.116,93.7356 10.6767,153.4434 10.7196,249.9476 0.057,128.2019 -6.2621,232.4467 -22.0713,364.1123 -3.9258,32.6958 -7.9378,71.4849 -8.9155,86.198 -7.5691,113.9 -55.319,243.7994 -131.1129,356.6814 -35.7022,53.1722 -100.8364,132.1851 -115.4842,140.0913 -8.2222,4.438 -22.5986,6.7804 -30.0102,4.8898 z m 60.914,-209.5172 c 4.8006,-18.4532 14.1893,-62.9775 20.8638,-98.9429 15.6173,-84.1534 20.0173,-104.6423 40.169,-187.0508 21.3698,-87.3895 36.8242,-165.8653 69.9905,-355.4022 14.7323,-84.1916 33.3098,-185.8458 41.2833,-225.8982 17.9603,-90.2185 25.5648,-148.8616 18.289,-141.0378 -4.4088,4.7408 -26.3179,114.6435 -37.5966,188.5953 -19.7594,129.5586 -45.1618,261.325 -105.4355,546.9115 -29.7914,141.1567 -62.437,304.2353 -62.3157,311.2936 0.1816,10.5723 5.8176,-4.1245 14.7522,-38.4685 z m 120.2108,-313.1441 c 2.3004,-11.3377 7.5997,-37.3335 11.7761,-57.7684 8.5075,-41.6268 9.5958,-53.5821 4.405,-48.3914 -6.1462,6.1462 -26.396,101.134 -26.396,123.8183 0,14.7866 5.5937,5.1166 10.2149,-17.6585 z m -33.9438,-435.7457 c 8.8011,-55.815 9.3335,-61.2907 6.151,-63.2576 -5.9623,-3.6849 -18.0903,56.5325 -18.0903,89.8216 0,23.7371 6.1735,10.0015 11.9393,-26.564 z"
       style="fill:#ffd42a;fill-opacity:1;stroke:none;stroke-width:2.97234511;stroke-miterlimit:4;stroke-dasharray:none" />
    <path
       inkscape:connector-curvature="0"
       id="path924"
       d="m 2249.7313,1814.372 -27.2901,-18.2907 84.115,-86.198 c 181.1417,-185.6272 298.6309,-372.6499 357.1511,-568.5233 8.6592,-28.9832 18.0372,-58.4755 20.84,-65.5383 9.4751,-23.8768 169.8233,-131.32518 277.9012,-186.2198 l 57.8666,-29.39144 4.7787,16.13898 c 14.0309,47.38576 -12.1614,164.73256 -56.6775,253.92656 -29.5937,59.295 -81.1906,145.6449 -87.0276,145.6449 -10.9377,0 -142.7531,91.2663 -246.3983,170.6011 -162.6838,124.5257 -257.1652,222.6419 -333.2893,346.1115 l -24.6796,40.0291 z m 413.0685,-480.4903 c 11.3103,-13.8957 37.9252,-47.0693 59.1442,-73.7191 21.219,-26.6498 67.6595,-81.4896 103.2012,-121.8662 62.6641,-71.1886 106.9705,-126.7053 129.1189,-161.78841 19.1654,-30.358 0.1653,-13.81686 -36.644,31.90191 -19.7432,24.5218 -68.573,82.0367 -108.5107,127.8108 -64.9531,74.4452 -112.7243,133.2602 -162.9604,200.6333 -22.9153,30.7323 -8.7205,28.1984 16.6508,-2.9723 z"
       style="fill:#ffd42a;fill-opacity:1;stroke:none;stroke-width:5.94469023;stroke-miterlimit:4;stroke-dasharray:none" />
    <path
       inkscape:connector-curvature="0"
       id="path928"
       d="m 672.38693,3155.406 c 4.34312,-31.9405 33.24418,-97.1053 65.27276,-147.174 12.17375,-19.0306 31.55708,-52.867 43.07406,-75.1918 37.76229,-73.1994 86.29297,-105.9727 227.30365,-153.5006 82.8527,-27.9256 140.4285,-55.2879 255.6561,-121.498 142.3757,-81.8093 326.9138,-211.9819 342.0735,-241.2974 9.8741,-19.0945 27.3475,-31.8376 51.2363,-37.3659 13.486,-3.1209 18.7783,0.02 35.4021,21.009 l 19.5457,24.6785 -22.5171,19.4645 c -12.3845,10.7055 -48.3787,30.7364 -79.9873,44.513 -101.7808,44.3614 -136.2574,64.0738 -170.4506,97.457 -18.4299,17.9934 -60.8977,58.1132 -94.3728,89.1552 -113.3749,105.1341 -204.0247,216.2085 -257.3288,315.3086 -27.9271,51.9204 -30.0074,54.1518 -70.3654,75.4749 -81.28344,42.9463 -194.33594,82.494 -307.89815,107.7083 l -40.41245,8.9729 z m 175.14387,-90.1768 c 123.23153,-98.2836 370.8374,-314.74 365.7979,-319.7795 -3.1452,-3.1452 -51.6181,36.9278 -232.04528,191.8338 -68.66277,58.9505 -144.23465,123.0982 -167.9375,142.5504 -23.70285,19.4522 -43.0961,37.8367 -43.0961,40.8545 0,6.4512 -3.43897,8.9192 77.28098,-55.4592 z"
       style="fill:#ffd42a;fill-opacity:1;stroke:none;stroke-width:5.94469023;stroke-miterlimit:4;stroke-dasharray:none" />
    <path
       inkscape:connector-curvature="0"
       id="path910"
       d="m 1762.7537,1771.7428 c -54.0211,-153.1926 -106.4145,-270.7736 -156.3744,-350.9344 -42.001,-67.3907 -99.8968,-136.8718 -137.8535,-165.4388 -54.41,-40.9502 -88.1071,-97.1784 -111.5553,-186.1451 -18.0232,-68.3834 -42.387,-234.91069 -45.2743,-309.45128 l -0.8923,-23.03568 h 49.8538 49.8537 l 38.4022,78.02406 c 82.3066,167.22741 123.3446,265.2498 264.7459,632.3664 105.4236,273.7085 113.6809,294.215 118.4814,294.2406 2.6318,0.015 3.3315,-1.786 2.0135,-5.18 -1.1109,-2.8609 -18.5009,-49.3409 -38.6444,-103.289 -82.009,-219.6352 -174.1383,-453.1832 -241.3362,-611.788 -18.821,-44.42263 -35.2845,-84.11231 -36.5854,-88.19928 -3.1551,-9.912 -41.6077,-91.74388 -69.6641,-148.25413 -12.4133,-25.0023 -22.5696,-46.01265 -22.5696,-46.68968 0,-0.67703 26.5713,-1.23097 59.0472,-1.23097 h 59.0473 l 32.4499,33.49704 c 63.9161,65.97861 114.1892,136.2158 152.3222,212.81144 l 14.2551,28.63348 3.4111,59.9139 c 10.3288,181.419 50.6872,368.5195 138.2706,641.0196 9.6844,30.1314 12.0239,40.6212 8.7819,39.3772 -10.6586,-4.0901 -27.3468,-5.0418 -33.2268,-1.895 -4.5052,2.4111 -6.3408,6.2315 -6.3408,13.1968 0,13.4132 -2.6579,14.9737 -10.7083,6.2871 -11.7656,-12.6952 -32.8124,-7.8126 -58.0479,13.4663 l -13.7795,11.6191 z m -6.0664,-441.2793 c -2.4072,-14.531 -6.2765,-23.0357 -10.4806,-23.0357 -3.2569,0 -1.1886,11.0599 4.8637,26.008 5.4487,13.4574 8.1056,12.0514 5.6169,-2.9723 z m -218.3835,-164.377 c 0,-3.9792 -4.5266,-18.9478 -10.059,-33.2635 -5.5325,-14.3156 -15.761,-41.4104 -22.7301,-60.2105 -6.9691,-18.8 -14.5506,-37.5258 -16.8477,-41.6128 -12.6054,-22.4265 9.2927,52.5187 36.2502,124.065 7.9221,21.0255 13.3866,25.5247 13.3866,11.0218 z"
       style="fill:#ffd42a;fill-opacity:1;stroke:none;stroke-width:2.97234511;stroke-miterlimit:4;stroke-dasharray:none" />
    <path
       inkscape:connector-curvature="0"
       id="path908"
       d="m 1925.705,1743.8869 c -5.1738,-1.7663 -10.0693,-5.3913 -10.8788,-8.0557 -0.8095,-2.6643 -10.1862,-28.9401 -20.8372,-58.3907 -49.9439,-138.0977 -82.4906,-264.0092 -110.2421,-426.4873 -14.5365,-85.1077 -16.8853,-109.4075 -16.8079,-173.8821 0.1352,-112.52138 21.5826,-222.07657 64.1534,-327.70109 l 5.0914,-12.63247 h 56.4131 56.413 l -1.8072,11.1463 c -0.994,6.13046 -3.1474,185.02848 -4.7854,397.55116 -1.6379,212.5227 -4.2291,420.5125 -5.7581,462.1997 -3.1591,86.1292 -3.643,120.494 -1.6689,118.5199 0.7506,-0.7505 3.4949,-16.6897 6.0985,-35.4204 6.4297,-46.256 10.385,-278.2495 11.2112,-657.5782 l 0.6459,-296.56439 42.9196,0.81605 42.9195,0.81606 6.8849,17.13618 c 22.2081,55.27515 46.5433,158.75499 56.434,239.97167 7.2926,59.88293 7.2218,197.39483 -0.1338,260.08023 -12.5304,106.7852 -36.4642,213.2278 -70.1712,312.0774 -5.3772,15.7692 -7.8734,27.1464 -6.0868,27.7419 5.0423,1.6808 3.4115,9.7284 -7.332,36.1823 -5.6434,13.8957 -12.3087,34.9622 -14.8118,46.8145 -15.2676,72.2936 -13.2285,66.1326 -21.8955,66.1558 -4.3562,0.012 -16.6145,0.6271 -27.2407,1.3679 -10.6261,0.7407 -23.5533,-0.098 -28.7271,-1.8647 z m -21.8845,-218.9102 c -0.045,-14.208 -2.022,-55.2589 -4.3936,-91.2242 -2.3715,-35.9654 -4.3411,-68.4011 -4.3768,-72.0794 -0.036,-3.6783 -1.4024,-6.6878 -3.0372,-6.6878 -5.5342,0 -2.3007,125.09 4.7436,183.5087 2.8625,23.739 7.1559,15.5234 7.064,-13.5173 z m 103.4282,-251.8856 c 0.6223,-52.8773 0.01,-67.2333 -2.7632,-64.4632 -2.4682,2.4682 -3.9781,23.8009 -4.9117,69.3955 -1.1293,55.1507 -0.681,65.6097 2.7632,64.4632 3.3085,-1.1014 4.2674,-14.6495 4.9117,-69.3955 z"
       style="fill:#ffd42a;fill-opacity:1;stroke:none;stroke-width:2.97234511;stroke-miterlimit:4;stroke-dasharray:none" />
    <path
       inkscape:connector-curvature="0"
       id="path904"
       d="m 1582.889,1946.1347 c -30.2436,-7.8931 -78.5327,-19.6203 -107.309,-26.0605 -158.5731,-35.4889 -286.8349,-89.077 -379.0919,-158.3857 -27.1582,-20.4028 -190.5825,-151.2861 -225.47578,-180.5792 -69.7765,-58.5776 -141.23413,-131.4494 -158.21676,-161.3478 -9.62563,-16.9462 -32.24677,-44.3471 -70.65381,-85.5826 -54.45443,-58.4647 -72.82246,-83.4511 -72.82246,-99.062 0,-15.0973 16.92579,-19.4499 54.09306,-13.9104 14.5791,2.1729 50.21188,3.4873 87.09333,3.2126 88.25936,-0.6574 140.46274,8.2204 190.36278,32.3734 40.58978,19.6466 58.60697,36.2615 79.83528,73.6215 93.25046,164.1131 241.04836,288.2812 492.20846,413.5145 31.8784,15.8953 75.9288,36.8121 97.8898,46.4819 47.0725,20.7269 77.2308,39.6338 94.4833,59.2337 16.2341,18.4429 28.4699,39.4565 25.6903,44.1204 -6.0222,10.1049 -20.3231,25.9664 -23.4116,25.9664 -5.9656,0 -13.864,11.059 -13.0969,18.3378 1.0095,9.5797 -6.15,23.365 -11.8653,22.846 -2.5984,-0.236 -29.4692,-6.8869 -59.7128,-14.78 z m 48.6719,-39.6762 c -0.9192,-2.3955 -35.3193,-21.6077 -76.4446,-42.6938 -223.2717,-114.4777 -543.75,-303.5703 -684.10398,-403.6436 -97.52612,-69.5368 -177.21422,-120.6286 -181.48452,-116.3583 -1.93183,1.9318 115.73847,85.6804 191.88773,136.5707 186.44907,124.6034 409.13587,256.1046 636.08187,375.6195 36.7828,19.3707 74.9031,39.6234 84.7118,45.0061 19.1603,10.5145 32.2148,12.9604 29.3517,5.4994 z m -360.7682,-138.3172 c 0,-1.6348 -2.0852,-2.9724 -4.6339,-2.9724 -2.5487,0 -3.8073,1.3376 -2.7969,2.9724 1.0103,1.6348 3.0956,2.9723 4.6339,2.9723 1.5383,0 2.7969,-1.3375 2.7969,-2.9723 z"
       style="fill:#ffd42a;fill-opacity:1;stroke:none;stroke-width:2.97234511;stroke-miterlimit:4;stroke-dasharray:none" />
    <path
       inkscape:connector-curvature="0"
       id="path906"
       d="m 1706.2413,1839.0665 c -30.3294,-25.3248 -58.1659,-39.923 -101.0597,-52.9986 -24.3525,-7.4235 -209.9865,-101.7353 -262.2922,-133.2581 -178.5781,-107.6229 -296.7994,-225.5355 -361.18672,-360.2437 -9.76739,-20.4349 -35.51161,-73.9371 -57.20939,-118.8938 -21.69778,-44.9567 -44.37299,-94.1775 -50.38936,-109.3795 -14.53718,-36.7321 -25.3842,-80.46602 -25.3842,-102.34607 v -17.76085 l 11.1463,9.61815 c 41.87937,36.13777 167.61277,157.56837 343.06017,331.32017 456.9269,452.511 519.9208,513.4735 525.1649,508.2295 2.271,-2.2711 1.5517,-2.9886 -429.0611,-427.9451 C 851.06208,923.32484 878.40776,950.74639 885.51511,950.74639 c 9.19558,0 74.14232,17.09733 113.13411,29.78273 71.44318,23.24298 153.98888,60.83038 217.15518,98.88208 43.4963,26.2025 123.0034,81.2086 160.5227,111.0559 43.3104,34.4543 121.2977,112.7121 156.5442,157.0874 80.545,101.4057 126.6303,186.74 171.7598,318.0409 23.5655,68.562 43.9507,114.3849 60.4005,135.772 12.8769,16.7418 10.3927,21.7381 -8.4329,16.9596 -8.1858,-2.0778 -14.4262,-2.016 -20.2557,0.2004 -7.5691,2.8777 -8.294,4.3315 -7.1343,14.3059 0.71,6.1066 1.8518,13.0297 2.5373,15.3848 2.6446,9.0857 -8.4168,5.1166 -25.5047,-9.1516 z m -319.5271,-306.0247 c 0,-9.8319 -10.5373,-22.187 -36.6893,-43.0186 -13.3341,-10.6214 -43.911,-38.9469 -67.9487,-62.9456 -24.0376,-23.9987 -44.5461,-42.7927 -45.5744,-41.7645 -4.1423,4.1423 138.8246,153.9576 146.9198,153.9576 1.8109,0 3.2926,-2.803 3.2926,-6.2289 z m 185.1576,-25.3575 c 4.3577,-4.3577 -8.2575,-19.4236 -34.1251,-40.7545 -15.2241,-12.5541 -35.9404,-31.969 -46.0362,-43.1443 -20.2371,-22.4011 -48.5217,-47.2486 -48.5217,-42.6256 0,6.9026 116.199,128.3874 122.8013,128.3874 2.2103,0 4.8571,-0.8384 5.8817,-1.863 z"
       style="fill:#ffd42a;fill-opacity:1;stroke:none;stroke-width:2.97234511;stroke-miterlimit:4;stroke-dasharray:none;stroke-opacity:1" />
    <path
       inkscape:connector-curvature="0"
       id="path828"
       d="m 2158.3635,1789.3893 c -17.1838,-27.804 -29.5754,-114.7895 -25.461,-178.7291 13.3067,-206.7891 66.7126,-412.827 150.2228,-579.5541 60.4734,-120.73443 112.3149,-191.31021 223.9023,-304.81561 112.6636,-114.60014 145.9172,-138.64758 166.2636,-120.2343 10.5227,9.5229 11.4596,15.80847 16.9117,113.45546 14.8161,265.35838 -50.4915,517.44495 -187.2709,722.86425 -40.04,60.1333 -144.9059,191.0594 -193.2385,241.2604 -40.5997,42.169 -91.4146,82.828 -124.4192,99.5527 -23.1587,11.7354 -23.4486,11.8022 -26.9108,6.2003 z m 56.4149,-97.8112 c 6.4896,-14.4496 19.4893,-50.8627 28.8881,-80.9179 9.3989,-30.0553 30.5414,-87.7487 46.9836,-128.2077 16.4421,-40.459 57.4436,-144.4964 91.1144,-231.1942 73.6293,-189.5853 125.5273,-319.99565 162.2649,-407.74249 29.6947,-70.925 43.025,-108.61161 39.6213,-112.01524 -2.6447,-2.64473 -9.8194,13.22494 -57.2941,126.72759 -98.8374,236.30104 -328.1084,833.96104 -328.1084,855.30774 0,9.9603 5.4412,2.7325 16.5302,-21.9578 z m 213.9604,-320.5192 c 85.3033,-213.6216 173.3971,-443.66395 172.88,-451.44776 -0.8918,-13.42478 -152.556,362.68846 -210.8578,522.90776 -58.1929,159.9202 -43.0057,131.3436 37.9778,-71.46 z m -173.4305,36.7694 c 17.2745,-52.5904 30.8312,-98.4562 30.1259,-101.9241 -3.2364,-15.9139 -63.0443,152.0285 -68.112,191.2606 -4.4104,34.1431 3.6632,15.1556 37.9861,-89.3365 z"
       style="fill:#ffd42a;fill-opacity:1;stroke:none;stroke-width:4.20353079;stroke-miterlimit:4;stroke-dasharray:none" />
    <path
       inkscape:connector-curvature="0"
       id="path830"
       d="M 1044.379,2184.2499 C 903.8151,2180.087 817.14532,2169.4594 721.86062,2144.7024 656.45222,2127.7078 609.8842,2105.0482 422.25643,1998.917 l -21.01765,-11.8885 23.15718,-0.076 c 35.0652,-0.1153 267.92763,11.9239 367.77118,19.0141 154.4117,10.9653 178.65006,11.9461 178.65006,7.2289 0,-2.4146 -4.28634,-5.4659 -9.52521,-6.7808 -13.23788,-3.3225 -106.96863,-10.2541 -206.95663,-15.3049 -46.23884,-2.3357 -114.33604,-7.0734 -151.32711,-10.5282 -75.59999,-7.0608 -178.05651,-8.3103 -198.58789,-2.422 -20.94204,6.0061 -21.93562,-3.1334 -2.24069,-20.6111 9.40595,-8.3471 38.57858,-26.2656 64.82808,-39.8189 26.2495,-13.5533 61.91327,-32.6759 79.25284,-42.4945 122.91962,-69.6045 305.17936,-81.026 498.31661,-31.2277 103.0912,26.581 283.4185,102.2609 336.0842,141.0482 18.8606,13.8904 50.8409,29.0695 100.7135,47.8025 59.0352,22.1747 91.6862,39.9831 109.5402,59.7454 16.8155,18.6127 17.5208,24.1228 6.2634,48.9268 -6.834,15.0576 -12.2032,19.8868 -32.485,29.2181 -23.782,10.9416 -26.7522,11.2437 -139.895,14.2291 -135.9267,3.5867 -241.5744,3.3846 -380.4195,-0.7274 z m -10.6306,-92.1213 c 3.401,-2.1508 5.1638,-4.9304 3.9173,-6.1769 -4.0059,-4.0058 -62.7055,-10.27 -140.41029,-14.984 -41.61496,-2.5246 -90.79627,-6.5456 -109.2918,-8.9356 -65.07614,-8.4092 -71.43826,-8.9944 -68.99818,-6.3472 3.63683,3.9456 114.85185,22.0245 182.49351,29.6658 53.09475,5.998 73.53972,7.7985 113.49536,9.9952 6.9358,0.3813 15.3932,-1.0664 18.7941,-3.2173 z m 428.8819,-12.7748 c 0,-2.3119 -1.8916,-4.2035 -4.2035,-4.2035 -2.312,0 -4.2036,1.8916 -4.2036,4.2035 0,2.312 1.8916,4.2036 4.2036,4.2036 2.3119,0 4.2035,-1.8916 4.2035,-4.2036 z m -36.0254,-3.7256 c 2.3704,-3.8353 -10.8569,-8.726 -23.8749,-8.8275 -11.8446,-0.092 -8.4444,7.6264 4.2035,9.5424 6.3579,0.9631 12.8668,2.0345 14.4643,2.3809 1.5975,0.3464 3.9407,-1.0467 5.2071,-3.0958 z m 22.2764,1.186 c -1.3969,-1.3968 -5.0224,-1.5461 -8.0568,-0.3319 -3.3533,1.3419 -2.3573,2.338 2.5396,2.5397 4.4312,0.1825 6.914,-0.811 5.5172,-2.2078 z m -108.1534,-16.1282 c 0,-4.4367 -8.067,-6.3007 -10.4665,-2.4184 -1.4521,2.3497 0.3088,4.2721 3.9131,4.2721 3.6044,0 6.5534,-0.8341 6.5534,-1.8537 z m -52.2496,-6.0768 c -3.2349,-5.2342 -18.1818,-7.4858 -114.5759,-17.2603 -46.6712,-4.7325 -99.046,-11.0348 -116.3886,-14.0051 -32.5084,-5.5678 -39.5123,-2.3469 -11.9321,5.4872 52.0094,14.773 249.0169,35.6811 242.8966,25.7782 z m -267.7142,-126.1873 c 9.7648,-6.1845 -3.7007,-8.1536 -117.2034,-17.1396 -58.95452,-4.6674 -117.12087,-9.6478 -129.25857,-11.0676 -13.57963,-1.5884 -22.06853,-0.9708 -22.06853,1.6056 0,12.7545 251.1161,37.6309 268.5305,26.6016 z"
       style="fill:#ffd42a;fill-opacity:1;stroke:none;stroke-width:4.20353079;stroke-miterlimit:4;stroke-dasharray:none" />
    <path
       inkscape:connector-curvature="0"
       id="path922"
       d="m 2046.872,1743.714 c -38.9935,-5.03 -46.0713,-7.6574 -46.0713,-17.1027 0,-18.6727 33.604,-123.2038 59.4744,-185.0053 15.47,-36.9561 26.3086,-73.955 29.6049,-101.0597 2.8601,-23.5176 9.3161,-61.485 14.3467,-84.372 23.6286,-107.4993 27.6502,-301.7283 9.0747,-438.27496 -7.0302,-51.6785 -6.7782,-62.34284 2.3741,-100.47766 13.272,-55.29993 46.8527,-126.35115 102.875,-217.66652 34.48,-56.20189 46.761,-71.87728 52.5493,-67.07349 13.7542,11.41498 44.79,81.565 57.0296,128.90338 7.5882,29.34893 13.3729,76.41311 15.6158,127.05026 l 3.5626,80.43228 -36.2544,62.24029 c -66.5415,114.23592 -127.769,276.62612 -157.9502,418.92172 -8.3218,39.2349 -19.9119,94.0747 -25.7558,121.8661 -8.6191,40.9896 -10.2456,72.1358 -8.6145,164.9652 l 2.0107,114.4353 -13.9001,-0.9196 c -7.6451,-0.5057 -34.6322,-3.5939 -59.9715,-6.8626 z m 165.0001,-773.9446 c 2.1404,-19.61748 9.0272,-61.50191 15.3039,-93.07651 13.5069,-67.94519 14.4245,-98.47713 1.7584,-58.51309 -10.5777,33.37507 -37.9772,179.50543 -37.693,201.029 l 0.2107,15.9522 8.2641,-14.8617 c 4.5453,-8.174 10.0154,-30.91242 12.1559,-50.5299 z"
       style="fill:#ffd42a;fill-opacity:1;stroke:none;stroke-width:5.94469023;stroke-miterlimit:4;stroke-dasharray:none" />
    <path
       inkscape:connector-curvature="0"
       id="path926"
       d="m 865.36487,2342.1563 c -213.60241,-15.144 -352.60316,-45.2033 -489.06761,-105.7622 -60.86808,-27.0115 -58.50847,-61.46 6.24025,-91.1029 18.34443,-8.3984 46.06198,-23.1698 61.59456,-32.8254 25.61636,-15.924 32.00021,-17.3284 68.6888,-15.1115 32.40261,1.9579 52.81663,8.0758 102.63342,30.7581 104.14455,47.4187 213.30348,66.7656 424.86111,75.3005 237.1917,9.569 377.8883,7.6143 452.5538,-6.2874 94.121,-17.5241 108.9748,-12.8674 117.9674,36.9832 l 3.9503,21.899 -25.4605,3.1094 c -14.0032,1.7102 -73.6124,4.6516 -132.4649,6.5364 -220.6423,7.0662 -338.7101,25.7031 -457.7411,72.2541 -28.25137,11.0486 -34.87578,11.2591 -133.75553,4.2487 z m 157.53433,-73.4721 c 2.2441,-3.6311 -6.8738,-5.9447 -23.42795,-5.9447 -14.90607,0 -27.10196,2.6751 -27.10196,5.9447 0,3.2696 10.54255,5.9447 23.4279,5.9447 12.88531,0 25.08121,-2.6751 27.10201,-5.9447 z m -323.98566,-58.8109 c 0,-2.9197 -4.23145,-6.9324 -9.40323,-8.917 -13.68981,-5.2533 -243.07551,-4.4333 -237.82234,0.8501 2.43814,2.4522 38.32921,5.9535 79.75793,7.7806 129.41226,5.7075 167.46764,5.7725 167.46764,0.2863 z"
       style="fill:#ffd42a;fill-opacity:1;stroke:none;stroke-width:5.94469023;stroke-miterlimit:4;stroke-dasharray:none" />
    <path
       inkscape:connector-curvature="0"
       id="path930"
       d="m 1313.1483,687.05274 c 2.0316,-26.34578 7.1346,-55.10321 11.34,-63.90542 8.8826,-18.59217 30.6922,-23.97939 45.1793,-11.15983 5.4521,4.82456 38.0016,27.51519 72.3322,50.42362 34.3306,22.90842 68.9046,48.60223 76.8311,57.09735 l 14.4118,15.44568 h -54.4177 -54.4176 l -12.131,-23.77876 c -6.6721,-13.07832 -14.7518,-23.77877 -17.9549,-23.77877 -7.665,0 -7.4007,2.55279 2.7898,26.94205 l 8.6137,20.61548 h -48.1353 -48.1353 z"
       style="fill:#ffd42a;fill-opacity:1;stroke:none;stroke-width:5.94469023;stroke-miterlimit:4;stroke-dasharray:none" />
    <path
       inkscape:connector-curvature="0"
       id="path932"
       d="m 1840.2941,731.50925 c 0,-1.89468 12.038,-27.67122 26.7511,-57.28118 14.7131,-29.60997 26.7511,-56.17759 26.7511,-59.03915 0,-11.84083 25.3123,-57.89194 33.5604,-61.05704 23.8421,-9.14908 47.2537,24.05963 84.52,119.88918 l 23.6957,60.93308 h -40.6692 c -26.9731,0 -41.679,-2.50249 -43.6677,-7.43087 -2.3987,-5.94469 -3.0922,-5.94469 -3.4677,0 -0.3385,5.35949 -15.3832,7.43087 -53.9715,7.43087 -29.4262,0 -53.5022,-1.5502 -53.5022,-3.44489 z"
       style="fill:#ffd42a;fill-opacity:1;stroke:none;stroke-width:5.94469023;stroke-miterlimit:4;stroke-dasharray:none" />
    <path
       style="fill:#000000;fill-opacity:1;stroke:#000000;stroke-width:0.1;stroke-miterlimit:4;stroke-dasharray:none;stroke-opacity:1"
       d="m 1682.0471,3852.6126 c -151.6314,-230.8551 -118.6584,-529.9412 -8.4274,-770.37 71.2762,-184.0142 160.1503,-360.8994 225.047,-547.436 80.3108,-24.7716 -97.2583,4.2058 42.83,-15.8351 -104.5738,153.8246 -146.6103,341.5269 -230.0424,507.4552 -92.3898,201.1879 -153.9901,427.8071 -94.0685,647.747 -4.5737,128.9785 127.2903,186.7674 178.9161,44.3224 140.0604,-161.8914 174.7245,-375.6158 188.3298,-581.5188 24.6305,-200.3679 7.8001,-404.1402 2.6108,-603.2887 52.8513,304.5826 18.277,621.1153 -34.0262,925.5135 -59.2851,145.5462 -141.0181,307.2243 -271.1692,393.4105 z m 311.345,-1312.7228 c -4.8978,-19.7042 -22.3196,20.2509 0,0 z m -110.1912,-20.0575 c -18.7452,-40.6311 -31.4258,40.5167 0,0 z m 92.3704,-9.3129 c 8.2867,-26.1331 -34.8968,10.1278 0,0 z m 355.675,1315.7888 c -203.407,-118.4075 -300.0928,-360.8578 -284.18,-588.9837 -10.0951,-249.5526 -26.8795,-510.4218 55.4428,-749.2857 119.4279,-12.3762 60.3305,107.7116 142.0622,194.582 42.3889,78.8418 101.2324,262.4064 45.3442,73.0732 -8.5091,-93.1283 -162.1968,-349.053 23.2275,-303.7292 67.3387,104.0143 -5.6956,-179.3545 35.9821,-6.611 58.0757,145.7797 227.1944,212.0692 307.1211,347.8321 149.0939,219.0252 385.3188,396.6971 655.973,415.7809 57.9111,-49.8474 -85.7342,-229.2844 -133.8595,-317.6897 -83.9877,-134.4136 -223.5867,-209.2341 -360.9244,-276.7411 -152.0009,-92.5636 -287.6589,-224.0674 -467.8676,-256.9057 110.9253,-86.1855 236.1267,129.1655 359.3169,171.068 242.898,163.4762 557.6395,325.5603 851.1482,198.6494 132.6529,-16.4358 -152.8469,-133.9727 -206.909,-197.322 -176.2831,-116.8368 -368.1339,-214.8939 -580.6673,-240.7504 -122.6744,-46.1924 -287.3175,-5.7226 -389.3784,-41.6803 89.6504,-6.4651 189.0681,1.8578 46.0455,-33.5321 -80.204,-53.2304 266.3731,33.6157 215.7401,38.3652 164.1617,25.8299 332.3941,45.3739 478.8988,128.9721 179.1289,27.4594 373.3789,-47.056 507.9108,-166.0752 96.8329,-93.2678 -307.0662,-227.1494 -233.9395,-182.8187 -160.5209,-75.2346 -310.5104,39.2281 -471.7977,45.8602 -145.5137,18.1683 -292.4243,16.2378 -438.7683,18.2191 -95.7563,121.0271 -104.6104,15.2102 -71.3148,-79.723 67.6373,-131.6404 290.9943,-238.7206 451.6895,-297.9757 158.8256,-90.1636 367.8327,-66.0711 505.5702,-187.5954 88.3472,-51.6356 142.0208,-207.7768 -20.0048,-151.627 -189.1656,-5.4037 -307.2053,142.246 -441.928,246.6376 -168.228,124.3281 -356.3161,229.6678 -563.4607,270.4172 -23.8163,141.1183 -37.789,-59.1107 -104.2841,-8.8874 103.2216,-180.2637 243.3261,-341.009 417.7593,-457.4562 146.5444,-102.3145 306.6528,-195.2135 346.8012,-385.5719 33.5591,-83.13006 48.4282,-254.6757 -73.6757,-144.94611 -154.1243,74.66307 -289.7437,172.29171 -312.8831,352.08481 -91.4951,213.7592 -242.3578,397.1203 -413.9259,551.8634 -196.507,-63.0614 -74.3389,-289.7453 -57.6764,-430.3014 36.8465,-174.5528 99.2699,-345.1595 196.206,-495.58882 9.9248,-105.29347 -7.821,-327.59443 -93.7985,-338.64267 -92.6938,138.114 -186.6692,298.13614 -131.992,470.02379 22.1358,245.429 -38.9288,491.7911 -126.7494,718.9647 -12.5381,12.846 77.5358,-332.6596 58.313,-254.8428 57.8443,-300.3688 74.299,-637.27225 -90.4612,-908.11136 -99.551,-7.82854 -127.0969,208.84456 -169.6855,299.94445 -73.4413,284.06741 23.3479,576.99061 112.6355,845.63631 36.6396,31.2512 77.3371,97.6503 -1.118,49.5682 -83.0676,-240.3989 -153.4022,-490.1782 -158.2036,-746.2557 -81.4775,-175.4169 -232.8436,-349.88467 -412.0418,-410.04594 -56.461,164.55079 -0.4323,351.81034 38.2613,517.18414 76.366,157.1341 250.0777,248.8984 301.5683,426.8741 41.8637,89.5203 205.7729,219.8413 147.7554,244.619 -150.4352,-54.1773 -127.7212,-269.3358 -234.8894,-376.6952 C 1421.0074,1176.982 1158.9978,1004.803 874.81224,946.54244 1157.094,1232.4079 1447.9622,1509.6373 1730.33,1795.4166 1426.2541,1520.2971 1149.1362,1216.075 846.33453,939.20712 c 9.87884,152.07568 106.11709,282.76488 168.73867,417.54228 138.2441,221.9957 387.1721,330.1782 607.5133,447.3482 181.0815,148.7095 -71.1979,-46.3024 -149.4633,-61.2597 -201.8851,-99.8485 -403.4385,-233.9168 -506.47908,-441.5049 -102.60963,-103.3915 -260.32961,-74.019 -390.02186,-80.7622 35.28657,128.6375 188.85291,256.185 291.49911,360.2626 147.19963,123.8436 297.88403,251.9156 489.12673,299.3776 86.9581,31.1389 339.0388,92.1189 284.0499,75.8233 -237.1045,-10.6427 -469.1465,-95.7392 -646.76539,-255.2734 -170.18725,-129.1904 -319.05937,-282.0823 -441.51089,-457.4545 -76.78572,-88.1242 342.93079,2.8175 230.23799,-36.1785 80.67903,38.8516 233.63909,81.0323 116.21926,-50.3383 -26.44024,-69.7013 -161.19476,-292.64141 19.1126,-220.03061 156.11413,26.07326 532.65563,252.29741 446.45123,211.87381 -63.5758,-191.26147 -74.8977,-396.22556 -58.1431,-595.95782 187.7527,101.72182 357.435,247.21727 446.9182,445.32505 17.142,-155.70831 95.6139,-423.1714 203.9302,-468.71985 80.7908,48.22144 73.1718,298.05724 148.7508,265.84635 27.9988,-117.34186 169.6938,-434.37771 236.7775,-167.33253 13.7245,81.7579 3.6935,324.80706 102.2465,132.71267 67.0902,-62.20055 297.0987,-178.35376 243.0359,-189.62556 63.2817,134.92948 -34.3227,359.08199 32.4027,447.10069 98.2589,-44.79924 258.2109,-224.56779 336.3832,-149.79253 -40.5468,158.58953 -100.2835,447.85193 -105.7607,386.52593 118.6626,-30.3099 296.0004,-144.143 380.4894,-114.976 -19.1412,84.6336 -146.228,243.2426 -146.972,261.3154 139.4542,-65.0906 334.6289,-12.601 314.9255,-29.9088 -22.1333,96.2972 -248.5954,269.6433 -45.9295,242.1864 131.2124,-24.6273 251.014,85.5534 108.6786,185.6252 -66.3383,91.9047 -277.2759,171.5917 -265.9538,192.1892 117.5729,39.6417 382.0819,95.3654 387.6479,200.8701 -88.6739,69.722 -190.9284,136.6028 -203.1482,142.1428 -110.9677,22.3628 -219.0405,75.4227 -259.2014,97.2856 126.6483,84.8143 369.7739,195.2874 399.1615,300.8643 -175.5919,89.0964 -376.2969,58.2003 -556.8841,7.0093 113.3576,114.3244 214.5287,265.9495 277.0121,423.961 36.5542,139.5074 -254.6581,11.1232 -338.7436,-35.2591 -59.4223,-28.7514 -242.7761,-182.6618 -148.6737,-16.6872 24.4176,132.2433 105.8952,330.3165 84.0355,424.1906 -143.5067,-51.8143 -258.5221,-161.6403 -376.7584,-254.2828 -82.9427,-62.7055 -197.9185,-291.5345 -205.688,-297.9134 62.3828,235.7843 114.8753,488.8093 29.7458,725.8922 -12.8797,41.1051 -29.7419,81.3599 -54.0813,117.0882 z m 4.122,-37.1917 c 143.0604,-280.0499 66.1676,-601.0736 -17.1406,-886.3384 -47.1925,-131.4415 -95.8129,-268.8447 -176.5246,-382.2613 -111.3532,92.0735 -69.1931,289.8205 -88.4096,426.5598 5.9588,188.228 -9.0787,383.5079 44.3663,565.4536 39.8219,106.6547 130.009,267.2256 237.7085,276.5863 z M 2262,3754.6668 l 1.8379,0.047 z m 29.0533,-115 c -67.3411,-339.3755 -99.131,-684.3865 -155.831,-1025.4937 71.8724,339.078 92.7133,686.8274 158.9408,1027.1603 l -3.1099,-1.6666 z m 23.0828,-107.2627 c -28.3726,-98.6363 18.3849,-80.3665 0,0 z m -136.4182,-92.6808 c -13.5402,-116.8911 -84.8107,-552.4692 -67.6662,-472.4659 25.1893,157.0694 54.6974,313.745 67.6662,472.4659 z m -78.2808,-521.7845 c 0.2015,-20.9249 6.9388,11.4279 0,0 z m 838.6229,593.9358 c -63.8555,-225.4 -78.2388,-481.9152 -251.1422,-658.6333 -130.6813,-126.8159 -267.1902,-368.7199 -449.0139,-367.3102 71.2369,309.9589 139.644,663.9968 420.0248,857.9952 81.8446,58.8952 211.2486,160.2769 280.1313,167.9483 z m -79.7229,-80.2145 c -192.4694,-302.2117 -386.4658,-603.4481 -581.1658,-904.2266 197.4836,270.4811 360.9614,564.0062 550.2181,840.2018 -1.4379,6.5506 52.822,75.5881 30.9477,64.0248 z m -381.3498,-489.9933 c -45.438,-54.6525 -18.8037,-61.2441 0,0 z m 104.6674,-46 c -38.6576,-47.4804 -36.7443,-110.005 0,0 z m -340.3214,-404.8574 3.6715,-1.1751 z m 101.228,437.1955 c -13.2531,-26.3692 12.2912,44.2222 0,0 z m -5.8293,-18.2193 c -6.1924,-9.5098 4.2713,18.0435 0,0 z m -3.932,-13.2522 c -5.5191,-5.8221 2.7029,9.4437 0,0 z m -213.9477,-369.772 c 4.9088,-18.229 -23.1016,15.9334 0,0 z M 2146,2512.0929 c -7.346,-5.9068 -1.3629,8.0509 0,0 z m 32.6667,-9.4598 c 0.8365,-17.1777 -11.4002,9.2562 0,0 z m 37.3333,-8.045 c -4.4526,-7.2927 -1.7947,9.4814 0,0 z m 46,-27.273 c -3.1387,-11.4599 -9.3139,10.7713 0,0 z m 43.1573,-21.8448 c -0.7855,-13.0285 -11.6338,4.984 0,0 z m 31.4531,-36.5874 c 8.9068,-33.2677 -18.2829,18.869 0,0 z m 29.4576,-38.84 c 4.7998,-31.5903 -20.1519,16.0087 0,0 z m 20.5455,-61.3122 c 10.248,-24.6917 -26.1546,13.2076 0,0 z m 16.5772,-48.173 c 2.2618,-22.5074 -23.1504,7.7761 0,0 z m 4.4829,-52.891 c 11.1688,-28.5503 -21.6878,5.5406 0,0 z m 6.1044,-53.5688 c 6.5912,-30.1961 -28.5319,1.4546 0,0 z m -7.1923,-67.9 c -7.0285,-37.2956 -7.5942,21.8801 0,0 z M 2632,2082.0341 c 310.2608,2.7817 639.616,-55.9823 884.9133,-257.8527 126.894,-86.6609 118.4198,-197.9695 -43.2908,-198.3309 -286.7669,-46.8293 -567.2198,80.4335 -818.5463,202.4425 -72.4351,67.4183 -287.3095,137.9952 -242.8329,246.6219 72.2659,12.9054 146.6605,7.3206 219.7567,7.1192 z m -191.4119,-26.1612 c 332.8323,-150.601 685.7582,-249.246 1031.6884,-364.1156 39.7543,-0.5939 -336.1362,115.8021 -232.4948,80.0622 -268.0879,89.6529 -536.5206,179.7527 -799.1936,284.0534 z m 313.36,-23.9568 c 143.4268,-58.5765 551.0646,-187.8682 491.3717,-163.7597 -157.1447,72.6913 -329.0009,105.168 -491.3717,163.7597 z m -125.426,-104.4786 c 59.5144,-46.7293 366.0076,-126.3483 155.5623,-57.2817 -52.0593,18.5307 -103.8868,37.7077 -155.5623,57.2817 z m -240.4894,98.2292 c 1.2109,-50.9014 -23.6516,17.2523 0,0 z m -38.1316,-23.5552 c -1.613,-43.8005 -30.2015,30.5252 0,0 z M 2360,1976.8667 c -5.7974,-32.8073 -16.4599,-0.1254 0,0 z m -35.9676,-33.5724 c -12.6124,-43.0985 -39.8025,6.0472 0,0 z m 9.2585,-22.9609 -4.4226,-5.4192 z m -595.167,-17.1503 c 11.1508,-29.6918 -37.982,1.0499 0,0 z M 2320,1900.0001 2316.0968,1900 Z m -608.0472,-3.6667 c -4.9727,-13.1641 9.482,-0.5343 0,0 z M 2342,1881.8389 c 317.9357,-63.0749 591.2598,-262.3493 812.8705,-491.0868 59.2995,-68.7496 257.733,-321.6636 54.7397,-218.4942 -210.0399,67.2755 -414.9892,155.7377 -583.4425,301.3261 -127.4888,99.3466 -317.7041,256.5383 -319.0822,404.254 l 15.1659,7.7822 z m 13.6679,-39.9488 c 240.2378,-200.6283 485.2925,-397.1084 746.4948,-570.3831 -236.5211,173.4911 -472.2756,347.8878 -697.9158,535.4127 l -24.2911,17.812 z m 293.7362,-146.4715 c 57.234,-56.8141 412.4965,-317.3472 314.9602,-241.3759 -102.1966,84.0221 -208.3758,163.0494 -314.9602,241.3759 z m -127.8473,-52.4016 c 54.6674,-58.6211 317.5371,-256.0445 137.8034,-108.4827 -44.5604,37.8276 -88.883,76.2813 -137.8034,108.4827 z m -815.4679,223.2264 c -26.7456,-89.4651 -29.666,65.6207 0,0 z m 505.4107,-15.3769 c -5.0133,-60.7121 -36.3114,38.6898 0,0 z M 2176,1809.3334 l -1.8378,-0.047 z m -385.6704,-1.6667 c 25.5523,-33.2907 -19.3552,3.5587 0,0 z m 370.808,-10.5153 c 170.27,-87.342 276.5496,-259.6773 381.2015,-413.2458 132.9634,-230.8128 176.4876,-507.27708 140.7439,-769.36561 -123.2151,-18.20225 -222.553,175.15195 -310.6686,261.55677 -166.3424,240.42694 -247.8257,538.86704 -239,829.91994 3.7855,31.6272 10.3726,63.752 27.7232,91.1347 z m 36.1957,-78.5491 c 118.7005,-333.066 246.2611,-663.487 386.8557,-987.85899 -121.3379,319.39689 -257.3906,634.47149 -369.5645,957.35819 z m 158.2223,-171.4912 c 73.8509,-212.9415 159.9665,-421.3206 245.4477,-629.77774 -76.2612,212.04174 -160.3211,421.17254 -245.4477,629.77774 z m -139.8889,-32.5835 c 1.9879,-65.3757 109.1827,-312.8321 44.3965,-128.0162 -17.0433,41.9157 -24.1754,87.3004 -44.3965,128.0162 z m -77,276.1263 c -7.3649,-14.3736 -9.3146,12.8443 0,0 z m -194.2695,-8.3205 c 31.5087,-37.9079 -34.9205,-0.2216 0,0 z m -107.6269,-9.0393 c 9.3358,-22.8135 -42.9132,17.3451 0,0 z m -102.1292,1867.9915 c 69.7416,-346.8502 143.6519,-693.0168 202.8097,-1041.7137 2.4755,77.7808 -45.9391,251.202 -59.7037,364.697 -37.8953,227.6236 -90.2717,452.8927 -143.106,677.0167 z M 958.63391,3440.6273 c -7.72646,-158.8542 55.48049,-339.2666 70.21339,-357.8613 -111.7337,36.6349 -294.39749,156.0897 -376.98489,85.7362 -22.16982,-128.2606 204.10987,-265.2659 143.99663,-345.4823 -101.68897,10.6503 -386.61593,66.4848 -240.97201,-113.5716 62.72741,-115.7507 187.06003,-240.9944 336.18497,-319.066 93.74761,-56.7121 -214.38871,-26.9896 -291.73801,-64.0879 -88.54449,-27.0833 -398.99613,-77.3703 -257.36848,-181.1226 120.62057,-35.3939 195.18501,-104.1262 34.57078,-142.4424 -90.26085,-73.4672 243.8381,-219.1634 200.52997,-162.9667 296.61808,-116.6946 618.94344,16.3007 879.38854,164.0382 187.7456,7.3361 163.0605,208.3848 228.8433,318.8575 -138.625,-88.3804 -320.6933,-29.7688 -476.4527,-22.1183 -282.02326,44.3895 -560.84751,219.3584 -671.26701,488.0903 2.42942,63.6049 204.68671,27.2208 103.27542,23.9727 152.994,-11.8947 267.49508,3.2031 411.23939,-66.0103 236.0594,-95.6631 437.8969,-256.0768 643.9289,-401.4642 -166.6924,134.4572 -343.7921,275.4356 -543.0311,371.0915 -136.7885,77.8694 -341.49139,80.4804 -397.5263,257.1854 -60.22164,71.911 -153.366,273.5494 16.42115,188.8892 205.28897,-28.0093 337.56935,-157.4667 429.39885,-333.0469 132.9532,-143.9935 265.9352,-300.3596 459.3684,-360.4226 39.96,-34.0986 128.6396,-167.8097 89.9839,-40.1403 -197.9056,91.9528 -386.1971,218.2618 -521.7633,393.8263 -141.7565,154.5038 -218.2295,355.7573 -268.95095,556.1556 142.88865,43.2054 269.37295,-117.6774 381.25125,-191.3561 172.0755,-167.216 259.0654,-399.2502 410.7723,-581.4975 -5.5187,-71.9865 144.693,-206.6847 95.6314,-102.5773 -105.6683,78.7629 -160.714,246.4443 -250.0553,357.7022 -113.6364,177.4052 -226.8097,365.5985 -420.754,466.2944 -70.3115,41.5472 -142.4849,83.6891 -218.13449,113.3948 z m -362.04364,-626.5181 -1.59507,1.322 z M 1690.6243,2356.3334 c -3.5165,-19.0246 -8.1372,3.7655 0,0 z m -719.29097,-2.9208 c 203.31117,-94.5108 432.45997,-79.2109 650.55567,-92.4131 -39.0488,-151.7233 -271.6029,-13.834 -397.291,-57.1033 -228.15921,-0.031 -467.71952,1.4604 -675.38508,-105.9416 -94.67278,-39.1291 -334.47216,115.5668 -133.98611,157.8434 175.13155,75.5793 373.5132,83.1057 556.10652,97.6146 z M 1016,2273.267 c -88.27377,-6.9021 19.7966,-12.1901 5.2009,-5.6037 z m -328.20787,-60.5859 c -71.88654,-1.6628 -354.42262,-13.0091 -138.0248,-13.0966 24.64293,6.7587 158.12557,-13.1659 138.0248,13.0966 z M 1728.5133,2350.047 c 0.6245,-29.4811 -33.8432,8.7785 0,0 z M 1670,2304.0001 c -5.6297,-7.9952 2.9003,11.8661 0,0 z m -28.6667,-41.9214 c -9.1429,-35.6812 -22.0767,-7.9896 0,0 z m -16.9458,-65.1248 c -11.6432,-14.5211 9.0062,36.8439 0,0 z m -291.0542,-6.7474 c 83.153,1.4977 363.8146,9.3432 228.9543,-124.0227 -196.7317,-81.04 -376.5538,-208.3936 -592.09597,-241.3093 -204.47053,-45.9124 -425.79394,12.3811 -583.51792,146.312 93.1802,70.9498 210.85664,135.2151 326.97086,174.043 202.06364,54.1973 412.81603,40.2645 619.68873,44.977 z m 264.8512,-48.2064 c 2.7288,-7.2402 2.7288,7.2402 0,0 z m -563.5178,-50.0472 c -75.43687,4.837 -293.948,-28.3519 -290.65195,-34.3462 92.33302,22.6043 211.59616,4.5921 290.65195,34.3462 z m 422.2345,-12.4891 c 2.1074,-10.1609 3.9736,7.6852 0,0 z m -36.2345,-3.6831 c -76.2013,-5.1591 25.0508,-10.1868 0,0 z m 19.3333,0.2343 6.5878,0.2685 z m -108.3526,-15.4787 c -0.9989,-10.7894 13.7078,6.9091 0,0 z m -40.1744,-4.1744 c -61.0699,-3.8391 -180.7594,-9.6955 -234.2113,-30.6144 77.5033,14.4181 157.7603,10.9668 234.2113,30.6144 z m -334.80633,-40.4537 c -117.74718,-18.2905 -665.27098,-29.2213 -532.88472,-39.5532 179.71546,0.5279 359.68284,19.7281 539.0546,32.068 l 7.71692,3.6742 z m 33.70169,-85.9687 c -87.31038,4.1112 -345.65687,-42.3352 -127.46465,-20.0195 20.87251,3.4803 223.30189,10.3231 127.46465,20.0195 z m 634.40644,217.4376 c 0.1916,-39.4166 -13.9946,14.93 0,0 z m 2.7012,-26.8194 c 2.5416,-15.0391 -19.0538,1.1482 0,0 z m 0.524,-21.1615 c -0.9989,-15.9325 -14.281,4.4513 0,0 z m 7.1553,-27.1081 c -16.031,-2.621 4.8546,21.1768 0,0 z m -1196.59974,-59.478 c -29.77952,-25.8149 -12.96751,2.7973 0,0 z M 1032,3309.17 c 209.59,-296.1807 469.4292,-552.393 704.7167,-826.9526 -1.9885,28.3471 -188.6258,204.6284 -194.2402,229.1769 -174.034,195.4237 -354.0031,387.1676 -507.4765,599.125 z m 828,-4.3443 c 4.1224,-73.0592 44.7355,-186.7787 14.5399,-47.4923 -6.2348,-1.866 -7.4184,66.8699 -14.5399,47.4923 z m 1392.0749,-151.6295 c -274.5812,-266.1397 -578.0795,-499.5719 -874.5532,-740.2824 252.0564,181.6792 485.5705,388.5274 722.1824,589.7988 49.3431,46.4867 122.8575,108.1157 152.3708,150.4836 z M 771.48076,3117.904 c 107.75039,-83.2878 484.41434,-418.8336 421.07494,-352.6392 -136.2784,120.621 -275.9735,250.2651 -421.07494,352.6392 z m 643.18594,-166.8796 c 44.411,-67.1066 59.1429,-35.8983 0,0 z m 410.0342,-62.9688 c 0.043,-94.599 30.6399,-129.3411 6.0875,-16.5674 -3.4636,4.7863 2.0427,14.176 -6.0875,16.5674 z m 987.0768,-35.9519 c -86.6541,-84.8415 -338.8318,-300.2183 -312.0643,-262.4844 106.2496,78.4461 230.0366,180.8492 312.0643,262.4844 z M 684,2813.2548 l 2.60696,0.7646 z m 26.41667,0.5012 2.40846,0.2464 z m 2229.62583,-26.0892 c -89.4526,-60.4899 41.7978,72.8451 8.9372,8.3333 l -7.0045,-6.5312 z M 705.49715,2766.1974 c 194.22344,-129.6859 420.31735,-202.2772 622.39955,-319.1339 72.5403,-39.4312 280.1726,-138.024 280.9039,-129.231 -301.9829,147.5437 -605.5916,292.4469 -903.30345,448.3649 z m 2749.16955,-61.5102 c -328.0004,-143.4825 -669.1876,-255.556 -996.383,-400.2083 171.9939,58.7864 260.2896,104.5016 404.8767,157.2638 201.7246,80.7049 418.3659,154.6452 607.1729,248.6237 l -9.0037,-3.2639 z m -94,-95.8889 c -57.3499,-22.1616 -225.3537,-106.8255 -78,-41.4748 8.7158,0.5268 177.3482,83.5655 78,41.4748 z M 3036.63,2596.9271 c -88.4777,-21.4528 -124.3437,-60.0013 0,0 z m -2486.61656,-4.9488 1.93605,0.3121 z m 1027.31986,-8.7996 c 21.0099,-40.36 52.3741,-30.8918 0,0 z m -355.308,-1.804 c 31.4477,-31.953 62.2846,-11.3728 0,0 z m 808.0182,-30.7492 c -28.3179,-96.3906 94.316,12.2412 0,0 z m 15.2898,-14.6254 c -6.7369,-10.8783 -16.98,15.9891 0,0 z m -29.3745,-27.4075 c -25.5295,-72.9412 75.1557,7.7212 0,0 z m 45.8104,1.1465 c -38.0867,-88.4922 97.3707,7.8745 0,0 z m -285.4931,-45.7617 c -61.8524,-75.3272 125.046,-18.9875 3.9925,1.6667 z m 9.8976,-12.3107 c -13.4319,-19.2306 -28.5614,3.6155 0,0 z M 2728,2385.7815 c -86.1954,-30.6005 24.9438,-2.3099 8.1438,-1.9797 z m 407.8889,-127.6654 c -149.5367,-5.5721 -298.207,-25.4384 -447.4386,-33.6223 148.8683,14.0836 299.8174,7.57 447.4386,33.6223 z m 431.1235,-49.326 c -367.0579,-22.4465 -735.3794,-41.8051 -1102.8654,-38.0806 348.8018,-21.8558 698.8164,18.5991 1047.7406,26.091 5.5074,1.4175 106.7892,3.8687 55.1248,11.9896 z m -344.4568,-71.977 c -84.4749,-5.2201 -251.3026,-12.9776 -70.7586,-10.9759 23.4432,2.9262 48.8324,0.2643 70.7586,10.9759 z M 1680.5155,1942.1563 c 13.9596,-40.1433 -18.4828,14.4564 0,0 z m -55.1822,-31.0477 c -324.5719,-167.982 -642.81963,-350.6395 -937.07535,-568.1423 193.88075,120.2216 377.91765,256.9578 579.41025,365.6567 112.004,70.9916 266.181,136.0921 357.6651,202.4856 z m 152.0531,-41.1649 c 3.9987,-60.205 -39.6377,3.3119 0,0 z m -29.5499,-31.4087 c 22.8461,-27.4626 -18.7791,5.2296 0,0 z m 131.9338,-33.1569 c -100.3496,-102.7567 119.9052,-30.4104 0,0 z m 22.6824,-14.1075 c 7.5164,-49.5947 -43.7785,19.9818 0,0 z m -29.1944,-20.4636 c 34.1378,-17.5227 -23.1254,-6.5353 0,0 z m -608.7604,-2.0992 c -1.979,-10.2009 13.3645,8.0217 0,0 z m 565.0606,-28.3744 c -140.4429,-344.7459 -254.8819,-701.4897 -432.3873,-1029.99238 17.4486,-15.40871 108.1799,198.87484 116.1299,217.75539 115.2849,267.50959 220.0218,539.42109 320.8474,812.66419 z m 103.9982,-12.4008 c 15.9165,-336.539 6.3344,-673.5774 15.4596,-1010.2734 6.2018,321.3453 5.1915,643.3135 -8.2569,964.3315 l -3.182,23.3984 -4.0213,22.5435 z M 3013.3372,1606.674 c 71.4255,-31.8746 326.9718,-171.8101 282.9022,-139.5837 -92.6758,49.5348 -182.208,107.1765 -282.9022,139.5837 z m -1113.2068,-53.5396 c -13.5344,-65.452 -10.6404,-288.104 -1.5818,-111.0885 -1.2169,36.9319 11.4724,74.6333 1.5818,111.0885 z m -515.4637,-14.3916 c -69.4303,-53.7877 -218.9694,-234.604 -67.9567,-74.113 20.7332,23.562 69.6344,38.2164 67.9567,74.113 z m 179.739,-29.3508 c -60.7038,-53.8819 -173.7686,-189.9868 -49.514,-59.6082 8.8484,15.2941 74.1452,42.6583 49.514,59.6082 z m 1069.4319,-150.0009 c 86.1058,-125.8757 370.6898,-448.25589 317.7303,-383.8335 -96.5383,134.9805 -213.3398,255.3521 -317.7303,383.8335 z m -633.7469,-17.5421 c -7.239,-74.1812 13.1653,-188.5409 5.8368,-51.749 -5.1331,11.8184 13.2914,46.8474 -5.8368,51.749 z m -243.7574,1.1658 c -26.8646,-42.6708 5.1348,-39.4072 0,0 z m -221.2944,-167.7041 c -38.5327,-80.1626 -65.1318,-210.67627 -15.0087,-57.5491 4.9957,18.6303 21.7759,36.9015 15.0087,57.5491 z m 657.7648,-145.2393 c -0.8057,-68.51579 66.6276,-337.49314 29.8032,-142.73804 -15.956,46.38182 -5.3983,98.83271 -29.8032,142.73804 z"
       id="path825"
       inkscape:connector-curvature="0" />
    <ellipse
       ry="402.21484"
       rx="411.6228"
       cy="2145.6345"
       cx="2013.8146"
       id="path840"
       style="fill:#28220b;fill-opacity:1;stroke:none;stroke-width:1.18127084;stroke-miterlimit:4;stroke-dasharray:none" />
  </g>
</svg>
