<?xml version="1.0" encoding="UTF-8" standalone="no"?>
<!-- Created with Inkscape (http://www.inkscape.org/) -->

<svg
   xmlns:dc="http://purl.org/dc/elements/1.1/"
   xmlns:cc="http://creativecommons.org/ns#"
   xmlns:rdf="http://www.w3.org/1999/02/22-rdf-syntax-ns#"
   xmlns:svg="http://www.w3.org/2000/svg"
   xmlns="http://www.w3.org/2000/svg"
   xmlns:sodipodi="http://sodipodi.sourceforge.net/DTD/sodipodi-0.dtd"
   xmlns:inkscape="http://www.inkscape.org/namespaces/inkscape"
   version="1.1"
   id="svg869"
   width="1438.5649"
   height="929.68195"
   viewBox="0 0 1438.565 929.68195"
   sodipodi:docname="1.svg"
   inkscape:version="0.92.2 5c3e80d, 2017-08-06">
  <metadata
     id="metadata875">
    <rdf:RDF>
      <cc:Work
         rdf:about="">
        <dc:format>image/svg+xml</dc:format>
        <dc:type
           rdf:resource="http://purl.org/dc/dcmitype/StillImage" />
        <dc:title />
      </cc:Work>
    </rdf:RDF>
  </metadata>
  <defs
     id="defs873" />
  <sodipodi:namedview
     pagecolor="#ffffff"
     bordercolor="#666666"
     borderopacity="1"
     objecttolerance="10"
     gridtolerance="10"
     guidetolerance="10"
     inkscape:pageopacity="0"
     inkscape:pageshadow="2"
     inkscape:window-width="1440"
     inkscape:window-height="856"
     id="namedview871"
     showgrid="false"
     inkscape:zoom="0.2312678"
     inkscape:cx="53.317079"
     inkscape:cy="536.66961"
     inkscape:window-x="24"
     inkscape:window-y="7"
     inkscape:window-maximized="0"
     inkscape:current-layer="svg869"
     fit-margin-top="0"
     fit-margin-left="0"
     fit-margin-right="0"
     fit-margin-bottom="0" />
  <path
     style="fill:#000000;stroke-width:1.33333337"
     d="m 0,231.62022 c 17.8386,61.0319 58.0194,114.0961 68.0733,176.8568 23.8628,73.9323 42.0487,153.9643 102.7205,207.8234 83.5624,90.4307 215.1485,130.4919 275.6045,243.7689 54.67695,53.98549 80.71009,97.93341 124.0888,27.7172 72.61588,84.77377 125.5964,14.6667 125.5964,14.6667 56.1932,11.3629 102.6925,-35.3729 157.6375,-24.1195 69.5691,-0.4947 120.4116,-78.4344 200.7028,-62.4963 61.8473,1.7389 32.5386,-32.3559 -11.217,-18.076 -73.0714,12.6967 -46.9683,-14.5522 -3.9915,-43.4194 44.4941,-79.968 140.9345,-26.4343 211.6058,-31.5073 56.2733,-20.4495 157.6031,24.8413 187.7438,-3.5835 -34.9549,-26.8829 -92.8167,-64.4981 -113.1941,-82.7341 41.0748,-8.5374 117.3617,-34.0231 32.5649,-52.3401 -66.0857,-20.8294 -138.8875,33.5391 -197.1618,19.0202 70.6607,-49.1099 150.8225,-84.7839 227.6289,-121.3459 -6.6704,-35.2502 -125.9362,-3.9099 -45.5413,-38.4552 42.7698,-14.0367 136.2118,-78.4031 42.9681,-92.9921 -59.0532,3.2697 -113.6249,50.3723 -155.4076,75.6552 -3.7458,-68.1071 -130.6957,-58.0136 -187.35,-64.4847 -39.0775,4.5765 -71.9439,9.3282 -44.6368,-42.4906 28.9696,-87.4391 -94.5849,37.6447 -66.1509,-39.3078 -32.037,-34.8142 -84.0275,29.7723 -76.6554,-37.1548 -49.819,-2.6267 -93.2364,55.7575 -123.6908,92.7027 -24.5901,26.7285 -57.4074,147.256 -86.5142,93.9294 27.1689,-91.8986 62.0114,-182.0371 82.3296,-275.604 42.0394,-92.8239 -66.2561,-49.4884 -100.7246,-21.7848 -57.1247,-17.6961 -118.4354,122.122 -146.6258,75.9219 4.7679,-48.4516 -57.7166,-179.5634 -84.854,-75.5575 -8.7039,27.6433 -1.0324,115.0211 -35.9219,47.9047 -57.7749,-41.8037 -94.6674,-94.0728 -83.7739,-168.6143 -34.6026,-52.0954 -67.7252,90.4473 -56.0413,72.3168 -72.2351,-59.3802 -78.6056,45.9174 -31.3695,83.2836 52.2756,60.153 67.6538,140.0124 101.6098,210.6667 10.8193,43.1047 49.4301,95.1428 58.4808,126.9152 C 265.7407,446.18092 197.3097,371.08722 127.809,298.05022 95.8966,284.02762 15.5787,186.34482 0,231.62022 Z m 29.8047,17.1498 c 35.878,59.2583 62.5763,126.8607 116.1458,174.0382 81.0626,82.3052 204.1002,120.1362 264.9375,223.7688 37.0306,73.0926 0.5386,-46.1968 -34.9167,-58.593 -53.5793,-51.4013 -115.8696,-94.059 -178.5494,-133.9442 -60.8471,-48.3831 -115.0402,-111.0719 -138.7729,-186.3445 64.6815,34.2099 107.7585,97.1994 158.6319,146.9587 59.2797,57.8517 129.6548,102.644 187.5147,161.9245 30.1212,-16.4336 -56.9104,-75.2697 -58.7907,-116.1253 -39.5348,-73.7968 -69.7605,-153.0291 -98.3648,-231.9077 -12.5682,-60.3284 -22.9655,-161.4892 9.5633,-199.9379 -19.6822,105.3258 15.689,210.1361 57.2817,305.8456 29.0549,75.912 57.2096,153.6734 99.0314,222.808 2.2787,-41.7171 -61.5077,-123.1213 -73.7759,-183.2274 -31.9359,-90.8469 -84.3036,-182.6228 -74.2364,-281.4318 28.4149,108.1908 67.4865,214.0369 118.5411,313.5992 14.6612,71.7192 73.6978,134.2327 56.577,209.1419 -4.1481,32.4648 29.0846,123.345 -26.5236,62.4105 C 312.53,579.93742 190.033,503.93982 103.7611,391.18512 66.0339,354.00952 35.3597,299.73012 29.8047,248.77002 Z m 58.9821,169.6637 c 48.785,62.0563 54.2117,156.2816 133.3475,192.1729 57.1047,37.442 113.9596,77.3653 172.1162,113.8902 55.98,13.2186 55.7851,118.2172 101.6328,112.7926 -9.5315,-50.6935 -84.4192,-117.5113 -70.4614,-128.4808 20.5103,32.2535 70.3517,46.7941 41.5329,-5.6259 -11.5663,-30.5722 -18.4752,-146.235 10.7682,-60.9761 32.0217,27.1274 8.1671,121.1727 39.7714,118.6379 -5.2279,-41.0242 8.7252,-63.8507 12.0425,-8.6105 3.5439,35.2069 26.4254,64.7195 35.7065,10.2206 26.6923,-59.774 -13.009,85.9325 24.5674,102.4438 5.6859,-48.3338 10.5856,-115.3064 36.9364,-166.5548 22.5767,-63.2332 12.2304,95.5557 20.796,125.7512 -25.8934,27.875 -12.0879,74.7945 14.3487,22.5832 22.548,-26.3672 79.0715,-92.832 43.7085,-18.8028 -44.9807,97.6244 185.45483,-18.76037 219.92923,-30.50917 80.77457,-21.2694 76.41927,-34.6197 123.22557,-76.78043 -13.8601,39.351 -98.63165,62.64448 -73.57205,90.58768 -59.285,17.5047 -98.67155,66.96122 -166.11945,53.57512 -46.2908,31.6353 -108.9244,2.4488 -144.9827,49.2557 -52.5684,20.0777 -95.6315,-68.8548 -129.9981,-16.7308 -65.3401,-31.013 -85.6771,-62.0694 -135.3277,-119.7513 C 328.3885,702.93922 224.6278,669.32742 162.64,585.11982 123.153,538.47802 101.583,477.13832 88.7868,418.43372 Z m 31.8512,16.9873 c 81.1105,93.3811 187.7128,158.0632 272.8361,246.7414 -3.9349,52.736 -84.9192,-47.1632 -120.3768,-55.0426 -62.877,-37.9752 -119.2887,-84.4875 -137.7388,-159.3333 -1.0235,-5.3352 -22.9971,-33.5448 -14.7205,-32.3655 z m 53.7839,-348.0642 c 67.2285,-20.7329 60.0615,149.4933 21.3806,57.5129 -6.5312,-17.5901 -29.4819,-37.9135 -21.3806,-57.5129 z m 125.8562,61.0964 c 61.4465,41.8231 97.1361,107.3208 118.6463,176.1049 35.6515,35.9006 -39.0326,66.5105 -34.9496,49.2284 -36.786,-70.6396 -66.1144,-148.1135 -83.6967,-225.3333 z m 101.7392,48.8712 c -0.059,-30.587 16.8067,-109.3923 31.6112,-38.562 3.7114,33.2365 15.8739,144.3896 -8.7961,133.6908 -11.3864,-31.5642 -33.2548,-59.8938 -22.8151,-95.1288 z m 11.5894,189.1281 c 45.7225,28.6499 82.7629,91.0589 58.7178,150.3587 11.6745,93.7731 -44.7383,-49.6921 -50.8542,-79.858 -2.0196,-24.0153 -14.3007,-46.1503 -7.8636,-70.5007 z m 13.9725,-272.666 c 2.2985,4.6275 -6.2249,2.2003 0,0 z m 10.2219,12 c 30.3571,28.344 40.3339,156.7805 9.4343,133.6635 0.7669,-44.7123 3.4278,-91.4827 -9.4343,-133.6635 z m 3.7718,250.8404 c -9.8679,-58.7258 30.827,-118.1897 78.4798,-153.484 31.7747,-30.3366 129.0634,-127.7785 107.1051,-20.426 -19.0048,80.6724 -56.8434,162.1882 -117.5618,218.4915 -22.4721,67.9844 -55.6991,-31.2248 -68.0231,-44.5815 z m 49.2148,25.4143 c 27.9704,-49.2771 42.7475,-123.6398 80.6872,-175.5128 21.9708,-17.8237 56.7258,-98.0861 14.2803,-40.7232 -43.0378,64.7803 -82.265,138.9811 -94.9675,216.236 z m 66.8564,-89.1436 c 31.1102,-7.9924 21.5636,-79.9541 1.0502,-10.9054 l -1.8565,6.2684 z m -86.9124,270.697 c 16.9372,8.5963 -2.1595,33.331 0,0 z m 21.2366,-63.1414 c -1.7724,-50.2871 43.2785,-127.4607 83.3117,-124.54 -44.7237,91.5668 -42.379,197.9201 -41.3801,297.3233 -33.6735,-43.208 -45.5342,-99.3102 -42.9748,-155.1416 l 0.364,-8.1737 z m 58.5221,30 c 6.1541,-35.1712 15.816,-111.2128 36.3668,-125.0923 -28.5441,78.6886 18.7958,163.5823 -18.1428,241.0923 -24.7207,92.6099 -16.9178,-62.4824 -18.9404,-94.339 l 0.3233,-10.9201 0.393,-10.7409 z m 0.4075,161.4424 c 27.1692,0.9396 -5.4319,42.0461 0,0 z m 27.8988,-39.4424 c 10.5131,-14.7933 -8.2073,25.0164 0,0 z m -0.4891,-312.4092 c 30.6936,-47.2568 46.836,-101.9091 80.5407,-146.0875 13.8735,-38.625 77.2006,-122.0377 46.2549,-30.17 -26.6546,96.6061 -64.2939,190.1412 -85.588,288.414 27.8126,39.6102 -20.1872,140.4512 -27.7427,142.2527 3.2344,-80.835 -26.2299,-172.2824 32.9994,-241.3492 15.0618,-29.1599 -53.154,0.2302 -46.4643,-13.06 z m 13.0699,44.2236 c 9.9793,-6.122 -8.9721,13.694 0,0 z m 1.6466,301.4404 c 8.5334,-92.6115 50.0483,-180.2464 97.2232,-260.1336 32.8531,-67.1985 68.5758,-146.5094 140.6746,-178.0656 -49.4025,103.0498 -96.532,210.6398 -150.0932,313.1421 -57.6396,23.6593 -60.7671,105.6495 -87.4706,150.1829 0.282,-8.1106 -6.6511,-17.6986 -0.334,-25.1258 z m 53.4352,-509.4362 c -8.326,-41.451 24.1967,-90.3894 66.1205,-80.344 -19.1688,9.4902 -67.7078,115.177 -66.1205,80.344 z m 1.9922,279.4382 c 29.6959,-24.6295 -7.7258,26.4274 0,0 z m 5.756,159.9017 c 24.2356,-47.6382 67.5057,-100.0587 84.6121,-157.2808 29.7616,-63.79 60.905,-127.4182 92.2419,-190.152 30.6373,-83.3926 -4.4926,71.8336 -19.4433,94.6794 -38.6794,115.3215 -80.9213,233.2738 -152.5104,331.9252 -7.5953,-24.3795 -3.3954,-53.2511 -4.9003,-79.1718 z m 6.2502,129.1703 c 8.33,-59.9002 65.3682,-106.8602 105.6622,-152.8019 63.3959,-69.9232 113.7903,-152.5522 142.6353,-242.7125 9.9197,-26.2213 81.0765,-88.597 41.8768,-24.6582 -43.618,98.2382 -87.7563,196.7923 -142.2607,289.5013 -13.9329,34.2342 -84.8843,71.3446 -66.6362,98.5769 47.9202,-54.1244 89.8597,-114.5213 121.4079,-180.3832 38.9205,-76.9508 68.8499,-159.4332 112.4565,-234.3068 21.0532,-37.956 -7.6137,70.4339 -3.1775,91.0866 -17.0863,69.4849 -28.8841,141.2775 -65.5852,203.9402 -33.7007,77.6988 -84.5329,146.7765 -153.6483,196.5849 -25.2697,27.4979 -46.4248,43.2268 -20.4069,-5.1561 23.5531,-30.8987 29.1727,-85.9876 -16.8227,-36.8907 -29.0583,25.3183 -63.2141,83.1279 -56.7918,11.5573 z m 76.0859,-150.8363 c 48.1368,-100.7583 83.4059,-206.3227 116.4598,-312.6829 21.2435,1.3346 93.1298,-38.3752 40.7447,5.1933 -23.8854,23.6896 -47.2651,91.096 -10.983,28.0233 58.9232,-81.2868 1.3957,61.3829 -11.3342,89.9738 -32.5591,74.455 -78.25,146.6137 -139.0499,200.1887 l 0.1022,-3.4107 z m 65.6472,169.9593 c 45.2725,-37.7645 57.8416,-83.3945 117.2836,-78.7734 96.6998,-61.8713 203.3083,-105.4153 302.3285,-163.3658 48.4635,-16.751 -105.8702,65.8842 -87.0477,57.0496 -72.693,40.5903 -145.4184,80.0163 -216.0728,123.9044 -32.9717,29.1588 -86.8248,68.3487 -116.4916,61.1852 z m 84.5644,-102.6006 c 7.7386,0.8003 -8.4216,7.4784 0,0 z m 9.6667,17.9532 c 69.9898,-41.4688 128.89,-101.9349 205.4438,-133.4711 56.4001,-43.188 126.4656,-65.7285 194.1621,-83.024 62.0369,-19.3228 54.7838,16.8337 1.2216,21.5416 -105.1762,35.6508 -197.0258,101.0274 -299.1609,144.8763 -13.4677,5.2059 -125.9593,80.1151 -101.6666,50.0772 z m 2.0424,-25.5836 c 36.4164,-49.7096 83.1437,-97.7967 139.5912,-127.9594 34.8464,-20.5891 115.8367,-53.2109 130.9078,-59.2843 -58.278,46.7863 -113.6599,93.0708 -179.1895,129.8625 -30.7722,10.1941 -67.8431,61.0432 -91.3095,57.3812 z m 10.6242,74.89 c 63.7529,-43.4287 129.3038,-81.9575 208.4061,-83.5432 59.4771,-12.0008 141.1399,-34.0263 183.7757,-54.1428 -83.8849,15.1432 -163.2195,54.1944 -249.9493,54.5609 46.7467,-36.135 90.2986,-63.4725 138.1009,-43.6652 43.9172,-11.3822 161.8332,-45.2407 169.3705,-11.2763 -79.3295,15.5825 -170.964,72.53342 -249.2584,87.71882 -81.9446,-6.59048 -162.00102,84.0167 -229.25468,64.8004 l 23.14258,-9.07442 z M 924.59,602.65622 c 23.014,-50.6813 33.6764,-101.712 92.7483,-117.3962 41.7787,-22.769 154.8258,-61.6662 165.7204,-37.0811 -65.9328,57.5197 -158.3587,70.5955 -221.2817,132.5722 -7.412,3.8989 -56.0007,62.4828 -37.187,21.9051 z m 39.1001,-110.6084 c 15.1365,-57.1143 14.4319,-138.0927 96.3984,-113.981 44.0891,7.5063 135.871,0.6512 144,43.9325 -70.1153,2.2846 -139.118,33.298 -202.4012,52.9615 -9.7684,2.5122 -48.3834,57.4726 -37.9972,17.087 z m 212.819,201.0604 c 54.8717,-16.1943 118.0041,-62.9062 173.1834,-20.1238 27.5438,19.5533 90.0677,54.086 17.1988,35.1379 -54.1978,-9.2483 -169.1219,10.0567 -190.3822,-15.0141 z m 88.1805,-3.3217 c 26.6859,3.0303 115.5073,10.8633 39.4623,-2.5684 -6.5076,-4.279 -82.2531,-2.7662 -39.4623,2.5684 z m -79.4053,-195.7329 c 55.6843,-53.8888 118.1092,-115.8518 198.0609,-125.3795 44.9301,18.4611 -98.4335,44.4708 -114.8794,80.2575 -0.7753,11.8654 119.042,-70.8897 102.0873,-40.3035 -58.877,24.4844 -101.3345,72.4249 -165.4908,83.8251 -6.742,-0.105 -26.8538,14.2804 -19.778,1.6004 z"
     id="path879"
     inkscape:connector-curvature="0"
     sodipodi:nodetypes="ccccccccccccccccccccccccccccccccccccccccccccccccccccccccccccccccccccccccccccccccccccccccccccccccccccccccccccccccccccccccccccccccccccccccccccccccccccccccccccccccccccccccccccccccccccccccccccccccccccccccccccccccccccccccccccccccccccccccccccccc" />
  <path
     style="fill:#ffd42a;fill-opacity:1;stroke:none;stroke-width:3.15264797;stroke-miterlimit:4;stroke-dasharray:none"
     d="m 721.78553,832.1181 c 0.0243,-1.4028 5.63782,-12.81138 12.4743,-25.35236 15.4682,-28.37525 20.52251,-45.71709 15.86224,-54.42489 -1.85985,-3.47516 -5.67168,-6.31847 -8.47073,-6.31847 -2.79906,0 -20.20581,14.89626 -38.68168,33.1028 -18.47586,18.20654 -35.17543,33.1028 -37.11014,33.1028 -10.41336,0 -5.90426,-53.05755 6.88278,-80.98815 11.39259,-24.88467 22.29464,-39.21021 67.92492,-89.25484 49.72779,-54.53853 78.81714,-91.35236 103.00719,-130.36002 21.03496,-33.91993 51.05726,-95.92888 60.56396,-125.09059 3.99121,-12.24298 11.80823,-26.74968 19.29867,-35.81415 12.46051,-15.07894 34.57524,-34.58637 36.74702,-32.41459 0.61864,0.61864 -5.12539,14.4692 -12.7645,30.77902 -7.63912,16.30983 -25.54349,55.19068 -39.7875,86.40189 -31.35775,68.71055 -62.04933,129.6051 -89.6608,177.89423 -15.85243,27.72399 -27.09316,42.64734 -48.78259,64.76439 -27.20851,27.74497 -34.63659,40.13353 -30.51062,50.88566 2.66081,6.93397 6.48018,3.47655 33.10356,-29.96626 50.33236,-63.22475 81.50263,-118.60966 142.12994,-252.54375 34.06105,-75.24554 62.56139,-130.8422 65.54414,-127.85943 3.42003,3.42001 -9.19924,88.59281 -20.34503,137.31737 -16.40667,71.72293 -29.48597,109.15161 -57.69812,165.11322 -33.76485,66.97593 -55.13519,98.03106 -94.64769,137.54099 -45.70634,45.70334 -85.18921,79.80569 -85.07932,73.48513 z"
     id="path902"
     inkscape:connector-curvature="0" />
  <path
     style="fill:#ffd42a;fill-opacity:1;stroke:none;stroke-width:3.15264797;stroke-miterlimit:4;stroke-dasharray:none"
     d="m 741.57294,608.88219 c 0.98536,-3.46791 9.5396,-24.03894 19.00943,-45.7134 22.91871,-52.45611 54.17902,-136.99531 76.06608,-205.71028 14.35622,-45.07171 18.92381,-55.9595 23.47582,-55.9595 3.1084,0 13.89863,-2.83738 23.97829,-6.30529 25.55575,-8.79247 26.70461,-8.11449 12.01995,7.09345 -14.01501,14.51443 -32.51216,45.25714 -32.51216,54.03599 0,7.9904 5.03632,3.5815 16.94796,-14.83658 12.96196,-20.04213 27.18911,-34.00407 27.18911,-26.68229 0,7.72739 -12.11875,45.15019 -25.56454,78.94352 -25.91483,65.13179 -62.18979,129.29595 -98.45501,174.14996 -25.1261,31.07678 -44.76495,50.17032 -42.15493,40.98442 z"
     id="path904"
     inkscape:connector-curvature="0" />
  <path
     style="fill:#ffd42a;fill-opacity:1;stroke:none;stroke-width:3.15264797;stroke-miterlimit:4;stroke-dasharray:none"
     d="m 657.57725,701.84754 c -1.12292,-5.61459 -2.04167,-22.88728 -2.04167,-38.38378 v -28.1754 l 28.30831,-46.79009 c 28.40849,-46.95565 47.69925,-83.1442 52.15505,-97.84038 1.31432,-4.33489 20.83652,-46.18629 43.38269,-93.00312 66.85736,-138.82846 62.60163,-130.50433 60.44235,-118.22429 -4.28615,24.37563 -17.80732,74.54765 -24.97653,92.67851 -4.18438,10.58227 -15.60578,41.93955 -25.38087,69.68286 -36.53717,103.69839 -71.67319,180.16153 -110.22466,239.8713 -19.58559,30.33478 -19.6269,30.37324 -21.66467,20.18439 z"
     id="path906"
     inkscape:connector-curvature="0" />
  <path
     style="fill:#ffd42a;fill-opacity:1;stroke:none;stroke-width:3.15264797;stroke-miterlimit:4;stroke-dasharray:none"
     d="m 592.48262,721.21539 c 0,-1.71085 1.49744,-14.2081 3.32764,-27.77174 7.85017,-58.17755 31.44011,-126.62736 66.62223,-193.31459 10.52383,-19.94777 31.57006,-60.01035 46.76939,-89.02795 29.26512,-55.87108 51.04381,-88.09053 73.59658,-108.87895 15.69147,-14.46389 39.25012,-30.72521 41.39943,-28.57589 1.49506,1.49505 -60.18221,134.37331 -112.67525,242.74895 -24.50189,50.5859 -31.7338,62.87543 -39.30312,66.78967 -11.75592,6.07922 -30.36885,26.57768 -38.23352,42.10664 -3.33269,6.58046 -12.79524,30.78943 -21.02789,53.7977 -13.21471,36.93192 -20.47549,51.8702 -20.47549,42.12616 z"
     id="path908"
     inkscape:connector-curvature="0" />
  <path
     style="fill:#ffd42a;fill-opacity:1;stroke:none;stroke-width:3.15264797;stroke-miterlimit:4;stroke-dasharray:none"
     d="m 553.50801,682.77238 c -1.1054,-5.52699 -2.00981,-37.2881 -2.00981,-70.58025 0,-46.5925 1.44018,-68.52928 6.25424,-95.26431 5.24866,-29.14858 17.57441,-76.70768 19.88178,-76.71416 0.36382,-10e-4 0.72982,20.92468 0.81333,46.50156 0.0835,25.57688 0.71414,67.78379 1.4014,93.79314 1.23351,46.68307 1.11759,47.67393 -9.03626,77.23987 -5.65719,16.47259 -11.41284,31.10285 -12.79033,32.51169 -1.3775,1.40883 -3.40895,-1.96056 -4.51435,-7.48754 z"
     id="path910"
     inkscape:connector-curvature="0" />
  <path
     style="fill:#ffd42a;fill-opacity:1;stroke:none;stroke-width:3.15264797;stroke-miterlimit:4;stroke-dasharray:none"
     d="m 522.00455,672.66856 c -23.30004,-38.90441 -33.69833,-95.78833 -28.08425,-153.63508 3.08761,-31.81436 4.87973,-38.57099 16.39355,-61.80685 13.70586,-27.65957 36.17987,-53.46671 49.46489,-56.80104 4.27698,-1.07345 8.43808,-1.28999 9.24689,-0.48119 0.8088,0.80881 -2.02646,10.76124 -6.30058,22.11653 -20.3795,54.14334 -27.22245,98.23393 -29.72901,191.55023 l -1.99005,74.08723 z"
     id="path912"
     inkscape:connector-curvature="0" />
  <path
     style="fill:#2d5016;fill-opacity:1;stroke:none;stroke-width:3.18278384;stroke-miterlimit:4;stroke-dasharray:none"
     d="m 633.3936,917.99022 c -4.82895,-1.55 -21.54511,-9.87569 -35.27856,-18.03409 -32.40434,-19.25 -38.14457,-19.19954 -51.41441,-7.88524 L 532.46509,903.68151 512.19866,890.3283 C 483.73971,874.9582 462.33922,855.72639 425.82869,812.50489 389.08823,769.01099 357.49238,743.66897 299.78617,704.56383 189.8627,630.07311 141.13811,577.70161 109.89808,504.25487 96.509391,472.77735 86.359246,422.44617 88.280926,416.83785 c 0.71548,-2.08822 19.686394,18.97214 37.270864,55.36277 34.71203,71.83556 53.59894,112.67805 83.56939,130.30529 7.99923,4.70475 52.73055,34.1944 99.4029,65.53258 46.67247,31.33813 86.90469,56.97853 89.40498,56.97853 9.84912,0 41.64684,25.37518 55.89402,55.65658 17.49695,37.1886 21.4314,53.4215 33.96184,53.4215 8.26857,0 3.39804,2.39152 1.06701,-5.84438 -4.36917,-15.437 -15.40656,-30.17648 -41.7744,-67.98838 -14.07411,-20.1825 -25.97149,-47.46666 -25.97149,-48.95316 0,-1.4867 4.41203,-3.90955 11.20585,1.62285 7.67945,6.2534 23.99519,22.47969 30.56709,22.79359 9.69506,0.4631 10.65171,-0.3409 11.54662,-9.7037 0.53666,-5.6146 -4.92904,-17.8585 -7.4708,-22.8392 -7.40849,-14.51688 -14.2798,-40.58395 -10.18331,-67.94742 l 4.06599,-27.15976 8.93372,17.62131 c 4.91355,9.69172 20.24577,18.34343 23.50185,24.51088 3.75139,7.10562 5.08506,30.4022 8.02186,56.11389 5.05211,44.2314 2.20427,53.938 12.04028,53.938 5.49561,0 2.24826,0.5849 2.52754,-9.343 -2.51574,-11.6065 3.26348,-38.16022 6.64039,-31.78432 1.29025,2.436 4.90315,7.70303 6.16027,18.24413 4.18247,35.0716 14.82297,61.95349 26.99842,51.71439 2.444,-2.0553 -5.63392,-27.0955 1.77828,-33.70219 27.73406,-24.72007 10.06177,-7.05713 17.85883,-8.56251 3.95972,-0.76451 3.48199,18.5998 2.27179,36.6616 -2.4407,36.4263 -1.10739,50.78051 7.30204,60.19631 7.34048,8.219 2.17488,18.78491 2.19186,8.52431 0.0285,-17.628 9.8103,-89.15542 16.18189,-110.83452 9.41018,-32.0177 33.38665,-72.90718 36.40901,-67.40551 1.34036,2.43981 6.58686,46.96371 8.14858,83.08741 2.6194,60.5872 4.98917,58.1727 -0.26089,67.0391 -7.11808,12.0212 -12.58306,27.32763 -5.81598,29.95883 5.94525,2.3118 11.05768,7.24267 20.16468,-7.37563 9.8085,-15.7443 55.28813,-62.39697 57.86703,-59.85897 1.1688,1.1503 3.72234,21.87838 -1.79946,35.31858 -5.5218,13.4403 -11.5649,18.24779 -12.6061,28.72769 -0.9601,9.6637 8.42067,6.33974 18.15937,5.88734 7.3937,-0.3435 5.35994,0.76966 38.78514,-21.96634 30.3941,-20.6744 52.169,-33.2082 62.0898,-35.7395 8.4034,-2.1441 71.0178,-5.91829 108.44861,-23.36342 79.44391,-37.02587 115.14041,-61.74316 119.13901,-57.69136 3.3267,3.3709 -18.3474,28.3664 -47.9489,50.5176 -27.71143,20.7369 -28.10621,26.44547 -28.10621,39.26027 0,6.0394 -18.35923,14.06642 -59.72553,34.87162 -52.2372,26.2725 -69.75368,31.56733 -92.96428,28.91633 -10.1987,-1.1648 -13.9781,-0.74838 -21.8072,3.22232 -14.4805,7.3411 -25.0425,11.15914 -60.9273,15.21334 -37.6753,4.2564 -56.00882,4.8004 -68.43452,17.1104 -10.6339,10.5347 -24.43045,15.4566 -38.66776,10.8863 z"
     id="path916"
     inkscape:connector-curvature="0"
     sodipodi:nodetypes="sscccssscsssssscssssccscscsscccssscscscscscccssscscsssscscs" />
  <path
     style="fill:#ffd42a;fill-opacity:1;stroke:none;stroke-width:3.15264797;stroke-miterlimit:4;stroke-dasharray:none"
     d=""
     id="path918"
     inkscape:connector-curvature="0" />
  <path
     style="fill:#ffd42a;fill-opacity:1;stroke:none;stroke-width:3.15264797;stroke-miterlimit:4;stroke-dasharray:none"
     d="m 362.3393,686.79041 c -7.8028,-4.95836 -27.965,-19.79259 -44.8049,-32.96496 -16.8399,-13.17237 -33.8642,-24.96157 -37.8318,-26.19823 -14.2083,-4.42859 -64.2043,-41.22566 -85.948,-63.25784 -25.213,-25.54737 -39.1946,-47.23747 -51.9042,-80.5203 -4.8603,-12.72774 -9.9669,-25.97873 -11.348,-29.44664 -1.381,-3.46791 11.5579,7.22292 28.7533,23.7574 17.1954,16.53449 65.3129,58.51127 106.9279,93.28173 98.0498,81.92341 125.13701,107.26779 123.9004,115.92857 -1.4063,9.8489 -11.671,9.63441 -27.7447,-0.57973 z"
     id="path920"
     inkscape:connector-curvature="0" />
  <path
     style="fill:#ffd42a;fill-opacity:1;stroke:none;stroke-width:3.15264797;stroke-miterlimit:4;stroke-dasharray:none"
     d="M 405.50802,667.99434 C 389.5546,652.82222 338.225,608.50718 291.442,569.51649 181.5941,477.96495 127.2341,423.8768 76.3974,355.54742 56.8126,329.22347 29.9947,270.23821 35.2307,265.00219 c 0.865,-0.86499 11.1497,15.85976 22.855,37.16611 32.4389,59.04674 51.982,86.70041 82.4971,116.73425 34.9272,34.37635 50.1812,46.12579 126.89,97.73723 72.8249,48.99826 119.3832,91.95054 141.84876,130.86235 7.2579,12.57118 14.64793,22.85669 16.42224,22.85669 8.38661,0 -17.84673,-55.00566 -33.92407,-71.13146 C 359.0239,566.33273 292.3794,514.49087 231.077,474.1877 160.962,428.09075 109.6459,372.7247 77.9656,308.99258 69.0367,291.03005 62.6243,275.44044 63.7157,274.34901 c 4.0671,-4.06708 42.8447,27.68508 77.9383,63.8179 82.1873,84.62125 108.3697,109.27243 164.5234,154.90172 32.4003,26.32779 68.0485,56.41761 79.2181,66.86627 17.41023,16.28636 20.86664,18.32502 24.21945,14.28515 2.15099,-2.59182 3.18474,-7.4893 2.29717,-10.88331 -0.88753,-3.39399 -0.15984,-6.65553 1.61706,-7.24785 C 419.4816,554.10474 406.5704,519.14534 381.098,468.27545 367.3992,440.918 350.6135,402.48713 343.7965,382.87352 336.9795,363.25991 322.1892,323.804 310.9292,295.19372 279.4803,215.2864 269.728,179.11706 266.3015,129.6797 c -2.164,-31.22315 -0.9521,-28.79284 22.0107,44.13707 20.9606,66.57127 44.7409,127.96216 73.0834,188.67142 11.2079,24.00729 22.5,50.79511 25.0936,59.52848 2.5935,8.73337 13.70841,36.61722 24.69974,61.9641 27.9533,64.46238 30.72952,75.53767 29.58287,118.01553 -0.52347,19.39285 0.26167,48.38262 1.74461,64.42171 3.4944,37.79218 1.17613,37.89092 -37.0084,1.57633 z"
     id="path922"
     inkscape:connector-curvature="0" />
  <path
     style="fill:#ffd42a;fill-opacity:1;stroke:none;stroke-width:3.15264797;stroke-miterlimit:4;stroke-dasharray:none"
     d="m 375.3617,510.42045 c -10.6908,-13.47035 -22.2245,-31.92362 -25.6305,-41.00728 -3.4059,-9.08369 -11.0085,-26.10799 -16.8946,-37.83177 -35.982,-71.66783 -82.5692,-193.60941 -88.5913,-231.88676 -10.2132,-64.91702 -9.0699,-121.85198 2.9711,-147.95863 4.6329,-10.04463 4.7295,-9.63261 3.4923,14.89072 -1.9733,39.11337 3.9097,90.58751 15.547,136.0312 12.0077,46.8904 81.7376,227.89633 112.0416,290.83933 10.3522,21.50216 18.30026,39.61684 17.66229,40.25481 -0.63797,0.63797 -9.90699,-9.86127 -20.59789,-23.33162 z"
     id="path924"
     inkscape:connector-curvature="0" />
  <path
     style="fill:#ffd42a;fill-opacity:1;stroke:none;stroke-width:3.15264797;stroke-miterlimit:4;stroke-dasharray:none"
     d="m 210.5056,166.93223 c -9.708,-11.08534 -38.1953,-69.84567 -36.2806,-74.8354 2.4718,-6.44142 17.4989,-6.46429 26.67,-0.0406 16.8223,11.78284 29.3203,61.15791 18.9527,74.87599 -4.1815,5.53297 -4.4965,5.53297 -9.3421,0 z"
     id="path926"
     inkscape:connector-curvature="0" />
  <path
     style="fill:#ffd42a;fill-opacity:1;stroke:none;stroke-width:3.15264797;stroke-miterlimit:4;stroke-dasharray:none"
     d="m 369.0753,340.34701 c -21.602,-46.77812 -42.1328,-100.89093 -54.0837,-142.54767 -14.4677,-50.4297 -13.7474,-51.09821 19.3044,-17.91533 27.7226,27.83259 52.4707,66.09894 67.66464,104.62548 6.07854,15.41308 14.41174,34.93797 18.51822,43.38863 6.09696,12.54685 6.8827,17.03901 4.28418,24.49315 -3.15791,9.05877 -25.16694,24.87704 -34.32687,24.6713 -2.56737,-0.0577 -11.60977,-15.59983 -21.36087,-36.71556 z"
     id="path928"
     inkscape:connector-curvature="0" />
  <path
     style="fill:#ffd42a;fill-opacity:1;stroke:none;stroke-width:3.15264797;stroke-miterlimit:4;stroke-dasharray:none"
     d="m 465.41669,560.69716 c -12.03845,-13.30233 -34.99921,-73.84941 -44.97369,-118.5947 -8.18129,-36.70111 -9.54827,-52.32931 -4.5772,-52.32931 1.69626,0 11.05252,7.96842 20.79169,17.70759 31.55409,31.55408 47.82694,77.5883 39.16439,110.79204 -2.14458,8.22022 -3.65548,22.39399 -3.35755,31.49726 0.29792,9.10327 -0.0208,16.5514 -0.70803,16.5514 -0.68734,0 -3.54016,-2.53092 -6.33961,-5.62428 z"
     id="path930"
     inkscape:connector-curvature="0" />
  <path
     style="fill:#ffd42a;fill-opacity:1;stroke:none;stroke-width:3.15264797;stroke-miterlimit:4;stroke-dasharray:none"
     d="m 478.04177,434.08494 c -4.29623,-5.10577 -14.53919,-21.62567 -22.76214,-36.71088 -14.42355,-26.46034 -14.88635,-28.11812 -13.1226,-47.00569 3.3215,-35.56925 21.63017,-71.48622 51.93116,-101.87578 27.84136,-27.92276 82.58374,-74.65559 97.60008,-83.31988 15.77735,-9.10338 30.38723,-11.22203 34.25295,-4.96717 8.33161,13.48083 -7.04394,79.23785 -31.5451,134.9098 -16.51478,37.52513 -48.60507,86.75359 -70.95205,108.84473 -8.77018,8.66978 -15.97665,17.34528 -16.01436,19.27889 -0.10805,5.53891 -12.68876,20.12921 -17.35672,20.12921 -2.32094,0 -7.73499,-4.17745 -12.03122,-9.28323 z m 25.62876,-54.55789 c 5.22962,-12.57118 15.82813,-39.21609 23.55224,-59.2109 18.46602,-47.80151 33.32902,-76.87909 48.97435,-95.81211 16.22473,-19.63416 33.88353,-54.84252 29.63646,-59.08958 -9.82605,-9.82606 -77.85272,107.0276 -99.69421,171.25097 -9.79662,28.80627 -17.91316,65.71832 -14.45072,65.71832 1.36042,0 6.75227,-10.28552 11.98188,-22.8567 z m 64.45918,-70.94035 c 11.07896,-12.24211 14.63015,-38.61417 5.19969,-38.61417 -3.46015,0 -13.59981,20.89291 -17.21284,35.46729 -2.54729,10.27537 4.00794,11.99253 12.01315,3.14688 z"
     id="path932"
     inkscape:connector-curvature="0" />
  <path
     style="fill:#ffd42a;fill-opacity:1;stroke:none;stroke-width:3.15264797;stroke-miterlimit:4;stroke-dasharray:none"
     d=""
     id="path934"
     inkscape:connector-curvature="0" />
  <path
     style="fill:#ffd42a;fill-opacity:1;stroke:none;stroke-width:3.15264797;stroke-miterlimit:4;stroke-dasharray:none"
     d="m 416.6894,269.18437 c -15.85063,-37.82913 -17.4479,-47.05625 -13.44573,-77.6736 4.31182,-32.98629 7.94877,-47.43938 13.99691,-55.62319 4.40612,-5.96197 4.77665,-5.75956 9.35375,5.10958 5.7014,13.53901 11.40854,65.37396 11.40854,103.61778 0,26.29886 -4.15597,47.42613 -9.32925,47.42613 -1.32392,0 -6.71682,-10.28552 -11.98422,-22.8567 z"
     id="path936"
     inkscape:connector-curvature="0" />
  <path
     style="fill:#ffd42a;fill-opacity:1;stroke:none;stroke-width:3.15264797;stroke-miterlimit:4;stroke-dasharray:none"
     d="m 450.3902,259.72643 c -0.12279,-0.43349 -0.66173,-21.35919 -1.19764,-46.50156 -0.53592,-25.14237 -1.92843,-52.09751 -3.09449,-59.90031 -2.08888,-13.97799 -2.04824,-14.06249 2.75913,-5.73764 16.24815,28.1367 19.85069,112.92767 4.79799,112.92767 -1.67295,0 -3.1422,-0.35468 -3.26499,-0.78816 z"
     id="path938"
     inkscape:connector-curvature="0" />
  <path
     style="fill:#ffd42a;fill-opacity:1;stroke:none;stroke-width:3.15264797;stroke-miterlimit:4;stroke-dasharray:none"
     d="m 647.26823,192.3182 c -2.95528,-11.77476 3.93333,-38.50986 13.47093,-52.28153 8.45584,-12.20967 29.45458,-24.54389 41.78544,-24.54389 h 7.1665 l -7.38652,8.77837 c -4.06258,4.82811 -17.07769,23.98045 -28.92247,42.56075 -11.84477,18.58031 -22.09749,33.78238 -22.78382,33.78238 -0.68633,0 -2.18486,-3.73324 -3.33006,-8.29608 z"
     id="path940"
     inkscape:connector-curvature="0" />
  <path
     style="fill:#ffd42a;fill-opacity:1;stroke:none;stroke-width:3.15264797;stroke-miterlimit:4;stroke-dasharray:none"
     d="m 590.97476,543.33908 c -1.33307,-37.78269 -1.48824,-75.74804 -0.34483,-84.36748 3.37555,-25.44618 13.51797,-53.84695 25.61717,-71.73315 16.21884,-23.97623 14.42757,-27.59851 -13.17687,-26.64614 l -22.29844,0.7693 26.75854,-52.788 c 14.7172,-29.03339 33.45954,-64.13753 41.64964,-78.00918 8.19011,-13.87165 19.7094,-33.51109 25.59843,-43.6432 11.82379,-20.34288 30.0745,-43.05462 34.59786,-43.05462 7.03463,0 1.8,19.32343 -44.83701,165.51402 -13.82896,43.34891 -29.99272,97.25919 -35.91948,119.80062 -10.14724,38.59337 -10.51219,41.72013 -6.25535,53.59502 2.48632,6.93583 4.58284,17.70376 4.65895,23.92872 0.20867,17.0668 -11.2721,58.43938 -23.10475,83.26131 l -10.5201,22.06854 z"
     id="path942"
     inkscape:connector-curvature="0" />
  <path
     style="fill:#ffd42a;fill-opacity:1;stroke:none;stroke-width:3.15264797;stroke-miterlimit:4;stroke-dasharray:none"
     d=""
     id="path944"
     inkscape:connector-curvature="0" />
  <path
     style="fill:#ffd42a;fill-opacity:1;stroke:none;stroke-width:3.15264797;stroke-miterlimit:4;stroke-dasharray:none"
     d="m 964.49508,498.96319 c 0,-13.26856 17.18707,-78.62176 24.52615,-93.25977 14.47287,-28.86667 27.46707,-33.0431 81.08757,-26.06212 15.6056,2.03173 42.375,5.17579 59.4875,6.98681 33.5279,3.54824 59.2439,12.48912 66.7517,23.208 6.5843,9.40037 5.7719,11.46352 -4.514,11.46352 -20.6893,0 -65.6296,11.11972 -128.1373,31.70538 -63.0015,20.74833 -67.00873,22.54828 -80.26072,36.05108 -14.56359,14.83921 -18.9409,17.12878 -18.9409,9.9071 z"
     id="path946"
     inkscape:connector-curvature="0" />
  <path
     style="fill:#ffd42a;fill-opacity:1;stroke:none;stroke-width:3.15264797;stroke-miterlimit:4;stroke-dasharray:none"
     d="m 923.51066,611.06575 c 0,-6.52056 30.9524,-72.72402 40.46551,-86.55084 13.08108,-19.01269 20.74952,-24.14668 63.78503,-42.70371 43.5946,-18.79812 57.3494,-23.81271 87.9976,-32.08111 22.5977,-6.09652 59.8237,-8.60368 64.1096,-4.31778 4.5834,4.58337 -34.7698,28.74988 -98.9509,60.76504 -77.5901,38.70389 -95.0873,49.85229 -131.39749,83.7202 -14.30514,13.34295 -26.00935,22.86864 -26.00935,21.1682 z"
     id="path948"
     inkscape:connector-curvature="0" />
  <path
     style="fill:#ffd42a;fill-opacity:1;stroke:none;stroke-width:3.15264797;stroke-miterlimit:4;stroke-dasharray:none"
     d="m 906.8026,665.9108 c 1.38663,-2.44641 12.10994,-15.6643 23.82958,-29.37309 34.42452,-40.26732 71.50082,-69.82187 118.98442,-94.84574 35.5831,-18.75232 97.6065,-45.90526 99.8144,-43.6973 4.4311,4.43105 -122.0184,96.00549 -162.41072,117.61751 -9.2856,4.96829 -25.60055,16.17374 -36.25545,24.90101 -25.25526,20.6862 -38.41258,29.84563 -42.87258,29.84563 -2.19774,0 -2.62417,-1.74068 -1.08965,-4.44802 z"
     id="path950"
     inkscape:connector-curvature="0" />
  <path
     style="fill:#ffd42a;fill-opacity:1;stroke:none;stroke-width:3.15264797;stroke-miterlimit:4;stroke-dasharray:none"
     d=""
     id="path952"
     inkscape:connector-curvature="0" />
  <path
     style="fill:#ffd42a;fill-opacity:1;stroke:none;stroke-width:3.15264797;stroke-miterlimit:4;stroke-dasharray:none"
     d=""
     id="path954"
     inkscape:connector-curvature="0" />
  <path
     style="fill:#ffd42a;fill-opacity:1;stroke:none;stroke-width:3.15264797;stroke-miterlimit:4;stroke-dasharray:none"
     d="m 902.68975,697.7591 c 3.28712,-2.06548 21.73011,-15.00248 40.98442,-28.7489 91.30853,-65.18878 106.23993,-75.20396 132.60223,-88.94245 15.5298,-8.09327 38.0018,-21.03242 49.9376,-28.75367 39.0016,-25.23001 95.041,-47.63186 163.5301,-65.37143 37.4052,-9.68844 52.5126,-9.17988 46.7574,1.57398 -2.0326,3.79789 -10.223,8.04515 -21.3499,11.07128 -38.7964,10.55132 -74.3202,25.62662 -139.4291,59.16974 -37.2801,19.20612 -97.5745,50.02596 -133.9875,68.48853 -36.4131,18.46257 -75.70012,39.42221 -87.30448,46.57699 -23.72742,14.62937 -51.52137,29.15654 -55.24808,28.87674 -1.35811,-0.10196 0.22018,-1.87534 3.50731,-3.94081 z"
     id="path956"
     inkscape:connector-curvature="0" />
  <path
     style="fill:#ffd42a;fill-opacity:1;stroke:none;stroke-width:3.15264797;stroke-miterlimit:4;stroke-dasharray:none"
     d="m 1211.7047,471.38551 c 15.4553,-14.54256 38.1544,-34.56997 50.4424,-44.50537 41.0648,-33.20282 114.5397,-64.41691 125.5742,-53.34731 5.1526,5.16903 -4.6793,12.85827 -28.9293,22.62473 -59.298,23.88164 -98.4557,47.75379 -90.8336,55.37586 0.9147,0.91476 17.0672,-6.49124 35.8943,-16.45777 50.0388,-26.48908 64.533,-33.39108 66.3357,-31.58846 0.8851,0.88514 -4.5103,4.73131 -11.9897,8.54705 -7.4795,3.81574 -30.0919,17.25869 -50.2497,29.87323 -46.9082,29.3545 -69.6709,40.76752 -93.7573,47.00892 -10.6428,2.75783 -21.8789,5.89082 -24.9691,6.96219 -3.0902,1.07137 7.0268,-9.95051 22.4821,-24.49307 z"
     id="path958"
     inkscape:connector-curvature="0" />
  <path
     style="fill:#ffd42a;fill-opacity:1;stroke:none;stroke-width:3.15264797;stroke-miterlimit:4;stroke-dasharray:none"
     d="m 835.27515,752.45424 c 31.36217,-33.9878 44.79566,-42.59943 71.94054,-46.11799 12.35067,-1.6009 24.41111,-6.76232 45.47959,-19.46353 34.58947,-20.8524 216.84142,-115.17742 218.78562,-113.23316 1.4853,1.48527 0.4126,2.11176 -107.6774,62.89045 -98.07651,55.14812 -139.17733,79.81512 -156.05608,93.65836 -24.04526,19.72091 -53.29899,38.48201 -71.99433,46.17166 -31.69156,13.03516 -31.7525,9.98708 -0.47794,-23.90579 z"
     id="path960"
     inkscape:connector-curvature="0" />
  <path
     style="fill:#ffd42a;fill-opacity:1;stroke:none;stroke-width:3.15264797;stroke-miterlimit:4;stroke-dasharray:none"
     d="m 1379.3365,708.97876 c -1.2974,-1.30046 -42.3212,-3.18069 -91.164,-4.17826 -61.5733,-1.2576 -92.0308,-3.07316 -99.3242,-5.9207 l -10.5191,-4.10691 35.7403,-14.14005 c 58.691,-23.22015 84.9599,-27.80824 110.1452,-19.23782 9.7599,3.32124 75.3458,45.69341 75.3458,48.6776 0,2.29156 -17.8074,1.32841 -20.224,-1.09386 z m -43.7097,-15.33037 c -3.8482,-3.84825 -42.1356,-10.46006 -61.198,-10.56822 -21.1795,-0.12018 -29.5857,4.82563 -12.8843,7.58046 25.4756,4.20209 77.3904,6.29583 74.0823,2.98776 z"
     id="path964"
     inkscape:connector-curvature="0" />
  <path
     style="fill:#ffd42a;fill-opacity:1;stroke:none;stroke-width:1.57632399;stroke-miterlimit:4;stroke-dasharray:none"
     d="m 887.72811,763.79776 c -4.54416,-1.04045 -4.33808,-1.22836 5.27331,-4.80846 5.50126,-2.04915 13.08911,-6.26607 16.86188,-9.37093 3.77278,-3.10487 16.22084,-11.59206 27.66235,-18.86043 64.33845,-40.87184 115.58075,-60.60111 166.76415,-64.20755 32.5914,-2.29643 127.6461,-27.3088 177.2634,-46.64452 11.4083,-4.44574 19.8512,-8.3802 18.762,-8.74323 -3.7331,-1.24438 -34.308,6.26071 -86.288,21.18074 -79.3968,22.78956 -108.7858,29.22536 -142.6574,31.24004 l -16.5514,0.98449 4.729,-4.08205 c 7.8474,-6.77388 30.7763,-22.06153 43.3489,-28.90261 26.886,-14.62927 54.6064,-19.07488 76.7599,-12.31022 l 9.7661,2.98212 35.9473,-8.84911 c 45.065,-11.09359 67.2838,-15.10534 90.3468,-16.31267 21.5091,-1.12598 33.8886,1.52518 39.3111,8.41879 l 3.2789,4.16838 -16.9683,4.32967 c -24.3955,6.22482 -48.4528,15.03851 -102.0897,37.40188 -87.8836,36.64213 -110.17,43.95498 -140.2929,46.03428 -33.5866,2.31838 -47.7419,7.03064 -106.40185,35.42074 -22.10794,10.69976 -45.51635,21.35868 -52.01869,23.68651 -20.6942,7.40849 -40.32651,10.10169 -52.80685,7.24414 z"
     id="path968"
     inkscape:connector-curvature="0" />
  <path
     style="fill:#ffd42a;fill-opacity:1;stroke:none;stroke-width:0.78816199;stroke-miterlimit:4;stroke-dasharray:none"
     d="m 648.0823,479.68339 c 0.33312,-2.50982 1.1002,-3.90795 3.05938,-5.57622 3.34866,-2.85143 8.52601,-5.55349 8.52601,-4.44973 0,2.87921 -8.51588,13.37564 -10.85182,13.37564 -0.93038,0 -1.08466,-0.7045 -0.73357,-3.34969 z"
     id="path970"
     inkscape:connector-curvature="0" />
  <path
     style="fill:#ffd42a;fill-opacity:1;stroke:none;stroke-width:0.78816199;stroke-miterlimit:4;stroke-dasharray:none"
     d="m 472.73388,599.11976 c -0.62216,-0.74919 -1.15614,-3.93895 -1.32373,-7.90738 -0.27058,-6.40733 -0.22402,-6.62119 1.26767,-5.82286 3.63611,1.94599 5.76105,8.00453 4.1617,11.86569 -1.17294,2.83172 -2.71928,3.53399 -4.10564,1.86455 z"
     id="path972"
     inkscape:connector-curvature="0" />
  <path
     style="fill:#ffd42a;fill-opacity:1;stroke:none;stroke-width:0.78816199;stroke-miterlimit:4;stroke-dasharray:none"
     d="m 552.37712,729.21474 c -0.70631,-0.84964 -1.17572,-3.99518 -1.3526,-9.06387 -0.26087,-7.47532 -0.20888,-7.76265 1.40459,-7.76265 2.65099,0 6.93513,2.08157 7.86673,3.82227 2.04248,3.81641 0.36745,10.53454 -3.26008,13.07537 -2.23849,1.56789 -3.3097,1.55154 -4.65864,-0.0711 z"
     id="path974"
     inkscape:connector-curvature="0" />
  <path
     style="fill:#ffd42a;fill-opacity:1;stroke:none;stroke-width:0.78816199;stroke-miterlimit:4;stroke-dasharray:none"
     d=""
     id="path976"
     inkscape:connector-curvature="0" />
  <path
     style="fill:#ffd42a;fill-opacity:1;stroke:none;stroke-width:0.78816199;stroke-miterlimit:4;stroke-dasharray:none"
     d=""
     id="path978"
     inkscape:connector-curvature="0" />
  <path
     style="fill:#ffd42a;fill-opacity:1;stroke:none;stroke-width:0.78816199;stroke-miterlimit:4;stroke-dasharray:none"
     d="m 1108.1319,603.29335 c 0,-0.18068 11.0835,-5.98772 24.63,-12.90454 28.9021,-14.75731 49.0388,-25.51349 72.6254,-38.79351 15.649,-8.81085 23.1717,-12.26251 25.2302,-11.57634 1.0985,0.36614 -6.138,5.63857 -17.266,12.57996 -13.5385,8.44495 -55.5063,32.42891 -55.9568,31.97843 -0.2086,-0.20859 2.8761,-2.32856 6.8547,-4.71105 7.2502,-4.34149 9.1529,-6.19459 6.3606,-6.19459 -0.8219,0 -15.0677,6.73878 -31.6572,14.97507 -16.5895,8.2363 -30.3108,14.97508 -30.4918,14.97508 -0.181,0 -0.3291,-0.14783 -0.3291,-0.32851 z"
     id="path980"
     inkscape:connector-curvature="0" />
  <path
     style="fill:#ffd42a;fill-opacity:1;stroke:none;stroke-width:1.08099782;stroke-miterlimit:4;stroke-dasharray:none"
     d="m 146.0119,465.67759 c -1.1182,-1.80925 -13.5188,-11.8628 -14.6322,-11.8628 -0.5637,0 -1.0249,0.82491 -1.0249,1.83313 0,1.89872 -4.8287,-5.15667 -8.6336,-12.61487 -4.0114,-7.86308 -2.4434,-8.2634 4.0077,-1.02321 3.4013,3.81725 10.0546,10.95366 14.7853,15.85869 4.7306,4.90503 8.057,8.91823 7.3921,8.91823 -0.6649,0 -1.5174,-0.49913 -1.8944,-1.10917 z"
     id="path986"
     inkscape:connector-curvature="0" />
  <path
     style="fill:#ffd42a;fill-opacity:1;stroke:none;stroke-width:1.08099782;stroke-miterlimit:4;stroke-dasharray:none"
     d="m 408.82741,556.94341 c -1.1255,-2.74319 -4.94133,-8.89208 -8.47963,-13.66418 -4.26016,-5.74569 -6.0137,-8.93587 -5.19117,-9.44422 0.90756,-0.56091 0.75298,-1.99008 -0.57393,-5.30636 -0.99881,-2.49628 -1.63352,-4.7113 -1.41046,-4.92227 0.22307,-0.21096 4.54533,6.98434 9.60504,15.98957 7.17318,12.76677 9.07799,17.02973 8.64798,19.35412 -0.52855,2.85701 -0.63658,2.77357 -2.59783,-2.00666 z"
     id="path988"
     inkscape:connector-curvature="0" />
  <path
     style="fill:#ffd42a;fill-opacity:1;stroke:none;stroke-width:1.08099782;stroke-miterlimit:4;stroke-dasharray:none"
     d=""
     id="path990"
     inkscape:connector-curvature="0" />
  <path
     style="fill:#ffd42a;fill-opacity:1;stroke:none;stroke-width:1.08099782;stroke-miterlimit:4;stroke-dasharray:none"
     d="m 1395.1223,711.76689 c 5.3217,-1.43683 5.9761,-1.39224 4.909,0.33447 -0.3919,0.6341 -2.7513,1.11377 -5.243,1.06592 l -4.5305,-0.087 z"
     id="path994"
     inkscape:connector-curvature="0" />
  <path
     style="fill:#2d5016;fill-opacity:1;stroke:none;stroke-width:3.05752373;stroke-miterlimit:4;stroke-dasharray:none"
     d="m 626.82927,926.11631 c -14.39797,-4.37966 -28.45316,-13.07932 -42.77644,-26.47706 l -14.31716,-13.39204 -9.87488,13.75051 c -12.42969,17.30803 -24.87186,24.08925 -39.24992,21.3919 C 506.71084,918.78195 454.26003,868.5328 435.97344,840.30489 409.15517,798.90709 375.37329,768.14935 298.16526,714.83323 233.74156,670.34537 209.3955,651.54141 179.14427,622.90612 132.52628,578.77828 107.42456,532.2887 79.43544,438.24052 55.423514,357.55638 52.559868,349.48801 32.772623,306.767 -1.0564813,233.72937 -3.2606616,222.67304 16.012734,222.69819 c 20.271535,0.0266 86.785046,54.2486 170.199926,138.74785 78.35969,79.37833 155.78877,147.10585 161.56929,141.32532 1.13465,-1.13464 -9.17758,-24.37357 -22.91607,-51.64206 C 311.12741,423.86083 295.59914,390.54315 290.35862,377.09005 229.2729,220.27473 218.47073,198.10236 185.93541,162.75264 163.47833,138.35295 153.75989,102.24737 164.21876,82.07179 c 8.31175,-16.033691 18.45298,-18.208795 37.88703,-8.126051 8.74439,4.536753 16.15896,7.869711 16.47683,7.406576 0.31786,-0.463136 2.21005,-8.409438 4.20485,-17.658447 5.55865,-25.772898 21.67428,-55.8203739 31.85613,-59.3955076 14.12198,-4.95862739 17.83807,1.9569567 18.95473,35.2744556 1.57514,46.997337 15.39285,77.005434 52.00851,112.947544 10.82846,10.62926 21.67717,20.43906 24.10823,21.79956 2.43107,1.3605 9.36716,9.35951 15.4135,17.77559 6.04635,8.41609 12.32314,15.30197 13.94839,15.30197 5.67779,0 9.29393,-12.03513 13.70606,-45.61601 7.22242,-54.97041 21.39052,-76.682591 40.76599,-62.472667 19.84357,14.553217 38.08907,52.431247 44.41885,92.214457 6.25979,39.34333 16.80433,37.55263 67.70574,-11.4979 39.47823,-38.04274 59.78401,-51.05112 74.9537,-48.01718 5.36916,1.07383 10.01308,0.22235 12.0279,-2.20536 5.34975,-6.44605 49.66388,-26.05583 65.61516,-29.03585 19.20556,-3.587986 30.01241,-0.5044 35.1241,10.0222 3.59106,7.39512 3.31863,11.08886 -2.12776,28.84885 -3.43534,11.20231 -11.75539,41.00613 -18.48897,66.2307 -6.73362,25.22457 -23.99147,82.23153 -38.35083,126.68213 -30.72655,95.11657 -31.4972,98.40209 -24.68005,105.21924 14.73738,14.73739 28.84614,1.24126 57.46469,-54.96945 30.82109,-60.53676 77.2447,-113.10074 115.69819,-131.00138 22.96901,-10.6924 30.19608,-10.2946 30.19608,1.66208 0,5.15547 1.48849,12.15486 3.30778,15.5542 3.08947,5.77276 5.18033,6.04023 31.68438,4.05314 37.03031,-2.77627 42.55342,-0.23491 39.77377,18.30124 -2.83356,18.8955 3.47836,19.94551 36.85196,6.13048 14.63616,-6.05866 28.53092,-10.27908 30.87723,-9.37872 6.22207,2.38762 5.21677,22.36905 -1.91618,38.08873 -7.2223,15.91652 -7.76008,28.83599 -1.41939,34.0983 3.24299,2.69144 21.31934,4.11808 60.38614,4.76579 115.7595,1.91924 162.3813,15.43328 174.0543,50.45232 l 4.0617,12.18478 33.604,-21.88456 c 56.9734,-37.10378 74.6251,-45.68586 106.6494,-51.8516 17.9368,-3.45344 34.8438,0.34248 46.6123,10.46523 11.2056,9.63869 8.1564,19.86681 -11.684,39.19192 -11.2378,10.94603 -26.0852,20.23995 -53.3636,33.40369 -20.7865,10.03101 -37.7937,19.5389 -37.7937,21.12865 0,3.57263 7.7556,5.2036 34.8182,7.32207 19.5082,1.52714 35.5048,7.66405 35.5048,13.62099 0,1.3791 -22.9677,13.38639 -51.0394,26.68286 -59.6955,28.27549 -114.7106,57.80255 -150.6358,80.84759 -25.3377,16.25346 -25.4965,16.43434 -16.6733,18.98166 13.4058,3.8703 40.2297,0.0868 86.488,-12.19931 52.9584,-14.06561 85.2551,-15.05934 118.1017,-3.63383 14.0303,4.88039 21.7377,9.25968 22.3755,12.71364 1.3425,7.27149 -13.9635,16.10832 -44.6024,25.75083 -18.4655,5.81134 -24.4812,8.92513 -22.3063,11.54573 1.6379,1.9736 27.1395,20.72148 56.6703,41.66197 53.2691,37.77354 53.6256,38.10262 45.2377,41.75758 -11.644,5.07381 -34.1915,4.81851 -74.8123,-0.84712 -40.4642,-5.64379 -70.5253,-6.54438 -106.3922,-3.18743 -20.5627,1.92455 -34.405,1.09789 -66.297,-3.95919 -69.7007,-11.05237 -98.4337,-7.55719 -124.1803,15.10582 -7.7186,6.79424 -14.825,14.71194 -15.7918,17.59491 -0.9669,2.88297 -8.6869,9.93631 -17.1557,15.67412 -41.65423,28.22196 -34.85604,44.22033 15.1801,35.72356 27.3423,-4.64306 40.6961,-3.86239 46.1402,2.69738 6.8296,8.22914 -5.0424,11.79391 -37.5353,11.27067 -40.0611,-0.64513 -53.79266,3.38321 -107.64137,31.57792 -50.17277,26.27006 -67.72974,31.76138 -100.89828,31.55823 -20.45217,-0.12535 -30.95942,1.91313 -64.12392,12.44 -28.95621,9.19107 -44.83803,12.58978 -58.83088,12.58978 -17.15381,0 -20.62269,1.11104 -33.02441,10.57747 -19.62086,14.97695 -38.30276,19.63053 -56.53847,14.08348 z m 45.23209,-19.01239 c 15.42071,-13.37761 29.42478,-17.90672 70.97359,-22.95387 21.02048,-2.55349 44.24145,-7.27177 51.6022,-10.48507 8.80197,-3.84248 20.41007,-5.84238 33.91121,-5.84238 27.74742,0 42.38571,-4.86608 98.49659,-32.74226 38.71602,-19.23433 47.65576,-24.85234 46.42119,-29.17259 -3.00096,-10.50171 2.65828,-17.62669 30.62186,-38.5529 26.9242,-20.14841 44.6993,-37.3967 44.6993,-43.37449 0,-4.27191 -8.6933,0.0245 -36.0129,17.8009 -32.23657,20.97504 -77.87195,42.33347 -102.80786,48.1165 -10.67103,2.47476 -35.24906,5.64538 -54.61786,7.04575 -33.76142,2.44104 -36.14528,3.08049 -57.7129,15.48116 -18.51948,10.64814 -40.01638,25.23362 -74.64516,50.64623 -2.53215,1.85824 -6.75838,1.60841 -11.82222,-0.69883 -10.57931,-4.82027 -10.47914,-18.67767 0.32526,-44.98687 9.45845,-23.03178 7.2264,-30.27639 -6.09872,-19.79484 -7.61054,5.98642 -37.6627,40.18467 -53.55387,60.94232 -3.91158,5.10946 -9.07116,9.28992 -11.46572,9.28992 -6.42495,0 -5.54002,-20.94859 1.36314,-32.26871 5.28814,-8.67178 5.51693,-13.68398 3.20985,-70.32304 -1.36626,-33.54217 -2.5578,-63.81853 -2.64788,-67.28081 -0.0902,-3.46228 -2.13981,-8.96582 -4.55491,-12.2301 -4.11635,-5.56365 -4.95625,-4.69137 -13.42119,13.93886 -16.19539,35.64384 -26.16745,78.07998 -33.40965,142.17485 l -2.41835,21.40266 -6.04821,-9.0432 c -5.27903,-7.89312 -6.12186,-14.8925 -6.62727,-55.03543 -0.31844,-25.29572 -0.66241,-47.98725 -0.76438,-50.42563 -0.35046,-8.38223 -6.52363,1.583 -13.37939,21.5981 -3.91507,11.42991 -8.45115,19.5256 -10.94028,19.5256 -8.46044,0 -15.88325,-15.61777 -20.25325,-42.6132 -2.40795,-14.87507 -5.1238,-27.79124 -6.03518,-28.70263 -4.32897,-4.32899 -8.66179,7.09392 -8.88361,23.42051 -0.17458,12.85062 -1.32103,17.68435 -3.95463,16.67375 -5.8037,-2.22707 -9.63502,-17.93965 -13.25259,-54.35021 -2.12761,-21.41422 -5.5258,-38.0421 -9.37284,-45.86285 -5.57014,-11.32369 -8.61668,-17.43987 -19.05681,-38.25794 -6.5044,-12.97002 -12.64898,-9.58393 -13.7314,7.56691 -1.38075,21.87741 4.97587,65.11676 11.86744,80.72557 3.2499,7.36071 5.90891,16.0032 5.90891,19.20547 0,13.74066 -19.83731,9.25943 -36.88866,-8.3331 -20.70332,-21.36041 -20.49917,-9.62484 0.35862,20.61413 32.69872,47.40565 47.97126,71.80121 52.92378,84.53775 l 5.14107,13.22146 -6.9455,-2.10718 c -12.51723,-3.7976 -21.09756,-14.6859 -37.8848,-48.07534 C 432.33386,751.03406 416.74092,731.53883 400.5923,724.89948 394.70657,722.4796 356.18177,698.09445 314.98164,670.71022 273.7815,643.32603 228.14845,613.28812 213.57486,603.95938 196.7408,593.18365 182.42407,581.11105 174.3177,570.85572 167.29986,561.9775 147.9741,527.13117 131.37158,493.41947 114.76905,459.70776 98.281707,428.68576 94.733044,424.48166 l -6.452118,-7.64381 2.020394,12.2301 c 5.896859,35.69558 29.96997,96.34419 51.31581,129.28256 33.59179,51.83487 63.1223,78.99837 149.90141,137.88621 73.53515,49.90053 91.49547,65.10165 128.94399,109.1344 36.53319,42.95649 54.71173,59.47354 86.81646,78.88173 l 24.58234,14.86063 9.50939,-8.00163 c 13.95301,-11.74065 24.9046,-10.43725 53.43827,6.36002 26.58052,15.64752 47.61151,22.73116 59.55778,20.06019 4.20409,-0.93994 12.16665,-5.6326 17.69459,-10.42814 z m 74.35332,-87.45881 c 10.75343,-9.68125 29.07252,-25.82538 40.70909,-35.87582 45.67662,-39.45074 79.83442,-86.7396 117.87384,-163.18738 28.8356,-57.95093 38.18073,-84.18739 54.6569,-153.44932 12.19555,-51.26721 27.74367,-153.97961 23.8918,-157.83148 -3.4277,-3.4277 -6.42242,1.23527 -30.77297,47.91503 -27.01554,51.78858 -30.60878,52.41605 -6.41306,1.11991 22.49888,-47.69874 22.25538,-52.11531 -1.85347,-33.61799 -21.38136,16.40465 -32.81472,33.36196 -45.43908,67.39253 -23.24296,62.65447 -64.54225,134.58009 -107.50483,187.22731 -9.80863,12.01971 -33.33933,38.67266 -52.29041,59.22882 -53.95784,58.5277 -71.1919,84.58976 -78.40769,118.57114 -4.91904,23.16542 -4.44212,51.01175 0.95034,55.48711 6.28945,5.21981 11.34717,1.62703 43.00077,-30.54591 29.11783,-29.59555 36.29075,-35.05253 41.68918,-31.71612 4.92591,3.0444 1.28165,23.74069 -6.82754,38.77432 -20.45884,37.92873 -23.68603,48.1101 -15.24949,48.1101 1.33919,0 11.23315,-7.92103 21.98662,-17.60225 z m 96.83346,-43.4583 c 22.17022,-10.48825 41.71278,-23.25904 63.36433,-41.40768 16.18225,-13.56418 81.77249,-52.60564 192.62403,-114.65609 123.7679,-69.28062 148.9889,-85.68194 124.5941,-81.02408 -23.6157,4.50909 56.6674,-28.19 93.4297,-38.05363 16.7667,-4.49869 26.9961,-13.96961 21.822,-20.20406 -5.9157,-7.128 -23.9039,-5.11643 -69.5135,7.77357 -56.3841,15.93505 -103.0191,34.50232 -133.4655,53.13802 -13.5502,8.29387 -37.7077,22.20243 -53.6832,30.9079 -37.5939,20.48587 -46.697,26.45161 -106.61012,69.86766 -27.52527,19.94615 -57.45078,41.00255 -66.50114,46.792 -9.05036,5.78945 -16.45523,11.52396 -16.45523,12.74336 0,1.21941 -6.66155,5.27313 -14.80342,9.00829 -10.59952,4.86263 -23.70364,16.36222 -46.14443,40.49431 l -31.34099,33.70308 11.74728,-0.002 c 6.67381,-10e-4 20.03464,-3.92298 30.93609,-9.08023 z m 86.5052,-14.10194 c 9.1338,-2.6617 37.93317,-14.92298 63.99856,-27.24725 58.6312,-27.7221 71.2464,-31.99619 103.9558,-35.22074 33.6171,-3.31402 54.6841,-10.02195 134.531,-42.83588 66.9493,-27.51346 109.4928,-42.73287 119.4533,-42.73287 7.7462,0 9.5058,-4.20363 4.5795,-10.94064 -3.3156,-4.53443 -9.1648,-5.97786 -28.0981,-6.93395 -26.7894,-1.3528 -50.4261,2.11743 -102.3346,15.02425 -28.3399,7.04658 -37.5306,8.21581 -45.8426,5.83195 -32.1447,-9.21896 -67.6441,1.81907 -112.8637,35.0934 l -16.8164,12.37413 14.9854,1.52877 14.9854,1.52876 -24.1579,5.36705 c -29.9846,6.66149 -86.92355,33.96444 -127.2377,61.01212 -16.33448,10.95918 -33.85954,21.64908 -38.94457,23.75537 -22.36349,9.26326 10.60873,12.90413 39.80661,4.39553 z M 562.02423,719.83148 c -0.50156,-3.49325 -3.31974,-6.81027 -6.2626,-7.37117 -4.10256,-0.78193 -5.35067,1.05326 -5.35067,7.86738 0,4.88794 0.90533,9.79248 2.01182,10.899 3.52798,3.52798 10.54791,-4.8034 9.60145,-11.39521 z m 52.15952,-35.67097 c 15.88225,-44.2578 24.5414,-62.94386 36.36457,-78.47311 7.27265,-9.55232 27.34267,-24.16964 29.80492,-21.70741 0.66254,0.66253 -5.06402,11.84179 -12.72569,24.84277 l -13.93026,23.63812 0.4811,37.18948 c 0.60603,46.84643 2.38117,50.62715 15.39457,32.7873 29.5384,-40.49372 69.66238,-119.74217 98.9337,-195.40286 29.7443,-76.88323 62.19606,-171.64877 69.21023,-202.10735 12.16757,-52.83698 7.36882,-49.49341 -25.65149,17.87293 -16.6865,34.0429 -31.00271,61.23257 -31.81384,60.42144 -0.81113,-0.81113 10.43365,-26.78061 24.98841,-57.70997 14.55473,-30.92935 26.46317,-57.17296 26.46317,-58.31913 0,-4.96115 -33.45402,16.60163 -50.69582,32.67599 -23.05352,21.49256 -44.21595,51.64818 -67.1974,95.7536 -9.58491,18.3951 -28.88865,54.77187 -42.89721,80.83726 -44.59674,82.98 -67.21303,144.93341 -76.51398,209.59679 -4.89494,34.03128 -4.2015,48.41974 2.0331,42.18515 1.65831,-1.65831 9.64667,-21.49476 17.75192,-44.081 z m 787.72335,27.76752 c 2.004,-3.24245 -26.5532,-25.07955 -56.7803,-43.41883 -21.6728,-13.14924 -43.8858,-17.1343 -68.2424,-12.24281 -20.0003,4.01664 -99.6811,34.38919 -99.6811,37.99624 0,1.45786 5.1596,4.90681 11.4657,7.6643 9.4912,4.15022 25.6825,5.17581 94.0189,5.95532 45.4042,0.51795 87.3687,2.17843 93.2545,3.68997 14.7917,3.79873 23.7609,3.92164 25.9647,0.35581 z M 389.67257,694.85411 c 2.64258,-2.64255 4.80468,-7.26776 4.80468,-10.2782 0,-7.1916 -42.52269,-45.96981 -134.53104,-122.68439 -41.20013,-34.3518 -89.53077,-77.19819 -107.40141,-95.21426 -17.87065,-18.01606 -33.33014,-31.9184 -34.35442,-30.8941 -1.02429,1.02427 2.08249,8.87565 6.90395,17.44745 4.82146,8.57183 10.47277,21.08869 12.55846,27.81524 16.50878,53.24237 65.79303,107.36375 131.45422,144.35615 14.28744,8.0493 39.05338,24.86755 55.03543,37.37392 29.68693,23.23082 50.69261,36.78033 57.12194,36.84603 1.98194,0.0214 5.76563,-2.12525 8.40819,-4.76784 z m 56.43641,-2.07474 c 1.40802,-3.78369 1.41964,-15.82269 0.0245,-26.75333 -1.3938,-10.93065 -2.40911,-37.76042 -2.25624,-59.62172 0.35116,-50.21429 -2.94225,-63.3432 -32.5307,-129.68101 -7.81091,-17.51215 -17.42654,-41.59015 -21.36809,-53.50667 -3.94154,-11.91654 -14.6567,-37.50832 -23.81144,-56.87064 -33.82089,-71.53417 -68.90029,-165.58039 -89.5089,-239.9729 -4.65856,-16.81638 -9.63657,-31.882325 -11.06223,-33.479881 -4.26068,-4.774403 -2.9338,46.778431 1.91283,74.318261 6.31844,35.90309 16.88195,68.97268 44.873,140.47709 13.36428,34.13961 27.13986,71.27072 30.61242,82.51358 3.47258,11.24285 18.34645,44.53732 33.05311,73.98776 26.93183,53.93169 35.81703,75.39746 32.55792,78.6566 -3.3028,3.30277 -47.49447,-92.0754 -73.96685,-159.64142 C 284.26146,254.62726 278.1285,237.75436 269.24095,203.28503 256.17129,152.59581 252.73349,120.94963 254.76825,70.058565 l 1.76262,-44.084441 -5.82365,9.57622 c -15.5332,25.542302 -19.85789,89.472846 -10.5614,156.125866 6.17979,44.30723 37.21618,128.88169 85.43292,232.80545 11.31314,24.38376 23.06048,49.83764 26.10517,56.56419 3.04468,6.72655 16.13076,25.30101 29.08016,41.27657 24.23868,29.90304 30.45141,40.73001 27.61424,48.12356 -1.13547,2.95904 -9.8277,-3.06321 -28.40687,-19.68119 -14.72393,-13.16967 -48.09699,-41.0005 -74.16238,-61.84627 C 272.94821,462.63809 234.512,426.91444 180.45059,372.40705 129.72088,321.25884 95.064728,288.88382 81.246671,279.73292 69.566285,271.99766 59.453988,266.22444 58.774896,266.90353 c -2.172676,2.17268 5.991673,23.887 17.862222,47.50728 29.029912,57.76436 83.801592,117.11068 145.090042,157.20827 59.98146,39.24249 131.4867,94.56982 169.03514,130.79126 10.0461,9.69107 33.64413,53.05082 30.55405,56.14091 -0.90096,0.90096 -5.78095,-5.64795 -10.84443,-14.55308 C 386.12939,601.18706 348.44666,567.01336 260.62358,508.10387 143.82478,429.75819 117.82751,402.66822 59.620072,298.65206 30.033996,245.782 26.617729,241.01896 29.324635,256.41341 c 5.976307,33.98787 24.799382,75.9628 46.557929,103.82286 64.034576,81.99114 102.630156,119.76119 234.320346,229.30829 35.20855,29.28841 77.55256,66.04575 94.09783,81.68294 16.54524,15.63721 32.1446,28.4313 34.66525,28.4313 2.52066,0 5.735,-3.09575 7.14299,-6.87943 z m 125.3271,-26.88227 11.07888,-28.91754 -0.95098,-92.23482 c -0.63621,-61.70755 0.18926,-96.46927 2.49411,-105.02881 4.4228,-16.42508 2.01448,-18.68483 -6.01317,-5.64214 -9.10537,14.79377 -14.6522,34.92808 -23.46946,85.19111 -7.17255,40.8875 -7.64283,49.11208 -6.04937,105.79423 2.36365,84.07836 4.72864,88.29401 22.90999,40.83797 z M 540.97676,522.32242 c 5.19763,-37.11225 13.90476,-72.37106 24.93575,-100.97539 5.25968,-13.63882 8.83132,-25.52959 7.93694,-26.42395 -4.36456,-4.36455 -26.39631,7.59367 -40.2228,21.83182 -32.87993,33.85893 -45.91144,76.59544 -43.37816,142.25781 2.11988,54.94755 13.36976,93.67549 36.85879,126.88723 l 6.4873,9.17257 1.8712,-73.38057 c 1.02917,-40.35931 3.50909,-85.07559 5.51098,-99.36952 z m 347.29057,162.04876 c 1.03931,-1.68164 0.43258,-3.05753 -1.34831,-3.05753 -1.78088,0 -3.23798,1.37589 -3.23798,3.05753 0,1.68164 0.60674,3.05752 1.34831,3.05752 0.74157,0 2.19867,-1.37588 3.23798,-3.05752 z m -306.39522,-9.17257 c 0.87953,-3.36328 0.35205,-6.11505 -1.17216,-6.11505 -1.5242,0 -2.77128,0.57543 -2.77128,1.27869 0,0.70329 -0.83513,3.45506 -1.85588,6.11504 -1.02073,2.66002 -0.49327,4.83636 1.17216,4.83636 1.66543,0 3.74764,-2.75177 4.62716,-6.11504 z m 330.30988,-2.8501 c 4.12298,-1.56757 18.56847,-11.86234 32.10104,-22.87728 13.5326,-11.01495 38.11047,-27.79714 54.61755,-37.29375 37.70812,-21.69377 67.10922,-42.30466 123.26732,-86.41342 52.5387,-41.26599 47.2139,-36.74253 45.394,-38.5624 -0.8184,-0.81838 -17.4362,5.25597 -36.9286,13.4986 -108.0584,45.69414 -155.44088,77.74225 -208.58015,141.07738 -27.53765,32.82133 -29.18162,37.91268 -9.87116,30.57087 z M 770.0265,588.77033 c 55.66702,-62.53944 115.54415,-174.81135 136.6311,-256.18853 8.34383,-32.19994 -2.48023,-31.47725 -24.89433,1.6621 -5.6718,8.38574 -10.31232,13.51798 -10.31232,11.40496 0,-6.48681 15.24331,-28.94543 29.9741,-44.16207 7.69523,-7.94903 13.18327,-15.26081 12.19569,-16.24842 -0.98761,-0.9876 -13.97557,1.86274 -28.86213,6.33408 -14.8866,4.47135 -28.5064,8.53678 -30.26628,9.03429 -1.75985,0.49752 -9.18942,19.9736 -16.51011,43.28022 -28.69073,91.34162 -69.89407,200.20008 -96.95117,256.14331 -5.6244,11.62902 -10.22619,22.39199 -10.22619,23.91773 0,5.11814 16.63103,-9.79814 39.22164,-35.17767 z m 184.71191,1.5642 c 37.1909,-34.95052 52.76989,-44.96141 121.11599,-77.82761 58.4541,-28.10932 107.464,-57.73529 107.464,-64.96086 0,-20.86723 -90.474,-0.623 -173.3721,38.79334 -14.79262,7.03362 -28.27162,13.36358 -29.95326,14.06657 -1.68164,0.70302 2.39095,-4.40724 9.05021,-11.3561 11.17325,-11.6592 16.76665,-14.17165 72.47205,-32.55318 63.0528,-20.80602 108.1844,-31.88591 130.2113,-31.96711 15.4765,-0.0572 16.6838,-4.36673 5.085,-18.15115 -10.8996,-12.95338 -37.2197,-20.15455 -97.5751,-26.69643 -68.8905,-7.46699 -83.3395,-7.26944 -95.3589,1.30373 -14.03065,10.00782 -24.1118,33.2299 -34.57953,79.65439 -5.0484,22.38982 -9.17893,42.13723 -9.17893,43.88317 0,1.93597 3.28038,2.35161 8.40819,1.06537 l 8.40819,-2.10908 -6.50164,7.12828 c -10.59484,11.61596 -20.54984,29.58594 -35.74163,64.51806 -22.3874,51.47772 -20.26294,53.08949 20.04616,15.20861 z m -347.56764,0.98975 c 11.74752,-25.42594 22.75143,-67.24745 22.58018,-85.81824 -0.0621,-6.72655 -1.98226,-17.47158 -4.26714,-23.87779 -3.74107,-10.48899 -3.41251,-14.59521 3.30283,-41.27657 9.02064,-35.84081 17.43461,-63.97324 41.32466,-138.17096 22.88312,-71.07034 41.28562,-132.73062 43.92448,-147.17537 4.54831,-24.89704 -13.24406,-14.20429 -37.12241,22.30959 -7.32533,11.20163 -14.54999,23.5846 -16.05481,27.51772 -1.50479,3.93311 -7.81408,14.71848 -14.02064,23.96749 -6.20656,9.24901 -20.3107,35.30546 -31.34255,57.90324 -11.03186,22.59778 -24.05773,47.8706 -28.94641,56.16184 -4.8887,8.29121 -8.37345,16.62015 -7.74394,18.50872 0.74812,2.24434 8.73755,3.08296 23.06553,2.42104 24.20547,-1.11823 26.95152,1.45125 16.21876,15.17586 -20.28398,25.93841 -30.87812,63.59888 -30.94288,109.99708 -0.0748,53.58512 3.78131,125.0802 6.74619,125.0802 1.52848,0 7.50368,-10.22573 13.27815,-22.72385 z m -128.09756,5.67039 c 1.88573,-4.91411 -6.57441,-16.1244 -9.76264,-12.9362 -2.56899,2.56903 1.78446,17.75957 5.08971,17.75957 1.55212,0 3.65493,-2.17051 4.67293,-4.82337 z m -3.95084,-47.91892 c 5.83887,-66.76231 5.82199,-68.48709 -0.86595,-88.47128 -7.3689,-22.01912 -26.076,-48.47477 -46.04053,-65.11082 -13.43286,-11.19332 -13.70082,-11.26954 -16.61956,-4.72834 -7.09997,15.91157 17.71666,106.55748 42.92298,156.78168 13.25094,26.40282 18.39425,26.78446 20.60306,1.52876 z m 739.69803,-57.37807 c 28.9572,-8.02697 47.7907,-17.16175 87.3245,-42.35486 18.7991,-11.97981 42.4061,-25.93392 52.46,-31.00913 20.5718,-10.38461 25.3347,-20.08301 8.343,-16.98822 -8.2483,1.50232 -7.3282,0.58638 5.4144,-5.38983 15.5267,-7.28198 25.9252,-15.50651 25.9252,-20.50516 0,-12.57926 -40.9579,-5.58998 -78.3816,13.3755 -29.5895,14.99523 -58.3859,36.17106 -98.1904,72.20551 -31.5353,28.54843 -43.114,43.89066 -29.0465,38.48734 2.9429,-1.13034 14.711,-4.64985 26.1514,-7.82115 z M 660.48181,471.3994 c 0,-5.83085 -4.27772,-5.09537 -10.52696,1.80999 -7.26348,8.02606 -3.12711,14.65917 4.71547,7.56177 3.1963,-2.89266 5.81149,-7.10993 5.81149,-9.37176 z M 503.92593,436.28915 c 2.86465,-5.27735 13.21917,-18.69223 23.01007,-29.81086 40.27425,-45.73581 72.86027,-105.78025 92.27741,-170.03433 12.04429,-39.85629 15.13856,-70.45515 7.99512,-79.06249 -6.15761,-7.41946 -18.28134,-6.08167 -35.76499,3.94649 -19.48276,11.17479 -98.65782,81.53747 -114.96898,102.17264 -23.91332,30.25261 -36.74596,63.18696 -36.74596,94.30668 0,15.08411 1.98256,21.17773 14.15618,43.51052 7.7859,14.28341 17.67699,30.1541 21.98021,35.2682 10.53127,12.51567 21.16711,12.40315 28.06094,-0.29688 z m 90.81912,-30.15263 c 1.03932,-1.68164 0.51376,-3.05752 -1.16788,-3.05752 -1.68164,0 -3.90785,1.37588 -4.94716,3.05752 -1.03932,1.68164 -0.51376,3.05753 1.16788,3.05753 1.68164,0 3.90785,-1.37589 4.94716,-3.05753 z m -180.73398,-35.6029 c 4.27989,-3.12051 9.97324,-10.18263 12.65185,-15.69357 4.62777,-9.52104 4.50382,-10.81489 -2.48959,-25.98895 -4.04789,-8.78298 -11.7981,-27.18591 -17.22264,-40.8954 -12.93063,-32.67957 -32.46656,-66.62705 -52.67773,-91.53775 -17.47339,-21.53634 -52.40852,-52.09593 -54.0219,-47.2558 -3.08083,9.2425 32.18454,116.49382 54.3186,165.19717 8.03746,17.68551 17.89694,39.46111 21.90994,48.39021 7.14892,15.9067 7.52313,16.20665 18.52306,14.84623 6.17473,-0.76368 14.72849,-3.94164 19.00841,-7.06214 z m 23.68648,-85.93367 c 2.20539,-5.58353 2.70573,-26.38329 1.48932,-61.91485 -1.89065,-55.22537 -4.9375,-75.77457 -13.08825,-88.27171 -4.65037,-7.13023 -4.82098,-7.1531 -10.5591,-1.415 -7.71615,7.71617 -15.33339,44.84394 -15.89123,77.45662 -0.40791,23.84811 0.53745,28.31868 11.4762,54.27104 12.92712,30.66972 20.16941,36.08621 26.57306,19.8739 z m 24.43524,-27.23935 c 6.03622,-7.29637 4.95016,-61.31079 -1.73866,-86.47001 -5.67363,-21.34066 -14.78701,-41.26228 -20.48761,-44.78545 -2.61562,-1.61656 -2.98231,0.58999 -1.3628,8.20074 5.68458,26.71425 7.79326,50.24957 7.84995,87.61484 0.0569,37.57134 0.47819,40.51219 5.80217,40.51219 3.15735,0 7.62898,-2.28254 9.93695,-5.07231 z M 656.3433,197.46053 c 3.35502,-3.78369 15.31055,-21.51888 26.56786,-39.41155 11.25732,-17.89266 22.49586,-34.21521 24.97453,-36.27234 5.33908,-4.43103 3.25908,-9.16933 -4.01462,-9.14534 -20.69537,0.0682 -42.833,16.03802 -52.95646,38.20199 -5.74176,12.57083 -8.18677,53.50667 -3.19585,53.50667 1.38848,0 5.26955,-3.09574 8.62454,-6.87943 z M 223.14835,167.85068 c 8.62328,-16.11274 -0.33919,-58.27033 -15.64103,-73.57217 -8.03733,-8.037328 -11.43036,-9.353864 -22.09791,-8.574251 -18.31911,1.338813 -18.07315,9.490921 1.41606,46.935121 21.89372,42.06392 28.97939,48.93274 36.32288,35.2113 z"
     id="path6598"
     inkscape:connector-curvature="0" />
  <path
     style="fill:none;stroke:#000000;stroke-width:1px;stroke-linecap:butt;stroke-linejoin:miter;stroke-opacity:1"
     d="M 120.638,435.42102 C 58.373885,369.72505 56.211889,367.56305 56.211889,367.56305"
     id="path1969"
     inkscape:connector-curvature="0" />
  <path
     style="fill:none;stroke:#000000;stroke-width:1px;stroke-linecap:butt;stroke-linejoin:miter;stroke-opacity:1"
     d="m 1048.7552,720.58562 c 51.7006,-11.42724 51.7006,-11.42724 51.7006,-11.42724"
     id="path1971"
     inkscape:connector-curvature="0" />
  <path
     style="fill:none;stroke:#000000;stroke-width:1px;stroke-linecap:butt;stroke-linejoin:miter;stroke-opacity:1"
     d="m 659.1078,714.78352 -0.7801,68.96371 v 25.94395"
     id="path1977"
     inkscape:connector-curvature="0" />
  <path
     style="fill:none;stroke:#000000;stroke-width:1px;stroke-linecap:butt;stroke-linejoin:miter;stroke-opacity:1"
     d="m 593.3581,730.83382 -42.4602,-18.9382 -19.89191,-24.19723 -69.32339,-75.66355 -8.54713,81.28503 -7.02649,16.21497 -52.63488,-27.37242 -3.80153,12.69169 -12.40431,3.49429 -11.89098,3.24299"
     id="path1979"
     inkscape:connector-curvature="0"
     sodipodi:nodetypes="cccccccccc" />
  <path
     style="fill:#28220b;fill-opacity:1;stroke:none;stroke-width:1.08099782;stroke-miterlimit:4;stroke-dasharray:none"
     d="m 410.02928,689.55931 -16.32603,-8.26247 -5.87508,-6.75528 C 374.70653,659.45405 340.18481,628.9547 257.77512,559.64189 211.94701,521.09698 177.15871,490.16264 149.61987,463.46842 c -8.91823,-8.64471 -19.12604,-18.38175 -22.68403,-21.63787 -3.55797,-3.25613 -6.3759,-6.22255 -6.26205,-6.59205 0.11387,-0.36949 -13.85741,-15.44941 -31.047273,-33.51093 C 59.595435,370.17369 58.279935,368.61346 56.014046,361.86197 51.658343,348.88364 45.19865,333.39038 32.351942,305.10958 15.557176,268.13751 10.457372,256.08148 7.0501184,245.29562 1.7964311,228.66475 3.6334509,223.49424 14.795882,223.49424 c 10.413067,0 24.198558,7.66582 51.587151,28.68654 30.638673,23.51514 59.899857,50.36131 124.849927,114.54568 65.35722,64.58673 102.4939,98.85396 131.88707,121.69652 12.66537,9.84276 23.05376,16.13823 24.40331,14.78869 1.39268,-1.39268 -4.13586,-14.18822 -22.40763,-51.86143 C 301.00313,401.63428 295.11282,388.33089 278.7924,346.728 230.23887,222.95869 217.13771,196.84794 186.63687,163.06111 c -2.90098,-3.21351 -7.20536,-8.68606 -9.56531,-12.16123 l -4.29079,-6.31848 10.03951,0.001 10.0395,0.001 3.14362,5.67413 c 5.80343,10.47503 13.94559,21.46567 17.11748,23.10593 2.83289,1.46494 3.41523,1.44939 5.86634,-0.15664 4.0455,-2.65071 6.98181,-10.37214 7.64965,-20.11577 l 0.58329,-8.50985 h 4.04096 4.04098 l 0.72001,10.53973 c 3.4277,50.17608 15.04317,93.08253 46.01822,169.98691 15.75734,39.12214 64.17206,147.27478 71.87059,160.55027 3.94087,6.79572 16.04332,23.38318 29.52468,40.46618 19.52962,24.74707 25.01105,33.68395 25.05952,40.85683 0.049,7.25072 -3.62441,4.8753 -37.54136,-24.27621 -12.99973,-11.17323 -32.85037,-27.82192 -44.11254,-36.9971 -60.762,-49.50222 -70.52239,-58.45728 -155.06089,-142.26699 -54.80754,-54.33504 -77.183025,-74.86498 -92.965821,-85.2979 -12.8844,-8.51699 -19.227842,-11.99942 -20.159876,-11.06738 -1.451157,1.45115 1.985684,12.52176 8.685608,27.97773 17.646065,40.70745 42.896619,77.28184 78.486249,113.68411 26.46889,27.07329 45.68801,42.81098 82.70622,67.72448 67.1701,45.20591 149.5736,110.21889 165.93136,130.913 8.05071,10.18491 23.9711,39.26941 26.55816,48.51833 l 0.75593,2.7025 -2.37594,-2.1229 c -1.30677,-1.16759 -5.55945,-7.4066 -9.45038,-13.86446 -11.4829,-19.05838 -22.32825,-32.72194 -39.68649,-49.99927 C 345.04119,567.50269 321.2657,549.15539 258.26016,506.17601 186.55466,457.26193 157.0103,433.8141 132.29156,406.20125 107.482,378.48693 91.339317,354.20455 55.025908,289.97561 29.026947,243.99024 25.564017,240.02755 30.146572,261.50576 c 6.052538,28.36796 20.031821,61.36251 36.536799,86.23587 7.456195,11.23664 35.623029,46.50287 52.761509,66.05995 42.69583,48.72111 77.82864,81.29684 182.59569,169.30585 21.99831,18.47955 48.26655,40.76062 58.37388,49.51349 20.25853,17.5437 82.85378,66.54216 83.23684,67.14193 6.24118,9.77199 2.57748,8.11672 -33.62201,-10.20354 z"
     id="path1981"
     inkscape:connector-curvature="0"
     sodipodi:nodetypes="scsssccsssssssscsssccccccsccccssssssssscsssssccscssssssssss" />
  <path
     style="fill:#28220b;fill-opacity:1;stroke:none;stroke-width:1.08099782;stroke-miterlimit:4;stroke-dasharray:none"
     d=""
     id="path1985"
     inkscape:connector-curvature="0" />
  <path
     style="fill:none;stroke:#000000;stroke-width:1px;stroke-linecap:butt;stroke-linejoin:miter;stroke-opacity:1"
     d="m 680.8287,580.65092 -27.13141,51.80996 5.41051,82.32264"
     id="path2005"
     inkscape:connector-curvature="0" />
  <path
     style="fill:#28220b;fill-opacity:1;stroke:none;stroke-width:1.08099782;stroke-miterlimit:4;stroke-dasharray:none"
     d="m 764.16716,804.67888 c 0,-0.21573 2.77006,-8.96728 9.45874,-14.82364 45.24669,-39.61633 63.21032,-64.01075 97.73201,-112.34189 17.43236,-24.4057 43.75267,-75.43804 55.91434,-104.09731 18.44285,-43.46098 35.90107,-111.36264 48.13919,-187.23162 7.18241,-44.52657 10.37095,-74.13294 8.25815,-76.67871 -3.20563,-3.86256 -6.50581,0.96738 -26.54092,38.84379 -16.66664,31.50829 -24.35917,45.18841 -25.03187,44.51572 -0.70057,-0.70058 2.83231,-9.12303 13.48556,-32.14987 15.84226,-34.2428 19.48158,-44.63929 16.08265,-45.94358 -2.31363,-0.88783 -6.44917,1.48501 -17.57673,10.08494 -21.83374,16.87424 -30.86633,30.66369 -47.33394,72.26155 -18.7927,47.47113 -39.27425,86.69243 -68.4243,131.02961 -22.70222,34.53003 -38.81689,54.56538 -83.61908,103.96357 -59.36288,65.45256 -74.1738,86.79968 -82.83245,119.38715 l -2.6018,9.79209 0.32537,-23.85627 0.32536,-23.85628 3.96572,-3.96571 c 5.4058,-5.4058 22.33917,-31.11637 34.31222,-52.09753 20.08271,-35.19223 45.97179,-89.46943 64.19388,-134.58424 22.04191,-54.57201 53.61591,-143.78636 69.82045,-197.28211 5.28639,-17.45187 11.94129,-47.15535 11.94129,-53.29878 0,-10.98822 -5.8587,-2.07828 -29.36,44.6508 -23.68166,47.0877 -31.21268,61.39991 -31.93059,60.682 -0.69261,-0.69262 6.27918,-16.54049 28.83522,-65.54649 10.53567,-22.89013 19.45743,-42.46971 19.82615,-43.51017 3.22531,-9.10132 -35.43927,15.92847 -55.5111,35.93551 -11.21506,11.17886 -19.7241,21.58773 -30.49366,37.3021 -13.07187,19.07377 -19.31442,29.90911 -43.28414,75.12935 -12.44843,23.48468 -26.16456,49.26648 -30.48028,57.29289 -39.70838,73.84994 -62.40796,131.85508 -73.41784,187.60757 -4.72871,23.94547 -6.50679,38.33491 -6.55259,53.0281 l -0.0442,14.16662 -4.324,-1.87936 c -13.69322,-5.95152 -24.97355,-11.06587 -28.45695,-12.90201 -2.18514,-1.15182 -4.79089,-2.33348 -5.79055,-2.62591 -0.99966,-0.29243 -5.76118,-5.30265 -10.58114,-11.13381 l -34.91291,-15.89908 24.05441,-6.05353 c 2.43696,-46.62692 3.79985,-43.86148 4.3985,-63.77887 1.28556,-42.77161 3.72013,-82.75577 5.95672,-97.83031 4.78278,-32.23585 13.11914,-65.30132 24.16968,-95.86696 7.19815,-19.90996 8.83288,-26.75345 6.43669,-26.94595 -9.49082,-0.76248 -28.10225,10.76013 -42.79947,26.49777 -29.08549,31.14444 -42.02229,74.47562 -39.88999,133.60957 0.39662,10.99915 0.89481,21.21458 1.10709,22.70096 0.21227,1.48637 0.71062,6.30533 1.10746,10.70878 2.24212,24.88002 27.19245,77.60511 38.78248,100.00906 1.87582,3.71597 -23.0872,-3.28689 -23.32357,-3.05052 -0.62886,0.62887 -35.75999,-62.29758 -38.77249,-66.91008 -2.74645,-4.20513 -6.54315,-6.8362 -8.29894,-5.75105 -2.13568,1.31992 -4.52946,10.92123 -4.59381,18.42552 2.64209,54.61484 -9.9082,79.12258 -9.9082,79.12258 -16.29177,-9.29658 -11.63257,6.84038 -6.82456,-28.238 0.73114,-5.33426 5.47487,-45.15869 4.90508,-68.64336 -1.1194,-46.13702 -1.22821,-47.62447 -4.54681,-62.15738 -3.38385,-14.81867 -8.36934,-28.2112 -24.34589,-65.40037 -8.0457,-18.72829 -18.66297,-44.75332 -23.59391,-57.83339 -11.51228,-30.53817 -12.24289,-32.28421 -28.12338,-67.21082 -34.98907,-76.95288 -62.58565,-150.89987 -84.64809,-226.8206 -8.67596,-29.85551 -12.0457,-39.661973 -13.82954,-40.24611 -4.47914,-1.466747 -2.21496,52.1023 3.43729,81.32403 6.28597,32.49799 17.28915,65.79347 47.86997,144.85371 7.12919,18.43102 16.947,44.65083 21.81736,58.26625 11.02816,30.82998 15.40848,40.94146 37.04161,85.50647 27.40713,56.45969 33.90289,71.66842 33.06272,77.41079 -0.31548,2.15625 -1.1721,1.24345 -5.18441,-5.52443 C 394.02916,519.44282 366.48615,459.63314 347.39155,413.74987 327.94282,367.01567 287.1218,260.4337 278.45664,233.76372 269.83528,207.22854 260.9533,168.8393 256.94748,140.7979 255.4161,130.07794 255.02564,47.092528 256.44521,34.049365 c 0.43679,-4.013205 0.41577,-7.287418 -0.0467,-7.27603 -1.46336,0.03604 -8.57358,13.190948 -11.38224,21.058752 -6.29307,17.628585 -9.52104,42.596818 -9.67801,74.859103 l -0.1065,21.89021 h -4.13968 c -3.44111,0 -4.21441,-0.41044 -4.58256,-2.43225 -4.37796,-24.04343 -9.84641,-37.89393 -18.72937,-47.437777 -6.09575,-6.549266 -11.95858,-9.53817 -18.70387,-9.535329 -11.59116,0.0049 -17.29596,3.390947 -17.29596,10.265963 0,5.260563 5.63403,19.720933 13.5731,34.836883 3.83122,7.29461 6.96586,13.49684 6.96586,13.78272 0,0.28588 -4.37104,0.51979 -9.71342,0.51979 h -9.71342 l -3.2487,-6.43563 c -8.76383,-17.36106 -11.47829,-39.272649 -6.49031,-52.390992 3.14781,-8.278732 9.62762,-15.366207 15.49261,-16.945486 5.78944,-1.558934 12.51882,0.276488 27.71309,7.558682 6.23555,2.988525 11.68744,5.0836 12.11532,4.655724 0.42788,-0.427877 2.25015,-6.97463 4.0495,-14.548339 5.26395,-22.15673 13.09634,-40.427716 22.98105,-53.608978 4.32011,-5.760873 10.72961,-9.8215798 15.58211,-9.8719644 3.49582,-0.036298 7.78059,3.9461427 9.04108,8.4031634 1.27698,4.515288 2.82118,19.1117 3.77451,35.678134 1.77492,30.843136 10.62842,55.680546 28.39877,79.669216 7.6106,10.27376 36.44625,39.80446 44.63034,45.70611 2.65906,1.91748 7.09657,6.28183 9.86114,9.69855 2.76458,3.41672 8.11552,10.06435 11.89098,14.7725 7.98392,9.95626 9.83545,11.39049 12.53972,9.71353 4.47515,-2.7751 7.76223,-15.31011 12.16226,-46.37975 6.13496,-43.32044 15.8048,-64.69924 29.18059,-64.514639 5.68612,0.07847 10.17316,2.623146 17.44119,9.891189 16.55836,16.55835 29.46645,45.46269 36.97168,82.78855 4.91965,24.46692 8.28498,30.78417 16.3681,30.72554 8.04205,-0.0584 21.93181,-10.20091 49.79965,-36.36467 45.53216,-42.74793 60.07267,-52.14632 78.16438,-50.52229 6.53936,0.58701 7.533,0.39613 10.97391,-2.10817 10.411,-7.57711 39.74785,-21.3362 56.49016,-26.4941 9.8616,-3.03811 22.85892,-4.550585 28.90867,-3.36404 2.67547,0.52475 5.2124,0.97527 5.63762,1.00116 1.86125,0.11334 8.86762,7.35147 10.19788,10.5352 2.48424,5.94564 1.68299,13.11295 -3.47456,31.0805 -2.71427,9.45578 -9.54197,33.76612 -15.17267,54.02298 -11.92282,42.89317 -26.21517,90.12453 -45.16487,149.25442 -18.23605,56.90311 -22.31843,71.08418 -23.0351,80.01785 -0.56808,7.08123 -0.4162,7.8201 2.26167,11.00256 3.87815,4.60892 11.0321,7.32898 15.15401,5.76184 5.15643,-1.96048 9.07155,-5.29822 15.14835,-12.91437 7.59754,-9.52211 12.47,-17.58283 26.83705,-44.39773 13.0751,-24.40356 22.14031,-39.34578 33.69787,-55.54434 21.68968,-30.39929 48.41739,-57.18541 71.27801,-71.43381 16.02108,-9.9855 36.02706,-16.48712 39.63383,-12.88035 0.6724,0.67239 1.69109,4.9968 2.26381,9.60979 1.2651,10.19009 3.11149,14.89543 6.79105,17.30638 2.48726,1.62971 4.72703,1.72562 20.89951,0.89483 46.29106,-2.37798 48.31765,-1.55264 47.08109,19.17388 -0.52266,8.7606 -0.34273,10.52785 1.23222,12.1028 3.96754,3.96754 11.79407,2.26517 40.90667,-8.89774 15.66762,-6.00757 25.22921,-8.48118 26.78186,-6.92853 4.53786,4.53784 3.10275,19.97785 -3.43465,36.95329 -3.42667,8.89793 -4.5617,13.50655 -4.97841,20.21419 -0.50838,8.18301 -0.37518,8.88414 2.28941,12.05081 4.05468,4.81872 9.80011,5.52659 55.25121,6.8074 97.3655,2.74374 135.5419,8.8113 160.7089,25.54233 11.0057,7.31655 17.2546,16.04273 21.976,30.68827 1.0542,3.27002 2.0322,6.08601 2.1733,6.25777 0.1412,0.17175 13.3313,-8.1521 29.3115,-18.49744 47.836,-30.9684 66.8839,-41.71039 84.6454,-47.73543 4.4145,-1.49753 8.1845,-2.72277 8.3777,-2.72277 0.1931,0 0.3511,3.35093 0.3511,7.4465 v 7.44651 l -10.5397,3.60241 c -39.1389,13.37737 -88.2656,47.59545 -137.9486,96.08474 -8.8364,8.62404 -17.5126,17.77424 -19.2806,20.33378 -3.3839,4.89908 -3.4076,8.57282 -0.047,7.27515 1.0354,-0.39981 11.6116,-3.59468 23.5026,-7.09971 38.5701,-11.36905 47.3033,-15.61297 102.6948,-49.90486 10.1073,-6.25727 23.6063,-14.34231 29.9977,-17.96677 l 11.6207,-6.58992 v 8.59215 8.59216 l -11.0802,5.50545 c -12.7009,6.3107 -27.8357,15.21529 -27.8357,16.37711 0,3.07573 10.261,5.52337 28.9167,6.89767 l 9.9992,0.73662 v 14.9542 14.95421 l -45.6722,22.62692 c -61.6087,30.52223 -101.3321,52.52778 -133.2329,73.80693 -13.7661,9.1825 -14.8376,11.26295 -7.0265,13.64277 6.4865,1.97627 25.9046,1.07487 41.6184,-1.93195 6.54,-1.25143 24.5386,-5.40089 39.9969,-9.22103 15.4583,-3.82013 33.9433,-7.95786 41.0779,-9.19495 17.2738,-2.99514 38.2291,-3.85795 52.1834,-2.14857 l 11.055,1.35424 v 7.56104 c 0,6.75875 -0.2007,7.48348 -1.8917,6.83013 -7.7623,-2.99904 -34.6682,-4.36064 -52.1582,-2.63951 -15.2096,1.49674 -36.7282,5.60663 -67.4328,12.87918 -36.6748,8.68663 -42.6681,9.49581 -52.1935,7.04687 -28.0116,-7.20169 -58.019,0.0445 -93.8708,22.6682 -13.2789,8.37941 -35.1667,24.47473 -34.578,25.42719 0.264,0.4272 5.4766,1.13047 11.5835,1.56284 6.107,0.43237 11.5433,1.05725 12.0809,1.38864 0.5375,0.33139 -5.7864,2.18502 -14.053,4.11918 -37.9548,8.88036 -83.82972,30.71889 -136.87054,65.15659 -11.12452,7.2228 -24.86386,15.61022 -30.53184,18.63869 -5.66798,3.02848 -10.5802,5.95095 -10.91606,6.49437 -0.33585,0.54342 -3.59868,0.98803 -7.25075,0.98803 H 868.588 l 9.67666,-6.46372 c 5.32215,-3.55504 16.32831,-11.70307 24.45811,-18.10671 25.66672,-20.21703 69.50836,-46.42935 208.44463,-124.62615 92.2629,-51.92787 121.0717,-69.60012 121.0717,-74.26915 0,-1.40767 -1.0059,-1.5626 -6.2157,-0.95721 -6.0026,0.69751 -6.1286,0.66084 -3.6753,-1.06925 6.9512,-4.90203 54.2945,-23.338 84.4799,-32.89729 20.5221,-6.49908 26.6908,-9.32556 30.6676,-14.05178 3.5918,-4.2686 3.6048,-7.52864 0.043,-10.862 -2.5936,-2.4275 -3.5698,-2.60908 -13.2422,-2.46325 -12.148,0.18313 -26.1263,3.10141 -56.8271,11.86397 -58.8893,16.80803 -99.3604,33.38243 -139.0062,56.92814 -10.4046,6.17932 -30.1057,17.47861 -43.7804,25.10956 -42.7611,23.86226 -44.6376,25.08853 -109.50455,71.55922 -25.38654,18.18692 -52.61984,37.39239 -60.51845,42.67882 -7.89862,5.28642 -17.01804,12.0178 -20.26538,14.95861 -3.24735,2.94081 0,0 -10.62151,10.16151 -14.62154,7.35156 -35.07836,30.44909 -71.83658,69.92203 -13.48509,14.48103 -10.20584,2.99459 -28.21695,13.78272 -17.12221,10.2557 -19.55243,11.56931 -19.55243,10.56863 z M 563.41155,685.81374 c 2.06378,-4.26795 7.2759,-17.00242 11.5825,-28.29885 l 7.83016,-20.53896 -0.72899,-78.37235 c -0.76224,-81.94524 -0.0885,-107.47364 3.24559,-122.98928 1.05023,-4.8873 1.60473,-9.19076 1.23223,-9.56327 -2.39267,-2.39267 -9.55612,7.40013 -15.01231,20.5226 -5.77484,13.88885 -13.247,47.07116 -20.48069,90.95049 -2.94119,17.84119 -3.88221,65.75567 -2.1325,108.58285 1.30749,32.00313 2.64707,44.67991 5.12758,48.52311 1.52713,2.3661 1.75175,2.41179 3.60633,0.73341 1.08778,-0.98442 3.66632,-5.28181 5.7301,-9.54975 z m 324.42834,-1.03825 c 0.81578,-1.29328 0.75946,-2.17211 -0.20074,-3.13232 -1.79559,-1.79559 -5.1549,1.41445 -4.16898,3.98374 0.80275,2.09192 2.75278,1.71197 4.36972,-0.85142 z m -308.0057,-5.07492 c 1.06485,-1.17664 1.99016,-3.9696 2.05929,-6.21573 0.10226,-3.32319 -0.25295,-4.07898 -1.91714,-4.07898 -1.48417,0 -2.44154,1.33005 -3.50147,4.86449 -2.16206,7.20959 -0.57405,9.77655 3.35932,5.43022 z m 338.29329,-12.75705 c 5.90287,-2.24292 8.63893,-4.54186 26.02583,-16.97826 16.45362,-11.76885 39.32908,-28.23169 62.83399,-42.27049 33.92,-20.25933 62.5271,-40.4754 112.3349,-79.38467 34.4979,-26.94936 49.1382,-38.8713 49.1382,-40.01444 0,-3.04265 -12.3283,1.23123 -49.1854,17.05128 -99.0095,42.49744 -147.15151,76.0309 -199.78241,139.15897 -23.53262,28.22618 -17.6375,28.62062 -1.36511,22.43761 z m -168.6934,-56.36167 c 27.85175,-27.1778 52.79367,-59.63368 79.21057,-103.07335 34.97023,-57.5047 64.72485,-123.51468 77.10015,-171.045 3.90539,-14.99961 4.7253,-21.05617 3.34276,-24.69253 -2.91434,-7.6653 -10.95433,-0.86055 -29.79413,25.21661 -4.2319,5.8576 -6.60868,8.35243 -6.83903,7.17869 -0.80031,-4.07798 13.60239,-25.47404 27.02133,-40.14177 6.6004,-7.21465 12.47599,-14.45117 14.39622,-17.73071 1.55324,-2.65276 -9.69777,-0.56372 -32.1578,5.97092 -11.43873,3.32806 -22.39715,6.51309 -24.35204,7.07786 -4.89176,1.41323 -6.33613,4.89262 -23.48503,56.57391 -24.51215,73.87179 -38.62891,113.06538 -60.65746,168.40867 -11.07221,27.81715 -18.35964,44.69786 -37.13046,86.00946 -8.94369,19.68362 -6.6176,19.72671 13.34492,0.24724 z m 176.71204,4.32072 c 4.45764,-2.27413 9.31633,-6.39826 28.81716,-24.4605 36.62012,-33.91861 51.97202,-43.9476 112.56692,-73.53715 46.589,-22.75025 73.8243,-37.59565 97.1467,-52.95278 14.8895,-9.80432 19.4699,-14.34287 18.4752,-18.30633 -3.0219,-12.04009 -46.001,-7.08056 -102.0161,11.77206 -27.3158,9.19348 -66.4305,25.5521 -92.50092,38.68591 -3.47882,1.75256 -6.61443,2.89718 -6.96802,2.54358 -0.3536,-0.35359 2.97916,-4.33631 7.40612,-8.85049 10.90112,-11.11587 20.88622,-15.80621 64.22752,-30.16971 66.0856,-21.90112 107.5784,-32.58971 134.0771,-34.53851 13.1386,-0.96625 15.5462,-1.51216 16.7722,-3.80295 2.4793,-4.63267 -7.8579,-18.06533 -18.0467,-23.45079 -16.5488,-8.7471 -44.4216,-14.15382 -104.1228,-20.19759 -50.0152,-5.06322 -63.7151,-4.83376 -74.9013,1.25455 -14.71695,8.00993 -24.71506,27.87782 -35.22135,69.99043 -5.39098,21.60885 -12.1613,54.85122 -11.51454,56.53664 0.60922,1.58759 5.64416,1.39084 12.36609,-0.48323 2.15738,-0.60147 1.40186,0.76039 -4.3397,7.82259 -11.66526,14.34844 -21.36887,32.68797 -37.69677,71.24576 -7.85586,18.55133 -11.52517,29.91259 -10.30066,31.89389 0.88809,1.43697 1.06623,1.40626 5.77385,-0.99538 z m -326.75844,-7.92433 c 12.11999,-20.67944 24.23011,-56.43577 29.15923,-86.09546 2.18117,-13.12459 1.70527,-22.40186 -1.80805,-35.24655 -4.57376,-16.72167 -4.06897,-21.36755 6.71298,-61.78298 6.98123,-26.16872 14.89787,-52.35975 33.44146,-110.63618 29.73097,-93.43479 44.39274,-142.51576 46.94311,-157.14436 2.49225,-14.29525 -0.77407,-18.19886 -9.77314,-11.67997 -11.14281,8.0718 -31.30954,36.12905 -43.72203,60.82888 -2.5108,4.99627 -7.81096,14.19185 -11.77812,20.43462 -9.58574,15.08418 -18.78728,32.00452 -34.09605,62.69787 -6.96868,13.9719 -17.70117,34.88921 -23.84995,46.48291 -11.94472,22.52211 -13.43015,26.22538 -11.11794,27.71777 0.79137,0.51077 10.53676,1.1719 21.65643,1.46918 13.39562,0.35812 20.64584,0.96974 21.48676,1.81259 2.02019,2.02485 0.43649,5.77845 -6.47744,15.35254 -15.2016,21.05044 -24.84035,48.77443 -27.85682,80.12467 -1.25054,12.99692 -0.86982,83.08387 0.58427,107.55929 1.80795,30.43138 3.45981,44.86141 5.13547,44.86141 0.77004,0 3.18197,-3.0403 5.35983,-6.75623 z m -121.05022,-7.82936 c 2.06538,-3.15217 1.53901,-6.1705 -1.99202,-11.42257 -2.7319,-4.06348 -6.89335,-5.47208 -7.95934,-2.69416 -0.8178,2.13115 1.34595,11.10638 3.4665,14.3791 2.05542,3.17219 4.2938,3.08162 6.48486,-0.26237 z m -3.99368,-42.43596 c 2.31512,-14.55536 5.73547,-62.40822 5.15684,-72.14733 -1.31892,-22.19886 -12.93598,-47.04981 -33.35687,-71.35622 -7.37966,-8.7838 -20.82761,-21.18338 -27.90637,-25.73083 -7.44807,-4.7847 -9.96334,8.53894 -5.99563,31.75933 5.83707,34.16049 23.43291,89.13869 38.91768,121.59826 14.25536,29.88248 20.29844,34.02082 23.18435,15.87679 z M 652.707,482.29061 c 5.93655,-3.50681 10.07938,-13.34048 6.24077,-14.81349 -3.5994,-1.38123 -12.60938,7.88771 -12.60938,12.9718 0,3.94903 1.88055,4.49285 6.36861,1.84169 z M 499.73517,441.47174 c 2.4486,-2.58943 7.01319,-8.39575 10.14353,-12.90293 3.13034,-4.50719 11.15675,-14.68024 17.83647,-22.60681 19.97534,-23.70398 34.01907,-43.55787 48.11832,-68.0258 23.18745,-40.23964 41.90076,-88.37592 51.68032,-132.9374 2.3461,-10.69025 2.96073,-16.37787 3.04479,-28.17569 0.095,-13.34262 -0.11264,-15.07908 -2.13351,-17.83647 -9.90315,-13.5123 -29.33198,-6.50351 -65.47681,23.62022 -33.69437,28.08147 -74.66356,66.17185 -85.47695,79.47066 -18.53198,22.7915 -31.34338,49.23513 -36.03608,74.381 -1.35371,7.25382 -1.67926,13.30421 -1.27964,23.78195 0.47795,12.53115 0.88962,14.88993 3.80151,21.78166 6.0266,14.26348 25.13636,46.9712 32.50513,55.63485 4.37554,5.14442 10.21976,8.41041 15.16543,8.47504 2.94346,0.0385 4.52265,-0.86926 8.10749,-4.66028 z m 93.81946,-33.83491 c 2.47037,-2.23565 2.55957,-4.69694 0.17023,-4.69694 -2.2396,0 -5.76035,3.0756 -5.76035,5.03203 0,2.01364 3.20724,1.8214 5.59012,-0.33509 z M 400.41138,376.60748 c 8.40269,-2.24456 13.86309,-5.50801 19.26044,-11.51117 5.5357,-6.15702 10.467,-15.61873 10.467,-20.08309 0,-1.61131 -3.36348,-10.76235 -7.4744,-20.33564 -4.11092,-9.57331 -10.39128,-24.45951 -13.95634,-33.08047 -12.62743,-30.53535 -21.24222,-47.28304 -35.5711,-69.1525 -16.29548,-24.87098 -33.40094,-44.3527 -54.34094,-61.88987 -15.62242,-13.08373 -19.89346,-14.57997 -18.75727,-6.5711 2.91633,20.55685 27.66703,96.16751 46.67876,142.59848 8.2931,20.25363 33.73372,75.84699 36.06583,78.8118 1.71329,2.1781 3.062,2.68061 7.16675,2.67019 2.78095,-0.008 7.48852,-0.66255 10.46127,-1.45663 z m 33.21303,-84.74012 c 5.11571,-5.83454 5.62181,-8.50902 6.052,-31.98212 0.69088,-37.69787 -1.94509,-84.58135 -5.90544,-105.03436 -2.36103,-12.19341 -9.54799,-26.48445 -13.31901,-26.48445 -0.52506,0 -2.67747,2.01273 -4.78314,4.47272 -9.15501,10.69557 -16.03161,46.21126 -15.983,82.54761 0.0263,19.62778 0.74677,23.26332 8.46226,42.69941 11.62399,29.282 19.85345,40.19414 25.47633,33.78119 z m 25.31966,-31.53956 c 5.76243,-3.51373 6.3332,-7.01064 6.27653,-38.45506 -0.0579,-32.14589 -1.26899,-41.51559 -8.03916,-62.19732 -5.94367,-18.15691 -14.78112,-34.55198 -18.62459,-34.55198 -1.39849,0 -0.73139,7.23226 2.19359,23.78195 3.43053,19.41 4.5388,34.45868 5.42587,73.67518 0.62463,27.61492 1.16775,36.79625 2.25405,38.10518 1.92546,2.32003 6.37002,2.16871 10.51371,-0.35795 z m 198.6026,-64.18176 c 2.03455,-2.49767 10.37371,-14.75667 18.53148,-27.24219 20.5463,-31.44632 25.03571,-38.04126 30.4764,-44.76983 5.24784,-6.49011 5.46322,-8.43382 1.19967,-10.82689 -4.08726,-2.29411 -14.87319,-0.2888 -25.44151,4.73007 -6.33995,3.01083 -10.19934,5.90479 -17.05099,12.7857 -11.03874,11.08588 -15.9022,20.36353 -18.37732,35.05702 -2.00601,11.9086 -2.3524,33.70009 -0.58809,36.99674 l 1.23521,2.308 3.15799,-2.2487 c 1.73689,-1.23677 4.82262,-4.29224 6.85716,-6.78992 z"
     id="path2013"
     inkscape:connector-curvature="0"
     sodipodi:nodetypes="csssscscsccssssccccssssscscsssssccccssccssscssccccccccssssssscsssscssssccsscscscsssscsssscssscssscscsscscsscscccssscccsssscccsssscsccscccccsscccccscsccccsccccscccssccsccssccccssccscssssscscccsscscccssccsscsccsssccsccccccssccscsssscssssscsscssssscssscscccssccscsscsscccssssssccsscscsssscccsccsssssssscssscsssccssccsccscsscccsssssssccccsssccscccsscsccccccssscccc" />
  <path
     style="fill:#28220b;fill-opacity:1;stroke:none;stroke-width:3.05752373;stroke-miterlimit:4;stroke-dasharray:none"
     d="m 1354.8087,480.6119 c 0,-7.54551 1.4201,-13.71912 3.1558,-13.71912 5.6718,0 24.3619,8.79564 24.3619,11.46482 0,1.43236 -6.1914,5.61234 -13.7588,9.28885 l -13.7589,6.68457 z"
     id="path2015"
     inkscape:connector-curvature="0" />
  <path
     style="fill:#28220b;fill-opacity:1;stroke:none;stroke-width:3.05752373;stroke-miterlimit:4;stroke-dasharray:none"
     d="m 1354.8175,426.70772 c 0.01,-4.59831 3.3223,-9.41975 9.1638,-13.3216 9.3409,-6.23921 12.2383,-13.71754 5.3507,-13.81037 -2.1021,-0.0283 0.9937,-3.08884 6.8794,-6.80114 15.4246,-9.72869 19.186,-14.06359 17.0449,-19.64328 -1.5658,-4.08052 -5.0041,-4.61108 -19.8357,-3.06087 -16.2942,1.70309 -18.0908,1.30416 -19.5681,-4.3449 -2.1456,-8.20461 3.653,-10.27642 29.0033,-10.36284 23.4817,-0.0801 37.0214,7.18437 38.6439,20.73351 1.2254,10.23294 -16.9477,30.40315 -39.6622,44.02091 -24.0902,14.44246 -27.0304,15.15963 -27.02,6.59058 z"
     id="path2017"
     inkscape:connector-curvature="0" />
  <path
     style="fill:none;stroke:#000000;stroke-width:1px;stroke-linecap:butt;stroke-linejoin:miter;stroke-opacity:1"
     d="m 1048.7552,720.58562 60.7788,-22.36938"
     id="path2023"
     inkscape:connector-curvature="0" />
  <path
     style="fill:#28220b;fill-opacity:1;stroke:none;stroke-width:1.52876186;stroke-miterlimit:4;stroke-dasharray:none"
     d="m 1379.116,724.96283 c -41.1464,-6.53801 -76.2249,-8.17891 -144.4679,-6.75793 -27.1062,0.56442 -32.2382,0.23063 -56.5642,-3.67903 -35.448,-5.69716 -75.6914,-7.11348 -91.5684,-3.22263 -5.9014,1.44621 -11.4633,2.38496 -12.3598,2.08612 -2.5891,-0.86304 40.968,-15.98108 51.9503,-18.03115 15.9077,-2.96952 42.4098,-12.51577 108.9313,-39.23791 63.9038,-25.67056 102.13,-39.46009 114.2679,-41.22038 8.9928,-1.30418 11.3412,-4.13518 8.3034,-10.00967 -1.2468,-2.41102 -2.8527,-4.38368 -3.5686,-4.38368 -1.0632,0 -0.5307,-13.55163 0.5866,-14.92755 0.1806,-0.22238 5.0766,1.05986 10.8801,2.84942 12.1746,3.75413 23.6188,9.24577 26.4985,12.7156 4.987,6.00892 -8.5112,14.84537 -38.3837,25.12764 -19.5334,6.72349 -27.2477,10.24109 -27.2477,12.42449 0,1.78011 13.689,12.12492 61.1504,46.21148 37.7774,27.13152 45.3978,33.41331 43.7559,36.0699 -1.82,2.94485 -14.993,4.88197 -31.8205,4.6793 -9.5073,-0.1145 -18.6619,-0.42681 -20.3436,-0.69402 z m 21.2542,-11.7946 c 2.5025,-1.8299 1.9552,-2.71185 -6.5958,-10.62854 -12.1133,-11.21482 -43.4368,-32.17239 -58.9924,-39.47001 -30.6128,-14.36135 -51.7717,-12.29062 -112.8012,11.0393 -27.9079,10.66842 -43.8969,18.17109 -43.8969,20.59812 0,2.3492 10.4403,8.06291 18.3451,10.03981 2.9429,0.73597 42.8436,2.36895 88.6682,3.62883 55.612,1.52898 86.6218,2.97785 93.2545,4.35711 13.1626,2.73719 18.7203,2.84709 22.0185,0.43538 z"
     id="path2025"
     inkscape:connector-curvature="0" />
  <path
     style="fill:#004000;fill-opacity:1;stroke:none;stroke-width:1.52876186;stroke-miterlimit:4;stroke-dasharray:none"
     d="M 516.89437,919.39397 C 509.21639,915.99064 494.91595,904.02316 475.09484,884.41353 454.66278,864.19951 444.37941,851.97035 429.05789,829.66559 416.45824,811.32332 381.02422,775.78586 356.37437,756.7699 337.42248,742.1496 327.57147,735.0496 271.15399,695.34833 198.23452,644.03452 157.90227,606.42562 133.20103,566.71034 112.12164,532.81838 98.546994,499.60818 77.965941,431.57839 71.606617,410.55791 65.054143,389.32337 63.404887,384.39052 c -1.649256,-4.93285 -2.738474,-9.22899 -2.420485,-9.54698 0.317989,-0.31798 13.18973,12.80288 28.603869,29.15747 17.948009,19.04307 28.165929,31.05085 28.415669,33.39322 0.21448,2.01168 4.13429,11.15727 8.71068,20.32354 4.57639,9.16627 9.53876,20.44963 11.02749,25.07414 16.39688,50.93454 63.39816,102.78202 127.67093,140.83482 21.91887,12.97709 33.82796,21.09142 62.96891,42.90425 13.71418,10.26547 29.52542,21.50439 35.13607,24.97539 l 10.20115,6.31089 -4.93874,2.23852 -4.93874,2.23854 -24.53272,-16.11454 c -13.493,-8.863 -48.53837,-31.88319 -77.87861,-51.15598 -60.39181,-39.66972 -76.03909,-51.22287 -85.22341,-62.92465 -8.71516,-11.10401 -20.9538,-32.87561 -48.05452,-85.48534 C 97.372272,426.86132 97.599692,427.27819 92.59184,421.42954 l -4.400015,-5.13877 0.801879,6.87943 c 4.275152,36.67704 31.703646,104.66831 58.018956,143.82065 30.50326,45.38321 58.07799,70.14973 143.62495,128.99823 75.09467,51.65827 92.28412,66.43121 135.26701,116.25101 21.14343,24.50654 44.21746,47.01043 59.00684,57.54885 14.26018,10.16133 44.53942,28.82619 46.76353,28.82619 0.85234,0 4.34243,-2.39045 7.75573,-5.31211 8.59014,-7.35284 17.79795,-10.68447 24.87971,-9.00216 l 5.55566,1.3198 -9.18243,12.33171 c -15.34533,20.60826 -29.75329,27.66317 -43.78929,21.4416 z"
     id="path867"
     inkscape:connector-curvature="0" />
  <path
     style="fill:#004000;fill-opacity:1;stroke:none;stroke-width:1.52876186;stroke-miterlimit:4;stroke-dasharray:none"
     d="m 623.10808,924.07639 c -5.4847,-1.93641 -13.79125,-5.96377 -18.45899,-8.9497 -9.51476,-6.08652 -34.00755,-27.1986 -32.87169,-28.33447 0.40396,-0.40396 9.54677,3.98052 20.31734,9.74328 22.78237,12.18964 33.43677,16.99266 44.04305,19.85465 15.11221,4.07787 19.8203,2.79209 37.54781,-10.25432 16.76994,-12.34169 28.15012,-15.94445 67.17238,-21.26558 24.7256,-3.37162 43.46696,-7.347 58.63266,-12.43704 5.86192,-1.96743 16.40684,-3.48142 30.57524,-4.38984 24.24576,-1.55454 32.33956,-3.40788 53.69196,-12.29451 18.40295,-7.6591 70.63472,-33.7157 81.44594,-40.63053 7.70435,-4.92768 8.026,-5.40516 8.026,-11.91453 0,-9.81939 4.36996,-14.72403 32.86842,-36.88995 29.4827,-22.93151 45.5221,-39.11044 42.9304,-43.3039 -0.5318,-0.86042 2.8459,-2.25738 7.8803,-3.2592 4.846,-0.96433 11.2188,-2.38707 14.1616,-3.16166 8.5864,-2.25998 8.9126,-1.54556 1.1414,2.49966 -8.3799,4.36208 -27.8396,22.15982 -31.0796,28.42524 -1.2099,2.33976 -8.8996,9.32928 -17.0882,15.53227 -28.78723,21.80674 -34.62661,33.33359 -19.0745,37.6527 7.7199,2.14395 12.6006,2.02018 32.7978,-0.83176 32.1928,-4.54577 48.5908,-2.66587 48.5908,5.57056 0,5.06444 -6.6901,6.34782 -39.7479,7.62497 -17.2367,0.66592 -34.7793,1.92343 -38.9834,2.79446 -12.85494,2.66336 -36.83802,12.86069 -69.62404,29.60337 -49.54319,25.29995 -58.44459,28.10419 -96.2466,30.32082 -28.49198,1.6707 -31.25415,2.20803 -70.32305,13.68026 -30.48423,8.95141 -37.29871,10.34931 -58.40806,11.98167 l -16.36712,1.26566 -14.69291,9.68844 c -8.08111,5.32865 -18.25845,10.92054 -22.61631,12.42642 -11.00949,3.80437 -24.1136,3.5341 -36.24073,-0.74744 z"
     id="path873"
     inkscape:connector-curvature="0" />
  <path
     style="fill:#004000;fill-opacity:1;stroke:none;stroke-width:1.52876186;stroke-miterlimit:4;stroke-dasharray:none"
     d="m 488.97746,835.33682 c -12.18917,-4.20758 -20.56716,-14.7616 -37.75163,-47.55692 -17.72164,-33.82048 -31.62366,-52.33815 -44.96149,-59.88929 -14.87893,-8.42362 -39.95302,-24.19319 -39.95302,-25.12721 0,-1.20066 8.05457,-2.88731 13.78828,-2.88731 4.6968,0 13.72944,-7.38461 13.72944,-11.22446 0,-1.29467 0.58277,-2.71412 1.29504,-3.15433 0.71228,-0.44021 12.4389,5.02273 26.05917,12.13987 13.62028,7.11714 25.00335,12.94026 25.29572,12.94026 0.29238,0 2.24488,-4.29965 4.3389,-9.55477 2.51211,-6.30436 4.20989,-14.49537 4.99073,-24.078 l 1.18343,-14.52323 2.86974,15.9773 c 1.57835,8.78751 4.64087,20.82651 6.80561,26.75333 6.0958,16.68968 7.601,24.61325 5.22051,27.48156 -5.15,6.20537 -19.14118,0.45782 -36.5995,-15.03501 -10.66631,-9.46548 -13.94164,-10.96476 -13.94164,-6.38178 0,3.59767 9.34274,19.68821 22.70774,39.1084 28.85103,41.9224 40.91865,61.54472 46.89514,76.25296 2.16836,5.33638 3.73342,9.87735 3.47789,10.09104 -0.25552,0.21369 -2.70805,-0.38591 -5.45006,-1.33241 z"
     id="path880"
     inkscape:connector-curvature="0" />
  <path
     style="fill:#004000;fill-opacity:1;stroke:none;stroke-width:1.52876186;stroke-miterlimit:4;stroke-dasharray:none"
     d="m 638.38411,865.69033 c -2.92674,-3.52651 -1.03224,-20.15199 3.2215,-28.27063 4.80077,-9.16274 5.42832,-28.53338 2.9949,-92.44513 -1.58095,-41.52265 -2.29086,-49.90289 -4.69452,-55.41762 -4.91604,-11.2789 -7.56694,-9.06431 -17.84211,14.90543 -14.63393,34.13778 -22.73176,68.0471 -30.0401,125.79161 -1.99886,15.79338 -4.00935,29.09028 -4.46775,29.54868 -0.45839,0.4584 -2.69278,-2.33927 -4.9653,-6.21703 -3.69565,-6.30615 -4.26683,-9.26422 -5.41041,-28.01992 -0.70321,-11.53319 -1.31232,-34.21234 -1.35359,-50.39811 -0.0443,-17.36754 -0.66606,-29.42866 -1.51711,-29.42866 -2.42399,0 -6.0423,6.29353 -10.98653,19.10952 -5.42105,14.05195 -9.83332,23.10159 -11.88029,24.36669 -2.77965,1.71792 -10.71569,-7.00709 -13.74997,-15.11692 -2.1297,-9.43754 -4.13985,-60.71159 -16.08929,-56.477 -3.35094,1.28587 -5.42094,9.08076 -6.66185,25.08616 -0.68142,8.78899 -1.80284,14.48156 -2.92612,14.85354 -4.61796,1.52924 -9.15256,-16.8296 -13.43366,-54.38766 -2.96589,-26.01982 -5.70291,-37.67925 -11.5765,-49.31476 -8.40719,-16.65455 -3.72392,-11.12612 8.64569,10.20592 l 12.0707,20.81654 15.28761,6.80003 c 11.9937,5.33487 16.67168,8.35023 21.71126,13.99479 4.34573,4.86742 6.15136,8.10902 5.58192,10.02108 -0.46295,1.55448 -0.38768,5.85412 0.16727,9.55477 0.78148,5.21126 1.65776,6.72844 3.88616,6.72844 3.515,0 7.63682,-5.54687 7.63682,-10.27711 0,-1.91496 0.23245,-3.48175 0.51656,-3.48175 0.2841,0 7.29685,3.05395 15.58387,6.78656 8.28703,3.7326 15.63503,6.43569 16.3289,6.00686 2.61726,-1.61756 8.84764,-16.20307 21.79059,-51.01246 20.95699,-56.36272 32.69886,-76.64538 51.82904,-89.52839 4.22131,-2.84281 7.92573,-4.91812 8.23203,-4.61182 0.30632,0.30631 -4.73372,10.66382 -11.20006,23.0167 l -11.75699,22.45977 0.23917,24.71406 c 0.29992,30.99175 1.56756,49.83233 3.61288,53.69685 1.06429,2.01092 1.22694,18.71789 0.49541,50.88713 l -1.08909,47.89328 3.54019,2.95088 c 4.65144,3.87713 9.01165,3.79958 14.41752,-0.25645 2.42564,-1.81998 16.10529,-14.77547 30.39921,-28.79001 14.29393,-14.01453 28.15899,-26.97227 30.81124,-28.79497 6.59319,-4.531 10.92035,-4.3145 12.15587,0.60822 1.88816,7.52301 -2.48014,21.36971 -14.67812,46.52693 -13.41224,27.66153 -15.63354,34.54074 -11.64719,36.07045 3.04618,1.16894 6.97771,-1.33681 20.90539,-13.324 12.46744,-10.73039 52.25287,-34.97654 57.3929,-34.97654 1.91653,0 3.90978,-0.68794 4.42943,-1.52876 0.51966,-0.84082 3.87511,-1.52876 7.45657,-1.52876 9.60324,0 21.09909,-3.86423 39.64358,-13.32584 16.22891,-8.28017 16.69441,-8.41268 25.98895,-7.39754 22.96789,2.50855 26.77022,2.59831 37.6752,0.8894 14.08814,-2.20773 35.14572,-10.43662 84.15284,-32.88535 44.67447,-20.46408 58.14507,-25.75148 73.38057,-28.80297 13.97,-2.79804 27.5177,-4.61733 27.5177,-3.69529 0,0.37399 -11.1791,4.67335 -24.8424,9.55413 -13.6633,4.88078 -25.8743,9.66589 -27.1355,10.63358 -1.2612,0.96769 -4.032,2.49596 -6.1574,3.39617 -2.1253,0.9002 -13.8203,7.81306 -25.9889,15.36191 -36.82215,22.84277 -70.85836,39.60454 -96.50669,47.5265 -12.19351,3.76619 -35.12622,7.15916 -68.90989,10.19542 -17.03484,1.53097 -28.25381,3.31576 -33.59148,5.34391 -11.68745,4.44088 -42.74999,23.60004 -70.7761,43.6542 -14.12626,10.10808 -25.94547,17.50595 -27.97582,17.51059 -4.65035,0.0107 -11.92555,-3.83895 -13.11549,-6.93989 -2.26553,-5.90389 -0.64673,-17.36048 4.61562,-32.66569 8.93169,-25.97715 9.44825,-30.70944 3.35224,-30.70944 -5.21077,0 -32.51511,24.11665 -60.299,58.47296 -10.94329,13.53199 -11.57533,17.49284 -14.40208,14.08681 z"
     id="path882"
     inkscape:connector-curvature="0"
     sodipodi:nodetypes="scsssscssssssccscssscsscssssccsccscssscccsccscsscssssscssscssssscscsss" />
</svg>
