<?xml version="1.0" encoding="UTF-8" standalone="no"?>
<!-- Created with Inkscape (http://www.inkscape.org/) -->

<svg
   xmlns:dc="http://purl.org/dc/elements/1.1/"
   xmlns:cc="http://creativecommons.org/ns#"
   xmlns:rdf="http://www.w3.org/1999/02/22-rdf-syntax-ns#"
   xmlns:svg="http://www.w3.org/2000/svg"
   xmlns="http://www.w3.org/2000/svg"
   xmlns:sodipodi="http://sodipodi.sourceforge.net/DTD/sodipodi-0.dtd"
   xmlns:inkscape="http://www.inkscape.org/namespaces/inkscape"
   version="1.1"
   id="svg869"
   width="1261.8712"
   height="1080.2645"
   viewBox="0 0 1261.8712 1080.2645"
   sodipodi:docname="2.svg"
   inkscape:version="0.92.2 5c3e80d, 2017-08-06">
  <metadata
     id="metadata875">
    <rdf:RDF>
      <cc:Work
         rdf:about="">
        <dc:format>image/svg+xml</dc:format>
        <dc:type
           rdf:resource="http://purl.org/dc/dcmitype/StillImage" />
        <dc:title />
      </cc:Work>
    </rdf:RDF>
  </metadata>
  <defs
     id="defs873">
    <clipPath
       clipPathUnits="userSpaceOnUse"
       id="clipPath888">
      <path
         style="fill:none;stroke:#000000;stroke-width:1px;stroke-linecap:butt;stroke-linejoin:miter;stroke-opacity:1"
         d="m 1108.1558,1182.7256 -272.70409,181.2772 -174.97196,266.3988 255.36448,33.1028 318.41747,-327.8754 z"
         id="path890"
         inkscape:connector-curvature="0" />
    </clipPath>
    <clipPath
       clipPathUnits="userSpaceOnUse"
       id="clipPath904">
      <path
         style="fill:none;stroke:#000000;stroke-width:1px;stroke-linecap:butt;stroke-linejoin:miter;stroke-opacity:1"
         d="m 706.19314,1611.4857 129.25857,-83.5452 58.32399,-78.8162 36.25545,-59.9003 48.86604,-50.4423 77.23991,-23.6449 20.4922,-9.4579 56.7476,-140.2929 58.324,302.6542 -338.90963,225.4144 -173.39563,-53.5951 z"
         id="path906"
         inkscape:connector-curvature="0" />
    </clipPath>
  </defs>
  <sodipodi:namedview
     pagecolor="#ffffff"
     bordercolor="#666666"
     borderopacity="1"
     objecttolerance="10"
     gridtolerance="10"
     guidetolerance="10"
     inkscape:pageopacity="0"
     inkscape:pageshadow="2"
     inkscape:window-width="1440"
     inkscape:window-height="856"
     id="namedview871"
     showgrid="false"
     inkscape:zoom="0.15859684"
     inkscape:cx="938.0577"
     inkscape:cy="-27.584325"
     inkscape:window-x="-7"
     inkscape:window-y="6"
     inkscape:window-maximized="0"
     inkscape:current-layer="g2832"
     fit-margin-top="0"
     fit-margin-left="0"
     fit-margin-right="0"
     fit-margin-bottom="0" />
  <g
     id="g2832">
    <path
       inkscape:connector-curvature="0"
       id="path5596"
       d="m 460.34539,861.50111 c -12.3765,19.6731 -75.2543,39.5481 -108.666,47.0918 -91.8061,23.7359 -188.2459,28.7256 -281.148496,8.3301 24.5784,-6.3475 111.459196,-5.0974 157.314496,-1.5781 75.3845,-11.4673 145.5485,-46.8608 222.5332,-52.0899 z"
       style="fill:#000000;stroke-width:1.33333337" />
    <path
       inkscape:connector-curvature="0"
       id="path5594"
       d="m 183.77509,840.20431 c -26.0434,8.1801 74.2346,10.5148 96.3789,1.791 -31.8544,-2.9025 -64.7599,5.9276 -96.3789,-1.791 z"
       style="fill:#000000;stroke-width:1.33333337" />
    <path
       inkscape:connector-curvature="0"
       id="path5592"
       d="m 465.78289,693.52261 c -25.4172,0.7057 -2.1952,17.6791 25.9063,2.7031 -11.5836,-2.1623 -20.0408,-2.8659 -25.9063,-2.7031 z"
       style="fill:#000000;stroke-width:1.33333337" />
    <path
       inkscape:connector-curvature="0"
       id="path5590"
       d="m 420.43919,659.02651 c 48.2916,-1.0448 96.2452,14.7271 142.9882,22.8887 34.7398,55.264 110.6258,62.6189 169.6817,66.3223 26.9281,0.1571 -4.3884,15.2174 -10.3106,18.7519 -47.4683,34.9626 -111.6436,39.2228 -171.875,46.3828 -86.3392,-2.2083 -158.1885,-56.1354 -234.9551,-88.8867 -69.4252,-32.4606 28.0267,-40.3287 56.0977,-57.9043 16.1402,-4.9896 32.2758,-7.2064 48.3731,-7.5547 z m -93.3477,48.5156 c 49.3225,26.0428 124.7749,28.118 183.709,45.1368 50.0005,16.0732 111.1745,22.9229 159.1133,21.1464 -50.7018,-11.4747 -104.4448,-8.9409 -154.3028,-25.9707 -62.4697,-13.6468 -127.9487,-25.9242 -188.5195,-40.3125 z m 469.3066,46.8184 c 11.1832,-0.4315 22.9021,1.6933 35.3516,7.3203 19.0822,-4.7178 4.5624,30.4317 3.7441,39.7539 -32.47,60.4925 -114.8512,65.3281 -174.7968,84.0059 7.918,-21.6039 62.6968,-83.4408 104.748,-100.3926 -42.9412,-5.1705 -79.7942,60.9713 -114.4512,90.2266 -45.4415,35.3673 19.1948,17.9191 15.0137,19.207 -70.0898,43.2907 -64.6556,-63.5487 -0.7207,-67.4785 44.2454,-20.9 82.6508,-70.7726 131.1113,-72.6426 z m -337.6836,8.3516 c -17.3887,0.2872 41.947,26.1259 55.9551,5.8164 -8.0359,-4.2078 -21.3207,4.1237 -30.1582,-1.0528 -13.6844,-3.5362 -21.7841,-4.8299 -25.7969,-4.7636 z"
       style="fill:#000000;stroke-width:1.33333337" />
    <path
       inkscape:connector-curvature="0"
       id="path5588"
       d="m 829.27899,629.05581 c 2.2522,-0.6051 -1.6664,5.1823 -1.3731,0.6992 0.6039,-0.3959 1.0513,-0.6127 1.3731,-0.6992 z"
       style="fill:#000000;stroke-width:1.33333337" />
    <path
       inkscape:connector-curvature="0"
       id="path5586"
       d="m 938.79659,622.90541 c 7.5062,-0.047 14.3365,0.071 19.9668,0.2285 23.5038,22.3071 -70.4736,61.4584 -97.668,68.9766 -60.5353,-60.3817 25.1575,-68.8726 77.7012,-69.2051 z"
       style="fill:#000000;stroke-width:1.33333337" />
    <path
       inkscape:connector-curvature="0"
       id="path5584"
       d="m 634.11879,595.11051 c -27.5792,1.3537 68.5924,24.9151 53.6133,13.1191 -10.9138,-4.7568 -22.3271,-8.1978 -33.5312,-12.1718 -9.6758,-0.881 -16.1422,-1.1407 -20.0821,-0.9473 z"
       style="fill:#000000;stroke-width:1.33333337" />
    <path
       inkscape:connector-curvature="0"
       id="path5582"
       d="m 639.13249,542.63391 c 20.2124,-0.8968 40.6492,1.2043 59.6191,5.2071 39.6847,18.8972 89.736,39.2794 109.2579,81.8808 21.0316,25.9256 76.3855,130.1815 6.7812,108.4785 -33.6199,-30.5455 -93.9895,13.2618 -144.5918,-15.6543 -82.4817,-1.6881 -112.3153,-76.102 -122.416,-145.3652 24.6005,-23.229 57.6623,-33.0521 91.3496,-34.5469 z m -64.0059,46.9239 c -3.8037,0.6 -3.1751,10.497 6.3047,13.9707 56.7972,37.3457 111.3994,83.9686 176.7832,103.6445 43.8809,14.029 28.0347,-4.1717 -6.3105,-8.2305 -61.6534,-23.0761 -115.6478,-64.6282 -169.2598,-102.9629 -3.1454,-5.0451 -5.7886,-6.6946 -7.5176,-6.4218 z m 21.5391,41.457 c -31.345,-2.158 33.0118,50.7853 51.3399,53.3906 84.6513,30.8135 -53.2261,-18.2188 -51.3399,-53.3906 z m 333.7383,3.2852 c -16.329,1.2905 -21.5615,35.918 7.6094,1.7851 -2.7177,-1.474 -5.2767,-1.9695 -7.6094,-1.7851 z m 66.9473,2.1796 -80.0879,64.3555 c 15.4288,6.61 -33.4813,82.8949 -0.2383,117.3242 33.0029,38.3289 0.8,48.7831 -28.8711,68.6875 -21.9007,-4.8931 -149.9409,-19.6983 -66.1133,-38.8476 49.2494,-33.1901 27.9418,-127.0803 95.2227,-147.1641 z"
       style="fill:#000000;stroke-width:1.33333337" />
    <path
       inkscape:connector-curvature="0"
       id="path5580"
       d="m 847.92159,473.21211 c 1.3859,0.033 2.3128,7.6775 -1.3848,3.2324 0.4098,-2.4103 0.9228,-3.2435 1.3848,-3.2324 z"
       style="fill:#000000;stroke-width:1.33333337" />
    <path
       inkscape:connector-curvature="0"
       id="path5578"
       d="m 951.21649,426.07731 c -19.8583,17.5501 -27.4896,67.8246 -52.6777,91 10.1367,25.3532 45.9863,-68.5649 52.6777,-91 z"
       style="fill:#000000;stroke-width:1.33333337" />
    <path
       inkscape:connector-curvature="0"
       id="path5576"
       d="m 330.33169,396.12811 c -3.4804,-0.537 13.7151,16.2243 18.4649,18.8301 44.3695,30.0135 81.5499,71.3658 130.3066,95.207 -44.6887,-36.302 -91.0525,-71.7066 -137.1738,-106.5684 -6.9815,-5.1878 -10.4375,-7.2897 -11.5977,-7.4687 z"
       style="fill:#000000;stroke-width:1.33333337" />
    <path
       inkscape:connector-curvature="0"
       id="path5574"
       d="m 877.16379,356.61831 c -6.9975,1.3003 0.3058,23.7507 3.9257,0.9317 -1.6358,-0.8712 -2.9261,-1.1174 -3.9257,-0.9317 z"
       style="fill:#000000;stroke-width:1.33333337" />
    <path
       inkscape:connector-curvature="0"
       id="path5572"
       d="m 706.70479,330.52461 c 3.7,0.1538 8.3817,1.441 14.1836,4.0742 26.936,8.2636 50.2288,28.5342 65.0605,52.2793 33.0539,31.3648 25.7587,71.847 -8.9258,82.1035 -36.3894,43.0355 54.9615,31.3258 7.9434,45.1758 35.6341,21.1052 -31.0551,8.2344 -30.4551,43.4668 -55.1769,-19.4512 15.131,-9.9702 -7.0078,-29.7539 27.9857,-9.5155 23.518,-45.5799 5.7676,-75.836 -26.2007,-18.565 -82.3331,-122.9971 -46.5664,-121.5097 z m 14.7734,32.6621 c -10.6626,2.337 23.2427,39.2049 26.377,46.8691 50.019,61.9753 0.4278,-22.3573 -18.8594,-45.5703 -3.562,-1.2613 -5.9944,-1.6327 -7.5176,-1.2988 z m 82.1172,99.9609 c 24.8973,8.3558 -31.3004,16.023 -2.3047,2.1484 z m 29.0059,3.9805 c 10.9849,-0.1133 -18.2769,19.6533 -7.4063,1.4336 3.4464,-0.9964 5.837,-1.4174 7.4063,-1.4336 z m -3.8477,19.1972 c 1.2716,-0.1919 2.842,-0.1297 4.748,0.2364 20.3138,-2.0692 -2.4916,17.6668 11.8907,18.7851 12.333,44.1216 -35.7132,-16.1423 -16.6387,-19.0215 z m -25.3848,0.1895 c 7.609,-1.9117 0.6389,11.7982 -4.2031,1.8887 1.7308,-1.0252 3.1161,-1.6156 4.2031,-1.8887 z m 9.3262,45.8633 c 15.7107,-0.4223 26.11,48.3071 -2.6875,18.8535 -36.268,51.0392 -42.6227,0.1709 -0.5156,-18.0762 1.0845,-0.5028 2.1557,-0.7492 3.2031,-0.7773 z m -36.0723,12.5762 c 2.052,0.024 -10.0033,19.334 -4.0683,3.7304 2.3706,-2.7144 3.5948,-3.7361 4.0683,-3.7304 z"
       style="fill:#000000;stroke-width:1.33333337" />
    <path
       inkscape:connector-curvature="0"
       id="path5570"
       d="m 1010.3454,299.41711 c 31.6585,31.9321 33.0171,97.2189 35.4238,140.1797 -11.5258,36.9306 -46.22101,155.8252 -91.82221,99.8242 32.1287,-76.1029 43.2909,-159.7119 56.39841,-240.0039 z"
       style="fill:#000000;stroke-width:1.33333337" />
    <path
       inkscape:connector-curvature="0"
       id="path5568"
       d="m 998.46839,296.04601 2.15431,3.0059 c -3.14141,60.6921 -16.26591,120.2098 -34.55851,178.0742 -0.5147,71.4729 -66.7335,50.1631 -109.2676,80.1231 12.6155,-26.6476 26.7828,-76.9581 29.041,-100.2696 37.6997,-51.7765 44.8891,-130.615 107.293,-160.6132 z m -83.2441,253.2168 c 4.8227,-0.1007 9.3118,0.7107 13.2656,2.6446 15.4057,0.5404 25.8749,12.5139 37.4395,20.7656 47.92791,73.1815 -62.4454,18.7711 -101.0899,46.9043 -73.9917,16.9411 3.7655,-69.3408 50.3848,-70.3145 z m -107.7676,31.0469 c 30.4026,2.305 -31.3306,25.928 0,0 z m 96.9356,7.8965 c -19.1415,0.9202 18.8737,22.4541 34.3652,6.7402 l -4.5781,-2.0136 -6.4258,-1.3594 c -11.4844,-2.6942 -18.9441,-3.5796 -23.3613,-3.3672 z m -806.460996,0.1484 c 5.387196,0.1042 10.549996,0.3208 15.124996,0.6153 89.8275,-2.205 171.9131,37.433 258.8164,53.7754 26.4855,12.3053 -93.1212,28.8478 -107.3105,44.7636 -3.7494,48.7016 77.1811,62.8419 111.2598,87.9844 -62.4294,4.5812 -119.4191,-22.6993 -175.3946,-46.5019 -53.4295,-27.5566 -112.560396,-74.0815 -144.335896,-115.4336 57.380396,29.6328 122.514796,57.888 188.892596,65.9882 -22.4318,-11.2937 -121.3882,-38.1568 -168.796896,-65.1347 -64.6847,-22.0113 -15.966,-26.7855 21.7441,-26.0567 z"
       style="fill:#000000;stroke-width:1.33333337" />
    <path
       sodipodi:nodetypes="ccccccccccccccccccccccccccccccccccccccccccccccccccccccccccccccccccccccccccccccccccccccccccccccccccccccccccccccccccccccccccccccccccccccccccccccccccccccccccccccccccccccc"
       inkscape:connector-curvature="0"
       id="path879"
       d="m 803.29459,0.001114 c -17.1387,-0.2662 -19.5687,47.2395 -3.0801,73.8692 14.7015,69.818296 22.3369,140.795296 23.0079,212.300696 8.2179,58.3666 20.4326,117.4166 21.3281,176.0625 -39.3454,-4.506 -4.698,-20.011 -19.8926,-42.457 -26.6134,-62.0871 -83.8699,-98.2554 -142.2207,-125.1523 -23.0596,32.5257 23.8149,110.5916 43.3652,149.2148 38.5457,26.2141 17.2268,65.9838 -18.2285,50.9942 -16.9536,24.4599 -92.3501,56.6637 -123.9375,13.2011 -59.865,-53.2322 -87.0317,-130.8625 -101.3965,-207.3203 21.2388,-12.6728 83.2282,49.0609 119.8555,64.6641 42.6801,19.8598 70.0466,57.4576 98.6523,92.8633 11.1859,44.5355 64.5755,13.7973 25.0547,-14.4024 -46.398,-46.2865 -107.8816,-86.4807 -163.7011,-121.0078 -31.2899,-15.0898 -103.9736,-93.5918 -94.7422,-13.3848 -0.018,33.8505 59.8409,134.4858 -13.4883,87.2832 -56.5699,-13.8996 -131.7918,-55.869 -183.627,-21.6855 20.9631,54.2986 56.7744,110.912 104.6582,148.0664 41.5431,49.5064 97.1815,94.6942 159.9336,108.1328 49.522,41.0325 -34.3987,22.7481 -76.916,13.2305 -59.214,-9.3114 -118.9729,-25.7019 -178.9531,-40.0606 -88.0163,-37.2903 -184.836196,-32.3031 -278.01369636,-30.3808 -12.84089964,42.5944 108.68539636,77.8068 89.69340036,114.2539 -71.8853,1.7565 -23.0775,55.4179 16.960896,65.9902 74.4159,29.4661 -10.271496,23.3966 -46.179696,36.1563 -86.0844,8.9747 -38.1015,63.9457 23.0742,60.457 68.084496,3.2934 2.2555,25.2585 -25.4746,30.4102 -55.5076004,6.7045 -52.7620004,53.9408 2.6036,49.9335 100.148496,22.8932 205.044496,16.7367 303.851496,-10.4472 67.8419,-25.8716 6.7162,13.249 -11.916,40.2168 -36.2965,19.0102 -68.299,157.99609 -4.4043,108.77539 65.9549,-45.6384 132.3953,-89.81939 199.6055,-133.10349 35.2036,-44.617 64.3049,-6.7503 104.625,-19.0372 52.0919,-31.0066 18.6941,18.7281 -12.3223,23.4043 -6.5384,51.4561 69.5806,-24.2047 86.7109,-40.1211 58.2165,-33.0884 21.0182,38.3131 -15.3066,28.3184 25.0352,38.7655 59.667,-29.6864 90.1387,-33.6211 76.3352,2.5828 90.4775,-0.332 90.4775,-0.332 34.8615,-26.2534 56.2204,-14.1773 71.3565,-56.6094 -13.8695,-41.5701 -62.4718,-96.8106 -15.8614,-133.8359 38.96,-45.0383 110.78941,-74.1778 104.95511,-145.4278 -14.6872,-61.9206 -28.6793,31.5964 -37.9609,52.3926 -30.15471,58.6173 -20.60031,-5.3357 -25.22851,-32.8183 36.36551,-53.8855 74.67961,-101.2106 118.80861,-149.0567 71.3345,-55.796 131.0299,-131.0944 149.75,-221.3574 20.6561,-101.4905 -73.9258,74.3927 -62.4219,5.125 -2.3007,-69.135 -36.2005,-133.981896 -58.3809,-198.779296 -28.2462,-28.1474 -8.5215,86.280396 -24.4043,99.384796 -19.4798,53.867 -29.0288,118.0889 -66.3359,161.248 9.8708,-74.0308 -9.4684,-149.0162 -33.8672,-218.037096 -32.07011,-78.0695 -58.93651,20.5344 -68.49221,61.589796 -21.0382,-17.5507 -74.695,-68.985096 -115.0898,-92.732396 -10.9588,-18.8469 -19.9166,-26.2669 -26.6231,-26.3711 z m 3.1817,36.3282 c 22.8216,1.5664 52.1574,38.4555 79.0898,48.3867 53.7472,27.925996 56.3119,91.726496 49.1543,144.798796 15.3498,72.6523 -11.874,140.8742 -49.998,201.7148 -32.2592,82.3469 -24.3312,-45.893 -36.5293,-70.9003 -16.7293,-62.5205 -8.0112,-127.4365 -18.6758,-190.9825 6.5074,-24.0616 -36.3891,-133.645296 -3.2813,-96.296796 56.5478,74.677796 65.8343,170.472696 78.6035,259.544896 6.3333,-50.765 -10.4948,-114.3473 -25.832,-166.9375 -8.8097,-52.3914 -58.7233,-102.217196 -72.5312,-129.328096 z m 172.7851,27.9238 4.1367,0.3203 c 12.3103,65.494796 -1.0584,131.457496 3.9043,197.007796 11.6845,-33.5536 7.0817,-106.9441 9.541,-155.3672 -10.581,-56.248896 17.73431,-18.928196 23.52351,12.2012 8.9238,53.4467 25.7948,108.3541 11.4082,162.791 17.0639,1.6059 -58.79581,-6.2069 -79.24611,19.7969 -9.1515,-78.8839 -5.3031,-163.6056 26.7324,-236.749996 z m 157.51951,1.9023 c 19.9224,16.6517 24.2389,53.813096 29.1934,80.517596 -17.809,-10.9237 -11.3238,6.1857 -9.4121,35.3887 4.5041,66.5066 2.5174,-53.3295 21.873,-5.7246 15.5487,58.0391 -21.3943,105.8318 -77.8496,117.914 34.137,-70.0883 39.1987,-151.0805 36.1953,-228.095696 z m -11.8886,59.919896 c 11.0746,1.5423 -4.2717,82.3479 -11.9082,114.2754 -13.2197,25.7123 -46.1627,136.2624 -70.3672,82.543 38.9124,-60.0034 63.7523,-127.8423 82.2754,-196.8184 z m 109.3945,100.627 c 10.4078,15.8379 -12.2456,39.3927 -19.2519,59.9629 -31.1258,70.0745 -99.5894,109.3546 -146.9551,165.5547 -0.1817,-6.1182 -17.4562,-74.369 -3.3848,-90.7012 25.2562,-54.5106 83.0169,-66.9688 127.4785,-99.873 4.9214,22.6769 -64.5682,85.5521 -98.6972,110.289 -45.4058,24.5058 -15.1975,30.0524 10.7129,-1.3398 55.7826,-35.463 92.8346,-90.8332 130.0976,-143.8926 z m -687.39841,145.4766 c 20.9979,50.3425 69.7389,90.1023 103.834,134.7929 17.9865,2.6585 -72.447,-91.9234 -98.1387,-128.1699 z m -235.7364,8.1504 c 36.6827,-1.0546 93.4319,16.3422 128.4688,27.1445 15.5028,4.1325 29.964,11.2627 44.2793,18.3437 39.6918,24.4654 61.1172,69.5394 95.6758,101.3809 0.1876,19.024 -69.8648,40.7174 -37.75,82.3652 -37.2875,13.081 -105.1404,-40.5419 -137.9317,-76.6015 -49.5182,-41.0243 -84.9997,-92.8872 -114.4179,-148.6465 5.8146,-2.5162 13.2105,-3.743 21.6757,-3.9863 z m 712.01761,8.5917 c -5.0939,2.1883 -0.5476,39.2066 -9.2734,38.7754 -19.13121,75.8839 14.2283,-5.0096 14.623,-33.8379 -2.4838,-4.0928 -4.1741,-5.4424 -5.3496,-4.9375 z m -272.00391,108.711 c 14.2701,5.199 -22.7199,13.8549 0,0 z m 237.6934,9.2539 c -6.5021,1.5078 -5.5831,27.8315 3.2402,1.1016 -1.2303,-1.0245 -2.3114,-1.317 -3.2402,-1.1016 z m -175.9649,2.4844 c 33.0127,5.1105 -25.3911,25.4542 0,0 z m -82.3437,6.8652 c 19.2133,1.1549 -8.7557,21.3249 0,0 z m -18.4199,0.248 c 18.9892,11.0527 -11.4348,28.3596 0,0 z m -21.0821,0.2286 c 26.7026,4.3045 -9.7737,24.1289 0,0 z m -580.0527,182.2949 c 53.2825,32.9462 112.223,62.7162 175.207,80.9551 12.6913,16.4126 -79.2452,-6.4813 -105.1504,-15.1836 -32.0113,-6.1189 -156.958696,-56.999 -70.0566,-65.7715 z m 762.9473,7.7422 c 4.2683,0.7404 -10.7397,8.8189 -3.1309,0.2011 1.5187,-0.2638 2.5211,-0.3069 3.1309,-0.2011 z m -700.4786,82.9277 c 59.6982,1.9511 120.5637,16.0574 181.8829,11.9688 50.575,-24.5146 93.454,6.4879 140.3105,21.5097 21.4186,1.2572 22.5019,10.5672 3.3926,13.4082 -74.7083,14.9005 -150.6957,35.5366 -227.3438,29.4141 -73.9866,0.8807 -144.1321,-24.6753 -216.367196,-36.3203 25.1252,-14.7209 92.056696,-10.5748 132.181696,-11.6856 65.5081,10.8868 131.527,16.1813 197.2148,2.5957 15.0568,-13.2654 -97.9536,12.6779 -127.4726,1.0157 -67.5243,-14.8549 -136.653,-9.632 -204.746096,-5.5606 15.5532,-17.6956 84.405096,-22.3539 120.947196,-26.3457 z m 583.3653,29.7871 c -17.3816,1.2603 -33.3198,21.4621 -50.1817,28.3867 -73.4539,49.6975 36.7455,-4.756 53.6778,-28.3769 -1.1723,-0.094 -2.3374,-0.094 -3.4961,-0.01 z m -717.554696,0.2403 c 3.7155,-0.076 0.5891,6.1286 -2.0313,0.4687 0.8316,-0.3201 1.5005,-0.4579 2.0313,-0.4687 z m 584.372996,2.2324 c 16.9353,-0.037 -54.9698,47.9706 -30.5039,74.8515 -87.6923,51.5959 -172.9078,107.09759 -255.8886,165.74999 -22.9444,-39.2629 29.53,-100.68569 64.4648,-130.51359 64.9087,-49.1541 132.2845,-105.276 217.3008,-109.418 1.9736,-0.45 3.4979,-0.6675 4.6269,-0.6699 z m -462.6152,49.7754 c 40.938,-0.7328 82.8671,11.1403 124.5,10.2734 49.7418,0.3886 -18.7295,16.3368 -27.9043,19.4238 -53.8333,3.6189 -110.2825,4.2621 -166.460896,3.0176 -56.1709,3.6869 -7.8243,-17.08 14.777296,-21.5215 18.0776,-7.9224 36.4797,-10.8603 55.0879,-11.1933 z m 390.1328,10.4648 c -4.6969,-0.8948 -19.9349,11.4615 -23.3379,11.127 -55.8723,27.293 -113.3839,64.5234 -147.4804,116.20109 49.7743,-50.51439 107.7719,-93.71819 172.1113,-124.27339 0.3138,-1.9367 -0.2091,-2.8482 -1.293,-3.0547 z m -507.576196,23.8613 c 23.0717,1.729 -1.0891,14.5202 0,0 z m 465.437496,12.2344 -6.6152,3.3731 c -29.6468,31.1909 -0.7705,21.5795 10.3594,-2.8477 z"
       style="fill:#000000;stroke-width:1.33333337" />
    <path
       inkscape:connector-curvature="0"
       id="path5360"
       d="m 295.55879,763.19591 c -52.824,-15.6679 -103.8285,-39.4027 -145.7362,-67.818 -27.4948,-18.6428 -80.886996,-66.3029 -77.769496,-69.4204 1.0573,-1.0573 11.652,3.0009 23.5437,9.0183 27.245996,13.7868 91.789396,36.498 115.250196,40.5536 9.8087,1.6955 21.8467,4.2045 26.7511,5.5755 6.1741,1.7259 7.5455,1.0385 4.4585,-2.2345 -2.4522,-2.6 -25.525,-12.0104 -51.273,-20.9122 -59.2555,-20.4861 -142.672496,-55.7947 -142.672496,-60.3902 0,-1.9257 11.3258,-4.9165 25.1685,-6.646 42.426896,-5.3009 113.019596,4.8689 202.142296,29.1213 45.325,12.3339 84.9501,22.4254 88.0558,22.4254 3.1056,0 5.6466,1.9213 5.6466,4.2697 0,2.3483 -14.5459,8.4883 -32.3242,13.6444 -71.3768,20.7006 -74.6802,22.1769 -74.6802,33.3751 0,17.2972 21.3659,37.3034 61.9212,57.9805 l 38.3954,19.576 -20.0633,-0.092 c -11.0348,-0.051 -32.1013,-3.6625 -46.8144,-8.0265 z"
       style="fill:#ffd42a;fill-opacity:1;stroke:none;stroke-width:4.45851755;stroke-miterlimit:4;stroke-dasharray:none" />
    <path
       inkscape:connector-curvature="0"
       id="path5362"
       d="m 508.85999,604.86361 c -53.9843,-16.8838 -155.6094,-114.2604 -201.7539,-193.3194 -7.5771,-12.9819 -13.7766,-24.5183 -13.7766,-25.6365 0,-1.1182 11.696,-2.033 25.9911,-2.033 31.9184,0 133.1387,26.9425 159.7,42.5085 10.3364,6.0575 29.4633,23.2872 42.5043,38.2882 13.041,15.001 31.1304,35.5614 40.1986,45.6898 l 16.4878,18.4153 -23.0089,23.3927 c -20.5097,20.8518 -22.9316,25.3314 -22.2971,41.2413 0.3914,9.8167 -0.6867,17.7143 -2.3959,17.5503 -1.7093,-0.164 -11.4515,-2.9078 -21.6494,-6.0972 z m -46.1068,-109.9993 c -8.5827,-7.4175 -39.6808,-31.7462 -69.107,-54.0637 -29.4262,-22.3176 -56.0102,-42.4952 -59.0754,-44.8391 -3.6436,-2.7862 -5.5731,-2.6055 -5.5731,0.5219 0,4.7542 88.5875,77.1962 122.5295,100.198 23.7646,16.1047 30.6696,14.987 11.226,-1.8171 z"
       style="fill:#ffd42a;fill-opacity:1;stroke:none;stroke-width:4.45851755;stroke-miterlimit:4;stroke-dasharray:none" />
    <path
       inkscape:connector-curvature="0"
       id="path5368"
       d="m 765.53119,479.58041 c -2.0851,-11.1147 -10.0855,-25.8261 -19.5425,-35.9357 -25.5971,-27.3634 -54.2747,-87.4003 -49.5752,-103.7864 0.7747,-2.7014 3.2987,-5.9425 5.6594,-7.2675 3.9235,-2.2023 5.1055,-2.0948 14.9254,1.3569 14.962,5.2591 29.5804,13.1277 40.4275,21.7606 9.8659,7.852 38.3307,42.326 43.8701,53.1315 4.6329,9.037 5.6964,27.04 2.1465,36.3353 -3.1102,8.1441 -12.5128,17.2194 -22.0965,21.3274 -5.3889,2.31 -7.5568,4.5091 -10.738,10.8931 l -3.986,7.9988 z m -4.0854,-67.1263 c -11.6312,-20.4593 -29.2786,-46.3859 -32.8883,-48.3178 -9.8664,-5.2803 -12.446,1.0887 -5.1191,12.639 7.6559,12.0689 31.0988,42.9427 38.2367,50.3569 6.4214,6.6699 6.8643,6.8759 7.417,3.4496 0.3705,-2.2962 -2.4575,-9.0006 -7.6463,-18.1277 z"
       style="fill:#ffd42a;fill-opacity:1;stroke:none;stroke-width:1.57632399;stroke-miterlimit:4;stroke-dasharray:none" />
    <path
       inkscape:connector-curvature="0"
       id="path5370"
       d="m 864.25849,454.32381 c -2.5659,-4.9038 -4.8515,-18.6044 -7.3499,-44.0567 -2.756,-28.0763 -4.762,-40.9435 -7.8152,-50.1287 -5.9587,-17.926 -9.6712,-49.5123 -11.8575,-100.8847 -0.9224,-21.6744 -2.4037,-47.2109 -3.2917,-56.7476 -0.888,-9.5368 -2.2225,-25.8518 -2.9656,-36.2555 -0.8579,-12.012 -3.925,-30.7101 -8.4034,-51.2305 -8.4098,-38.534696 -9.325,-44.246096 -7.5481,-47.105196 1.9879,-3.1987 6.7385,0.5856 14.8867,11.8588 35.6621,49.338896 53.2038,105.015296 69.7939,221.523296 2.4286,17.0549 4.9673,30.6679 5.6417,30.2512 2.1185,-1.3094 1.3338,-40.5727 -1.1967,-59.8769 -3.6062,-27.5092 -13.7466,-70.9627 -28.4639,-121.9721 -6.0099,-20.8301 -18.0813,-41.3137 -54.8201,-93.022196 -6.8243,-9.6049 -11.9472,-17.924 -11.3843,-18.4869 2.0765,-2.0766 18.2782,7.5928 38.8754,23.2012 11.6446,8.8243 26.8468,18.9661 33.7826,22.5375 16.8741,8.6887 34.5385,26.053996 41.575,40.870896 8.5044,17.9081 11.5274,32.3348 12.3189,58.7905 0.389,13.0046 0.1241,28.6102 -0.5888,34.6791 -0.8405,7.1554 -0.6319,15.4672 0.5932,23.6448 7.9709,53.2026 -6.7765,112.3887 -43.493,174.5509 -4.3095,7.2962 -9.6312,17.3263 -11.826,22.289 -7.3196,16.5511 -13.0928,22.011 -16.4632,15.5698 z m 15.464,-88.5646 c 2.7422,-5.1239 2.0134,-9.5616 -1.5703,-9.5616 -3.841,0 -5.3782,3.3072 -4.0314,8.6733 1.1829,4.7129 3.3693,5.0596 5.6017,0.8883 z"
       style="fill:#ffd42a;fill-opacity:1;stroke:none;stroke-width:1.57632399;stroke-miterlimit:4;stroke-dasharray:none" />
    <path
       inkscape:connector-curvature="0"
       id="path5372"
       d="m 951.26679,282.62881 c -2.3397,-29.7514 -1.4615,-95.096 1.5747,-117.1664 3.6487,-26.5231 9.4345,-51.743 16.7504,-73.014596 8.3453,-24.2645 9.9499,-27.9805 11.8159,-27.3625 5.2026,1.7228 7.1113,52.919296 5.0643,135.844396 -0.758,30.7065 -0.6982,53.9562 0.146,56.7477 1.3513,4.4681 1.5704,4.1203 3.9717,-6.3053 1.3978,-6.0689 3.25,-20.2558 4.116,-31.5265 1.8979,-24.7005 2.6839,-112.5525 1.1354,-126.894096 -1.7958,-16.6315 3.0287,-18.8087 11.62881,-5.2478 7.5275,11.8697 10.2761,21.167396 17.1647,58.062896 10.8116,57.9077 11.5671,64.6343 10.71,95.3594 -0.4232,15.1721 -1.5536,30.1369 -2.5119,33.255 l -1.7424,5.6694 -18.5234,0.996 c -26.36961,1.4179 -47.42761,7.2098 -56.57121,15.5596 l -3.3866,3.0926 z"
       style="fill:#ffd42a;fill-opacity:1;stroke:none;stroke-width:1.57632399;stroke-miterlimit:4;stroke-dasharray:none" />
    <path
       inkscape:connector-curvature="0"
       id="path5374"
       d="m 1053.2599,335.28461 c -2.12,-1.0729 -5.1828,-4.225 -6.8062,-7.0046 l -2.9516,-5.0539 7.4757,-12.2822 c 11.7254,-19.2641 26.2952,-48.0507 36.9329,-72.9706 9.4001,-22.021 28.0636,-76.1023 33.8634,-98.1261 1.5411,-5.8521 3.4061,-10.6402 4.1444,-10.6402 2.1761,0 1.538,25.2772 -1.1228,44.4769 -5.7998,41.8505 -10.932,61.7839 -24.0678,93.4787 -18.4638,44.5508 -27.6205,60.9792 -37.3339,66.9824 -5.9565,3.6813 -5.2653,3.6036 -10.1341,1.1396 z"
       style="fill:#ffd42a;fill-opacity:1;stroke:none;stroke-width:1.57632399;stroke-miterlimit:4;stroke-dasharray:none" />
    <path
       inkscape:connector-curvature="0"
       id="path5376"
       d="m 1107.493,280.68301 c 20.7463,-48.4705 30.6626,-107.5656 30.8407,-183.790696 l 0.066,-28.3738 3.328,3.9408 c 6.3227,7.487 13.7265,26.0627 17.5919,44.137096 6.4278,30.0562 6.397,27.8137 0.3726,27.1103 -4.1648,-0.4862 -5.3542,0.023 -6.0222,2.5772 -0.8104,3.0988 3.3725,55.5694 4.5343,56.879 1.2281,1.3842 1.9473,-1.1108 4.3578,-15.118 2.7126,-15.7626 5.2814,-22.9453 7.9249,-22.1584 0.9343,0.2781 3.4154,3.9372 5.5134,8.1314 5.1913,10.3776 6.4289,34.7629 2.5258,49.7685 -5.433,20.8877 -18.9863,39.7291 -37.7483,52.4768 -9.1246,6.1996 -25.134,13.5916 -34.3511,15.8608 l -4.2823,1.0543 z"
       style="fill:#ffd42a;fill-opacity:1;stroke:none;stroke-width:1.57632399;stroke-miterlimit:4;stroke-dasharray:none" />
    <path
       inkscape:connector-curvature="0"
       id="path5378"
       d="m 1068.1518,447.24531 c -2.7738,-7.8951 -7.513,-44.3336 -7.6388,-58.733 -0.1412,-16.155 0.1563,-17.9319 4.3544,-26.0094 15.8398,-30.4773 32.6056,-45.3086 82.0975,-72.6246 13.0046,-7.1776 28.4329,-16.1131 34.285,-19.8567 5.8521,-3.7435 10.6333,-5.9244 10.6248,-4.8463 -0.01,1.078 -1.6716,5.5068 -3.696,9.8417 -10.6193,22.7405 -66.1963,77.2973 -102.7932,100.9063 -11.2908,7.2837 -16.4487,12.1874 -16.4487,15.638 0,0.4905 1.8017,0.8918 4.0036,0.8918 6.0696,0 16.1541,-5.7847 25.8763,-14.8432 4.807,-4.4789 14.4148,-12.3106 21.3507,-17.4037 30.1758,-22.1591 60.36,-55.9618 99.8816,-111.8558 7.6799,-10.8614 14.4168,-19.2946 14.9708,-18.7406 0.5541,0.554 1.0074,3.6124 1.0074,6.7964 0,7.4331 -28.0703,64.4223 -41.1461,83.536 -11.9483,17.4657 -34.4659,41.7664 -62.8913,67.8717 -12.5712,11.5451 -31.9206,30.0868 -42.9986,41.2039 -11.5672,11.608 -20.4388,19.3676 -20.8394,18.2275 z"
       style="fill:#ffd42a;fill-opacity:1;stroke:none;stroke-width:1.57632399;stroke-miterlimit:4;stroke-dasharray:none" />
    <path
       inkscape:connector-curvature="0"
       id="path5380"
       d="m 968.64449,550.73691 c -2.7086,-1.3362 -6.8786,-4.4688 -9.2667,-6.9614 l -4.3418,-4.5319 6.3852,-17.0417 c 12.7959,-34.1514 22.3419,-69.4958 31.6373,-117.1382 4.2122,-21.5893 17.55431,-100.3089 17.55431,-103.5722 0,-0.6838 2.5687,2.3012 5.7082,6.6333 15.896,21.9348 23.6617,52.4618 27.3181,107.3889 l 1.5876,23.8487 -7.5757,22.6528 c -23.7348,70.9716 -46.26601,99.9399 -69.00651,88.7217 z m 21.9317,-36.5128 c 1.3029,-3.2512 2.0463,-6.4432 1.6518,-7.0934 -1.5602,-2.5721 -5.4204,-0.9657 -6.8754,2.8611 -3.9409,10.3655 1.1216,14.4674 5.2236,4.2323 z m 25.63801,-68.3964 c 5.2624,-13.7715 11.0178,-34.5244 12.4376,-44.8475 0.9287,-6.7527 0.6224,-8.2688 -2.1837,-10.8083 -1.7952,-1.6247 -3.7482,-2.4697 -4.34,-1.8778 -0.5919,0.5918 -1.9052,8.873 -2.9186,18.4027 -1.1748,11.048 -2.7161,18.3184 -4.2534,20.0633 -2.5415,2.8848 -7.4959,22.4782 -7.4959,29.6442 0,6.8162 3.9156,2.0853 8.754,-10.5766 z"
       style="fill:#ffd42a;fill-opacity:1;stroke:none;stroke-width:1.57632399;stroke-miterlimit:4;stroke-dasharray:none" />
    <path
       inkscape:connector-curvature="0"
       id="path5382"
       d="m 860.04279,552.11581 c 9.7515,-24.1026 18.5862,-53.2315 23.5195,-77.5459 2.9247,-14.4145 4.9424,-20.3265 9.2261,-27.0323 7.0984,-11.1123 14.7524,-26.3985 26.3977,-52.72 24.6124,-55.6311 40.59,-78.0457 66.7022,-93.5751 14.88121,-8.8501 15.18591,-8.063 11.2792,29.1377 -4.0887,38.9349 -12.6985,80.9751 -26.0175,127.0395 -3.4378,11.8898 -6.2506,23.9972 -6.2506,26.9055 0,12.243 -7.3877,28.5747 -16.4025,36.2603 -7.0015,5.9691 -19.3281,10.9598 -41.6196,16.8508 -26.4895,7.0004 -35.0841,9.8922 -42.6277,14.3431 -4.9044,2.8936 -5.2527,2.9215 -4.2068,0.3364 z m 50.032,-34.739 c 6.1009,-6.4675 13.2737,-19.4198 22.6963,-40.9835 10.1754,-23.2868 19.9404,-50.8374 18.0188,-50.8374 -2.6248,0 -13.7229,18.4642 -20.4721,34.0596 -11.9268,27.5597 -17.141,37.7024 -24.5705,47.7946 -4.0001,5.4338 -6.8912,10.8745 -6.4245,12.0906 1.36,3.5441 6.3317,2.562 10.752,-2.1239 z"
       style="fill:#ffd42a;fill-opacity:1;stroke:none;stroke-width:1.57632399;stroke-miterlimit:4;stroke-dasharray:none" />
    <path
       inkscape:connector-curvature="0"
       id="path5384"
       d="m 839.00879,618.56991 c -8.1176,-5.9006 -1.3,-20.236 18.5124,-38.926 19.6106,-18.4997 46.1694,-31.1443 61.0839,-29.082 17.4567,2.4138 24.7077,5.4921 38.6422,16.4052 12.7704,10.0014 22.1237,28.4609 18.8216,37.146 -2.7431,7.2149 -8.1755,8.007 -46.5351,6.7852 -37.9493,-1.2087 -51.0541,0.01 -60.6823,5.6216 -7.6976,4.4901 -24.8636,5.6693 -29.8427,2.05 z m 97.5604,-20.9131 3.5456,-2.871 -4.5532,-1.7575 c -12.859,-4.9636 -36.8678,-6.9113 -36.8678,-2.9909 0,5.6695 10.744,10.1871 24.6525,10.366 7.1492,0.092 10.6037,-0.6256 13.2229,-2.7466 z"
       style="fill:#ffd42a;fill-opacity:1;stroke:none;stroke-width:1.57632399;stroke-miterlimit:4;stroke-dasharray:none" />
    <path
       inkscape:connector-curvature="0"
       id="path5386"
       d="m 853.35799,682.10261 c -10.0284,-13.1501 -12.0984,-18.3933 -11.5863,-29.3474 0.4453,-9.5247 17.9407,-19.8823 41.9471,-24.8336 15.5422,-3.2056 72.4192,-4.8651 75.6226,-2.2065 9.3678,7.7746 -9.3444,26.3297 -44.1641,43.7932 -15.5431,7.7956 -48.4285,20.87 -52.493,20.87 -1.7851,0 -5.5899,-3.3762 -9.3263,-8.2757 z m 77.9875,-37.9795 c 7.7604,-7.3323 7.9322,-10.4924 0.5707,-10.4924 -5.282,0 -12.3936,5.2148 -14.4355,10.5853 -3.4665,9.1178 4.1704,9.0666 13.8648,-0.093 z"
       style="fill:#ffd42a;fill-opacity:1;stroke:none;stroke-width:1.57632399;stroke-miterlimit:4;stroke-dasharray:none" />
    <path
       inkscape:connector-curvature="0"
       id="path5388"
       d="m 822.24209,739.42011 c -2.6009,-0.6772 -8.969,-3.6353 -14.1512,-6.5734 -8.545,-4.8447 -10.82,-5.3955 -24.4331,-5.9153 -8.3414,-0.3186 -23.3859,0.5385 -33.8611,1.9291 -10.3677,1.3762 -27.0374,2.4839 -37.0436,2.4615 -15.4143,-0.034 -19.8787,-0.6478 -29.2275,-4.0157 -6.0688,-2.1863 -17.7457,-5.0544 -25.9486,-6.3736 -29.1418,-4.6865 -51.2173,-16.8854 -68.5229,-37.8657 -16.3968,-19.8786 -30.1257,-52.209 -37.2379,-87.6922 -3.9246,-19.58 -4.2884,-18.5561 10.0527,-28.295 12.4741,-8.471 25.7343,-14.2844 42.8405,-18.7817 12.6063,-3.3142 17.6117,-3.7276 44.9253,-3.7106 19.7764,0.012 34.1112,0.7691 40.1962,2.122 11.3692,2.5278 55.2361,23.7243 71.7228,34.6564 15.6869,10.402 29.7323,23.3377 36.5181,33.6329 20.1039,30.5014 24.8403,38.2588 32.1826,52.7091 11.4796,22.5928 17.0646,39.8502 17.1444,52.9748 0.057,9.3559 -0.4162,11.0815 -4.0299,14.6987 -4.4755,4.48 -13.1003,6.1288 -21.1268,4.0387 z m -37.0436,-28.5727 c 0,-3.0938 -10.2586,-7.7838 -24.1693,-11.0496 -23.0693,-5.4161 -54.4071,-20.7299 -93.6724,-45.7749 -23.5036,-14.9915 -81.9892,-56.5217 -86.1425,-61.1692 -4.2235,-4.726 -8.8195,-4.4235 -8.8195,0.5807 0,5.0231 0.2529,5.2356 33.1028,27.8171 68.0745,46.7955 86.5487,58.4307 112.2416,70.6908 29.9694,14.3007 67.4593,24.807 67.4593,18.9051 z m -108.7663,-16.3436 c 0,-0.3319 -9.587,-5.793 -21.3045,-12.1358 -34.5483,-18.7016 -57.5117,-38.2694 -57.5117,-49.0076 0,-3.6026 -7.5369,-4.0387 -8.8893,-0.5144 -1.8195,4.7416 1.2357,10.2955 11.0781,20.1379 15.6176,15.6176 33.7343,27.0577 55.47,35.0276 18.8176,6.8999 21.1574,7.6179 21.1574,6.4923 z m 11.4044,-86.0248 c -10.3732,-8.6519 -58.6942,-18.7022 -58.6942,-12.2077 0,3.5688 14.35,8.4672 41.7726,14.2592 1.734,0.3663 7.0541,0.7246 11.8225,0.7963 l 8.6697,0.1304 z"
       style="fill:#ffd42a;fill-opacity:1;stroke:none;stroke-width:1.57632399;stroke-miterlimit:4;stroke-dasharray:none" />
    <path
       inkscape:connector-curvature="0"
       id="path5390"
       d="m 536.53579,811.58241 c -41.8021,-3.8415 -76.8587,-16.4774 -154.0881,-55.5397 -24.2753,-12.2784 -52.7723,-26.4117 -63.3266,-31.4072 -18.1949,-8.6121 -27.312,-15.5168 -27.312,-20.6845 0,-3.159 8.1249,-9.9849 15.7633,-13.243 3.9014,-1.6641 16.6696,-6.0311 28.3738,-9.7045 11.7042,-3.6735 25.8911,-8.6874 31.5265,-11.142 17.2584,-7.5176 34.6437,-9.9093 65.4174,-8.9994 29.0341,0.8584 36.3714,1.9613 92.215,13.8611 30.6838,6.5385 37.5322,8.4923 39.89,11.3803 1.5655,1.9177 5.3845,6.5728 8.4867,10.3447 3.1022,3.7719 9.9788,10.0558 15.2814,13.9642 29.8546,22.0054 71.3379,33.7511 132.85,37.6157 9.6775,0.608 18.4987,1.6637 19.6027,2.346 2.6562,1.6416 -0.04,4.9505 -7.8192,9.5958 -3.1537,1.8832 -11.8082,7.22 -19.2322,11.8595 -30.9215,19.324 -64.9045,28.9744 -129.1591,36.6782 -15.1721,1.8191 -29.3591,3.5239 -31.5265,3.7885 -2.1675,0.2647 -9.7918,-0.056 -16.9431,-0.7137 z m -29.9019,-36.6266 c 2.7898,-1.1661 6.0217,-3.265 7.1819,-4.664 1.826,-2.2018 1.6141,-2.6609 -1.5763,-3.4155 -2.0272,-0.4795 -7.4148,-0.2592 -11.9723,0.4895 -5.8627,0.9631 -10.704,0.7302 -16.5514,-0.7963 -25.6451,-6.6947 -37.1243,-5.2624 -21.5408,2.6877 13.5614,6.9185 34.9744,9.6632 44.4589,5.6986 z m 157.1877,-0.9519 c 3.9014,-0.6941 6.0294,-1.364 4.7289,-1.4885 -1.3004,-0.1245 -8.3734,-1.2888 -15.7176,-2.5874 -7.3443,-1.2986 -28.8029,-4.1454 -47.6859,-6.3263 -39.201,-4.5274 -63.9277,-8.704 -78.8889,-13.325 -5.7082,-1.7631 -43.9475,-10.2317 -84.9761,-18.8192 -41.0286,-8.5875 -82.673,-17.442 -92.543,-19.6766 -21.7898,-4.9334 -23.4697,-4.96 -14.3691,-0.2274 17.6748,9.1914 44.3616,16.0221 104.8255,26.8307 39.3853,7.0406 48.0191,8.9215 76.4517,16.6552 40.9073,11.1269 74.2745,16.7343 111.919,18.8081 28.8213,1.5878 28.2258,1.5852 36.2555,0.1565 z m -177.3365,-74.9963 6.3053,-2.8061 -4.729,-1.1488 c -5.9468,-1.4446 -28.0679,-1.8426 -31.3975,-0.5649 -3.5771,1.3726 -3.0725,4.5711 1.0533,6.677 4.8551,2.4781 21.0875,1.2608 28.7679,-2.1572 z"
       style="fill:#ffd42a;fill-opacity:1;stroke:none;stroke-width:1.57632399;stroke-miterlimit:4;stroke-dasharray:none" />
    <path
       inkscape:connector-curvature="0"
       id="path5392"
       d="m 335.12499,1055.4614 c -3.0504,-7.3006 -2.9669,-21.8643 0.1867,-32.5867 9.0046,-30.61529 40.3881,-69.56529 81.8152,-101.54059 87.566,-67.5875 137.1185,-92.1163 197.5836,-97.8052 13.8686,-1.3048 13.887,-1.4412 -2.2377,16.6002 -21.0428,23.5442 -27.9229,38.1947 -23.6971,50.4602 2.0971,6.0869 2.0354,6.5362 -1.1724,8.5311 -1.8624,1.1582 -14.381,8.7005 -27.8191,16.7607 -56.6819,33.9978 -137.4802,86.36449 -192.8211,124.97039 -14.0249,9.7838 -26.4013,18.329 -27.5032,18.9893 -1.3587,0.8142 -2.7538,-0.5952 -4.3349,-4.3794 z m 61.3587,-60.45849 c 43.7693,-41.8245 92.8071,-76.9781 141.3917,-101.359 8.5819,-4.3066 15.6035,-8.4912 15.6035,-9.2991 0,-3.5048 -3.941,-3.2687 -11.5434,0.6917 -4.4884,2.3381 -17.4935,9.0835 -28.9003,14.9897 -58.7969,30.4439 -103.5509,66.2357 -129.5995,103.64649 -1.9619,2.8177 -3.0764,5.1231 -2.4767,5.1231 0.5998,0 7.5859,-6.2068 15.5247,-13.79289 z m 108.4802,-63.1707 c 5.5921,-6.1899 8.6265,-12.3164 6.9369,-14.006 -2.1007,-2.1007 -10.9885,3.7204 -16.773,10.9854 -12.3356,15.4929 -3.8,18.1141 9.8361,3.0206 z"
       style="fill:#ffd42a;fill-opacity:1;stroke:none;stroke-width:1.57632399;stroke-miterlimit:4;stroke-dasharray:none" />
    <path
       sodipodi:nodetypes="cccccccsccccc"
       inkscape:connector-curvature="0"
       id="path5440"
       d="m 844.93297,896.10542 c -64.2119,-9.6869 -83.6551,-28.7873 -76.2503,-36.3541 1.8935,-1.9347 10.4016,-5.2335 18.9071,-7.3304 8.5057,-2.097 13.8319,-1.2269 18.337,-4.4419 12.2011,-8.7068 32.283,-40.067 45.8577,-77.0057 17.3984,-88.1572 15.4897,-38.2855 19.6209,-44.7224 12.809,-20.106 49.88023,-43.8789 54.05083,-34.6616 0.7884,1.7426 7.9625,1.1934 2.7771,17.7959 -7.2583,23.2396 -0.019,50.7931 -0.074,67.6817 -0.078,23.4232 -21.15343,21.3523 0.5687,48.8477 17.7025,22.4077 20.4852,30.3737 -18.23933,50.5591 l -24.6997,13.2178 z"
       style="fill:#2d5016;fill-opacity:1;stroke:none;stroke-width:2.64674067;stroke-miterlimit:4;stroke-dasharray:none" />
    <path
       inkscape:connector-curvature="0"
       id="path5394"
       d="m 633.08329,903.16281 c -11.3875,-2.4312 -16.5514,-9.6972 -16.5514,-23.2887 0,-23.537 18.2319,-46.2371 40.8909,-50.9124 14.0139,-2.8914 24.5415,-9.1666 61.2178,-36.49 22.3837,-16.6756 39.7324,-27.1919 53.4675,-32.4105 14.5762,-5.5381 37.5764,-5.8321 51.599,-0.6596 5.1405,1.8963 9.6672,3.127 10.0592,2.735 0.392,-0.392 2.0382,0 3.6582,0.8635 2.1036,1.1259 2.9454,3.3339 2.9454,7.7263 0,8.3573 -5.5266,30.918 -8.8336,36.0606 -5.7076,8.8756 -15.5736,19.5575 -24.1816,26.1812 -21.2513,16.3525 -44.2316,25.4244 -100.1842,39.5493 -21.6745,5.4717 -40.7155,10.4547 -42.3135,11.0736 -2.7268,1.0559 -2.7061,0.7344 0.3364,-5.2294 12.9756,-25.4343 63.7351,-74.0745 92.3805,-88.5236 7.6489,-3.8582 8.5356,-4.7228 5.7498,-5.607 -5.4589,-1.7326 -22.4187,3.6109 -32.68,10.2964 -12.0432,7.8465 -24.7276,20.089 -48.3302,46.6468 -10.1423,11.4122 -24.8264,26.6055 -32.6314,33.7631 -7.805,7.1576 -14.6423,14.4359 -15.194,16.1742 -1.7194,5.4176 3.4249,7.7396 15.1466,6.8368 9.8298,-0.7571 10.0407,-0.6997 5.191,1.4109 -7.7834,3.3874 -16.5273,4.917 -21.7424,3.8035 z m 67.3047,-41.9095 c 27.5847,-13.8539 59.5893,-35.9224 59.5893,-41.0892 0,-3.1182 -7.6644,-1.5119 -17.3395,3.634 -13.8186,7.3496 -61.4767,40.76 -61.4767,43.0978 0,3.0149 4.7847,1.6107 19.2269,-5.6426 z"
       style="fill:#ffd42a;fill-opacity:1;stroke:none;stroke-width:1.57632399;stroke-miterlimit:4;stroke-dasharray:none" />
    <path
       inkscape:connector-curvature="0"
       id="path5396"
       d="m 263.43529,865.38191 c -41.806,-1.9551 -63.4063,-5.368 -134.7757,-21.2946 -20.8075,-4.6433 -43.861196,-9.6012 -51.230496,-11.0175 -17.6795,-3.3978 -18.8221,-3.7975 -15.7633,-5.5134 1.3005,-0.7296 8.0393,-2.5524 14.9751,-4.0507 9.535,-2.0598 24.336196,-2.9866 60.688496,-3.8001 41.864,-0.9368 50.6243,-0.7081 67.7808,1.7697 66.9365,9.6671 132.7061,9.8193 176.9435,0.4095 2.3841,-0.5072 4.3349,-1.9297 4.3349,-3.1613 0,-3.1674 -13.6709,-2.9281 -48.2157,0.8438 -50.1466,5.4754 -60.1763,5.6063 -82.6192,1.0777 -36.5121,-7.3675 -45.358,-8.0711 -101.6729,-8.0867 -29.4773,-0.01 -63.880596,0.5285 -76.451696,1.1926 l -22.8567,1.2074 4.7289,-3.0526 c 11.8391,-7.6423 39.752,-13.613 87.548896,-18.7272 29.8742,-3.1965 40.0248,-2.8277 100.2276,3.6417 68.5426,7.3656 102.996,7.5758 121.183,0.7393 7.6259,-2.8666 12.664,-3.5534 26.0094,-3.546 20.4626,0.012 30.2204,2.5052 68.9997,17.6341 15.8419,6.1804 32.4412,11.9269 36.8873,12.7701 9.9943,1.8954 13.4123,4.2777 10.4243,7.2656 -2.1167,2.1168 -73.5833,17.6121 -114.735,24.8768 -47.1422,8.3222 -86.7159,10.9588 -132.4112,8.8218 z m -2.48,-19.1058 c 33.284,-4.0819 19.631,-7.136 -20.8472,-4.6633 -19.2417,1.1754 -31.7023,1.1713 -42.3325,-0.014 -8.2854,-0.9239 -16.1724,-1.2546 -17.5267,-0.7349 -4.1223,1.5819 0.3836,4.5207 8.7122,5.6823 12.445,1.7357 57.0021,1.5686 71.9942,-0.2701 z"
       style="fill:#ffd42a;fill-opacity:1;stroke:none;stroke-width:1.57632399;stroke-miterlimit:4;stroke-dasharray:none" />
    <path
       inkscape:connector-curvature="0"
       id="path5398"
       d="m 138.11749,926.75541 c -17.2448,-1.7176 -55.161396,-7.6165 -59.664196,-9.2822 -9.2452,-3.42 57.618296,-5.4915 108.927496,-3.3747 l 42.958,1.7723 19.4688,-3.942 c 10.7079,-2.1681 31.4548,-7.4221 46.1043,-11.6755 14.6496,-4.2535 39.0755,-11.3514 54.2799,-15.7733 35.6875,-10.3788 57.4963,-15.2528 81.9113,-18.306 10.8366,-1.3551 21.4763,-2.8122 23.6437,-3.238 3.5122,-0.69 3.255,-0.1718 -2.3645,4.7647 -22.9924,20.1981 -105.86,45.4433 -184.322,56.1528 -26.9311,3.6759 -105.656,5.4206 -130.9428,2.9019 z"
       style="fill:#ffd42a;fill-opacity:1;stroke:none;stroke-width:1.57632399;stroke-miterlimit:4;stroke-dasharray:none" />
    <path
       inkscape:connector-curvature="0"
       id="path5400"
       d="m 265.01159,783.94351 c -35.3757,-5.8542 -95.4507,-21.763 -121.8202,-32.2598 -22.8465,-9.0944 -45.370896,-20.9891 -53.805796,-28.4138 -12.5952,-11.0868 -9.1331,-17.9045 11.108296,-21.8747 l 9.6661,-1.8959 17.9196,10.6427 c 43.1004,25.5981 91.3639,48.2259 134.169,62.9038 12.7854,4.3841 23.2564,8.6805 23.2689,9.5475 0.023,1.6211 -13.4914,2.511 -20.5059,1.3502 z"
       style="fill:#ffd42a;fill-opacity:1;stroke:none;stroke-width:1.57632399;stroke-miterlimit:4;stroke-dasharray:none" />
    <path
       inkscape:connector-curvature="0"
       id="path5402"
       d="m 70.729694,903.47141 c -6.0988,-0.7017 -5.3871,-3.8464 1.7826,-7.876 7.4112,-4.1653 45.714796,-16.8392 60.585196,-20.0464 16.8184,-3.6274 50.3774,-2.9661 86.2007,1.6985 16.9061,2.2014 40.3145,4.3618 52.0187,4.8009 24.551,0.9211 31.9562,1.8235 30.7661,3.7491 -0.9676,1.5656 -25.3131,9.7677 -39.4359,13.286 -15.933,3.9693 -165.780296,7.3953 -191.917396,4.3879 z"
       style="fill:#ffd42a;fill-opacity:1;stroke:none;stroke-width:1.57632399;stroke-miterlimit:4;stroke-dasharray:none" />
    <path
       inkscape:connector-curvature="0"
       id="path5406"
       d="m 46.237494,910.76811 c -2.9779,-2.9779 -2.2726,-4.0653 2.0955,-3.2303 2.2037,0.4213 3.7554,1.5199 3.4482,2.4415 -0.8513,2.5539 -3.4139,2.9186 -5.5437,0.7888 z"
       style="fill:#ffd42a;fill-opacity:1;stroke:none;stroke-width:1.57632399;stroke-miterlimit:4;stroke-dasharray:none" />
    <path
       inkscape:connector-curvature="0"
       id="path5408"
       d="m 611.80289,526.54291 c -9.8229,-2.9988 -17.7355,-8.8647 -33.4783,-24.8184 -19.1467,-19.4031 -32.3207,-35.9472 -43.9316,-55.1697 -20.2832,-33.5799 -37.373,-79.3379 -47.7328,-127.8054 l -3.7928,-17.7441 3.7034,-0.9295 c 8.7404,-2.1937 29.1052,8.3742 62.9673,32.6756 25.0522,17.9789 38.3609,26.4558 53.595,34.137 18.1097,9.131 34.1689,20.9748 49.5935,36.5756 17.7899,17.9931 45.9427,52.6761 49.6639,61.1836 4.3056,9.8433 12.0189,16.0796 19.8882,16.0796 11.1862,0 18.5452,-6.3164 18.9108,-16.2315 0.1119,-3.0356 0.4004,-2.8776 2.2934,1.2565 2.9241,6.3861 2.8292,12.611 -0.2926,19.1897 -4.5645,9.6191 -15.3812,13.9506 -28.076,11.2431 -7.0733,-1.5086 -7.2296,-1.4499 -15.4264,5.7978 -9.9551,8.8025 -32.7934,20.2898 -46.9006,23.5903 -10.67,2.4964 -34.163,3.0523 -40.9844,0.9698 z m 41.2258,-23.1225 c -1.1305,-6.18 -13.4054,-21.7093 -66.5306,-84.1698 -9.9549,-11.7042 -22.6792,-27.1889 -28.2763,-34.4105 -5.597,-7.2216 -10.428,-12.3753 -10.7356,-11.4527 -1.0232,3.0696 12.8936,27.0139 25.1342,43.2442 6.6441,8.8098 22.8827,28.0766 36.0857,42.8153 13.203,14.7386 27.9624,31.5949 32.7986,37.4585 8.5245,10.3354 12.6494,12.6674 11.524,6.515 z"
       style="fill:#ffd42a;fill-opacity:1;stroke:none;stroke-width:1.57632399;stroke-miterlimit:4;stroke-dasharray:none" />
    <path
       inkscape:connector-curvature="0"
       id="path5410"
       d="m 743.23559,552.53831 c -4.4396,-2.019 -8.5076,-4.3758 -9.0401,-5.2374 -0.5325,-0.8616 2.6753,-2.8929 7.1284,-4.514 9.4365,-3.4353 12.4515,-6.9893 9.686,-11.4176 -1.6086,-2.5759 -1.0913,-3.4536 3.9523,-6.7048 7.4422,-4.7975 12.8968,-15.4555 12.8968,-25.1997 v -7.3919 l 4.632,4.327 c 2.5476,2.3799 8.7544,5.5997 13.7928,7.1552 5.0385,1.5555 9.7887,3.1861 10.556,3.6236 1.7662,1.0068 -5.2028,4.9446 -8.8827,5.0192 -4.0334,0.082 -3.4207,1.8994 2.1966,6.5167 2.741,2.253 4.5124,4.8589 3.9365,5.7907 -0.5759,0.9319 -4.7629,2.9106 -9.3043,4.3973 -19.1177,6.2581 -28.2031,13.0952 -30.342,22.8332 -1.2075,5.4979 -0.9276,5.4778 -11.2083,0.8025 z"
       style="fill:#484537;fill-opacity:1;stroke:none;stroke-width:1.57632399;stroke-miterlimit:4;stroke-dasharray:none" />
    <path
       inkscape:connector-curvature="0"
       id="path5412"
       d="m 781.22669,568.90371 c -1.7047,-5.3709 6.4105,-19.7569 14.955,-26.5109 11.2722,-8.9102 16.396,-10.6612 21.4696,-7.3368 2.2537,1.4766 5.4955,5.8452 7.2042,9.7079 5.9485,13.4476 0.9334,18.7908 -9.6524,10.2839 l -5.9532,-4.7842 -5.0214,6.9922 c -9.4001,13.0894 -20.7242,18.8239 -23.0018,11.6479 z"
       style="fill:#484537;fill-opacity:1;stroke:none;stroke-width:1.57632399;stroke-miterlimit:4;stroke-dasharray:none" />
    <path
       inkscape:connector-curvature="0"
       id="path5414"
       d="m 799.38539,589.76841 c 0,-2.532 7.3431,-8.1564 10.6488,-8.1564 5.1683,0 5.5732,2.563 0.9761,6.179 -4.1101,3.2331 -11.6249,4.5113 -11.6249,1.9774 z"
       style="fill:#484537;fill-opacity:1;stroke:none;stroke-width:1.57632399;stroke-miterlimit:4;stroke-dasharray:none" />
    <path
       inkscape:connector-curvature="0"
       id="path5418"
       d="m 794.65649,471.30981 c 0,-2.2433 9.362,-6.7199 11.9647,-5.7212 3.9497,1.5157 2.3681,3.9157 -3.689,5.5978 -7.3284,2.0352 -8.2757,2.0493 -8.2757,0.1234 z"
       style="fill:#484537;fill-opacity:1;stroke:none;stroke-width:1.57632399;stroke-miterlimit:4;stroke-dasharray:none" />
    <path
       inkscape:connector-curvature="0"
       id="path5420"
       d="m 744.07309,503.96171 c 0,-0.8995 1.7194,-2.5075 4.8689,-4.5534 2.2582,-1.4669 2.4221,-1.4937 3.7619,-0.6158 1.6533,1.0832 1.7728,2.0547 0.4052,3.2924 -2.454,2.2208 -9.036,3.5879 -9.036,1.8768 z"
       style="fill:#484537;fill-opacity:1;stroke:none;stroke-width:0.55731469;stroke-miterlimit:4;stroke-dasharray:none" />
    <path
       inkscape:connector-curvature="0"
       id="path5422"
       d="m 729.90139,525.00271 c -0.4817,-0.4817 -0.8758,-1.4402 -0.8758,-2.13 0,-1.5326 1.6359,-6.4698 2.1423,-6.4655 1.6864,0.014 4.7209,1.4185 5.4412,2.5178 0.8242,1.2579 0.804,1.4824 -0.2927,3.2569 -0.6478,1.0483 -2.0269,2.3088 -3.0646,2.8012 -2.3104,1.0964 -2.2738,1.0962 -3.3504,0.02 z"
       style="fill:#484537;fill-opacity:1;stroke:none;stroke-width:0.55731469;stroke-miterlimit:4;stroke-dasharray:none" />
    <path
       inkscape:connector-curvature="0"
       id="path5424"
       d="m 710.58199,530.55271 c -1.0293,-1.2403 -0.8704,-6.059 0.3208,-9.7278 0.5407,-1.6651 1.1497,-3.2125 1.3534,-3.4385 0.6815,-0.7563 4.3652,2.8634 5.3054,5.213 1.1451,2.8621 0.761,4.9159 -1.3401,7.1652 -1.7787,1.904 -4.4084,2.2715 -5.6395,0.7881 z"
       style="fill:#484537;fill-opacity:1;stroke:none;stroke-width:0.55731469;stroke-miterlimit:4;stroke-dasharray:none" />
    <path
       inkscape:connector-curvature="0"
       id="path5426"
       d="m 690.61129,526.63931 c -1.3823,-1.7575 -1.4335,-2.9646 -0.2891,-6.8182 0.6753,-2.274 1.0739,-2.8561 1.8112,-2.6446 0.52,0.1491 2.0204,0.5804 3.3344,0.9583 5.9784,1.7197 6.897,6.2533 1.7944,8.8564 -3.0708,1.5667 -5.2316,1.4523 -6.6509,-0.3519 z"
       style="fill:#484537;fill-opacity:1;stroke:none;stroke-width:0.55731469;stroke-miterlimit:4;stroke-dasharray:none" />
    <path
       inkscape:connector-curvature="0"
       id="path5428"
       d="m 842.79549,520.53751 c -4.3171,-1.8153 -12.9719,-12.8695 -16.2816,-20.7955 -2.0809,-4.9834 -2.5365,-8.3548 -1.4207,-10.5125 1.22,-2.3592 3.2492,-2.8907 9.5922,-2.5123 8.0169,0.4783 8.4609,1.174 6.2428,9.7807 -1.1541,4.4783 -1.1893,5.0232 -0.4137,6.4091 0.4786,0.8553 1.6803,1.7866 2.7601,2.139 1.6618,0.5424 2.004,0.9806 2.6115,3.3439 0.9802,3.8136 1.4919,8.8067 1.0734,10.4742 -0.512,2.0401 -1.9334,2.6112 -4.164,1.6734 z"
       style="fill:#484537;fill-opacity:1;stroke:none;stroke-width:0.55731469;stroke-miterlimit:4;stroke-dasharray:none" />
    <path
       inkscape:connector-curvature="0"
       id="path5430"
       d="m 801.29999,490.74841 c -0.8225,-0.647 -1.4954,-1.494 -1.4954,-1.8824 0,-1.7456 5.8746,-2.7575 6.5029,-1.1201 0.3854,1.0044 -1.4765,3.7774 -2.698,4.0182 -0.4478,0.088 -1.4871,-0.3688 -2.3095,-1.0157 z"
       style="fill:#484537;fill-opacity:1;stroke:none;stroke-width:0.55731469;stroke-miterlimit:4;stroke-dasharray:none" />
    <path
       inkscape:connector-curvature="0"
       id="path5432"
       d="m 807.16109,520.75111 c -0.3678,-0.3678 -0.6688,-1.0048 -0.6688,-1.4154 0,-1.2674 2.0575,-4.7613 4.3333,-7.3585 l 2.1698,-2.4763 3.8345,1.0379 c 3.6543,0.9892 6.3819,2.802 6.3819,4.2415 0,1.2604 -3.9168,4.3361 -6.9828,5.4832 -3.4145,1.2776 -8.0298,1.5258 -9.0679,0.4876 z"
       style="fill:#484537;fill-opacity:1;stroke:none;stroke-width:0.55731469;stroke-miterlimit:4;stroke-dasharray:none" />
    <path
       inkscape:connector-curvature="0"
       id="path5434"
       d="m 823.90839,475.87231 c -1.0291,-0.362 -0.847,-2.6884 0.4021,-5.1368 1.0435,-2.0455 1.2926,-2.1882 4.9631,-2.8442 3.817,-0.6821 5.6418,-0.5128 5.6418,0.5235 0,2.3235 -8.7497,8.2516 -11.007,7.4575 z"
       style="fill:#484537;fill-opacity:1;stroke:none;stroke-width:0.55731469;stroke-miterlimit:4;stroke-dasharray:none" />
    <path
       inkscape:connector-curvature="0"
       id="path5436"
       d="m 847.30869,476.69541 c -0.3606,-0.4476 -0.3748,-1.1899 -0.04,-2.0765 0.4254,-1.125 0.6179,-1.2279 1.0419,-0.5573 0.6606,1.0445 0.6936,3.3305 0.048,3.3305 -0.269,0 -0.7417,-0.3135 -1.0505,-0.6967 z"
       style="fill:#484537;fill-opacity:1;stroke:none;stroke-width:0.55731469;stroke-miterlimit:4;stroke-dasharray:none" />
    <path
       inkscape:connector-curvature="0"
       id="path5438"
       d="m 771.38149,553.74471 c 0,-1.9719 1.476,-5.1479 3.1434,-6.7641 2.2594,-2.1899 2.4222,-1.2492 0.3903,2.2561 -1.9552,3.3731 -3.5337,5.3868 -3.5337,4.508 z"
       style="fill:#484537;fill-opacity:1;stroke:none;stroke-width:0.55731469;stroke-miterlimit:4;stroke-dasharray:none" />
    <path
       inkscape:connector-curvature="0"
       id="path5444"
       d="m 672.98349,905.13661 112.2178,-42.4189 h 4.2749"
       style="fill:none;stroke:#000000;stroke-width:0.94339454px;stroke-linecap:butt;stroke-linejoin:miter;stroke-opacity:1" />
    <path
       inkscape:connector-curvature="0"
       id="path5450"
       d="M 1061.9999,689.98281 Z"
       style="fill:none;stroke:#000000;stroke-width:1px;stroke-linecap:butt;stroke-linejoin:miter;stroke-opacity:1" />
    <path
       inkscape:connector-curvature="0"
       id="path5602"
       d="m 869.24209,709.65301 c 1.0465,-1.8395 2.2102,-2.646 3.7964,-2.631 l 1.7249,0.016 -1.8201,1.6556 c -1.8179,1.6537 -4.4903,2.3461 -3.7012,0.959 z"
       style="fill:#ffd42a;fill-opacity:1;stroke:none;stroke-width:0.55731469;stroke-miterlimit:4;stroke-dasharray:none" />
    <path
       inkscape:connector-curvature="0"
       id="path869"
       d="m 674.23909,519.98687 4.57019,21.91167 78.02406,34.55351 36.78277,32.32425 54.61684,-21.17795 11.80984,-35.48254 25.7948,-95.1362 -21.5791,-2.6558 -19.708,7.9097 -25.2979,-5.0468 -53.7214,22.3937 -17.61488,2.12815 -15.60482,16.71944 -24.7376,-3.59479 z"
       style="fill:none;stroke:#000000;stroke-width:1px;stroke-linecap:butt;stroke-linejoin:miter;stroke-opacity:1" />
    <path
       sodipodi:nodetypes="ssssscscscccsscsssccccccccccsssscscscsccsccccccccsscccccscsccccsscscsscccccccscccccssccccscccscccssc"
       inkscape:connector-curvature="0"
       id="path871"
       d="m 785.20217,599.80024 c -19.174,-18.24606 -24.26522,-21.59816 -59.12523,-38.92848 -18.42595,-9.1603 -34.0715,-16.2675 -35.81067,-16.2675 -1.6987,0 -4.83195,-0.72844 -6.96278,-1.61876 -3.71326,-1.5515 -3.9505,-2.00302 -5.71013,-10.86764 -1.00975,-5.08688 -1.83011,-10.00125 -1.82302,-10.92082 0.007,-0.93924 3.63223,-3.5721 8.27186,-6.0079 4.54244,-2.38478 10.90503,-6.33867 14.13908,-8.78644 8.66229,-6.55624 11.71052,-7.49825 24.26348,-7.49825 h 11.08903 l 7.61681,-8.2491 7.61681,-8.24911 7.52375,-0.79778 c 7.16999,-0.76027 10.33073,3.78595 7.52374,1.56133 -2.65425,-2.10357 1.60488,2.9197 5.27755,-1.53589 2.28764,-2.7753 6.21353,-5.17848 13.65664,-8.35972 5.74534,-2.4556 10.80329,-4.46472 11.23991,-4.46472 0.43662,0 1.10858,1.25396 1.49324,2.78657 0.84499,3.36671 2.29522,3.47834 7.10346,0.54677 4.15931,-2.53591 5.56878,-5.13941 3.76103,-6.94717 -0.90321,-0.90321 0.72616,-2.062 6.06863,-4.31595 l 7.30337,-3.08123 7.99488,2.14315 c 4.39719,1.17874 10.15387,2.76394 12.79263,3.52269 3.75052,1.07842 4.97983,1.0849 5.63199,0.0297 0.45883,-0.74241 3.98998,-2.63213 7.847,-4.19938 5.95178,-2.41842 7.56583,-2.66701 10.66836,-1.64308 2.68189,0.8851 4.4122,0.86172 6.49615,-0.0878 3.1993,-1.4577 13.04514,-0.44556 13.04514,1.34102 0,2.87228 -26.22719,97.091 -30.99203,111.33597 -4.39357,13.13501 -5.91187,16.40891 -8.10635,17.4797 -1.48512,0.72466 -13.64087,5.5738 -27.01277,10.77585 l -24.31255,9.45827 z m 23.05511,-10.72804 c 6.12883,-2.13653 7.36326,-7.68517 1.70974,-7.68517 -3.38304,0 -7.50535,2.59151 -9.87491,6.2079 -1.73792,2.65241 -1.70802,2.70913 1.42816,2.70913 1.7618,0 4.79345,-0.55434 6.73701,-1.23186 z m -19.34715,-18.85288 c 1.23493,-0.4611 6.42213,-4.156 11.52711,-8.21088 5.105,-4.05489 10.11359,-7.36137 11.13024,-7.34773 1.01664,0.0136 3.10239,1.00564 4.635,2.20447 7.31367,5.72083 12.88489,-0.85494 9.89588,-11.68022 -1.82813,-6.62097 -5.34092,-9.70861 -11.74556,-10.32401 -10.41815,-1.00106 -19.05872,4.58188 -28.16662,18.1993 -6.00235,8.97427 -7.91226,15.01414 -5.62081,17.77518 1.35456,1.63214 2.56228,1.54297 8.34476,-0.61611 z m -34.33844,-18.61896 c 5.78412,-7.71188 11.37202,-12.15136 22.8497,-18.15365 6.28897,-3.28883 12.60564,-7.15084 14.03704,-8.58224 l 2.60254,-2.60254 -2.33241,-3.77393 -2.33242,-3.77393 3.53711,-2.7682 c 2.29529,-1.79634 3.30244,-3.37973 2.86871,-4.51003 -0.64483,-1.68037 -24.48562,-14.10453 -27.06528,-14.10453 -0.69706,0 -1.56033,2.47361 -1.9184,5.49691 -0.77521,6.54542 -3.77589,12.79337 -10.40079,21.65624 -2.68564,3.59288 -5.1641,7.85633 -5.5077,9.47435 -1.26185,5.94211 -2.67045,7.80262 -8.17609,10.79916 -8.58057,4.67014 -8.49607,8.87561 0.26515,13.19635 5.60192,2.76269 8.11927,2.25065 11.57284,-2.35396 z m -38.19174,-20.61967 c 3.30585,-4.71976 1.31538,-15.3568 -2.87366,-15.3568 -2.50583,0 -5.61723,5.76101 -5.75603,10.65777 -0.18931,6.67844 5.19117,9.60821 8.62969,4.69903 z m -18.96511,-2.61818 c 3.92567,-3.92567 0.93093,-12.73862 -4.32873,-12.73862 -3.4326,0 -5.066,2.11004 -5.066,6.54428 0,6.61844 5.40614,10.18294 9.39473,6.19434 z m 39.15192,-4.31445 c 2.12166,-3.23808 1.76926,-7.19121 -0.78368,-8.79094 -3.90519,-2.44709 -10.2115,4.98456 -8.34882,9.83863 1.06778,2.78261 7.07429,2.09353 9.1325,-1.04769 z m 78.29779,-1.07317 c 1.65544,-0.86132 4.2327,-2.87493 5.72728,-4.47469 6.23353,-6.67224 -2.95834,-13.08353 -10.38381,-7.24266 -4.37686,3.44284 -5.65162,7.33877 -3.48381,10.64727 1.98412,3.02814 3.89438,3.27925 8.14034,1.07008 z m 33.26893,-2.36078 c 0.35828,-0.93365 0.0756,-3.81775 -0.6283,-6.40911 -1.6258,-5.98568 -1.73933,-6.50434 -3.44427,-15.73477 -1.89934,-10.28282 -3.90476,-12.2405 -11.86298,-11.58054 -7.08065,0.58718 -8.57096,1.73768 -8.43522,6.51186 0.33892,11.92007 21.27032,35.29221 24.37077,27.21256 z M 753.27945,502.8804 c 1.38219,-2.10949 1.50298,-3.22358 0.54379,-5.01583 -1.6453,-3.07427 -2.60293,-2.92158 -7.24631,1.15535 -5.28344,4.63892 -5.13846,6.57231 0.49284,6.57231 3.46579,0 4.82045,-0.59159 6.20968,-2.71183 z m 53.51817,-15.00981 c -0.96941,-1.56854 -5.83866,-1.59875 -6.80067,-0.0422 -0.40276,0.65168 0.16299,2.17413 1.25721,3.38323 1.96701,2.17352 2.01384,2.174 4.14565,0.0422 1.1859,-1.1859 1.8149,-2.70835 1.39781,-3.38323 z m 25.03756,-14.88127 c 5.22617,-3.54098 5.19867,-4.81333 -0.11079,-5.12661 -5.30807,-0.3132 -7.7195,1.24384 -7.7195,4.98443 0,3.43152 2.89788,3.48414 7.83029,0.14218 z"
       style="fill:#2d1d16;fill-opacity:1;stroke:none;stroke-width:1.11462939;stroke-miterlimit:4;stroke-dasharray:none" />
    <path
       inkscape:connector-curvature="0"
       id="path2756"
       d="m 672.98349,905.13661 26.90436,-30.58236 -2.36449,-1.57633"
       style="fill:none;stroke:#000000;stroke-width:1px;stroke-linecap:butt;stroke-linejoin:miter;stroke-opacity:1" />
    <path
       sodipodi:nodetypes="cssscssssssssssscscsscssssscsscsssscsssscscsssssssscssssccccsccccssssscsccscsscssssscssscccscccscsssssssscscccsssssssccsscssccccccscssscccccsscscscscsscsssssssccssscsscsccsscssccssccssssssssscssscsscssscsssscssscccsscsscsccsssscscsscsssccssscsscssssccsscsscssssssssssscscsccasssscssscc"
       inkscape:connector-curvature="0"
       id="path2766"
       d="m 322.27256,1077.0281 c -5.67582,-3.9293 -8.48999,-14.8646 -7.17309,-27.8733 2.51966,-24.8898 10.18691,-47.3734 22.54631,-66.11505 7.42965,-11.26625 13.55698,-18.3808 33.23932,-38.5947 22.5944,-23.20463 27.79217,-29.11958 27.12245,-30.86482 -0.85981,-2.24064 -10.72481,-0.83644 -28.22591,4.01771 -71.73921,19.89781 -113.63364,24.94652 -197.43458,23.79288 -51.01675,-0.70233 -51.92874,-0.79177 -118.618378,-11.63437 -16.018193,-2.60429 -26.024477,-7.17835 -31.13411,-14.23199 -4.276924,-5.90413 -2.711775,-10.53285 6.529991,-19.31163 8.095999,-7.69041 12.567973,-9.65602 32.091658,-14.10556 33.483367,-7.63103 52.806849,-16.32733 52.806849,-23.76507 0,-4.84806 -3.73621,-5.98185 -29.161989,-8.84956 -17.598328,-1.98486 -21.873889,-2.69905 -31.318487,-5.23138 -22.636405,-6.06939 -36.463445,-16.80825 -36.463445,-28.31959 0,-13.34609 16.436996,-20.01239 73.71851,-29.89777 30.973721,-5.3453 42.847301,-8.07657 45.483831,-10.46259 5.58141,-5.05111 -4.1662,-13.04256 -27.52145,-22.56309 C 97.121366,748.27383 90.422107,744.84968 82.815343,739.75731 66.347687,728.73295 56.513949,716.23813 56.494948,706.3144 c -0.01656,-8.65041 6.481228,-13.20385 20.564803,-14.41114 9.42771,-0.80817 12.418934,-1.99457 14.818698,-5.87746 C 98.684638,675.01315 86.791076,660.23443 47.059496,630.33463 16.77486,607.54408 2.3389328,592.22053 1.4881533,581.96125 1.1664307,578.0817 1.269785,577.80251 3.3994195,576.79828 c 3.5158993,-1.65792 25.7105325,-1.93454 73.9741225,-0.92197 105.526028,2.21395 124.430038,4.55589 179.109638,22.18912 56.73171,18.295 189.40935,48.46952 244.13335,55.52257 2.16745,0.27936 7.66488,1.00739 12.21651,1.61787 19.51649,2.6176 39.4081,0.18463 39.4081,-4.82005 0,-2.16082 -2.96431,-6.99307 -6.04147,-9.84847 -8.87323,-8.23375 -17.42288,-12.824 -33.76071,-18.12588 -28.84781,-9.36155 -48.90309,-20.93575 -77.63396,-44.80368 -27.89426,-23.17294 -80.36266,-74.84108 -103.45455,-101.87663 -16.89774,-19.78355 -28.44441,-37.46076 -42.69264,-65.35968 -12.42911,-24.33696 -15.50176,-33.055 -12.72973,-36.11806 4.36365,-4.82177 20.3212,-8.60609 39.13389,-9.28056 18.97235,-0.68021 29.94195,1.23471 66.46705,11.60288 33.07305,9.38827 54.90569,16.73582 77.59488,26.11377 17.0738,7.05698 22.17729,8.17265 26.56811,5.80804 3.67534,-1.9793 4.69181,-5.03237 4.60136,-13.82073 -0.0904,-8.78203 -2.33257,-18.27214 -9.73536,-41.2051 -8.60764,-26.66544 -11.8566,-42.15782 -11.85447,-56.52698 0.002,-9.40649 0.8704,-13.45073 3.69401,-17.19148 2.70107,-3.57841 5.07078,-4.34298 10.17586,-3.28317 9.3108,1.93291 22.5446,9.60376 57.05714,33.07262 13.22142,8.99069 39.82188,26.81284 59.11215,39.60476 60.32698,40.00455 83.22327,56.97193 108.76635,80.60173 10.32359,9.5503 17.1986,15.36999 18.15714,15.36999 1.16598,0 -1.49681,-6.04928 -14.10203,-32.03674 -17.32304,-35.71392 -24.57569,-53.57107 -29.40297,-72.39472 -2.48163,-9.67694 -2.6262,-10.99041 -2.60244,-23.64486 0.0166,-8.85736 0.35615,-14.16743 1.00172,-15.6666 0.91529,-2.12553 1.20148,-2.2425 4.56066,-1.86387 6.84933,0.77202 33.67808,15.1987 57.36975,30.84955 32.90428,21.73677 61.38619,52.14034 76.49344,81.65444 7.22051,14.10624 7.30973,14.71436 5.4659,37.23266 -0.36885,4.50534 -0.22738,6.42812 0.54124,7.35424 0.93263,1.12373 0.71817,1.19312 -2.06428,0.66807 -1.70779,-0.32224 -3.45972,-0.56624 -3.8932,-0.54221 -0.43349,0.024 -10.15555,3.98308 -21.60455,8.79786 -11.44903,4.8148 -21.0252,8.74142 -21.28039,8.72583 -0.64108,-0.0392 2.9327,-3.00487 11.84507,-9.82966 9.0399,-6.92243 12.73291,-10.98696 15.75236,-17.337 4.42309,-9.30206 4.69477,-17.54633 0.94808,-28.7645 -5.45629,-16.33687 -20.91326,-38.29841 -39.38536,-55.9595 -11.12082,-10.63256 -20.20174,-17.05088 -32.97303,-23.30507 -27.62782,-13.52955 -39.1091,-10.30366 -36.55477,10.27078 1.31433,10.58655 7.41568,28.10749 15.24305,43.77261 7.48003,14.97 13.06586,23.74295 28.85528,45.31931 13.36507,18.26348 20.81775,30.92017 22.35245,37.96059 0.64626,2.96468 0.39142,3.08274 -8.29747,3.84401 l -5.98714,0.52456 -0.4529,-5.40231 c -0.86649,-10.33533 -6.18384,-19.89673 -15.44972,-27.78085 l -4.23203,-3.60094 3.74456,6.16779 c 8.80139,14.49709 8.55732,19.0895 -1.36672,25.71652 -6.17286,4.12208 -8.46067,4.11643 -14.67931,-0.0362 -5.40456,-3.60903 -8.18959,-6.85618 -11.87656,-13.84723 -4.9994,-9.47961 -19.12467,-27.22253 -39.26562,-49.322 -20.62937,-22.63536 -29.63851,-29.7843 -62.07207,-49.25543 -22.44932,-13.47719 -37.08147,-22.88669 -53.50702,-34.40877 -29.24624,-20.51545 -49.49934,-31.2466 -58.97228,-31.2466 -3.80628,0 -6.77356,2.229 -7.32685,5.50388 -0.99495,5.88908 9.63361,49.02796 19.422,78.82945 8.42188,25.64102 28.32952,65.23172 42.21914,83.96199 14.86063,20.0397 49.70379,55.17813 59.63036,60.1357 6.466,3.22928 13.84992,4.28507 26.50664,3.79005 13.00258,-0.50853 22.94029,-2.29969 34.78674,-6.26989 4.49245,-1.5056 8.28893,-2.62393 8.43661,-2.48518 0.1477,0.13875 1.11313,4.26927 2.14541,9.17896 1.03228,4.90968 2.06341,9.6949 2.29139,10.63384 0.22799,0.93893 1.31536,2.00742 2.41639,2.37444 1.15657,0.38552 -11.73895,0.66308 -30.53968,0.65733 -30.84256,-0.009 -32.94536,0.0818 -40.2763,1.74767 -15.70233,3.56816 -35.15354,11.29052 -44.43092,17.63961 -4.94188,3.38205 -11.7001,9.76915 -13.61476,12.86713 -3.34641,5.4146 -2.80667,14.09189 2.03765,32.759 5.89944,22.73294 20.04133,54.22762 31.67441,70.5405 15.2248,21.34947 33.79763,32.22374 73.84097,43.23337 12.20457,3.35555 28.99431,7.15444 35.46729,8.02492 9.17793,1.23423 25.5425,1.22636 56.9304,-0.0274 42.62731,-1.70269 45.30469,-1.50146 57.74717,4.34002 11.39343,5.34898 14.4184,6.2998 20.04249,6.2998 5.69644,0 11.80461,-2.61502 15.0122,-6.42705 1.09389,-1.30002 1.98892,-2.04185 1.98892,-1.64849 0,0.81346 -5.10807,26.28084 -5.9135,29.48311 l -0.52759,2.09761 -2.80192,-1.90142 c -5.55071,-3.7668 -21.89269,-8.04204 -33.46559,-8.75495 -22.85333,-1.40779 -44.34365,8.00646 -88.5207,38.77819 -25.96489,18.08597 -44.75749,29.30636 -55.95917,33.41123 -9.82634,3.60088 -13.47624,5.31787 -19.15955,9.01308 -11.87113,7.71844 -19.27209,18.48899 -23.09636,33.61194 -3.21769,12.72424 -0.82455,22.97435 7.0071,30.01224 9.27358,8.33367 17.26599,8.25226 33.78846,-0.34417 l 3.82484,-1.99002 -5.91122,-0.061 c -7.18855,-0.0742 -17.40099,-1.33485 -18.32864,-2.2625 -3.07208,-3.07208 65.14521,-73.75727 91.62771,-94.94252 9.90854,-7.92656 29.62326,-15.99534 26.42062,-10.81337 -0.2941,0.47587 -4.52104,3.48641 -9.3932,6.69008 -11.06227,7.27396 -20.50364,14.91373 -35.20431,28.48659 -27.12065,25.04002 -49.42142,52.22463 -47.58606,58.00736 0.48364,1.52378 0.91842,1.60481 6.14715,1.14569 3.09468,-0.27174 10.41479,-1.69165 16.26689,-3.15534 5.8521,-1.46371 10.70927,-2.61015 10.7937,-2.54765 0.0844,0.0625 -5.14309,6.1331 -11.61672,13.49023 -6.47361,7.35713 -11.77412,13.64261 -11.7789,13.96773 -0.0231,1.57243 2.09278,-0.57515 13.73459,-13.94046 l 12.56103,-14.42061 16.20689,-4.56688 c 33.09482,-9.32569 51.31089,-15.88625 71.37822,-25.70702 27.01481,-13.22081 42.19284,-28.59216 49.95907,-50.59553 3.05657,-8.65991 4.87108,-18.35256 4.74789,-25.3613 -0.0678,-3.86433 1.11462,-11.37394 3.9695,-25.20805 3.11566,10.17046 48.71618,43.34063 -60.1945,117.70282 0.0453,-3.46442 -108.20044,42.42173 -114.02712,44.37395 -1.47352,0.49371 -6.79288,2.7837 -11.82078,5.08887 -12.84028,5.88698 -15.83886,6.25134 -35.61945,4.32805 -21.00588,-2.04241 -26.84545,-2.37501 -42.3308,-2.41098 l -13.00468,-0.0302 8.30725,-4.94741 c 10.57212,-6.29626 13.14609,-8.14346 14.31244,-10.27126 0.59242,-1.08077 0.95745,-5.66731 0.9836,-12.35874 0.04,-10.23549 0.13514,-10.83816 2.50162,-15.84549 3.38844,-7.16971 8.61586,-14.71674 20.3195,-29.33605 12.86117,-16.0652 14.52295,-18.55172 13.02981,-19.49656 -3.69804,-2.34011 -30.55047,0.91017 -53.543,6.48094 -38.00419,9.2079 -92.69453,40.07998 -149.75078,84.53262 -53.94409,42.02795 -81.82146,75.46948 -90.39744,108.44025 -1.47581,5.6739 -2.05352,10.3643 -2.38497,19.3639 -0.79922,21.7003 1.46762,23.0873 20.27151,12.4031 4.98512,-2.8325 34.77764,-22.2633 66.2056,-43.1796 78.35017,-52.14456 114.05809,-74.83237 131.00654,-83.23794 15.79722,-7.83461 6.0565,1.60264 -20.70509,20.06005 -22.51527,15.52874 -115.17572,77.38029 -146.5569,97.82779 -34.25089,22.3174 -53.62598,34.2985 -55.46508,34.2985 -0.93437,0 -2.85161,-0.798 -4.26051,-1.7733 z M 246.04021,926.6554 c 31.59309,-1.95489 58.54903,-6.49257 101.27503,-17.04837 37.61272,-9.29253 65.33318,-18.52954 87.07413,-29.01487 20.33202,-9.80582 29.20251,-18.56083 18.76513,-18.52084 -11.55544,0.0443 -51.71845,7.95674 -89.67816,17.66739 -9.10327,2.32875 -31.09299,8.32058 -48.86604,13.3152 -51.12104,14.3661 -63.1106,17.09301 -81.96885,18.64302 -5.20187,0.42755 -35.5264,0.78824 -67.38785,0.80153 -63.54412,0.0265 -78.155668,0.58413 -85.363315,3.25776 -2.517198,0.93373 -4.290563,1.9702 -3.940813,2.30327 2.098693,1.99857 30.461418,6.24696 52.654598,7.887 29.52262,2.18169 87.93581,2.5343 117.43614,0.70891 z M 51.877154,912.50163 c 2.789998,-2.79 2.667835,-4.71295 -0.392596,-6.17977 -3.757481,-1.80091 -9.972387,0.2931 -9.972387,3.36003 0,0.55597 0.869747,1.94933 1.932771,3.09635 2.586987,2.79141 5.458388,2.69721 8.432212,-0.27661 z m 127.169286,-7.53062 c 56.67673,-0.87807 79.1418,-2.30431 93.00311,-5.90445 13.72599,-3.565 27.88287,-9.21682 30.25944,-12.0804 1.67976,-2.02397 0.6767,-3.97111 -2.59848,-5.0442 -1.70733,-0.55939 -10.74429,-1.34084 -20.47855,-1.77083 -19.5982,-0.8657 -28.03776,-1.59807 -50.13724,-4.35081 -48.73538,-6.07053 -77.49342,-6.14227 -104.7576,-0.26128 -14.99241,3.23392 -47.049659,14.53423 -54.406916,19.17866 -3.282042,2.07186 -6.349497,5.55016 -6.349497,7.19992 0,4.25362 13.615763,4.61131 115.465733,3.03339 z M 345.7427,865.64945 c 17.43105,-1.61856 38.48224,-4.81697 70.5405,-10.71756 52.62132,-9.6854 84.97865,-16.85784 92.33139,-20.4665 5.63271,-2.76448 6.68262,-4.43045 4.05986,-6.44211 -3.09768,-2.37593 -19.56824,-8.7715 -49.88969,-19.3723 -42.99861,-15.03293 -47.55772,-16.05965 -69.35826,-15.61965 -15.40936,0.31101 -16.32304,0.41465 -29.16199,3.30801 -17.63417,3.974 -20.26642,4.31693 -33.10281,4.31265 -14.29439,-0.005 -29.45999,-1.12499 -75.66355,-5.58903 -47.17882,-4.55828 -60.39003,-5.5175 -75.92257,-5.5125 -45.57983,0.0147 -114.640163,12.2856 -123.350761,21.91747 -1.406533,1.55528 -1.398743,1.62204 0.295084,2.52855 2.792852,1.49469 28.363861,2.2752 76.419057,2.33255 69.71369,0.0832 102.46658,1.50267 111.42097,4.82883 l 4.04476,1.50245 -5.51713,-0.41062 c -3.03442,-0.22584 -9.95055,-0.74726 -15.36916,-1.15872 -18.57959,-1.41084 -78.18449,-2.60064 -104.11161,-2.07823 -31.792572,0.64059 -40.230705,1.07149 -48.951778,2.49976 -9.903662,1.62194 -19.604859,6.36902 -18.074882,8.84458 0.991407,1.60413 37.460039,9.75005 94.68656,21.14992 75.50618,15.0413 85.43561,16.11191 145.41589,15.67911 24.69356,-0.17818 39.65707,-0.64497 49.26012,-1.53666 z M 41.061792,822.98657 c 1.769962,-1.76996 1.534427,-3.26022 -0.752059,-4.75839 -1.86405,-1.22137 -2.089529,-1.21476 -3.546729,0.10399 -0.855871,0.77455 -1.556129,1.85998 -1.556129,2.41207 0,1.32527 2.19638,3.48087 3.546729,3.48087 0.588307,0 1.626992,-0.55734 2.308188,-1.23854 z M 584.55578,810.09358 c 37.05846,-5.02079 75.28867,-12.8181 91.56096,-18.67447 24.59719,-8.8525 68.39413,-35.30907 65.69129,-39.68238 -0.66007,-1.06801 -3.44533,-2.20536 -6.88453,-2.81126 -1.35008,-0.23785 -2.68592,-0.57536 -2.96855,-0.75003 -0.28262,-0.17468 -5.98723,-0.87438 -12.67692,-1.55489 -51.56967,-5.246 -85.54917,-13.73751 -112.65371,-28.1523 -11.3691,-6.04633 -18.20043,-11.11347 -29.66715,-22.00564 -15.70411,-14.91724 -18.17749,-15.94517 -61.32685,-25.48718 -24.14536,-5.33949 -34.61922,-7.19038 -44.96394,-7.94581 -3.46792,-0.25325 -7.90133,-0.6069 -9.85203,-0.7859 -1.9507,-0.17899 -19.86168,-0.535 -39.80218,-0.79112 l -36.25545,-0.46568 -25.61527,9.39003 c -39.569,14.50517 -54.21346,20.8024 -61.67108,26.51902 -6.04352,4.63264 -7.74499,9.67207 -4.33748,12.84673 4.13225,3.84989 38.65662,22.76755 71.91978,39.40852 84.25911,42.15333 121.97124,57.02696 157.23832,62.01466 12.17719,1.72218 45.92906,1.14092 62.26479,-1.0723 z M 285.04724,785.37671 c 1.07989,-0.54635 2.08211,-1.60964 2.22717,-2.36286 0.35369,-1.83656 -12.60512,-7.94741 -32.73737,-15.4376 -35.74556,-13.29912 -77.69227,-32.98547 -115.27454,-54.10045 -21.63694,-12.15636 -26.15596,-14.12655 -33.12105,-14.44007 -10.732098,-0.48309 -22.198673,3.45859 -24.822708,8.53291 -1.592332,3.07924 -1.495821,4.98237 0.445682,8.78803 4.956088,9.71473 21.873946,21.09128 47.750256,32.11004 48.66202,20.72146 143.19052,43.15437 155.53256,36.91 z m 76.29389,-12.09917 c 0.99307,-0.26602 1.67548,-0.874 1.51645,-1.35109 -0.29154,-0.87462 -14.38966,-8.98286 -35.82905,-20.60633 -13.17997,-7.14558 -30.14726,-18.20514 -38.8903,-25.34934 -8.62195,-7.04525 -18.38116,-17.67796 -20.84173,-22.70719 -1.36649,-2.793 -2.14898,-5.71543 -2.18591,-8.16391 -0.1512,-10.0228 5.50986,-13.03325 49.97225,-26.57435 12.02228,-3.66141 26.58767,-8.29853 32.36753,-10.30471 17.04777,-5.91725 24.6028,-10.36897 21.69408,-12.78298 -3.58878,-2.97843 -68.95981,-21.00495 -123.49832,-34.05551 -63.68103,-15.2383 -84.89019,-18.99842 -119.80063,-21.23913 -14.74766,-0.94657 -54.198129,-0.48099 -61.870712,0.73017 -10.202954,1.61061 -16.157321,3.94839 -16.157321,6.34364 0,1.37662 8.581692,6.72853 19.681909,12.27448 24.122881,12.0524 64.796164,28.63027 124.575624,50.77528 31.45573,11.65262 43.32502,16.45567 43.32502,17.53197 0,1.75386 -16.97659,-1.69679 -37.79515,-7.68222 -30.38238,-8.73506 -64.68619,-20.96679 -95.38099,-34.01003 -26.582259,-11.2957 -29.973391,-12.27388 -29.973391,-8.64586 0,2.69649 3.424214,6.98143 12.691339,15.8815 19.212172,18.45122 51.499982,44.6611 70.853832,57.51615 42.2423,28.05783 115.32419,59.51834 158.24875,68.1234 16.84318,3.37654 42.14866,5.6751 47.29672,4.29606 z M 542.73548,611.75568 c 0.41255,-0.42944 -0.87362,-4.61012 -3.13378,-10.18634 -4.93864,-12.18448 -5.12299,-15.90934 -1.17478,-23.736 3.54935,-7.03601 10.71335,-15.2354 26.15351,-29.93342 6.87366,-6.54327 13.50019,-13.34365 14.72564,-15.11198 2.20359,-3.17977 2.21341,-3.2461 0.89286,-6.02895 -0.73439,-1.5476 -2.80079,-4.32338 -4.59202,-6.1684 -6.94542,-7.15399 -13.24191,-14.41046 -31.63433,-36.45738 -28.43218,-34.08154 -39.73309,-45.42536 -56.26915,-56.4828 -10.07483,-6.7369 -16.94594,-10.22666 -31.22397,-15.8583 -28.46538,-11.2275 -89.11312,-27.17879 -117.46725,-30.89569 -10.504,-1.37695 -38.60284,-1.61978 -43.09416,-0.37242 -8.65003,2.40236 -7.5129,6.83786 8.72053,34.01543 24.87292,41.64158 45.98677,68.73581 80.04954,102.72311 41.3743,41.28263 76.98285,69.85016 104.64841,83.95588 10.31289,5.25818 22.88172,9.73832 30.58997,10.90374 6.09558,0.92159 21.81422,0.66904 22.80898,-0.36648 z"
       style="fill:#000000;fill-opacity:1;stroke:none;stroke-width:0.78816199;stroke-miterlimit:4;stroke-dasharray:none" />
    <path
       sodipodi:nodetypes="cssccccccssscssscsccssssscscssscsscscsssssssccsccccssccsssscccsccccccsscccscscssccscccccccscccccccscccsssccscccccssscscccscssscccs"
       inkscape:connector-curvature="0"
       id="path2768"
       d="m 849.76034,717.50094 -4.29527,-14.89273 c -5.94558,-20.61472 -25.80036,-59.66165 -39.38951,-77.4644 l -11.33565,-14.85052 14.52819,-11.24335 c 61.80519,-27.76401 34.40913,-6.40499 26.55998,8.26132 -6.69336,12.50665 23.64393,14.21877 42.78775,6.73 4.88126,-1.9095 17.67175,0.89046 43.40889,-0.58949 27.05791,-1.55593 48.66568,-4.24359 51.23052,-6.37223 7.9192,-6.57232 4.94641,-18.25938 -8.30001,-32.63003 -17.76379,-19.27144 -31.20621,-25.05356 -53.53769,-23.02861 -17.69023,1.6041 -34.77282,9.89279 -53.13061,25.77961 l -7.48505,6.47756 2.30919,-7.88162 c 6.80341,-23.22109 -3.09994,-21.45138 18.39249,-26.00422 26.42631,-5.59801 64.89127,-21.15672 76.44097,-29.49928 7.77193,-5.6138 11.33283,-20.74709 18.11966,-43.16684 8.39449,-27.73034 15.96528,-50.52684 19.47232,-71.57265 1.0113,-6.06885 2.44144,-13.16231 3.17809,-15.76324 5.84624,-20.64137 11.4303,-62.15641 10.44485,-77.65238 -0.85015,-13.36756 -1.79083,-15.20909 -7.28155,-14.25428 -3.46791,0.60305 -13.39875,7.16876 -22.06854,14.59047 -12.64003,10.82041 -20.52494,22.47137 -39.79616,58.80387 -13.21811,24.92039 -27.95344,54.17665 -32.74518,65.01388 -6.38437,14.43919 -10.35216,19.70405 -14.84973,19.70405 -3.37561,0 -5.65364,-1.06402 -5.06228,-2.36449 0.59137,-1.30047 11.99122,-24.37895 25.33301,-51.28554 13.34179,-26.90656 26.5846,-57.40843 29.42846,-67.78194 11.08703,-40.44181 9.07226,-175.76024 -3.04883,-204.7701 C 921.6171,111.9597 900.0183,92.686279 862.30309,67.885463 806.78106,31.375215 795.76426,28.482069 811.04726,48.450558 c 11.05916,14.449692 6.0217,12.004936 3.02132,17.644068 -2.90777,5.46509 -0.71338,6.654034 7.60024,45.575054 4.94085,23.1311 9.31564,65.57681 12.25191,105.61371 6.18544,84.34042 17.89527,170.54534 30.33776,237.04042 0.89226,4.76838 -4.42258,1.67202 -6.04862,1.67202 -1.62606,0 -5.20053,0.86111 -7.94328,1.91362 -4.14404,1.59023 -4.98682,-0.79314 -4.98682,-14.10274 0,-8.80897 -6.37313,-50.15344 -11.43786,-90.5142 -9.73002,-77.53847 -11.72737,-95.93767 -14.61043,-141.6269 -2.5668,-40.67739 -8.78179,-113.055224 -19.91694,-139.216888 -16.39157,-38.511414 -5.00025,-73.22077704 4.34939,-73.22077704 1.66085,0 9.6636,10.94405004 20.50855,20.91429904 10.84495,9.970249 38.48741,29.6801 60.74652,47.886642 22.25911,18.206542 44.63187,40.420264 50.39839,45.276854 l 10.48459,8.83015 3.99626,-25.246327 c 4.98206,-31.474146 27.26324,-64.354746 34.93243,-68.459178 9.34291,-5.000158 22.45483,10.438543 33.87613,42.002612 20.6366,57.032273 28.3335,122.560873 28.4155,183.267913 0.019,14.53747 1.0985,19.62265 3.9677,18.70124 6.2865,-2.0188 19.8033,-29.11557 36.8767,-73.92547 23.7561,-62.34896 39.9982,-92.32985 35.4952,-137.205057 -5.1739,-51.5611587 9.2736,-54.7413014 14.7452,-46.352509 4.7961,7.353424 37.736,108.451616 44.4627,132.725506 3.3106,11.94694 7.7317,35.8498 9.8245,53.11746 2.0928,17.26766 5.0651,31.39574 6.605,31.39574 1.54,0 14.9406,-12.05888 29.7791,-26.79751 14.8385,-14.73863 27.7291,-26.79751 28.6459,-26.79751 3.1915,0 -2.7194,38.52582 -9.1117,59.38793 -8.6024,28.07475 -30.4017,69.6182 -50.7107,96.6405 -9.1108,12.1225 -43.5292,49.71783 -76.4852,83.54517 -39.3427,40.38277 -72.1622,77.70549 -95.5681,108.68101 l -35.64801,47.17673 c -31.68031,58.87908 -28.68383,98.33125 -140.14025,143.5068 z m 104.20364,-72.7333 c 23.10649,-18.51017 2.44804,-21.62304 4.79941,-21.63373 2.35137,-0.009 9.94228,7.09824 4.74068,4.31997 -7.70164,-4.11336 -15.605,-4.69959 -42.56075,-3.1571 -41.53006,2.37653 -65.52512,8.57596 -74.87539,19.34503 -9.01458,10.38243 -8.90303,14.06462 0.92666,30.59027 4.41106,7.41585 7.49628,10.79624 8.52765,13.97723 20.07194,3.90346 84.7707,-27.99901 98.44174,-43.44167 z m 36.08006,-95.6355 c 13.18366,-6.81757 23.94066,-30.15721 45.23506,-81.33704 13.5014,-32.44977 9.7604,-105.44575 -10.2952,-146.84818 -5.1769,-10.68697 -10.6811,-19.43085 -12.2316,-19.43085 -1.5506,0 -3.519,3.90141 -4.3743,8.66979 -17.18404,95.79986 -32.35873,173.36754 -45.34947,207.88078 -8.36773,22.23099 -10.21541,27.09446 3.51873,32.66146 9.39495,3.80815 13.5985,3.52262 23.49678,-1.59596 z M 1128.7042,393.73103 c 59.2236,-58.68595 83.9317,-90.82567 99.7481,-129.75005 20.3813,-50.15866 9.9466,-45.96453 -34.5577,13.89024 -4.3572,5.86006 -4.5531,5.4406 -2.7747,-5.94025 1.0718,-6.85936 0.6618,-11.71276 -0.9322,-11.03426 -1.5651,0.66619 -20.163,11.51465 -41.3287,24.10767 -47.9204,28.51127 -71.9418,50.19957 -84.3472,76.15478 l -9.256,19.36574 3.7182,29.43943 c 4.0125,31.76851 6.1081,39.7262 10.4619,39.7262 1.5379,0 28.2087,-25.18178 59.2683,-55.9595 z m -61.9264,-60.65102 c 9.693,-7.62452 33.8282,-53.95555 42.7195,-82.0063 5.4857,-17.30649 11.6522,-42.29997 17.5014,-70.93458 0.9359,-4.58192 1.3879,-3.99199 1.6537,2.15838 0.5878,13.60492 -8.2948,52.37469 -18.872,82.37031 -5.388,15.27956 -8.9701,28.60727 -7.9602,29.61714 3.1917,3.19167 29.3491,-8.45977 43.851,-19.5328 7.6714,-5.85756 18.7669,-18.15917 24.6568,-27.33691 9.3857,-14.62517 10.8476,-19.71957 11.8326,-41.23435 0.8612,-18.81022 -0.077,-26.38009 -4.0135,-32.38813 -6.7197,-10.25562 -13.1564,-9.94333 -17.0909,0.82922 -2.7835,7.62116 -3.1966,6.47721 -3.4154,-9.45794 -0.1939,-14.12239 0.796,-18.12773 4.4801,-18.12773 6.5774,0 6,-10.97465 -1.9315,-36.71152 -8.3233,-27.008087 -17.8631,-46.06057 -21.8342,-43.60629 -1.6675,1.030553 -3.2173,14.912904 -3.4439,30.849669 -0.2266,15.936761 -1.4159,39.616121 -2.6429,52.620791 l -2.2308,23.64486 -0.5098,-22.8567 c -0.2802,-12.57118 -1.5737,-22.85355 -2.8742,-22.84971 -1.3005,0.004 -10.844,23.76692 -21.2078,52.80685 -10.3639,29.03993 -28.4522,71.9398 -40.1963,95.33304 -11.7441,23.39324 -21.3529,44.56189 -21.3529,47.04148 0,4.77846 8.8981,16.03906 12.674,16.03906 1.2314,0 5.8246,-2.82052 10.2072,-6.26784 z m -60.7427,-52.5094 c 24.5123,-3.27972 28.7487,0.17572 30.5043,-6.81914 2.0585,-8.20162 -0.6252,-79.95338 -3.6783,-98.34131 -10.8575,-65.39369 -24.939,-103.14898 -35.93622,-96.352299 -2.32152,1.434763 -3.55307,22.699589 -3.71956,64.223709 -0.13689,34.14331 -2.42621,98.00013 -3.04391,96.26617 -0.61773,-1.73395 0.0245,-69.22799 -0.61634,-104.34888 -1.22487,-67.129513 -3.71924,-79.034334 -13.72017,-65.481983 -6.26018,8.483214 -15.42278,40.949723 -22.26576,78.895773 -5.94306,32.95578 -8.1911,127.09793 -3.4398,144.05017 l 2.37849,8.48631 12.47992,-10.71857 c 7.78354,-3.44302 26.25932,-7.88 41.05735,-9.85995 z"
       style="fill:#000000;fill-opacity:1;stroke:none;stroke-width:3.15264797;stroke-miterlimit:4;stroke-dasharray:none" />
    <path
       style="fill:#004000;fill-opacity:1;stroke:none;stroke-width:1.57632399;stroke-miterlimit:4;stroke-dasharray:none"
       d="m 395.36607,1751.0356 c -8.24203,-10.478 -4.99162,-42.292 7.44268,-72.8466 7.76965,-19.0922 12.64294,-25.5357 41.13126,-54.384 15.22588,-15.4182 28.32685,-29.4346 29.11328,-31.1475 2.97464,-6.4789 0.20292,-6.1441 -33.74451,4.0761 -34.89798,10.5064 -89.90169,19.751 -136.35202,22.917 -44.36898,3.0242 -96.635,-0.2103 -143.7913,-8.8984 -11.46092,-2.1116 -24.27773,-3.8392 -28.48181,-3.8392 -25.24923,0 -40.34541,-16.0276 -29.84607,-31.6875 5.07837,-7.5744 16.71269,-13.2091 35.29442,-17.0935 31.17347,-6.5167 56.56563,-17.2512 55.37926,-23.4115 -0.9113,-4.732 -8.58518,-6.7131 -31.5485,-8.1446 -29.72429,-1.853 -44.41228,-6.3795 -57.23584,-17.6387 -10.89691,-9.5676 -12.87028,-20.4473 -5.04259,-27.801 5.26056,-4.9421 17.46545,-9.8643 30.12088,-12.1477 6.16762,-1.1128 18.66199,-3.4839 27.76526,-5.269 9.10327,-1.7851 23.99953,-4.4147 33.1028,-5.8436 18.72087,-2.9386 26.79751,-5.7395 26.79751,-9.2932 0,-4.0546 -11.99401,-11.4411 -29.65414,-18.2624 -35.18295,-13.5897 -58.37823,-36.2166 -52.94982,-51.6522 2.09323,-5.952 12.36461,-11.153 24.46396,-12.3873 5.53417,-0.5646 10.58327,-1.805 11.22022,-2.7564 0.63696,-0.9514 1.16897,-4.6808 1.18225,-8.2876 0.0428,-11.6338 -11.53329,-23.1845 -52.75302,-52.6374 -17.03953,-12.1753 -32.32827,-26.9785 -35.97669,-34.8343 -1.47012,-3.1655 -2.67294,-8.1942 -2.67294,-11.175 v -5.4196 l 43.74299,-1.0239 c 96.46792,-2.2581 155.03251,4.2355 213.02558,23.6203 44.95588,15.027 139.28166,36.9675 236.33168,54.9715 26.18118,4.857 48.65696,5.2912 53.90514,1.0415 3.36995,-2.7288 3.41355,-3.0641 1.00412,-7.7234 -4.00608,-7.7469 -14.08201,-15.3449 -23.39577,-17.6422 -43.18078,-10.6506 -96.73219,-46.1475 -137.04373,-90.8402 -7.01503,-7.7775 -19.19228,-19.8156 -27.06051,-26.7515 -17.13488,-15.1043 -36.44447,-37.6999 -51.71291,-60.5132 -11.46556,-17.1312 -37.66887,-68.0209 -37.66887,-73.157 0,-3.1728 9.64883,-8.0618 22.84858,-11.5773 11.84989,-3.1561 36.38884,-2.6545 54.93184,1.1226 8.80597,1.7937 33.22633,8.8872 54.26746,15.7632 21.04115,6.8761 39.2131,12.5019 40.38213,12.5019 1.16902,0 8.38122,3.1921 16.0271,7.0935 32.0275,16.3424 36.6556,6.7778 20.59412,-42.5608 -11.21154,-34.4402 -13.53521,-44.59418 -13.56376,-59.27098 -0.0657,-33.7668 12.34731,-33.6479 60.25918,0.5774 12.78138,9.1302 30.51503,21.046 39.4081,26.47948 60.09102,36.7145 128.84392,87.3212 151.63392,111.6126 2.5464,2.7142 5.2043,4.9349 5.9065,4.9349 0.7022,0 -5.8336,-14.1941 -14.5239,-31.5425 -8.6903,-17.3483 -18.1894,-37.4679 -21.109,-44.7101 -11.3446,-28.1402 -14.8646,-53.55008 -9.1471,-66.03088 l 2.7172,-5.9315 17.0578,8.6521 c 60.6095,30.74238 97.13378,63.38548 119.11808,106.46008 9.5404,18.6928 10.0606,20.964 7.2341,31.585 -2.9081,10.9282 -2.8891,11.7667 0.3403,14.9961 2.5081,2.5082 2.362,2.6018 -2.4207,1.5513 -3.9591,-0.8695 -7.2666,-0.069 -14.8858,3.6012 -5.3877,2.5955 -13.9432,6.1746 -19.0122,7.9535 -5.0691,1.7789 -11.6305,4.6588 -14.58098,6.3996 -2.9505,1.7409 -5.3646,2.8095 -5.3646,2.3747 0,-2.9961 6.38488,-9.3471 12.52518,-12.4586 8.56,-4.3377 19.9421,-16.0902 21.7064,-22.4128 0.6797,-2.4354 1.1856,-9.0517 1.1244,-14.7029 -0.1404,-12.973 -4.5006,-22.8432 -17.9636,-40.6653 -20.99338,-27.7909 -39.96728,-43.4116 -64.32578,-52.9576 -15.6528,-6.1343 -18.2744,-6.3638 -23.3013,-2.0398 -3.801,3.2695 -4.3765,4.8713 -4.2199,11.7458 0.4904,21.5298 23.0374,66.6546 49.0328,98.1326 9.3678,11.3435 17.8947,26.3527 19.7015,34.6791 0.8372,3.858 0.6581,3.9408 -8.5303,3.9408 h -9.3854 l -0.01,-6.7622 c 0,-3.7192 -1.3892,-9.4765 -3.0818,-12.7942 -3.7707,-7.3918 -10.7852,-15.9109 -13.1005,-15.9109 -0.941,0 -0.2572,1.596 1.5195,3.5467 8.3862,9.2073 9.0791,18.0387 1.9728,25.1449 -4.2925,4.2925 -5.5622,4.7188 -11.9206,4.0021 -8.5888,-0.968 -14.0106,-5.5012 -18.3641,-15.3541 -4.2596,-9.6405 -30.0211,-41.4427 -49.2444,-60.7914 -18.2068,-18.3257 -30.60026,-27.5181 -52.29144,-38.7855 -8.51976,-4.4255 -23.83521,-13.801 -34.03434,-20.8344 -10.19912,-7.0335 -25.44873,-17.5594 -33.88801,-23.39098 -19.42827,-13.425 -32.97822,-20.3139 -41.64659,-21.1735 -11.56052,-1.1464 -11.80063,-0.3873 -6.88409,21.7649 16.40424,73.91158 40.87612,126.31818 78.92317,169.01418 26.69221,29.9537 38.37895,37.9052 58.45333,39.7709 12.26217,1.1397 31.36177,-1.9665 44.89717,-7.3016 7.6649,-3.0213 7.7512,-3.0213 7.7512,0 0,1.6786 0.7785,6.6821 1.73,11.1189 1.2581,5.8662 2.6557,8.4215 5.1231,9.3668 1.998,0.7656 -12.161,1.5629 -34.4388,1.9394 -36.3304,0.614 -38.36347,0.8147 -51.2305,5.0574 -17.09547,5.637 -33.64295,14.2734 -41.29471,21.5523 -7.37099,7.0119 -7.64054,11.2146 -2.16634,33.7767 16.26378,67.0323 46.36022,102.8129 96.26795,114.4498 7.8028,1.8194 20.571,5.0756 28.3738,7.2359 19.7063,5.4561 34.727,6.0655 70.1311,2.8453 37.39648,-3.4014 46.68758,-2.7217 61.00158,4.4626 5.905,2.9638 13.0394,5.8878 15.854,6.4977 6.4337,1.394 14.6246,-1.2395 19.2854,-6.2007 3.2806,-3.492 3.5254,-4.9321 2.872,-16.8997 -1.1765,-21.5494 -15.3074,-52.7209 -42.0132,-92.6772 l -11.056,-16.5418 5.6661,-2.756 c 3.1165,-1.5159 6.7921,-3.7407 8.1682,-4.9442 2.3449,-2.0506 25.1001,-11.4605 35.6048,-14.7234 4.0239,-1.2499 5.2336,-2.9796 8.1131,-11.6008 1.8613,-5.5725 4.1862,-13.1168 5.1665,-16.7651 1.145,-4.2611 2.4998,-6.3579 3.7886,-5.8634 1.1034,0.4235 6.6672,-0.9845 12.3639,-3.1287 5.6966,-2.1442 19.3627,-6.436 30.369,-9.5373 35.69813,-10.0588 48.65463,-17.9471 54.31153,-33.0665 5.8568,-15.6536 25.2953,-89.8178 30.8051,-117.531 8.6283,-43.399 12.5648,-80.66878 9.3934,-88.93338 -1.4277,-3.7204 -5.4236,-3.046 -14.1037,2.3803 -23.8879,14.9333 -39.3674,37.32538 -67.83133,98.12248 -8.1591,17.4274 -17.7394,36.6726 -21.2894,42.7671 -5.1681,8.8722 -7.976,17.0508 -14.087,41.0311 -6.8547,26.8982 -18.2196,62.762 -16.7341,52.8069 0.3235,-2.1675 4.9402,-19.688 10.2594,-38.9345 5.3192,-19.2466 9.6713,-36.0176 9.6713,-37.2691 0,-2.5164 -3.2755,-4.189 -8.2036,-4.189 -2.4704,0 -2.8198,-0.4783 -1.5059,-2.0614 0.9409,-1.1337 5.5251,-9.4685 10.187,-18.5218 4.6619,-9.0532 11.3643,-21.5872 14.8941,-27.8532 10.2096,-18.1239 22.2049,-44.9628 27.99403,-62.6352 8.7715,-26.77708 10.8612,-40.65548 10.8084,-71.78198 -0.088,-51.66152 -1.579,-114.26775 -2.8633,-120.19466 l -1.2809,-5.91121 h 10.1409 10.1409 l -2.0288,13.79283 c -3.4811,23.66599 -5.1623,69.98291 -3.5905,98.91434 1.485,27.3326 2.8367,40.1963 4.224,40.1963 0.427,0 3.3612,-2.0428 6.5204,-4.5395 3.1592,-2.4967 9.2348,-5.7215 13.5013,-7.1664 10.0797,-3.4133 41.6038,-8.7864 51.5504,-8.7864 6.8157,0 7.9457,-0.4777 9.2512,-3.9114 5.427,-14.2742 4.2642,-66.11651 -2.2989,-102.49043 -2.19,-12.13769 -3.9849,-22.95522 -3.9886,-24.03894 0,-1.23797 2.2605,-1.9704 6.0924,-1.9704 5.8147,0 6.1468,0.27556 7.1238,5.91121 7.3553,42.4289 7.8307,47.36466 7.9612,82.64359 0.073,19.66137 0.5926,36.20837 1.1553,36.77107 0.5627,0.5626 3.9051,-3.2211 7.4277,-8.4083 13.8565,-20.40452 28.4541,-54.97868 40.5387,-96.01523 l 6.1459,-20.87024 7.3299,-0.016 7.3299,-0.0161 -7.107,22.46261 c -16.3928,51.81183 -33.7685,91.96186 -58.3143,134.74726 -10.9667,19.1157 -11.164,20.48188 -4.1607,28.80488 12.4008,14.7375 29.0586,-5.8998 54.0453,-66.95698 12.3693,-30.22564 18.5067,-54.90906 23.7239,-95.41291 2.9922,-23.23018 3.0984,-23.64486 6.0571,-23.64486 2.4994,0 2.6425,1.26516 1.5595,13.79283 -3.5999,41.64333 -13.7331,85.06916 -27.4271,117.53894 -2.9705,7.0434 -5.4009,13.4387 -5.4009,14.2117 0,2.7396 12.0225,-0.8083 26.7975,-7.908 12.5428,-6.0271 17.0261,-9.2759 27.6034,-20.0029 18.9314,-19.19915 26.0785,-35.77322 26.2356,-60.8396 0.1416,-22.59666 -4.3948,-36.41816 -12.3307,-37.56853 -4.0167,-0.58225 -5.6571,3.45962 -8.601,21.192 l -2.057,12.39041 -1.9089,-18.91589 c -1.0499,-10.40374 -1.9618,-22.28528 -2.0264,-26.40343 l -0.1175,-7.48753 h 14.9143 14.9143 l 1.7884,6.64144 c 4.3622,16.20012 7.9708,39.6398 8.6736,56.33914 0.4192,9.96095 1.4418,18.79045 2.2724,19.62111 2.868,2.86798 9.8625,-2.89157 27.6052,-22.73119 31.6177,-35.35449 34.7565,-36.78261 34.486,-15.69088 -0.3071,23.94524 -13.1351,64.2809 -31.5696,99.26585 -19.9276,37.81868 -44.5536,69.42978 -81.0839,104.08318 -65.108,61.7629 -102.2956,104.5018 -146.7189,168.6208 l -10.3752,14.9751 1.2874,25.572 c 1.2831,25.4874 2.6925,31.9638 6.9558,31.9638 7.5593,0 18.0376,-20.5955 26.8664,-52.8068 8.3578,-30.4928 13.8575,-43.7719 17.8257,-43.0406 8.1565,1.5032 12.6017,31.454 7.3496,49.5204 -5.2126,17.9309 -15.7764,34.6535 -32.2727,51.0883 -3.9339,3.9192 -19.2113,17.5093 -33.95,30.2003 -31.5259,27.146 -47.3708,43.4318 -51.6351,53.0719 -8.0759,18.2571 -4.4886,37.5079 14.387,77.2062 19.1229,40.2183 17.9977,35.9985 12.5989,47.2472 -6.0952,12.6994 -15.4848,20.7294 -32.5742,27.8574 -7.54113,3.1454 -18.67663,8.6984 -24.74543,12.3399 l -11.0343,6.6211 -46.5015,0.1272 c -56.1614,0.1537 -49.2804,-2.1171 -83.99898,27.7194 -20.6433,17.7404 -31.4304,21.0097 -40.8998,12.3959 l -5.148,-4.6828 6.3053,-0.081 c 12.8446,-0.1646 29.1684,-11.4328 35.4951,-24.5019 5.3324,-11.0152 1.4549,-16.5108 -9.9152,-14.0528 -9.6278,2.0813 -19.316,8.5337 -36.6141,24.385 -39.4994,36.1958 -61.5255,48.3871 -66.7408,36.9407 -2.4758,-5.4338 -2.3235,-11.7482 0.2834,-11.7482 1.162,0 6.3862,-2.1356 11.6095,-4.7456 17.5423,-8.7661 33.1666,-29.9336 22.0947,-29.9336 -1.9752,0 -8.8169,2.5044 -15.2039,5.5652 -15.8242,7.5836 -24.5164,8.2556 -50.49613,3.904 -30.46278,-5.1025 -40.93266,-2.7862 -56.25672,12.4458 -4.20829,4.183 -29.64118,22.0056 -56.5175,39.6058 -26.87633,17.6001 -71.33974,47.3119 -98.80758,66.0263 -27.46786,18.7143 -53.68227,36.3315 -58.25427,39.1491 -10.61487,6.5419 -18.63872,6.9119 -23.23289,1.0713 z m 49.01603,-32.3877 c 71.8192,-49.0368 165.99346,-109.6366 210.59829,-135.5169 13.5373,-7.8545 14.60991,-8.8332 13.66589,-12.4689 -3.06806,-11.8161 -2.72532,-15.8789 2.16863,-25.7063 2.67471,-5.3711 11.25888,-17.2137 19.07593,-26.317 7.81707,-9.1032 14.21905,-17.4381 14.22665,-18.5218 0.02,-2.8978 -12.39821,-2.4906 -33.32652,1.0929 -38.39996,6.5752 -80.52853,25.6332 -125.08032,56.5835 -22.89528,15.9054 -67.59843,50.1798 -78.47084,60.1643 -23.94833,21.9927 -48.28812,56.2089 -54.92545,77.2127 -3.69725,11.7 -4.56341,31.9536 -1.60175,37.4544 1.05027,1.9507 3.28095,3.5467 4.95705,3.5467 1.67609,0 14.5967,-7.8856 28.71244,-17.5236 z m -87.83033,-119.3066 c 76.71279,-12.0568 152.34026,-35.9052 173.696,-54.7735 l 6.00494,-5.3055 -4.52667,-0.066 c -7.1767,-0.1041 -36.31764,4.4091 -56.94997,8.82 -10.40374,2.2242 -41.02723,10.3532 -68.05222,18.0644 -27.02499,7.7113 -57.88153,16.2428 -68.57009,18.9589 l -19.43376,4.9383 -80.70449,0.1917 c -58.34367,0.1385 -81.20613,0.6923 -82.51497,1.9987 -2.18896,2.185 5.03065,3.9015 31.59641,7.5122 9.97025,1.3551 19.90109,2.7697 22.06853,3.1434 2.16745,0.3737 31.6053,0.4676 65.41745,0.2086 52.58656,-0.4028 64.44,-0.9367 81.96884,-3.6916 z m -226.29372,-12.0224 c 1.4942,-1.8004 1.23643,-2.5943 -1.27968,-3.9409 -4.73481,-2.5339 -8.08703,-2.035 -8.08703,1.2037 0,1.5895 0.4729,3.3628 1.05089,3.9408 1.80866,1.8087 6.36289,1.1495 8.31582,-1.2036 z m 197.13173,-8.6414 c 14.01855,-1.5655 45.80932,-10.883 51.23053,-15.015 5.15989,-3.933 0.90926,-5.0488 -23.44807,-6.1556 -12.35491,-0.5614 -36.574,-2.7938 -53.82019,-4.961 -41.85696,-5.2597 -61.55271,-6.2867 -79.09488,-4.1241 -23.99734,2.9583 -76.17038,20.63 -80.21145,27.1686 -0.64305,1.0404 0.16932,2.8508 1.85558,4.1352 2.56798,1.9558 15.01585,2.1524 86.54456,1.3663 45.94984,-0.505 89.57461,-1.5915 96.94392,-2.4144 z m 403.53891,-2.1248 5.5172,-2.4854 -9.1675,-0.1286 c -9.4075,-0.1319 -15.2656,-2.0865 -15.2656,-5.0934 0,-0.9357 11.8855,-13.8563 26.4121,-28.7124 14.5267,-14.8562 31.3737,-32.5731 37.4377,-39.3709 19.7678,-22.1597 41.0335,-36.6911 57.9213,-39.5791 7.9763,-1.3641 7.405,0.6452 -1.5991,5.6244 -23.3456,12.9097 -69.6427,55.7385 -84.3738,78.0529 -7.9256,12.0056 -8.8571,14.7631 -4.9871,14.7631 3.7496,0 67.4034,-16.7994 84.2606,-22.2379 38.61688,-12.4586 64.48398,-28.7061 78.82658,-49.5122 7.5314,-10.9254 14.6995,-39.8503 11.3561,-45.8246 -2.521,-4.5047 -18.6124,-8.7179 -36.8399,-9.6456 -14.186,-0.722 -18.4938,-0.3419 -27.65398,2.4405 -13.4969,4.0995 -33.6853,16.1765 -64.3087,38.4705 -28.5518,20.7858 -38.5719,26.5424 -55.486,31.8772 -10.3307,3.2583 -14.6167,5.6226 -21.3517,11.778 -20.41936,18.6621 -24.78778,49.9664 -8.41001,60.2666 5.76241,3.6241 18.86781,3.301 27.71181,-0.6831 z m 218.32088,-10.1238 c 13.9122,-2.3852 17.4292,-3.7033 29.9502,-11.2246 35.31153,-21.2114 38.32873,-27.3837 23.97443,-49.0449 -10.93763,-16.5053 -11.92113,-22.3461 -5.62573,-33.4083 1.6274,-2.8596 2.1451,-12.1165 2.1501,-38.4456 0,-19.0735 0.63583,-38.4141 1.40473,-42.979 1.1861,-7.0417 0.9688,-8.7741 -1.43323,-11.4284 -4.1851,-4.6244 -8.7718,-3.8584 -19.4026,3.2405 -9.1984,6.1425 -25.5008,22.3066 -25.5008,25.2846 0,2.7543 -2.7877,1.4387 -3.6093,-1.7034 -0.4535,-1.7339 -1.5209,-3.1526 -2.372,-3.1526 -1.5206,0 -6.408,18.428 -9.8246,37.0436 -4.4737,24.3757 -19.8547,58.9538 -34.5143,77.5922 -4.3176,5.4894 -7.5874,7.1063 -19.9585,9.8692 -9.3285,2.0833 -17.9954,6.9163 -17.9954,10.0349 0,3.3249 6.0462,10.2807 12.4129,14.2804 9.9931,6.2779 40.6552,16.3484 50.6401,16.6321 2.1674,0.062 11.0342,-1.1043 19.704,-2.5907 z m -511.51711,-26.527 c 40.05663,-5.4752 143.46531,-26.3104 149.3567,-30.0929 6.50547,-4.1768 3.58727,-7.5201 -8.90165,-10.1985 -4.5609,-0.9782 -20.82748,-6.7044 -36.14794,-12.725 -39.50607,-15.525 -49.04472,-17.8951 -71.20431,-17.6926 -14.69923,0.1344 -19.9165,0.8392 -27.58567,3.7265 -17.37881,6.5428 -52.67773,6.0896 -121.37694,-1.5582 -54.37941,-6.0538 -67.39099,-6.619 -92.21496,-4.006 -48.48833,5.104 -73.09591,9.8802 -89.42955,17.358 -4.69237,2.1483 -8.1461,4.5296 -7.67496,5.2919 0.48382,0.7829 31.67267,1.044 71.6677,0.6 76.20537,-0.8459 91.15578,-0.016 124.59421,6.9183 23.63291,4.9007 36.80417,4.8362 88.78108,-0.4351 36.96605,-3.7489 46.26506,-4.0528 43.63848,-1.4262 -1.78372,1.7837 -31.83883,5.8457 -55.55297,7.5081 -30.2164,2.1181 -70.27758,0.2696 -109.81838,-5.0672 -18.46788,-2.4926 -32.09627,-3.0873 -70.97593,-3.097 -26.46558,-0.01 -54.04884,0.7315 -61.29613,1.6402 -14.00697,1.7563 -28.73386,6.1039 -29.61329,8.7422 -0.29191,0.8757 4.84943,2.4962 11.42519,3.6011 6.57577,1.105 30.5285,6.1587 53.2283,11.2306 43.9313,9.8158 74.35844,15.9029 94.86738,18.9788 32.67743,4.901 110.73786,5.2815 144.23364,0.703 z m -319.83014,-43.7985 c -2.02319,-2.0232 -4.07489,-0.4595 -2.57704,1.9641 0.58021,0.9387 1.77707,1.2606 2.65969,0.7151 1.07663,-0.6654 1.04943,-1.5471 -0.0827,-2.6792 z m 543.21377,-10.5845 c 68.7542,-8.7567 97.4683,-17.0279 132.5594,-38.1839 20.6251,-12.4346 26.9523,-17.6326 24.5145,-20.1392 -1.0076,-1.0361 -12.4661,-2.8278 -26.0094,-4.067 -72.8735,-6.668 -108.8195,-19.5303 -138.97388,-49.728 -16.05634,-16.0794 -14.2907,-15.3422 -60.04951,-25.073 -45.06058,-9.5824 -56.37817,-10.9465 -90.90206,-10.9569 -35.63297,-0.011 -35.3491,-0.068 -83.43857,16.9285 -33.88612,11.9768 -41.49613,15.4495 -47.16506,21.523 -8.13992,8.7209 -1.97443,12.8253 79.4797,52.9103 86.25481,42.4476 111.94163,52.2921 153.69159,58.9027 10.33735,1.6367 33.73004,0.7573 56.29329,-2.1165 z m -296.3743,-26.1147 c 0.72058,-2.1804 -3.63942,-4.1349 -28.68223,-12.8576 -37.20756,-12.9598 -84.17709,-35.0135 -125.50718,-58.9295 -13.56613,-7.8502 -23.18069,-12.4238 -26.11732,-12.4238 -7.04228,0 -20.77002,4.5161 -24.22248,7.9685 -4.71767,4.7177 -3.76151,7.7306 5.21136,16.4216 14.20091,13.7546 49.63791,30.0261 91.4467,41.9892 24.81873,7.1016 62.49143,16.3777 75.40348,18.5664 11.24062,1.9055 31.74852,1.4413 32.46767,-0.7348 z m 74.43564,-12.3239 c -0.36125,-0.3432 -12.92149,-7.0464 -27.91167,-14.8961 -32.14092,-16.8307 -45.61123,-25.5088 -57.00585,-36.7251 -12.86608,-12.6647 -17.9721,-27.4521 -11.50097,-33.3075 4.47143,-4.046 15.8072,-8.3147 44.80731,-16.8731 48.2974,-14.2532 62.34484,-20.0137 58.40718,-23.9513 -1.72998,-1.73 -34.19062,-10.5229 -112.27835,-30.4139 -79.98979,-20.3755 -137.8797,-28.3764 -177.68225,-24.5572 -18.47085,1.7723 -28.95842,4.3516 -29.94449,7.3644 -1.51681,4.6344 71.61104,36.2574 139.84481,60.4737 31.10021,11.0375 49.99697,18.8591 52.31697,21.6545 1.75557,2.1153 1.60169,2.3222 -1.0988,1.4768 -1.72717,-0.5407 -10.23375,-2.4207 -18.90353,-4.1778 -36.93736,-7.4859 -79.4994,-21.9217 -124.52959,-42.2365 -21.81712,-9.8426 -24.43303,-10.6767 -24.43303,-7.7909 0,5.992 54.78727,53.8417 83.13667,72.6093 47.14848,31.2129 117.79595,61.3075 163.55803,69.673 9.99516,1.8272 44.79704,3.1782 43.21756,1.6777 z m 511.74124,-61.5907 c 1.6829,-1.2729 2.2312,-2.3369 1.2184,-2.3645 -2.9947,-0.082 -6.8283,1.755 -6.8283,3.2712 0,2.0658 2.1364,1.7206 5.6099,-0.9067 z m 13.306,-27.1757 c 19.6427,-7.2326 45.49433,-20.6672 58.46513,-30.3833 12.0029,-8.9911 19.2533,-20.0847 15.8258,-24.2145 -3.1665,-3.8155 -17.2235,-4.7032 -45.07953,-2.8468 -38.683,2.5779 -56.1394,7.2771 -68.4929,18.4377 -5.6799,5.1314 -6.4319,6.6261 -6.4319,12.7837 0,7.9576 4.1134,17.0746 12.2049,27.0514 5.3031,6.5386 5.7746,6.7638 12.0265,5.7456 3.5788,-0.5829 13.2457,-3.5411 21.482,-6.5738 z m -13.3441,-66.9938 c 8.6826,-3.214 11.8799,-3.4592 41.7179,-3.1985 32.23393,0.2815 55.75263,-1.5668 59.49913,-4.6762 3.229,-2.6798 2.2614,-12.6772 -2.0679,-21.365 -5.0982,-10.2306 -20.7211,-24.8482 -32.1488,-30.0799 -12.4893,-5.7178 -29.02333,-6.4408 -42.62193,-1.8637 -20.6024,6.9344 -42.711,23.8144 -54.9831,41.9797 -4.4385,6.5699 -8.0699,13.2573 -8.0699,14.8609 0,8.3543 21.3582,10.7525 38.6746,4.3427 z m -332.69683,-4.6258 c 0.47923,-0.4792 -0.99288,-4.9434 -3.27138,-9.9202 -3.28329,-7.1717 -3.93124,-10.4099 -3.12333,-15.6092 1.41535,-9.1085 9.82898,-20.7125 22.9312,-31.6265 13.9022,-11.5804 22.12126,-20.6028 22.12126,-24.2834 0,-1.5614 -2.54439,-5.2834 -5.65421,-8.2711 -3.1098,-2.9878 -15.54332,-17.614 -27.63006,-32.5028 -12.08671,-14.8887 -25.32527,-30.8006 -29.41899,-35.3596 -11.75746,-13.0939 -29.84779,-26.5821 -45.49902,-33.9241 -23.99242,-11.2549 -88.43294,-29.9648 -124.3055,-36.0914 -25.15366,-4.296 -57.53583,-3.1692 -57.53583,2.0021 0,2.7303 19.89357,36.9664 32.61681,56.1323 24.19479,36.4462 43.09739,57.8923 88.76014,100.7038 11.7042,10.9734 25.89112,23.6352 31.52648,28.1375 23.61021,18.8629 51.79591,35.0437 69.80276,40.0722 7.66845,2.1415 26.71964,2.5004 28.67967,0.5404 z m 446.22546,-59.4959 c 9.7094,-4.4101 17.2885,-14.5335 29.0482,-38.7994 24.3437,-50.2331 27.4706,-62.3057 26.3346,-101.6729 -0.9288,-32.1819 -4.942,-56.7057 -12.6177,-77.1025 -4.947,-13.14608 -15.7674,-31.66388 -18.5018,-31.66388 -0.7434,0 -1.7264,2.3054 -2.1844,5.1231 -17.9416,110.37718 -30.3635,166.29328 -47.2921,212.88188 -7.0015,19.2683 -7.045,21.9199 -0.4429,26.9556 10.1361,7.7312 15.9276,8.6969 25.6561,4.2781 z m 107.7267,-125.1015 c 95.6211,-93.447 101.8169,-100.8005 126.0209,-149.56898 13.4506,-27.10157 16.0118,-33.44714 16.0118,-39.67059 0,-4.27644 -0.7233,-7.40849 -1.7108,-7.40849 -2.4036,0 -8.5253,7.32635 -24.3667,29.162 -35.6342,49.11748 -65.5963,81.97986 -91.9813,100.88466 -7.2601,5.2019 -16.3927,12.5261 -20.2946,16.276 -3.9019,3.7498 -9.6586,8.4948 -12.7926,10.5442 -6.3711,4.1663 -14.368,6.6063 -14.368,4.384 0,-2.3088 7.9443,-9.1483 17.0747,-14.7003 28.862,-17.5504 85.0926,-71.66388 98.5514,-94.84098 4.4236,-7.6177 7.0585,-18.6068 4.4614,-18.6068 -0.9021,0 -5.7692,2.7224 -10.8156,6.0497 -5.0464,3.3273 -19.8155,11.9561 -32.8202,19.175 -33.3452,18.5102 -45.364,26.9062 -60.7011,42.40408 -12.4489,12.5792 -20.9042,25.0585 -26.2709,38.7731 -2.3026,5.8846 -2.5413,27.9102 -0.4611,42.5607 3.1943,22.497 6.6272,38.62 8.2231,38.62 0.9037,0 12.7115,-10.8168 26.2396,-24.0373 z"
       id="path880"
       inkscape:connector-curvature="0"
       clip-path="url(#clipPath904)"
       transform="translate(-76.17312,-674.36916)" />
  </g>
</svg>
